<svg xmlns="http://www.w3.org/2000/svg" viewBox="0 0 40.98 86.11"><defs><style>.cls-1{isolation:isolate;}.cls-2{fill:#769c41;}.cls-3{fill:#f5ab35;}.cls-4{fill:#fff;}.cls-10,.cls-5{fill:#ccc;}.cls-5,.cls-9{mix-blend-mode:multiply;}.cls-6{fill:#aa0c48;}.cls-7{fill:#2c3a49;}.cls-8{fill:#c5d3e2;}.cls-11{fill:#bfbfbf;}</style></defs><g class="cls-1"><g id="Layer_2" data-name="Layer 2"><g id="Ebene_1" data-name="Ebene 1"><path class="cls-2" d="M17.28,22V6.65a2.19,2.19,0,0,1,.17-.85,2.38,2.38,0,0,1-.56-1.54V2.38A2.39,2.39,0,0,1,19.27,0h2.38A2.39,2.39,0,0,1,24,2.38V4.26a2.38,2.38,0,0,1-.56,1.54,2.38,2.38,0,0,1,.16.85V22.18c2.58,10,6.75,9.84,6.75,18.4v32.7A2.38,2.38,0,0,1,28,75.66H13.11a2.39,2.39,0,0,1-2.38-2.38s.06-26.37,0-32.7C10.64,31,16.09,29.68,17.28,22Z"/><rect class="cls-3" x="16.49" width="7.55" height="6.45" rx="2.38"/><rect class="cls-3" x="10.74" y="42.98" width="19.65" height="22.98" rx="2.38"/><path class="cls-3" d="M17.28,20.94a2.34,2.34,0,0,0,2.29,2.39h1.78a2.34,2.34,0,0,0,2.29-2.39V12.71a2.34,2.34,0,0,0-2.29-2.39H19.57a2.34,2.34,0,0,0-2.29,2.39Z"/><path class="cls-4" d="M24.79,35.71c1,3.07.13,6.07,1.75,5.55s2.15-3.41,1.18-6.48S24.65,29.64,23,30.15,23.82,32.64,24.79,35.71Z"/><path class="cls-5" d="M10.75,63.61c0,5.46,0,9.67,0,9.67a2.38,2.38,0,0,0,2.39,2.38h7.45V0H18.88A2.37,2.37,0,0,0,16.5,2.38V4.07a2.37,2.37,0,0,0,.91,1.86,2.47,2.47,0,0,0-.12.72V22c-1.19,7.7-6.65,9-6.56,18.61,0,1.07,0,2.73,0,4.72V63.61Z"/><path class="cls-6" d="M6.75,34.37V23.62c0-1.55-.83-3.39,2.81-2.8h1.5c3.63-.59,2.8,1.25,2.8,2.8V34.37c.65.86,6.4,23.61,6.4,25.15V83.31a2.8,2.8,0,0,1-2.8,2.8H2.8A2.8,2.8,0,0,1,0,83.31V59.52C0,58,5.5,36.71,6.75,34.37Z"/><path class="cls-7" d="M14,19.27a1.43,1.43,0,0,1-1.43,1.42H8.1a1.42,1.42,0,1,1,0-2.84A1.43,1.43,0,1,1,8.1,15h4.42a1.43,1.43,0,1,1,0,2.85A1.42,1.42,0,0,1,14,19.27Z"/><rect class="cls-8" y="59.83" width="20.26" height="14.55"/><path class="cls-4" d="M14.76,47c.7,5.25.91,9.55.46,9.61s-1.37-4.14-2.07-9.39-.91-9.55-.46-9.61S14.06,41.75,14.76,47Z"/><g class="cls-9"><path class="cls-10" d="M0,59.52V83.31a2.8,2.8,0,0,0,2.8,2.8h7.33V20.82H9.56c-3.64-.59-2.81,1.25-2.81,2.8V34.37C5.5,36.71,0,58,0,59.52Z"/><path class="cls-11" d="M6.68,19.27a1.42,1.42,0,0,0,1.41,1.42h2V15h-2a1.42,1.42,0,0,0,0,2.84A1.42,1.42,0,0,0,6.68,19.27Z"/></g><path class="cls-6" d="M27.47,34.37V23.62c0-1.55-.83-3.39,2.8-2.8h1.51c3.63-.59,2.8,1.25,2.8,2.8V34.37C35.23,35.23,41,58,41,59.52V83.31a2.8,2.8,0,0,1-2.8,2.8H23.52a2.8,2.8,0,0,1-2.8-2.8V59.52C20.72,58,26.22,36.71,27.47,34.37Z"/><path class="cls-7" d="M34.66,19.27a1.42,1.42,0,0,1-1.42,1.42H28.81a1.42,1.42,0,1,1,0-2.84,1.43,1.43,0,0,1,0-2.85h4.43a1.43,1.43,0,0,1,0,2.85A1.41,1.41,0,0,1,34.66,19.27Z"/><rect class="cls-8" x="20.72" y="59.83" width="20.26" height="14.55"/><path class="cls-4" d="M35.48,47c.7,5.25.91,9.55.46,9.61s-1.37-4.14-2.07-9.39-.91-9.55-.46-9.61S34.78,41.75,35.48,47Z"/><g class="cls-9"><path class="cls-10" d="M20.72,59.52V83.31a2.8,2.8,0,0,0,2.8,2.8h7.33V20.82h-.57c-3.64-.59-2.81,1.25-2.81,2.8V34.37C26.22,36.71,20.72,58,20.72,59.52Z"/><path class="cls-11" d="M27.4,19.27a1.42,1.42,0,0,0,1.41,1.42h2V15h-2a1.42,1.42,0,0,0,0,2.84A1.42,1.42,0,0,0,27.4,19.27Z"/></g></g></g></g></svg>