<svg xmlns="http://www.w3.org/2000/svg" viewBox="0 0 99.54 71.82"><defs><style>.cls-1{fill:#597531;}.cls-2{fill:#7c8a99;}.cls-3{fill:#c5d3e2;}.cls-4{fill:#932210;}.cls-5{fill:#769c41;}</style></defs><g id="Layer_2" data-name="Layer 2"><g id="Ebene_1" data-name="Ebene 1"><path class="cls-1" d="M32.58,31.38C14.59,31.38,0,45.6,0,63.15H65.16C65.16,45.6,50.57,31.38,32.58,31.38Z"/><path class="cls-1" d="M29.23,16.37c0-7.31-1.05-13.23-2.35-13.23s-2.34,5.92-2.34,13.23c0,5.91.68,10.91,1.63,12.61v3.85h1.29V29.19C28.47,27.74,29.23,22.56,29.23,16.37Z"/><path class="cls-1" d="M41.71,17.07C41.71,7.65,40.39,0,38.77,0s-2.94,7.65-2.94,17.07c0,8.43,1.05,15.42,2.44,16.81v2.18h1V33.88C40.66,32.49,41.71,25.5,41.71,17.07Z"/><path class="cls-1" d="M34.69,19.07c0-7.27-1-13.17-2.2-13.17s-2.2,5.9-2.2,13.17c0,6,.67,11,1.58,12.63V34h1.19V31.78C34,30.27,34.69,25.16,34.69,19.07Z"/><rect class="cls-2" x="47.74" y="20.74" width="4.42" height="8.46" transform="translate(-0.69 1.43) rotate(-1.63)"/><path class="cls-3" d="M51.62,5.79,43.7,15.68l.78,27.6,17.81-4.57-.4-23Zm.66,23.42-4.42.12-.24-8.45L52,20.75Z"/><polygon class="cls-4" points="72.45 36.01 62.29 38.71 61.89 15.72 51.62 5.79 61.11 5.27 71.88 15.64 72.45 36.01"/><rect class="cls-4" x="63.28" y="4.19" width="4.03" height="7.41" transform="translate(-0.2 1.86) rotate(-1.63)"/><rect class="cls-4" x="62.5" y="1.77" width="5.31" height="2.74" transform="translate(-0.06 1.82) rotate(-1.6)"/><polygon class="cls-2" points="60.94 39.05 56.38 40.23 56.02 27.36 60.6 27.23 60.94 39.05"/><path class="cls-5" d="M60.12,33.38c-21.77,0-39.42,17.21-39.42,38.44H99.54C99.54,50.59,81.89,33.38,60.12,33.38Z"/><path class="cls-1" d="M69.89,36.35a39.63,39.63,0,0,1,4.89.31,39.22,39.22,0,0,0-13.6-2.42C40,34.24,22.79,51,22.79,71.68h8.77C32.68,52,49.41,36.35,69.89,36.35Z"/><path class="cls-1" d="M76.23,40a30.31,30.31,0,0,1,4.06.28A30.18,30.18,0,0,0,69,38.05c-17.6,0-31.86,15.12-31.86,33.77h7.27C45.34,54.05,59.23,40,76.23,40Z"/><path class="cls-1" d="M82.11,45.22a26.86,26.86,0,0,1,3.37.23,25.25,25.25,0,0,0-9.37-1.81c-14.61,0-26.45,12.55-26.45,28h6C56.47,56.93,68,45.22,82.11,45.22Z"/></g></g></svg>