<svg width="207" height="281" viewBox="0 0 207 281" fill="none" xmlns="http://www.w3.org/2000/svg">
<path d="M199.574 107.074L199.731 104.318L206.346 95.8925L205.559 93.6088L206.267 91.4827C206.267 91.4827 204.141 89.4353 204.062 89.4353C203.984 89.4353 204.377 87.3092 204.22 87.3092C204.141 87.3092 200.676 83.7656 199.102 83.1356C197.527 82.5844 192.959 84.7893 192.959 84.7893C192.959 84.7893 191.069 83.1357 191.069 83.0569C191.069 82.9782 190.755 77.4659 190.755 77.4659C188.55 77.2297 187.605 75.8123 185.085 74.5523C182.644 73.2924 181.463 68.5677 181.463 68.5677L182.25 65.0241C182.25 65.0241 178.47 61.0868 177.21 59.9844C175.95 58.8032 175.163 55.8896 174.927 54.551C174.769 53.1335 176.659 51.7161 177.053 50.9286C177.446 50.1412 176.817 49.5112 176.423 49.1175C175.95 48.7238 176.423 48.33 176.738 47.4638C177.053 46.5976 176.423 45.1014 176.265 44.3927C176.108 43.684 175.635 43.369 174.769 43.2115C173.903 43.1328 171.619 40.8492 170.989 40.3767C170.438 39.9042 169.966 39.1955 169.493 38.1719C169.021 37.1482 167.761 35.7307 164.768 34.0771C161.776 32.4234 161.855 30.376 161.54 29.2735C161.225 28.2499 157.996 23.8401 157.13 22.7377C156.579 22.029 156.894 21.714 157.445 21.5565C155.476 20.5328 152.563 21.4778 151.933 22.029C151.067 22.6589 147.838 24.1551 146.499 24.3126C145.161 24.4701 144.295 23.2889 143.192 23.3676C142.09 23.5251 139.176 27.3049 138.704 28.1711C138.31 29.0373 137.444 29.0373 135.79 30.1398C135.16 30.6123 134.688 30.691 134.294 30.691L128.309 36.0457C128.309 36.0457 120.671 30.2185 119.883 29.9823C119.096 29.6673 115.395 37.5419 114.844 38.5656C114.292 39.5105 114.45 39.9042 114.292 40.613C114.056 41.2429 116.182 43.8415 116.576 44.3927C116.97 44.944 117.6 45.7314 117.915 46.2039C118.23 46.6764 117.678 48.5663 117.6 49.5112C117.521 50.3774 112.56 51.7161 112.009 52.0311C111.536 52.3461 110.828 57.0708 110.67 58.0157C110.513 58.9607 106.654 60.2994 105.079 60.7718C103.426 61.2443 102.323 62.5043 101.772 63.213C101.221 63.9217 97.2046 68.9614 96.3384 69.9851C95.3934 71.0088 92.4011 70.6938 91.4561 70.8513C90.5112 71.0088 84.6053 78.0959 84.6053 78.0959L88.3063 83.3719C88.3063 83.3719 94.3697 91.2464 94.9997 92.0339C95.0784 92.1126 95.1572 92.2701 95.1572 92.4276C96.0234 91.9552 97.2833 90.6165 97.9921 89.829C98.7795 89.0416 102.638 89.829 103.504 89.829C104.37 89.829 103.819 92.1127 103.74 92.9789C103.74 93.8451 105.237 95.9712 105.237 95.9712C105.237 95.9712 107.442 91.7977 107.678 90.9315C107.993 90.0653 108.623 90.8527 109.174 91.4039C109.725 91.9552 112.796 94.0025 113.82 94.6325C114.844 95.2625 114.686 95.9712 114.607 97.8611C114.529 99.751 118.151 97.7036 119.253 97.4674C120.435 97.2311 119.962 97.5461 121.379 98.0186C122.797 98.4911 123.112 100.696 123.348 101.405C123.663 102.113 124.057 102.035 124.608 102.271C125.159 102.507 127.285 102.98 128.703 103.452C130.12 103.925 130.672 103.846 132.483 104.003C134.294 104.161 135.318 102.035 136.026 101.247C136.735 100.46 137.286 101.168 137.601 101.72C137.995 102.192 139.097 102.822 139.57 102.822C140.042 102.822 139.57 101.247 139.964 100.775C140.357 100.302 141.145 100.932 141.538 101.168C142.011 101.405 142.641 102.271 144.137 102.428C145.633 102.507 145.948 100.696 146.106 99.9085C146.263 99.0423 149.334 98.7273 150.83 98.5698C152.327 98.4123 152.642 97.3099 153.035 96.4437C153.508 95.5775 152.169 94.3175 151.697 93.7663C151.303 93.1364 152.957 92.5851 153.823 92.1914C154.689 91.7977 156.579 93.2939 157.366 93.6876C158.075 94.0813 159.256 98.2548 159.571 99.121C159.886 99.9872 160.91 101.405 162.17 103.373C163.43 105.342 163.194 105.499 163.587 106.602C163.981 107.704 164.06 109.515 163.981 111.248C163.902 112.98 164.611 113.925 166.265 114.083C167.918 114.24 168.863 115.343 169.887 116.839C170.832 118.335 175.163 115.894 176.265 115.028C177.446 114.083 179.179 114.083 180.518 114.083C181.856 114.083 182.407 116.681 182.407 116.681L177.919 121.012L181.226 124.241C182.014 123.768 183.274 123.532 185.085 122.824C187.998 121.642 188.786 118.65 189.731 116.839C190.676 115.028 193.432 115.185 194.849 115.185C196.267 115.185 196.739 114.634 197.133 113.61C197.605 112.587 199.102 111.878 199.889 111.169C200.676 110.46 198.393 108.649 198.235 108.019C198.235 107.547 199.574 107.074 199.574 107.074ZM112.403 70.4576C112.324 70.7726 112.245 71.0876 112.088 71.4813C112.009 71.7175 111.93 71.9537 111.851 72.19C111.773 72.505 111.536 72.7412 111.379 72.9774C111.221 73.2137 110.985 73.3712 110.828 73.6074C110.67 73.9224 110.591 74.2374 110.434 74.4736C110.276 74.7099 110.119 74.9461 109.961 75.1823C109.725 75.5761 109.489 75.891 109.331 76.2848C109.253 76.4422 109.174 76.6785 109.016 76.836C108.938 76.9147 108.859 76.9935 108.859 77.151C108.859 77.3872 108.938 77.5447 109.095 77.7022C109.174 77.7809 109.253 77.8597 109.253 78.0172C109.253 78.0959 109.174 78.2534 109.095 78.3322C109.016 78.4109 108.859 78.4109 108.78 78.4109C108.701 78.4896 108.544 78.4897 108.465 78.5684C108.229 78.6471 108.072 78.7259 107.835 78.8834C107.678 78.9621 107.442 79.0409 107.363 79.1984C107.127 79.4346 106.969 79.7496 106.812 79.9858C106.654 80.2221 106.497 80.4583 106.339 80.6158L106.103 80.9308C106.024 81.0883 105.867 81.167 105.788 81.2457C105.63 81.5607 105.394 81.797 105.237 82.112C105.158 82.2695 105.079 82.427 104.922 82.6632C104.843 82.8207 104.764 83.0569 104.607 83.2144C104.449 83.4506 104.213 83.7656 103.977 84.0018C103.898 84.0806 103.74 84.1593 103.583 84.3168C103.504 84.4743 103.347 84.5531 103.268 84.7106C103.11 84.868 103.032 84.9468 103.032 85.1043C102.953 85.2618 102.953 85.498 102.874 85.6555C102.953 85.6555 102.953 85.8917 103.032 85.9705C103.189 86.0492 103.268 86.128 103.347 86.2855C103.426 86.443 103.425 86.6005 103.268 86.6792C103.11 86.8367 102.874 86.9942 102.717 86.9154C102.402 86.9154 102.166 86.8367 101.929 86.8367H101.851C101.614 86.758 101.378 86.5217 101.221 86.443C101.142 86.3642 101.063 86.2855 100.906 86.2855C100.748 86.2067 100.669 86.128 100.512 85.8917C100.433 85.7343 100.433 85.4193 100.512 85.183C100.591 85.1043 100.591 85.1043 100.669 85.0256C100.748 84.9468 100.827 84.868 100.984 84.7106C101.221 84.4743 101.378 84.2381 101.614 84.0018C101.851 83.7656 102.087 83.5294 102.402 83.3719C102.796 83.0569 103.032 82.5057 103.268 82.112C103.425 81.8757 103.583 81.7182 103.74 81.5607C103.977 81.3245 104.134 81.0882 104.292 80.852C104.449 80.6158 104.607 80.3795 104.764 80.0645C104.843 79.9071 105 79.7496 105.158 79.5921C105.394 79.2771 105.552 78.9621 105.788 78.6471C106.024 78.2534 106.339 78.0172 106.654 77.6234C106.812 77.3872 106.969 77.0722 107.205 76.836C107.363 76.6785 107.52 76.4422 107.678 76.2848C108.071 75.891 108.308 75.4973 108.623 75.0248C108.78 74.7099 109.016 74.4736 109.095 74.1586C109.174 73.9224 109.331 73.6862 109.568 73.4499C109.725 73.2924 109.804 73.1349 109.961 72.9774C110.119 72.8199 110.276 72.5837 110.434 72.4262C110.513 72.2688 110.67 72.1112 110.828 71.9537C110.906 71.875 111.064 71.7963 111.143 71.7175C111.458 71.4025 111.615 71.0088 111.773 70.6151C111.851 70.4576 111.851 70.3001 111.93 70.2213C112.009 70.1426 112.088 70.0639 112.088 69.9064C112.245 69.8276 112.403 69.8276 112.403 69.9851C112.403 70.1426 112.403 70.3789 112.403 70.4576ZM130.514 80.0645C129.805 79.9071 128.939 80.0646 128.467 80.6158C128.152 80.9308 128.073 81.3245 127.837 81.7182C127.679 82.0332 127.443 82.2695 127.207 82.5057C127.049 82.7419 126.813 82.8994 126.655 83.1356C126.419 83.5294 126.104 83.8443 125.711 84.1593C125.317 84.4743 124.923 84.868 124.687 85.183C124.529 85.498 124.214 85.8918 124.293 86.2067C124.372 86.5217 124.844 86.443 125.081 86.443C125.474 86.443 125.947 86.443 126.341 86.443C126.813 86.443 127.285 86.443 127.758 86.443C127.758 86.3642 128.073 86.3642 128.152 86.3642C128.309 86.3642 128.545 86.3642 128.703 86.3642C128.939 86.3642 129.175 86.3642 129.49 86.443C129.884 86.443 130.199 86.5217 130.514 86.6005C130.829 86.6005 131.065 86.6792 131.38 86.7579C131.616 86.8367 131.931 86.8367 131.931 87.1517C131.931 87.4666 131.616 87.6242 131.38 87.6242C131.065 87.6242 130.75 87.3879 130.435 87.3092C130.042 87.2304 129.648 87.1517 129.333 87.0729C128.939 87.0729 128.467 87.0729 128.073 87.0729C127.679 87.0729 127.207 87.0729 126.813 87.0729C126.34 87.0729 125.868 87.0729 125.396 87.0729C124.923 86.9942 124.529 87.0729 124.136 87.3092C123.742 87.4666 123.427 87.7029 123.033 87.8604C122.639 88.0179 122.324 88.2541 122.01 88.5691C121.852 88.6479 121.694 88.8841 121.537 88.9628C121.458 89.0416 121.222 89.1203 121.143 89.1991C120.671 89.5928 120.277 90.0653 119.883 90.5378C119.568 91.0102 119.175 91.4039 118.86 91.8764C118.466 92.3489 118.072 92.7426 117.6 93.1364C117.206 93.3726 116.733 93.9238 116.261 93.9238C116.025 93.9238 115.867 93.8451 115.631 93.7663C115.474 93.6876 115.237 93.5301 115.08 93.3726C114.765 92.9789 115.237 92.5064 115.474 92.2701C115.867 91.8764 116.34 91.7189 116.734 91.3252C116.97 91.1677 117.127 90.9315 117.206 90.6165C117.285 90.3803 117.285 90.144 117.363 89.9078C117.521 89.4353 117.836 89.1203 118.308 88.9628C118.466 88.8841 118.702 88.8053 118.86 88.6478C119.175 88.4904 119.332 88.1754 119.647 88.0179C119.883 87.8604 120.198 87.8604 120.435 87.7029C120.592 87.6241 120.75 87.5454 120.907 87.4667C120.986 87.3879 121.143 87.3879 121.301 87.2304C121.38 87.1517 121.458 87.0729 121.537 86.9154C121.694 86.6792 121.852 86.443 122.01 86.128C122.088 86.0492 122.167 85.8917 122.324 85.7342C122.403 85.6555 122.482 85.498 122.561 85.4193C123.033 84.9468 123.584 84.6318 123.978 84.0806C124.372 83.5294 124.766 83.0569 125.081 82.5057C125.238 82.2695 125.396 82.1119 125.632 81.9545C125.789 81.8757 125.947 81.7182 126.026 81.6395C126.34 81.4032 126.498 81.0883 126.813 80.7733C126.892 80.6945 126.97 80.6158 127.128 80.4583C127.207 80.3008 127.285 80.1433 127.443 79.9858C127.6 79.6708 127.758 79.2771 127.915 78.9621C128.152 78.2534 128.388 77.5447 128.703 76.836C129.018 76.2848 129.412 75.6548 129.727 75.1036C130.12 74.5524 130.435 73.9224 130.672 73.3712C130.987 72.8199 131.223 72.19 131.695 71.7175C131.774 71.6388 132.01 71.4813 132.168 71.56C132.325 71.6388 132.325 71.7963 132.325 71.9537C132.325 72.505 132.01 73.135 131.774 73.6074C131.538 74.1587 131.223 74.7099 131.065 75.2611C130.908 75.7335 130.75 76.206 130.514 76.6785C130.278 77.0722 130.042 77.4659 129.805 77.8597C129.727 78.1747 129.648 78.4897 129.805 78.7259C129.963 78.9621 130.278 78.9621 130.593 78.9621C131.065 78.9621 131.459 79.0408 131.853 79.2771C132.089 79.4346 132.64 79.7496 132.561 80.1433C132.483 81.0883 130.829 80.222 130.514 80.0645ZM189.967 94.3963C189.495 94.79 189.18 95.1837 188.786 95.5775C188.471 95.8924 188.235 96.1287 187.762 96.2074C187.368 96.2862 186.817 96.3649 186.581 95.9712C186.345 95.4987 186.66 95.0263 187.053 94.7113C187.211 94.6325 187.447 94.475 187.447 94.3175C187.447 94.1601 187.29 94.0025 187.211 93.845C186.817 93.5301 186.345 93.5301 185.951 93.6876C185.479 93.8451 184.927 94.0025 184.455 94.2388C184.219 94.3963 183.982 94.5538 183.825 94.6325C183.667 94.7112 183.431 94.7113 183.274 94.7113C183.116 94.6325 182.959 94.5538 182.88 94.3175C182.722 94.0813 182.565 93.8451 182.565 93.5301C182.644 93.0576 183.274 92.6639 183.116 92.1127C183.037 91.6402 182.486 91.7189 182.171 91.7977C181.856 91.7977 181.62 91.7977 181.305 91.7977C180.833 91.7977 180.045 91.9552 179.809 91.4039C179.573 90.8527 179.73 90.0653 180.36 89.829C180.911 89.5928 181.699 89.6716 182.329 89.7503C183.037 89.829 183.589 90.2228 184.219 90.3803C184.849 90.5378 185.085 89.7503 185.715 89.829C186.03 89.9078 186.266 90.2227 186.502 90.459C186.738 90.6952 186.896 91.0102 187.211 91.1677C187.841 91.4827 188.471 90.9315 189.101 90.8527C189.888 90.774 189.81 91.7977 189.652 92.2701C190.046 92.4276 190.597 92.5851 190.755 93.0576C190.912 93.6876 190.282 94.16 189.967 94.3963Z" fill="#FCB743"/>
<path d="M134.294 30.8485L128.309 36.2033C128.309 36.2033 120.671 30.3761 119.883 30.1399C119.096 29.8249 115.395 37.6994 114.844 38.7231C114.292 39.6681 114.45 40.0618 114.292 40.7705C114.056 41.4005 116.182 43.9991 116.576 44.5503C116.97 45.1015 117.6 45.889 117.915 46.3615C118.23 46.8339 117.678 48.7238 117.6 49.6688C117.521 50.535 112.56 51.8737 112.009 52.1887C111.536 52.5036 110.828 57.2284 110.67 58.1733C110.513 59.1183 106.654 60.4569 105.079 60.9294C103.425 61.4019 102.323 62.6618 101.772 63.3706C101.221 64.0793 97.2045 69.119 96.3383 70.1427C95.3934 71.1664 92.401 70.8514 91.4561 71.0089C90.5111 71.1663 84.6052 78.2535 84.6052 78.2535L88.3063 83.5294C88.3063 83.5294 94.3697 91.404 94.9996 92.1915C95.0784 92.2702 95.1571 92.4277 95.1571 92.5852C95.2359 93.3727 94.291 94.3964 94.0547 94.8688C93.7397 95.4988 91.0624 101.247 90.8261 101.641C90.6686 101.956 90.0387 102.901 91.6136 103.531C93.1885 104.082 97.677 106.208 98.3857 106.208C99.0945 106.287 98.8582 106.366 98.9369 107.074C99.0944 107.704 98.622 108.256 98.307 108.807C97.992 109.358 101.614 114.713 101.929 115.185C102.166 115.658 102.244 115.973 101.693 116.288C101.142 116.524 100.276 117.784 99.8032 118.099C99.3307 118.414 96.7321 114.083 95.8659 112.823C94.9997 111.563 89.9599 109.122 89.015 108.649C88.07 108.098 82.3216 108.571 81.3766 108.649C80.4317 108.649 80.1955 108.964 79.8805 109.279C79.5655 109.594 78.0693 109.594 77.5181 109.831C76.9669 110.067 75.8644 110.46 75.4707 110.618C75.077 110.697 75.9432 112.35 76.1794 112.902C76.4944 113.453 76.1007 113.847 75.5495 114.319C74.9983 114.791 74.762 115.343 74.6045 115.894C74.447 116.445 70.431 114.24 70.0373 114.004C69.6435 113.768 69.6435 115.579 69.6435 116.13C69.6435 116.76 67.4386 116.681 66.0212 116.839C64.6038 116.996 63.0289 116.524 62.4777 116.524C61.9264 116.524 63.3439 113.217 63.8951 111.957C64.4463 110.697 62.5564 111.012 61.6115 111.169C60.7453 111.327 60.509 112.587 60.194 113.689C59.8791 114.791 54.1306 110.303 53.5794 109.909C53.1069 109.516 52.5557 109.909 52.3195 110.145C52.162 110.46 50.7446 110.933 50.0359 111.012C49.3271 111.09 49.3271 114.004 49.1696 114.949C49.0122 115.973 48.5397 118.729 48.5397 119.516C48.5397 120.304 47.201 120.697 46.571 121.249C45.8623 121.8 45.5473 121.249 45.5473 121.249C45.5473 121.249 42.87 119.123 42.3188 118.571C41.7676 118.02 38.9327 119.752 37.8303 120.146C36.6491 120.54 35.9404 120.146 35.6254 119.989C35.3104 119.831 33.7355 119.359 32.8693 119.123C32.4756 119.044 31.9243 118.808 31.3731 118.65C31.7668 118.256 32.0818 117.784 32.0818 117.39C32.0818 116.445 30.8219 114.949 30.9007 114.24C30.9794 113.61 31.7668 113.217 31.7668 112.587C31.7668 112.035 32.2393 110.303 31.6094 111.248C30.9794 112.193 29.9557 112.587 30.0344 111.405C30.1132 110.224 30.1132 108.886 30.5857 108.413C31.0581 107.941 31.2944 107.547 30.7432 106.759C30.1919 105.972 29.4832 104.24 29.562 103.452C29.6407 102.665 30.5069 100.381 31.0581 99.1999C31.6094 98.0974 33.6568 95.4988 33.9717 94.6326C34.3655 93.7664 35.7041 91.7977 35.0742 91.5615C34.9167 91.4828 34.8379 91.4828 34.6804 91.404C37.2003 88.5692 40.6651 89.6716 40.6651 89.6716C40.6651 89.6716 44.8386 86.6005 45.9411 85.6556C47.0435 84.6319 43.8937 81.3246 43.4212 80.9308C42.9487 80.4584 41.6101 78.8834 40.5864 77.466C39.5627 76.0486 35.8616 71.5601 35.5466 71.0876C35.2317 70.6152 40.8226 70.4576 41.7676 70.5364C42.7125 70.6151 43.1062 68.804 43.5 68.0953C43.815 67.3078 41.6101 65.3392 41.2951 64.9455C40.9801 64.5517 40.2714 64.3942 39.4839 64.3942C38.6177 64.3942 34.3655 64.2368 33.4993 64.158C32.6331 64.0793 31.5306 64.0793 30.5069 64.0005C29.4832 63.843 30.0344 62.1893 30.3494 60.7719C30.6644 59.3545 29.0108 59.1183 28.0658 58.9608C27.4358 58.882 26.7271 57.7008 26.2546 56.9921C27.6721 56.9134 28.7745 56.2834 28.7745 55.2597C28.7745 53.8423 28.4595 49.7475 29.0107 49.5113C29.562 49.275 30.3494 48.1726 31.2944 48.0151C32.2393 47.8577 34.208 46.7552 34.6017 46.0465C34.9954 45.259 36.6491 40.8493 37.3578 40.613C38.1452 40.298 40.8226 39.0381 42.0038 38.8806C43.185 38.8019 47.1223 38.0144 48.146 38.0144C49.2484 38.0144 50.4296 38.2507 50.7446 37.227C51.0595 36.2033 51.532 33.6046 52.0045 33.6046C52.477 33.6046 55.1543 34.2346 55.3118 33.6046C55.4693 32.9747 56.2568 30.0611 55.6268 28.5649C54.9181 27.0688 52.3195 23.4465 54.0519 22.2653C55.863 21.0841 57.9892 19.9816 58.3829 18.8005C58.7766 17.6193 58.9341 17.1468 59.1704 16.8318C59.4066 16.4381 59.7216 15.7294 59.1704 15.0207C58.6191 14.312 57.2805 12.3433 57.2017 11.3196C57.2017 10.2959 57.0442 7.53982 57.0442 7.53982C57.0442 7.53982 56.8867 6.75235 57.9892 6.43736C59.1704 6.04364 64.3676 5.01996 65.3125 4.38999C66.2575 3.83877 65.785 3.05132 67.9111 2.42135C70.0373 1.79139 70.2735 1.24015 71.1397 0.925164C72.0059 0.610181 73.5808 -0.570976 74.0533 0.61021C74.5258 1.7914 76.2582 8.87851 76.2582 8.87851C76.2582 8.87851 84.5265 7.30357 85.8652 7.22482C87.2826 7.14608 88.4638 7.38234 88.5425 6.51614C88.6213 5.64994 88.7 4.62624 89.33 4.5475C89.5662 4.5475 90.3537 4.46874 91.1411 4.38999C91.1411 4.46874 91.0624 4.46875 91.0624 4.5475C90.9049 5.01997 90.9049 5.64992 90.9836 6.20114C90.9836 6.51612 90.9836 6.75236 91.0624 6.98859C91.1411 7.38232 91.1411 7.77607 91.1411 8.09105C91.1411 8.40604 91.2986 8.721 91.4561 8.95724C91.5348 9.03598 91.5348 9.19347 91.6136 9.35097C91.6136 9.50846 91.7711 9.66595 91.7711 9.74469C92.0861 10.0597 92.401 10.2959 92.6373 10.6109C92.7948 10.8472 93.1097 10.9259 93.4247 11.0047C93.7397 11.0834 93.9759 11.2409 94.2122 11.3984C94.4484 11.4771 94.6847 11.5559 94.9209 11.6346C95.1572 11.7134 95.4721 11.7921 95.5509 12.0283C95.7084 12.2646 95.7084 12.5796 95.7084 12.8158C95.7871 13.1308 95.7871 13.4458 95.8659 13.7608C95.9446 14.3907 95.9446 15.0207 95.9446 15.7294C95.8659 16.9106 95.2359 17.9342 95.2359 19.0367C95.2359 19.3517 95.1571 19.6667 95.1571 19.9816C95.1571 20.2966 95.2359 20.5329 95.2359 20.8479C95.1572 21.3991 94.6847 21.7928 94.291 22.1078C93.8972 22.4228 93.5035 22.7377 93.1098 22.974C92.9523 23.0527 92.716 23.2102 92.5585 23.3677C92.4011 23.4464 92.1648 23.5252 91.9286 23.604C91.7711 23.604 91.5348 23.6039 91.3774 23.7614C91.0624 23.9189 91.3774 24.4701 91.3774 24.7064C91.4561 25.0214 91.3774 25.2576 91.3774 25.5726C91.3774 26.1238 90.9836 26.5963 90.5899 27.0688C90.2749 27.4625 90.0387 27.9349 89.8812 28.4862C89.8024 28.6437 89.8025 28.8799 89.7237 29.1162C89.645 29.4312 89.4875 29.7461 89.33 30.0611C89.1725 30.3761 89.1725 30.6123 89.1725 30.9273C89.1725 31.0848 89.1725 31.2423 89.1725 31.3998C89.1725 31.4785 89.1725 31.4785 89.2512 31.636C89.2512 31.8722 89.1725 31.5572 89.1725 31.636C89.1725 31.7935 89.2512 32.0297 89.33 32.1872C89.4087 32.3447 89.4087 32.581 89.5662 32.7385C89.9599 33.1322 90.4324 32.581 90.7474 32.3447C91.0624 32.0297 91.3774 31.7148 91.6924 31.321C92.0073 30.9273 92.4011 30.5336 92.716 30.1399C92.7948 29.9824 92.9523 29.7461 93.031 29.5886C93.1097 29.4311 93.1885 29.2737 93.2673 29.1162C93.346 29.0374 93.4248 28.9586 93.5035 28.8799C93.7397 28.5649 93.8185 28.1712 93.976 27.935C94.0547 27.6987 94.1335 27.4625 94.291 27.305C94.3697 27.0687 94.5272 26.8325 94.6847 26.675C94.7634 26.5175 94.8421 26.2026 94.9996 25.9663C95.1571 25.4939 95.3147 25.0214 95.6296 24.5489C95.7871 24.3914 95.9446 24.2339 96.0234 24.0764C96.1809 23.9189 96.4171 23.9189 96.6533 23.9189C97.1258 23.9189 97.5983 23.9189 98.0707 23.8402C98.307 23.7615 98.7007 23.7614 98.7795 23.5252C98.8582 23.3677 98.7007 23.0527 98.622 22.8952C98.622 22.8165 98.622 22.8165 98.622 22.7377C99.4094 23.1315 100.354 23.6039 101.063 23.7614C102.323 23.9189 103.74 24.4702 104.213 24.6277C104.685 24.7851 104.922 25.1001 106.26 24.6277C107.599 24.1552 108.465 24.2339 108.465 23.3677C108.465 22.4227 108.859 18.013 109.016 16.2019C109.174 14.3907 109.016 11.4771 109.804 11.6346C110.67 11.7134 112.009 11.8709 113.347 11.7921C114.686 11.7134 118.23 11.7921 118.308 12.1071C118.387 12.5008 118.545 12.9733 118.781 13.052C118.938 13.1308 119.332 13.9182 119.096 14.7844C118.86 15.6506 118.702 17.5405 118.623 17.7768C118.623 18.013 118.387 18.4855 119.096 18.5642C119.805 18.643 121.537 19.1155 122.324 19.1155C123.191 19.1942 124.214 19.6667 124.529 20.0604C124.844 20.5329 127.6 24.5489 128.23 25.4151C128.782 26.3601 131.223 30.5336 132.404 30.5336C133.27 30.5336 133.743 30.8485 134.294 30.8485Z" fill="#FCB743"/>
<path d="M190.44 178.654C190.282 177.709 187.211 175.189 187.132 175.111C187.053 175.111 180.36 165.819 179.258 164.637C178.155 163.456 176.187 159.519 175.872 158.731C175.557 157.944 174.454 158.023 173.745 158.023C173.037 158.101 173.352 156.605 173.273 155.739C173.194 154.873 174.139 154.558 174.927 153.849C175.635 153.141 175.005 151.644 175.005 150.778C175.005 149.912 175.005 149.597 175.32 148.731C175.635 147.865 175.32 145.896 175.32 144.242C175.32 142.589 176.58 141.014 178.076 139.439C179.651 137.943 178.864 131.958 178.785 130.462C178.628 129.044 179.494 127.076 180.203 125.422C180.439 124.792 180.754 124.477 181.226 124.162L177.919 120.934L182.407 116.603C182.407 116.603 181.856 114.004 180.518 114.004C179.179 114.004 177.446 114.004 176.265 114.949C175.084 115.894 170.832 118.335 169.887 116.76C168.942 115.264 167.918 114.161 166.265 114.004C164.611 113.846 163.902 112.901 163.981 111.169C163.981 109.437 163.902 107.626 163.587 106.523C163.194 105.421 163.509 105.184 162.17 103.294C160.91 101.326 159.886 99.8297 159.571 99.0422C159.256 98.176 158.075 94.0025 157.366 93.6088C156.658 93.215 154.768 91.7189 153.823 92.1126C152.957 92.5063 151.303 93.0576 151.697 93.6875C152.169 94.3175 153.508 95.5774 153.035 96.3649C152.563 97.2311 152.327 98.3335 150.83 98.491C149.334 98.6485 146.263 98.9635 146.106 99.8297C145.948 100.617 145.633 102.428 144.137 102.35C142.641 102.271 142.011 101.326 141.538 101.09C141.066 100.853 140.357 100.223 139.964 100.696C139.57 101.168 140.042 102.743 139.57 102.743C139.176 102.743 137.995 102.192 137.601 101.641C137.207 101.168 136.735 100.46 136.026 101.168C135.318 101.956 134.294 104.003 132.483 103.924C130.672 103.767 130.12 103.846 128.703 103.373C127.285 102.901 125.159 102.428 124.608 102.192C124.057 101.956 123.663 102.035 123.348 101.326C123.033 100.617 122.797 98.491 121.38 97.9398C119.962 97.3886 120.435 97.0736 119.253 97.3885C118.072 97.6248 114.45 99.6722 114.607 97.7823C114.686 95.8924 114.844 95.1837 113.82 94.5537C112.796 93.9238 109.725 91.8764 109.174 91.3252C108.623 90.7739 107.993 89.9865 107.678 90.8527C107.442 91.7189 105.237 95.8924 105.237 95.8924C105.237 95.8924 103.662 93.7663 103.741 92.9001C103.819 92.0339 104.37 89.7502 103.504 89.7502C102.638 89.7502 98.7795 88.9628 97.9921 89.7502C97.2046 90.5377 96.0234 91.8764 95.1572 92.3488C95.236 93.1363 94.291 94.16 94.0548 94.6324C93.7398 95.2624 91.0624 101.011 90.8262 101.405C90.6687 101.72 90.0387 102.665 91.6137 103.294C93.1886 103.846 97.6771 105.972 98.3858 105.972C99.0945 106.051 98.8583 106.129 98.937 106.838C99.0945 107.468 98.622 108.019 98.307 108.57C97.9921 109.122 101.614 114.476 101.929 114.949C102.166 115.421 102.244 115.736 101.693 116.051C101.142 116.288 100.276 117.547 99.8032 117.862C99.3308 118.177 96.7321 113.846 95.8659 112.587C94.9997 111.327 89.96 108.885 89.0151 108.413C88.0701 107.862 82.3217 108.334 81.3767 108.413C80.4318 108.413 80.1956 108.728 79.8806 109.043C79.5656 109.358 78.0694 109.358 77.5182 109.594C76.967 109.83 75.8645 110.224 75.4708 110.382C75.0771 110.46 75.9433 112.114 76.1795 112.665C76.4945 113.216 76.1008 113.61 75.5496 114.083C74.9983 114.555 74.7621 115.106 74.6046 115.658C74.4471 116.209 70.4311 114.004 70.0373 113.768C69.6436 113.531 69.6436 115.343 69.6436 115.894C69.6436 116.524 67.4387 116.445 66.0213 116.603C64.6039 116.76 63.029 116.288 62.4777 116.288C61.9265 116.288 63.344 112.98 63.8952 111.72C64.4464 110.46 62.5565 110.775 61.6116 110.933C60.7454 111.09 60.5091 112.35 60.1941 113.453C59.8791 114.555 54.1307 110.067 53.5795 109.673C53.107 109.279 52.5558 109.673 52.3196 109.909C52.1621 110.224 50.7446 110.697 50.0359 110.775C49.3272 110.854 49.3272 113.768 49.1697 114.713C49.0122 115.736 48.5398 118.492 48.5398 119.28C48.5398 120.067 47.2011 120.461 46.5711 121.012H45.5474C45.5474 121.012 42.8701 118.886 42.3189 118.335C41.7676 117.784 38.9328 119.516 37.8303 119.91C36.6492 120.304 35.9405 119.91 35.6255 119.752C35.3105 119.595 33.7356 119.122 32.8694 118.886C32.4756 118.807 31.9244 118.571 31.3732 118.414C30.9007 118.886 30.2707 119.28 29.877 119.516C29.0896 119.91 28.5384 119.201 28.0659 119.201C27.5147 119.122 25.7035 119.831 24.9161 120.619C24.2073 121.406 23.4986 121.957 22.4749 122.587C21.3725 123.217 21.6875 124.241 22.0024 125.107C22.2387 125.973 23.3411 125.186 23.9711 124.871C24.6011 124.477 25.0735 125.107 25.4673 125.343C25.861 125.58 26.0185 125.028 26.8059 124.477C27.5934 123.926 28.1446 124.871 28.3809 125.343C28.6958 125.816 29.3258 125.658 30.2707 125.501C31.2157 125.422 31.2157 125.973 30.4283 125.895C29.6408 125.816 30.507 126.367 30.4283 126.761C30.3495 127.154 29.3258 126.446 28.3021 126.21C27.2784 125.973 26.176 126.209 25.861 127.233C25.546 128.257 27.6721 129.202 27.1997 129.517C26.8059 129.832 25.6248 129.202 24.9948 128.808C24.3648 128.493 23.8923 128.966 24.3648 130.147C24.8373 131.249 23.4199 129.753 23.2624 129.281C23.1049 128.808 22.0025 128.808 21.2937 128.808C20.6638 128.808 20.5063 129.517 19.2463 129.753C17.9864 130.068 18.5376 131.013 18.5376 131.643C18.5376 132.273 19.4826 132.037 20.3488 132.43C21.215 132.824 21.1362 133.769 21.1362 134.163C21.0575 134.478 21.6875 135.187 21.6875 136.604C21.6875 138.021 21.1362 136.84 20.8213 136.053C20.585 135.265 19.3251 134.478 18.6951 133.927C18.1439 133.375 17.199 133.533 16.569 133.769C16.0178 134.084 15.4666 133.375 15.3091 133.139C15.1516 132.903 16.254 131.879 16.3328 131.328C16.4115 130.777 14.9153 130.777 14.0491 130.462C13.1829 130.068 14.1279 128.178 13.4979 127.233C12.9467 126.367 12.4742 127.863 11.6868 128.336C10.8993 128.808 10.2693 128.651 9.71811 128.966C9.16689 129.281 8.06445 129.202 6.96201 129.044C5.85957 128.966 4.8359 129.438 4.52091 129.596C4.12719 129.674 2.631 129.202 1.44981 129.202C0.268627 129.202 1.0561 129.832 1.37109 130.304C1.68607 130.777 2.39477 130.462 3.10348 130.462C3.89093 130.383 4.36342 131.092 4.83589 131.8C5.30837 132.509 5.85958 132.588 6.72579 133.533C7.67073 134.478 7.74948 136.289 7.90697 137.076C8.06446 137.864 8.22195 138.73 8.69443 139.203C9.08816 139.675 9.79686 140.935 10.1118 142.274C10.4268 143.612 10.1906 144.715 10.0331 145.266C9.87562 145.817 9.79686 149.518 9.79686 150.699C9.79686 151.881 9.48189 152.196 9.24566 152.668C9.08817 153.062 8.53693 154.873 8.22195 155.503C7.90697 156.133 7.04076 157.235 6.56828 157.865C6.17456 158.495 6.96203 158.495 7.59199 158.495C8.22196 158.495 7.98572 158.81 8.37945 159.204C8.77318 159.598 10.8993 158.023 11.6868 157.393C12.4742 156.763 13.6554 156.999 14.6791 157.157C15.7028 157.314 16.7265 156.842 17.6714 156.29C18.6164 155.739 23.3411 155.267 24.3648 155.267C25.3885 155.267 27.1209 153.771 28.0659 152.983C29.0896 152.196 32.3182 150.778 32.8694 150.384C33.4206 149.991 33.2631 149.833 33.2631 149.518C33.2631 149.203 33.2631 148.573 33.8143 148.416C34.3655 148.258 34.3655 147.156 35.9405 146.841C37.4366 146.526 40.3502 148.731 41.2164 149.439C42.0826 150.148 42.2401 149.991 42.7126 150.857C43.1063 151.723 43.7363 151.251 44.2088 151.251C44.6812 151.251 44.9962 151.172 45.6262 151.566C46.3349 151.881 46.4136 151.487 47.3586 151.487C48.3035 151.487 48.8547 148.731 49.091 148.022C49.3272 147.313 47.9885 146.368 47.9098 145.975C47.831 145.502 48.6185 144.872 49.0122 144.715C49.406 144.557 49.3272 143.455 49.3272 143.14C49.3272 142.825 49.5635 142.431 49.9572 142.431C50.3509 142.352 50.7446 141.88 50.9021 142.116C51.0596 142.274 50.5871 142.825 50.2722 143.219C49.8784 143.612 50.5871 144.478 51.0596 144.793C51.4533 145.108 50.6659 145.345 50.5084 145.502C50.2722 145.66 50.5084 145.896 50.7446 146.211C50.9809 146.526 50.7446 146.447 50.8234 146.92C50.8234 147.392 51.1384 147.077 51.4533 147.156C51.8471 147.235 51.9258 147.628 52.2408 148.18C52.5558 148.731 51.4533 148.337 51.0596 148.573C50.6659 148.81 51.2171 150.148 51.2171 151.251C51.2171 152.432 50.9021 153.613 50.8234 154.4C50.7446 155.109 51.2171 155.345 51.3746 155.897C51.6109 156.448 51.9258 156.29 52.2408 155.897C52.6345 155.582 52.6345 155.345 53.3433 155.739C54.1307 156.133 54.367 156.763 54.5244 157.629C54.6819 158.495 56.7293 159.046 56.7293 159.598C56.7293 160.07 53.6582 159.676 52.6345 159.598C51.6896 159.519 50.9021 158.259 50.2722 157.472C49.6422 156.684 48.6973 156.133 48.2248 156.133C47.8311 156.133 47.7523 156.842 47.5948 157.472C47.4373 158.102 46.7286 156.999 46.6499 156.684C46.5711 156.369 46.6499 156.054 46.9649 155.897C47.2798 155.739 46.8861 155.424 46.5711 155.267C46.2561 155.188 45.8624 155.582 45.7049 155.897C45.5474 156.212 45.3112 155.897 45.3112 155.582C45.3112 155.267 44.9962 155.345 44.5237 155.267C44.0513 155.267 43.7363 154.479 43.3425 154.322C43.0276 154.164 42.7913 154.637 42.8701 155.188C42.8701 155.739 43.3425 155.975 43.6575 156.448C43.9725 156.92 43.5788 156.999 43.185 157.393C42.7913 157.787 42.5551 156.605 42.1614 155.897C41.8464 155.109 39.7202 153.77 39.0115 153.298C38.3816 152.747 38.6178 151.487 37.6728 150.306C36.8066 149.203 35.7042 149.439 34.838 149.518C33.9718 149.597 34.7593 150.384 35.0742 150.778C35.3892 151.093 36.0192 151.644 36.1767 152.511C36.3342 153.377 37.5941 154.637 39.169 155.109C40.7439 155.582 41.0589 157.078 41.2951 157.629C41.5314 158.18 42.5551 159.755 43.0276 161.015C43.5788 162.275 44.2088 164.795 44.6025 165.976C44.9962 167.157 45.2325 170.228 45.4687 171.803C45.7049 173.299 45.7837 181.095 46.0199 182.04C46.2561 182.985 44.2875 187.316 44.0513 187.867C43.7363 188.419 43.6575 189.994 43.6575 190.86C43.5788 191.726 42.9488 192.277 42.5551 192.671C42.1614 193.065 41.6889 195.899 41.5314 197.396C41.3739 198.892 40.0352 201.805 39.7202 202.987C39.4053 204.168 38.1453 205.664 37.9091 206.136C37.5941 206.609 37.2004 206.845 36.4917 206.845C35.7829 206.845 34.9168 207.79 34.7593 209.129C34.6018 210.467 35.3892 209.601 36.0979 209.522C36.8066 209.444 36.8067 210.31 36.8067 210.546C36.8067 210.782 37.2791 211.019 38.3028 211.727C39.3265 212.515 39.9565 212.515 40.6652 212.515C41.4527 212.515 41.3739 213.539 41.4527 213.853C41.5314 214.168 41.9251 214.956 42.3976 216.058C42.8701 217.24 42.0826 218.027 41.7676 218.814C41.4526 219.602 42.1614 223.933 42.5551 224.878C42.6338 225.035 42.6338 225.193 42.6338 225.272C43.4213 225.665 44.2087 226.138 44.5237 226.295C45.2324 226.61 46.7286 225.902 47.5161 225.665C48.3035 225.429 48.5398 226.61 48.6972 226.925C48.8547 227.24 49.7209 228.106 50.0359 228.658C50.3509 229.209 52.1621 231.493 52.4771 232.201C52.792 232.91 53.422 232.28 54.052 232.28C54.6032 232.201 55.3119 232.831 55.8631 233.146C56.4143 233.54 60.0366 233.146 60.5091 233.067C60.9816 232.989 61.6903 231.099 62.0053 230.154C62.3203 229.209 63.6589 227.162 63.8952 226.453C64.2102 225.744 63.6589 224.563 63.5015 224.09C63.344 223.697 63.6589 223.46 64.4464 223.145C65.1551 222.909 65.1551 222.752 65.9426 222.279C66.8088 221.807 69.2499 221.649 71.2185 221.413C73.1084 221.256 76.1795 221.019 77.5182 220.783C78.8569 220.547 79.0931 221.098 79.9593 221.649C80.8255 222.201 81.613 221.964 82.5579 221.807C83.5028 221.649 85.3928 221.571 85.8652 221.571C86.4165 221.571 86.6527 221.256 86.6527 220.783C86.5739 220.311 87.0464 218.893 87.2826 218.421C87.5189 217.948 87.1252 217.318 86.8889 216.61C86.5739 215.901 86.6527 214.483 86.6527 214.011C86.6527 213.539 86.3377 208.578 86.3377 207.16C86.3377 205.743 84.7628 204.64 84.1328 204.325C83.5028 204.01 83.1879 203.144 82.9516 202.514C82.7154 201.805 83.3454 201.175 83.8966 200.703C84.5266 200.23 84.0541 198.419 84.0541 198.026C83.9753 197.632 84.3691 197.002 84.684 196.529C84.999 196.057 86.259 193.616 87.2039 192.277C88.1489 190.86 87.7551 189.127 87.7551 187.946C87.7551 186.765 92.0861 185.033 92.7948 184.639C93.5036 184.245 99.7245 181.253 100.669 180.702C101.614 180.15 101.693 179.914 101.536 178.812C101.378 177.63 100.591 171.803 100.512 170.701C100.512 170.465 100.433 170.228 100.197 169.992C100.197 169.992 107.599 169.756 108.15 170.307C108.701 170.858 110.67 172.591 111.3 172.118C111.93 171.646 112.166 170.386 113.82 170.78C115.474 171.173 116.261 171.725 117.206 172.433C118.151 173.063 127.758 179.599 128.388 179.205C129.018 178.812 129.805 178.418 130.357 178.575C130.908 178.654 132.64 179.993 133.349 180.387C133.979 180.78 137.522 183.458 139.412 183.773C141.302 184.088 144.531 185.033 145.318 185.269C146.106 185.505 148.074 185.899 149.019 185.663C149.886 185.426 150.515 185.348 152.248 185.269C153.98 185.19 154.531 185.584 155.791 184.718C157.051 183.93 159.492 182.434 160.516 181.725C161.54 181.017 162.17 180.78 162.8 180.465C163.43 180.15 164.217 179.678 164.69 179.048C165.083 178.418 165.713 177.237 166.107 176.843C166.501 176.449 167.525 175.111 167.761 174.796C167.918 174.481 168.233 173.851 168.627 173.614C169.021 173.378 170.044 172.984 170.911 172.669C171.856 172.433 172.879 171.882 173.588 171.646C174.297 171.331 174.848 171.016 175.478 171.646C176.108 172.197 176.58 172.984 176.895 173.063C177.21 173.142 177.683 173.772 177.683 174.244C177.604 174.796 177.053 178.024 178.076 178.26C179.1 178.497 182.329 179.835 183.352 180.308C184.376 180.78 186.03 181.332 185.951 182.355C185.794 183.379 185.636 184.639 186.187 185.19C186.739 185.741 186.975 185.584 186.975 186.371C186.896 187.159 187.132 187.71 187.368 187.867C187.605 188.104 187.762 189.915 188.077 189.206C188.392 188.497 188.865 187.395 189.495 187.159C190.046 187.001 192.093 186.45 193.117 185.663C191.936 184.56 190.597 179.599 190.44 178.654ZM83.3454 160.543C82.9516 160.464 82.5579 160.543 82.0854 160.464C82.0067 160.464 81.8492 160.464 81.6917 160.464C81.4555 160.464 81.1405 160.385 80.9043 160.385C80.5893 160.385 80.353 160.306 80.1168 160.228C79.6443 160.07 79.0143 160.228 78.6206 159.913C78.4631 159.834 78.3056 159.755 78.0694 159.598C77.8331 159.519 77.5182 159.44 77.3607 159.283C77.2032 159.125 77.4394 158.81 77.5969 158.731C78.0694 158.102 78.7781 157.55 79.2506 156.842C79.723 156.133 79.9593 155.267 80.5105 154.637C80.8255 154.322 81.0617 154.085 81.3767 153.771C81.613 153.456 81.8492 153.141 82.2429 152.983C82.8729 152.826 82.5579 153.534 82.4004 153.771C82.0067 154.479 81.6129 155.109 81.2192 155.739C80.9042 156.212 80.668 156.605 80.353 157.078C80.1955 157.393 79.9593 157.865 80.1955 158.18C80.668 158.731 81.7704 158.653 82.4004 158.653C82.7941 158.653 83.1879 158.495 83.5029 158.416C84.0541 158.338 84.6841 158.259 85.2353 158.18C85.5503 158.18 86.1015 158.101 86.259 158.416C86.4165 158.731 86.2589 159.125 86.1015 159.361C85.7865 159.834 85.2352 160.149 84.7628 160.306C84.4478 160.385 83.8966 160.621 83.3454 160.543ZM91.2199 174.796C90.9049 175.189 90.6687 175.583 90.275 175.898C90.1175 176.056 89.8813 176.292 89.645 176.528C89.4875 176.685 89.3301 176.922 89.1726 177.079C89.0938 177.158 89.0151 177.237 88.9363 177.237C88.8576 177.315 88.7788 177.394 88.7001 177.473C88.7001 177.473 88.7001 177.473 88.6213 177.552C88.4638 177.709 88.3064 177.867 88.1489 178.103C87.9914 178.26 87.9126 178.418 87.7551 178.497C87.6764 178.575 87.5976 178.575 87.4401 178.654C87.2827 178.733 87.2039 178.812 87.0464 178.89C86.8889 178.969 86.7315 178.969 86.574 179.048H86.259C86.1802 179.048 86.0227 179.127 85.8652 179.127C85.5502 179.205 85.1565 179.127 85.2353 178.733C85.314 178.418 85.5502 178.182 85.7077 178.024C85.944 177.788 86.1802 177.63 86.4165 177.473C86.8889 177.079 87.2826 176.685 87.6764 176.292C87.9914 175.977 88.3063 175.662 88.6213 175.347C88.9363 175.111 89.33 174.874 89.645 174.638C90.0387 174.323 90.3537 174.166 90.8262 174.087C90.9837 174.087 91.22 174.008 91.2987 174.244C91.4562 174.402 91.2987 174.638 91.2199 174.796ZM129.412 170.78C128.939 170.701 128.545 170.465 127.994 170.465C127.522 170.543 126.892 170.78 126.498 171.095C126.341 171.173 126.262 171.41 126.262 171.567C126.262 171.803 126.419 171.961 126.498 172.118C126.734 172.512 127.049 172.984 126.656 173.378C126.262 173.772 125.632 173.772 125.081 173.693C124.766 173.693 124.372 173.614 124.057 173.536C123.742 173.457 123.348 173.536 123.112 173.536C122.718 173.536 122.482 173.063 122.482 172.748C122.561 172.354 122.718 171.961 122.797 171.567C122.876 171.331 122.797 171.095 122.639 170.937C122.482 170.78 122.246 170.622 122.088 170.465C121.931 170.307 121.773 170.15 121.616 169.913C121.458 169.677 121.38 169.441 121.222 169.126C121.065 168.811 120.828 168.575 120.671 168.26C120.435 167.945 119.883 167.236 120.435 166.921C120.907 166.606 121.537 167.079 121.852 167.472C122.325 168.102 122.718 168.811 123.112 169.362C123.427 169.835 123.821 170.386 124.372 170.622C124.844 170.78 125.396 170.543 125.789 170.228C125.947 170.071 126.183 169.756 126.262 169.52C126.419 169.283 126.498 169.047 126.656 168.89C127.049 168.496 127.679 168.496 128.152 168.732C128.703 168.89 129.175 169.283 129.569 169.677C129.727 169.835 129.963 169.992 130.12 170.228C130.199 170.307 130.357 170.543 130.278 170.701C130.278 170.937 129.648 170.858 129.412 170.78Z" fill="#FCB743"/>
<path d="M206.74 184.875C206.74 184.796 205.401 183.615 205.401 183.615C205.401 183.615 196.503 186.844 195.558 187.237C194.613 187.71 193.589 186.844 192.802 186.056C192.723 185.977 192.723 185.899 192.644 185.82C191.621 186.686 189.573 187.159 189.022 187.316C188.313 187.552 187.841 188.655 187.605 189.364C187.29 190.072 187.132 188.261 186.896 188.025C186.66 187.789 186.423 187.237 186.502 186.529C186.502 185.741 186.345 185.899 185.715 185.347C185.163 184.796 185.321 183.536 185.478 182.513C185.636 181.489 183.904 180.859 182.88 180.465C181.856 179.993 178.628 178.654 177.604 178.418C176.58 178.182 177.131 174.874 177.21 174.402C177.289 173.929 176.738 173.378 176.423 173.221C176.108 173.063 175.635 172.354 175.005 171.803C174.375 171.252 173.824 171.567 173.115 171.803C172.407 172.118 171.383 172.591 170.438 172.827C169.572 173.063 168.548 173.536 168.154 173.772C167.761 174.008 167.446 174.638 167.288 174.953C167.131 175.268 166.028 176.607 165.635 177C165.241 177.394 164.69 178.654 164.217 179.205C163.745 179.835 162.957 180.386 162.327 180.623C161.697 180.938 161.067 181.174 160.044 181.883C159.02 182.591 156.5 184.088 155.319 184.875C154.059 185.662 153.508 185.347 151.775 185.426C150.043 185.505 149.413 185.584 148.547 185.82C147.68 186.056 145.633 185.662 144.846 185.426C144.137 185.19 140.83 184.324 138.94 183.93C137.05 183.615 133.506 180.938 132.876 180.544C132.246 180.15 130.435 178.812 129.884 178.733C129.333 178.654 128.545 179.048 127.915 179.363C127.285 179.757 117.678 173.221 116.733 172.591C115.789 171.961 115.001 171.409 113.347 170.937C111.694 170.543 111.457 171.803 110.828 172.276C110.198 172.748 108.229 171.016 107.678 170.465C107.126 169.913 99.7244 170.15 99.7244 170.15C99.8818 170.307 100.039 170.622 100.039 170.858C100.118 171.961 100.906 177.788 101.063 178.969C101.221 180.15 101.142 180.308 100.197 180.859C99.2519 181.41 93.031 184.403 92.3223 184.796C91.5348 185.19 87.2825 186.922 87.2825 188.104C87.2825 189.285 87.6763 191.017 86.7313 192.435C85.7864 193.773 84.5265 196.214 84.2115 196.687C83.8965 197.159 83.5027 197.868 83.5815 198.183C83.5815 198.577 84.054 200.309 83.424 200.86C82.7941 201.333 82.2428 202.042 82.4791 202.672C82.6366 203.38 83.0303 204.246 83.6603 204.483C84.2902 204.798 85.8651 205.821 85.8651 207.318C85.8651 208.735 86.1801 213.696 86.1801 214.168C86.1801 214.641 86.1014 216.058 86.4164 216.767C86.7313 217.476 87.0463 218.106 86.8101 218.578C86.5739 219.051 86.1801 220.389 86.1801 220.941C86.2589 221.413 85.9439 221.728 85.3927 221.728C84.8415 221.728 82.9515 221.807 82.0853 221.964C81.1404 222.122 80.353 222.358 79.4867 221.807C78.6205 221.256 78.3055 220.704 77.0456 220.941C75.7857 221.177 72.6358 221.413 70.7459 221.571C68.856 221.807 66.3362 221.964 65.47 222.437C64.6825 222.909 64.6825 222.988 63.9738 223.303C63.1864 223.618 62.8714 223.775 63.0289 224.248C63.1864 224.72 63.7376 225.902 63.4226 226.61C63.1076 227.319 61.8477 229.366 61.5327 230.311C61.2177 231.256 60.509 233.067 60.0365 233.225C59.5641 233.304 55.9418 233.697 55.3905 233.304C54.8393 232.91 54.1306 232.359 53.5794 232.437C52.9494 232.516 52.3195 233.067 52.0045 232.359C51.6895 231.65 49.8783 229.366 49.5634 228.815C49.2484 228.264 48.3822 227.398 48.2247 227.083C48.0672 226.768 47.831 225.587 47.0435 225.823C46.256 226.059 44.7599 226.768 44.0512 226.453C43.6574 226.295 42.87 225.823 42.1613 225.429C42.1613 226.217 41.3738 226.768 41.1376 227.398C40.8226 228.106 40.5076 230.469 40.5076 231.571C40.4289 232.674 40.6651 232.989 41.1376 233.304C41.6101 233.619 41.5313 234.17 41.5313 234.642C41.5313 235.194 41.8463 235.115 42.555 235.194C43.3424 235.272 42.555 236.375 42.1613 236.69C41.7675 237.083 42.24 237.241 42.3188 239.446C42.3975 241.651 42.0038 241.808 41.2951 242.438C40.5863 242.989 41.1376 245.588 41.1376 246.297C41.2163 247.005 40.2714 249.132 40.0351 249.84C39.8776 250.549 39.9564 250.943 40.1926 251.336C40.4289 251.73 40.3501 252.045 40.3501 252.675C40.4289 253.305 40.9013 254.092 41.3738 254.644C41.8463 255.116 42.1613 258.975 42.3188 259.841C42.555 260.707 41.1376 263.07 40.6651 264.251C40.5076 264.644 40.4289 265.196 40.3501 265.747C41.6888 265.904 44.5236 266.377 44.8386 267.558C45.2323 269.054 46.0986 271.653 47.3585 271.889C48.6184 272.204 53.5007 273.385 54.5243 273.543C55.548 273.7 56.3355 273.7 56.8867 273.306C57.4379 272.991 60.4303 270.787 61.5327 271.023C62.5564 271.259 72.9508 273.385 72.9508 273.385L77.1244 268.975C77.1244 268.975 83.2665 269.133 83.3453 269.133C83.424 269.133 86.3376 267.243 86.4164 267.243C86.4951 267.243 89.5662 269.999 89.33 271.338C89.0937 272.755 88.5425 274.566 89.8024 274.881C91.0623 275.196 100.039 277.874 101.142 278.189C102.244 278.504 107.284 280.315 108.15 280C109.016 279.685 116.182 276.85 114.529 275.984C112.954 275.196 112.245 274.566 113.347 273.7C114.45 272.834 115.001 272.676 115.867 272.676C116.733 272.676 123.663 273.306 123.112 272.204C122.561 271.102 122.954 270.944 123.112 270.235C123.348 269.448 123.427 268.503 123.978 268.503C124.608 268.503 126.262 269.054 126.577 268.267C126.892 267.479 127.443 266.456 128.388 266.298C129.254 266.141 135.711 264.959 137.444 263.542C139.255 262.125 140.2 260.865 141.538 261.258C142.798 261.731 146.342 263.227 146.972 262.597C147.68 261.967 149.649 259.526 150.673 259.683C151.697 259.841 153.35 260.313 154.138 259.841C154.768 259.447 156.343 258.66 157.681 258.266C157.209 257.321 156.815 256.376 156.5 255.589C155.476 252.911 163.193 239.918 163.193 239.918L163.666 234.327L175.005 223.775L180.202 208.341L190.282 206.53L192.723 203.38L197.842 205.428L201.936 203.853L200.991 200.703C201.228 200.703 206.74 184.954 206.74 184.875ZM86.0226 254.092C85.8651 254.171 85.7076 254.25 85.6289 254.407C85.4714 254.565 85.2352 254.722 85.0777 254.801C84.7627 255.037 84.5265 255.274 84.2115 255.431C84.1327 255.51 84.054 255.667 83.8965 255.746C83.8177 255.825 83.8177 255.825 83.739 255.904C83.6602 256.061 83.424 256.219 83.5815 256.376C83.6602 256.455 83.6602 256.612 83.739 256.691C83.739 256.849 83.8178 257.006 83.8178 257.085C83.8965 257.242 83.8965 257.321 83.8965 257.479C83.8965 257.794 83.8178 257.951 83.6603 258.109C83.5815 258.187 83.5028 258.266 83.424 258.345C83.3453 258.424 83.2665 258.502 83.1878 258.502C83.109 258.502 83.0303 258.581 82.9515 258.581C82.794 258.66 82.6366 258.66 82.4791 258.66C82.3216 258.66 82.0853 258.738 81.9278 258.817C81.7704 258.896 81.6916 258.975 81.6128 259.132C81.5341 259.211 81.4554 259.368 81.4554 259.526C81.3766 259.683 81.3766 259.841 81.4554 259.92C81.5341 260.235 81.5341 260.628 81.6128 260.943C81.6128 261.101 81.6916 261.337 81.6916 261.495C81.6916 261.573 81.6129 261.81 81.5341 261.81C81.3766 261.888 81.2191 261.731 81.1404 261.652C80.9829 261.573 80.8254 261.416 80.6679 261.337C80.5104 261.258 80.2742 261.18 80.1167 261.101C80.038 261.101 79.9592 261.022 79.9592 261.022C79.8017 260.865 79.5655 260.786 79.408 260.628C79.3292 260.628 79.2505 260.55 79.093 260.55C79.0143 260.471 78.9355 260.392 78.778 260.313C78.3055 259.998 77.7543 259.998 77.2031 260.313C76.7306 260.628 76.2582 261.022 76.0219 261.573C75.8644 262.046 75.8644 262.44 76.1006 262.912C76.2581 263.306 76.5732 263.699 76.7306 264.093C76.8881 264.487 77.0456 264.959 77.0456 265.353C77.0456 265.589 77.1244 266.219 76.7306 266.298C76.3369 266.377 75.9432 265.904 75.7857 265.668C75.4707 265.196 75.2345 264.723 74.9982 264.251C74.8407 263.778 74.6045 263.384 74.5258 262.912C74.447 262.597 74.3682 262.282 74.2895 261.888C74.2108 261.495 73.8958 261.101 73.7383 260.786C73.4233 260.392 73.1083 259.998 72.9508 259.447C72.7933 259.053 72.7933 258.581 72.7933 258.187C72.7933 257.715 72.7933 257.164 72.9508 256.691C73.1083 256.297 73.4233 256.061 73.817 256.219C74.2108 256.376 74.447 256.849 74.762 257.164C75.077 257.557 75.392 257.794 75.7857 258.109C75.9432 258.266 76.1007 258.502 76.2581 258.66C76.4156 258.817 76.5732 258.975 76.7306 259.053C76.9669 259.132 77.2818 259.053 77.4393 258.896C77.5181 258.817 77.5968 258.739 77.7543 258.66C77.8331 258.581 77.9118 258.424 77.9906 258.266C77.9906 258.187 78.0693 258.109 78.0693 257.951C78.148 257.794 78.1481 257.715 78.1481 257.557C78.2268 257.4 78.2268 257.242 78.2268 257.085C78.2268 256.927 78.3055 256.691 78.3843 256.612C78.463 256.534 78.5418 256.455 78.6205 256.455C78.778 256.455 79.093 256.455 79.2505 256.455C79.3292 256.455 79.408 256.455 79.5655 256.534C79.8017 256.612 80.038 256.612 80.2742 256.612C80.5892 256.612 80.8254 256.612 81.0617 256.455C81.3766 256.376 81.6129 256.219 81.8491 256.061C82.1641 255.825 82.3216 255.589 82.5578 255.274C82.8728 254.959 83.1091 254.644 83.424 254.329C83.5815 254.171 83.8177 253.935 83.9752 253.778C84.2902 253.62 84.6052 253.384 84.9202 253.384C85.3139 253.305 85.6289 253.384 85.9439 253.62C86.0226 253.62 86.1801 253.856 86.0226 254.092ZM89.8811 235.666C89.8024 235.981 89.6449 236.375 89.4087 236.532C89.015 236.69 88.6212 236.532 88.3062 236.69C87.9125 236.847 87.9125 237.477 87.9913 237.792C88.1488 238.343 88.6212 238.737 88.8575 239.288C88.9362 239.446 89.015 239.682 88.9362 239.84C88.8575 239.997 88.6212 239.918 88.5425 239.84C88.2275 239.603 87.9913 239.131 87.5975 238.973C87.2038 238.895 87.0463 239.21 86.9676 239.525C86.8888 239.997 87.0463 240.469 86.9676 241.021C86.8888 241.257 86.8101 241.493 86.6526 241.651C86.5738 241.808 86.4164 241.966 86.2589 241.966C86.0226 241.966 85.7076 241.651 85.7076 241.414C85.7076 241.336 85.7076 241.257 85.6289 241.099C85.5502 240.942 85.5501 240.784 85.4714 240.627C85.3927 240.469 85.3139 240.233 85.3139 240.076C85.1564 239.682 85.0777 239.367 84.9202 238.973C84.8414 238.737 84.7627 238.58 84.5264 238.343C84.369 238.186 84.1327 237.95 83.9752 237.792C83.8177 237.556 83.109 236.768 83.6603 236.453C83.8965 236.375 84.2115 236.453 84.3689 236.532C84.6839 236.69 84.9989 236.847 85.3139 236.926C85.5501 237.005 85.8651 237.083 86.1014 237.005C86.3376 236.926 86.4164 236.69 86.4164 236.453C86.4951 236.138 86.4164 235.823 86.4164 235.509C86.4164 235.272 86.3376 234.957 86.4164 234.642C86.6526 234.091 87.3613 234.879 87.5188 235.115C87.755 235.43 88.2275 236.296 88.7787 235.981C89.015 235.902 89.0937 235.509 89.1725 235.272C89.2512 234.957 89.2512 234.642 89.33 234.327C89.33 234.17 89.3299 233.855 89.4874 233.855C89.6449 233.855 89.8024 234.17 89.8811 234.249C90.0386 234.8 90.1174 235.272 89.8811 235.666ZM103.819 187.631C103.74 187.631 103.74 187.631 103.74 187.552C103.662 187.474 103.583 187.474 103.425 187.395C103.347 187.316 103.347 187.316 103.268 187.237C103.11 187.159 102.874 187.001 102.717 186.922C102.402 186.844 102.165 186.844 101.85 186.922C101.457 186.922 101.063 186.844 100.748 186.529C100.354 186.135 100.748 185.662 101.063 185.347C101.536 184.954 102.165 184.718 102.795 184.56C103.268 184.481 103.74 184.324 104.213 184.324C104.607 184.245 105 184.245 105.394 184.245C105.63 184.166 105.867 184.166 106.024 184.009C106.182 183.93 106.418 183.773 106.575 183.773C107.048 183.773 106.654 184.56 106.497 184.718C106.182 185.269 105.867 185.741 105.473 186.371C105.394 186.529 105.237 186.765 105.158 187.001C105.079 187.159 105.079 187.316 105 187.474C105 187.71 104.922 187.946 104.843 188.104C104.843 188.182 104.764 188.261 104.685 188.34C104.528 188.419 104.37 188.261 104.292 188.182C104.213 188.104 104.134 187.946 103.977 187.789C103.977 187.789 103.898 187.71 103.819 187.631ZM109.883 220.232C109.489 220.311 109.174 219.996 108.859 219.838C108.465 219.602 108.071 219.523 107.599 219.523C107.126 219.523 106.733 219.444 106.497 218.972C106.418 218.814 106.339 218.499 106.339 218.263C106.26 218.106 106.26 217.791 106.182 217.633C106.103 217.318 105.867 217.239 105.709 217.003C105.473 216.846 105.315 216.61 105.079 216.531C104.843 216.295 104.449 216.058 104.37 215.743C104.292 215.428 104.528 215.113 104.764 214.798C105.079 214.405 105.315 214.09 105.552 213.617C105.867 213.145 106.024 212.672 106.339 212.2C106.418 212.121 106.497 211.885 106.733 211.885C106.89 211.806 106.969 211.885 107.126 211.964C107.441 212.2 107.678 212.515 108.071 212.672C108.465 212.83 108.938 212.751 109.331 212.751C109.646 212.751 110.04 212.83 110.119 213.223C110.198 213.617 110.04 214.011 109.961 214.247C109.804 214.641 109.804 215.035 109.568 215.35C109.41 215.743 109.095 215.901 108.78 216.058C108.465 216.216 108.071 216.373 108.071 216.688C108.071 217.082 108.308 217.476 108.544 217.791C108.78 218.106 109.016 218.342 109.41 218.578C109.725 218.736 110.119 219.051 110.276 219.444C110.119 219.681 110.198 220.153 109.883 220.232Z" fill="#FCB743"/>
</svg>
