<svg xmlns="http://www.w3.org/2000/svg" viewBox="0 0 110.35 99.83"><defs><style>.cls-1{fill:#51872e;}.cls-2{fill:#38701d;}.cls-3{opacity:0.4;}.cls-4{fill:#f9d006;}.cls-5{fill:#7daf35;}.cls-6{fill:#ba7231;}.cls-7{fill:#021e08;}.cls-8{opacity:0.7;}.cls-9{fill:#92c44b;}.cls-10{fill:#8cb230;}.cls-11{fill:#6caf41;}.cls-12{fill:#529129;}.cls-13{fill:#3f7a29;}.cls-14{fill:#345e1d;}.cls-15{fill:#281003;}.cls-16{opacity:0.5;}.cls-17{fill:#edf953;}.cls-18{fill:#abe240;}.cls-19{fill:#b204aa;}.cls-20{fill:#191144;}.cls-21{fill:#04032b;}.cls-22{opacity:0.3;}.cls-23{fill:#f7be08;}</style></defs><g id="Layer_2" data-name="Layer 2"><g id="_ÎÓÈ_1" data-name="—ÎÓÈ_1"><path class="cls-1" d="M110.19,95.19c-.46-1.93-.91-3.85-1.37-5.78l-4.41-18.67a46.91,46.91,0,0,0-1.56-5.6C101,60.05,97.46,55.75,94,51.57l-3.4-4.12c-3.12-3.79-6.51-7.75-11.18-9.24a18.1,18.1,0,0,0-7.82-.48c.4.13,4,2.39,4.23,2.48s4.14,1.57,7.24,8c1.5,3.11,1.39,9.82.76,13.21a13.9,13.9,0,0,0-.56,4.55,8,8,0,0,1,.34,2.69c-.12.59-.48,1.11-.58,1.71a4,4,0,0,0,.13,1.5c.22,1.08.44,2.15.67,3.22s.46,2.58-.28,3.56-2.16,1.15-3.22,1.79a4,4,0,0,0-1.55,4.74,7.83,7.83,0,0,0,1.59,2.18l8.12,8.77a1.23,1.23,0,0,1,.35.53c.18.72-.79,1.12-1.53,1.21l-7.25.84,2.14,0c2.82.05,5.64.1,8.45.09q8.82,0,17.62-.87a2.44,2.44,0,0,0,1.78-.69A2.47,2.47,0,0,0,110.19,95.19Z"/><path class="cls-2" d="M42.65,97.93l5-4.51a21.78,21.78,0,0,1,2.48-2A26.08,26.08,0,0,0,54,89a16.67,16.67,0,0,0,2.49-3.59,18.62,18.62,0,0,1,9-7.36c.78-.3,1.71-.68,1.9-1.5s-.7-1.76-1-2.68a3,3,0,0,1,.73-2.9,6.77,6.77,0,0,1,2.64-1.64c1-.41,2.31-1,2.38-2.09a7.49,7.49,0,0,0-.13-1.06,4.61,4.61,0,0,1,.94-2.67,13.85,13.85,0,0,1,3.84-4.6c1.2-.79,2.88-1.59,2.72-3-.06-.52-.38-1-.49-1.51s2.59-6.78-5.66-14.14l-4.35-2.07a76.72,76.72,0,0,1-8.83,1.38c-4.49.26-9-.69-13.45-.83-6.15-.19-12.23,1.15-18.24,2.49l-8,1.78C14.27,44.33,8,45.74,2.69,49a4.14,4.14,0,0,0-1.61,1.52c-1.47,3,4.44,5.82,3.15,8.9-.48,1.15-2.39,1.13-3.14,2.12-1.57,2.08-1.51,5.7.7,7.1s7,1.86,9.23,3.21a3.78,3.78,0,0,1,1.78,1.9c.64,1.85-3.14,2.55-4.69,3.73A6.18,6.18,0,0,0,6,83.36c.56,1.93,4.42,2.28,6.43,2.34,3.37.09,5.55.72,6.36,1.76.56.52,1.89,3.69-2,4.15-1.39.17-2.27,2-2.1,3.42a3,3,0,0,0,2.42,2.32,13.16,13.16,0,0,0,3.55.08c6.63-.19,13.19,3.52,19.65,2.06.69-.16,1.36-.37,2-.59a.4.4,0,0,1-.11-.19C42.17,98.41,42.42,98.13,42.65,97.93Z"/><g class="cls-3"><path class="cls-4" d="M67.61,28.05a5.36,5.36,0,0,0-2.16-2.19,6.22,6.22,0,0,0-3.34-.63,5.85,5.85,0,0,0-1.66.42,4.63,4.63,0,0,0-2.35,2.12,5.52,5.52,0,0,0,8.23,7A4.49,4.49,0,0,0,68,32.35,6.46,6.46,0,0,0,67.61,28.05Z"/></g><path class="cls-5" d="M109.09,88.45q-2.79-8.51-5.59-17c-.78-2.36-1.56-4.72-2.49-7A55.76,55.76,0,0,0,90.77,48.09,9.63,9.63,0,0,0,89.2,46.6c-.46-.33-1-.58-1.41-.94-1-.86-1.65-2.32-3-2.7a.55.55,0,0,0-.57.08.63.63,0,0,0-.08.54l.21,1.23c-.34,2.39,1.37,4.63,2.16,7a9.53,9.53,0,0,1,0,6.13,6.56,6.56,0,0,0-.67,2.7,14.37,14.37,0,0,0,.58,2c.31,1.33-.15,2.76.23,4.07a10.87,10.87,0,0,0,1.7,2.77,3.15,3.15,0,0,1,.55,3.06c-.45.9-1.53,1.29-2.13,2.09s-.69,2-1.45,2.6-2.67.89-2.67,2.08a1.58,1.58,0,0,0,.8,1.2c1.2.85,2.82,1.09,3.79,2.19,1.34,1.51,1,4.09,2.45,5.44,1.15,1,2.91.88,4.4,1.34.85.26,1.63.74,2.47,1,2.37.82,5.06.1,7.42.93.83.29,1.58.76,2.42,1A2.58,2.58,0,0,0,108.9,92C109.81,91.15,109.49,89.65,109.09,88.45Z"/><path class="cls-6" d="M71.56,37.71a5.52,5.52,0,0,0-2.64.43h0c.9-.16,1.8-.3,2.69-.41Z"/><path class="cls-6" d="M88.85,96.62a1.23,1.23,0,0,0-.35-.53l-8.12-8.77a7.83,7.83,0,0,1-1.59-2.18,4,4,0,0,1,1.55-4.74c1.06-.64,2.47-.8,3.22-1.79s.53-2.36.28-3.56-.45-2.14-.67-3.22a4,4,0,0,1-.13-1.5c.1-.6.46-1.12.58-1.71a8,8,0,0,0-.34-2.69,13.9,13.9,0,0,1,.56-4.55c.63-3.39.74-10.1-.76-13.21-3.1-6.39-7.11-7.89-7.24-8S72,37.86,71.61,37.73c-.89.11-1.79.25-2.69.41l4.35,2.07c8.25,7.36,5.56,13.63,5.66,14.14s.43,1,.49,1.51c.16,1.43-1.52,2.23-2.72,3a13.85,13.85,0,0,0-3.84,4.6,4.61,4.61,0,0,0-.94,2.67,7.49,7.49,0,0,1,.13,1.06c-.07,1.11-1.34,1.68-2.38,2.09A6.77,6.77,0,0,0,67,70.94a3,3,0,0,0-.73,2.9c.33.92,1.25,1.73,1,2.68s-1.12,1.2-1.9,1.5a18.62,18.62,0,0,0-9,7.36A16.67,16.67,0,0,1,54,89a26.08,26.08,0,0,1-3.82,2.44,21.78,21.78,0,0,0-2.48,2l-5,4.51c-.23.2-.48.48-.4.78a.4.4,0,0,0,.11.19,1.16,1.16,0,0,0,.8.24l15.52.36a20,20,0,0,0,3-.09c1.55-.21,3.08-.8,4.63-.61,1,.14,2,.62,3.07.8a11,11,0,0,0,3.09,0l7.6-.88,7.25-.84C88.06,97.74,89,97.34,88.85,96.62Z"/><polygon class="cls-7" points="19.89 93.55 19.89 93.55 19.89 93.54 19.89 93.55"/><g class="cls-8"><path class="cls-7" d="M58.75,61.6c-3.86,2.08-8,3.66-11.74,5.94-2.58,1.57-4.56,4.07-7.3,5.35-9.21,4.33-14-3.16-14.79-2.81-9.3,4.3-13.37,8-13.91,8.52-6.42,6.72,11.21,4.5,10.37,7.14,1.92,6-6.73,5.39-5.88,9.11.14.6,5.65,1,6.25,1.11a34.13,34.13,0,0,0,11.17.77A16.84,16.84,0,0,0,39.32,95a15.38,15.38,0,0,0,3.34-2.51c1.94-1.87,3.61-4.1,6-5.38,1.83-1,4.33-1.74,4.61-3.8.1-.69-.11-1.4,0-2.1.22-1.75,2.14-2.74,3.87-3.1a3.81,3.81,0,0,0,2.19-.92,3.7,3.7,0,0,0,.64-1.86c.58-3.3,2.57-6.57,5.73-7.7a3.62,3.62,0,0,0,1.93-1.07A4.46,4.46,0,0,0,68,65.18c1-3.51,6.23-4.07,7.68-7.4.3-.67.41-1.42.73-2.08.72-1.44,2.37-2.31,2.89-3.83C71.73,52.69,65.49,58,58.75,61.6Z"/></g><path class="cls-7" d="M66,41.25C58.77,43,51.21,42,43.78,42c-10.91.06-21.68,2.41-32.14,5.51A13.18,13.18,0,0,0,7.83,49.1a4.65,4.65,0,0,0-2.16,3.37c-.13,1.74,1.06,3.44.72,5.15-.4,2-2.74,3.27-2.91,5.3-.12,1.44.91,2.72,2,3.63a13.49,13.49,0,0,0,9,3L12.9,70a2,2,0,0,0,2.3.13c.73-.39,1.33-1,2.07-1.36a25.9,25.9,0,0,1,3.29-.81c1.09-.36,2-1.1,3.06-1.54,1.69-.71,3.59-.6,5.42-.71a21.89,21.89,0,0,0,8.32-2.18c.74-.36,1.58-1,1.33-1.82s-2-1.23-1.74-2.17c.13-.53.78-.69,1.31-.78a37.22,37.22,0,0,0,13.79-5c.51-.31,1.07-.77,1-1.36,0-.29-.25-.54-.29-.83-.1-.67.65-1.12,1.28-1.38l5.89-2.39a23.38,23.38,0,0,1,3.23-1.14,22.49,22.49,0,0,0,2.83-.7c2.48-1,4.13-3.48,6.65-4.31C70.92,40,68.25,40.71,66,41.25Z"/><path class="cls-9" d="M63.14,40.88a7.15,7.15,0,0,0-1.8-.17A7,7,0,0,1,58,39.17l-1.47-1a2.38,2.38,0,0,0-.85-.44,1.43,1.43,0,0,0-1.54,1.16.93.93,0,0,0-1-.46c-.64.19-1,.88-1.2,1.51a1,1,0,0,0-1-.83,1,1,0,0,0-.62.28,2.41,2.41,0,0,0-.68-.49,11.73,11.73,0,0,1-1.19-1.15,1.18,1.18,0,0,0-1.5-.17c.35-.33-.16-.92-.64-1s-1,.14-1.43-.11c-.17-.11-.29-.27-.46-.38a.85.85,0,0,0-1.23.74l-3.71.61c-1,.16-2.23.65-2.12,1.64a2,2,0,0,0-2.35.49,1.16,1.16,0,0,0-1.08-1.69,2,2,0,0,0-3.81.85,1,1,0,0,0-1.06.88c0-.37-.4-.63-.77-.58a1.91,1.91,0,0,0-.94.52L26,40.74a6.52,6.52,0,0,0-2.82-.59.88.88,0,0,0-1.66-.55c.46-.88-.66-2-1.58-1.67a1.43,1.43,0,0,0-.73,1.71,1,1,0,0,0-1,0,1.64,1.64,0,0,0-.43,1.85c-.3-.5-1.11-.37-1.46.09a2.08,2.08,0,0,0-.34,1.12.71.71,0,0,0-.26-.31,1.8,1.8,0,0,0-1-.16A1.18,1.18,0,0,0,13,41a2,2,0,0,0-.42-1.81A1,1,0,0,0,11,39.4c.39-.76-.56-1.71-1.39-1.48a1.7,1.7,0,0,0-1,2.08c-.39-.4-.95-.82-1.43-.54-1,.56.54,2.46-.4,3a1.3,1.3,0,0,0-1.63-.27,1.86,1.86,0,0,0-1-1.1c-.47-.16-1.11.34-.86.78-.35-.66-1.49-.24-1.65.48a2.81,2.81,0,0,0,.7,2.06c-.62-.05-1,.67-.92,1.25a.62.62,0,0,0-.56,0,1,1,0,0,0-.33,1.21,1.9,1.9,0,0,0,.4.57L.37,48A2.52,2.52,0,0,0,2,51.38a3.87,3.87,0,0,1,1.18.3c.59.34.9,1.22,1.58,1.21.38,0,.73-.3,1.1-.23.6.12.6,1,.89,1.51a1.34,1.34,0,0,0,1.48.64,1.34,1.34,0,0,0,.92-1.33,1.89,1.89,0,0,0,2.21.24A5,5,0,0,0,13,52a3.76,3.76,0,0,0,3.47.63A11.07,11.07,0,0,0,19.75,51c.27,1.43,2.38,1.79,3.53.9a3.12,3.12,0,0,1,1.16-.76,2.49,2.49,0,0,1,1.08.12,4.85,4.85,0,0,0,3.88-.88,7.34,7.34,0,0,1,1-.71,4.43,4.43,0,0,1,1.3-.38l8.47-1.51a9.93,9.93,0,0,0,4.44-1.56,2.23,2.23,0,0,1,1-.56,2.53,2.53,0,0,1,1.06.3c1.35.51,2.84-.07,4.19-.58a46.31,46.31,0,0,1,5.77-1.77,27.17,27.17,0,0,0,6.73-2,.59.59,0,0,0,.17-.13C63.62,41.21,63.37,41,63.14,40.88Z"/><path class="cls-9" d="M71.41,41.14c-.15-.16-.37-.22-.52-.37a3.7,3.7,0,0,1-.41-.62,1.55,1.55,0,0,0-1.39-.57,3.91,3.91,0,0,0-1.48.52c0-.4-.62-.41-1-.25a9.48,9.48,0,0,0-2.31,1.46,2.46,2.46,0,0,1-1,.64c-.24.06-.49,0-.74.07a1.64,1.64,0,0,0-1.13.71.5.5,0,0,0-.58-.39,1,1,0,0,0-.62.43.93.93,0,0,0-.21.54c-.32.12-.63.23-.94.37a2.66,2.66,0,0,0-1.49,1.21,5.21,5.21,0,0,0,0,2.26c0,.81-.19,1.82.49,2.26a.92.92,0,0,0,1.07-.08.91.91,0,0,0,.22-1c1,0,2.18-.13,2.39-1.06a.92.92,0,0,0,1.16.41c.43-.14.79-.45,1.2-.63s1.1-.24,1.62-.46,1-.78.78-1.31A3.06,3.06,0,0,0,68.59,44a4.77,4.77,0,0,1,.6-.8,6.19,6.19,0,0,1,1.63-.66C71.36,42.29,71.81,41.58,71.41,41.14Z"/><g class="cls-8"><path class="cls-7" d="M55.3,41.38a52,52,0,0,0-9.49-.72c-1.25.06-2.5.21-3.75.22a27,27,0,0,1-6.32-.81,4.93,4.93,0,0,0-1.78-.2,4.85,4.85,0,0,0-1.81.74c-1.31.75-2.72,1.64-3.14,3.08a1.31,1.31,0,0,1-.26.6,1.07,1.07,0,0,1-.88.18,19.72,19.72,0,0,1-5.25-1.25,14.87,14.87,0,0,0-2.75-.94,3.3,3.3,0,0,0-2.75.6c-.51.43-.84,1.09-1.46,1.35-.87.36-2.09-.18-2.68.56s-.16,2-1,2.18c-.49.11-.94-.38-1.43-.34s-.91.78-1.48.82a1.72,1.72,0,0,1-.83-.26c-1.24-.56-4-2.06-3.39-.86.28.54-.71.71-3.89,1.15-.67.1-1.47,1.77.13,3.62-.18,1,3.21,2.14,3.41,3.11a1.44,1.44,0,0,0,.49.95,1.54,1.54,0,0,0,1,.11,43.23,43.23,0,0,0,12.31-3.49,2,2,0,0,1,1.2-.27,5.45,5.45,0,0,1,.76.3c1.07.38,2.24-.46,3.36-.25a9.26,9.26,0,0,1,1.6.68,4.74,4.74,0,0,0,4-.68,33.49,33.49,0,0,1,3.56-2.21c3.27-1.41,7.24,0,10.51-1.43,1-.42,1.83-1.06,2.76-1.54a18.52,18.52,0,0,1,4-1.36c2.56-.67,6.93,1.42,8.42-.76,1.38-2,5.14-2.43,5.8-2.95C62.71,41.09,56.9,41.6,55.3,41.38Z"/></g><path class="cls-10" d="M86.83,25.3c.36.17.44.86.82.76a.59.59,0,0,0,.18-.13,1.64,1.64,0,0,0,0-1.86c-.33-.57-.82-1-1.15-1.61h0A5.83,5.83,0,0,0,82.2,20.7a6,6,0,0,0-2.33,1.05,5.86,5.86,0,0,0-1.45,1.49c-.32.62-1.22.61-1.87.35a4.14,4.14,0,0,0-2-.57,2.18,2.18,0,0,0-.81.32,3.64,3.64,0,0,0-1.83,2.14,5.19,5.19,0,0,0-.09,1.31l0,2a1.46,1.46,0,0,0,.65-.65,4,4,0,0,1-.09,1,.84.84,0,0,0,.31-.25c-.06.17.18.32.35.25a.87.87,0,0,0,.34-.41.52.52,0,0,1,.39-.33c.23,0,.39.25.42.48a4.54,4.54,0,0,1-.37,1.68c-.36,1.46.48,2.92,1.29,4.18a1.85,1.85,0,0,0,.13-.7.43.43,0,0,0,.61.2,1,1,0,0,0,.41-.61,2.29,2.29,0,0,1,.26-.69.3.3,0,0,1,.17-.13c.18,0,.27.21.32.38a2.6,2.6,0,0,0,1.43,1.55c.64.33,1.35.51,2,.84a5.34,5.34,0,0,1,2.05,1.84,8.59,8.59,0,0,1,1.41-3,4.24,4.24,0,0,0,.74-3.2,3.83,3.83,0,0,1,.77.68.75.75,0,0,1,.3-.4l.7.94a.29.29,0,0,0,.17.14c.1,0,.19-.08.25-.16a4.85,4.85,0,0,0-.16-5.63,1.92,1.92,0,0,1-.52-.9C86.16,25.56,86.51,25.16,86.83,25.3Z"/><path class="cls-11" d="M60,44.92a1.26,1.26,0,0,0-1.5-.66.8.8,0,0,0,0-.94,1.22,1.22,0,0,0-1.42-.23,3.48,3.48,0,0,0-1.16,1,1.47,1.47,0,0,0-.45-1.73,1.44,1.44,0,0,0-1.78.07,1.34,1.34,0,0,0-.33-1.62,1.32,1.32,0,0,0-1.64.06A2.22,2.22,0,0,0,51.6,39a1.48,1.48,0,0,0-1.67-.64,1.12,1.12,0,0,0-.6,1.57c.05-.53-.77-.66-1.22-.38s-.84.78-1.37.77c-.2,0-.4-.08-.6-.06-.62.05-.8.86-.81,1.48-.28-.41-1-.19-1.19.27a1.6,1.6,0,0,0,0,1.08.65.65,0,0,0-.73-.23,1,1,0,0,0-.51,1.07,2.73,2.73,0,0,0,.51,1.14L44,54c1.5-.2,2.93.71,4.44.69a7,7,0,0,0,2.1-.44l3.29-1a1.28,1.28,0,0,0,.66-.37c.15-.2.13-.56-.11-.65a3.87,3.87,0,0,0,2.77-1.11.87.87,0,0,0-1-.28,4.67,4.67,0,0,0,1.65-.51,1.57,1.57,0,0,0,.82-1.44,1,1,0,0,0-1.26-.81,5.73,5.73,0,0,0,2.06-1A1.94,1.94,0,0,0,60,44.92Z"/><path class="cls-12" d="M47.52,50c-.6-.15-1.2.43-1.81.34a1.62,1.62,0,0,0-.22-1.71.91.91,0,0,0-1.16,0,1,1,0,0,0-.41-1,1.7,1.7,0,0,0-1.58,0,1.8,1.8,0,0,0-.7-3.06,3.19,3.19,0,0,0,.73-1.41,1.08,1.08,0,0,0-.74-1.25c-.7-.13-1.65.58-2,0a3.14,3.14,0,0,1-.12-.51c-.24-.83-1.49-.56-2.23-.11.1-.52-.46-1-1-1a3.16,3.16,0,0,0-1.48.53,3.91,3.91,0,0,0-1.33,1,1.12,1.12,0,0,0,.06,1.49,2.18,2.18,0,0,0-2,2.67.76.76,0,1,0,.69,1.34l.33,14a22.17,22.17,0,0,0,6.83-2.09c.41-.2.82-.85.38-1,.34.38,1,.2,1.37-.14a8.5,8.5,0,0,1,1-1.11c.49-.31,1.15-.33,1.55-.76a7.23,7.23,0,0,0,.59-1.06A3.85,3.85,0,0,1,46.1,54c.62-.29,1.27-.82,1.23-1.51a.93.93,0,0,0-.39-.15,2.21,2.21,0,0,0,1-.66C48.32,51.12,48.2,50.12,47.52,50Z"/><path class="cls-13" d="M38,56c-.06-.43-.71-.73-1-.37.55-.44,1.15-1.12.82-1.74s-1.18-.52-1.73-.16a11.62,11.62,0,0,1-1.56,1.18,1.55,1.55,0,0,0-1.45-2.26A1.45,1.45,0,0,0,32.8,50a1,1,0,1,0-1.37-1.43c0-.8-1.06-1.27-1.79-1A2.49,2.49,0,0,0,28.4,49.6a1.9,1.9,0,0,0-2.24-.8,1.27,1.27,0,0,0,.38-1.9,1.24,1.24,0,0,0-1.34-.28A1.33,1.33,0,0,0,25.35,45a1.26,1.26,0,0,0-2.08.23c0-.59-.66-1-1.24-.91a3,3,0,0,0-1.47.93,1.43,1.43,0,0,0-1.48-.54,4.45,4.45,0,0,0-1.52.45c-1.22.59-2.17,2.23-1.3,3.27a.73.73,0,0,0-1.16,0,1.08,1.08,0,0,0,.07,1.28c-.45-.17-.93.29-1,.77a2.37,2.37,0,0,0,.45,1.34l-1.27,7.77a17,17,0,0,0,3.1,4.89,1.57,1.57,0,0,0,.58.45c.7.25,1.35-.55,2.09-.63s1.33.54,2,.9,1.73.25,1.76-.49a2.66,2.66,0,0,0,3.7-.35,2.64,2.64,0,0,0,3.64-1.44A2.83,2.83,0,0,0,33.59,61a3.59,3.59,0,0,1,1.57-.86c.56-.23,1.14-.67,1.12-1.28a.69.69,0,0,0-.55-.56,6.76,6.76,0,0,0,1.72-1.16A1.47,1.47,0,0,0,38,56Z"/><path class="cls-14" d="M23.65,59.33a.79.79,0,0,0-1.16-.49c0-.71,1.17-1.26.77-1.85a.86.86,0,0,0-.69-.27,4.24,4.24,0,0,0-2.73.91l-1.48-.46a.9.9,0,0,0,.37-1.4,1.24,1.24,0,0,0-1.58-.17A.83.83,0,0,0,17,54.25a1.48,1.48,0,0,0-1.53.19,2,2,0,0,0,.87-1.25,2,2,0,0,0-1.87.08c.19-.53-.31-1.1-.86-1.2a2.9,2.9,0,0,0-1.62.32,1.1,1.1,0,1,0-1.57-1.47,1.16,1.16,0,0,0-2.27.29.87.87,0,0,0-1-.91,1.55,1.55,0,0,0-1.15.92,2.62,2.62,0,0,0-.17,1.89c-.1-.29-.54-.3-.76-.1a1.37,1.37,0,0,0-.34.83,1,1,0,0,0-1.46-.38A1,1,0,0,0,3.24,55a.75.75,0,0,0-1.14,0,2.15,2.15,0,0,0-.47,1.21L1.18,58.8c-.45-.34-.89.55-.62,1s.79,1,.66,1.5l-.13.24C1.2,63.28,2.47,64.64,3.5,66a18.08,18.08,0,0,1,1.55,2.48,1.67,1.67,0,0,0,.39.56c.53.43,1.31,0,1.87-.34a2.64,2.64,0,0,0,.87,1.67c.54.35,1.48.05,1.44-.59a1.26,1.26,0,0,0,1.77.76,2.38,2.38,0,0,0,1.18-1.8,4.68,4.68,0,0,0,1.89-.36,1.1,1.1,0,0,0,.67-.59.52.52,0,0,0-.21-.53,3.54,3.54,0,0,0,3.83-2,2.73,2.73,0,0,1,1-.6,1.2,1.2,0,0,0,.77-.81c.06-.38-.41-.8-.72-.56a8,8,0,0,0,1.94-1c.22-.16.47-.4.41-.67a.25.25,0,0,0-.11-.12,3.18,3.18,0,0,0,1.17-.77A1.53,1.53,0,0,0,23.65,59.33Z"/><g class="cls-8"><path class="cls-7" d="M54.22,49.4a2.5,2.5,0,0,0-1.09.74,9.63,9.63,0,0,0-.47,1.24,2,2,0,0,1-2.31.84,3.43,3.43,0,0,1-1.91-1.78c-.24-.46-.46-1-1-1.19-.88-.32-1.57.77-1.88,1.66-.23-.46-1-.36-1.28.05A2.27,2.27,0,0,0,44,52.44a2.2,2.2,0,0,0-3.59,1A13.7,13.7,0,0,1,40.28,55c-.16.51-.75.95-1.2.67.26-.43-.14-1-.63-1.14a2.43,2.43,0,0,0-1.46.27c0,.49.06,1,.1,1.48-.22-.56-1.15-.23-1.37.33s-.11,1.23-.41,1.75a1.74,1.74,0,0,1-2.18.52,4.93,4.93,0,0,1-1.78-1.65,2.09,2.09,0,0,0-.29-2,1.45,1.45,0,0,0-1.86-.33,1.14,1.14,0,0,0-.38,1.22,1.44,1.44,0,0,0-1.81.35,3.58,3.58,0,0,0-.24,2.7,1.43,1.43,0,0,0-2.09,1.12c0,.37.12.79-.13,1.06s-1-.06-1.58.06-.72.58-1.11.84a4.2,4.2,0,0,1-1.66.37c-.56.1-1.19.5-1.13,1.07a3.09,3.09,0,0,0-1.25-.86A3.11,3.11,0,0,0,18,61.1a1.06,1.06,0,0,0-1.36-.77c-.77.38-.45,1.67-1.08,2.26a7.14,7.14,0,0,1-.89.52c-1,.71-.5,2.42-1.33,3.31s-2.49.34-3.72.76a2,2,0,0,1-.92.22c-.83-.16-.64-1.46-1.17-2.12a1.18,1.18,0,0,0-1.72,0c-.45.47-6.21-.38-5.79.12A4.93,4.93,0,0,0,1.55,68.5c1.32,1.06,6.37,2.09,6.87,2.35a26,26,0,0,0,3.92.83c1.95.08,2.54-1.15,4.2-2.16s2.27-.08,3.85-.8c4-1.84,10.54,5.14,14.52,3.31,1.92-.88,1.27-10.58,3.19-11.46,2.13-1,4.27-2,6.44-2.84,1.49-.59,8.14,3.77,8.63,3.53s7.29-11.21,11.24-13.6c1.93-1.17,2.32-.33,5.41-4.81C64.91,45,59.14,47.3,54.22,49.4Z"/></g><path class="cls-12" d="M78.56,46a1,1,0,0,0-1.06-.57,2.18,2.18,0,0,0-.61.2.91.91,0,0,0,.12-.91,1.07,1.07,0,0,0-.9-.52s0,0,0,0A1.41,1.41,0,0,0,74.36,43a2.69,2.69,0,0,0-1,.74l-1.56,1.56a3.9,3.9,0,0,0-.74,1c-.6-.17-1.19.36-1.45.93a2.85,2.85,0,0,0-.22.7,1.09,1.09,0,0,0-.24-.24,1.32,1.32,0,0,0-1-.15,2.08,2.08,0,0,0,.59-1.17,1.71,1.71,0,0,0-1.15-1.87,1.35,1.35,0,0,0-1.26.37,1,1,0,0,0-.72-.86,1.53,1.53,0,0,0-1.58,1,1.11,1.11,0,0,0-.59-.73,1.18,1.18,0,0,0-1.51,1,1.11,1.11,0,0,0-1.43-.58,1.65,1.65,0,0,0-.72,1.87c-.38-.47-1.23-.19-1.49.36a2.78,2.78,0,0,0,0,1.8c-.15-.75-1.44-.57-1.69.15a2.67,2.67,0,0,0,.52,2.16,2,2,0,0,0-2.19.86,1.43,1.43,0,0,0,0,1.18,1.83,1.83,0,0,0-2,.44,1.76,1.76,0,0,0-.28,1.67,11.92,11.92,0,0,0,1.24,5.72,1.74,1.74,0,0,0,.86.89.9.9,0,0,0-.55.89A2.26,2.26,0,0,0,55,63.86l1.29,1.22c.43.4,1.21.76,1.49.25a1.43,1.43,0,0,0,.08-.58c.07-.81.77-1.41,1.13-2.14a1.53,1.53,0,0,0,.13-.56,1.86,1.86,0,0,0,1.44.17,2.19,2.19,0,0,0,1.31,1.56,1.72,1.72,0,0,0,1.72-.44,1,1,0,0,0,.16.48,2.71,2.71,0,0,0,1.26.87c-.35.37.23.93.74,1a3.8,3.8,0,0,0,2.53-1.41,3.17,3.17,0,0,0,.7-.89,2,2,0,0,0-1-2.42,2.85,2.85,0,0,0-1.53-.23,1,1,0,0,0,.17-.32A2.18,2.18,0,0,0,66,58.6a6.13,6.13,0,0,0-2.41-1.83,1.06,1.06,0,0,0,1.18-.36,9,9,0,0,0,2.66,2.79c.68.45,1.77.71,2.16,0a1.08,1.08,0,0,0-.16-1.12,3,3,0,0,0,1.18.86,1.47,1.47,0,0,0,1.94-.82.7.7,0,0,0-.08-.53,1.22,1.22,0,0,0,1-1.53.85.85,0,0,0-.68-.47,1.81,1.81,0,0,0,.83-1,1.08,1.08,0,0,0-1-1.34c.57-.2,1.19-.25,1.78-.41s1.4-.66,1.47-1.37a.94.94,0,0,0-.58-.89,3.88,3.88,0,0,0,2.3-1.68,1.53,1.53,0,0,0,.27-1.23.78.78,0,0,0-.57-.5C78,47.05,78.77,46.62,78.56,46Z"/><path class="cls-13" d="M61.84,68a1,1,0,0,0-.59-.4,5.7,5.7,0,0,0-2.35-.31,1.42,1.42,0,0,0,1.23-2,2.27,2.27,0,0,0-2.3-1.2,3.33,3.33,0,0,0-.69.12,1.37,1.37,0,0,0-.22-1.68,1.12,1.12,0,0,0-.85-.23,2.94,2.94,0,0,0,.61-.61A1.6,1.6,0,0,0,56.86,60a1,1,0,0,0-1.59-.12,2.44,2.44,0,0,0,1.08-2.11A1.2,1.2,0,0,0,55,56.89a1.06,1.06,0,0,0,0-1.18,1.36,1.36,0,0,0-1.68-.31,1.79,1.79,0,0,0-.65.63.56.56,0,0,0-.23-.2,1.48,1.48,0,0,0-1.42.55,6.68,6.68,0,0,0-.57.72,1.17,1.17,0,0,0-.2-.34,1.87,1.87,0,0,0-2.54.12,4.14,4.14,0,0,0,.56-2.57c-.21-.87-1.31-1.55-2-1a1,1,0,1,0-1.76-.1,1.31,1.31,0,0,0-2-.44A2,2,0,0,0,42,55a1.38,1.38,0,0,0-2.2.25,2.73,2.73,0,0,0,.07,2.53c-.25-.6-1.23-.56-1.6,0a1.79,1.79,0,0,0,0,1.85c-.21-.54-1.12-.4-1.39.12a2.33,2.33,0,0,0,0,1.72c-.15-.84-1.55-.88-1.94-.12a1.69,1.69,0,0,0,.65,2l.26,1.06a4.54,4.54,0,0,0,.18,3A2.8,2.8,0,0,0,36,71a3.65,3.65,0,0,0-.42,2.85c.15.53.55,1.12,1.11,1.05a2.87,2.87,0,0,0,.64-.23c.78-.26,1.79.27,2.37-.31s.25-1.22.5-1.8c.33-.78,1.3-1,2.09-1.31S43.89,70,43.4,69.3A1.49,1.49,0,0,0,45.5,69a1.14,1.14,0,0,0,1.63,1.56c-4.65-.79-9.13,10.78.46,5.87.37-.19.12.91.5,1.07a.65.65,0,0,0,.83-.49.79.79,0,0,0-.53-.85,1.21,1.21,0,0,0,.09-2.09c.75.58,2-.42,1.66-1.29a1.06,1.06,0,0,0,1.76-.18,1.33,1.33,0,0,0-.16-1.34,1.3,1.3,0,0,0,.56.1,4.75,4.75,0,0,0,.21.67,3.22,3.22,0,0,0,1.25,1.58,1.64,1.64,0,0,0,1.62,0,1.46,1.46,0,0,0,.3.35,2.41,2.41,0,0,0,2.38.22,1.73,1.73,0,0,0,1.18-1.5,1,1,0,0,0-.52-.79,3.77,3.77,0,0,0,2.07-1,2.74,2.74,0,0,0-2-.7,5.5,5.5,0,0,0,2.54-1.06C61.69,68.88,62,68.42,61.84,68Z"/><path class="cls-14" d="M48.32,76a1.73,1.73,0,0,0-1.81-.15A5.14,5.14,0,0,0,45,77.05c.42-.61-.17-1.5-.9-1.63-.1,0-.2,0-.3,0a.93.93,0,0,0,.18-.26A1,1,0,0,0,43.46,74a2,2,0,0,0,1.16-.58c.45-.5.28-1.52-.39-1.59a4.72,4.72,0,0,0,2.19-1.89c.41-.88,0-2.21-1-2.31.53-.07.69-.89.29-1.26a1.2,1.2,0,0,0-1.48,0,3.23,3.23,0,0,0-.91,1.32,21.69,21.69,0,0,0-.82,2.21,4.44,4.44,0,0,0-2.05.08,1.23,1.23,0,0,0-.2-1.94,1.16,1.16,0,0,0-1.11.08,1.12,1.12,0,0,0-.58-1,1.72,1.72,0,0,0-2.09.9,4.53,4.53,0,0,0-.31,2.45,1,1,0,0,0,.26.72,2.15,2.15,0,0,0-2.33,1.24,1.55,1.55,0,0,0-.93-1.73h0s0,0,.07-.07c.44-.51.32-1.51-.35-1.66L35,68c.29-.14.64-.37.59-.69s-.65-.48-.81-.85.07-.62.1-.94a1,1,0,0,0-1.51-.84,1.68,1.68,0,1,0-2.24-2.46,1.45,1.45,0,0,0-1.2-1.62,1.69,1.69,0,0,0-1.58,1.15,1.07,1.07,0,0,0-.89-.68A1.52,1.52,0,0,0,26,62.53a1,1,0,0,0-1.42-.28A1.82,1.82,0,0,0,24,63.73a1.64,1.64,0,0,0-1.75,1,1.66,1.66,0,0,0,.11,1.39,1.59,1.59,0,0,0-2,.05,1.52,1.52,0,0,0-.28,1.67.8.8,0,0,0-.72.15,1.75,1.75,0,0,0-.26,1.85,6.8,6.8,0,0,1,.55,1.89c-.37-.61-1.41-.42-1.76.21A2.22,2.22,0,0,0,18.05,74a1.08,1.08,0,1,0-1.22,1.78c-.24-.55-1.2-.31-1.35.28a1.58,1.58,0,0,0,.73,1.55l.25-.17a2,2,0,0,1-.5,1.84c-.42.52-1,.93-1.34,1.47a1.81,1.81,0,0,0-.26,1.87c.33.57,1.34.67,1.61.07a1.32,1.32,0,0,0,2,1.21,1.32,1.32,0,0,0,1.77,1.46,13.55,13.55,0,0,0-.89,3.81c-.05.61.05,1.4.64,1.57.29.09.64,0,.91.12s.39.53.68.66c.53.26,1.07-.47,1.66-.4.31,0,.55.3.86.38a1.22,1.22,0,0,0,1.21-.62c.27-.41.4-.89.66-1.3s.83-.86,1.15-1.36a1.68,1.68,0,0,0,.21-.58s0,0,.06.06a.77.77,0,0,0,.4.06,11.66,11.66,0,0,0,1.85,4.49,1.5,1.5,0,0,0,.55.54c.55.24,1.18-.29,1.29-.88a3,3,0,0,0-.38-1.72,1.73,1.73,0,1,0,2-2.84,1,1,0,0,0,1.46.1,1,1,0,0,0,.27-.69,2.2,2.2,0,0,0,1.9.8,1.67,1.67,0,0,0,.71-.24,8.71,8.71,0,0,0,1.57,2.32,1.4,1.4,0,0,0,.61.42c.63.15,1.15-.67,1-1.29a1.49,1.49,0,0,0-.24-.49.55.55,0,0,0,.3-.11.91.91,0,0,0-.32-1.54,2.43,2.43,0,0,0,2-.77c.46-.61.22-1.7-.53-1.83a3.92,3.92,0,0,0,2.75-1.09,1.63,1.63,0,0,0,.13-1.65,2.13,2.13,0,0,0,1.86-.11,1.11,1.11,0,0,0,.6-.87.64.64,0,0,0-.43-.57,3.07,3.07,0,0,0,1.62-.36,1.19,1.19,0,0,0,.41-1.69A1.06,1.06,0,0,0,48.32,76Z"/><path class="cls-10" d="M83.09,41.11a1.93,1.93,0,0,1-1.1-.2c-.47-.36-.33-1.07-.27-1.66s-.25-1.2-.73-1.2A4,4,0,0,0,76.67,37a6.61,6.61,0,0,0-4.36,4.73c.18-.34.77-.21.91.15a1.08,1.08,0,0,1-.3,1.06c-.26.28-.59.5-.83.8a3.71,3.71,0,0,0-.54,2.44c0,.81,0,1.61,0,2.42a.82.82,0,0,1,1.07-.7A1.5,1.5,0,0,1,73.59,49a2.29,2.29,0,0,1,.09.9,4.94,4.94,0,0,1-.17.74c-.22.74-.44,1.49-.65,2.24a5.86,5.86,0,0,1,4.89-2.32,2.47,2.47,0,0,1,1.37.27,1,1,0,0,1,.42,1.2,7.86,7.86,0,0,0,1.8-1.84,4,4,0,0,1,1.35-1.49c.61-.3,1.55,0,1.53.71a7,7,0,0,0,2-4.69A3.63,3.63,0,0,0,83.09,41.11Z"/><path class="cls-15" d="M105.29,93.87c-.75-5.44-2.53-10.85-1.82-16.29a36.75,36.75,0,0,0,.63-4.89,17.9,17.9,0,0,0-1-5c-.9-3-1.79-6-2.69-9-.78,1.3,0,2.92.64,4.32a14.39,14.39,0,0,1,1.19,5.68c-.85-1-.31-2.68-1-3.81-.26-.42-.66-.72-1-1.12-1-1.33-.47-3.19-.11-4.81,1-4.38.49-9,0-13.42a9,9,0,0,0-.35-1.93c-.24-.74-.65-1.41-.93-2.14-.83-2.14-.45-4.53,0-6.8L99,33.38C101.1,28,98.09,25,96.71,22.17a9.85,9.85,0,0,0-.55-1.58.09.09,0,0,1,0-.05s0,0,0,0a16.28,16.28,0,0,0-1.63-2.76,46.34,46.34,0,0,0-5.87-6.42c-.18,1,.76,1.72,1.53,2.32a15.36,15.36,0,0,1,5.23,15.76.9.9,0,0,1-.29.52c-.42.29-.91-.25-1.13-.72l-3.19-6.6a16.77,16.77,0,0,0-2.45-4c-2.48-2.77-6.64-3.58-10.27-2.75a6.94,6.94,0,0,1-1.43.09,8,8,0,0,1-6-2.14A11.41,11.41,0,0,1,68,9.56c-.09-.25-.31-.57-.56-.46a10.36,10.36,0,0,0,2,4.55,18.25,18.25,0,0,1-4.06.8,10.21,10.21,0,0,0-2,.15,4.42,4.42,0,0,0,2.5.2c.67-.08,1.34-.19,2-.31a3.28,3.28,0,0,1,1.81,0,3.75,3.75,0,0,1,.84.54,8.66,8.66,0,0,0,3.21,1.67,5.56,5.56,0,0,0,1.52.14c-2.65.4-5.82,3.86-5.82,3.86-1,1.26-3.54,1.46-5.12,1.13l-4.52-.93A8.92,8.92,0,0,1,56,19.42a14,14,0,0,1-2.36-3,9.19,9.19,0,0,0-5.46-3.78,6.1,6.1,0,0,0-6.07,2.12c-1,1.34-1.3,3.14-2.5,4.3a1.1,1.1,0,0,1-.75.37,1.21,1.21,0,0,1-.65-.34,13.89,13.89,0,0,1-2.56-2.9.06.06,0,0,0,0-.1l-2.12-1c-.41-.19-.92-.55-1.41-.45-.65.12-.69.84-1,1.32a2.5,2.5,0,0,1-4.09.11c.56-.43,1-1.39.3-1.93a.75.75,0,0,0-1.11.23,1.73,1.73,0,0,0,.39,1.76,1.73,1.73,0,0,1-2.19-.47c.36-.4.65-1,.05-1.26a.32.32,0,0,0-.33.09A1.16,1.16,0,0,0,24,15.76h0a1.79,1.79,0,0,1-1.65.35,5.21,5.21,0,0,0-.57-.08,1,1,0,0,0-.64.27c-.17.14.21.15.31.07.31-.25,1.32.09,1.78,0a2.21,2.21,0,0,0,.86-.37l.05,0a1.36,1.36,0,0,0,.64.51,2.47,2.47,0,0,0,1.9-.16,2.91,2.91,0,0,0,.43.43,2.86,2.86,0,0,0,2.42.59A3.09,3.09,0,0,0,31.43,16c.11-.15.16-.36.26-.51.33-.47.62-.47,1.14-.34A6.63,6.63,0,0,1,35,16.34a2.46,2.46,0,0,0-.51-.15,1.25,1.25,0,0,0-.81.06,1.48,1.48,0,0,0-.59,1.54,3.89,3.89,0,0,1,0,1.76,2,2,0,0,1-2,1.1,18,18,0,0,1-2.39-.46,6.1,6.1,0,0,0-5.54,2s-.51,1-.23,1,1-.52,1-.52c1-2.06,3.85-2.28,6.08-1.75,1.18.28,2.74.54,3.34-.52s-.42-3,.73-3.64a1.4,1.4,0,0,1,1.65.54A10.13,10.13,0,0,1,36.59,19c.64,1.21,2.2,2.1,3.38,1.41,1-.6,1.18-2,1.57-3.08a6.22,6.22,0,0,1,5-4,6.14,6.14,0,0,1,3.47.62,5.31,5.31,0,0,0-5.4,2.65,3.78,3.78,0,0,0-.27,2.76,1.57,1.57,0,0,0-.21.28,3.57,3.57,0,0,0,.57,4.21l0,0a2.81,2.81,0,0,0,.68,3.1c.13.13.49,0,.36-.17A2.47,2.47,0,0,1,45,24c.7.43,1.81.65,2.31-.1.74-1.12-1.14-1.29-1.78-.94a2,2,0,0,0-.61.5,3,3,0,0,1-.69-1.1,3.2,3.2,0,0,1,.24-2.67,2.8,2.8,0,0,0,.56.81,2.57,2.57,0,0,0,3.39.38c1.1-1-.15-1.93-1.15-2.17a3.27,3.27,0,0,0-2.64.26,3.69,3.69,0,0,1,.68-3c1.46-2,4.87-2.79,6.43-.54a.21.21,0,0,0,.24,0c.12.14.24.29.35.44.66,1,1,2.18,1.72,3.15,1.55,2.13,4.37,2.84,7,3.34,2.93.56,6.17,1,8.69-.58a28.84,28.84,0,0,0,3.06-2.7,10.86,10.86,0,0,1,4.65-2.32A4.91,4.91,0,0,0,76.2,20.2a4.54,4.54,0,0,0,1.62,3.3c.14-.38-.13-.78-.35-1.12a4.27,4.27,0,0,1-.67-3.06,3.22,3.22,0,0,1,1.91-2.39c.18-.07.39-.15.44-.34,0,0,0,0,0,0a10.77,10.77,0,0,1,3,.2,11,11,0,0,1,7.55,6.1c.75,1.63,1.08,3.42,1.7,5.09a7,7,0,0,0,3.26,4.1l.49.28a5.84,5.84,0,0,1,1.38,3.91A16.3,16.3,0,0,0,97,40.43c.51,1.59,1.73,3.07,1.47,4.71a.59.59,0,0,1-.19.41c-.18.14-.43.06-.64,0A15.13,15.13,0,0,1,93,42.61a8.23,8.23,0,0,0-2.64-2c-1.2-.42-2.57-.1-3.75-.57-.86-.34-1.54-1.07-2.43-1.33S82,39.16,82.3,40c-.15.15.19.35.34.21s.15-.39.22-.58c.22-.62,1.12-.65,1.68-.31s1,.9,1.55,1.2c1.16.59,2.63-.06,3.84.42,1,.41,1.58,1.51,2.22,2.42a9.13,9.13,0,0,0,3.78,3.1,4.26,4.26,0,0,1,1.44.81A3.59,3.59,0,0,1,98,50c-.08,3.25,0,6.51,0,9.77l0,1.85a9.77,9.77,0,0,0,.06,1.08,3.89,3.89,0,0,1-.64-1.38,5,5,0,0,0-4.1-3.85,4.47,4.47,0,0,0-4.69,2.94,4,4,0,0,0,.24,2.93,4.24,4.24,0,0,0-.5.94,3.34,3.34,0,0,0,0,2.31,4.14,4.14,0,0,0,1.46,1.62,13.57,13.57,0,0,1,1.77,1.32,2.63,2.63,0,0,1,.87,2,1.63,1.63,0,0,1-.87,1.27c0-.26,0-.52,0-.77a1.86,1.86,0,0,0-.18-.94c-.46-.8-1.89-.44-2.11.46a1.81,1.81,0,0,0,1.47,2,1.67,1.67,0,0,0,.32,0,3.26,3.26,0,0,1,0,.33A2.52,2.52,0,0,1,89,75.55a2.06,2.06,0,0,0,2.16-1.09,3.49,3.49,0,0,0,.35-.95,2.29,2.29,0,0,0,2-3.09c-.66-1.78-3.15-2.19-4-3.86a2.63,2.63,0,0,1,0-2.38A3.6,3.6,0,0,0,91,65.29a2.07,2.07,0,0,0,1.18.13,1.73,1.73,0,0,0,1-2.47A2.3,2.3,0,0,0,90.46,62a3,3,0,0,0-1.11.72,3.2,3.2,0,0,1,.76-2.6,3.77,3.77,0,0,1,3.81-1,4.88,4.88,0,0,1,3,2.73,8.48,8.48,0,0,0,.56,1.13c.54.84.93,1.2,1.13,1.23a1.9,1.9,0,0,0,.3.44c.18.21.4.38.56.6a2.13,2.13,0,0,1,.32.76c.21.91,0,1.89.29,2.79.33,1.22,1.38,2.17,1.59,3.41s-.51,2.53-.88,3.78c-1,3.53.74,7.27.54,10.93l.56.88c-.14,2.94-.27,5.88-.41,8.83a2.83,2.83,0,0,0,0,.77,1.72,1.72,0,0,0,2.16,1.06,2.7,2.7,0,0,0,1.66-2A7.1,7.1,0,0,0,105.29,93.87Zm-81-78.42a.9.9,0,0,1,0-.56A.58.58,0,0,1,24.26,15.45Zm2.39.1c-.09-.2-.31-.76-.16-.94l.72.14a.87.87,0,0,1-.08.74,1.64,1.64,0,0,1-.26.43A2.26,2.26,0,0,1,26.65,15.55Zm18.76,7.9c.35-.43.67-.21,1,.67-.24.15-1-.21-1.18-.36l0,0A.76.76,0,0,1,45.41,23.45ZM45,19.17a3.41,3.41,0,0,1,3,.17l.33.31c.18.87-.09,1.31-.81,1.31a2.39,2.39,0,0,1-2.74-1.55C44.86,19.33,44.91,19.23,45,19.17ZM97.65,31.63a.79.79,0,0,1-.39-.57c-.68-2.27-.13-4.7-.25-7.06.92,2.46,2.16,5.21,1.58,6.85C98.43,31.28,98.07,31.8,97.65,31.63Zm-6.57,41.2c-.73,0-1.24-1.08-.72-1.6a2.47,2.47,0,0,1,.82,1.58Zm-.06-10a1.3,1.3,0,0,1,1.23.17,1.1,1.1,0,0,1-.5,1.74A1.84,1.84,0,0,1,89.84,64l-.11-.18A2.47,2.47,0,0,1,91,62.83Z"/><g class="cls-16"><path class="cls-17" d="M85.72,26a1,1,0,0,1-.09-.52.76.76,0,0,1,.79-.55,2.1,2.1,0,0,1,1,.34,2.88,2.88,0,0,0-.76-1.74c0,.09.13-.08.08-.17a4.27,4.27,0,0,0-4.27-2,5.67,5.67,0,0,0-3.93,2.82,3.73,3.73,0,0,1,3.15-.79,2.72,2.72,0,0,0,1.09.13,2.67,2.67,0,0,0,.61-.24,4.75,4.75,0,0,1,2.1-.48l-2,.84c-.07,0-.16.07-.18.15a.28.28,0,0,0,.11.26c.51.56,1,1.11,1.54,1.66A6.25,6.25,0,0,0,82.33,24a4.09,4.09,0,0,0-3,.14c.47.92,1.84.9,2.55,1.66a5.15,5.15,0,0,0,.68.79,2.4,2.4,0,0,0,1.23.28,4.3,4.3,0,0,1,2,.76,4.06,4.06,0,0,0-2.7-.35,13.37,13.37,0,0,1,3.18,2.82,34.44,34.44,0,0,1-3.81-2.75,3.19,3.19,0,0,0,.38,2.45,4.74,4.74,0,0,1-1-2.08,3.9,3.9,0,0,0-.13-.57,1.89,1.89,0,0,0-.28-.5A5.33,5.33,0,0,0,79.16,25a5.87,5.87,0,0,1,.17,2.13,3.92,3.92,0,0,0,0,1.08c.16,1,1.22,1.59,2.15,2s2,1,2.12,2l-1.43-1.08a5.09,5.09,0,0,1,.43,3.07c-.45-.43-.36-1.17-.52-1.78-.36-1.29-1.86-1.9-2.54-3s-.48-2.48-.78-3.69a5.66,5.66,0,0,1,.14,1.16,17.08,17.08,0,0,0,0,1.75A8.5,8.5,0,0,0,80.45,32a15.12,15.12,0,0,1,1.79,4.15c1.12-1.71,2.29-3.59,2.1-5.62l.89.82a.84.84,0,0,0,.21-.48A.42.42,0,0,0,86,30.7l.42,1A3.81,3.81,0,0,0,87,28.91,18.51,18.51,0,0,0,85.72,26Z"/></g><g class="cls-16"><path class="cls-17" d="M73.74,27.29a.2.2,0,0,0,0,.15c0,.11.18.13.29.16.44.13.55.68.59,1.13,0,.2,0,.39,0,.58.35-.56.7-1.12,1.06-1.67a2.12,2.12,0,0,0,.27-.57c0-.22,0-.43,0-.65.09-.57.62-1,1.1-1.29l.06-.3-1.6-.09a1.31,1.31,0,0,0-.76.12,1.14,1.14,0,0,0-.42.87,2.31,2.31,0,0,1-.22,1A4.21,4.21,0,0,0,73.74,27.29Z"/></g><g class="cls-16"><path class="cls-17" d="M75.67,30.14a.67.67,0,0,0,.16.67,1.66,1.66,0,0,0,.5.18c.56.21.71.9,1,1.44.61,1.35,2.09,2.06,3.44,2.66a2.72,2.72,0,0,0-.7-1.3A8.22,8.22,0,0,1,78,30c-.16-1.12.14-2.28-.11-3.39L77.74,26c-.43.36-.21,1.06-.32,1.61C77.23,28.66,75.92,29.14,75.67,30.14Z"/></g><path class="cls-10" d="M61,13.22c-.33.11-.8-.3-1,0a.45.45,0,0,0,0,.2,1.44,1.44,0,0,0,1.1,1.22c.56.18,1.17.18,1.73.36l0,0a5.13,5.13,0,0,0,4-1.53,5.32,5.32,0,0,0,.9-2.08,5.17,5.17,0,0,0,0-1.84c-.16-.6.44-1.13,1-1.36a3.62,3.62,0,0,0,1.64-.81,2.17,2.17,0,0,0,.34-.7,3.25,3.25,0,0,0-.1-2.49,4.24,4.24,0,0,0-.72-.92c-.42-.43-.83-.87-1.25-1.31a1.43,1.43,0,0,0,0,.82A3.3,3.3,0,0,1,68.08,2a.74.74,0,0,0-.06.36c0-.15-.3-.1-.37,0a.84.84,0,0,0,0,.47.47.47,0,0,1,0,.45.43.43,0,0,1-.57-.06A4.32,4.32,0,0,1,66.28,2C65.64.79,64.22.34,62.93,0a1.69,1.69,0,0,0,.33.53.38.38,0,0,0-.51.25.86.86,0,0,0,.1.64,2.28,2.28,0,0,1,.24.61.3.3,0,0,1,0,.19c-.1.13-.3,0-.44-.07A2.31,2.31,0,0,0,60.76,2c-.62.18-1.2.48-1.82.66a4.73,4.73,0,0,1-2.45,0,7.46,7.46,0,0,1,.91,2.84,3.83,3.83,0,0,0,1.44,2.54,4,4,0,0,1-.91,0,.66.66,0,0,1,0,.44l-1-.2a.25.25,0,0,0-.19,0c-.08.05-.08.16-.07.25a4.3,4.3,0,0,0,3.49,3.58,1.79,1.79,0,0,1,.88.28C61.29,12.66,61.31,13.12,61,13.22Z"/><g class="cls-16"><path class="cls-17" d="M61.34,12.13a.93.93,0,0,1,.37.28.69.69,0,0,1-.18.84,2,2,0,0,1-.85.37,2.64,2.64,0,0,0,1.55.68c-.08,0,0,.13,0,.15a3.77,3.77,0,0,0,4-1.29A5,5,0,0,0,67.12,9a3.34,3.34,0,0,1-1.58,2.41,2.47,2.47,0,0,0-.8.57,2.14,2.14,0,0,0-.25.53A4.2,4.2,0,0,1,63.4,14l.84-1.78a.26.26,0,0,0,0-.21A.24.24,0,0,0,64,12l-2-.16a5.6,5.6,0,0,0,2.69-.44,3.64,3.64,0,0,0,1.89-1.91c-.86-.31-1.75.52-2.66.45A5,5,0,0,0,63,9.78a2.23,2.23,0,0,0-1,.56,3.89,3.89,0,0,1-1.77.72,3.68,3.68,0,0,0,2-1.4,11.92,11.92,0,0,1-3.77.06,29,29,0,0,1,4.15-.48,2.8,2.8,0,0,0-1.72-1.37,4.19,4.19,0,0,1,1.88.76,2.47,2.47,0,0,0,.42.3,1.66,1.66,0,0,0,.49.16,4.69,4.69,0,0,0,2.51-.28,4.88,4.88,0,0,1-1.39-1.29,4.42,4.42,0,0,0-.62-.74c-.71-.57-1.75-.3-2.62,0A2.73,2.73,0,0,1,59,6.7l1.59-.15A4.46,4.46,0,0,1,58.43,4.8c.56,0,.94.55,1.41.85,1,.63,2.36.13,3.49.47s1.81,1.33,2.73,1.94a4.59,4.59,0,0,1-.79-.67,14.22,14.22,0,0,0-1-1.16A7.41,7.41,0,0,0,61.13,5a13.61,13.61,0,0,1-3.67-1.64c.3,1.79.67,3.72,2,4.94H58.39a.91.91,0,0,0,.16.45.37.37,0,0,0-.26.48l-.86-.39A3.37,3.37,0,0,0,58.76,11,16.32,16.32,0,0,0,61.34,12.13Z"/></g><g class="cls-16"><path class="cls-17" d="M68.37,4.06A.14.14,0,0,0,68.3,4c-.09-.06-.2,0-.29.07-.36.18-.77-.12-1.07-.39l-.37-.35c.1.58.21,1.15.31,1.72a1.62,1.62,0,0,0,.17.54c.1.17.25.29.35.45a1.92,1.92,0,0,1,.06,1.51l.14.24,1.1-.91a1.16,1.16,0,0,0,.43-.53,1,1,0,0,0-.25-.83,2,2,0,0,1-.45-.77A3.39,3.39,0,0,0,68.37,4.06Z"/></g><g class="cls-16"><path class="cls-17" d="M65.4,3.36A.59.59,0,0,0,64.89,3a1.51,1.51,0,0,0-.44.18c-.48.19-1-.16-1.48-.37a5.45,5.45,0,0,0-3.85.33,2.33,2.33,0,0,0,1.24.42A7.34,7.34,0,0,1,64,4.85c.78.64,1.28,1.58,2.11,2.15l.39.28c.06-.5-.5-.82-.76-1.24C65.27,5.26,65.84,4.16,65.4,3.36Z"/></g><path class="cls-18" d="M72.79,45.37a4.32,4.32,0,0,0-.33.5A2.41,2.41,0,0,0,72.79,45.37Z"/><g class="cls-16"><path class="cls-17" d="M79.44,50c.15.4.3.8.44,1.21a7.63,7.63,0,0,1,1-1.43,3.33,3.33,0,0,0-.84,1.1A1.28,1.28,0,0,0,79.44,50Z"/></g><g class="cls-16"><path class="cls-17" d="M76,47.65c.6-.84,1.71-1.29,2.08-2.25a15.35,15.35,0,0,1-.83,3.48,3.12,3.12,0,0,0,.81-1.62c.44.78.88,1.56,1.33,2.34-.29-.6-.58-1.2-.86-1.8a4,4,0,0,1-.38-1A2,2,0,0,1,79,44.87c.14-.09.36-.15.47,0a.56.56,0,0,1,.06.29c.06.33.38.54.58.81a2.21,2.21,0,0,1,.32,1.22,9.61,9.61,0,0,1-.25,2.67,10.69,10.69,0,0,0,.4-3.42,2.29,2.29,0,0,1,1,1.67,1.8,1.8,0,0,0-.32-1.46c-.28-.43-.66-.79-1-1.2a1.6,1.6,0,0,1-.36-.87.71.71,0,0,1,.52-.71c.44-.06.76.4,1.18.54.22.07.46,0,.67.14s.44.41.64.64.66.56,1,.87a1.32,1.32,0,0,1,.44,1.16,2.12,2.12,0,0,0-.52-1.74,6.46,6.46,0,0,0-1.46-1.18c.54.52,1.56-.41,2.13.06a.71.71,0,0,0-.62-.34,3.15,3.15,0,0,0-.74.11,3.76,3.76,0,0,1-2.2-.24c-.11,0-.22-.11-.25-.22a.39.39,0,0,1,0-.28,7,7,0,0,1,1-1.51l.08.06c.66.37,1.51.09,2.21.33a2.61,2.61,0,0,0-1.16-.38,1.81,1.81,0,0,1-.9-.16c-.44-.28-.41-.93-.32-1.45l-.51.37a2.56,2.56,0,0,0-.47-2.28,3.49,3.49,0,0,0-4.12-.61,10.1,10.1,0,0,0-3.28,3l1,.16a3.26,3.26,0,0,1-.49,1.93,6.56,6.56,0,0,1-.65.64c-1,1-1.09,2.52-1.15,3.91A3.81,3.81,0,0,1,73,46.74a4.17,4.17,0,0,1,.37,4.9,3.2,3.2,0,0,1,.27-.25,17.79,17.79,0,0,0,1.93-2.87A5.66,5.66,0,0,1,76,47.65Zm-2.24-7.37,1-.92a2.34,2.34,0,0,1,.66-.47,2.7,2.7,0,0,1,.49-.12l1.15-.18a1.24,1.24,0,0,1,1.1.17c.26.25.24.68.45,1a1.6,1.6,0,0,0,.72.49l-.69-1.42a1.09,1.09,0,0,0-.24-.35,1,1,0,0,0-.8-.12l-1.6.21a4.05,4.05,0,0,1,2.45-1,2.49,2.49,0,0,1,2.36,2.38,4.57,4.57,0,0,0,0,.91,1.18,1.18,0,0,1-.46.48,2.07,2.07,0,0,1-.51.19,3.29,3.29,0,0,1-2.12.11A7.13,7.13,0,0,0,79.14,41,3,3,0,0,1,76.55,41,11.84,11.84,0,0,0,79,40.7c-.82-.38-1.81.2-2.68,0-.41-.11-.78-.41-1.2-.41S74.13,40.58,73.77,40.28Zm.58,9.19a6.62,6.62,0,0,1,.64-2,4.5,4.5,0,0,0,.92-2L74.2,47.59A6,6,0,0,1,77,44.32c.19-.11.42-.24.43-.46a.43.43,0,0,0-.34-.4,1.33,1.33,0,0,0-.56,0l-1,.2a.94.94,0,0,0-1,.87,6.13,6.13,0,0,1-.84,1.77,18.63,18.63,0,0,1,.9-2.5,5.14,5.14,0,0,0-1.76,1.55A4.29,4.29,0,0,1,73.63,44a2.93,2.93,0,0,1,1.29-.52l1.63-.38a3.19,3.19,0,0,0-.92-.51c-.31-.18-.55-.62-.31-.87,0,.48.49.82,1,1a4.13,4.13,0,0,1,1.35.5,1,1,0,0,0,.24.17.53.53,0,0,0,.28,0c1.13-.09,2.33-1.68,2.33-1.68a1,1,0,0,1,.54-.52,6.41,6.41,0,0,1-2.54,2.91,3.84,3.84,0,0,0-1,.71,4.72,4.72,0,0,0-.41.68,15.31,15.31,0,0,1-1.73,2.21A5.16,5.16,0,0,0,74.35,49.47Z"/></g><g class="cls-16"><path class="cls-17" d="M85.57,44.7a3.58,3.58,0,0,0-.81-1.78,3.5,3.5,0,0,1,.26.51A4.86,4.86,0,0,1,84.31,48a1.91,1.91,0,0,0-.51-.85l-.27.3c-.16-.13-.41,0-.57.1a1,1,0,0,1-.54.32.88.88,0,0,0-.28,0A.33.33,0,0,0,82,48a7.47,7.47,0,0,1-.64,1.18,4.07,4.07,0,0,1-.43.49,7,7,0,0,1,1.3-1.13,2.26,2.26,0,0,1,1-.43,1,1,0,0,1,1,.5A5.24,5.24,0,0,0,85.57,44.7Z"/></g><g class="cls-16"><path class="cls-17" d="M74.89,50.57a7.13,7.13,0,0,1,1.28-.43,16.43,16.43,0,0,1,3.14-.25,2.68,2.68,0,0,0-1.06-.33A5.36,5.36,0,0,0,74.89,50.57Z"/></g><path class="cls-18" d="M84.76,42.92a1.7,1.7,0,0,0-.6-.62,1.17,1.17,0,0,0-.2,0A3,3,0,0,1,84.76,42.92Z"/><path class="cls-18" d="M73.23,51.88a12.42,12.42,0,0,1,1.66-1.31,5,5,0,0,0-1.29.82C73.48,51.55,73.36,51.72,73.23,51.88Z"/><path class="cls-18" d="M80.88,49.76l.05,0Z"/><path class="cls-18" d="M79.31,49.89l.13.09,0-.09Z"/><path class="cls-18" d="M74.35,49.47a3.35,3.35,0,0,0-.13.77C74.26,50,74.31,49.73,74.35,49.47Z"/><polygon class="cls-18" points="80.29 24.21 80.31 24.2 80.31 24.2 80.29 24.21"/><path class="cls-19" d="M82.79,6.53A1.3,1.3,0,0,0,83.17,6a3.3,3.3,0,0,0,.27-1,1.45,1.45,0,0,0-.21-1.14.7.7,0,0,0-1-.08l.18-.19A2,2,0,0,0,81.18,5a1.49,1.49,0,0,0,.29,1.38A1,1,0,0,0,82.79,6.53Z"/><path class="cls-19" d="M84.1,6.23a1,1,0,0,0,1.16-.05,1.71,1.71,0,0,0,.57-1.08,2,2,0,0,0-.26-1.55,1.19,1.19,0,0,0-1.41-.44l.29.06c-.29,0-.5.28-.62.55a2.64,2.64,0,0,0,0,2A1.11,1.11,0,0,0,84.1,6.23Z"/><path class="cls-19" d="M85.78,6.57a1.14,1.14,0,0,0,1,.84,1.34,1.34,0,0,0,1.15-.7,2.43,2.43,0,0,0,.27-2.08,1.09,1.09,0,0,0-.89-.82.92.92,0,0,0-.72.37,2.33,2.33,0,0,0-.2.34,4.39,4.39,0,0,0-.44.71A1.85,1.85,0,0,0,85.78,6.57Z"/><path class="cls-19" d="M83.26,9.65A1.47,1.47,0,0,0,83.51,9a5.13,5.13,0,0,0,.08-1.18A1.33,1.33,0,0,0,83.34,7a.8.8,0,0,0-.82-.27.83.83,0,0,0-.54.54,1.8,1.8,0,0,0-.37.5,2,2,0,0,0-.2,1.21,1.32,1.32,0,0,0,.72,1A1,1,0,0,0,83.26,9.65Z"/><path class="cls-19" d="M84,9.09a1.05,1.05,0,0,0,1.17.69,1.24,1.24,0,0,0,.7-1A4.45,4.45,0,0,0,86,7.69a1.58,1.58,0,0,0-.44-1.11.71.71,0,0,0-1.06.13l.3,0A1.91,1.91,0,0,0,84,9.09Z"/><path class="cls-19" d="M87.62,7.44l0,0c-.11-.15-.36-.08-.53,0a2.54,2.54,0,0,0-1,1.28,1.67,1.67,0,0,0,.31,1.58s.08,0,.12.07a1.11,1.11,0,0,0-.74.21.17.17,0,0,0-.12.1v0a1,1,0,0,0-.32.53l.09-.1a4.51,4.51,0,0,0-.29.72,1.85,1.85,0,0,0,.06,1.25,1.12,1.12,0,0,0,1,.67,1.45,1.45,0,0,0,1.11-.86,2.18,2.18,0,0,0,.3-1.45,1.46,1.46,0,0,0-.52-.87,1.33,1.33,0,0,0,1-.73,2.71,2.71,0,0,0,.25-2,.78.78,0,0,0-.2-.38A.61.61,0,0,0,87.62,7.44Z"/><path class="cls-19" d="M82.8,10.31a2.76,2.76,0,0,0-.53,1.81,1.6,1.6,0,0,0,1.13,1.41.89.89,0,0,0,.68-.07,1,1,0,0,0,.32-.38,2.73,2.73,0,0,0,.14-2.41,1.42,1.42,0,0,0-.42-.57.7.7,0,0,0-.68-.09l.16-.32A1.21,1.21,0,0,0,82.8,10.31Z"/><path class="cls-19" d="M84.56,14.06a3.42,3.42,0,0,0-.17,1.23,1.73,1.73,0,0,0,.48,1.13.82.82,0,0,0,.44.23.72.72,0,0,0,.6-.28,1.71,1.71,0,0,0,.28-.63,2.32,2.32,0,0,0,0-1.11,1.09,1.09,0,0,0-.71-.81.77.77,0,0,0-.69.14c0-.08-.08-.13-.15-.1A.28.28,0,0,0,84.56,14.06Z"/><path class="cls-19" d="M82.69,14a.49.49,0,0,1,.15-.1.5.5,0,0,1,.07-.08Z"/><path class="cls-19" d="M82.84,13.86a1.62,1.62,0,0,0-.45,2,.88.88,0,0,0,.69.54.81.81,0,0,0,.67-.44,1.79,1.79,0,0,0,.16-.83,1.49,1.49,0,0,0-.27-1A.69.69,0,0,0,82.84,13.86Z"/><path class="cls-19" d="M84.81,16.85a.64.64,0,0,0-.58.37,2,2,0,0,0-.18.71l0-.05a2.25,2.25,0,0,0,.14,1.41.53.53,0,0,0,.2.22c.24.16.58,0,.76-.24a1.93,1.93,0,0,0,.27-1.67C85.37,17.26,85.16,16.87,84.81,16.85Z"/><path class="cls-19" d="M87.17,19.4a1,1,0,0,0-1.32.75l.21-.17a3.21,3.21,0,0,0-.34,1.54,1.74,1.74,0,0,0,.9,1.43.89.89,0,0,0,.55.11,1.16,1.16,0,0,0,.8-.62,2.48,2.48,0,0,0,.26-1.79A1.69,1.69,0,0,0,87.17,19.4Z"/><path class="cls-19" d="M93.06,13.7a.61.61,0,0,0-.32-.08.41.41,0,0,0-.31.23A3.94,3.94,0,0,0,92.24,15a1.41,1.41,0,0,0,.27.92.65.65,0,0,0,.87.15.85.85,0,0,0,.27-.52A1.74,1.74,0,0,0,93.06,13.7Z"/><path class="cls-19" d="M92.42,13.86a1.39,1.39,0,0,0-.13.44Z"/><path class="cls-19" d="M92.42,13.86h0l0-.11Z"/><path class="cls-19" d="M92.34,3.45l.43-.79A1.58,1.58,0,0,0,92.34,3.45Z"/><polygon class="cls-19" points="92.33 3.46 92.34 3.45 92.34 3.45 92.33 3.46"/><path class="cls-19" d="M96.18,8.59a.76.76,0,0,0-.82.42,2.17,2.17,0,0,0-.18,1l-.12-1.13a1.92,1.92,0,0,0,.22,2,1,1,0,0,0,.83.41,1,1,0,0,0,.66-.6,1.83,1.83,0,0,0-.18-1.78A.9.9,0,0,0,96.18,8.59Z"/><path class="cls-19" d="M97.49,6.18a1.7,1.7,0,0,0-.35-.84.84.84,0,0,0-.82-.28,2.77,2.77,0,0,0,.07,2.72c.11.19.3.38.51.33a.51.51,0,0,0,.26-.2A2.29,2.29,0,0,0,97.49,6.18Z"/><path class="cls-19" d="M96.31,5.06h0Z"/><path class="cls-19" d="M94.37,10.77a.83.83,0,0,0-.44-.09l0,0a1.37,1.37,0,0,0,.4-.65,2.24,2.24,0,0,0,0-1.38A1.82,1.82,0,0,0,94,8a1,1,0,0,0,.94.18,1.06,1.06,0,0,0,.58-.68,2.38,2.38,0,0,0,0-.92,2.46,2.46,0,0,0-.49-1.29,1.28,1.28,0,0,0-.9-.46s0,0,0,0a2.29,2.29,0,0,0,0-1.55,1,1,0,0,0-.69-.68.86.86,0,0,0-.52.1,1.32,1.32,0,0,0-.66.75A1.72,1.72,0,0,0,92.68,5,1,1,0,0,0,94,5.23a.81.81,0,0,0,.17-.3h0a3.54,3.54,0,0,0-.62,1.35,2,2,0,0,0,.15,1.42,1.39,1.39,0,0,0,.15.19.8.8,0,0,0-.13-.13.87.87,0,0,0-1,.08l-.13-.23s0,0,0,0a1.57,1.57,0,0,0,.53-.93A1.46,1.46,0,0,0,91.71,5l.13-.24A4.38,4.38,0,0,0,91,6.45a1.69,1.69,0,0,0,0,.89,1.27,1.27,0,0,0-.31-.42.62.62,0,0,0-.16-.1,1.33,1.33,0,0,0,.37-.61,2.39,2.39,0,0,0,0-1.4,1.43,1.43,0,0,0-.8-.93A.86.86,0,0,0,89,4.27l.15-.37a4.52,4.52,0,0,0-.46,1.43,1.71,1.71,0,0,0,.44,1.39,1.17,1.17,0,0,0,.38.24,2.63,2.63,0,0,0-.68,2.25,1.64,1.64,0,0,0,.39.79.79.79,0,0,0-.51.15,1.54,1.54,0,0,0-.45.69A3.83,3.83,0,0,0,88,12.55a1.61,1.61,0,0,0,.33.83s0,0,0,0a.92.92,0,0,0-.82-.07l.31.35a.63.63,0,0,0-.19,0,1.8,1.8,0,0,0-.84,2.53.39.39,0,0,0-.17.11l.36.29A1.65,1.65,0,0,0,86.1,18a1,1,0,0,0,.28.9.77.77,0,0,0,.69.1,1.3,1.3,0,0,0,.56-.43,1.9,1.9,0,0,0,.3-1.63,1.2,1.2,0,0,0,.2,0,1.27,1.27,0,0,0,.63-.56,2.44,2.44,0,0,0,.31-1,2.12,2.12,0,0,0,.27.85.87.87,0,0,0,.08.1,1.44,1.44,0,0,0-.65.58l.5-.74c-.26-.06-.49.19-.63.41a2.33,2.33,0,0,0-.44,1.51,1,1,0,0,0,1.11.87,1.11,1.11,0,0,0,.54-.39,2,2,0,0,0,.41-1.43,1.15,1.15,0,0,0-.11-.39,1.22,1.22,0,0,0,.95-.66,2.12,2.12,0,0,0,.21-1.54,1.76,1.76,0,0,0-1-1.16l.24,0a.28.28,0,0,0-.3-.17.56.56,0,0,0-.34.15A2.1,2.1,0,0,0,89.08,15a2.43,2.43,0,0,0-.24-1,1.56,1.56,0,0,0-.23-.34,1,1,0,0,0,1-.13,2.35,2.35,0,0,0,.7-.86,3.26,3.26,0,0,0,.43-1.25,1.51,1.51,0,0,0-.37-1.12,1.41,1.41,0,0,0,.63-.5,2.3,2.3,0,0,0,.26-1.67,3.06,3.06,0,0,0-.15-.54.25.25,0,0,0,0,.07.89.89,0,0,0,.77.29,1.27,1.27,0,0,0,.69-.3,3.64,3.64,0,0,0-.86,1.56,1.53,1.53,0,0,0,0,1,1,1,0,0,0,.34.41,1.37,1.37,0,0,0-.63.56l.38-.59a1.17,1.17,0,0,0-.9.64,2.47,2.47,0,0,0-.06,2.33c.08.15.21.32.38.32a.52.52,0,0,0,.29-.11,4,4,0,0,0,1.61-2.25,1.16,1.16,0,0,0,0-.45.67.67,0,0,0-.06-.12,1.43,1.43,0,0,0,.55-.12c-.07,0-.16.05-.21.11l.26,0c-.45.2-.58.78-.63,1.28a2.49,2.49,0,0,0,.09,1.12,1,1,0,0,0,.84.66.92.92,0,0,0,.69-.37,1.77,1.77,0,0,0,.29-.74,2.82,2.82,0,0,0-.1-1.26A1.3,1.3,0,0,0,94.37,10.77Z"/><g class="cls-8"><path class="cls-20" d="M83.25,6.6a1.33,1.33,0,0,0,.38-.55,3.83,3.83,0,0,0,.27-1A1.48,1.48,0,0,0,83.68,4a.69.69,0,0,0-1-.09l.18-.18a2,2,0,0,0-1.2,1.35,1.54,1.54,0,0,0,.29,1.39A1,1,0,0,0,83.25,6.6Z"/><path class="cls-20" d="M84.55,6.3a1,1,0,0,0,1.16,0,1.8,1.8,0,0,0,.58-1.09A2,2,0,0,0,86,3.62a1.19,1.19,0,0,0-1.42-.44l.3.06c-.3,0-.51.28-.63.55a2.74,2.74,0,0,0,0,2A1.2,1.2,0,0,0,84.55,6.3Z"/><path class="cls-20" d="M86.23,6.64a1.17,1.17,0,0,0,1,.84,1.4,1.4,0,0,0,1.15-.7,2.46,2.46,0,0,0,.26-2.08,1.1,1.1,0,0,0-.88-.83.91.91,0,0,0-.72.38,1.45,1.45,0,0,0-.2.34,4,4,0,0,0-.45.7A2,2,0,0,0,86.23,6.64Z"/><path class="cls-20" d="M83.71,9.72A1.44,1.44,0,0,0,84,9.06a5.87,5.87,0,0,0,.09-1.18A1.5,1.5,0,0,0,83.8,7,.84.84,0,0,0,83,6.76a.78.78,0,0,0-.53.54,1.45,1.45,0,0,0-.38.5A2,2,0,0,0,81.87,9a1.27,1.27,0,0,0,.71,1A1,1,0,0,0,83.71,9.72Z"/><path class="cls-20" d="M84.47,9.16a1.07,1.07,0,0,0,1.18.69,1.24,1.24,0,0,0,.69-1,4,4,0,0,0,.08-1.09A1.52,1.52,0,0,0,86,6.65a.7.7,0,0,0-1,.13h.29A1.92,1.92,0,0,0,84.47,9.16Z"/><path class="cls-20" d="M88.08,7.5h0c-.11-.16-.36-.08-.52,0a2.41,2.41,0,0,0-1,1.28,1.62,1.62,0,0,0,.3,1.57.83.83,0,0,0,.12.08,1.11,1.11,0,0,0-.73.2.28.28,0,0,0-.13.11v0a1,1,0,0,0-.31.53l.09-.1a3.12,3.12,0,0,0-.29.71,1.76,1.76,0,0,0,.06,1.26,1.13,1.13,0,0,0,1,.67A1.5,1.5,0,0,0,87.77,13a2.34,2.34,0,0,0,.3-1.46,1.54,1.54,0,0,0-.52-.86,1.38,1.38,0,0,0,1-.74,2.65,2.65,0,0,0,.24-2,.87.87,0,0,0-.19-.37A.61.61,0,0,0,88.08,7.5Z"/><path class="cls-20" d="M83.25,10.37a2.76,2.76,0,0,0-.53,1.81,1.64,1.64,0,0,0,1.13,1.42.85.85,0,0,0,.68-.08,1,1,0,0,0,.32-.37A2.75,2.75,0,0,0,85,10.73a1.38,1.38,0,0,0-.42-.56.66.66,0,0,0-.67-.09l.15-.32A1.24,1.24,0,0,0,83.25,10.37Z"/><path class="cls-20" d="M85,14.12a3.49,3.49,0,0,0-.18,1.24,1.73,1.73,0,0,0,.48,1.12.83.83,0,0,0,.45.24.71.71,0,0,0,.59-.29,1.52,1.52,0,0,0,.28-.62,2.24,2.24,0,0,0,0-1.12,1.12,1.12,0,0,0-.71-.81.79.79,0,0,0-.68.14c0-.07-.09-.13-.16-.09S85,14.05,85,14.12Z"/><path class="cls-20" d="M83.15,14a.42.42,0,0,1,.14-.09s0-.06.08-.08Z"/><path class="cls-20" d="M83.29,13.93a1.65,1.65,0,0,0-.45,2,.89.89,0,0,0,.7.53.78.78,0,0,0,.67-.44,1.91,1.91,0,0,0,.16-.82,1.6,1.6,0,0,0-.27-1A.69.69,0,0,0,83.29,13.93Z"/><path class="cls-20" d="M85.26,16.92a.65.65,0,0,0-.58.37,2.11,2.11,0,0,0-.17.71l0-.06a2.25,2.25,0,0,0,.15,1.41.6.6,0,0,0,.19.23.64.64,0,0,0,.77-.25,1.94,1.94,0,0,0,.26-1.66C85.82,17.32,85.61,16.94,85.26,16.92Z"/><path class="cls-20" d="M87.62,19.47a1,1,0,0,0-1.32.75l.22-.17a3,3,0,0,0-.34,1.54,1.76,1.76,0,0,0,.9,1.43,1,1,0,0,0,.55.11,1.21,1.21,0,0,0,.79-.63,2.41,2.41,0,0,0,.26-1.78A1.65,1.65,0,0,0,87.62,19.47Z"/><path class="cls-20" d="M93.51,13.77a.49.49,0,0,0-.31-.09.42.42,0,0,0-.31.24,3.39,3.39,0,0,0-.19,1.18A1.36,1.36,0,0,0,93,16a.66.66,0,0,0,.87.15.89.89,0,0,0,.26-.52A1.72,1.72,0,0,0,93.51,13.77Z"/><path class="cls-20" d="M92.88,13.93a1.32,1.32,0,0,0-.13.44Z"/><path class="cls-20" d="M92.88,13.93h0a.53.53,0,0,1,0-.12Z"/><path class="cls-20" d="M92.79,3.52l.43-.8A1.69,1.69,0,0,0,92.79,3.52Z"/><polygon class="cls-20" points="92.79 3.53 92.79 3.52 92.79 3.52 92.79 3.53"/><path class="cls-20" d="M96.63,8.66a.73.73,0,0,0-.82.42,2.12,2.12,0,0,0-.18,1l-.11-1.13A1.93,1.93,0,0,0,95.74,11a.8.8,0,0,0,1.48-.19A1.82,1.82,0,0,0,97,9,.83.83,0,0,0,96.63,8.66Z"/><path class="cls-20" d="M97.94,6.24a1.61,1.61,0,0,0-.35-.84.81.81,0,0,0-.81-.27,2.75,2.75,0,0,0,.06,2.72c.11.19.3.38.52.33A.51.51,0,0,0,97.61,8,2.27,2.27,0,0,0,97.94,6.24Z"/><path class="cls-20" d="M96.76,5.13h0v0Z"/><path class="cls-20" d="M94.83,10.84a.75.75,0,0,0-.44-.09l0,0a1.51,1.51,0,0,0,.4-.65,2.35,2.35,0,0,0,0-1.39,1.68,1.68,0,0,0-.35-.59,1,1,0,0,0,.94.18A1.06,1.06,0,0,0,96,7.59a2.19,2.19,0,0,0,0-.92,2.41,2.41,0,0,0-.48-1.28,1.33,1.33,0,0,0-.91-.47l0,0a2.18,2.18,0,0,0,0-1.55A1,1,0,0,0,94,2.67a.82.82,0,0,0-.53.1,1.32,1.32,0,0,0-.66.75,1.7,1.7,0,0,0,.35,1.58,1,1,0,0,0,1.31.2.83.83,0,0,0,.18-.3h0a3.44,3.44,0,0,0-.61,1.35,1.93,1.93,0,0,0,.14,1.42,1,1,0,0,0,.16.19s-.08-.09-.14-.12a.87.87,0,0,0-1,.08l-.12-.24,0,0a1.58,1.58,0,0,0,.52-.94A1.45,1.45,0,0,0,92.16,5l.13-.24a4.67,4.67,0,0,0-.85,1.73,1.79,1.79,0,0,0,0,.89,1.45,1.45,0,0,0-.3-.43L91,6.88a1.4,1.4,0,0,0,.36-.61,2.28,2.28,0,0,0,0-1.39,1.47,1.47,0,0,0-.8-.94.86.86,0,0,0-1.08.39L89.56,4a4.32,4.32,0,0,0-.45,1.44,1.7,1.7,0,0,0,.43,1.39,1.14,1.14,0,0,0,.38.23,2.71,2.71,0,0,0-.68,2.26,1.67,1.67,0,0,0,.4.78.8.8,0,0,0-.52.16,1.66,1.66,0,0,0-.45.68,3.89,3.89,0,0,0-.24,1.72,1.6,1.6,0,0,0,.34.83l0,0a.92.92,0,0,0-.82-.08l.31.36a.38.38,0,0,0-.18,0,1.79,1.79,0,0,0-.85,2.52c-.06,0-.13.06-.17.12l.36.29a1.62,1.62,0,0,0-.82,1.43,1,1,0,0,0,.27.9.74.74,0,0,0,.69.1,1.21,1.21,0,0,0,.57-.43,1.89,1.89,0,0,0,.3-1.63.62.62,0,0,0,.19,0,1.23,1.23,0,0,0,.64-.57,2.35,2.35,0,0,0,.31-1,2,2,0,0,0,.26.85l.09.1a1.33,1.33,0,0,0-.65.57l.49-.73c-.26-.07-.49.18-.63.41a2.3,2.3,0,0,0-.44,1.5,1,1,0,0,0,1.12.87,1.07,1.07,0,0,0,.53-.39,2,2,0,0,0,.42-1.43,1.66,1.66,0,0,0-.11-.38,1.22,1.22,0,0,0,.94-.66,2.08,2.08,0,0,0,.21-1.54,1.73,1.73,0,0,0-1-1.16l.24,0a.3.3,0,0,0-.31-.18.74.74,0,0,0-.34.15,2.13,2.13,0,0,0-.8,1.53,2.24,2.24,0,0,0-.25-.95,1.59,1.59,0,0,0-.22-.35,1,1,0,0,0,1-.12,2.35,2.35,0,0,0,.7-.86,3,3,0,0,0,.43-1.25,1.46,1.46,0,0,0-.37-1.13,1.42,1.42,0,0,0,.64-.5,2.35,2.35,0,0,0,.26-1.67,2.76,2.76,0,0,0-.16-.54s0,.05,0,.07a.94.94,0,0,0,.78.3,1.35,1.35,0,0,0,.68-.3,3.86,3.86,0,0,0-.86,1.56,1.53,1.53,0,0,0,0,1,1.09,1.09,0,0,0,.34.4,1.48,1.48,0,0,0-.63.56l.38-.58a1.13,1.13,0,0,0-.89.64,2.41,2.41,0,0,0-.06,2.33.51.51,0,0,0,.38.32.5.5,0,0,0,.28-.12,4,4,0,0,0,1.61-2.25,1.09,1.09,0,0,0,.05-.44A.43.43,0,0,0,93.6,11a1.31,1.31,0,0,0,.55-.13c-.08,0-.17.05-.21.12l.26,0c-.46.2-.59.78-.63,1.27a2.48,2.48,0,0,0,.08,1.12,1,1,0,0,0,.84.66.89.89,0,0,0,.69-.37,1.6,1.6,0,0,0,.29-.74,2.83,2.83,0,0,0-.09-1.26A1.4,1.4,0,0,0,94.83,10.84Z"/></g><path class="cls-21" d="M84.17,7.3a1.37,1.37,0,0,0,.33-.49A3.1,3.1,0,0,0,84.74,6a1.28,1.28,0,0,0-.19-1,.61.61,0,0,0-.91-.08l.16-.16a1.78,1.78,0,0,0-1.06,1.19A1.35,1.35,0,0,0,83,7.15.92.92,0,0,0,84.17,7.3Z"/><path class="cls-21" d="M85.32,7a.84.84,0,0,0,1,0,1.56,1.56,0,0,0,.51-1,1.84,1.84,0,0,0-.23-1.36,1.06,1.06,0,0,0-1.25-.4l.26.06c-.27,0-.45.25-.56.49a2.38,2.38,0,0,0,0,1.78A1,1,0,0,0,85.32,7Z"/><path class="cls-21" d="M86.81,7.33a1,1,0,0,0,.87.74,1.21,1.21,0,0,0,1-.62,2.14,2.14,0,0,0,.23-1.84,1,1,0,0,0-.78-.73.83.83,0,0,0-.64.33,1.92,1.92,0,0,0-.18.31,4.33,4.33,0,0,0-.39.62A1.7,1.7,0,0,0,86.81,7.33Z"/><path class="cls-21" d="M84.57,10.06a1.26,1.26,0,0,0,.23-.59,4.51,4.51,0,0,0,.07-1,1.26,1.26,0,0,0-.22-.76.72.72,0,0,0-.73-.24.71.71,0,0,0-.47.48,1.35,1.35,0,0,0-.33.45,1.78,1.78,0,0,0-.18,1.06,1.17,1.17,0,0,0,.64.85A.85.85,0,0,0,84.57,10.06Z"/><path class="cls-21" d="M85.25,9.56a1,1,0,0,0,1,.61,1.09,1.09,0,0,0,.61-.89,3.46,3.46,0,0,0,.07-1,1.33,1.33,0,0,0-.39-1,.61.61,0,0,0-.93.11l.26,0A1.69,1.69,0,0,0,85.25,9.56Z"/><path class="cls-21" d="M88.44,8.1l0,0c-.09-.14-.32-.07-.46,0a2.11,2.11,0,0,0-.91,1.13,1.43,1.43,0,0,0,.27,1.39l.1.07a1,1,0,0,0-.65.18.24.24,0,0,0-.11.09v0a1,1,0,0,0-.28.47l.08-.09a3.86,3.86,0,0,0-.25.64,1.63,1.63,0,0,0,.05,1.11,1,1,0,0,0,.89.59,1.3,1.3,0,0,0,1-.76,2,2,0,0,0,.26-1.29A1.21,1.21,0,0,0,88,10.9a1.2,1.2,0,0,0,.92-.66,2.39,2.39,0,0,0,.22-1.74.8.8,0,0,0-.17-.33A.52.52,0,0,0,88.44,8.1Z"/><path class="cls-21" d="M84.17,10.63a2.46,2.46,0,0,0-.47,1.61,1.45,1.45,0,0,0,1,1.25.78.78,0,0,0,.6-.07.92.92,0,0,0,.29-.33A2.44,2.44,0,0,0,85.71,11a1.24,1.24,0,0,0-.37-.5.62.62,0,0,0-.6-.08l.14-.28A1.1,1.1,0,0,0,84.17,10.63Z"/><path class="cls-21" d="M85.73,14a3,3,0,0,0-.15,1.1A1.53,1.53,0,0,0,86,16a.71.71,0,0,0,.4.21.6.6,0,0,0,.52-.25,1.44,1.44,0,0,0,.25-.55,2.09,2.09,0,0,0,0-1,1,1,0,0,0-.63-.72.73.73,0,0,0-.61.12c0-.06-.08-.11-.14-.08A.26.26,0,0,0,85.73,14Z"/><path class="cls-21" d="M84.08,13.86a.32.32,0,0,1,.12-.08s0,0,.07-.07Z"/><path class="cls-21" d="M84.2,13.78a1.46,1.46,0,0,0-.39,1.73.77.77,0,0,0,.61.47.67.67,0,0,0,.59-.39,1.65,1.65,0,0,0,.15-.73,1.36,1.36,0,0,0-.24-.91A.61.61,0,0,0,84.2,13.78Z"/><path class="cls-21" d="M86,16.43a.58.58,0,0,0-.52.33,1.88,1.88,0,0,0-.15.62l0,0a1.94,1.94,0,0,0,.13,1.24.46.46,0,0,0,.85,0,1.72,1.72,0,0,0,.24-1.48C86.44,16.78,86.26,16.45,86,16.43Z"/><path class="cls-21" d="M88,18.68a.93.93,0,0,0-1.17.67l.19-.15a2.71,2.71,0,0,0-.3,1.36,1.56,1.56,0,0,0,.79,1.27.92.92,0,0,0,.49.09,1,1,0,0,0,.7-.55A2.18,2.18,0,0,0,89,19.79,1.52,1.52,0,0,0,88,18.68Z"/><path class="cls-21" d="M93.25,13.64a.46.46,0,0,0-.28-.08.38.38,0,0,0-.27.21,3.12,3.12,0,0,0-.17,1.05,1.22,1.22,0,0,0,.24.81.59.59,0,0,0,.77.14.78.78,0,0,0,.23-.47A1.52,1.52,0,0,0,93.25,13.64Z"/><path class="cls-21" d="M92.69,13.78a1.36,1.36,0,0,0-.12.39Z"/><path class="cls-21" d="M92.69,13.78h0s0-.07,0-.1Z"/><path class="cls-21" d="M92.61,4.57,93,3.86A1.39,1.39,0,0,0,92.61,4.57Z"/><polygon class="cls-21" points="92.61 4.58 92.61 4.57 92.61 4.57 92.61 4.58"/><path class="cls-21" d="M96,9.12a.66.66,0,0,0-.73.37,1.93,1.93,0,0,0-.15.86l-.11-1a1.7,1.7,0,0,0,.2,1.81A.72.72,0,0,0,96.54,11a1.63,1.63,0,0,0-.17-1.58A.79.79,0,0,0,96,9.12Z"/><path class="cls-21" d="M97.17,7a1.4,1.4,0,0,0-.31-.74A.72.72,0,0,0,96.14,6,2.46,2.46,0,0,0,96.2,8.4c.1.16.27.34.45.29a.41.41,0,0,0,.23-.18A2,2,0,0,0,97.17,7Z"/><path class="cls-21" d="M96.13,6h0Z"/><path class="cls-21" d="M94.41,11.05A.64.64,0,0,0,94,11l0,0a1.3,1.3,0,0,0,.35-.57,2.06,2.06,0,0,0,0-1.23,1.48,1.48,0,0,0-.31-.53.84.84,0,0,0,.83.16,1,1,0,0,0,.51-.61,1.85,1.85,0,0,0,.05-.81,2.18,2.18,0,0,0-.43-1.14,1.16,1.16,0,0,0-.8-.41v0a2,2,0,0,0,0-1.37.89.89,0,0,0-.61-.61.81.81,0,0,0-.46.09,1.21,1.21,0,0,0-.59.67A1.5,1.5,0,0,0,92.92,6a.85.85,0,0,0,1.16.17.71.71,0,0,0,.16-.26h0a3.13,3.13,0,0,0-.55,1.2,1.74,1.74,0,0,0,.13,1.25A.79.79,0,0,0,94,8.5a1.31,1.31,0,0,0-.12-.11.77.77,0,0,0-.89.07l-.11-.21,0,0a1.42,1.42,0,0,0,.47-.83A1.3,1.3,0,0,0,92.06,5.9l.11-.21a4.05,4.05,0,0,0-.75,1.53,1.52,1.52,0,0,0,0,.79,1.11,1.11,0,0,0-.27-.37A.42.42,0,0,0,91,7.55,1.2,1.2,0,0,0,91.31,7a2.1,2.1,0,0,0,0-1.24,1.34,1.34,0,0,0-.71-.83.77.77,0,0,0-1,.35L89.76,5a3.86,3.86,0,0,0-.41,1.27,1.52,1.52,0,0,0,.39,1.23,1,1,0,0,0,.33.21,2.35,2.35,0,0,0-.6,2,1.5,1.5,0,0,0,.35.7.67.67,0,0,0-.45.14,1.44,1.44,0,0,0-.4.6,3.29,3.29,0,0,0-.21,1.52,1.41,1.41,0,0,0,.29.74l0,0a.82.82,0,0,0-.73-.07l.28.32a.22.22,0,0,0-.16,0,1.57,1.57,0,0,0-.75,2.23s-.12,0-.15.1l.32.26a1.43,1.43,0,0,0-.74,1.27.89.89,0,0,0,.25.79.63.63,0,0,0,.61.09,1,1,0,0,0,.5-.38,1.68,1.68,0,0,0,.27-1.44l.17,0a1.09,1.09,0,0,0,.56-.5,2.1,2.1,0,0,0,.27-.87,1.84,1.84,0,0,0,.24.75L90,16a1.24,1.24,0,0,0-.57.5l.43-.64c-.23-.07-.42.16-.55.36A2,2,0,0,0,89,17.53a.87.87,0,0,0,1,.77,1,1,0,0,0,.47-.35,1.78,1.78,0,0,0,.37-1.26,1,1,0,0,0-.1-.34,1,1,0,0,0,.83-.59,1.85,1.85,0,0,0,.19-1.36,1.51,1.51,0,0,0-.9-1l.21,0a.24.24,0,0,0-.26-.16.62.62,0,0,0-.31.14,1.88,1.88,0,0,0-.71,1.35,2.31,2.31,0,0,0-.21-.85,3.13,3.13,0,0,0-.2-.3.92.92,0,0,0,.86-.11,2.1,2.1,0,0,0,.62-.76,2.72,2.72,0,0,0,.38-1.11,1.28,1.28,0,0,0-.33-1,1.24,1.24,0,0,0,.56-.45,2,2,0,0,0,.23-1.47,1.89,1.89,0,0,0-.13-.48l0,.06a.85.85,0,0,0,.69.26,1.2,1.2,0,0,0,.61-.27,3.27,3.27,0,0,0-.76,1.39,1.3,1.3,0,0,0,0,.85.83.83,0,0,0,.31.36,1.29,1.29,0,0,0-.56.5l.33-.52a1,1,0,0,0-.79.57,2.15,2.15,0,0,0-.05,2.06c.07.13.18.28.33.28a.52.52,0,0,0,.26-.1,3.58,3.58,0,0,0,1.42-2,.87.87,0,0,0,0-.39.36.36,0,0,0,0-.11,1.13,1.13,0,0,0,.48-.11c-.06,0-.14,0-.18.1l.23,0c-.41.18-.52.69-.56,1.13a2.19,2.19,0,0,0,.08,1,.84.84,0,0,0,.74.59.8.8,0,0,0,.61-.33,1.4,1.4,0,0,0,.25-.66,2.46,2.46,0,0,0-.08-1.11A1.11,1.11,0,0,0,94.41,11.05Z"/><g class="cls-22"><path class="cls-15" d="M77.48,59.32c1-1.12,2.91.17,3.86-1-1.2.07-2,0-3.28.14a.66.66,0,0,0-.33.12l-1.67,1.14c-.31.21-.66.47-.7.85,1.13-.83,2.39-.8,4-1.07C78.7,59.14,78.09,59.7,77.48,59.32Z"/><path class="cls-15" d="M84.59,51.09l-.39.35a1.51,1.51,0,0,0-1.3.23,1.45,1.45,0,0,0,1.15.35A.71.71,0,0,0,84.59,51.09Z"/><path class="cls-15" d="M78.83,68.28c1.44-.2,3.26,0,4.7-.16-.06-.54-.74-.42-1.28-.38a20.14,20.14,0,0,1-2.82,0,2.61,2.61,0,0,0-1.83.42c.44.29,2.41.53,2.85.82-1.35.26-3.91-.37-4.71.38,2.61-.2,9.42.36,7.08-.55A22.37,22.37,0,0,1,78.83,68.28Z"/><path class="cls-15" d="M78.47,79.11c1-.07,1.85.78,2.83.54A3.7,3.7,0,0,0,83.74,78a.53.53,0,0,0,.09-.34c0-.31-.44-.41-.74-.35a1.93,1.93,0,0,1-.91.14s-6.79.62-10.57,1.34C73.69,79.45,76.3,79.26,78.47,79.11Z"/><path class="cls-15" d="M58.76,85.59c0-.43.56-.58,1-.61A90.73,90.73,0,0,0,73,83c-4.53-1-9.45,1.86-13.76.16l-.15-.08A19.87,19.87,0,0,0,56.55,86a.52.52,0,0,0-.14.39c.05.24.37.3.61.3,3.59,0,7.18-.13,10.77-.38a2.69,2.69,0,0,0-1.81-.5Z"/><path class="cls-15" d="M87.56,95.61a2.77,2.77,0,0,0-1.5-.5l-.2,0-9.21.33a9.62,9.62,0,0,0-2.83.38c1.73,1.27,4.36,0,6.23,1.05a6.28,6.28,0,0,1-3.45.35,35.62,35.62,0,0,0-7,.21c-.14.43.48.65.93.65A149,149,0,0,0,87,97.17a1.38,1.38,0,0,0,.59-.17A.93.93,0,0,0,87.56,95.61Z"/><path class="cls-15" d="M44.17,97.51c-.22.09-.48.25-.45.49s.37.34.63.35a44.87,44.87,0,0,0,11.9-1.09q-6-.18-12,.21Z"/><path class="cls-15" d="M48.2,95.44a.78.78,0,0,0-.49.34c.13.39.63.47,1,.48l3.66.1c.33,0,.77-.09.78-.42C51.47,95.84,48.2,95.44,48.2,95.44Z"/></g><path class="cls-23" d="M67.48,28.78A5.46,5.46,0,0,0,64.88,26a3.42,3.42,0,0,0-2.14-.38,2.19,2.19,0,0,1,1.59.62c.11.1.17.34,0,.36l.56.2a.3.3,0,0,1-.12.29,2.22,2.22,0,0,1,.72.48.41.41,0,0,0-.24.21l1,.5a1.7,1.7,0,0,1-.76.18l1.25,1a2.67,2.67,0,0,1-1.09,0l.89,1.12a1.43,1.43,0,0,1-1-.06,4.44,4.44,0,0,1,1,1.46,2.15,2.15,0,0,0-1-.46L66,32.8l-.6-.45a.37.37,0,0,0-.28-.1c-.19,0-.19.33-.11.51s.2.41.08.56l-.65-.4a1.47,1.47,0,0,0-.14.9L63.75,33c-.08.43-.16.85-.23,1.28l-.3-1.18a3.35,3.35,0,0,0-.53,1.07c0-.48-.07-1-.1-1.45l-.76,1a2,2,0,0,1-.26-.93,3.59,3.59,0,0,1-.94.84c0-.36.09-.72.14-1.08a4.27,4.27,0,0,1-1,.7c.09-.43.17-.85.26-1.27a3.52,3.52,0,0,1-1,.65l.47-.95a2.38,2.38,0,0,1-.74.15l.21-.61a1,1,0,0,0-.55,0,1.47,1.47,0,0,1,.32-.77l-.52-.15c.09-.19.17-.37.26-.55a.15.15,0,0,1-.16-.18c0-.46,0-.93,0-1.4h-.07a5.5,5.5,0,0,0,1.43,6.06,5.12,5.12,0,0,0,6.15.34,4.8,4.8,0,0,0,1.64-2.06A5.07,5.07,0,0,0,67.48,28.78Z"/></g></g></svg>