<svg xmlns="http://www.w3.org/2000/svg" viewBox="0 0 144.99 78.93"><defs><style>.cls-1{fill:#51872e;}.cls-2{opacity:0.5;}.cls-3{fill:#31591f;}.cls-4{opacity:0.3;}.cls-5{fill:#d9e021;}.cls-6{fill:#542c12;}.cls-7{fill:#4d4487;}.cls-8{fill:#5e428c;}.cls-9{fill:#715399;}.cls-10{fill:#191144;}.cls-11{opacity:0.4;}.cls-12{fill:#965ead;}.cls-13{fill:#7a41a3;}.cls-14{fill:#c159ad;}.cls-15{fill:#662d91;}.cls-16{opacity:0.2;}.cls-17{fill:#f9d006;}.cls-18{fill:#fff;}.cls-19{opacity:0.7;}.cls-20{fill:#72166a;}.cls-21{fill:#4f1246;}.cls-22{fill:#9b5729;}</style></defs><g id="Layer_2" data-name="Layer 2"><g id="_ÎÓÈ_1" data-name="—ÎÓÈ_1"><path class="cls-1" d="M65.05,37.65s0,.05,0,.08a.65.65,0,0,0,0,.13Z"/><path class="cls-1" d="M68.18,42.2c-.48-1-1.56-1.42-2.26-2.21a3.42,3.42,0,0,1-.86-2.26,1.38,1.38,0,0,1,.17-1.22,9,9,0,0,0,.77-1.2,2.18,2.18,0,0,0-.19-1.86,3.8,3.8,0,0,0-1.37-1.33,6.07,6.07,0,0,0-4.6-.66c-.06,0-.14,0-.16.1a.09.09,0,0,0,.06.11l-.41.11,0,.33-.29.14a.53.53,0,0,1,0,.66,1.09,1.09,0,0,1,.36.66l-.35-.11a3.62,3.62,0,0,0-1.86-.25,3.52,3.52,0,0,0-1.06.49l-2.67,1.62a.33.33,0,0,1-.35.39c.21.1.42.2.62.31l-.26.21a.55.55,0,0,0,.35.33.61.61,0,0,0,.23.68,1.72,1.72,0,0,0,.7.28c-.27.45-.94.36-1.4.6a2.19,2.19,0,0,0-.83,1.39,11.7,11.7,0,0,1-2.24,4.13.59.59,0,0,1,.63.09c.18.14.32.33.5.47a2.78,2.78,0,0,0,1.11.35,5.81,5.81,0,0,1,2.22.93,2.59,2.59,0,0,0,3.59.06,5.79,5.79,0,0,0,.23,3.37c.09.24.16.58-.08.68a21.6,21.6,0,0,0,3-1.9.33.33,0,0,1,.2.2c.54.12,1.1-.77,1.53-.41a.64.64,0,0,1,.18.32,3.71,3.71,0,0,1,0,2.14.94.94,0,0,1,1-.21,27.85,27.85,0,0,0,2.69-2.52c-.07,0,0,.17.1.16s.14-.09.19-.16a7.74,7.74,0,0,0,.8-2.2A4.17,4.17,0,0,0,68.18,42.2Z"/><g class="cls-2"><path class="cls-3" d="M67.4,42.5a2.84,2.84,0,0,0-.39-.7,8.38,8.38,0,0,0-2-2,.25.25,0,0,0-.15-.06c-.1,0-.15.14-.17.25a4.68,4.68,0,0,0,.45,2.28,8.29,8.29,0,0,1,.88,4,4.35,4.35,0,0,0-.72-2.18,9.32,9.32,0,0,1-.6,3.54c.06-.83.12-1.66.19-2.48A8.34,8.34,0,0,1,65,44a3.07,3.07,0,0,0,.07-.53,3,3,0,0,0-.41-1.12,3.78,3.78,0,0,1-.17-2.65,6.31,6.31,0,0,0-2.64,3.2c-.74,1.49-1.49,3-2.23,4.45a11.57,11.57,0,0,1,1.25-3.28l.9-1.8a6.69,6.69,0,0,1,1.12-1.75,7.28,7.28,0,0,1,1-.8,1,1,0,0,0-.69-.1l-2.17.22a2.35,2.35,0,0,0-.65.13,2,2,0,0,0-.63.42,2.55,2.55,0,0,0-.85,1,3.27,3.27,0,0,0-.15.69,4.68,4.68,0,0,1-.8,1.88l.6-2.47a1.27,1.27,0,0,1,.24-.56c.19-.23.53-.3.69-.56a5.33,5.33,0,0,0-1.71,1.1,4.62,4.62,0,0,1-1,.86,3,3,0,0,1-.66.23,12.59,12.59,0,0,1-4.19.32c.81-.24,1.68-.19,2.51-.35.33-.07.65-.17,1-.26a4.22,4.22,0,0,0,1.78-.89,3.65,3.65,0,0,0-1.75-.26,1.86,1.86,0,0,1-1.58-.66c1,.55,2.21,0,3.23.46a.92.92,0,0,0,.39.11.74.74,0,0,0,.37-.17,7.39,7.39,0,0,1,2.15-1.09c1.14-.31,2.38-.13,3.48-.56a10.84,10.84,0,0,0-1.76-.54l.74.27c-1.69-.64-3.61-.11-5.38-.47-.38-.08-.75-.19-1.14-.24a3,3,0,0,0-2.81,1.38,9,9,0,0,0-.71,1.85A2.86,2.86,0,0,1,51.39,43c.74,1.07,2.47.82,3.46,1.67.29.24.52.58.88.69a1.53,1.53,0,0,0,.87-.07,10.82,10.82,0,0,0,1.71-.67,1.18,1.18,0,0,1,.49-.16.38.38,0,0,1,.38.29.58.58,0,0,1-.09.3,4.07,4.07,0,0,0,0,3.54l1.61-1.22a4.85,4.85,0,0,0,.89-.8c.32-.41.52-.93,1-1.19a.45.45,0,0,1,.42-.05.77.77,0,0,1,.17.19A5.32,5.32,0,0,1,64,49l2-1.82a4.89,4.89,0,0,0,.84-.86,5,5,0,0,0,.64-2.68A3.09,3.09,0,0,0,67.4,42.5Z"/></g><g class="cls-4"><path class="cls-5" d="M65.36,36a2.64,2.64,0,0,0,0-2.66,3.69,3.69,0,0,0-2.21-1.6,6.36,6.36,0,0,0-2.78,0l0,.37-.4,0A2.34,2.34,0,0,0,60,33.45a.51.51,0,0,1,.06.36.33.33,0,0,1-.38.18,1.36,1.36,0,0,1-.43-.18,2.67,2.67,0,0,0-2-.14,4.74,4.74,0,0,0-1.78,1.08,4,4,0,0,1-.61.5,2.73,2.73,0,0,1-.61.26.42.42,0,0,1,.39.35.43.43,0,0,1-.27.45l.52.34.5.32a7.42,7.42,0,0,0,1.43.66,6.71,6.71,0,0,0,1.94.35c.69,0,1.38-.06,2.08,0a13,13,0,0,1,2.14.33,10,10,0,0,0-3.09-1.35,4.36,4.36,0,0,1-1.19-.38c-.19-.12-.36-.26-.55-.37-.67-.36-1.51-.18-2.22-.44a5.12,5.12,0,0,1,2.92.59c.24.12.61.23.72,0s0-.32-.14-.45c-.34-.47-.7-.92-1.06-1.37a1.85,1.85,0,0,1,1.41,1.17,2.41,2.41,0,0,0,.2.53,1.37,1.37,0,0,0,.54.47c.9.5,2,.68,2.65,1.52a3.91,3.91,0,0,1,.11-1.27,2.54,2.54,0,0,0,.13-.72,1.92,1.92,0,0,0-.14-.62,4.22,4.22,0,0,0-.79-1.42c-.28-.31-.62-.55-.9-.86a1.33,1.33,0,0,1-.39-1.12c.29,1,1.6,1.36,1.91,2.34a1.57,1.57,0,0,0-.31-2.09,1,1,0,0,1,.91.61,1.46,1.46,0,0,1-.05,1.14,2.1,2.1,0,0,0-.19.53,2.81,2.81,0,0,0,.23.87,2.41,2.41,0,0,1-.08,1.19,2.23,2.23,0,0,0,0,1.2.82.82,0,0,0,.92.59l0,0a2.29,2.29,0,0,1,0-1C64.56,36.9,65.05,36.52,65.36,36Z"/></g><path class="cls-6" d="M81.48,38.47c-.42.2-.53.75-.79,1.14a1.52,1.52,0,0,1-1.43.67,1.36,1.36,0,0,1-.51-.18,1.34,1.34,0,0,0,.14-1.48.65.65,0,0,0-.54-.34.64.64,0,0,0-.5.37A1.24,1.24,0,0,0,78,39.92a1.07,1.07,0,0,0,.14.16,2.13,2.13,0,0,1-1.84.32,2.17,2.17,0,0,1-.35-.15,1.79,1.79,0,0,0-.1-2.23,1.07,1.07,0,0,0-1.25-.23,1,1,0,0,0-.4.62,1.77,1.77,0,0,0,.59,1.7,1.59,1.59,0,0,0,.21.15,2.21,2.21,0,0,1-.76.17A2.34,2.34,0,0,1,72.8,40a2.59,2.59,0,0,1-.66-.81,7.13,7.13,0,0,1-.6-2.37l-.27-2a1.71,1.71,0,0,1,.1-1.12c.13-.22.36-.49.19-.68s-.44,0-.61.17a17.32,17.32,0,0,0,2.45-3.33.24.24,0,0,0,0-.2c0-.13-.19-.16-.33-.15l-1.24,0a3,3,0,0,0-.6.05,1.91,1.91,0,0,0-1.2,1.06,4.43,4.43,0,0,0-.31.91,4.6,4.6,0,0,0-.34,1.58,9.25,9.25,0,0,1-.91,3.16,4.74,4.74,0,0,1-1.14,1.58,2.44,2.44,0,0,1-1.79.65.5.5,0,0,0-.38.07.28.28,0,0,0,.08.39.74.74,0,0,0,.44.07,4,4,0,0,0,3.37-2.42c-.62,1.55.45,3.27.35,4.94a.58.58,0,0,1-.13.41c-.18.17-.47.09-.7,0a3.58,3.58,0,0,0-3.37.38c.37.2.8,0,1.19-.18a3,3,0,0,1,2.45.13c.25.12.5.35.44.62a.55.55,0,0,1-.19.29c-.88.86-2.36,1.18-2.75,2.34.19.12.44,0,.63-.14a7,7,0,0,0,2.82-2.77c.58.2.82.88,1,1.48.28,1.06.56,2.12.83,3.18a3.51,3.51,0,0,0-.05-2.57,9.69,9.69,0,0,0-1.32-2.26,2.15,2.15,0,0,1,1.64.41,12.17,12.17,0,0,1,2,1.48,3.14,3.14,0,0,0,1.35.88A9.79,9.79,0,0,0,71,42.13a1.29,1.29,0,0,1-.49-.26,1.26,1.26,0,0,1-.26-.53c-.14-.42-.27-.84-.4-1.26a6.73,6.73,0,0,1-.34-1.46,5,5,0,0,1,.08-1.28,19.82,19.82,0,0,1,.8-3.34c.13.88.16,1.77.26,2.65a7.56,7.56,0,0,0,.7,2.56A3.55,3.55,0,0,0,73.32,41a2.42,2.42,0,0,0,2.28-.36,3.78,3.78,0,0,0,.88.22,2.68,2.68,0,0,0,2-.39l0,0a2.09,2.09,0,0,0,.58.24A2.19,2.19,0,0,0,81,40.28,1.62,1.62,0,0,0,81.48,38.47Zm-6.58-.08a.39.39,0,0,1,.15,0,.91.91,0,0,1,.61,1.31,1.12,1.12,0,0,1-.19.24,2,2,0,0,1-.65-1.23C74.81,38.58,74.81,38.45,74.9,38.39Zm3.13.9a.51.51,0,0,1,0-.4c.14-.24.56-.11.64.15a.83.83,0,0,1-.24.76l0,0A1.55,1.55,0,0,1,78,39.29Z"/><path class="cls-7" d="M81.77,54.76a2.91,2.91,0,0,0,1.94-1.52c.77-2.2.21-4.9-2.26-5.57.27-2.74-2.56-7.13-6.64-4.22-1,.58-.71,1.94-.6,2.91a4,4,0,0,0-1.69-1.57,3.15,3.15,0,0,0-4.16,2.82,6.92,6.92,0,0,0-.1,1.75,2.7,2.7,0,0,0-.39-.27c.62-1.38,0-4,0-4a2,2,0,0,0-2.47-1.29,2.13,2.13,0,0,0-.19-2.24c.06-1.4-3.61-1.12-4.57-.64-1.64.81-3.22,2.65-2.53,4.49-2.45,1.5-3.43,6.49-.78,8.12-1.15,2.08-.84,6,1.59,6.55-2,2.3.1,7.32,3.93,5.68a3.18,3.18,0,0,0,1.9-3.57,3.25,3.25,0,0,0,.42.41,5.81,5.81,0,0,0-.7,2.85,2.79,2.79,0,0,0-.35.11c-2.66.52-3,9.24,2.15,8.83a3,3,0,0,0,.81-.22c-.73,1.85-.39,4.07,1.87,4.64,3.07.76,4.85-2.58,4.52-5a4.37,4.37,0,0,0,1.77-.21,3.46,3.46,0,0,0,2.4-3.7c2.56.32,3.58-5.08,2.12-7.34a3.25,3.25,0,0,0,2.72-.36C85.5,60.46,84.17,56.28,81.77,54.76ZM70.45,71.46a2.68,2.68,0,0,0-1.52.39,6.1,6.1,0,0,0,.17-1.72A4.59,4.59,0,0,0,70,69.7a6.22,6.22,0,0,0,.49,1.76Z"/><path class="cls-8" d="M60.86,47.47c2-.24,3.82-2.29,4.36-4.08l-.2.93c.65-.34.86-1.74.63-2.38a2.53,2.53,0,0,0-2.44-1.3,5.06,5.06,0,0,0-4.81,2.88C57.73,45.2,58.77,47.71,60.86,47.47Z"/><path class="cls-8" d="M71.62,52.57c2.41.12,3.45-1.72,3.42-3.63a3.46,3.46,0,0,0,3.55,1.28c2.14-.46,2.86-2.67,2.31-4.57a3.8,3.8,0,0,0-4.57-2.94c-.84.51-1.66.9-2,1.95a4.49,4.49,0,0,0-.17,1.49A2.84,2.84,0,0,0,72,44.92C68.67,43.51,66.09,52.28,71.62,52.57Z"/><path class="cls-9" d="M76.28,42.71h0l.21-.13Z"/><path class="cls-8" d="M83.73,57.46c-.9-1.94-2.52-3.52-4.29-2.66l.12-.09c-1.94-.51-2.47,3-2.26,4.22a4.1,4.1,0,0,0,4.34,3.22C83.59,61.87,84.49,59.08,83.73,57.46Z"/><path class="cls-8" d="M69.31,69.39c2-.62,2.44-3.17,2.09-5a3.91,3.91,0,0,0-2.21-2.71A4.06,4.06,0,0,0,69.44,57,2.94,2.94,0,0,0,65,56.36c-1.56.38-1.39,3.42-.92,4.48a3,3,0,0,0,1.65,1.49,4.11,4.11,0,0,0-.55,1.09A6.39,6.39,0,0,0,65,66C65.32,68,67.15,70.06,69.31,69.39Zm-2.88-6.85Z"/><path class="cls-8" d="M76.61,61.07c-1.71,0-2.28,1.32-3,2.69l.54-1.21c-1.33,1.23-.9,4.15,0,5.49,1.32,2,4.17,2.67,5.33.17a6.31,6.31,0,0,0-.23-5.74A3.31,3.31,0,0,0,76.61,61.07Z"/><path class="cls-8" d="M71.29,72c-.23-.36-1.54,0-1.92.17a3.44,3.44,0,0,0-2,1.79c-.69,1.49-.25,3.74,1.37,4.44s3.36-1,3.89-2.53C73.11,74.62,72.82,72.23,71.29,72Z"/><g class="cls-2"><path class="cls-10" d="M81.23,54.65c-.32-.06-.59-.12-.83-.19a.2.2,0,0,1,0-.07l-.07.06a4.83,4.83,0,0,1-2.92-3c0-.05,0-.11,0-.16a3.29,3.29,0,0,0,.16,1.2c.29.91,1.33,2.93,2.42,2.3a2.4,2.4,0,0,1-1.16.9c-.44.14-3-.23-2.61.44a3.76,3.76,0,0,0,1.25.71,5.09,5.09,0,0,0-.21,1.22,5,5,0,0,0,.69,2.55c.22.31,2.34,2.47,2.08,1.08-.15-.84-1.23-2-1.62-2.77a20.22,20.22,0,0,1-.46-2.13,3.16,3.16,0,0,0,1.25-.42A2.62,2.62,0,0,0,80.25,55c.43.9,2,1.92,2.83,1.34A2.93,2.93,0,0,0,81.23,54.65Z"/></g><g class="cls-11"><path class="cls-10" d="M77.18,65.53c-.25-1.79.78-3.31-.58-4.7a4.48,4.48,0,0,0-1.23-2.58c2-1.32,2.19-3.63.91-5.55a3.47,3.47,0,0,0-2.82-1.54,4.22,4.22,0,0,0-1,.08,4.51,4.51,0,0,1,3.37,2.3c1,1.58.06,3.13-.56,4.61a2.17,2.17,0,0,0-1.17-.43c-1.16-.08-3,.35-3.42,1.54a4.21,4.21,0,0,1,3.11-.79,2.66,2.66,0,0,1,2.11,1.23c-.07.69,1,1.82,1.1,2.65.14,1.18-.44,1.84-.92,2.81l-.31.13a8.16,8.16,0,0,1-2.77.77c.92-.64.26-1.21-.38-1.89-1.15-1.22-2.24-2.7-2-4.49a1.85,1.85,0,0,1,.11-.42,4.81,4.81,0,0,0-.67.68L68.7,55.58a2.93,2.93,0,0,0,.16,2.55c.18.35.72.83.77,1.19s-.37.76-.53,1c-.64,1.17-.83.73-2,.77a2.17,2.17,0,0,0-2,1.86c.35-.22.59-.74,1-1a2.66,2.66,0,0,1,1.71-.3,2.48,2.48,0,0,1,2,2.65c-.08,3.15-4.69,1.66-4.74-.82a2.49,2.49,0,0,0-.56,1.84c.48.13,1-.09,1.42.12.59.27,1,1.12,1.27,1.64.12.21.26.41.39.62,0,.88.28,1.76.27,2.66s-.38,1.86-.45,2.79a3.87,3.87,0,0,0,1.39-2.82,1.15,1.15,0,0,0,0-.19c.45-.35,1-.82,1.33-.28a5.89,5.89,0,0,1,.32,1.39,2,2,0,0,0-.84.46c-1.06.43-2.24,1.68-2,2.5.81-.56,1.37-1.82,2.28-2.22s1.68.84,1.94,1.69a6.09,6.09,0,0,1,.26,2.61c-.21,1.23-1.12,1.5-1.93,2.15,2.32.59,2.72-3.32,2.89-4.73s-.09-1.5-1.29-2.17a2.28,2.28,0,0,0-.69-.28c.18-1.18-.34-2.56-.07-3.71.22-1,1-1,1.74-1.47a14.77,14.77,0,0,0,1.67.5,6.62,6.62,0,0,1,1.41,0,2.31,2.31,0,0,1,1,.81,1.19,1.19,0,0,1,.08.16,6.19,6.19,0,0,1,.43,2.24C78.35,68.18,77.42,67.23,77.18,65.53Zm-.9-5-.37-.79a10.47,10.47,0,0,1,.63,1A3.08,3.08,0,0,0,76.28,60.54Zm-8.61,7.27,0,0a2.3,2.3,0,0,0,0,.26Z"/></g><path class="cls-12" d="M62.07,48.08a2.87,2.87,0,0,0-3.78-2.41c-1.48-.37-2.41,3.74-2.27,4.65.31,2.1,1.77,3.66,3.84,2.45A4.75,4.75,0,0,0,62.07,48.08Z"/><path class="cls-13" d="M68.44,50.15c-3.52-3.67-8.49,1.74-5.89,5.53a3.16,3.16,0,0,0,5.42.1A6.22,6.22,0,0,0,69.06,53a4.17,4.17,0,0,0-.82-2.82Z"/><path class="cls-12" d="M64,61.19a3,3,0,0,0-3.93-1.88.78.78,0,0,0-.52.22,3.35,3.35,0,0,0-.36.21l.22-.06a5.89,5.89,0,0,0-.74,3.54c.36,1.74,1.92,3,3.67,2.26A3.32,3.32,0,0,0,64,61.19Z"/><path class="cls-13" d="M80,50.76a3.05,3.05,0,0,0-4.49-1.26c-1.55.52-1.62,3.42-1,4.61a3.48,3.48,0,0,0,4.71,1.63C80.89,54.72,80.74,52.31,80,50.76Z"/><path class="cls-12" d="M75.47,65.76a2.25,2.25,0,0,0-2.27-.2c-.91-.18-2.1.94-2.42,1.68a5.24,5.24,0,0,0-.35,2.82,3.83,3.83,0,0,0,4.34,3.34c2.12-.32,2.87-3.16,2.52-5A4.21,4.21,0,0,0,75.47,65.76Z"/><path class="cls-14" d="M65,65.59a2.13,2.13,0,0,0-1.78.78,4.79,4.79,0,0,0-.92,2.81c-.1,2,.59,4.84,2.91,5.13s3.56-2.57,3.66-4.49a3.93,3.93,0,0,0-1.26-2.93C67.06,66.26,66,65.16,65,65.59Z"/><path class="cls-10" d="M80.43,54.24a.77.77,0,0,1,0,.15h0Z"/><g class="cls-11"><path class="cls-10" d="M70,52.55c-.07-.47.13-.78.1-1.26a3.48,3.48,0,0,0-.49-1.22,5.84,5.84,0,0,1-.54-1.26c-.11-.4,0-1.13-.58-1.19a.2.2,0,0,0-.11,0s0,.08,0,.12c0,.45-.06.87-.08,1.29s.21.82.23.9a1.1,1.1,0,0,1,0,.81,3.7,3.7,0,0,0,.3.77c.76,1.52-.36,3.21-1,4.64.8.43,1.88-.39,2.24-1.08C70.59,54.06,70.18,53.56,70,52.55Z"/><path class="cls-10" d="M68.31,49.05c-.11-.61-.19-1.3.09-1.41a3.62,3.62,0,0,0-.83-2.8,6.83,6.83,0,0,0-1.31-.75,6.47,6.47,0,0,0-1.11-.7c-1.84-.56-3.54,1.48-3.76,3.1h0c-.59,1-.38,1.85-.57,3A2.66,2.66,0,0,1,60.06,51c-.32.33-.91.62-.85,1.14,1.72-1.12,3.07,2.14,3.26,3.34.32,2-.32,3-1.92,4.16.69.44,1.48.46,2.09,1.11.4.42,1,1.69,1.69,1.68.08-1.08,1.87-5.57-.68-5.21a3.07,3.07,0,0,0,.74-3.11,3.36,3.36,0,0,0-.69-1.7c-.34-.35-.87-.51-1.23-.82.19-.89,1.71-.16,2.28,0a4.46,4.46,0,0,0,2.61-.06,2,2,0,0,0,1.16-.75A5.85,5.85,0,0,1,68.31,49.05Z"/></g><g class="cls-2"><path class="cls-15" d="M68,50.22a5.13,5.13,0,0,1-.39,4.56c-1.36,1.92-3.07,1.58-4.51.1-.24,1,.74,1.79,1.62,2a2.63,2.63,0,0,0,2.61-1c1.58-1.67,2-3.49.81-5.49Z"/><path class="cls-15" d="M79.14,54.48l0,0a2.86,2.86,0,0,1-2.66,1.15,2.44,2.44,0,0,0,2.69,0C80.35,54.71,79.49,54.06,79.14,54.48Z"/><path class="cls-15" d="M62,59.47h.2c-.37.38.65,1.52.84,2a2.92,2.92,0,0,1,.16,1.91A2.49,2.49,0,0,1,59.81,65a2.82,2.82,0,0,0,4.34-1.42A3.34,3.34,0,0,0,64,61C63.71,60.62,62.46,59.27,62,59.47Z"/></g><path class="cls-14" d="M62.25,51.94l.56.09a3.86,3.86,0,0,0-5.1,1.61c-1.09,1.64-1.25,4.63.64,5.83,2.1,1.34,4.32-.39,5.1-2.38C64,55.68,64,52.56,62.25,51.94Z"/><path class="cls-14" d="M65.69,43.77a3.94,3.94,0,0,0-2.89.81A4.23,4.23,0,0,0,61.68,50c2.53,4.22,9-1.54,5.95-5A3.24,3.24,0,0,0,65.69,43.77Z"/><path class="cls-14" d="M78,49.08s-1.41,1.88.53,4.35a3,3,0,0,0,4.77,0C85.55,50.14,80.11,45,78,49.08Z"/><path class="cls-14" d="M74.63,58.69a4.22,4.22,0,0,0,1.45-4.62,4.57,4.57,0,0,0-2.35-2.37,3.67,3.67,0,0,0-2.08,0c-1-.39-2.22,1.22-2.48,2A4.64,4.64,0,0,0,69,56.32,4,4,0,0,0,71,58.81,4.27,4.27,0,0,0,69.83,62c.25,2,1.5,4.06,3.73,4.19s3.61-2.14,3.31-4.12A6.24,6.24,0,0,0,74.63,58.69Z"/><g class="cls-16"><path class="cls-17" d="M59.42,44.8c1,.19,2.37-1.07,2.93-1.78.32-.4.77-1,.65-1.51a.81.81,0,0,0-.46-.6h0a.93.93,0,0,0-.73,0h.33A4.27,4.27,0,0,0,59.73,42C59.11,42.61,57.82,44.5,59.42,44.8Z"/><path class="cls-17" d="M60.31,47.27c-.15-1.3-1.26-1.44-2.18-1.06l.32-.21c-2.35.14-2.86,5.88-.23,4.42C59.08,49.94,60.42,48.35,60.31,47.27Z"/><path class="cls-17" d="M63.14,48.69c1.09,0,2.18-1.6,2.49-2.49s.25-2.63-1.15-2.14C62.58,44.13,60.54,48.67,63.14,48.69Z"/><path class="cls-17" d="M60.25,56.77a5,5,0,0,0,1.41-3.42c-.14-1.59-1.47-1.44-2.42-.77l.08-.08C56.5,53.24,57.67,59.26,60.25,56.77Z"/><path class="cls-17" d="M64.92,57.83c-.52,0-.75.11-.64.61a2.53,2.53,0,0,0,1,2.6c1.15.64,2.4-.82,2.79-1.84.13-.35.39-1.31,0-1.59s-1.1.22-1.48.32A4.07,4.07,0,0,1,64.92,57.83Z"/><path class="cls-17" d="M68.64,62h0Z"/><path class="cls-17" d="M66.17,62.42c-.34.28-1.6,2.18-.81,2.51.48.2,2.14-1,2.51-1.24.57-.39,1.7-1.46.75-1.74A3.47,3.47,0,0,0,66.17,62.42Z"/><path class="cls-17" d="M68.59,61.94a1.58,1.58,0,0,0-.35-.06Z"/><path class="cls-17" d="M60.94,62.6c-.52-.46-1.68-2.41-2-1.1a3.82,3.82,0,0,0,.22,2.19,2,2,0,0,0,2.63,1C63.18,63.87,61.56,63.15,60.94,62.6Z"/><path class="cls-17" d="M70.88,56.69c1,.08,2.08-1.8,2.32-2.65.3-1,0-2.86-1.48-2.48C69.47,52.46,68,56.46,70.88,56.69Z"/><path class="cls-17" d="M64.75,53.5c.21.81.3,2.28,1.41,1.8a3,3,0,0,0,1.49-2.67c-.12-1.25-.71-1.52-1.61-1A1.44,1.44,0,0,0,64.75,53.5Z"/><path class="cls-17" d="M70.81,49.08c2,1,3-3.52.88-4-.7-.85-1.89.7-2,1.3A2.37,2.37,0,0,0,70.81,49.08Z"/><path class="cls-17" d="M76.41,49l.11,0c-1,0-3.2,2.15-.88,3.1,1.08.44,1.18-.51,1.39-1.4C77.19,50,77.65,48.53,76.41,49Z"/><path class="cls-17" d="M79.57,52.11c.57-.31.33-1.89.33-2.43s-.34-2.14-1-1.41c-.46.09-1,1.51-1,2S78.69,52.6,79.57,52.11Z"/><path class="cls-17" d="M78.49,45.53c-.12-1.76-3.41-3.07-3.22-.54l.2-.6C74.93,45.82,78.65,47.65,78.49,45.53Z"/><path class="cls-17" d="M73.66,58.59A2,2,0,0,0,71,59.5a3.41,3.41,0,0,0-.48,2.85c.18.48.83,1.55,1.48,1.28s.66-1.56,1-2,1.43-.55,1.74-1.21S74.31,58.9,73.66,58.59Z"/><path class="cls-17" d="M73.29,66.47a1.41,1.41,0,0,0-1.6.21c-.83.51-1,2-.83,2.84s1.57,3.32,2.73,2c.43-.49.09-1.17,0-1.72A4.44,4.44,0,0,1,73.76,68C73.94,67.31,74.05,66.83,73.29,66.47Z"/><path class="cls-17" d="M64.86,65.93l.16,0c-1.46-.31-2.29,1.66-2.35,2.81,0,.85.54,3.68,1.8,3.42s1.4-2.53,1.55-3.45a2.67,2.67,0,0,0-.11-1.91A1.74,1.74,0,0,0,64.86,65.93Z"/><path class="cls-17" d="M70.58,72.6h0c-1.7-1.06-4.1,2.92-2.44,3.72.83.41,2.09-1,2.48-1.64S71.21,72.84,70.58,72.6Z"/><path class="cls-17" d="M77.89,62.48l-.21.07a10.92,10.92,0,0,0-.07,2.13,6.18,6.18,0,0,0,1.11,2.22c.59-.33.59-1.55.49-2.14A4.15,4.15,0,0,0,77.89,62.48Z"/><path class="cls-17" d="M80.75,56.72c-.71-1.23-2.26,0-2.26,0A3,3,0,0,0,79,59.6c.62.78,2.08,1.38,2.47.14A4,4,0,0,0,80.75,56.72Z"/></g><g class="cls-16"><path class="cls-18" d="M60.86,41.17h.67a2.28,2.28,0,0,0-1.68.72c-.34.38-.92,1.53-.09,1.63.52.06,1.55-1.08,1.84-1.44C62.15,41.4,61.72,40.67,60.86,41.17Z"/><path class="cls-18" d="M63.57,44.52l-.23.14Z"/><path class="cls-18" d="M63.57,44.52l.06,0,0,0Z"/><path class="cls-18" d="M63.41,47.21a3,3,0,0,0,1.43-2.08c0-.87-.6-.93-1.21-.64a3.15,3.15,0,0,0-1,1.58C62.39,46.82,62.47,47.7,63.41,47.21Z"/><path class="cls-18" d="M57.67,46.44c-1,.83-1,3.45.21,2.74A3.05,3.05,0,0,0,59.09,47C59.09,46.21,58.15,45.73,57.67,46.44Z"/><path class="cls-18" d="M59.4,55.37a3.42,3.42,0,0,0,1.09-2.2c0-1.07-.8-.91-1.39-.45C57.82,53.43,58.09,56.39,59.4,55.37Z"/><path class="cls-18" d="M66.16,53.73c1.34-1-.35-2.59-.81-1.43h0C65,52.87,65.16,54.47,66.16,53.73Z"/><path class="cls-18" d="M71.5,53.84a10.63,10.63,0,0,1,.73-1.11c.21-.33.62-.65.1-1-.26-.15-.68.07-.68.07a2,2,0,0,0-1.59,1.61c-.13.55.09,2,.93,1.47C71.26,54.73,71.37,54.12,71.5,53.84Z"/><path class="cls-18" d="M71.51,47.6c.78-.68-.21-2.29-.68-1.89l0-.05C70.07,46.15,70.7,48.31,71.51,47.6Z"/><path class="cls-18" d="M75.73,49.54l.14-.12c-.6.34-1.12,1.18-.67,1.81.23-.17.29-.45.48-.68s.84-.52.93-.87C76.83,48.86,76.18,49.2,75.73,49.54Z"/><path class="cls-18" d="M71.75,59a2,2,0,0,0-1,1.57c0,.34,0,1,.46,1.19s.43-.13.64-.5a5,5,0,0,1,.58-1c.24-.26.88-.59.83-1C73.14,58.44,72.26,58.64,71.75,59Z"/><path class="cls-18" d="M67.35,59.27c.67-1.58-1.49-.12-2.33-.34V58.8C64.88,60.39,66.76,60.68,67.35,59.27Z"/><path class="cls-18" d="M60.53,63.36a2.59,2.59,0,0,1-.86-.94c-.15-.31-.06-.69-.38-.87a.83.83,0,0,0-.37.43c0,1,.53,3.32,2,2.54C61.8,64.06,60.94,63.66,60.53,63.36Z"/><path class="cls-18" d="M58.91,62v0Z"/><path class="cls-18" d="M65,66.05c-2.47-.61-2.82,4-1.81,4,.6,0,.38-.73.5-1.13a3.81,3.81,0,0,1,.85-1.29c.19-.21,1.25-1,1.26-1.23S65.39,66,65,66.05Z"/><path class="cls-18" d="M72.14,66.71l0-.07c-2.07.66-.71,4.42.3,3.69.38-.28.5-1.87.54-2.32C73.09,67.36,72.57,66.65,72.14,66.71Z"/><path class="cls-18" d="M69.17,73.34l.27-.22,0-.06Z"/><path class="cls-18" d="M69.49,73.06l.29-.26A1.36,1.36,0,0,0,69.49,73.06Z"/><path class="cls-18" d="M69.44,73.12c-.61.74-1.12,2.26.15,1.62S70.66,72.24,69.44,73.12Z"/><path class="cls-18" d="M67.69,62.33s-2.44.88-2.2,2.07a9.46,9.46,0,0,0,1.27-.86c.37-.23,1.24-.34,1.51-.63C68.71,62.43,68.27,62.29,67.69,62.33Z"/><path class="cls-18" d="M79,51.31A7.72,7.72,0,0,0,79,49.58c-.06-.65-.54-.7-.54-.7C78.1,49.42,77.71,51.76,79,51.31Z"/><path class="cls-18" d="M75.87,45.06v-.4c.25.37,1.83,1.74,1.76.59C77.58,44.33,75.38,43.75,75.87,45.06Z"/><path class="cls-18" d="M79.09,56.85c-.88.95.78,3.27,1.28,1.65C80.74,57.29,79.51,55.94,79.09,56.85Z"/><path class="cls-18" d="M78,63.49a.36.36,0,0,1,0-.1l-.08-.17Z"/><path class="cls-18" d="M78.16,63a1,1,0,0,0-.19.36c.27.64.49,2.51,1.06,2.19C79.8,65.15,78.68,63.17,78.16,63Z"/></g><g class="cls-19"><path class="cls-18" d="M60.73,41.11h.06a2.08,2.08,0,0,0-1.14,1.7,7.73,7.73,0,0,0,1.45-1C61.77,41.35,61.57,40.88,60.73,41.11Z"/><path class="cls-18" d="M57.38,46.47l.09,0a2.11,2.11,0,0,0-.46.82c-.11.41-.16,1.25.39.88a6.86,6.86,0,0,0,.86-1.52C58.54,45.71,57.82,46,57.38,46.47Z"/><path class="cls-18" d="M64.44,44.69c-.1-.88-.63-.17-.63-.17-.61.35-1.47,2.36-.36,1.58A3.94,3.94,0,0,0,64.44,44.69Z"/><path class="cls-18" d="M59.24,52.48c-.26,0-.43.28-.54.57l0-.08c-.27.58-.54,1.64,0,2.14a3.88,3.88,0,0,0,.93-2C59.68,52.75,59.75,52.41,59.24,52.48Z"/><path class="cls-18" d="M59.16,61.87s0,0,0,.05a.68.68,0,0,0-.07.31,1.42,1.42,0,0,0,.67,1.56,9.08,9.08,0,0,0-.15-2A.38.38,0,0,0,59.16,61.87Z"/><path class="cls-18" d="M71.61,51.85l0,0h-.07c-.14-.07-.49.07-.78.44s-.76,1.15-.56,1.57a8.79,8.79,0,0,0,1.11-1.34C71.66,52.15,71.7,51.94,71.61,51.85Z"/><path class="cls-18" d="M71.45,59.13l.11-.05c-.62.54-1.13,1.56-.44,1.92a2.19,2.19,0,0,0,.51-.72c.21-.34.57-.6.77-.91C72.89,58.58,71.86,58.49,71.45,59.13Z"/><path class="cls-18" d="M78.17,49.43a.85.85,0,0,0-.14.21h0c0,.1,0,0,0,0a1.12,1.12,0,0,0,.52,1.2A1.43,1.43,0,0,0,78.17,49.43Z"/><path class="cls-18" d="M64.62,66.05l.06,0c-.84-.18-1.76,1.15-1.44,1.89.4,0,1.56-1.3,1.7-1.66A.54.54,0,0,0,64.62,66.05Z"/><path class="cls-18" d="M71.79,67.44c-.45-.07-.44.85-.47,1.07l.09-.35c0,.53.29,1.09.56.27C72,68.21,72.17,67.5,71.79,67.44Z"/><path class="cls-18" d="M69.11,73.67l.11-.08a.87.87,0,0,0-.17.63c.47-.1,1.17-.76.93-1.27A.92.92,0,0,0,69.11,73.67Z"/><path class="cls-18" d="M66.49,62.21A1.8,1.8,0,0,0,66,63.28C66.88,63.22,67.93,62.29,66.49,62.21Z"/><path class="cls-18" d="M65.94,52.11c-.24,0-.32.6-.35,1.07a.87.87,0,0,0-.11.47c.2.79.83-.14.88-.52S66.33,52.07,65.94,52.11Z"/><path class="cls-18" d="M79.23,57.14c0,.39.36,1.35.73.72C80.16,57.51,79.56,56.71,79.23,57.14Z"/><path class="cls-18" d="M75.94,49.21s-.74.5-.6.93a2,2,0,0,0,1.06-.78C76.29,49.19,76.14,49.2,75.94,49.21Z"/></g><g class="cls-4"><path class="cls-20" d="M63.61,51.36a3.45,3.45,0,0,0,3-.85A3.82,3.82,0,0,0,67,44.66v.07c1,1.15.51,3.59-.54,4.69a3.79,3.79,0,0,1-2.55,1.22c-1,0-1.55-.93-2.08-1.66C61.54,50,62.71,51.09,63.61,51.36Z"/><path class="cls-20" d="M72.46,58.34c1.12-.17,2,.63,2.81-.41A3.7,3.7,0,0,0,74,52.23l-.23,0c1.14,1.26,2,2.94,1,4.62s-3.15,1.24-4.62.78c.22.31.63.91,1,1S72.14,58.39,72.46,58.34Z"/><path class="cls-20" d="M81.23,48.34h0a5.2,5.2,0,0,1,1.42,3.52,2.3,2.3,0,0,1-3.35,1.77c.29.67,1.43.88,2.1.81a2.84,2.84,0,0,0,2.12-1.74C84.34,50.66,82.79,49.28,81.23,48.34Z"/><path class="cls-20" d="M76.64,63.32a4.4,4.4,0,0,0-.89-3.52,2.7,2.7,0,0,0-3.09-1.27H73c.89.08,1.89,1.44,2.22,2.21a4.24,4.24,0,0,1,.13,2.61c-.23.84-.94,1.95-1.88,2.06a3.13,3.13,0,0,1-2.52-1.16C72.54,67,75.81,66.21,76.64,63.32Z"/><path class="cls-20" d="M57.23,57.79a2.11,2.11,0,0,1-.06-.29A.94.94,0,0,0,57.23,57.79Z"/><path class="cls-20" d="M61.8,52l.06,0-.12-.32Z"/><path class="cls-20" d="M63.33,54.78c-.06-.62-.53-3.1-1.47-2.77a6.67,6.67,0,0,1-.06,5.08A2.89,2.89,0,0,1,59.32,59a2.47,2.47,0,0,1-2.09-1.21c.59,2.72,4.19,2.63,5.51.37A6.15,6.15,0,0,0,63.33,54.78Z"/><path class="cls-20" d="M59.59,51.7c.86-.42,2.2.07,2.28-1.35,0-.48-.4-.94-.54-1.4a4.79,4.79,0,0,1-.13-1.41,1.71,1.71,0,0,0-2-1.74h.13c1.83.34,1.89,2.38,1.3,3.78A5.11,5.11,0,0,1,59,51.69c-.65.56-1.19.5-1.89.87C58.17,53.69,58.58,52.2,59.59,51.7Z"/><path class="cls-20" d="M72.51,65.86c.83,1,1.91.56,2.89,1,1.87,2.11-.08,6-1.27,5.88a5.72,5.72,0,0,1-2.31-.65c1.88,2.33,5.26.7,5.4-2a5.12,5.12,0,0,0-1.34-3.56C75.1,65.64,73.59,66.49,72.51,65.86Z"/><path class="cls-20" d="M65.49,65.7l.13.07a5.48,5.48,0,0,1,1.45,5.46c-.88,2.32-2.89,2.09-4.38.56.65,1.11,1.48,2.29,2.93,2.28a3.36,3.36,0,0,0,2.85-2.44A4.83,4.83,0,0,0,65.49,65.7Z"/></g><g class="cls-11"><path class="cls-21" d="M79.68,45.27a4.08,4.08,0,0,1,.24,2.29c1.27.46,1.18-.76.87-1.66-.38-1.1-1.2-2.38-2.48-2.48L78,43.29C78.6,44,79.31,44.34,79.68,45.27Z"/><path class="cls-21" d="M81.26,55.28l.13.14c1.16,1.31,2.08,2.83,1.44,4.66A2.4,2.4,0,0,1,81,61.7c-1,.24-1.44-.19-2.27-.68a3.44,3.44,0,0,0,2.67,1.49,2.61,2.61,0,0,0,2.35-1.93A4.54,4.54,0,0,0,81.26,55.28Z"/><path class="cls-21" d="M65.73,43.41A2.49,2.49,0,0,0,65.52,42c0,1.28-2,1.79-3.11,2.21-1.36.54-2.79,1.63-3.94.58l.07.07c-.36.06-.11.69.19.8s1-.23,1.35-.14,1.08,1,1.31,1c0,0,.39-.76.58-1.07a4.26,4.26,0,0,1,2.87-1.68C65.39,43.69,65.51,43.94,65.73,43.41Z"/><path class="cls-21" d="M70.3,69.22c.18-.3,0-.83.1-1.17.2-.75,1.31-1.34,1.09-2.18s-1.13-1.19-1.35-2.07-.48-2.32-.52-2.27c-.15-.76.62-1.53.52-2.39a3.16,3.16,0,0,0-1-1.8,3.32,3.32,0,0,1-.25,3.18,4.27,4.27,0,0,1-2.08,1.27c-.92.26-1.36-.36-2.19-.46.61,1,1.12,1.18,2.15.76.64-.26,1.81-.79,2.44-.27s.11,1.55.14,2.24c0,.84,1.15,1.58,1.19,2.37a1.83,1.83,0,0,1-1.83,1.46c-.48-.12-.41-.45-.7-.83a5.6,5.6,0,0,0-1.12-.93,7.89,7.89,0,0,1,2.23,3.66C69.43,69.69,70.15,69.48,70.3,69.22Z"/><path class="cls-21" d="M78.09,61.77a7.15,7.15,0,0,1,1.41,2.49c.2.93.18,3.37-.83,3.86-1.32.65-1.6-2.17-1.57-3,.06-1.17.8-2.87-.2-3.84a6.22,6.22,0,0,1,.32,2.26,2.56,2.56,0,0,1-.43,1.21c-.19.29-.88.78-.88,1.11a9.91,9.91,0,0,1,1.31,1.94c.21.59-.18,2.07.57,2a3.27,3.27,0,0,0,2.06-1.8,7.8,7.8,0,0,0,.27-2.41,4.09,4.09,0,0,0-2-3.9Z"/><path class="cls-21" d="M71.34,72.57l.21.22a1.09,1.09,0,0,0-.08-.15Z"/><path class="cls-21" d="M71.55,72.79a3.82,3.82,0,0,1-.35,3.77,2.85,2.85,0,0,1-1.77,1.51c-1,.2-1.18-.43-1.83-.91,0,.9,1.14,1.54,1.93,1.6a3.05,3.05,0,0,0,2.54-1.5,4.43,4.43,0,0,0,.68-2.61C72.7,73.6,72.18,73.39,71.55,72.79Z"/><path class="cls-21" d="M78.71,48.09c-1.16-.17-1.41.25-2.21-.85-.62-.85-1.32-1.69-2-2.47a2.39,2.39,0,0,0-.19,1.33L74.42,45c.2.6-.14,1.37-.06,2a8.24,8.24,0,0,0,.27,1,6.77,6.77,0,0,0-1.75-2.35h-.13c1.19.46,1.45,3.44.9,4.39a3.47,3.47,0,0,1-2.18,1.37c-1,.25-2-.46-2.75-.68A3.18,3.18,0,0,0,70,52.16c.4.09.43-.62,1.7-.54.51,0,.93-.16,1.43-.08s.9.7,1.27-1.09c.19-.92,1-.35.36-2.13a2.89,2.89,0,0,0,.37.72c.46.53,1.21,0,1.83-.11A3.14,3.14,0,0,0,78.71,48.09Z"/></g><path class="cls-1" d="M32.41,15.74c-.2.17-.56.22-.74.35A4.71,4.71,0,0,0,30.59,14a14.06,14.06,0,0,0-2.95-2.4c0,.28-.08.93-.06,1.1-.82-.7-.83-1.63-1.74-2.31a17,17,0,0,0-3-1.41c0,.22-.15.51-.17.75-.26-.11-.91,0-1.22-.22-1,1.31-4.88-1-5.89-1.73a16.78,16.78,0,0,1-.08,3.88c-.14,1.45-.32,1.31-.93,2.37A5,5,0,0,0,14,17.58c.22,1.6.42,2.21-1.63,1.52a20,20,0,0,0,.28,2.52,1,1,0,0,1-.43.06,8.22,8.22,0,0,0,1.51,2c-.22.18-.28.43-.42.57,1.94,1.27,3.53,2.41,5.95,2.6s4.16-1.14,6.44-1.62L27,24.89c-1.21-.73,2.56-2.93,3.3-3.41A4.77,4.77,0,0,0,32.41,15.74Z"/><path class="cls-1" d="M22.35,45l-1.8-.3C21.22,44.9,21.92,45.19,22.35,45Z"/><path class="cls-1" d="M33.92,47.51a7.46,7.46,0,0,0-4.2-3.58c-1.32-.58-3.28-1.62-4.8-1s-2.4,3.55-4.4,1.8h0a2.39,2.39,0,0,0-1-.15c-2.17.33-4,2.81-5,4.55C13,51.66,12,54,14.06,56.67a.78.78,0,0,0,.23-.53,11.66,11.66,0,0,0,.2,1.53,1.5,1.5,0,0,0,.68-1.38,2.72,2.72,0,0,1,.32.51,2.4,2.4,0,0,0,.45-.5c.6,1.26,0,3,.45,4.43.41,1.19,2.39,3.67,3.6,4.16a2.83,2.83,0,0,0-.46-1.56,4.35,4.35,0,0,1,.57.38c.39-1.34,9.3,2.12,10.45,3.18a8.31,8.31,0,0,1,.17-3.33c1.1-.35,1.52-1.94,1.44-3,.28.46.75.55,1.12.86A2.56,2.56,0,0,0,34,59.47c.41-.23.36-.37.69-.77,1.52-.9-1.22-4.93-.85-6.3.39.19,1,.18,1.42.42-.06-.32-.12-.64-.17-1C37.13,51,34.51,48.48,33.92,47.51Z"/><path class="cls-6" d="M144.25,32.9c-1.07-1.08-3.36-2.28-4.81-2.11-3.26.37-6.49,1.43-9.82,1.61-5.5.28-10.25-2-15.35-3a18.35,18.35,0,0,1-1.87-.78A23.5,23.5,0,0,1,108,25.33c-2.84-2.5-5.6-5.8-9.14-7.33-5.47-2.35-10.9-3.85-16.83-2.43-5.69,1.37-10.95,4.28-16.9,4.3-1.37,0-3.38-.35-4.08-1.68a1.84,1.84,0,0,1-.18-.53c1.15.21,2.59,0,3.19-.82,1.22-1.73-.79-3-2.32-2.23a3.22,3.22,0,0,0-1.59,1.69,5.28,5.28,0,0,1-1.61-2.18c-.48-1.07-.9-2.54-.27-3.56.75,1.17,2.33,2,3.35.67,1.34-1.74-.93-3.09-2.47-2.47a2.46,2.46,0,0,0-.58.31,2.54,2.54,0,0,1-.14-1,3.58,3.58,0,0,1,1.1-1.83A3.76,3.76,0,0,0,57.8,9.48a1.83,1.83,0,0,0,.07.32,4.73,4.73,0,0,0-.37,3.3c.27,1.46.93,3.47,2.31,4.22l.13.05a2.63,2.63,0,0,0,.22.93c1.44,3.11,6,2.58,8.7,2.2C72,20.06,75,18.38,78,17.26c6.22-2.36,12-1.64,18.23.47.46.16.9.34,1.34.54a21.52,21.52,0,0,0-4.17,1.51c-1.53.74-5.89,2.89-5.42,5,2.83-2.34,7.3-7.58,11.63-5.26l-.16-.16a.06.06,0,0,0,0,0,37.18,37.18,0,0,1,5.66,4.76c1.76,1.69,3.3,3.62,5.37,4.75-.27,0-.54,0-.82,0a63.3,63.3,0,0,0-11,.82c-3.93.67-7.69,1.6-11.63.43l-1.57-.15c-2.33.14-5-.58-7.39-.82-2.81-.29-5.09-1.44-7.7-2.33C65.21,25,60.93,23.56,55.42,24a26.23,26.23,0,0,0-7.54,1.4c-2.23.83-4.82,2.19-7.23,2.3a29.87,29.87,0,0,1-7.71-.71c-2-.49-5.07-2.69-7-1.88,1.09,1.42,5.33,2,7.1,2.5,2.36.67,4.33,1.31,6.79.76C32.35,30.56,25.56,32.89,18,29.6l-1.73-.16c-1.39-.73-3.1-.65-4.55-1.23a19.44,19.44,0,0,1-4.78-3,14.55,14.55,0,0,1-3.67-5.52,2.93,2.93,0,0,0,.9.1c1.63-.11,3-1.18,2.81-2.89-.47-3.75-4.19-1.91-4.84.86a4.36,4.36,0,0,1-.55-.82,8.41,8.41,0,0,1,.49-7.17,6.22,6.22,0,0,0-1.61,7,5.57,5.57,0,0,0,1.61,2.29c.39,2.47,3.5,7.15,6,7.85l.94.79c1.11,1.9,6.25,2.7,8.3,3.3a33,33,0,0,0,9,1.41c5.88,0,12.47-2.11,17.76-4.55l.08,0c-3.23,2.82-6.07,7.35-4.47,10.37a2.84,2.84,0,0,0,.62.77,2.63,2.63,0,0,1,.59-.94c-2.55-3.86,2.68-9.14,6.49-11.47a23.56,23.56,0,0,1,14.93-.43c3.12.94,6,2.33,9.11,3.18a72.81,72.81,0,0,0,8.89,1.77c3.35.48,6.66,1.47,10.06,1.5,3.81,0,7.48-.84,11.24-1l1.41.16c4.14-1.09,8.38-.48,12.51.55l-.21.11a1.14,1.14,0,0,0,0,.45c-2.66,1.72-4.84,2.92-6.76,5.65-1.18,1.68-3.92,5.77-3.23,7.85,1.23-.51,2-3.13,2.85-4.23a25.13,25.13,0,0,1,4.49-4.89,13.29,13.29,0,0,1,5.18-2.9,20.79,20.79,0,0,1,3.34-.45l1.29.37c6.32,1.77,13.62,2.68,20.12,1.11C144.44,35,145.93,34.59,144.25,32.9Zm-83.48-22c-.73.62-1.45-.1-1.9-1C59.76,9.45,61.72,10.1,60.77,10.9Zm1.7,4.24c1.9.18.79,1.84-.76,1.75a2.89,2.89,0,0,1-.9-.21C61,15.82,61.5,15.05,62.47,15.14ZM3.63,16.46c1.21-1.55,3.06-.13,1.89,1.52a1.69,1.69,0,0,1-2.46.54A2.92,2.92,0,0,1,3.63,16.46Z"/><path class="cls-6" d="M40.19,40.29a2.77,2.77,0,0,0,2,2.14,3.82,3.82,0,0,1-1.69-3.35l-.13-.1A2.61,2.61,0,0,0,40.19,40.29Z"/><path class="cls-6" d="M41,38.08a1.62,1.62,0,0,0-.49,1,2.46,2.46,0,0,0,2.4.64,3.58,3.58,0,0,1-1.09-.7A5.07,5.07,0,0,1,41,38.08Z"/><path class="cls-6" d="M42.39,37.62c1.3,0,1.82,1.29.64,2l-.17.07c2.29.87,2.68-3.31-.64-2.44a2.71,2.71,0,0,0-1.3.76l0,0A2.08,2.08,0,0,1,42.39,37.62Z"/><path class="cls-1" d="M115.47,46.46A8.4,8.4,0,0,0,111,44.38c-1.76-.24-3.77-.12-4.64-2.05l-.47.32c-1.11-1.18-.84-3.1-2.07-4.38a10.16,10.16,0,0,0-4.45-2.55c-2.46-.55-7.21.89-9,2.68.11.69-.55,1-1.06,1.39.4.29.45.49,1.08.65-1.61,1.42-3.73,1.07-4.83,3.47-.79,1.71-.79,4.14-.76,6a1.34,1.34,0,0,0,.63,0c.5,1.4,1.85-.17,2.61-.43-.52,1.29-1.72,2.27-2.29,3.56a10.07,10.07,0,0,0-.49,4c0,2.35.13,5.43,1.41,7.48a.59.59,0,0,0,.33-.25,14.54,14.54,0,0,1,1.86,4.88c.21,1.5-.45,5,.45,6a9.47,9.47,0,0,0,4-2.49c1.62-1.44,1.53-.64,3.14-.85,1-.14,1.88-.9,2.9-1.17a12.94,12.94,0,0,0,4-1.89,13,13,0,0,1,.62,1.41c2.6-.92,4.79-3.09,6.81-4.8a5.58,5.58,0,0,1,0,2.6c1.16-.13,1.64-1.23,2.49-1.83a.84.84,0,0,0,.46.25A5.93,5.93,0,0,0,115,64.21c2.12,1,2.3-5.15,2.26-6.26a21.84,21.84,0,0,1,1.37,2A7.23,7.23,0,0,0,119.94,54a5.88,5.88,0,0,0,.26.64C120.82,51.36,117.76,48.34,115.47,46.46Z"/><path class="cls-1" d="M95,26.69a8.59,8.59,0,0,0-3.22-3.84c-1.47-.76-2.57,0-4-.29-1.27-3.07-7-3.13-9.07-1.17-.13,1-1.72,2-2,3.25.22-.13.61-.21.82-.33-.39,1.44-1.62,2.17-1.61,3.8a7.88,7.88,0,0,1,1.5,1.31c1,1.28.55,2.63,1.51,3.92.19.27.89.37,1.23.72a13.7,13.7,0,0,1,1.48,2,18.43,18.43,0,0,1,1.8,4.35,14.61,14.61,0,0,1,5.28-4.52c.92-.44.39-.48,1.48-.44s.71.79,1.87.12c.71-.41.82-1.34,1.28-1.93s.69-.15,1-.74,0-1.08.19-1.54c.12-.28.74-.47.92-1.05A8,8,0,0,0,95,26.69Z"/><path class="cls-1" d="M86.69,7.92c.21,2.19-1,2.37-2.35,3.07s-2.11,2.47-3.77,2.87a7.31,7.31,0,0,1-4-.27c.33,0,.67,0,1,0-3.54-.35-3.42-5.07-3.56-7.64a9.71,9.71,0,0,1,1.34,1.22,10.59,10.59,0,0,0-.44-2.44,3.33,3.33,0,0,0,1.45,1.1C75.68,4,76.27,2,75.71,0,76,1.16,78,2.91,79.09,2.35a.73.73,0,0,0-.26-.52A4.32,4.32,0,0,0,82,3.5c1.17.18,1.8.11,2.5,1.16,0-.36.33-.76.38-1.05A8.63,8.63,0,0,1,86.69,7.92Z"/><path class="cls-6" d="M84.19,10.9l-.16.31c-.11.84,3.54,4.34,4.51,4A60.53,60.53,0,0,0,84.19,10.9Z"/><path class="cls-6" d="M29.49,31.33l-.16.31c-1,1.7-3.53,3.91-4.88,5.86-1.19,1.71-2.72,5.2-2.05,7.3.7-.83.57-2.2.94-3.25A22.76,22.76,0,0,1,25.16,38c1.33-2.34,4.25-4.35,5.22-6.68A1.24,1.24,0,0,0,29.49,31.33Z"/><g class="cls-4"><path class="cls-5" d="M13.47,20.13c.34.68.21,1.47.54,2.14s1.08.82,1.36,1.36-.63.33.33,1.13a7.48,7.48,0,0,0,2,.94,5.7,5.7,0,0,0,4.08-.19c1.27-.41,2.5-1.56,3.88-1.36h.52a4.31,4.31,0,0,0-3.72-.47,6,6,0,0,0-1.82.89c-.46.32-.3,1-1.1.64a2.31,2.31,0,0,0,.89-.94c-1.83-.08-2.66-.06-4.17-1.17,1.63.5,2.64,1,4.42.58.81-.18,1.54-.61,2.36-.76a8.58,8.58,0,0,0,1.78-.22c-.4-2.15-1.78-2.43-3.77-2.19-.9.1-1.67.58-2.57.61a8.22,8.22,0,0,1-2.28-.44,8.75,8.75,0,0,0,3.06-.1c-1-1.17-3-1.9-3.24-3.63,1,1,1.55,2.43,3.17,2.92a7.59,7.59,0,0,0,3.64,0c-.2-1.78-.77-2.56-2.41-2.9A4.29,4.29,0,0,1,17,14.36c.82,1,2.1,2.42,3.53,2.06-.53-1.25-1.74-2.28-2.42-3.48s-1.3-2.35-1.94-3.53c1.23,1.9-.33,4.32-1.13,6-.95,2,.25,3.45-.13,5.3A10.26,10.26,0,0,0,13.47,20.13Z"/></g><g class="cls-4"><path class="cls-5" d="M28,63.43a19.61,19.61,0,0,1-1.54-2.08c-.53-.71-1.28-1.23-1.77-2a18.79,18.79,0,0,1-.8-2c-1.07,1.55-.12,2.94.27,4.47-1.57-.73-1.34-3-1.13-4.45a7.46,7.46,0,0,0-1-4.56c-1.47.18-2.07,2.3-2.19,3.52a16.11,16.11,0,0,1-1,4c-.43-.72,0-1.45.24-2.17a11.23,11.23,0,0,0,.28-2.51c.16-2.06,2.16-2.77,2.33-4.67.13-1.44.35-3.72-1.76-2.32a2.83,2.83,0,0,0-1.26,2.37c0,.79.75,1.48.4,2.28-.72-.8-.31-1.92-.84-2.73-1.5.18-2.3,2.28-3.13,3.25C15,52.19,17,51,18,50c-.53-.47-1.17-.25-1.76-.4a3,3,0,0,1,1.45-.39,4,4,0,0,0,1.7-.59,5.07,5.07,0,0,0,2.6-2.6l.53-.52c-.82.81-2.24-.09-3.25.12-1.36.29-2.43,1.55-3.3,2.55a7,7,0,0,0-1.76,6.73,2.29,2.29,0,0,1,.12-.37c.36.18.58.59.87.91.1-.14.49-.33.58-.48,1.31.69,1.19,1.55,1.18,3.06a7.32,7.32,0,0,0,1.22,4.42.34.34,0,0,1,0-.35,19.67,19.67,0,0,1,5.08.7,23.33,23.33,0,0,1,3,1.1,26.23,26.23,0,0,0,3.05,1.44A3.56,3.56,0,0,0,28,63.43Z"/></g><g class="cls-4"><path class="cls-5" d="M82.43,32.61c-.48-1.46.95-2.55,1.67-3.55.52-.72,2-3.06,1.7-4-.84-2.7-6.11.62-7.39,1.14.15-.89,1.56-1.73,2.37-2.11,1-.49,2-.06,3-.4-.47-.9-1.71-1.41-2.29-2.29,1.73-.49,5,5.4,6.26,1.88v-.63c-1.78-3.47-8.2-2.8-9.63.59.26-.14.65-.15.91-.27.15,1.6-1.83,2.64-1.65,4.51a6.85,6.85,0,0,1,1-.54c-1.11,1.26.88.9,1.4.74.41.75-.47,1.64-.51,2.42a12.29,12.29,0,0,0,.5,2.71c.13-.09.39-.11.53-.2.1.52.52.56.82.83a2,2,0,0,1,.81,1.33c.45,1.48,1.51,2.9,1.71,4.47a21.21,21.21,0,0,1,.61-5.11,14,14,0,0,0,.43-5.27A11.52,11.52,0,0,0,82.43,32.61Z"/></g><g class="cls-4"><path class="cls-5" d="M88.64,48a2.23,2.23,0,0,0,2.3.91c.42-.06.75-.56,1.24-.38.32.12.09.69.35.78.56.2,1.54-.3,2.14-.39,1.69-.26,3.35-.25,4.89-1.09a26.39,26.39,0,0,0,2.6-2c.71-.5,1.69-.71,2.17-1.46a7.73,7.73,0,0,0-2.27-.41,9,9,0,0,0-2.68-.32c-2,.23-3.54,2.09-5,3.4,1.21-1.36,1.7-2.67,3.39-3.4-.9-.33-1.9.11-2.82.19s-2.1.06-3.15.13c-2.64.19-3.88,1.12-5.13,3.34-1.77-1.91,3.51-3.61,4.66-3.66s2.19-.23,3.31-.34c.93-.08,2.63.23,3.36-.27-.29-1.07-.21-2.06-1-2.85s-2.29-.79-2.82-1.47c.78-.26,2.11.56,2.81.92a2.4,2.4,0,0,1,1.27,1.07c.21.43,0,1.1.31,1.49.68.88,4.8,1.6,5.73,1.24-.34-1-1.17-1.74-1.53-2.69.83.88,1.69,2.8,3,2.9l-.21-.21c-1.2-.61-1-2.93-1.56-4.06a4.75,4.75,0,0,0-3.57-2.72c-2.7-.46-6.11-.48-8.35,1.4a.5.5,0,0,1,.34,0c-.17.53-1.08,1.06-1.43,1.41a8.54,8.54,0,0,1,1.14.24c-.19,2.09-3.44,2.12-4.79,3.15-1.64,1.28-1.82,3.44-1.71,5.35a3.61,3.61,0,0,0,.42-.38,3.39,3.39,0,0,0-.26.84.51.51,0,0,1,.3-.17,3.67,3.67,0,0,1-.23,1.06C86.78,49.07,87.71,48.48,88.64,48Z"/></g><g class="cls-4"><path class="cls-5" d="M90.9,49.73c-2.28.14-4.47,3.36-5,5.44a7.85,7.85,0,0,0,.27,3.57c.21,1-.16,2.36.44,3.26.09-.11.48-.3.53-.37.1.47,0,1,.28,1.41a3.61,3.61,0,0,0,.77-1c.08.92.62,1.61.71,2.56s.53,1.93.73,3a44.08,44.08,0,0,1,.24,6.19c.9-.45,1.28-2.34,1.57-3.26A13.37,13.37,0,0,1,93.57,67a10.64,10.64,0,0,0,1.8-3.61c.23-1.15.16-2.6.69-3.64-.73,1.06-1.44,2.17-2.2,3.22s-1.08,2.5-1.86,3.32a13.63,13.63,0,0,1,1.73-3.9c.42-.66.76-1.4,1.19-2.05s1.2-1,1.75-1.59c-1.34-1.45,1.93-4,2.65-4.89-.44-.42-2-.22-2.61-.2a11.2,11.2,0,0,0-3.3.56c-2.67.88-3.91,3.19-5.71,5.13.32-3.83,5.45-6.34,8.74-6.55A11.29,11.29,0,0,0,99,52.61c1.09-.34,1.18-1,1.8-1.94,1.15-1.85,2.57-3.27,3.38-5.35l.32-.31c-2.52,1.12-4,3.73-6.82,4.4C95.29,50,93.23,49.59,90.9,49.73Z"/></g><g class="cls-2"><path class="cls-3" d="M20.88,11.35a18.9,18.9,0,0,0,2.57,2.12c.47-.5.14-1.6,0-2.23.89,2.61-.84,5.27.35,7.82.73,1.56,1.86,2.11,3.09.53s-.31-2.47-.27-4.06c.67.7.6,1.85,1.29,2.56,1.62-.53,1.06-3.24,1.23-4.49,2,2-1,4.49-1.81,6,.73.84,2.8-.59,3.33-1.24C30,19.66,28.23,20,27,20.43c-1.84.69-1.61,1.78-.89,3.41h.1c.63-1.13,2.16-1.44,3.2-2A6.55,6.55,0,0,0,32,18.49c.34-1.1-.38-1.3-.82-2.19A7.74,7.74,0,0,0,28.61,13c-.27.34-.39.8-.72,1a20.88,20.88,0,0,1-2.11-2.49,3.1,3.1,0,0,0-2.9-1.27c-1.06,0-2.1.4-3.14.37-1.31,0-2-.83-3-1.46.55,1.78,1.5,2.69,2.59,4.13.88,1.18,2.11,3,3.57,3.55C24.4,14.34,21.61,13.24,20.88,11.35Z"/></g><g class="cls-2"><path class="cls-3" d="M30.43,44.69a18.14,18.14,0,0,0-3.72-1,3.63,3.63,0,0,0-3.5,1.93c1.57-.16,2.57.52,4.07.73.94.13,3.81.13,4.29,1-1.1.08-2.52-.23-3.67-.25a7.25,7.25,0,0,0,2.53,1.74A9,9,0,0,1,33,50.05a6.49,6.49,0,0,1-2.85-.45C29,49.14,28.64,48,27.71,47.32c-1.08-.74-5.3-2-4,.41a10.65,10.65,0,0,0,2.07,2.72c.87.73,2,.88,3,1.49a7.33,7.33,0,0,1,2.59,3.22,10,10,0,0,0-1-1.19c-.92-.92-2.38-1.16-3.45-1.85-.62-.39-.9-1-1.42-1.46s-1.13-.74-1.6-1.27c-.84-1-.73-2.57-1.41-3.32a.71.71,0,0,0-.29.82l.21-.63a14.81,14.81,0,0,0,.79,7.18c.58,1.5.8,1.92,2.36,2.05,1.28.1,2,.8,2.94,1.29A12.75,12.75,0,0,1,27,56.52c-.81-.28-1.5-.86-2.42-.59-.28,1.3,1.52,3.26,2.24,4.27a20.45,20.45,0,0,1,2.68,4.64c0-1.63,1.48-1.86,1.7-3.33.13-.86,0-3.33,1.37-1.61a3,3,0,0,0,.1-.56H33a3.35,3.35,0,0,0,.77-2.64c-.11-1.71-1.14-2.62-1.62-4.12a5.24,5.24,0,0,0,.64.2c0-.76-.28-1,.22-1.46s1.31.36,1.1-.78c1.57.79-.71-2.26-.9-2.57C32.35,46.67,32.07,45.35,30.43,44.69Z"/></g><g class="cls-2"><path class="cls-3" d="M88.28,28.35c1.69,1.7,2.12,4.35,3.29,6.28.35-.7.56-1.5.86-2.16.14.14.39.22.52.36.06-.69.61-.75.71-1.14a4,4,0,0,0-.3-1.88c.35.12.71.29,1.06.42a1.9,1.9,0,0,0,.23-1.39.5.5,0,0,0,.27-.08c-.59-2.63-2-6.6-5.55-5.46.78,2.12,2.83,1.56,4.25,3.05-1-.11-1.83-.87-2.78-1a20,20,0,0,1,1.06,3.43,28.54,28.54,0,0,1,0,3.7c-.72-2-.39-9.08-4.05-5.82.21-1.2,2.72-1.64.93-3.12l-.32-.42c-.4,1.17-1.71,1.92-1.87,3.15S87.45,27.52,88.28,28.35Z"/></g><g class="cls-2"><path class="cls-3" d="M86.44,27.72h0c0-.07,0-.14,0-.22Z"/></g><g class="cls-2"><path class="cls-3" d="M86.45,27.72c0,1.26,1.1,2.27.84,3.61a21.83,21.83,0,0,1-.83,2A11.39,11.39,0,0,1,86,35c.14-1.13.64-2.23.71-3.38a7,7,0,0,0-.94-3.37c-1,1.36-.67,3.62-1,5.26s-.62,3.51-1,5.26c1.14-.92,2.06-2.36,3.26-3.15.75-.48,2-.68,2.52-1.62.14.1.55.18.69.31C90.09,32.23,88.72,28.32,86.45,27.72Z"/></g><g class="cls-2"><path class="cls-3" d="M118.91,53.6a7.21,7.21,0,0,1-.08-1.22h.36c-.15-1.22-1.61-2.54-2.25-3.59a9,9,0,0,0-3.15-2.93,5.82,5.82,0,0,0-3.51-1c-1,0-2.66.2-3.3-.73l.42.73c.38,1.28,1.86,2,2.49,3.15.53,1,.74,2.25,1.48,3.12.89,1,2,.78,3.21,1.07,1.37.34,2,1.29,2.72,2.4-1.37-.6-2.17-2-3.77-2.35-1.9-.38-1.5.63-1.32,2a20.34,20.34,0,0,1,.36,4c-.11,1.36-.46,2.57-.45,3.95-.44-3,0-6.17-.52-9.14a7.88,7.88,0,0,0-1.14-2.35c-.4-.73-.51-1.58-.92-2.31-.88-1.5-2.49-2.5-3.29-4.05-1.16,1.48.14,5.05,0,6.83-.06,1.21.48,1.93.37,3.1s-1.2,2.74-.6,3.75a.71.71,0,0,0,.72-.7c-.39,1.38.29,3.26,1.2,1.19a9.61,9.61,0,0,0,.24,2.19c.08-.09.3-.21.4-.39a5.64,5.64,0,0,1,.54,1.79.3.3,0,0,0,0-.23A7.37,7.37,0,0,1,108,66.85a10.33,10.33,0,0,0,1.89-1.56,17.28,17.28,0,0,1,1.43-1.71c1.08.43.37,1.83.83,2.65A10.9,10.9,0,0,0,112.8,65a11.32,11.32,0,0,0,.71-1.58c0,.26.14.69.16,1A10.55,10.55,0,0,0,116,60c.16-.71.37-3.08,1.13-3.15a.5.5,0,0,0,0-.32c.41.56.81,1.33,1.39,1.61a17.22,17.22,0,0,0,.14-3.36C118.63,54.31,118.88,54.13,118.91,53.6Z"/></g><g class="cls-2"><path class="cls-3" d="M105.62,44.9h0a.52.52,0,0,1,.1-.11Z"/></g><g class="cls-2"><path class="cls-3" d="M105.14,56.9c.28-1.07.91-1.95.9-3.09a17,17,0,0,0-.66-3.14,9.92,9.92,0,0,1,.24-5.76c-1.66,1.63-2.2,3.37-3.15,5.44S100.06,53.65,101,56a18.71,18.71,0,0,0,1.42,2.83,24.86,24.86,0,0,0,2.3,2.4c1.24,1.51.69,3.16.18,4.87.3-1.58.2-4.78-1.71-5.34.07,1.89-.75,4-1.36,5.74.47-1.87,1.32-4.46.74-6.36-.4-1.3-1.76-2.06-2.18-3.3-.31-.9.12-2-.52-2.77a9.19,9.19,0,0,0-2.48,3.29c-.39,1.33.17,2.19.63,3.35.92,2.34.29,4.81-.28,7.11.46-1.75,1-6.65-.8-7.86-1.35,1.81-.9,4.9-2.07,6.94-1.35,2.35-3.59,4.28-4,7.11a6.71,6.71,0,0,0,1.94-1.78c.42-.55.94-1.72,1.57-1.91a2.46,2.46,0,0,0-.13.5c.45-.11.75.21,1.12.1.59-.18.77-.8,1.47-.83.67,2.46,7.34-5,8-1.5,1-1.77,2.62-3.84,2.74-6a3.53,3.53,0,0,0-1.07-2.88C105.5,58.72,104.77,58.36,105.14,56.9Z"/></g><path class="cls-6" d="M74,29.89a3.23,3.23,0,0,1,.76,0c-.1-.23-.55-.32-.77-.42s-.54-.3-.82-.44c-.52-.25-1,0-1.59-.18-.36-.11-1.31-.51-1.5,0a1,1,0,0,0,.38,1.23.89.89,0,0,0-.65.75c0,.32.13.21.34.22s.22.15.42.32.82,0,.84.55c0,.41-.48.65-.49,1s.53.58.62.1c0-.23-.07-.33.08-.56s.26-.25.31-.44,0-.29.06-.42a3.14,3.14,0,0,1,.28-.46,2.2,2.2,0,0,1,.9-.89,2.49,2.49,0,0,1,1-.39Z"/><path class="cls-6" d="M74.25,29.92h0l1,.2A1.71,1.71,0,0,0,74.25,29.92Z"/><path class="cls-22" d="M70.93,28.74l.08.08a.54.54,0,0,0-.82.41c0,.15.06.46.22.53s.43-.11.59-.14c.76-.18,1.51.16,2.26,0a6.58,6.58,0,0,1-1.15-.42C71.75,29.07,71.32,28.71,70.93,28.74Z"/><path class="cls-22" d="M71.26,30.27a1.5,1.5,0,0,0-.88.17l.24-.11c-.14,0-.63.25-.57.45s.47,0,.61-.06a10.19,10.19,0,0,1,1.42-.36C71.9,30.21,71.49,30.28,71.26,30.27Z"/><path class="cls-22" d="M71.11,31.26a1.72,1.72,0,0,0-1,.2h-.05c-.55.65-.42,1.62-.61,2.41a5.58,5.58,0,0,1-.79,2.43,4.33,4.33,0,0,0,1-2c.08-.32.11-.66.19-1s.19-.82.56-.62c.13.08.12.27.29.11s.08-.33.11-.45c.1-.44.52-.39.73-.78S71.44,31.25,71.11,31.26Z"/><path class="cls-22" d="M27,31.6l-2.41-.11a22.49,22.49,0,0,1-4.76-.68c-1.59-.43-3.15-1-4.78-1.3A15.52,15.52,0,0,1,10.57,28a.85.85,0,0,0-.45-.16c0,.53,1.89,1.12,2.39,1.3a16,16,0,0,0,2.41.85c1.63.32,3.21.77,4.84,1.12a41.25,41.25,0,0,0,5,.77,20.5,20.5,0,0,0,2.35.2c.59,0,1.82,0,2.2-.48A11.8,11.8,0,0,0,27,31.6Z"/><path class="cls-22" d="M55.79,24.26c-.79,0-1.57.09-2.36.17s-1.74.08-2.57.24-1.59.54-2.41.74c-1.77.42-3.25,1.45-5,2s-2.83.84-2.83.84c-.89.24-1.68.78-2.57,1a5.77,5.77,0,0,0-2.18.85c.3.23,1.75-.13,2.23-.21.81-.14,1.61-.58,2.41-.8A13.91,13.91,0,0,0,43,28a6.82,6.82,0,0,1,2.22-.86c-.06.36-.42.44-.65.69s-.28.48-.48.69c-.47.48-1,.87-1.45,1.38S40.28,32,40.64,33c.24-.3.28-.77.53-1.11a8.91,8.91,0,0,1,1-1.06,28.14,28.14,0,0,0,2-2.07,9.21,9.21,0,0,1,2.12-1.91,5.24,5.24,0,0,1,1.19-.79c.4-.15.82-.26,1.22-.42a24.2,24.2,0,0,1,5-1A14.25,14.25,0,0,1,56,24.57a4.5,4.5,0,0,0,2.14-.21C57.57,23.89,56.46,24.22,55.79,24.26Z"/><path class="cls-22" d="M24.66,37.57s-1.91,3.22-1.93,5.59A10.62,10.62,0,0,1,24,39.43c.35-.66.73-1.3,1.1-2s.94-1.18,1.31-1.85A7.82,7.82,0,0,0,24.66,37.57Z"/><path class="cls-22" d="M3,20a2.94,2.94,0,0,1-.29-2.4,5.39,5.39,0,0,1,.86-1.31c.23-.27.93-.56,1-.89-.1-.08-.19,0-.31,0l.31-.11c-.76,0-1.63,1.26-1.88,1.89A3.67,3.67,0,0,0,2.6,19.7c.49,1.54,1.72,4.13,3.23,4.92-.48-.81-1.23-1.46-1.75-2.25A16.89,16.89,0,0,1,3,20Z"/><path class="cls-22" d="M.56,12.62l0-.06c0-.2.07-.39.09-.56Z"/><path class="cls-22" d="M.58,12.56c-.25,1.31-.78,3,.23,4,.34-.31-.2-2-.2-2.57a6.09,6.09,0,0,1,.5-2.71A3.62,3.62,0,0,0,.58,12.56Z"/><path class="cls-22" d="M61.05,9.32c-.15-.58-1.1-.6-1.6-.53h-.06a2.56,2.56,0,0,0-1.72,1.68,4.19,4.19,0,0,0,0,2.48c.1-.41-.11-.93-.05-1.37a3.2,3.2,0,0,1,.51-1.48,2.31,2.31,0,0,1,1.4-.9,3.15,3.15,0,0,1,.75,0C60.57,9.18,60.79,9.3,61.05,9.32Z"/><path class="cls-22" d="M61.85,19.78c.25.17,1.17.66,1.45.44a6.51,6.51,0,0,0-.83-.44,7.79,7.79,0,0,1-1-.6,2.8,2.8,0,0,1-1-1.84,3,3,0,0,1,.65-1.93,2.2,2.2,0,0,1,.92-.57c.28-.09.68.05.92-.09-.31-.24-.92-.09-1.25,0a2.21,2.21,0,0,0-1.19,1.12A1.79,1.79,0,0,0,60.19,17a2.54,2.54,0,0,0,.37,1.52A4.19,4.19,0,0,0,61.85,19.78Z"/><path class="cls-22" d="M90.42,15.46a18.78,18.78,0,0,0-2.89-.24,6.31,6.31,0,0,0-2.67.12l.51-.2a3.27,3.27,0,0,0-1.16.18,5.4,5.4,0,0,0-1.15.3,9.87,9.87,0,0,0,1.59-.24c.54,0,1.12.1,1.66.11a30.84,30.84,0,0,1,3.32.22c1.11.16,2.19.51,3.28.77A17,17,0,0,1,94.6,17c.41.13,1.13.55,1.55.39a10.89,10.89,0,0,0-2.87-1.2A20.15,20.15,0,0,0,90.42,15.46Z"/><path class="cls-22" d="M89.85,22.25l.11-.1s0,0,0,0Z"/><path class="cls-22" d="M90,22.13l.13-.15C90,22,90,22.09,90,22.13Z"/><path class="cls-22" d="M90.44,22.11c.34-.24.65-.55,1-.81a18.43,18.43,0,0,0,1.75-1.25A10.49,10.49,0,0,0,90,22.15C90,22.24,90.26,22.23,90.44,22.11Z"/><path class="cls-22" d="M75.11,28.86A13.42,13.42,0,0,0,73,28.15c-.69-.18-1.27-.54-1.94-.72s-1.32-.43-2-.61-1.29-.26-1.93-.41-1.3-.38-2-.5l1,.34a7.29,7.29,0,0,1-1.62-.58,5.58,5.58,0,0,0-1.78-.75,5.83,5.83,0,0,0-1.38,0c.67,0,1.21.7,1.87.9a14.49,14.49,0,0,1,2.22.75,11.14,11.14,0,0,0,1.16.66l1.13.41a11.36,11.36,0,0,1,1.15.44c.38.2.56.43,1,.46.08-.27.54-.69.86-.61s.57.42.84.5c0,0,.37.07.39.08s.18.27.27.31.37-.1.55-.06.27.16.41.2.16-.1.37,0c0,0,.3.23.36.27a1.9,1.9,0,0,0,.9.51c.38.06,1.61.4,1.85,0S75.42,29,75.11,28.86Z"/><path class="cls-22" d="M61,25c.13,0,.28,0,.42-.06A1.29,1.29,0,0,0,61,25Z"/><path class="cls-22" d="M109,30.43c.15,0,.2.13.36.13s.18-.15.27-.13.31.21.5.35c0-.09.18-.2.22-.28.26.16.36.25.64.17s.14-.24.43-.16.35.44.59.37.19-.38.28-.49c.32.14.48.54.73.65a2.07,2.07,0,0,1,.12-.56c.3.1.42.54.69.57.27-.56,0-.78.78-.87a4.43,4.43,0,0,1,1.36,0c-.63-.12-1.21-.38-1.84-.49-.33-.06-.61-.06-.94-.09s-.63-.26-.85-.16a.46.46,0,0,1,.25.37c-.4.12-.8-.27-1.11-.47a.32.32,0,0,1,0,.17c-.27.09-.35-.12-.57-.2s-.16-.05-.49,0a7.77,7.77,0,0,1-1.18,0c-.9,0-1.79-.07-2.69,0a6.69,6.69,0,0,0-1.55,0,15,15,0,0,1-1.6.4,11.6,11.6,0,0,0-1.74.33c-.38.1-.83.09-1.18.21l1.26-.08c-.31.19-.85.08-1.2.14l-1.22.23a5.66,5.66,0,0,0-1.24.23c-.47.2-.41.59.12.46a7.71,7.71,0,0,1,1.37-.39,6.5,6.5,0,0,1,.87-.12c.25,0,.37.17.59.24.53.14,1-.32,1.54-.31.24,0,.21.12.53,0s.54-.29.83-.29c-.15.92,1.34-.17,1.61-.13a.82.82,0,0,1-.11.5c.44.48,1.18-.83,1.69-.69.3.08.23.6.44.67s.29-.37.56-.43C108.21,30.72,108.65,30.34,109,30.43Z"/><path class="cls-22" d="M116,32.59l.47-.24c-.35,0-.89.22-.86.63.27.15.76-.2,1.06-.25a3.92,3.92,0,0,1,1.18.09,6.67,6.67,0,0,0,2.28.43C119.59,32.18,116.87,32,116,32.59Z"/><path class="cls-22" d="M114.45,33.69c-.84.59-1.79,1.18-2.57,1.84a16.62,16.62,0,0,0-2.17,2.27A6.51,6.51,0,0,0,108,40.36a27,27,0,0,0,1.81-2.15,15.49,15.49,0,0,1,2.45-2.05c.86-.55,1.67-1.17,2.52-1.73.37-.24.77-.47,1.16-.67s1-.16,1.07-.42a.62.62,0,0,0-.29-.12A4.72,4.72,0,0,0,114.45,33.69Z"/><path class="cls-22" d="M116.73,33.22h0Z"/><path class="cls-22" d="M138.62,32.39a9.35,9.35,0,0,0-3.27.84,7.54,7.54,0,0,1-2.11.43,8.81,8.81,0,0,1-2.05.14c-.77-.11-1.46-.15-2.23-.2a10.63,10.63,0,0,1-1.91-.46,16.89,16.89,0,0,0-4.07-.47l1.06,0c-.25,0-1.7-.24-1.77.11s1.31.81,1.57.86c.56.11,1.06.36,1.61.48s1.34.05,2,.2,1.43.46,2.16.61,1.49.16,2.22.29a5.37,5.37,0,0,0,2.15-.08,16.72,16.72,0,0,1,2.24-.09c.85,0,1.71,0,2.56-.06a2.49,2.49,0,0,0,1.39-.36C141.08,34,139.42,32.41,138.62,32.39Z"/><g class="cls-16"><path class="cls-5" d="M85.92,6a5.22,5.22,0,0,0-.77-1.59c0,.37-.22.23-.34.42s-.06.54-.26.76c-.09-.18-.11-.54-.29-.69s-.44-.11-.66-.19A11.79,11.79,0,0,1,82.09,4c-.83-.45-2.2-.2-2.83-.91a.78.78,0,0,1,.2.51c-.21,0-.28-.21-.46-.3a4.05,4.05,0,0,0-.47-.12,7.1,7.1,0,0,1-.94-.69C77,2.08,76.45,2,76.17,1.23l0,.23a5.67,5.67,0,0,1,.39.91c.16.32.4.62.59.92a5,5,0,0,0,1.63,1.65,10.09,10.09,0,0,1,1.85,1.33,23.08,23.08,0,0,1,1.67,2.29c-.3-1.17-1.08-2.51-1-3.76a17.92,17.92,0,0,1,.93,2.7,5.23,5.23,0,0,0,.62,1.14c.22.45.24.95.64,1.3a6.12,6.12,0,0,1,.75-1.72,8.41,8.41,0,0,0,.31-1.78,3.23,3.23,0,0,1-.18,2.35c-.24.42-1.13,1.72-.36,2.1.26-.22.59-.38.83-.62a8.72,8.72,0,0,0,.7-.88,2.79,2.79,0,0,0,.55-1.68A4.86,4.86,0,0,0,85.92,6Z"/></g><g class="cls-4"><path class="cls-5" d="M76.43,3.08a1,1,0,0,0-.06-.39A.71.71,0,0,0,76.43,3.08Z"/></g><g class="cls-4"><path class="cls-5" d="M74.77,7.89a1.55,1.55,0,0,0-.25-.48A1.48,1.48,0,0,0,74.77,7.89Z"/></g><g class="cls-4"><path class="cls-5" d="M83.53,10.9a2,2,0,0,0-.52-.83c-.34-.39-.92-1-1.41-.48-.23.24-.17.54-.25.83s-.18.54-.24.83c-.1.49-.59,1.41-1.15,1.5a5.81,5.81,0,0,0,1.2-2.8,3.5,3.5,0,0,0-1.18.37c-.44.25-.79.61-1.25.85a3.07,3.07,0,0,1-1.32.53c-.27,0-.87,0-1-.27a3.57,3.57,0,0,0,1.68-.24c.29-.13.5-.37.78-.53s.54-.1.62-.32A8.57,8.57,0,0,1,77.86,10a2,2,0,0,1-1-1.52,5,5,0,0,0,.87,1.32,3,3,0,0,0,1.58.37,2.49,2.49,0,0,0,1.57-.4c.25-.17.44-.41.7-.56s.42-.13.63-.23a12.56,12.56,0,0,1-.87-1.06c-.37-.52-.6-.35-1.15-.31a2.89,2.89,0,0,1-2.37-.83c.19-.08.46.15.65.27a1.29,1.29,0,0,0,.88.28,6,6,0,0,0,1.53-.08C80,6.48,79.32,5.59,78.4,4.88A10.54,10.54,0,0,1,77.07,4a3.55,3.55,0,0,1-.64-1c0,.26,0,.53,0,.74,0,.43.07.89.12,1.32.06.59.88,1.71-.16,1.65.06.07.07.18.12.26-.54.1-.65-.67-1.06-.71,0,.43.29.84.38,1.25s-.07.53,0,.79c-.2,0-.35-.13-.47-.29a.87.87,0,0,1,.15.51,2.42,2.42,0,0,1-.73-.71,13,13,0,0,1,.34,1.59,18.14,18.14,0,0,0,.49,2.06c.58,1.55,2.43,1.25,3.7,1.79-.13.17-.36.17-.56.19a3.14,3.14,0,0,0,2.38-.4c.76-.46,1.35-1.78,2.32-1.83l-.39.08C83.28,11.17,83.53,11.23,83.53,10.9Z"/></g></g></g></svg>