<svg width="144" height="64" viewBox="0 0 144 64" fill="none" xmlns="http://www.w3.org/2000/svg">
<path d="M143.186 40.1901C142.713 41.0563 142.635 42.08 142.32 41.135C142.005 40.1901 141.611 39.5601 140.351 39.4814C139.091 39.4814 132.555 39.5601 130.98 40.1901C129.484 40.82 125.94 42.8674 125.074 44.2849C124.287 45.7023 122.948 47.2772 121.609 48.0646C120.271 48.8521 117.593 51.6082 116.806 51.7657C116.097 52.0019 113.577 52.1594 112.554 52.9469C111.609 53.7343 110.113 55.4668 109.01 55.388C107.908 55.3093 106.569 55.5455 105.309 56.8842C104.049 58.2228 101.923 60.1915 100.427 60.2702C98.9307 60.349 97.6707 60.8215 97.3557 60.5852C97.0407 60.4277 95.5446 60.034 95.2296 60.2702C94.9933 60.5065 94.9146 61.0577 94.0484 60.349C93.2609 59.6403 78.063 50.742 77.4331 50.5845C76.8031 50.427 76.2519 50.5845 75.3857 49.7183C74.5982 48.8521 74.5195 48.0647 72.787 48.3009C71.0546 48.5372 70.9759 48.3797 70.2672 48.9309C69.6373 49.4821 69.086 49.5608 68.2198 49.5608C67.3536 49.4821 66.4874 48.4584 65.7787 48.6946C65.07 48.9309 63.9676 50.2696 63.9676 50.2696C63.9676 50.2696 63.5738 50.5845 63.1013 50.5058C62.5501 50.427 60.8177 49.3246 60.8177 49.3246C60.8177 49.3246 58.9278 47.041 57.8254 47.041C56.8017 47.1197 55.2268 47.1197 54.2818 47.6709C53.2581 48.2221 51.9982 47.4347 50.6595 47.5922C49.3208 47.7497 47.5884 47.4347 46.8797 47.5135C46.171 47.5922 44.4386 47.5134 44.0449 46.8835C43.6512 46.2535 43.0212 44.9936 42.5487 44.9936C41.9975 44.9936 41.84 46.3323 41.3675 46.3323C40.8951 46.2535 40.1863 45.3086 39.6351 45.6235C39.0839 45.8598 37.7452 46.411 36.9578 46.3323C36.1703 46.3323 34.7529 46.8047 34.5954 46.2535C34.4379 45.7023 34.8316 45.5448 34.3591 45.2298C33.8867 44.9148 33.5717 44.4424 33.3355 44.4424C33.0205 44.4424 32.3905 44.9936 32.7055 45.3085C33.0205 45.6235 33.4142 45.8598 33.0992 45.9385C32.7055 46.096 32.1543 46.4898 31.8393 46.1748C31.5243 45.8598 31.4456 45.6235 31.1306 45.7023C30.8156 45.8598 29.2407 46.6472 29.6344 47.1985C30.0281 47.6709 30.0281 48.5371 29.8707 49.0096C29.7132 49.4821 29.3194 50.427 29.0832 49.7183C28.847 49.0884 28.7682 48.7734 28.1382 48.7734C27.5083 48.7734 23.256 48.5372 22.941 49.0884C22.7048 49.6396 22.1536 50.6633 21.0511 50.6633C19.9487 50.742 19.3975 50.8208 18.7675 50.3483C18.2163 49.8758 17.9013 49.3246 17.2713 49.4821C16.6414 49.5608 16.0114 50.5058 15.8539 50.8207C15.6964 51.1357 14.909 52.6319 14.2003 52.5532C13.4916 52.4744 13.649 51.9232 12.7041 52.0019C11.7591 52.0807 10.6567 52.0807 10.263 52.6319C9.86925 53.1832 9.47551 53.8131 8.92429 53.8131C8.37307 53.8131 7.19189 53.5768 7.11315 54.3643C7.0344 55.1518 7.03439 56.2542 6.56192 56.2542C6.08945 56.2542 5.69573 56.2542 5.53823 56.7267C5.38074 57.1204 5.38073 57.9079 4.90825 57.7504C4.43578 57.5929 4.12081 56.8054 4.2783 56.018C4.43579 55.2305 4.19954 54.6793 3.72707 54.2856C3.25459 53.8918 2.15215 52.9469 2.0734 53.3406C1.99466 53.7343 1.99468 54.3643 1.60095 54.2856C1.20722 54.2068 0.734741 53.7343 0.734741 53.3406C0.734741 52.9469 1.36469 52.5532 1.67968 52.3169C1.99466 52.0807 2.30964 51.6869 2.46713 51.2145C2.54588 50.742 2.62463 50.0333 3.01836 49.8758C3.33335 49.7971 4.04207 49.5608 3.96332 48.8521C3.80583 48.1434 4.04207 46.5685 4.35705 46.096C4.67203 45.7023 6.64067 43.0249 7.50688 42.6312C8.45183 42.2375 8.84554 41.3713 8.84554 40.5838C8.84554 39.7176 9.31801 38.379 8.76679 38.064C8.21557 37.6702 8.05808 37.5915 8.05808 37.1977C8.05808 36.8828 8.45181 36.4103 8.05808 36.2528C7.7431 36.0953 7.11313 35.7016 8.37306 35.3079C9.71174 34.9141 9.79049 34.9141 10.4205 33.9692C10.9717 33.0242 13.2553 29.5594 12.7828 28.3782C12.3891 27.197 11.4442 25.7009 11.8379 25.3072C12.2316 24.9134 12.5466 24.441 12.1529 24.126C11.7591 23.7322 11.2867 23.5748 11.6804 23.1023C12.0741 22.6298 12.2316 22.3936 12.1529 21.6061C12.0741 20.8186 11.9166 20.1099 12.5466 19.8737C13.1766 19.5587 13.5703 19.0862 14.0428 18.1413C14.594 17.2751 17.5863 12.5503 17.4288 11.2117C17.3501 10.2667 17.2713 8.84928 17.3501 7.6681C18.6888 7.82559 21.5236 8.29806 21.8386 9.47924C22.2323 10.9754 23.0985 13.574 24.3585 13.8103C25.6184 14.1252 30.5006 15.3065 31.5243 15.4639C32.548 15.6214 33.3355 15.6214 33.8867 15.2277C34.4379 14.9127 37.4302 12.7078 38.5327 12.9441C39.5564 13.1803 49.9508 15.3064 49.9508 15.3064L54.1244 10.8967C54.1244 10.8967 60.2665 11.0542 60.3452 11.0542C60.424 11.0542 63.3376 9.16429 63.4163 9.16429C63.4951 9.16429 66.5662 11.9204 66.3299 13.2591C66.0937 14.6765 65.5425 16.4876 66.8024 16.8026C68.0623 17.1176 77.0394 19.7949 78.1418 20.1099C79.2442 20.4249 84.2839 22.2361 85.1501 21.9211C86.0163 21.6061 93.1822 18.7712 91.5286 17.905C89.9537 17.1176 89.2449 16.4876 90.3474 15.6214C91.4498 14.7552 92.001 14.5977 92.8672 14.5977C93.7334 14.5977 100.663 15.2277 100.112 14.1253C99.5606 13.0228 99.9543 12.8653 100.112 12.1566C100.348 11.3692 100.427 10.4242 100.978 10.4242C101.608 10.4242 103.262 10.9754 103.577 10.188C103.892 9.40051 104.443 8.37682 105.388 8.21933C106.254 8.06184 112.711 6.88065 114.444 5.46323C116.255 4.04581 117.2 2.78585 118.538 3.17958C119.798 3.65206 123.342 5.14824 123.972 4.51827C124.68 3.8883 126.649 1.44718 127.673 1.60467C128.697 1.76216 130.35 2.23464 131.138 1.76217C131.768 1.36844 133.343 0.580984 134.681 0.187256C135.862 2.62837 137.359 5.22697 137.516 5.93568C137.752 6.88063 139.012 11.6054 138.933 13.2591C138.776 14.9915 138.618 21.6849 139.248 22.9448C139.878 24.126 142.241 26.2521 141.532 27.827C140.902 29.3232 139.878 31.1343 140.508 32.2368C141.138 33.3392 142.241 34.6779 141.768 35.6228C141.296 36.5678 141.138 37.0403 141.453 37.3552C141.847 37.749 143.658 39.4026 143.186 40.1901Z" fill="#B07420"/>
<path d="M98.9306 62.7903C98.8519 62.7903 98.6944 62.7116 98.6157 62.7116C98.5369 62.6328 98.3794 62.5541 98.3794 62.3966C98.3007 62.2391 98.5369 62.1604 98.6944 62.0816C98.7732 62.0816 98.8519 62.0028 98.9306 62.0028C99.0094 61.9241 99.0882 61.9241 99.2456 61.8453C99.4031 61.8453 99.5606 62.0029 99.7181 62.0816C99.7968 62.1604 99.8756 62.1603 99.9543 62.1603C100.033 62.1603 100.112 62.2391 100.191 62.2391C100.348 62.2391 100.506 62.1603 100.663 62.1603C100.821 62.1603 101.057 62.1603 101.214 62.2391C101.451 62.3178 101.372 62.6328 101.214 62.7903C101.057 62.9478 100.821 62.9478 100.584 63.0265C100.348 63.1053 100.112 63.1053 99.8756 63.0265C99.7969 63.0265 99.7968 63.0265 99.7181 63.0265C99.4819 62.9478 99.1669 62.869 98.9306 62.7903Z" fill="#0082D2"/>
<path d="M103.97 61.4515C103.892 61.5302 103.813 61.5302 103.655 61.5302C103.577 61.5302 103.577 61.5302 103.498 61.5302C103.419 61.5302 103.419 61.5302 103.34 61.5302C103.183 61.4515 103.183 61.3727 103.262 61.2152C103.262 61.0578 103.498 60.979 103.577 60.9003C103.734 60.8215 103.813 60.7428 103.892 60.664C103.97 60.5853 103.97 60.5065 104.049 60.4278C104.128 60.349 104.285 60.2703 104.364 60.1916C104.443 60.1128 104.522 60.0341 104.6 60.0341C104.679 60.0341 104.758 60.0341 104.758 60.0341C104.837 60.0341 104.994 60.0341 104.994 60.1128C104.994 60.1916 104.915 60.2703 104.915 60.3491C104.837 60.5066 104.837 60.5853 104.758 60.7428C104.679 60.9003 104.522 60.9003 104.443 60.979C104.364 61.0578 104.285 61.1365 104.285 61.2152C104.285 61.2152 104.128 61.3727 103.97 61.4515Z" fill="#0082D2"/>
<path d="M103.734 59.7978H103.655C103.577 59.7978 103.577 59.7978 103.498 59.7978C103.419 59.7978 103.34 59.7978 103.262 59.7978C103.183 59.5616 103.655 59.4041 103.813 59.3254C103.892 59.3254 104.049 59.2466 104.128 59.1679C104.207 59.0891 104.285 59.0104 104.285 58.9316C104.364 58.8529 104.522 58.6954 104.679 58.7741C104.836 58.8529 104.837 59.0891 104.758 59.1679C104.6 59.3254 104.443 59.4828 104.285 59.6403C104.207 59.6403 104.128 59.6404 104.049 59.7191C103.892 59.7979 103.813 59.7978 103.734 59.7978Z" fill="#0082D2"/>
<path d="M106.333 59.3252C106.254 59.4039 106.175 59.4039 106.096 59.4827C106.018 59.4827 105.86 59.4827 105.781 59.4039C105.703 59.3252 105.703 59.2464 105.703 59.0889C105.703 59.0102 105.703 58.8527 105.703 58.774C105.703 58.6952 105.703 58.6165 105.781 58.5377C105.781 58.459 105.86 58.459 105.86 58.3802C105.86 58.3015 105.86 58.144 105.939 58.0652C106.175 57.6715 106.569 57.3565 106.963 57.1991C107.041 57.1203 107.12 57.1203 107.278 57.0416C107.356 56.9628 107.514 56.8841 107.593 56.8841C107.75 56.8053 107.986 56.7266 108.144 56.6478C108.223 56.6478 108.301 56.6478 108.38 56.6478C108.459 56.6478 108.538 56.6478 108.616 56.6478C108.853 56.6478 109.01 56.7266 109.089 56.9628C109.168 57.1203 109.168 57.1991 109.168 57.3566C109.089 57.5928 108.853 57.7503 108.616 57.829C108.538 57.829 108.459 57.829 108.38 57.9077C108.223 57.9865 108.144 58.0653 107.986 58.144C107.829 58.3015 107.593 58.3015 107.435 58.459C107.199 58.6165 106.963 58.774 106.726 59.0102C106.648 59.0889 106.569 59.2465 106.49 59.3252C106.411 59.3252 106.333 59.3252 106.333 59.3252Z" fill="#0082D2"/>
<path d="M110.585 56.8055C110.427 56.8842 110.349 56.8842 110.191 56.963C110.112 57.0417 110.034 57.1204 109.876 57.1992C109.798 57.1992 109.64 57.1992 109.64 57.1992C109.561 57.1204 109.561 56.9629 109.561 56.8842C109.561 56.7267 109.64 56.648 109.719 56.5692C109.798 56.4117 109.876 56.333 110.034 56.1755C110.27 55.9393 110.585 55.8605 110.9 55.7818C111.215 55.6243 111.451 55.388 111.687 55.2305C111.845 55.1518 112.081 55.073 112.239 54.9155C112.317 54.8368 112.396 54.6793 112.554 54.6006C112.711 54.4431 112.869 54.2068 113.105 54.3643C113.341 54.4431 113.262 54.758 113.262 54.9155C113.184 55.073 113.105 55.2306 112.947 55.388C112.79 55.6243 112.554 55.7818 112.317 56.018C112.239 56.0967 112.081 56.1755 112.002 56.2542C111.845 56.333 111.766 56.4117 111.609 56.4905C111.53 56.4905 111.451 56.4905 111.451 56.4905C111.294 56.5692 111.136 56.5692 110.979 56.648C110.9 56.7267 110.742 56.7267 110.585 56.8055Z" fill="#0082D2"/>
<path d="M117.593 53.4194C117.908 53.2619 118.223 53.1832 118.538 53.0257C119.247 52.632 119.72 51.9233 120.192 51.2933C120.428 50.9783 120.743 50.5846 121.058 50.2696C121.294 50.0334 121.609 49.7971 121.924 49.5609C122.239 49.3246 122.554 49.0884 122.869 48.8522C123.027 48.6947 123.263 48.3797 123.184 48.1435C123.106 47.9072 122.791 47.9859 122.554 48.0647C122.161 48.2222 121.846 48.4585 121.609 48.6947C121.058 49.2459 120.586 49.8758 120.113 50.4271C119.72 50.8208 119.483 51.372 119.09 51.687C118.538 52.1595 117.83 52.3957 117.121 52.5532C116.806 52.632 116.491 52.632 116.176 52.7107C115.861 52.7895 115.546 52.9469 115.231 53.1044C114.916 53.3407 114.207 53.7344 114.601 54.2069C114.916 54.5219 115.467 54.4431 115.861 54.2856C116.176 54.2069 116.491 54.0494 116.648 53.8919C117.042 53.6557 117.357 53.4982 117.593 53.4194Z" fill="#0082D2"/>
<path d="M125.626 46.4899C125.704 46.4111 125.704 46.2536 125.704 46.0961C125.704 45.9386 125.783 45.8599 125.862 45.7024C125.94 45.5449 125.94 45.3874 126.019 45.3087C126.098 45.1512 126.177 45.0724 126.255 44.9149C126.334 44.7574 126.413 44.6787 126.492 44.6C126.649 44.4425 126.885 44.285 127.043 44.2063C127.2 44.1275 127.83 43.97 127.673 43.7337C127.594 43.5763 127.358 43.655 127.2 43.7337C127.043 43.8125 126.885 43.8913 126.728 43.97C126.492 44.1275 126.255 44.2062 126.019 44.4425C125.783 44.7575 125.626 45.0724 125.468 45.4662C125.389 45.7024 125.232 45.9387 125.074 46.1749C124.917 46.3324 124.759 46.4899 124.602 46.6474C124.444 46.8048 124.366 46.9623 124.287 47.1986C124.287 47.2773 124.208 47.3561 124.287 47.4348C124.366 47.5136 124.523 47.5923 124.681 47.5136C124.838 47.5136 124.996 47.4348 125.074 47.3561L125.153 47.2773C125.232 47.1986 125.389 47.0411 125.468 46.9624C125.468 46.7261 125.547 46.6473 125.626 46.4899Z" fill="#0082D2"/>
</svg>
