<svg xmlns="http://www.w3.org/2000/svg" viewBox="0 0 158.15 79.46"><defs><style>.cls-1{isolation:isolate;}.cls-2{fill:#faa763;}.cls-3{fill:#dbbcb2;}.cls-11,.cls-3{opacity:0.55;mix-blend-mode:multiply;}.cls-4{fill:#ebead6;}.cls-5{fill:#838a9d;}.cls-6{fill:#c2b8a4;}.cls-7{fill:#5e2a24;}.cls-8{fill:#95413f;}.cls-9{fill:#c5573f;}.cls-10{fill:#65af1c;}.cls-11{fill:#abbcb2;}.cls-12{fill:#a0663f;}.cls-13{fill:#f9926f;}.cls-14{fill:#ffc310;}.cls-15{fill:#4e4331;}.cls-16{fill:#e18e16;}.cls-17{fill:#df9d15;}</style></defs><g class="cls-1"><g id="Layer_2" data-name="Layer 2"><g id="Layer_1-2" data-name="Layer 1"><rect class="cls-2" x="67.22" y="28.87" width="61.59" height="50.59"/><rect class="cls-3" x="67.22" y="28.87" width="3.6" height="50.59"/><rect class="cls-3" x="126.48" y="28.87" width="2.34" height="50.59"/><rect class="cls-3" x="67.22" y="28.87" width="12.71" height="1.82"/><rect class="cls-3" x="117.52" y="28.87" width="11.29" height="1.82"/><rect class="cls-4" x="71.57" y="37.35" width="6.47" height="9.44"/><rect class="cls-5" x="72.3" y="38.14" width="5.01" height="7.88"/><rect class="cls-4" x="74.57" y="37.77" width="0.47" height="8.61"/><rect class="cls-4" x="72" y="40.25" width="5.58" height="0.57"/><rect class="cls-4" x="72" y="43.44" width="5.58" height="0.57"/><rect class="cls-4" x="83.61" y="37.35" width="6.47" height="9.44"/><rect class="cls-5" x="84.33" y="38.14" width="5.01" height="7.88"/><rect class="cls-4" x="86.6" y="37.77" width="0.47" height="8.61"/><rect class="cls-4" x="84.03" y="40.25" width="5.58" height="0.57"/><rect class="cls-4" x="84.03" y="43.44" width="5.58" height="0.57"/><rect class="cls-4" x="95.64" y="37.35" width="6.47" height="9.44"/><rect class="cls-5" x="96.37" y="38.14" width="5.01" height="7.88"/><rect class="cls-4" x="98.64" y="37.77" width="0.47" height="8.61"/><rect class="cls-4" x="96.07" y="40.25" width="5.58" height="0.57"/><rect class="cls-4" x="96.07" y="43.44" width="5.58" height="0.57"/><rect class="cls-4" x="71.57" y="56.47" width="6.47" height="9.44"/><rect class="cls-5" x="72.3" y="57.25" width="5.01" height="7.88"/><rect class="cls-4" x="74.57" y="56.88" width="0.47" height="8.61"/><rect class="cls-4" x="72" y="59.36" width="5.58" height="0.57"/><rect class="cls-4" x="72" y="62.55" width="5.58" height="0.57"/><rect class="cls-4" x="83.61" y="56.47" width="6.47" height="9.44"/><rect class="cls-5" x="84.33" y="57.25" width="5.01" height="7.88"/><rect class="cls-4" x="86.6" y="56.88" width="0.47" height="8.61"/><rect class="cls-4" x="84.03" y="59.36" width="5.58" height="0.57"/><rect class="cls-4" x="84.03" y="62.55" width="5.58" height="0.57"/><rect class="cls-4" x="95.64" y="56.47" width="6.47" height="9.44"/><rect class="cls-5" x="96.37" y="57.25" width="5.01" height="7.88"/><rect class="cls-4" x="98.64" y="56.88" width="0.47" height="8.61"/><rect class="cls-4" x="96.07" y="59.36" width="5.58" height="0.57"/><rect class="cls-4" x="96.07" y="62.55" width="5.58" height="0.57"/><rect class="cls-4" x="107.68" y="37.35" width="6.47" height="9.44"/><rect class="cls-5" x="108.4" y="38.14" width="5.01" height="7.88"/><rect class="cls-4" x="110.67" y="37.77" width="0.47" height="8.61"/><rect class="cls-4" x="108.1" y="40.25" width="5.58" height="0.57"/><rect class="cls-4" x="108.1" y="43.44" width="5.58" height="0.57"/><rect class="cls-4" x="119.71" y="37.35" width="6.47" height="9.44"/><rect class="cls-5" x="120.44" y="38.14" width="5.01" height="7.88"/><rect class="cls-4" x="122.71" y="37.77" width="0.47" height="8.61"/><rect class="cls-4" x="120.14" y="40.25" width="5.58" height="0.57"/><rect class="cls-4" x="120.14" y="43.44" width="5.58" height="0.57"/><rect class="cls-4" x="107.68" y="56.47" width="6.47" height="9.44"/><rect class="cls-5" x="108.4" y="57.25" width="5.01" height="7.88"/><rect class="cls-4" x="110.67" y="56.88" width="0.47" height="8.61"/><rect class="cls-4" x="108.1" y="59.36" width="5.58" height="0.57"/><rect class="cls-4" x="108.1" y="62.55" width="5.58" height="0.57"/><rect class="cls-4" x="119.71" y="56.47" width="6.47" height="9.44"/><rect class="cls-5" x="120.44" y="57.25" width="5.01" height="7.88"/><rect class="cls-4" x="122.71" y="56.88" width="0.47" height="8.61"/><rect class="cls-4" x="120.14" y="59.36" width="5.58" height="0.57"/><rect class="cls-4" x="120.14" y="62.55" width="5.58" height="0.57"/><rect class="cls-4" x="90.69" y="68.11" width="7.17" height="11.35"/><rect class="cls-6" x="90.69" y="68.11" width="7.17" height="0.69"/><rect class="cls-7" x="91.57" y="69.44" width="5.41" height="10.02"/><rect class="cls-8" x="92.21" y="70.2" width="4.13" height="9.26"/><rect class="cls-4" x="89.91" y="67.23" width="8.73" height="1.07"/><rect class="cls-9" x="60.62" y="15.09" width="74.41" height="14.13"/><path class="cls-2" d="M117.28,20.93a7.67,7.67,0,0,1-4.55-2.28c-1.23-1.26-2.63-2.28-3.81-3.56H88A25.24,25.24,0,0,1,83.62,19,9.66,9.66,0,0,1,80,21v8.26h37.59V20.93A2.25,2.25,0,0,1,117.28,20.93Z"/><rect class="cls-10" x="128.82" y="10.73" width="28" height="68.73"/><rect class="cls-4" x="128.82" y="48.15" width="28" height="3.02"/><rect class="cls-11" x="128.82" y="10.73" width="28" height="2.47"/><rect class="cls-4" x="133.56" y="16.42" width="6.47" height="9.44"/><rect class="cls-5" x="134.29" y="17.2" width="5.01" height="7.88"/><rect class="cls-4" x="136.56" y="16.84" width="0.47" height="8.61"/><rect class="cls-4" x="133.99" y="19.32" width="5.58" height="0.57"/><rect class="cls-4" x="133.99" y="22.5" width="5.58" height="0.57"/><rect class="cls-4" x="145.6" y="16.42" width="6.47" height="9.44"/><rect class="cls-5" x="146.33" y="17.2" width="5.01" height="7.88"/><rect class="cls-4" x="148.6" y="16.84" width="0.47" height="8.61"/><rect class="cls-4" x="146.03" y="19.32" width="5.58" height="0.57"/><rect class="cls-4" x="146.03" y="22.5" width="5.58" height="0.57"/><rect class="cls-4" x="133.56" y="35.53" width="6.47" height="9.44"/><rect class="cls-5" x="134.29" y="36.31" width="5.01" height="7.88"/><rect class="cls-4" x="136.56" y="35.95" width="0.47" height="8.61"/><rect class="cls-4" x="133.99" y="38.43" width="5.58" height="0.57"/><rect class="cls-4" x="133.99" y="41.61" width="5.58" height="0.57"/><rect class="cls-4" x="145.6" y="35.53" width="6.47" height="9.44"/><rect class="cls-5" x="146.33" y="36.31" width="5.01" height="7.88"/><rect class="cls-4" x="148.6" y="35.95" width="0.47" height="8.61"/><rect class="cls-4" x="146.03" y="38.43" width="5.58" height="0.57"/><rect class="cls-4" x="146.03" y="41.61" width="5.58" height="0.57"/><rect class="cls-4" x="133.56" y="54.64" width="6.47" height="9.44"/><rect class="cls-5" x="134.29" y="55.42" width="5.01" height="7.88"/><rect class="cls-4" x="136.56" y="55.06" width="0.47" height="8.61"/><rect class="cls-4" x="133.99" y="57.54" width="5.58" height="0.57"/><rect class="cls-4" x="133.99" y="60.72" width="5.58" height="0.57"/><rect class="cls-4" x="145.6" y="54.64" width="6.47" height="9.44"/><rect class="cls-5" x="146.33" y="55.42" width="5.01" height="7.88"/><rect class="cls-4" x="148.6" y="55.06" width="0.47" height="8.61"/><rect class="cls-4" x="146.03" y="57.54" width="5.58" height="0.57"/><rect class="cls-4" x="146.03" y="60.72" width="5.58" height="0.57"/><rect class="cls-4" x="139.23" y="68.11" width="7.17" height="11.35"/><rect class="cls-6" x="139.23" y="68.11" width="7.17" height="0.69"/><rect class="cls-7" x="140.11" y="69.44" width="5.41" height="10.02"/><rect class="cls-8" x="140.75" y="70.2" width="4.13" height="9.26"/><rect class="cls-4" x="138.45" y="67.23" width="8.73" height="1.07"/><polygon class="cls-12" points="158.15 11.19 127.48 11.19 131.92 0 153.71 0 158.15 11.19"/><rect class="cls-13" y="10.73" width="28" height="68.73"/><rect class="cls-11" x="25.23" y="10.73" width="2.77" height="68.73"/><rect class="cls-11" y="10.73" width="28" height="2.47"/><rect class="cls-4" x="4.75" y="16.42" width="6.47" height="9.44"/><rect class="cls-5" x="5.47" y="17.2" width="5.01" height="7.88"/><rect class="cls-4" x="7.74" y="16.84" width="0.47" height="8.61"/><rect class="cls-4" x="5.17" y="19.32" width="5.58" height="0.57"/><rect class="cls-4" x="5.17" y="22.5" width="5.58" height="0.57"/><rect class="cls-4" x="16.78" y="16.42" width="6.47" height="9.44"/><rect class="cls-5" x="17.51" y="17.2" width="5.01" height="7.88"/><rect class="cls-4" x="19.78" y="16.84" width="0.47" height="8.61"/><rect class="cls-4" x="17.21" y="19.32" width="5.58" height="0.57"/><rect class="cls-4" x="17.21" y="22.5" width="5.58" height="0.57"/><rect class="cls-4" x="4.75" y="35.53" width="6.47" height="9.44"/><rect class="cls-5" x="5.47" y="36.31" width="5.01" height="7.88"/><rect class="cls-4" x="7.74" y="35.95" width="0.47" height="8.61"/><rect class="cls-4" x="5.17" y="38.43" width="5.58" height="0.57"/><rect class="cls-4" x="5.17" y="41.61" width="5.58" height="0.57"/><rect class="cls-4" x="16.78" y="35.53" width="6.47" height="9.44"/><rect class="cls-5" x="17.51" y="36.31" width="5.01" height="7.88"/><rect class="cls-4" x="19.78" y="35.95" width="0.47" height="8.61"/><rect class="cls-4" x="17.21" y="38.43" width="5.58" height="0.57"/><rect class="cls-4" x="17.21" y="41.61" width="5.58" height="0.57"/><rect class="cls-4" x="4.75" y="54.64" width="6.47" height="9.44"/><rect class="cls-5" x="5.47" y="55.42" width="5.01" height="7.88"/><rect class="cls-4" x="7.74" y="55.06" width="0.47" height="8.61"/><rect class="cls-4" x="5.17" y="57.54" width="5.58" height="0.57"/><rect class="cls-4" x="5.17" y="60.72" width="5.58" height="0.57"/><rect class="cls-4" x="16.78" y="54.64" width="6.47" height="9.44"/><rect class="cls-5" x="17.51" y="55.42" width="5.01" height="7.88"/><rect class="cls-4" x="19.78" y="55.06" width="0.47" height="8.61"/><rect class="cls-4" x="17.21" y="57.54" width="5.58" height="0.57"/><rect class="cls-4" x="17.21" y="60.72" width="5.58" height="0.57"/><rect class="cls-4" x="10.41" y="68.11" width="7.17" height="11.35"/><rect class="cls-6" x="10.41" y="68.11" width="7.17" height="0.69"/><rect class="cls-7" x="11.29" y="69.44" width="5.41" height="10.02"/><rect class="cls-8" x="11.93" y="70.2" width="4.13" height="9.26"/><rect class="cls-4" x="9.63" y="67.23" width="8.73" height="1.07"/><polygon class="cls-12" points="0 3.35 0 11.19 42.26 11.07 42.26 3.35 0 3.35"/><rect class="cls-14" x="28" y="10.73" width="39.23" height="68.73"/><rect class="cls-3" x="28" y="10.73" width="39.23" height="2.47"/><rect class="cls-4" x="32.35" y="18.24" width="6.47" height="9.44"/><rect class="cls-5" x="33.08" y="19.03" width="5.01" height="7.88"/><rect class="cls-4" x="35.35" y="18.66" width="0.47" height="8.61"/><rect class="cls-4" x="32.78" y="21.14" width="5.58" height="0.57"/><rect class="cls-4" x="32.78" y="24.33" width="5.58" height="0.57"/><rect class="cls-4" x="44.39" y="18.24" width="6.47" height="9.44"/><rect class="cls-5" x="45.11" y="19.03" width="5.01" height="7.88"/><rect class="cls-4" x="47.38" y="18.66" width="0.47" height="8.61"/><rect class="cls-4" x="44.81" y="21.14" width="5.58" height="0.57"/><rect class="cls-4" x="44.81" y="24.33" width="5.58" height="0.57"/><rect class="cls-4" x="56.42" y="18.24" width="6.47" height="9.44"/><rect class="cls-5" x="57.15" y="19.03" width="5.01" height="7.88"/><rect class="cls-4" x="59.42" y="18.66" width="0.47" height="8.61"/><rect class="cls-4" x="56.85" y="21.14" width="5.58" height="0.57"/><rect class="cls-4" x="56.85" y="24.33" width="5.58" height="0.57"/><rect class="cls-4" x="32.35" y="37.35" width="6.47" height="9.44"/><rect class="cls-5" x="33.08" y="38.14" width="5.01" height="7.88"/><rect class="cls-4" x="35.35" y="37.77" width="0.47" height="8.61"/><rect class="cls-4" x="32.78" y="40.25" width="5.58" height="0.57"/><rect class="cls-4" x="32.78" y="43.44" width="5.58" height="0.57"/><rect class="cls-4" x="44.39" y="37.35" width="6.47" height="9.44"/><rect class="cls-5" x="45.11" y="38.14" width="5.01" height="7.88"/><rect class="cls-4" x="47.38" y="37.77" width="0.47" height="8.61"/><rect class="cls-4" x="44.81" y="40.25" width="5.58" height="0.57"/><rect class="cls-4" x="44.81" y="43.44" width="5.58" height="0.57"/><rect class="cls-4" x="56.42" y="37.35" width="6.47" height="9.44"/><rect class="cls-5" x="57.15" y="38.14" width="5.01" height="7.88"/><rect class="cls-4" x="59.42" y="37.77" width="0.47" height="8.61"/><rect class="cls-4" x="56.85" y="40.25" width="5.58" height="0.57"/><rect class="cls-4" x="56.85" y="43.44" width="5.58" height="0.57"/><rect class="cls-4" x="32.35" y="56.47" width="6.47" height="9.44"/><rect class="cls-5" x="33.08" y="57.25" width="5.01" height="7.88"/><rect class="cls-4" x="35.35" y="56.88" width="0.47" height="8.61"/><rect class="cls-4" x="32.78" y="59.36" width="5.58" height="0.57"/><rect class="cls-4" x="32.78" y="62.55" width="5.58" height="0.57"/><rect class="cls-4" x="44.39" y="56.47" width="6.47" height="9.44"/><rect class="cls-5" x="45.11" y="57.25" width="5.01" height="7.88"/><rect class="cls-4" x="47.38" y="56.88" width="0.47" height="8.61"/><rect class="cls-4" x="44.81" y="59.36" width="5.58" height="0.57"/><rect class="cls-4" x="44.81" y="62.55" width="5.58" height="0.57"/><rect class="cls-4" x="56.42" y="56.47" width="6.47" height="9.44"/><rect class="cls-5" x="57.15" y="57.25" width="5.01" height="7.88"/><rect class="cls-4" x="59.42" y="56.88" width="0.47" height="8.61"/><rect class="cls-4" x="56.85" y="59.36" width="5.58" height="0.57"/><rect class="cls-4" x="56.85" y="62.55" width="5.58" height="0.57"/><rect class="cls-15" x="26.96" y="49.54" width="41.32" height="1.76"/><rect class="cls-4" x="51.47" y="68.11" width="7.17" height="11.35"/><rect class="cls-6" x="51.47" y="68.11" width="7.17" height="0.69"/><rect class="cls-7" x="52.35" y="69.44" width="5.41" height="10.02"/><rect class="cls-8" x="52.99" y="70.2" width="4.13" height="9.26"/><rect class="cls-4" x="50.69" y="67.23" width="8.73" height="1.07"/><polygon class="cls-16" points="68.04 11.19 27.2 11.19 33.1 0 62.13 0 68.04 11.19"/><rect class="cls-4" x="41.84" y="3.31" width="3.69" height="5.39"/><rect class="cls-5" x="42.26" y="3.76" width="2.86" height="4.5"/><rect class="cls-4" x="43.55" y="3.55" width="0.27" height="4.91"/><rect class="cls-4" x="42.09" y="4.97" width="3.19" height="0.33"/><rect class="cls-4" x="42.09" y="6.79" width="3.19" height="0.33"/><rect class="cls-4" x="49.7" y="3.31" width="3.69" height="5.39"/><rect class="cls-5" x="50.12" y="3.76" width="2.86" height="4.5"/><rect class="cls-4" x="51.41" y="3.55" width="0.27" height="4.91"/><rect class="cls-4" x="49.95" y="4.97" width="3.19" height="0.33"/><rect class="cls-4" x="49.95" y="6.79" width="3.19" height="0.33"/><rect class="cls-4" x="137.04" y="3.31" width="3.69" height="5.39"/><rect class="cls-5" x="137.46" y="3.76" width="2.86" height="4.5"/><rect class="cls-4" x="138.75" y="3.55" width="0.27" height="4.91"/><rect class="cls-4" x="137.28" y="4.97" width="3.19" height="0.33"/><rect class="cls-4" x="137.28" y="6.79" width="3.19" height="0.33"/><rect class="cls-4" x="144.9" y="3.31" width="3.69" height="5.39"/><rect class="cls-5" x="145.31" y="3.76" width="2.86" height="4.5"/><rect class="cls-4" x="146.61" y="3.55" width="0.27" height="4.91"/><rect class="cls-4" x="145.14" y="4.97" width="3.19" height="0.33"/><rect class="cls-4" x="145.14" y="6.79" width="3.19" height="0.33"/><polygon class="cls-4" points="98.86 4.96 78.58 21.44 98.86 21.44 119.14 21.44 98.86 4.96"/><polygon class="cls-17" points="98.86 7.2 84.07 19.61 98.86 19.61 113.65 19.61 98.86 7.2"/><rect class="cls-4" x="97.27" y="12.26" width="3.18" height="4.65"/><rect class="cls-5" x="97.63" y="12.64" width="2.47" height="3.88"/><rect class="cls-4" x="98.74" y="12.46" width="0.23" height="4.24"/><rect class="cls-4" x="97.48" y="13.69" width="2.75" height="0.28"/><rect class="cls-4" x="97.48" y="15.26" width="2.75" height="0.28"/><rect class="cls-4" x="85.24" y="23.75" width="3.68" height="5.37"/><rect class="cls-5" x="85.65" y="24.19" width="2.85" height="4.48"/><rect class="cls-4" x="86.94" y="23.99" width="0.27" height="4.9"/><rect class="cls-4" x="85.48" y="25.4" width="3.18" height="0.33"/><rect class="cls-4" x="85.48" y="27.21" width="3.18" height="0.33"/><rect class="cls-4" x="97.27" y="23.75" width="3.68" height="5.37"/><rect class="cls-5" x="97.68" y="24.19" width="2.85" height="4.48"/><rect class="cls-4" x="98.98" y="23.99" width="0.27" height="4.9"/><rect class="cls-4" x="97.51" y="25.4" width="3.18" height="0.33"/><rect class="cls-4" x="97.51" y="27.21" width="3.18" height="0.33"/><rect class="cls-4" x="109.31" y="23.75" width="3.68" height="5.37"/><rect class="cls-5" x="109.72" y="24.19" width="2.85" height="4.48"/><rect class="cls-4" x="111.01" y="23.99" width="0.27" height="4.9"/><rect class="cls-4" x="109.55" y="25.4" width="3.18" height="0.33"/><rect class="cls-4" x="109.55" y="27.21" width="3.18" height="0.33"/></g></g></g></svg>