<svg xmlns="http://www.w3.org/2000/svg" viewBox="0 0 1507.69 1167.46"><defs><style>.cls-1{fill:#e2a476;}.cls-2{fill:#e06d20;}.cls-3{fill:#e57428;}.cls-4{fill:#ef7e29;}.cls-5{fill:#f8fbff;}.cls-6{fill:#f99746;}.cls-7{fill:#c5ddff;}.cls-8{fill:#fcecdb;}.cls-9{fill:#f9c495;}.cls-10{fill:#233862;}.cls-11{fill:#2a4e96;}.cls-12{fill:#699dee;}.cls-13{fill:#ffb27d;}.cls-14{fill:#ed975d;}.cls-15{fill:#b74b42;}.cls-16{fill:#fff;}.cls-17{fill:#35488b;}.cls-18{fill:#e58638;}.cls-19{fill:#f1a34f;}.cls-20{fill:#c66b28;}.cls-21{fill:#d2e6f7;}.cls-22{fill:#ee9849;}.cls-23{fill:#cc6a21;}</style></defs><g id="Layer_2" data-name="Layer 2"><g id="Слой_1" data-name="Слой 1"><path class="cls-1" d="M1088.39,59.46h0a5.87,5.87,0,0,0,6.82-4.71h0L1104.07,7A5.92,5.92,0,0,0,1099.4.1h0a5.86,5.86,0,0,0-6.83,4.7v0l-8.86,47.74A5.93,5.93,0,0,0,1088.39,59.46Z"/><path class="cls-2" d="M1075.86,145.33s287.57,14,431.83,245.15c0,0-155.48-38.27-246.27-.31C1261.39,390.17,1192.78,218.08,1075.86,145.33Z"/><path class="cls-3" d="M1261.39,390.17s-189.25-57.52-227.88-21.27l42.35-223.57S1235.08,245.55,1261.39,390.17Z"/><path class="cls-2" d="M1075,145.17S801.91,53.1,584.59,215.84c0,0,158.66,21.16,229.69,89.74C814.28,305.58,939.94,170.25,1075,145.17Z"/><path class="cls-3" d="M814.28,305.58s197.05,15.6,220.08,63.48L1075,145.17S890.66,180.39,814.28,305.58Z"/><path class="cls-1" d="M937.07,868.05l2.55.49a9.58,9.58,0,0,0,11.13-7.69l130.7-704.67a9.64,9.64,0,0,0-7.62-11.23l-2.55-.49a9.58,9.58,0,0,0-11.13,7.69L929.45,856.82A9.65,9.65,0,0,0,937.07,868.05Z"/><path class="cls-4" d="M1507.68,390.47c-.58-.85-76.42-110-188.11-129.81h0c-.1-.79-2.2-17.58-11-42A280.57,280.57,0,0,0,1226,99.55c-28-23.73-64.23-45.11-111.07-59.85,77.52,19.56,140.3,49.28,191,83.32h0a522.39,522.39,0,0,1,103.47,91.15h0C1486.94,303.42,1507.48,389.26,1507.68,390.47Z"/><path class="cls-4" d="M1066.73,31.29c-41.39-2.85-77,1.53-107.31,10.22a253.51,253.51,0,0,0-113,67.23c-27.64,28.42-39.49,53.89-39.93,54.82h0c-111.24-22.32-221,51.67-221.89,52.24l.1-.15c.5-.79,2.91-4.47,7.3-10.29v-.07c12.89-17,42.69-52.26,91.2-87A481.39,481.39,0,0,1,803.12,55.8C872.8,31.1,960.15,17.7,1066.73,31.29Z"/><path class="cls-5" d="M1319.57,260.65s-220.35-164-513.09-97.07c0,0,14.56-40.7,56.32-77.33,43.51-38.16,116.59-71.93,233.41-50.6,0,0,139.78,22.18,194.86,126.87,0,0,2.37,4.21,5.75,11.15C1306,192.46,1322.59,231.3,1319.57,260.65Z"/><path class="cls-6" d="M1296.82,173.65c-64.18-38.1-227.75-117.7-434-87.39a222.12,222.12,0,0,1,76.34-43.69c40.39-13.58,91.92-18.82,157.07-6.94,0,0,90,14.28,154,74a199.09,199.09,0,0,1,40.83,52.85S1293.44,166.71,1296.82,173.65Z"/><path class="cls-5" d="M1250.24,109.65c-69.08-33-178.68-71.15-311.1-67.08,40.39-13.58,91.92-18.82,157.07-6.94C1096.21,35.65,1186.21,49.91,1250.24,109.65Z"/><path class="cls-7" d="M862.8,86.26l-16.41,22.48-39.9,54.82h0c-111.24-22.32-221,51.67-221.89,52.24l.1-.15q3.63-5.28,7.3-10.29v-.07c29.55-40.39,60.81-68.14,91.2-87C777.24,59.84,862.8,86.26,862.8,86.26Z"/><path class="cls-7" d="M1066.73,31.29c-41.39-2.85-77,1.53-107.31,10.22l-20.28,1.06S890,27.09,803.14,55.8C872.8,31.1,960.15,17.7,1066.73,31.29Z"/><path class="cls-7" d="M1507.68,390.47c-.58-.85-76.42-110-188.11-129.81h0l-11-42-11.76-45s72.3,9.3,112.54,40.52h0C1486.94,303.42,1507.48,389.26,1507.68,390.47Z"/><path class="cls-7" d="M1305.9,123c-32.87-17.22-55.66-13.37-55.66-13.37s-88.48-55.21-135.32-70C1192.44,59.26,1255.22,89,1305.9,123Z"/><polygon class="cls-1" points="211.05 891.51 38.63 625.58 0 651.13 181.3 930.77 181.4 930.71 181.4 930.9 1025.56 930.9 1025.56 891.51 211.05 891.51"/><polygon class="cls-8" points="38.63 625.58 379.03 625.58 533.92 860.89 1247.85 860.89 1025.56 891.51 211.05 891.51 38.63 625.58"/><polygon class="cls-1" points="181.3 930.77 155.81 1093.38 192.37 1093.38 261.64 930.9 181.3 930.77"/><polygon class="cls-1" points="385.28 930.77 359.78 1093.38 396.35 1093.38 465.62 930.9 385.28 930.77"/><polygon class="cls-1" points="1005.5 930.77 1031 1167.46 994.43 1167.46 925.16 930.97 1005.5 930.77"/><polygon class="cls-1" points="1180.1 895.9 1205.59 1093.38 1169.03 1093.38 1099.76 896.06 1180.1 895.9"/><polygon class="cls-9" points="1025.56 930.9 1025.56 891.51 1247.85 860.89 1247.85 895.9 1025.56 930.9"/><path class="cls-10" d="M781.78,835.65s232.22-23.91,286.83-14.43,72.58,13.39,58.27,29.15-56.36,52.07-146.49,33.28S812.75,910.41,765.13,891s-58-37.93-33.86-46.64S781.78,835.65,781.78,835.65Z"/><path class="cls-11" d="M845.44,849.49s15.26-61.41,33.74-75.09,42.91,5.9,65-1,54.23,73.85,54.23,73.85S927.56,876.27,845.44,849.49Z"/><path class="cls-12" d="M504.49,828.76l-115.26,45s-70.72-.76-102-10a52.15,52.15,0,0,1-7.83-2.89,40.88,40.88,0,0,1-16-13.14c-5.61-7.62-9-16.64-17.73-26.76a93.13,93.13,0,0,0-15.91-14.43c-1.37-1-2.76-2-4.16-3.14a246.27,246.27,0,0,1-31.75-30.1c-5.68-6.38-11.2-13.16-16.37-20.19A222.84,222.84,0,0,1,159.18,724a144.54,144.54,0,0,1-9.42-22.3q-1.35-4.2-2.3-8.33a114.73,114.73,0,0,0-7.93-22.71,147.41,147.41,0,0,0-12.9-22.1,154.82,154.82,0,0,0-22.83-26.07H329.61l11.15,13.21L354,651.25l18.76,22.13,10.76,12.69,45.26,53.39,11.2,13.2,26.42,31.16,11.22,13.24Z"/><path class="cls-7" d="M354,651.23c-19.92,3.68-62.58,11.56-71,13.21-11.05,2.18-74.45-.57-90.86,0-9.84.35-34.5,3.62-52.65,6.19a147.41,147.41,0,0,0-12.9-22.1c10-1.75,35.15-5.63,55.46-5,26,.79,81.23,7,100.15-.07,11.35-4.25,38.55-6.62,58.54-7.82Z"/><path class="cls-7" d="M383.58,687.08s-69.19,17.69-80.05,20.57-74.32,4.49-90.65,6.19c-10.09,1-35.66,6.26-53.72,10.09a144.54,144.54,0,0,1-9.42-22.3c11.42-2.68,33.37-7.29,51.68-8,26-1,81.5,1.48,99.92-6.9,13.87-6.3,53-11.33,71.41-13.43L383.51,686Z"/><path class="cls-7" d="M405.23,724.72s-67.91,22.17-78.58,25.79-73.87,9.33-90,12.07c-8.2,1.4-26.61,6.28-42.77,10.74-5.68-6.38-11.2-13.16-16.37-20.19,11.9-3.47,30.46-8.3,46.41-10,25.9-2.66,81.43-3.82,99.27-13.38S403.3,710,403.3,710Z"/><path class="cls-7" d="M440,752.65c-17.07,7.88-60,27.66-68.1,31.52C361.69,789,299.55,802,283.79,806.63c-7.46,2.18-23.4,8.41-38.14,14.37a93.13,93.13,0,0,0-15.91-14.43c-1.37-1-2.76-2-4.16-3.14,11.43-4.78,28.41-11.26,43.35-14.59,25.43-5.66,80.46-13.26,97.09-24.82,11.42-7.95,43.68-18.65,62.75-24.57Z"/><path class="cls-7" d="M477.62,797.06c-17.27,8-59.73,27.54-67.8,31.37-10.17,4.84-72.32,17.85-88.09,22.46-6.83,2-20.83,7.42-34.48,12.89a52.15,52.15,0,0,1-7.83-2.89,40.88,40.88,0,0,1-16-13.14c11.45-4.78,28.5-11.3,43.51-14.65,25.42-5.66,80.44-13.26,97.08-24.82,11.36-7.9,43.32-18.53,62.43-24.46Z"/><path class="cls-13" d="M360.88,843.82c11.66,42,243,44.71,251.4,57.93,2.8,4.39,20.25,16,42.9,29.76,45.4,27.7,111.68,64.41,122.41,70.28,16.06,8.79,4.27,35.47,17.07,39.45s27.11,8.54,33.13,21.72,26.11,13.19,26.11,13.19c3-26.67-27.65-63.83-27.65-63.83S668.14,822.65,649.06,814.5c-4.66-2-15.28-4.22-28.68-6.47C579,801,511.05,794,511.05,794,481,790.65,349.22,801.79,360.88,843.82Z"/><path class="cls-14" d="M360.88,843.82c11.66,42,243,44.71,251.4,57.93,2.8,4.39,20.25,16,42.9,29.76,9.69-53-19.86-102.51-34.8-123.48-41.42-7-113.67-20.18-113.67-20.18C476.67,784.5,349.22,801.79,360.88,843.82Z"/><path class="cls-15" d="M481.08,410.77c-7.89-4.52-17.34-5-24-4.62,1.7-1.78,5-2.42,5-2.42-4.1-.62-13.25,3.49-13.25,3.49-57-22.2-66,62.61-64.79,82.32s1.33,42.38-27.14,60c-56,34.77-8.75,95.47-8.75,95.47.44.26,29,45,29,45-1.44-15.92,68.33-100.84,106.28-126,9.24-13.74,12.52-38,12.77-39.91-1.6,19.24-4.85,30-7.77,36.1C520.7,530.42,502,422.77,481.08,410.77Z"/><path class="cls-13" d="M494.39,782.73s-12.32-41.74-9.18-52.11,44.32-62.73,34.28-87.48a86.9,86.9,0,0,1-2.81-8.29c-.29-1-.57-2-.85-3.11-.39-1.4-.75-2.84-1.1-4.31-6.41-18.24,86.08-59.26,107.41-83.85h0a20.36,20.36,0,0,0,3.79-5.91C630.45,525.35,571.25,417,571.25,417l-13.7,6S582.42,524.9,579,529.55c-4,5.5-54.48,15.1-77,26.06-3.27.78-9.65,6.93-22.54,6.26-1-4.07-1.25-11-1.23-18.26,0-12.62,1-26,1-26l-42.17-8.44-2.5-.5c.09,26.57-5.81,45.36-11,52.3-11.27,4.64-38.7,12.64-48.67,16.49-35.15,13.58,19.08,124,9,152.26S351,828.82,351,828.82Z"/><path class="cls-14" d="M479.29,517.53s-1,13.41-1,26c-23.59-.67-36.06-22.41-41.17-34.46Z"/><path class="cls-15" d="M432.77,504.47s-12.37-19.74-15.33-36.61c-2.12-12,3.95-56.7,48.38-50.27a59.93,59.93,0,0,1,25,9.56c9.65,6.58,23.57,20.79,8,59.75l-4.05,13.16Z"/><path class="cls-13" d="M487.17,529.49s-55.83.93-55.86-34.19-7.27-58.66,28.37-60.74,42.58,11.32,45.42,23S501.69,528.34,487.17,529.49Z"/><path class="cls-15" d="M485.11,433.7s-15.29,41.21-38.75,47.3-33.63-.25-33.63-.25,18-14.44,21.73-39.64C434.46,441.11,473.58,414.09,485.11,433.7Z"/><path class="cls-15" d="M481.32,437.05s11.41,9.2,14.2,18.14,4,27.36,9.34,26.73c0,0,11.52-28-1.42-43.85C489.71,421.27,481.32,437.05,481.32,437.05Z"/><path class="cls-16" d="M474.76,508.2s1,4.46,12,3.77c0,0,9.23-.57,9-5.48C495.74,506.49,486.79,503,474.76,508.2Z"/><path class="cls-13" d="M607.13,1085.73H582.39s-54.15-132.3-45.81-176.1a7.31,7.31,0,0,0-1.68-6.54h0c-13.78-15.8-101.11-2.08-139.9-8.46a48.4,48.4,0,0,1-26-13.12c-21.28-20.42-24.62-57.51-8.87-69,20.81-15.2,84.81-15,84.81-15s152.37,41.32,162.17,58.56S598.75,1007.48,607.13,1085.73Z"/><path class="cls-17" d="M350.32,842.39c4,23.32,17.94,46.44,35.77,49.87,0,0,5-53,32.76-78.18,10.14-9.22,23.31-14.73,40.39-12.6l29,8.38s7.89-15,18.5-22L488.1,733.72a15.73,15.73,0,0,1,5.6-9c4.77-3.8,34.88-65.17,25.86-81.61,0,0-.5-20.82-29.62-15.75s-71.75-7.83-85.85-4.31a29.07,29.07,0,0,0-8.93,4C380.34,636.76,372.51,658,372.51,658S380,728.5,378,736.25,346.29,819.06,350.32,842.39Z"/><path class="cls-14" d="M534.92,903.08c-13.78-15.8-101.11-2.08-139.9-8.46a48.4,48.4,0,0,1-26-13.12c9.94-24.43,20.21-50.34,20.21-50.34h16s5.74,21.06,27.42,26.27S534.06,883.2,534.92,903.08Z"/><path class="cls-10" d="M350.32,842.39c4,23.32,17.94,46.44,35.77,49.87,0,0,5-53,32.76-78.18l-1.12-.26c-56.12-12.17,5.91-54.76,10.43-68,4-11.61-25.68-97.76-33-118.75C380.34,636.78,372.51,658,372.51,658S380,728.52,378,736.27,346.29,819.06,350.32,842.39Z"/><path class="cls-13" d="M571.32,417s6.53-20.17-2.51-26.76-36.15-18.76-37.15-9.13,26,41.86,26,41.86Z"/><path class="cls-18" d="M481.32,344.41a66.25,66.25,0,0,0,5.69,27,65.29,65.29,0,0,0,59.57,39c36,0,65.27-29.52,65.27-65.92A65.77,65.77,0,0,0,562,280.43a63.86,63.86,0,0,0-15.39-1.86C510.55,278.49,481.32,308,481.32,344.41Z"/><path class="cls-19" d="M481.32,344.41a66.25,66.25,0,0,0,5.69,27,58.75,58.75,0,0,0,29.79,8.08c32.84,0,59.46-26.89,59.46-60.06a60.15,60.15,0,0,0-14.29-39,63.86,63.86,0,0,0-15.39-1.86C510.55,278.49,481.32,308,481.32,344.41Z"/><path class="cls-20" d="M611.85,344.41h0c-20.87-29.24-46.11-36.92-64-38a86.21,86.21,0,0,0-34.08,4.79l.38.94a85.15,85.15,0,0,1,33.68-4.71C565.49,308.5,591.23,315.51,611.85,344.41Z"/><path class="cls-20" d="M536.29,409.51h0c-24.69-13.77-30.62-38-31.24-56.16a121.84,121.84,0,0,1,4.62-36.63l-1-.32a123,123,0,0,0-4.67,37C504.68,371.84,511.19,395.51,536.29,409.51Z"/><path class="cls-20" d="M509.19,308.65l1-.11c0-.16-1.95-16.2,6.68-22.82h0C507.79,292.65,509.12,308,509.19,308.65Z"/><path class="cls-20" d="M481.47,339.59c4.23-16.15,27.64-27.32,27.87-27.43l-.43-.92a81.05,81.05,0,0,0-12.36,7.66C490.64,323.36,483.75,330.9,481.47,339.59Z"/><path class="cls-21" d="M504.55,312.46a4.51,4.51,0,0,0,.1,2,4,4,0,0,0,3.94,2.87,5.89,5.89,0,0,0,5.58-4.86,4,4,0,0,0-2.94-4.72,4.16,4.16,0,0,0-1.11-.13A5.85,5.85,0,0,0,504.55,312.46Z"/><path class="cls-13" d="M423.61,560.9s-35.31,2.17-44.08,7c-49.92,27.22-79.35,160.35-66.85,167.84,27.45,16.45,132,10.66,132,10.66s10.65-3.62,6-11.28-100.51-21.83-98.13-26.21c14.31-26.38,23.52-65.12,27.1-72.08C383.64,629,423.61,560.9,423.61,560.9Z"/><path class="cls-14" d="M514.77,627.43c-6.41-18.24,86.08-59.26,107.41-83.85-2.95,2.7-119.09,63.67-118.42,72.4.5,6.54,8.57,11.76,13,18.87-.29-1-.57-2-.85-3.11C515.48,630.34,515.12,628.9,514.77,627.43Z"/><path class="cls-15" d="M477.2,745.79h0a1.2,1.2,0,0,0,.8-1.33c-1.36-8.58-11.8-68.94-13.71-79.88l-.06-.21a9.18,9.18,0,0,0-4.56-4.61c-2.89-1.2-18.08-5-18.72-5.12l-.48,2c.15,0,15.69,3.88,18.43,5a7.08,7.08,0,0,1,3.43,3.42c2.26,13,12.73,72.51,14,80.2a.69.69,0,0,0,.79.55Z"/><path class="cls-18" d="M451.84,693.34l3.54,56.53a2.41,2.41,0,0,0,2.38,2.27H476.5a2.65,2.65,0,0,0,2.63-2.51l3.23-56.29Z"/><path class="cls-22" d="M468.13,693.34l3.66,58.8h4.73a2.64,2.64,0,0,0,2.61-2.49l3.23-56.31Z"/><path class="cls-18" d="M451.84,693.34h30.55A15.87,15.87,0,0,0,482,690a15.33,15.33,0,0,0-13.43-12,2.13,2.13,0,0,1-2.85.94,2.07,2.07,0,0,1-.88-.83,14.89,14.89,0,0,0-3.58,1A15.36,15.36,0,0,0,451.84,693.34Z"/><path class="cls-22" d="M461.21,679.88c0,5.65,8.39,10.22,18.74,10.22.69,0,1.38,0,2.06-.06a15.33,15.33,0,0,0-13.43-12,2.13,2.13,0,0,1-2.85.94,2.07,2.07,0,0,1-.88-.83,14.89,14.89,0,0,0-3.58,1A4.4,4.4,0,0,0,461.21,679.88Z"/><path class="cls-23" d="M482.83,693.34H451.9a.56.56,0,0,1-.56-.56h0a.56.56,0,0,1,.56-.56h30.93a.56.56,0,0,1,.56.56h0A.56.56,0,0,1,482.83,693.34Z"/><path class="cls-13" d="M432.65,731.23s25.88-10.28,28.64-9.77,24.85,17.74,23.6,22.82-14.61,7.45-28,5.81C434.68,747.34,432.65,731.23,432.65,731.23Z"/><path class="cls-13" d="M607.13,1085.72s6.15,14.06,13.41,19,23,18.34,30.87,20.18,22.39,16.5,9.08,19-37.53,1.83-47.21-4.28-35.71-1.84-37.53-11,6.66-31.17,6.66-42.79S607.13,1085.72,607.13,1085.72Z"/></g></g></svg>