<svg width="239" height="220" viewBox="0 0 239 220" fill="none" xmlns="http://www.w3.org/2000/svg">
<path d="M238.867 97.3071C238.867 98.0158 238.867 100.221 237.607 100.614C236.347 101.008 234.536 101.166 234.221 102.111C233.906 103.055 231.937 107.78 231.937 107.78C231.937 107.78 228.708 107.387 226.897 107.859C225.559 106.599 223.196 104.315 222.803 103.843C222.251 103.134 221.621 103.292 221.621 103.292C221.621 103.292 217.684 103.056 216.267 103.134C214.928 103.213 214.298 102.504 213.747 102.111C213.274 101.717 211.542 100.693 211.069 100.614C210.597 100.457 209.573 101.559 209.258 101.796C208.865 101.953 208.628 102.819 208.392 103.292C208.235 103.843 207.762 103.764 207.211 103.922C206.738 104.079 203.982 104.394 203.116 104.315C202.25 104.237 198.943 104.945 198.391 104.867C197.84 104.788 193.194 104.079 192.643 104.158C192.092 104.237 193.352 102.268 193.982 101.481C194.533 100.693 195.635 98.4883 196.187 97.5433C196.738 96.5984 196.816 91.4011 196.895 90.7712C196.974 90.1412 195.872 89.4325 195.084 88.8025C194.297 88.1726 192.407 88.1726 191.855 88.1726C191.383 88.1726 190.596 89.8262 190.911 90.2987C191.226 90.7712 190.911 91.0074 190.359 91.1649C189.729 91.3224 188.312 90.2199 187.839 89.905C187.367 89.5112 185.32 89.7475 184.69 89.5112C184.06 89.3537 182.091 89.5112 181.619 89.5112C181.146 89.5112 180.831 89.6687 180.752 89.8262C180.674 89.905 180.28 89.905 180.201 89.8262C180.122 89.6687 179.65 89.59 179.02 89.7475C178.469 89.905 177.288 93.9998 177.051 94.551C176.815 95.1022 175.791 97.6221 175.634 98.0945C175.555 98.6458 174.768 98.567 174.61 98.6457C174.374 98.7245 174.216 98.8032 173.98 98.882C173.744 98.9607 173.35 99.1182 172.878 99.197C172.405 99.2757 171.618 99.6694 171.145 99.7482C170.673 99.8269 169.334 99.5119 168.704 99.7482C168.074 100.063 167.444 99.5907 166.736 99.5907C165.948 99.5907 165.161 100.772 164.767 101.087C164.373 101.481 162.641 103.449 161.853 104C161.066 104.473 158.782 107.072 158.546 107.465C158.231 107.859 157.759 108.016 157.286 107.859C156.735 107.702 153.979 107.702 152.955 107.702C152.798 107.702 152.561 107.623 152.325 107.387C151.301 106.599 150.041 104.394 150.041 104.394C150.041 104.237 153.034 99.9844 153.821 98.8032C154.688 97.5433 154.058 96.1259 153.821 95.4172C153.664 94.7085 153.191 92.5036 153.113 91.6374C153.034 90.7712 149.727 88.4875 149.175 88.33C148.624 88.0938 148.782 86.5189 148.782 85.889C148.782 85.259 150.278 84.944 151.144 84.944C152.01 84.944 152.168 84.5503 152.325 83.4478C152.404 82.3454 149.963 80.298 149.963 80.298C150.829 79.4318 151.38 78.8018 152.719 78.7231C154.215 78.6443 159.806 78.4081 160.987 77.3844C162.247 76.3607 163.665 75.1795 165.476 74.8646C167.287 74.5496 171.46 73.5259 171.539 72.2659C171.618 71.006 171.539 69.9036 172.09 69.1948C172.642 68.4861 172.248 68.2499 172.642 67.7774C172.956 67.305 173.744 66.2813 173.744 65.0213C173.744 63.7614 174.138 61.1628 174.295 60.3753C174.453 59.5879 174.689 58.2492 173.823 58.1705C173.035 58.0917 169.964 57.6192 169.964 57.2255C169.964 56.753 171.145 51.6346 171.145 51.6346C171.145 51.6346 171.46 50.9258 170.752 50.5321C170.043 50.1384 167.051 47.776 167.051 47.776C167.051 47.776 166.657 47.5398 166.972 46.9098C167.287 46.3586 172.327 37.5391 172.327 37.5391L179.965 46.1224L183.272 40.6102C183.272 40.6102 183.823 39.9802 183.036 39.1927C182.249 38.4053 180.359 36.8304 181.146 36.1217C181.933 35.4129 182.642 34.6255 183.823 34.6255C184.926 34.6255 185.477 34.5467 186.107 34.0743C186.737 33.6018 190.359 31.6332 190.281 29.9007C190.202 28.1683 190.123 27.4596 189.572 26.9084C189.099 26.3572 187.682 24.9398 188.312 24.0736C188.942 23.2074 191.855 19.4276 192.092 17.6164C192.407 15.8053 193.273 13.6791 193.43 13.1279C193.588 12.5767 194.69 10.1356 194.769 9.26936C194.848 8.40316 194.69 6.74951 194.69 6.74951C194.927 6.74951 195.163 6.67077 195.478 6.74951C195.635 6.74951 195.872 6.82824 196.029 6.82824C196.265 6.82824 196.501 6.82824 196.738 6.82824C196.974 6.82824 197.289 6.82824 197.525 6.90699C198.076 7.06448 198.628 7.37948 199.258 7.53697C199.966 7.69446 200.518 8.08817 201.147 8.40315C201.305 8.4819 201.384 8.4819 201.462 8.4819C201.62 8.4819 201.777 8.56066 201.935 8.6394C202.25 8.71815 202.486 8.79688 202.801 8.79688C203.195 8.79688 203.589 8.79688 203.904 8.79688C204.297 8.79688 204.612 8.71814 204.849 8.4819C205.164 8.24566 205.321 7.9307 205.557 7.53697C205.951 6.907 206.423 6.43452 207.132 6.19828C207.368 6.11954 207.762 6.04078 207.998 6.11953C208.313 6.27702 208.313 6.67075 208.392 6.90699C208.55 7.30072 208.865 7.30071 209.258 7.22197C209.731 7.14322 210.124 6.90699 210.597 6.90699C211.384 6.98573 211.621 7.77319 211.699 8.4819C211.778 9.58434 211.857 10.6868 211.699 11.7892C211.621 12.2617 211.621 12.6554 211.621 13.1279C211.699 13.6004 211.699 14.0729 211.778 14.5453C211.857 14.8603 211.857 15.0965 212.093 15.254C212.329 15.4115 212.644 15.569 212.959 15.569C213.274 15.4903 213.511 15.254 213.826 15.0965C214.298 14.7816 214.849 14.5453 215.479 14.7028C215.637 14.7028 215.873 14.8603 216.03 15.0178C216.267 15.1753 216.424 15.4115 216.66 15.6478C216.818 15.8053 216.975 16.0415 217.054 16.2777C217.29 16.7502 217.527 17.1439 217.605 17.6164C217.684 18.0101 218.078 18.0101 218.314 18.3251C218.629 18.6401 218.472 19.1126 218.629 19.4276C218.708 19.585 218.786 19.8213 218.944 19.9C219.101 20.0575 219.259 20.0575 219.495 20.0575C219.731 20.0575 219.968 20.0575 220.125 20.0575C220.283 20.0575 220.519 20.1363 220.755 20.1363C220.991 20.1363 221.228 20.1363 221.464 20.1363H221.779C221.936 20.1363 222.015 20.215 222.173 20.215C222.566 20.2938 222.881 20.6087 223.275 20.7662C223.432 20.845 223.669 20.9237 223.826 21.0025C223.984 21.0812 224.22 21.16 224.377 21.16C224.377 21.16 224.929 21.3962 225.007 21.7112C224.692 21.8687 224.456 22.1049 224.535 22.5774C224.692 23.9161 225.48 26.1997 226.189 26.5147C226.897 26.8296 227.764 27.3809 228.315 28.1683C228.866 28.9558 230.205 30.2157 230.205 31.1607C230.205 32.1056 230.756 34.6255 231.15 35.098C231.543 35.5704 233.512 39.0352 234.929 40.1377C234.929 40.1377 235.323 42.1851 234.614 42.5001C233.906 42.815 233.748 42.6575 233.906 43.5237C233.984 44.3112 235.244 49.2722 235.166 50.6896C235.087 52.107 234.221 55.6506 234.693 56.5955C235.166 57.6192 236.583 60.8478 236.504 62.5015C236.426 64.1551 236.662 66.5175 235.953 67.6987C235.166 68.8799 232.252 73.6834 233.906 73.9196C235.559 74.1558 236.426 74.2346 236.504 75.5733C236.504 76.9119 236.898 79.7468 236.898 79.7468C236.898 79.7468 232.016 85.3377 232.488 86.8339C233.039 88.2513 235.953 93.921 236.898 94.551C237.607 95.5747 238.945 96.5984 238.867 97.3071Z" fill="#2DBE5A"/>
<path d="M194.848 9.42691C194.848 10.2931 193.745 12.6555 193.509 13.2854C193.352 13.8367 192.485 15.9628 192.17 17.774C191.855 19.5851 189.021 23.3649 188.391 24.2311C187.761 25.0973 189.178 26.5147 189.651 27.0659C190.123 27.6172 190.202 28.3259 190.359 30.0583C190.438 31.7907 186.816 33.7593 186.186 34.2318C185.556 34.7043 185.083 34.783 183.902 34.783C182.8 34.783 182.012 35.5705 181.225 36.2792C180.437 36.9879 182.406 38.5628 183.115 39.3503C183.902 40.1377 183.351 40.7677 183.351 40.7677L180.044 46.2799L172.405 37.6966C172.405 37.6966 167.365 46.4374 167.05 47.0673C166.736 47.6186 167.129 47.9336 167.129 47.9336C167.129 47.9336 170.122 50.2959 170.83 50.6897C171.539 51.0834 171.224 51.7921 171.224 51.7921C171.224 51.7921 170.043 56.9893 170.043 57.383C170.043 57.7768 173.114 58.328 173.901 58.328C174.768 58.4067 174.453 59.7454 174.374 60.5329C174.216 61.3203 173.823 63.9189 173.823 65.1789C173.823 66.4388 173.035 67.5412 172.72 67.935C172.405 68.4074 172.799 68.7224 172.169 69.3524C171.618 70.0611 171.618 71.2423 171.618 72.4235C171.539 73.6047 167.444 74.7071 165.554 75.0221C163.743 75.3371 162.326 76.5183 161.066 77.5419C159.806 78.5656 154.294 78.8019 152.798 78.8806C151.459 78.9594 150.908 79.5893 150.041 80.4555C149.963 80.5343 149.884 80.6918 149.726 80.7705C148.703 81.7942 146.183 84.4716 145.474 85.1803C144.687 85.889 141.616 87.5426 140.513 88.0939C139.411 88.5663 137.363 89.905 137.048 90.2987C136.733 90.6925 134.844 92.2674 133.584 93.3698C132.324 94.4723 130.119 96.5984 129.095 97.5434C128.071 98.4883 125.394 97.7796 124.528 97.4646C123.662 97.1496 122.48 97.1496 121.299 97.1496C120.118 97.1496 117.362 98.4883 116.811 98.882C116.26 99.197 115.787 98.7245 115.551 98.3308C115.315 97.9371 113.818 97.5433 113.031 97.0709C112.243 96.5984 110.354 95.7322 109.724 95.3385C109.172 94.9448 107.991 92.9761 107.597 92.2674C107.204 91.5587 105.944 91.6374 104.999 91.7162C104.92 91.7162 104.841 91.7162 104.763 91.7949C104.763 91.7949 104.369 87.5426 105.078 86.8339C105.708 86.1252 108.385 83.4479 108.07 82.9754C107.755 82.5029 105.865 80.5343 105.944 79.9831C106.023 79.3531 106.101 78.8806 106.653 78.7231C107.204 78.6444 113.425 77.6994 113.425 76.9907C113.346 76.282 113.582 75.1796 112.873 74.7071C112.165 74.2346 111.062 72.9747 110.826 71.7935C110.59 70.6123 110.275 69.4311 110.039 68.8012C109.802 68.2499 109.251 67.62 109.724 67.3838C110.275 67.1475 113.188 66.2026 113.031 65.3364C112.952 64.4702 113.346 63.8402 112.558 63.289C111.771 62.7377 110.905 62.5015 110.905 62.1078C110.905 61.7928 110.511 60.2966 110.354 59.6667C110.196 58.9579 108.936 56.2018 108.936 55.6506C108.936 55.0207 108.7 52.8158 109.33 52.0283C109.96 51.2409 112.322 47.7761 112.637 47.2248C112.952 46.6736 113.582 45.8074 114.37 45.0987C115.157 44.39 116.338 43.8388 115.708 42.8151C115.157 41.7914 113.74 40.2952 114.448 39.5078C115.078 38.799 115.945 38.0116 115.945 38.0116C115.945 38.0116 116.417 37.8541 117.047 38.4841C117.598 39.1928 119.331 40.8464 119.724 40.6102C120.118 40.2952 121.142 39.1928 121.614 39.744C122.008 40.2952 124.292 43.5238 125.394 43.2088C126.575 42.8151 126.89 40.8464 126.89 40.6889C126.89 40.6102 127.363 38.4841 127.678 38.0116C127.993 37.5391 128.229 36.8304 127.756 36.7517C127.284 36.5942 126.654 36.2792 126.339 35.5705C126.024 34.8618 124.528 30.2945 124.528 30.2945C124.528 30.2945 124.134 29.7433 124.607 29.1921C125.079 28.7196 126.418 27.1447 127.363 26.751C128.308 26.3572 129.725 25.9635 129.41 25.4123C129.095 24.8611 127.048 21.79 127.048 21.79L123.425 24.2311C123.425 24.2311 122.795 24.7823 121.929 24.2311C121.063 23.7586 119.094 22.9712 118.701 22.8137C118.228 22.7349 117.126 22.4199 116.811 21.79C116.417 21.16 116.26 20.5301 116.023 20.1363C115.787 19.7426 115.708 19.5851 115.945 19.1914C116.102 18.7976 117.677 16.3565 117.362 15.4116C117.441 15.4116 117.441 15.3328 117.519 15.2541C117.677 15.0178 117.913 14.7816 118.149 14.5454C118.228 14.4666 118.307 14.3091 118.464 14.1516C118.622 14.0729 118.779 13.9154 118.937 13.7579C119.252 13.4429 119.488 13.2067 119.803 12.9705C119.961 12.8917 120.039 12.813 120.197 12.7342C120.354 12.6555 120.512 12.6555 120.669 12.5767C121.063 12.5767 121.535 12.6555 121.929 12.7342C122.165 12.813 122.402 12.8917 122.559 12.9705C122.717 13.0492 122.953 12.9705 123.189 13.0492C123.268 13.0492 123.347 13.1279 123.425 13.2067C123.504 13.2854 123.74 13.2854 123.819 13.3642C123.977 13.4429 124.055 13.4429 124.213 13.5217C124.37 13.5217 124.607 13.6004 124.764 13.6004C124.922 13.6004 125.079 13.6004 125.237 13.5217C125.315 13.4429 125.394 13.3642 125.473 13.3642C125.552 13.2854 125.63 13.2854 125.788 13.2067C125.945 13.1279 126.103 12.9705 126.26 12.8917L126.575 12.5767C126.654 12.498 126.733 12.498 126.811 12.4192C126.969 12.2617 127.126 12.0255 127.284 11.868C127.363 11.7893 127.52 11.6318 127.678 11.553C127.756 11.4743 127.993 11.4743 128.071 11.3955C128.308 11.3955 128.544 11.3955 128.701 11.3955C129.016 11.3955 129.41 11.3955 129.725 11.6318C129.883 11.7105 129.961 11.868 130.119 11.9468C130.197 12.0255 130.276 12.1043 130.355 12.1043C130.591 12.183 130.827 12.3405 130.985 12.4192C131.221 12.498 131.457 12.498 131.694 12.498C131.93 12.498 132.166 12.5767 132.481 12.5767C132.717 12.5767 132.954 12.5767 133.19 12.498C133.347 12.498 133.584 12.498 133.741 12.4192C133.741 12.4192 133.82 12.4192 133.899 12.4192C133.977 12.4192 134.056 12.3405 134.135 12.3405C134.292 12.2617 134.45 12.183 134.529 12.1043C134.844 11.868 135.001 11.6318 135.316 11.4743C135.631 11.3168 135.867 11.1593 136.103 11.0018C136.261 10.9231 136.418 10.7656 136.497 10.6081C136.576 10.5293 136.655 10.3719 136.812 10.2931C136.97 10.2144 137.048 10.0569 137.206 9.97811C137.285 9.89937 137.285 9.89938 137.363 9.82063C137.6 9.74189 137.915 9.74188 138.23 9.74188C138.545 9.74188 138.781 9.82063 139.096 9.82063C139.332 9.82063 139.568 9.82063 139.804 9.82063C140.119 9.82063 140.434 9.74188 140.749 9.74188C140.986 9.74188 141.301 9.66313 141.537 9.66313C141.773 9.66313 141.931 9.66314 142.167 9.74188C142.246 9.74188 142.403 9.74188 142.482 9.74188C142.561 9.74188 142.718 9.82063 142.797 9.82063C142.954 9.82063 143.191 9.82063 143.348 9.82063C143.506 9.82063 143.663 9.74188 143.742 9.66313C143.899 9.50564 143.978 9.19067 144.135 9.03318C144.214 8.87569 144.293 8.79694 144.372 8.63945C144.45 8.48196 144.608 8.32446 144.687 8.16697C144.765 8.00948 144.923 7.93073 145.08 7.77324C145.159 7.6945 145.159 7.61574 145.238 7.61574C145.317 7.45825 145.474 7.3795 145.553 7.22201C145.71 7.14327 145.789 6.98578 145.947 6.90703C146.104 6.74954 146.34 6.59205 146.498 6.43455C146.655 6.35581 146.892 6.11958 147.049 6.11958C147.207 6.04083 147.443 6.11958 147.6 6.11958C148.073 6.19832 148.467 6.43457 148.939 6.67081C149.096 6.74955 149.254 6.82829 149.49 6.90703C149.648 6.90703 149.805 6.90703 149.963 6.90703C150.12 6.90703 150.356 6.90703 150.514 6.82828C150.829 6.74954 151.065 6.74954 151.301 6.5133C151.616 6.35581 151.853 6.11959 152.168 5.9621C152.325 5.88335 152.483 5.88334 152.64 5.8046C152.798 5.8046 153.034 5.72585 153.191 5.72585C153.506 5.6471 153.821 5.6471 154.136 5.6471C154.53 5.6471 154.845 5.56837 155.239 5.56837C155.554 5.56837 155.947 5.64711 156.262 5.88335C156.341 5.96209 156.499 6.04084 156.656 6.19833C156.814 6.27707 156.971 6.43456 157.129 6.5133C157.365 6.6708 157.68 6.90704 157.916 7.06453C158.467 7.45826 159.176 7.45826 159.727 7.85199C160.121 8.16697 160.672 8.16697 161.145 8.16697C161.617 8.24572 162.168 7.85198 162.562 7.61574C162.798 7.45825 162.956 7.22203 163.034 7.06453C163.192 6.74955 163.428 6.59205 163.586 6.43455C163.743 6.27706 163.979 6.11957 164.294 6.04083C164.609 5.96208 164.924 6.04083 165.239 6.04083C165.397 6.04083 165.554 6.04083 165.633 6.04083C165.791 6.04083 165.869 6.11958 166.027 6.19833C166.263 6.27707 166.499 6.51331 166.735 6.67081C166.972 6.90704 167.129 6.98578 167.444 6.98578C167.759 6.98578 167.995 6.98578 168.31 6.98578C168.625 6.98578 168.862 6.98578 169.177 6.90703C169.413 6.82829 169.649 6.74954 169.885 6.5133C170.043 6.43456 170.2 6.43455 170.358 6.43455C170.515 6.43455 170.673 6.27707 170.83 6.19833C171.303 6.04084 171.775 5.8046 172.169 5.48962C172.641 5.09589 173.035 4.70215 173.508 4.46591C174.059 4.15093 174.531 3.83596 175.004 3.44223C175.398 3.12724 175.712 2.73352 176.027 2.41854C176.736 1.63109 177.76 1.0011 178.784 0.922354C179.492 0.922354 180.201 0.843628 180.91 0.843628C181.225 0.843628 181.618 0.843609 181.933 0.922354C182.248 0.922354 182.406 0.922354 182.721 0.922354H183.902C184.06 0.922354 184.217 1.00111 184.375 1.07986C184.532 1.1586 184.69 1.23734 184.847 1.31608C185.005 1.31608 185.162 1.39484 185.32 1.47358C185.398 1.47358 185.477 1.55234 185.556 1.63109C185.871 1.70983 186.107 1.78857 186.422 1.86731C186.658 1.94606 186.894 1.94607 187.052 2.02481C187.603 2.18231 188.076 2.57602 188.469 2.96975C188.548 3.04849 188.627 3.12725 188.706 3.206C188.784 3.28474 188.863 3.36349 188.942 3.52098C189.021 3.59972 189.178 3.67846 189.336 3.83596C189.414 3.9147 189.493 4.07219 189.493 4.15093C189.651 4.54466 189.887 4.93839 190.044 5.33212C190.202 5.56836 190.28 5.80461 190.438 5.9621C190.517 6.04084 190.595 6.19833 190.753 6.27708C190.832 6.35582 190.989 6.35583 191.068 6.35583C191.304 6.43457 191.54 6.5133 191.777 6.5133C192.013 6.59205 192.249 6.59206 192.485 6.59206C192.8 6.59206 193.115 6.67081 193.43 6.67081C193.824 6.67081 194.296 6.67081 194.69 6.67081C194.769 6.67081 194.769 6.67081 194.848 6.67081C194.769 6.90704 194.926 8.48196 194.848 9.42691Z" fill="#2DBE5A"/>
<path d="M231.307 135.971C231.937 134.869 231.15 134.239 231.15 134.239C231.15 134.239 227.606 130.144 226.976 129.278C226.346 128.412 226.346 127.467 226.11 126.679C225.952 125.97 220.362 123.529 220.362 123.529C220.362 123.529 220.283 117.938 220.283 115.261C220.283 112.584 224.85 109.198 226.189 108.174C226.346 108.016 226.661 107.859 226.976 107.78C225.637 106.52 223.275 104.237 222.881 103.764C222.33 103.055 221.7 103.213 221.7 103.213C221.7 103.213 217.763 102.977 216.345 103.055C215.007 103.134 214.377 102.425 213.826 102.032C213.353 101.638 211.621 100.614 211.148 100.536C210.676 100.378 209.652 101.481 209.337 101.717C208.943 101.874 208.707 102.74 208.471 103.213C208.313 103.764 207.841 103.685 207.29 103.843C206.817 104 204.061 104.315 203.195 104.237C202.329 104.158 199.021 104.867 198.47 104.788C197.919 104.709 193.273 104 192.722 104.079C192.171 104.158 193.43 102.189 194.06 101.402C194.612 100.614 195.714 98.4094 196.265 97.4645C196.817 96.5195 196.895 91.3223 196.974 90.6923C197.053 90.0624 195.95 89.3537 195.163 88.7237C194.375 88.0937 192.486 88.0938 191.934 88.0938C191.462 88.0938 190.674 89.7474 190.989 90.2199C191.304 90.6924 190.989 90.9286 190.438 91.0861C189.808 91.2436 188.391 90.1411 187.918 89.8262C187.446 89.4324 185.398 89.6687 184.768 89.4324C184.138 89.2749 182.17 89.4324 181.697 89.4324C181.225 89.4324 180.91 89.5899 180.831 89.7474C180.752 89.8262 180.359 89.8262 180.28 89.7474C180.201 89.5899 179.729 89.5112 179.099 89.6687C178.548 89.8262 177.366 93.9209 177.13 94.4722C176.894 95.0234 175.87 97.5432 175.713 98.0157C175.634 98.5669 174.846 98.4882 174.689 98.5669C174.453 98.6457 174.295 98.7244 174.059 98.8032C173.823 98.8819 173.429 99.0394 172.957 99.1182C172.484 99.1969 171.697 99.5906 171.224 99.6694C170.752 99.7481 169.413 99.4331 168.783 99.6694C168.153 99.9844 167.523 99.5119 166.814 99.5119C166.027 99.5119 165.24 100.693 164.846 101.008C164.452 101.402 162.72 103.37 161.932 103.922C161.145 104.394 158.861 106.993 158.625 107.386C158.31 107.78 157.837 107.938 157.365 107.78C156.814 107.623 154.058 107.623 153.034 107.623C152.876 107.623 152.64 107.544 152.404 107.308C152.404 107.308 151.695 109.119 151.459 109.591C151.302 110.064 151.38 110.93 150.75 111.796C150.12 112.741 150.829 113.45 150.829 113.45C150.829 113.45 159.176 121.797 159.57 122.191C159.964 122.584 157.522 124.159 156.499 124.868C155.475 125.577 154.845 126.6 153.979 127.939C153.113 129.278 152.089 129.278 150.987 129.593C149.963 129.986 148.073 129.042 146.971 128.727C145.868 128.412 143.663 129.986 143.033 130.459C142.561 130.853 143.506 133.215 143.899 134.081C143.978 134.081 144.057 134.081 144.214 134.081C144.766 134.081 145.396 134.081 146.026 134.081C146.341 134.081 146.656 134.081 146.971 134.081C147.128 134.081 147.443 134.16 147.522 134.396C147.6 134.869 146.341 134.947 146.104 135.026C145.474 135.105 144.923 135.184 144.372 135.42C143.742 135.656 143.033 135.892 142.403 136.286C142.246 136.365 142.009 136.601 141.773 136.759C141.616 136.916 141.458 137.074 141.222 137.231C140.828 137.625 140.356 137.861 139.883 138.176C139.647 138.333 139.411 138.57 139.175 138.727C138.86 139.042 138.387 139.278 137.915 139.357C137.049 139.593 136.104 139.751 135.395 140.381C135.08 140.617 134.765 140.775 134.371 140.932C134.214 141.011 133.977 141.011 133.82 141.09C133.741 141.09 133.584 141.09 133.426 141.168C133.19 141.168 133.032 141.326 132.875 141.405C132.796 141.405 132.796 141.483 132.718 141.483C132.56 141.562 132.481 141.562 132.324 141.562C132.088 141.641 131.851 141.641 131.615 141.72C131.221 141.877 130.985 142.192 130.591 142.35C130.434 142.507 130.198 142.665 130.04 142.743C129.883 142.822 129.646 143.058 129.41 143.137C129.253 143.295 129.095 143.452 128.938 143.609C128.78 143.767 128.623 143.924 128.465 144.082C128.15 144.397 127.914 144.791 127.678 145.106C127.52 145.499 127.205 145.814 126.969 146.129C126.812 146.287 126.654 146.523 126.575 146.681C126.418 146.838 126.339 147.074 126.182 147.311C126.024 147.626 125.709 147.94 125.394 148.177C125.237 148.334 125 148.492 124.843 148.649C124.685 148.807 124.528 148.964 124.37 149.122C124.213 149.279 124.056 149.515 123.898 149.752C123.741 149.909 123.583 150.145 123.426 150.382C123.347 150.46 123.347 150.539 123.268 150.697C123.189 150.775 123.032 150.854 122.953 150.933C122.559 151.327 122.087 151.72 121.693 152.114C121.457 152.271 121.221 152.508 121.063 152.744C120.748 153.059 120.512 153.295 120.197 153.531C119.724 153.689 119.331 153.846 118.858 154.004C118.543 154.083 118.15 154.161 117.835 154.161C117.52 154.161 117.205 154.161 116.89 154.083C116.575 154.004 116.26 153.925 115.945 153.925C115.236 153.925 114.842 154.555 114.685 155.185C114.527 155.658 114.449 156.051 114.291 156.524C114.212 156.918 114.055 157.39 114.055 157.784C114.055 158.177 114.134 158.571 114.134 158.886C114.134 159.201 114.134 159.516 114.291 159.752C114.449 160.067 114.764 160.304 115.078 160.54C115.472 160.855 115.866 161.012 116.26 161.091C116.653 161.17 117.047 161.091 117.362 161.249C117.756 161.406 117.913 161.8 117.992 162.193C118.15 162.666 118.15 163.138 118.15 163.69C118.15 164.083 118.071 164.477 118.228 164.792C118.307 165.107 118.622 165.265 118.858 165.501C119.173 165.816 119.173 166.288 119.016 166.682C119.016 166.839 118.937 166.997 118.858 167.076C118.858 167.154 118.78 167.233 118.701 167.312C118.622 167.548 118.622 167.863 118.543 168.099C118.465 168.178 118.386 168.257 118.386 168.336C118.307 168.493 118.307 168.729 118.228 168.887C118.15 169.123 118.071 169.281 118.071 169.517C117.992 169.911 117.992 170.383 117.913 170.855C117.835 171.17 117.835 171.485 117.835 171.8C117.913 173.06 118.15 174.242 118.465 175.423C119.252 175.816 120.197 176.289 120.906 176.446C122.166 176.604 123.583 177.155 124.055 177.313C124.528 177.47 124.764 177.785 126.103 177.313C127.442 176.84 128.308 176.919 128.308 176.053C128.308 175.108 128.702 170.698 128.859 168.887C129.016 167.076 128.859 164.162 129.646 164.32C130.513 164.398 131.851 164.556 133.19 164.477C134.529 164.398 138.072 164.477 138.151 164.792C138.23 165.186 138.387 165.658 138.623 165.737C138.781 165.816 139.175 166.603 138.938 167.469C138.702 168.336 138.545 170.226 138.466 170.462C138.466 170.698 138.23 171.17 138.938 171.249C139.647 171.328 141.38 171.8 142.167 171.8C143.033 171.879 144.057 172.352 144.372 172.745C144.687 173.218 147.443 177.234 148.073 178.1C148.624 179.045 151.065 183.219 152.246 183.219C152.955 183.219 153.428 183.534 153.979 183.534C154.373 183.534 154.845 183.455 155.475 182.982C157.129 181.88 157.916 181.88 158.389 181.014C158.861 180.147 161.775 176.368 162.877 176.21C163.98 176.053 164.846 177.234 166.184 177.155C167.523 176.998 170.752 175.58 171.618 174.872C172.327 174.32 175.161 173.375 177.13 174.399C177.445 174.32 177.76 174.242 178.075 174.242C179.02 174.084 179.886 174.872 180.201 175.501C180.516 176.053 180.989 175.816 181.225 175.501C181.382 175.187 182.642 175.186 183.351 175.58C184.06 175.974 186.58 176.131 187.84 176.131C189.099 176.131 192.407 176.525 193.824 176.919C195.242 177.313 197.604 176.525 198.628 175.58C199.651 174.714 200.518 176.053 201.699 175.895C202.88 175.738 203.589 175.895 204.376 176.131C205.164 176.368 205.636 176.446 206.424 175.659C207.211 174.872 209.888 176.761 211.148 176.761C212.487 176.761 216.031 175.974 217.212 175.738C218.472 175.423 221.149 172.509 221.385 172.194C221.543 171.879 222.724 169.832 223.275 168.493C223.748 167.154 224.771 162.745 225.086 161.957C225.401 161.091 225.795 159.122 225.559 157.154C225.322 155.185 225.874 154.634 226.897 153.61C227.842 152.665 230.126 150.224 230.283 149.594C230.362 148.964 228.394 145.893 228.157 144.948C228 144.003 229.575 142.98 230.52 142.271C231.543 141.483 230.677 139.436 230.205 138.491C230.047 137.704 230.677 137.074 231.307 135.971ZM207.132 138.806C206.817 139.515 206.345 140.223 205.794 140.775C205.479 141.09 205.242 141.326 205.006 141.72C204.77 142.035 204.612 142.428 204.376 142.822C204.297 142.98 204.14 143.294 203.904 143.294C203.746 143.294 203.667 143.137 203.667 142.98C203.667 142.901 203.667 142.901 203.746 142.822C203.746 142.743 203.746 142.665 203.746 142.665C203.746 142.507 203.746 142.428 203.746 142.271C203.746 142.192 203.825 142.113 203.825 142.035C203.904 141.72 203.982 141.405 204.061 141.168C204.14 140.932 203.982 140.696 203.746 140.617C203.589 140.538 203.431 140.46 203.352 140.302C203.274 140.223 203.037 140.145 203.037 139.987C202.959 139.83 203.116 139.593 203.195 139.436C203.352 139.2 203.51 138.963 203.746 138.727C203.982 138.491 204.061 138.176 204.219 137.861C204.297 137.704 204.297 137.546 204.376 137.31C204.455 137.152 204.455 136.995 204.534 136.916C204.691 136.68 204.927 136.916 205.006 137.074C205.164 137.231 205.4 137.546 205.636 137.546C205.715 137.546 205.872 137.389 205.951 137.31C206.03 137.152 206.109 136.995 206.266 136.837C206.424 136.68 206.581 136.444 206.817 136.601C207.132 136.837 207.211 137.231 207.29 137.546C207.368 138.019 207.29 138.412 207.132 138.806Z" fill="#2DBE5A"/>
<path d="M124.607 29.0345C124.134 29.507 124.528 30.1369 124.528 30.1369C124.528 30.1369 126.024 34.7042 126.339 35.4129C126.654 36.1216 127.284 36.4366 127.756 36.5941C128.229 36.7516 127.993 37.3816 127.678 37.854C127.363 38.3265 126.89 40.3739 126.89 40.5314C126.89 40.6889 126.496 42.6575 125.394 43.0512C124.213 43.445 122.008 40.2164 121.614 39.5864C121.22 39.0352 120.118 40.1377 119.724 40.4526C119.331 40.6889 117.677 39.0352 117.047 38.3265C116.417 37.6965 115.945 37.854 115.945 37.854C115.945 37.854 115.078 38.6415 114.448 39.3502C113.74 40.1377 115.157 41.6338 115.708 42.6575C116.26 43.6812 115.078 44.2324 114.37 44.9412C113.582 45.6499 112.952 46.5161 112.637 47.0673C112.322 47.6185 109.96 51.0833 109.33 51.8708C108.7 52.6582 108.936 54.9419 108.936 55.4931C109.015 56.0443 110.196 58.8004 110.354 59.5091C110.511 60.2178 110.905 61.6352 110.905 61.9502C110.905 62.2652 111.771 62.5014 112.558 63.1314C113.267 63.6826 112.873 64.3126 113.031 65.1788C113.11 66.045 110.275 66.9899 109.724 67.2262C109.172 67.4624 109.724 68.0924 110.039 68.6436C110.275 69.1948 110.59 70.4548 110.826 71.6359C111.062 72.8171 112.165 74.1558 112.873 74.5495C113.582 75.022 113.346 76.2032 113.425 76.8332C113.425 77.4631 107.125 78.4868 106.653 78.5656C106.101 78.6443 106.023 79.1955 105.944 79.8255C105.865 80.3767 107.834 82.3453 108.07 82.8178C108.385 83.2903 105.708 85.9677 105.078 86.6764C104.448 87.3851 104.763 91.6374 104.763 91.6374C103.739 91.8736 101.455 93.3698 100.983 93.5272C100.51 93.6847 100.432 98.4095 100.353 99.6694C100.274 100.929 98.2267 101.796 97.4393 101.874C96.6518 101.953 95.4706 101.796 95.0769 101.638C94.6044 101.481 92.872 101.559 91.8483 101.481C90.8247 101.402 90.1159 99.1969 89.8797 98.8032C89.6435 98.4095 90.1159 98.252 90.7459 98.0945C91.4546 98.0158 93.8957 97.0708 94.5257 96.9133C95.1557 96.7558 94.4469 94.8659 94.2894 94.551C94.2107 94.236 93.9745 93.4485 94.132 92.7398C94.2107 92.0311 93.6595 90.4562 92.4783 88.2513C91.2971 85.9677 88.9348 88.1726 87.9111 87.8576C86.8874 87.6213 87.0448 87.0701 86.4149 86.0464C85.7062 85.0227 87.9111 81.9516 87.9111 81.9516L85.3912 78.5656L80.3515 84.7077L77.5954 82.8178C77.4379 82.6603 77.3591 82.4241 77.2016 82.1879C77.1229 82.1091 77.0442 81.9516 76.8867 81.7941C76.8079 81.7154 76.7292 81.6367 76.6504 81.4792C76.5717 81.3217 76.4142 81.1642 76.3354 81.0067C76.2567 80.8492 76.178 80.6917 76.0992 80.5342C76.0992 80.4555 76.0992 80.3767 76.0992 80.2192C76.0992 80.1405 76.0205 79.983 76.0205 79.8255C76.0205 79.7468 76.0205 79.668 75.9417 79.5105C75.863 79.353 75.863 79.1955 75.863 79.038C75.863 78.8805 75.7842 78.7231 75.7842 78.5656C75.7842 78.4868 75.7055 78.3293 75.7055 78.2506C75.548 77.9356 75.3905 77.7781 75.1542 77.5419C75.0755 77.4631 74.8393 77.3844 74.7605 77.2269C74.603 77.1482 74.5243 76.9906 74.4455 76.9119C74.3668 76.8331 74.2881 76.7544 74.1306 76.7544C74.0518 76.6757 73.9731 76.6757 73.8943 76.6757C73.7368 76.6757 73.5793 76.5969 73.4218 76.4394C73.3431 76.2819 73.1856 76.1245 73.0281 76.0457C72.9494 75.967 72.8706 75.8882 72.7131 75.8095C72.6344 75.7307 72.6344 75.7307 72.5556 75.652C72.4769 75.5732 72.3981 75.4945 72.3194 75.4157C72.3194 74.9433 72.4769 74.5495 72.7131 74.2345C73.3431 73.5258 73.7368 72.3446 73.9731 71.8722C74.2093 71.3997 75.1542 69.9823 75.0755 69.1948C74.9968 68.3286 74.7605 65.8875 75.7842 65.2575C76.8079 64.6276 77.2016 64.2339 77.5166 64.6276C77.8316 65.0213 77.9891 65.4938 78.4616 64.8638C78.8553 64.2338 79.1703 64.0764 79.7215 63.6826C80.2727 63.2889 81.5327 63.1314 81.6114 62.2652C81.6114 61.4778 81.5326 60.9265 82.1626 60.5328C82.7926 60.0603 83.3438 60.2966 84.0525 60.454C84.7612 60.6115 85.2337 61.7927 85.6274 61.1628C86.0211 60.6115 84.7612 59.4303 83.9738 59.1941C83.1076 58.9579 80.0365 57.8554 80.2727 57.068C80.4302 56.2018 81.2177 55.6506 81.7689 56.2018C82.3201 56.753 82.4776 56.5168 82.7138 56.2805C82.8713 56.123 83.895 55.9656 84.4462 55.8868C84.9975 55.8081 85.1549 56.2805 85.2337 55.6506C85.3124 55.0206 85.3912 54.7056 85.6274 54.5481C85.8637 54.3906 86.1786 53.7607 85.7062 53.6032C85.2337 53.4457 84.7612 53.8394 84.525 54.1544C84.2887 54.4694 84.1313 54.5481 83.7375 54.3906C83.3438 54.2331 83.6588 52.8945 83.265 53.3669C82.7926 53.8394 82.6351 54.2331 82.0839 54.2331C81.5326 54.2331 81.0602 54.4694 80.9027 54.0756C80.7452 53.6819 80.7452 53.0519 80.4302 53.3669C80.1152 53.6819 79.564 54.4694 79.3278 53.7607C79.0128 53.0519 79.0128 52.422 79.1703 51.792C79.3278 51.2408 79.4065 51.0833 79.249 50.6896C79.0915 50.2171 79.0128 49.9021 79.3278 49.2722C79.7215 48.6422 80.509 48.091 81.2177 47.6973C81.9264 47.3035 83.2651 46.9098 83.7375 46.2011C84.1313 45.4924 84.3675 45.4136 84.0525 45.1774C83.7375 44.9411 83.6588 44.8624 83.4225 45.3349C83.1863 45.8074 83.1076 45.7286 83.0288 45.3349C82.9501 44.9412 82.4776 43.445 82.3989 44.3899C82.3201 45.2561 82.3201 45.8861 81.8476 46.2798C81.3752 46.6735 80.4302 47.3035 80.3515 46.4373C80.2727 45.5711 80.2727 43.6025 80.6664 42.8938C81.0602 42.1851 81.7689 41.2401 81.5327 40.9251C81.2964 40.6889 80.5877 39.5077 80.2727 40.5314C79.879 41.4763 78.6978 44.7049 79.1703 45.6499C79.6428 46.5948 80.0365 47.3823 79.3278 48.406C78.6978 49.5084 78.2253 50.3746 77.8316 50.8471C77.4379 51.3196 77.2016 51.6345 77.3591 52.5007C77.5166 53.3669 77.5954 56.123 76.9654 56.9105C76.3354 57.6192 75.0755 59.0366 75.1542 60.2178C75.233 61.4778 75.3117 62.4227 75.4692 62.4227C75.548 62.4227 75.7842 63.1314 75.3117 63.5251C74.8393 63.9189 74.5243 64.1551 74.1306 63.9189C73.8156 63.6039 73.5793 63.9189 73.5793 63.3676C73.5793 62.8164 73.8943 59.7453 74.1306 58.8004C74.4455 57.8554 75.1543 55.8081 75.233 54.7844C75.233 53.7607 75.6267 51.792 76.1779 51.0046C76.7292 50.1384 77.5954 48.406 77.6741 47.3035C77.7529 46.1223 78.1466 42.4213 78.4616 41.4763C78.7766 40.5314 79.3278 38.8777 79.564 37.6965C79.7215 36.5154 80.9027 31.1606 80.9027 30.0582C80.9814 29.0345 81.7689 22.1049 81.7689 21.0024V20.3725C81.9264 20.4512 82.1626 20.4512 82.3201 20.53C82.6351 20.53 82.9501 20.6087 83.1863 20.53C83.3438 20.4512 83.3438 20.215 83.5013 20.0575C83.58 20.0575 83.58 20.0575 83.6588 20.0575C83.8163 20.1363 83.9738 20.1362 84.1313 20.2937C84.2887 20.3725 84.525 20.4512 84.6825 20.6087C84.84 20.6875 84.9975 20.7662 85.2337 20.9237C85.6274 21.0812 86.2574 21.2387 86.6511 21.0024C86.8874 20.9237 87.0448 21.0024 87.2811 21.0812C87.4386 21.1599 87.6748 21.0812 87.8323 21.0812C87.9898 21.0024 88.226 21.0025 88.4623 20.845C88.541 20.7662 88.6198 20.7662 88.6198 20.6875C88.6198 20.6087 88.6198 20.53 88.6985 20.4512C88.7773 20.2937 89.0135 20.215 89.2497 20.215C89.486 20.215 89.6435 20.1362 89.6435 19.8213C89.6435 19.7425 89.6435 19.585 89.7222 19.5063C89.7222 19.4275 89.801 19.3488 89.8797 19.1913C89.9585 18.9551 89.9584 18.7976 90.1947 18.6401C90.3522 18.5613 90.5884 18.4826 90.7459 18.5613C90.9821 18.6401 91.2184 18.7188 91.4546 18.6401C91.6121 18.6401 91.6909 18.5613 91.7696 18.4826C91.8483 18.4038 91.8483 18.2464 92.0058 18.1676C92.1633 18.0101 92.5571 18.0101 92.6358 18.3251C92.7146 18.4826 92.7933 18.7188 92.7145 18.9551C92.6358 19.1126 92.6358 19.27 92.6358 19.4275C92.6358 19.585 92.7145 19.9 92.872 19.9788C93.0295 20.0575 93.3445 20.1363 93.5807 20.0575C93.7382 19.9788 93.817 19.9 93.9745 20.0575C94.132 20.1363 94.2895 20.3725 94.4469 20.53C94.5257 20.6875 94.6832 20.845 94.8407 20.9237C94.9982 21.0025 95.1557 20.9237 95.2344 20.845C95.3919 20.7662 95.4706 20.7662 95.6281 20.845C95.7856 20.9237 95.8644 20.9237 95.9431 20.845C96.1006 20.6875 96.1794 20.6087 96.3369 20.6087C96.4944 20.6087 96.7306 20.6087 96.8093 20.4512C96.8881 20.2937 96.888 20.1362 96.888 19.9788C96.888 19.8213 96.888 19.585 96.888 19.4275C96.888 19.27 96.8881 19.1126 96.8093 18.9551C96.7306 18.7976 96.6518 18.6401 96.6518 18.4826C96.6518 18.2464 96.8093 18.1676 96.9668 18.0889C97.1243 18.0889 97.2818 18.0889 97.4393 18.0101C97.518 17.9314 97.5968 17.7739 97.7543 17.6951C98.148 17.5376 98.3842 18.0101 98.6205 18.2463C98.9354 18.5613 99.4079 18.5613 99.6441 18.7976C99.8016 18.9551 99.9591 19.1126 100.038 19.27C100.195 19.4275 100.353 19.585 100.353 19.7425C100.353 19.9 100.274 19.9788 100.117 20.0575C99.9592 20.1363 99.9591 20.2937 100.038 20.4512C100.274 20.845 100.668 20.9237 101.062 21.0812C101.534 21.2387 101.928 21.4749 102.322 21.8686C102.637 22.1836 103.188 22.5774 103.66 22.4199C103.818 22.3411 103.975 22.2624 104.211 22.2624C104.369 22.2624 104.526 22.3411 104.684 22.2624C105.078 22.1049 104.684 21.3174 104.605 21.0812C104.448 20.6087 104.211 20.0575 103.975 19.585C103.896 19.4275 103.818 19.1913 103.66 19.0338C103.581 18.8763 103.66 18.7188 103.66 18.5613C103.739 18.4039 103.818 18.1676 103.975 18.0101C104.054 17.8526 104.29 17.8526 104.448 17.8526C104.526 17.8526 104.605 17.8526 104.684 17.8526C104.763 17.8526 104.841 17.8526 104.999 17.8526C105.078 17.8526 105.156 17.7739 105.235 17.7739C105.393 17.7739 105.471 17.7739 105.629 17.7739C105.786 17.7739 105.944 17.7739 106.023 17.7739C106.18 17.7739 106.416 17.8526 106.574 17.7739C106.968 17.6951 107.361 17.6164 107.755 17.5376C108.149 17.4589 108.464 17.3801 108.779 17.2227C108.936 17.1439 109.094 17.1439 109.172 17.0652C109.33 16.9864 109.487 16.9077 109.645 16.7502C109.96 16.5927 110.196 16.4352 110.511 16.199C110.826 15.9627 110.984 15.7265 111.377 15.569C111.535 15.4902 111.692 15.4115 111.85 15.4115C112.007 15.3328 112.243 15.3328 112.401 15.3328C112.558 15.3328 112.795 15.3328 112.952 15.3328C113.11 15.4115 113.267 15.4115 113.425 15.4902C113.582 15.569 113.818 15.6477 113.976 15.7265C114.133 15.8052 114.212 16.0415 114.37 16.0415C114.37 16.0415 114.37 16.0415 114.448 16.0415L114.527 16.1202C114.606 16.1202 114.685 16.199 114.842 16.199C114.921 16.199 115 16.2777 115.157 16.3564C115.315 16.3564 115.472 16.4352 115.63 16.4352C115.945 16.4352 116.338 16.2777 116.653 16.1202C116.811 16.0415 117.047 15.9627 117.204 15.8052L117.441 15.569C117.834 16.5139 116.26 18.9551 116.023 19.3488C115.866 19.7425 115.866 19.9 116.102 20.2937C116.417 20.6875 116.574 21.3174 116.889 21.9474C117.204 22.5774 118.307 22.8136 118.779 22.9711C119.252 23.1286 121.142 23.916 122.008 24.3885C122.874 24.861 123.504 24.3885 123.504 24.3885L127.126 21.9474C127.126 21.9474 129.095 25.0185 129.489 25.5697C129.804 26.1209 128.386 26.5146 127.441 26.9084C126.339 26.9871 125.079 28.562 124.607 29.0345Z" fill="#2DBE5A"/>
<path d="M78.934 57.6192C78.8553 57.6192 78.7765 57.5404 78.7765 57.4617C78.7765 57.3829 78.6978 57.3829 78.6978 57.3829C78.6978 57.3042 78.6978 57.3042 78.6978 57.2254C78.6978 57.1467 78.619 56.9892 78.619 56.9105C78.619 56.9105 78.619 56.8317 78.6978 56.8317C78.6978 56.753 78.7765 56.6742 78.7765 56.6742C78.8553 56.5955 78.934 56.5955 79.0127 56.5167C79.0915 56.5167 79.0915 56.438 79.1702 56.438C79.249 56.438 79.249 56.438 79.3277 56.3593C79.3277 56.3593 79.4065 56.3593 79.4852 56.3593L79.564 56.438C79.6427 56.5167 79.7215 56.5955 79.7215 56.6742C79.7215 56.8317 79.8002 56.9892 79.7215 57.1467C79.6427 57.3042 79.4852 57.3829 79.3277 57.4617C79.1702 57.4617 79.0915 57.6192 78.934 57.6192Z" fill="#2DBE5A"/>
<path d="M76.4929 59.4303C76.4142 59.5878 76.3354 59.6666 76.2567 59.8241C76.1779 59.9816 76.0992 60.1391 75.9417 60.2178C75.8629 60.2965 75.7055 60.2965 75.6267 60.2178C75.4692 59.9816 75.6267 59.6666 75.7055 59.4303C75.7842 59.2729 75.7842 59.1941 75.8629 59.0366C75.9417 58.8791 76.0204 58.8004 76.0992 58.7216C76.1779 58.5641 76.2567 58.4067 76.4142 58.3279C76.4929 58.2492 76.5717 58.0917 76.6504 58.0129C76.8079 57.8554 77.0441 57.6979 77.2016 57.6192C77.3591 57.5404 77.5166 57.383 77.6741 57.383C77.8316 57.3042 78.0678 57.5404 78.0678 57.6979C78.1466 57.9342 78.1466 58.0917 78.0678 58.3279C78.0678 58.4067 77.9891 58.4854 77.9891 58.5641C77.9103 58.6429 77.9103 58.6429 77.8316 58.7216C77.7528 58.8004 77.6741 58.8791 77.5166 58.9579C77.4379 59.0366 77.3591 59.0366 77.2804 59.0366C77.1229 59.1154 76.9654 59.1941 76.8079 59.2728C76.8079 59.1154 76.5717 59.2729 76.4929 59.4303Z" fill="#2DBE5A"/>
<path d="M75.3118 62.8165C75.3118 62.7377 75.3905 62.7377 75.3905 62.659C75.3905 62.5802 75.3905 62.5802 75.3905 62.5015C75.3905 62.4227 75.3905 62.4227 75.3905 62.344C75.4693 62.1865 75.4693 62.1077 75.4693 61.9502C75.4693 61.8715 75.548 61.7928 75.6268 61.7928C75.7055 61.714 75.7055 61.714 75.7843 61.6353C75.863 61.5565 75.9418 61.5565 76.0205 61.5565C76.4142 61.5565 76.3355 62.029 76.3355 62.2652C76.3355 62.4227 76.3355 62.7377 76.178 62.8165C76.0992 62.8165 76.0205 62.8165 75.9418 62.8952C75.863 62.8952 75.7843 62.8952 75.7055 62.974C75.548 62.974 75.4693 63.0527 75.3118 63.0527C75.2331 63.0527 75.2331 62.8952 75.3118 62.8165Z" fill="#2DBE5A"/>
<path d="M73.0281 67.0688C73.1068 66.7538 73.1856 66.3601 73.3431 66.0451C73.4218 65.8876 73.5006 65.6514 73.5793 65.4939C73.6581 65.3364 73.8156 65.1789 73.8943 65.0214C74.0518 64.7852 74.0518 64.3915 73.7368 64.234C73.3431 64.0765 73.0281 64.4702 72.8706 64.7852C72.7131 65.1002 72.5556 65.4939 72.4769 65.8089C72.3981 66.1239 72.3981 66.5176 72.3981 66.8326C72.3194 67.2263 72.2406 67.62 72.0832 68.0138C72.0044 68.4075 71.9257 68.8012 71.7682 69.1949C71.6894 69.4312 71.6107 69.6674 71.5319 69.9824C71.5319 70.1399 71.4532 70.2186 71.4532 70.3761C71.4532 70.4549 71.4532 70.5336 71.3745 70.5336V70.6124C71.3745 70.7699 71.3745 70.9273 71.3745 71.0848C71.3745 71.1636 71.3744 71.2423 71.5319 71.2423C71.6107 71.3211 71.7682 71.2423 71.8469 71.1636C72.0044 71.0848 72.0832 70.9274 72.1619 70.7699C72.1619 70.6911 72.2406 70.6124 72.3194 70.5336C72.3981 70.4549 72.3981 70.3761 72.3981 70.2974C72.4769 70.2186 72.4769 70.1399 72.5556 69.9824C72.5556 69.8249 72.5556 69.7462 72.6344 69.5887C72.6344 69.4312 72.6344 69.2737 72.7131 69.1949C72.7131 69.0375 72.7131 68.88 72.7919 68.8012C72.8706 68.565 72.7919 68.3288 72.8706 68.1713C72.9494 67.935 72.9493 67.6988 73.0281 67.4625C72.9493 67.3838 72.9493 67.2263 73.0281 67.0688Z" fill="#2DBE5A"/>
<path d="M69.9571 78.8018C69.9571 78.6444 70.0358 78.5656 70.1146 78.4081C70.2721 78.0931 70.3508 77.6994 70.4296 77.3844C70.5083 77.0694 70.6658 76.7545 70.6658 76.4395C70.6658 76.282 70.6658 76.2032 70.5871 76.1245C70.5083 75.967 70.5083 75.8882 70.5083 75.7307C70.5083 75.652 70.5083 75.4158 70.4296 75.337C70.3508 75.2583 70.1933 75.4158 70.1933 75.4945C69.9571 75.8095 69.9571 76.1245 69.9571 76.5182C69.9571 76.9907 69.8784 77.5419 69.7996 78.0144C69.7209 78.4869 69.5634 79.0381 69.4059 79.5105C69.3271 79.668 69.3271 79.9043 69.2484 80.0618C69.2484 80.2192 69.1696 80.3767 69.2484 80.5342C69.2484 80.5342 69.2484 80.613 69.3271 80.613C69.3271 80.613 69.4059 80.613 69.4059 80.6917C69.4846 80.6917 69.5634 80.6917 69.6421 80.6917C69.7209 80.6917 69.7996 80.6917 69.7996 80.613C69.7996 80.5342 69.8783 80.4555 69.8783 80.3768C69.9571 80.2193 69.9571 80.0618 69.9571 79.8255C69.8783 79.3531 69.8783 79.0381 69.9571 78.8018Z" fill="#2DBE5A"/>
<path d="M156.499 124.947C155.475 125.577 154.845 126.679 153.979 128.018C153.113 129.357 152.089 129.357 150.986 129.672C149.963 130.065 148.073 129.12 146.97 128.805C145.868 128.49 143.663 130.065 143.033 130.538C142.561 130.932 143.506 133.294 143.899 134.16C143.269 134.239 142.718 134.396 142.246 134.79C142.088 134.869 141.931 134.948 141.852 135.105C141.773 135.184 141.694 135.341 141.537 135.42C141.301 135.578 141.064 135.735 140.749 135.735C140.513 135.814 140.356 135.735 140.119 135.814C139.962 135.814 139.805 135.893 139.726 135.893C139.647 135.893 139.647 135.893 139.568 135.893C139.49 135.893 139.411 135.893 139.411 135.893C139.253 135.971 139.096 136.05 138.938 136.129C138.781 136.208 138.545 136.208 138.387 136.286C137.6 136.601 136.812 136.916 136.103 137.31C135.001 137.94 134.135 138.885 132.875 139.2C132.402 139.357 131.93 139.357 131.457 139.279C131.3 139.2 130.906 139.2 130.828 138.964C130.749 138.727 130.985 138.491 131.064 138.334C131.221 138.019 131.457 137.704 131.694 137.389C132.245 136.68 132.639 135.893 133.111 135.184C133.347 134.869 133.584 134.554 133.977 134.239C134.292 134.003 134.607 133.766 134.844 133.451C135.001 133.215 135.237 132.9 135.159 132.585C135.001 132.27 134.607 132.349 134.371 132.349C133.662 132.428 133.032 132.664 132.56 133.136C132.245 133.373 132.009 133.688 131.694 133.924C131.457 134.16 131.221 134.475 130.985 134.711C130.828 134.948 130.749 135.184 130.67 135.341C130.434 135.971 129.804 136.365 129.41 136.837C129.174 137.152 129.016 137.389 128.623 137.546C128.229 137.704 127.835 137.546 127.441 137.467C126.969 137.31 126.496 137.31 125.945 137.389C125.709 137.389 125.473 137.546 125.315 137.782L124.37 136.759C124.292 136.68 124.213 136.523 124.134 136.444C124.055 136.286 123.977 136.129 123.819 135.971C123.583 135.656 123.425 135.341 123.268 135.026C123.189 134.948 123.11 134.79 123.032 134.711C122.953 134.633 122.874 134.554 122.874 134.396C122.795 134.318 122.795 134.239 122.717 134.239C122.717 134.16 122.638 134.16 122.559 134.081C122.48 134.003 122.48 134.003 122.48 133.924C122.402 133.766 122.323 133.53 122.244 133.373C122.165 133.215 122.087 132.979 122.087 132.821C122.087 132.743 122.008 132.664 122.008 132.506C122.008 132.428 121.929 132.428 121.929 132.349C121.851 132.191 121.772 131.955 121.693 131.798C121.614 131.483 121.457 131.247 121.378 130.932C121.299 130.695 121.221 130.38 121.221 130.065C121.221 129.593 121.693 129.199 121.929 128.727C122.008 128.569 122.087 128.412 122.008 128.333C121.929 128.175 121.772 128.175 121.693 128.097C121.299 127.939 120.906 127.782 120.512 127.624C120.118 127.388 119.724 127.152 119.252 126.915C118.937 126.758 118.622 126.522 118.307 126.522C117.913 126.522 117.598 126.837 117.283 126.994C116.89 127.309 116.496 127.703 116.023 127.939C115.63 128.254 115.157 128.412 114.685 128.727C114.291 128.884 113.976 129.199 113.661 129.435C113.661 129.435 113.661 129.435 113.582 129.514C113.503 129.593 113.346 129.75 113.188 129.829C113.031 129.908 112.873 129.987 112.795 130.065C112.637 130.144 112.48 130.302 112.243 130.38C112.007 130.459 111.771 130.538 111.535 130.617C111.299 130.695 111.141 130.774 111.062 131.01C110.984 131.168 110.984 131.483 110.984 131.64C110.984 131.955 110.984 132.191 111.062 132.506C111.141 132.821 111.22 133.058 111.299 133.294C111.377 133.688 111.456 134.081 111.535 134.475C111.614 134.79 111.771 135.026 111.85 135.341C111.929 135.656 112.007 135.892 112.086 136.207C112.165 136.522 112.244 136.837 112.165 137.074C112.086 137.31 112.007 137.389 111.771 137.467C111.535 137.546 111.456 137.704 111.299 137.861C111.141 138.019 110.905 138.097 110.747 138.019C110.511 137.94 110.354 137.704 110.117 137.625C109.881 137.546 109.566 137.467 109.251 137.389C109.015 137.31 108.779 137.231 108.542 137.231C108.306 137.231 108.07 137.231 107.834 137.389C107.676 137.546 107.597 137.782 107.519 137.94C107.44 138.176 107.361 138.412 107.283 138.649C107.204 138.806 107.125 138.885 107.046 138.964C106.968 139.042 106.889 139.121 106.81 139.279C106.731 139.357 106.653 139.436 106.653 139.594C106.574 139.909 106.495 140.145 106.338 140.46C106.259 140.775 106.18 141.011 106.023 141.247C105.865 141.405 105.629 141.562 105.393 141.562C105.078 141.562 104.841 141.562 104.526 141.641C104.29 141.641 103.975 141.72 103.739 141.72C103.03 141.641 103.03 140.853 102.952 140.302C102.952 139.909 102.952 139.436 102.794 139.042C102.715 138.727 102.558 138.491 102.4 138.255C102.085 137.704 101.849 136.995 101.613 136.365C101.455 135.656 101.377 134.948 101.298 134.239C101.298 134.003 101.219 133.688 101.062 133.451C100.904 133.294 100.668 133.215 100.51 133.294C99.9592 133.294 99.5655 133.766 99.093 133.924C98.778 134.003 98.463 134.003 98.148 134.081C97.9905 134.16 97.833 134.16 97.6755 134.239C97.5968 134.239 97.5181 134.318 97.5181 134.318C97.4393 134.318 97.3606 134.318 97.2818 134.396C97.2031 134.396 97.1243 134.475 97.0456 134.475C96.8881 134.554 96.7306 134.554 96.5731 134.554C96.2581 134.633 95.9432 134.633 95.6282 134.711C95.4707 134.711 95.2344 134.869 95.0769 134.948C94.9194 135.026 94.6832 135.105 94.447 135.184C94.132 135.263 93.8958 135.263 93.6595 135.263C93.5808 135.263 93.502 135.263 93.3445 135.263C93.2658 135.263 93.1871 135.341 93.0296 135.42C92.8721 135.499 92.7146 135.656 92.6358 135.814C92.5571 135.971 92.4783 136.129 92.3208 136.286C92.2421 136.444 92.0059 136.601 91.9271 136.837C91.7696 137.074 91.6121 137.389 91.5334 137.704C91.5334 137.782 91.5334 137.861 91.4547 137.94C91.3759 138.097 91.2971 138.176 91.2184 138.334C91.1397 138.491 91.0609 138.649 90.9822 138.806C90.9034 138.885 90.8247 139.042 90.8247 139.2C90.8247 139.357 90.7459 139.515 90.6672 139.672C90.6672 139.751 90.5884 139.987 90.5884 140.066C90.5097 140.224 90.3522 140.381 90.2735 140.538C90.1947 140.696 90.0372 140.696 89.8797 140.617C89.7222 140.539 89.6435 140.46 89.486 140.381C89.3285 140.381 89.171 140.381 89.0135 140.381C88.6986 140.381 88.6198 140.145 88.5411 139.83C88.4623 139.672 88.541 139.436 88.4623 139.279C88.4623 138.964 88.3836 138.57 88.3048 138.255C88.3048 138.176 88.2261 138.097 88.2261 137.94C88.2261 137.782 88.2261 137.625 88.1473 137.467C88.0686 136.68 88.1473 135.893 88.1473 135.184C88.1473 134.475 88.0686 133.845 87.9898 133.136C87.9898 132.979 87.9111 132.743 87.9111 132.506C87.9111 132.349 87.8323 132.191 87.6748 132.113C87.5174 132.034 87.3599 132.034 87.2024 132.034C86.9661 132.034 86.7299 132.113 86.5724 132.113C86.0999 132.113 85.7062 132.191 85.3125 132.428C84.9187 132.743 84.6825 133.294 84.3675 133.688C84.21 133.924 83.9738 134.081 83.7376 134.239C83.5013 134.475 83.3438 134.711 83.1864 135.026C83.0289 135.341 82.9501 135.578 82.7926 135.893C82.6351 136.129 82.3202 136.286 82.0052 136.365C81.7689 136.444 81.5327 136.601 81.2177 136.522C80.9815 136.522 80.7452 136.444 80.5877 136.365C80.4302 136.286 80.194 136.208 80.1153 136.05C80.0365 135.893 79.9578 135.656 79.879 135.499C79.8003 135.263 79.8003 134.869 79.564 134.711C79.3278 134.475 79.1703 134.239 79.0128 133.924C78.9341 133.845 78.8553 133.688 78.7766 133.609C78.6978 133.53 78.6191 133.373 78.4616 133.294C78.3829 133.215 78.3829 133.058 78.3041 132.979C78.2254 132.9 78.1466 132.743 78.0679 132.585C77.9891 132.349 77.8316 132.034 77.6742 131.798C77.5167 131.562 77.3592 131.404 77.1229 131.247C76.9654 131.089 76.7292 130.932 76.5717 130.774C76.4142 130.695 76.178 130.538 76.0205 130.459C75.7843 130.38 75.548 130.302 75.3118 130.302C75.0755 130.302 74.8393 130.223 74.6031 130.302C74.5243 130.302 74.4456 130.302 74.2881 130.38C73.9731 130.459 73.5794 130.38 73.2644 130.38C73.1856 130.38 73.1069 130.302 72.9494 130.302C72.8707 130.302 72.7919 130.302 72.7132 130.302C72.5557 130.302 72.3194 130.302 72.162 130.302C71.847 130.302 71.6107 130.302 71.2957 130.223H70.902C70.6658 130.223 70.4295 130.144 70.272 130.065C70.0358 129.987 69.7208 129.987 69.4846 130.065C69.0909 130.065 68.5397 129.987 68.2247 130.302C67.9097 130.617 67.4372 130.774 67.1222 131.089C66.9647 131.247 66.8072 131.325 66.6498 131.483C66.4923 131.561 66.3348 131.798 66.1773 131.955C66.0985 132.113 65.941 132.349 65.7835 132.428C65.6261 132.506 65.4686 132.585 65.2323 132.664C64.8386 132.743 64.3661 132.821 64.1299 132.506C63.8936 132.191 63.6574 131.798 63.4212 131.562C63.2637 131.404 63.0274 131.247 62.8699 131.089C62.7125 130.932 62.4762 130.695 62.3187 130.538C62.0825 130.302 61.8463 129.987 61.5313 129.75C61.4525 129.672 61.3738 129.593 61.2163 129.514C61.0588 129.435 60.8226 129.514 60.7438 129.514C60.5863 129.514 60.5076 129.435 60.3501 129.357C60.1139 129.199 59.8776 129.042 59.5626 128.805C60.1926 126.522 60.7438 124.553 60.8226 124.396C60.9013 124.002 61.8463 122.269 62.9487 121.797C64.0511 121.325 64.3661 121.088 64.8386 121.561C65.3111 122.033 66.1773 122.584 65.7835 121.64C65.3898 120.695 64.9173 119.356 63.9724 119.198C63.1062 119.041 60.8226 118.726 60.6651 118.096C60.5076 117.466 60.9801 116.521 59.8776 116.285C58.8539 116.049 58.5389 115.812 58.5389 115.419C58.5389 114.946 58.0665 114.552 58.1452 114.08C58.224 113.529 58.1452 112.82 58.9327 112.426C59.7989 111.954 59.8776 111.481 60.0351 110.93C60.1926 110.458 62.9487 104.473 63.1849 103.764C63.4999 102.977 65.1536 98.4096 65.3111 97.6221C65.4686 96.8346 66.1773 93.9998 66.4135 92.9761C66.6497 91.8737 67.1222 89.3538 67.2797 88.8813C67.4372 88.4088 67.9884 85.259 68.1459 84.7078C68.3034 84.1566 68.5397 82.1879 69.4059 81.4005C70.2721 80.613 70.587 80.3768 70.6658 79.8256C70.7445 79.2743 70.6658 78.0931 71.217 77.7782C71.7682 77.4632 72.162 77.3844 72.0832 76.7545C72.0832 76.3608 72.0045 75.7308 72.0832 75.1796C72.162 75.2583 72.2407 75.337 72.3194 75.4158C72.3982 75.4945 72.3982 75.4945 72.4769 75.5733C72.5557 75.652 72.6344 75.7308 72.7919 75.8095C72.9494 75.967 73.1069 76.1245 73.1856 76.2033C73.2644 76.282 73.5006 76.4395 73.6581 76.4395C73.7369 76.4395 73.8156 76.4395 73.8943 76.5182C73.9731 76.597 74.0518 76.597 74.2093 76.6757C74.2881 76.7545 74.3668 76.912 74.5243 76.9907C74.6818 77.0695 74.8393 77.1482 74.9181 77.3057C75.1543 77.5419 75.3118 77.7782 75.4693 78.0144C75.548 78.0932 75.548 78.2506 75.548 78.3294C75.548 78.4869 75.6268 78.6444 75.6268 78.8019C75.7055 78.9594 75.7055 79.1168 75.7055 79.2743C75.7843 79.3531 75.7055 79.4318 75.7842 79.5893C75.7842 79.6681 75.863 79.8256 75.863 79.9831C75.863 80.0618 75.863 80.1405 75.863 80.298C75.863 80.4555 76.0205 80.613 76.0992 80.7705C76.178 80.928 76.3355 81.0855 76.4142 81.243C76.493 81.3217 76.5717 81.4005 76.6504 81.558C76.7292 81.7155 76.8079 81.7942 76.9654 81.9517C77.1229 82.1092 77.2017 82.3454 77.3592 82.5817L80.1153 84.4716L85.155 78.3294L87.6748 81.7155C87.6748 81.7155 85.47 84.7865 86.1787 85.8102C86.8086 86.8339 86.7299 87.3064 87.6748 87.6214C88.6985 87.8576 90.9822 85.7315 92.2421 88.0151C93.4233 90.22 93.9745 91.7949 93.8958 92.5036C93.817 93.2123 93.9745 93.9998 94.0533 94.3148C94.132 94.6298 94.9194 96.5196 94.2895 96.6771C93.6595 96.8346 91.1397 97.7796 90.5097 97.8583C89.8797 97.9371 89.3285 98.1733 89.6435 98.567C89.8797 98.9608 90.5097 101.166 91.6121 101.244C92.7146 101.323 94.447 101.323 94.8407 101.402C95.3132 101.559 96.4156 101.717 97.2031 101.638C97.9905 101.559 100.038 100.693 100.117 99.4332C100.195 98.1733 100.274 93.5273 100.747 93.2911C101.219 93.1336 103.503 91.6374 104.526 91.4012C104.605 91.4012 104.684 91.3224 104.763 91.3224C105.708 91.2437 106.889 91.1649 107.361 91.8736C107.755 92.5824 108.857 94.6298 109.487 94.9447C110.117 95.3385 112.086 96.2047 112.795 96.6771C113.582 97.1496 115.078 97.6221 115.315 97.9371C115.551 98.3308 116.023 98.8033 116.575 98.4883C117.126 98.1733 119.961 96.8346 121.063 96.7559C122.244 96.7559 123.425 96.7559 124.292 97.0709C125.158 97.3859 127.835 98.0946 128.859 97.1496C129.883 96.2047 132.087 93.9998 133.347 92.9761C134.607 91.9524 136.497 90.2987 136.812 89.905C137.127 89.5113 139.175 88.1726 140.277 87.7001C141.379 87.2277 144.451 85.4952 145.238 84.7865C146.025 84.0778 148.467 81.4005 149.49 80.3768C149.569 80.298 149.648 80.2193 149.805 80.0618C149.805 80.0618 152.246 82.0304 152.168 83.2116C152.089 84.3141 151.853 84.7078 150.986 84.7078C150.12 84.7078 148.624 84.944 148.624 85.6527C148.624 86.2827 148.467 87.8576 149.018 88.0939C149.569 88.3301 152.876 90.6137 152.955 91.4012C153.034 92.2674 153.506 94.4723 153.664 95.181C153.821 95.8109 154.451 97.3071 153.664 98.567C152.798 99.827 149.884 104 149.884 104.158C149.963 104.237 151.223 106.363 152.168 107.15C152.168 107.15 151.459 108.961 151.223 109.434C151.065 109.906 151.144 110.773 150.514 111.639C149.884 112.584 150.593 113.292 150.593 113.292C150.593 113.292 158.94 121.64 159.333 122.033C159.963 122.663 157.522 124.317 156.499 124.947Z" fill="#2DBE5A"/>
<path d="M63.2636 121.325C63.1061 121.403 62.8699 121.482 62.7124 121.561C62.4762 121.718 62.2399 121.954 62.0037 122.112C61.8462 122.191 61.61 122.427 61.4525 122.269C61.295 122.033 61.295 121.718 61.295 121.403C61.3737 121.167 61.4525 120.852 61.5312 120.616C61.61 120.458 61.6887 120.301 61.8462 120.143C62.0037 119.986 62.1612 119.828 62.3187 119.75C62.6337 119.671 62.9486 119.671 63.2636 119.75C63.4999 119.828 63.7361 119.907 63.9723 119.986C64.0511 120.065 64.2086 120.143 64.2873 120.222C64.3661 120.301 64.3661 120.38 64.3661 120.537C64.3661 120.616 64.3661 120.773 64.2086 120.852C64.0511 121.01 63.8936 121.01 63.7361 121.01C63.6574 121.01 63.5786 121.088 63.4999 121.088C63.4999 121.246 63.4211 121.246 63.2636 121.325Z" fill="#2DBE5A"/>
<path d="M7.19669 203.141C7.27543 202.984 7.11794 202.826 7.11794 202.669C7.03919 202.512 7.03918 202.354 6.88169 202.275C6.7242 202.197 6.64545 202.275 6.48796 202.433C6.40921 202.512 6.25173 202.512 6.17298 202.669C6.09423 202.826 6.0155 202.984 6.0155 203.141C6.0155 203.22 6.09423 203.299 6.09423 203.378C6.17298 203.456 6.17298 203.535 6.17298 203.614C6.17298 203.85 6.33049 203.929 6.40923 204.165C6.40923 204.244 6.48796 204.48 6.56671 204.48C6.64545 204.48 6.80294 204.165 6.88169 204.086C6.80294 203.929 6.80294 203.614 6.88169 203.535C6.88169 203.299 7.11794 203.299 7.19669 203.141Z" fill="#00AAE1"/>
<path d="M1.52707 193.377C1.60581 193.377 1.52707 193.377 1.52707 193.377C1.44832 193.298 1.44832 193.377 1.44832 193.298C1.36957 193.219 1.36957 193.219 1.36957 193.141C1.36957 193.141 1.36957 193.062 1.36957 192.983L1.44832 192.904C1.44832 192.826 1.44833 192.747 1.60582 192.668C1.76331 192.589 1.92081 192.747 2.0783 192.826C2.23579 192.826 2.47203 192.904 2.47203 193.062C2.47203 193.219 2.15704 193.377 1.99955 193.456L1.84205 193.377C1.68456 193.377 1.60581 193.377 1.52707 193.377Z" fill="#00AAE1"/>
<path d="M2.23573 191.33C2.31447 191.251 2.39323 191.33 2.47198 191.251C2.55072 191.251 2.55071 191.172 2.62945 191.172C2.86569 191.093 2.94444 191.33 3.02318 191.487C3.02318 191.723 3.02319 191.881 2.78696 191.881C2.70821 191.881 2.62945 191.881 2.5507 191.802L2.47198 191.723C2.47198 191.723 2.39323 191.723 2.39323 191.645C2.31448 191.566 2.31447 191.487 2.23573 191.487C2.23573 191.408 2.15698 191.408 2.23573 191.33C2.15698 191.33 2.15698 191.33 2.23573 191.33Z" fill="#00AAE1"/>
<path d="M125.709 143.295C125.709 143.688 125.709 144.003 125.63 144.318C125.551 144.712 125.394 145.106 125.158 145.499C125 145.814 124.843 146.208 124.606 146.523C124.292 146.917 124.055 147.232 123.74 147.547C123.425 147.862 123.11 148.098 122.717 148.413C122.402 148.649 122.165 148.964 121.929 149.2C121.614 149.515 121.299 149.83 120.984 150.067C120.354 150.618 119.567 151.012 118.779 151.169C118.543 151.169 118.307 151.169 117.992 151.169C117.756 151.169 117.519 151.248 117.283 151.327C116.968 151.405 116.653 151.484 116.338 151.484C115.787 151.642 115.157 151.799 114.606 151.878C114.291 151.957 114.055 151.957 113.818 151.957C113.425 152.035 113.11 152.114 112.795 152.35C112.243 152.744 112.243 153.374 112.165 153.925C112.007 154.476 112.007 155.106 111.771 155.658C111.692 156.13 111.377 156.524 111.22 156.996C110.432 157.075 109.645 157.154 109.409 157.154C108.779 157.233 108.7 158.256 108.621 159.122C108.542 159.989 107.361 159.752 105.944 159.831C104.526 159.91 96.3368 161.485 96.3368 161.485C96.3368 161.485 94.5256 154.398 94.1319 153.217C93.6594 152.035 92.0845 153.217 91.2183 153.532C90.2734 153.846 90.0371 154.398 87.9897 155.028C85.8636 155.579 86.3361 156.366 85.3911 156.996C84.4462 157.548 79.249 158.65 78.0678 159.044C76.8866 159.359 77.1228 160.146 77.1228 160.146C77.1228 160.146 77.2803 162.824 77.2803 163.926C77.2803 164.95 78.6978 166.997 79.249 167.627C79.8002 168.336 79.4852 169.044 79.249 169.438C79.0127 169.832 78.8553 170.304 78.4615 171.407C78.0678 172.588 75.9417 173.69 74.1305 174.872C72.3194 175.974 74.9967 179.675 75.7054 181.171C76.3354 182.667 75.5479 185.581 75.3904 186.211C75.2329 186.841 72.5556 186.211 72.0831 186.211C71.6106 186.132 71.1382 188.731 70.8232 189.833C70.5082 190.857 69.327 190.621 68.2246 190.621C67.2009 190.621 63.2636 191.408 62.0824 191.487C60.8225 191.566 58.1451 192.904 57.4364 193.219C56.649 193.534 55.074 197.944 54.6803 198.653C54.2866 199.44 52.3967 200.464 51.373 200.621C50.428 200.779 49.6406 201.881 49.0894 202.118C48.5381 202.433 48.7744 206.449 48.8531 207.866C48.8531 208.89 47.7507 209.441 46.3333 209.598C46.2545 209.441 46.1758 209.283 46.097 209.205C46.0183 209.205 45.9395 209.205 45.7821 209.126C43.6559 208.732 42.3172 209.913 41.451 210.307C40.5848 210.701 38.1437 213.536 37.12 214.559C36.0963 215.583 35.6238 218.103 35.3876 219.127C35.1514 220.15 33.8914 219.757 33.104 219.757C32.3165 219.678 32.7103 217.946 32.789 217.158C32.8678 216.449 32.7103 215.819 31.7653 215.741C30.7416 215.662 30.8991 211.646 30.9778 210.622C31.0566 209.598 27.7493 209.52 26.6468 209.441C25.5444 209.441 24.2057 210.858 23.7333 211.488C23.2608 212.118 21.5284 211.41 20.8984 211.016C20.4259 210.78 19.3235 211.803 18.6148 212.512C18.0636 212.118 16.2524 211.252 16.2524 210.386C16.2524 209.52 17.2761 208.339 16.5674 208.102C15.7799 207.866 15.3862 207.079 14.9137 207.472C14.3625 207.866 13.9688 207.945 13.575 207.63C13.1813 207.394 12.0789 206.37 12.3151 206.212C12.6301 205.976 12.9451 205.267 13.3388 205.267C13.7325 205.346 14.2838 205.661 14.7562 205.11C15.2287 204.559 15.3862 204.401 15.5437 204.952C15.7012 205.504 15.8587 205.582 16.3311 205.74C16.8036 205.897 17.4336 206.134 17.5123 205.582C17.5911 205.031 17.4336 204.165 17.9848 203.929C18.536 203.771 18.6935 204.244 18.6935 204.559C18.7723 204.874 19.481 205.661 20.3472 204.559C21.2134 203.456 24.8357 199.755 25.5444 198.732C26.2531 197.708 26.7256 197.472 26.9618 197.944C27.2768 198.417 27.7493 198.889 28.143 198.81C28.5367 198.653 29.5604 198.653 29.3242 199.047C29.0092 199.44 28.6942 199.598 29.088 199.677C29.5604 199.677 29.6392 200.306 29.1667 200.385C28.6942 200.385 28.5367 200.7 28.6942 200.7C28.8517 200.779 29.1667 201.409 28.773 201.488C28.3005 201.566 28.0643 201.803 28.3792 201.881C28.6942 201.96 27.9855 202.748 27.9855 203.141C27.9855 203.535 28.3005 204.48 28.773 204.165C29.1667 203.771 29.7179 202.433 30.1116 202.748C30.5841 202.984 31.3716 203.535 31.3716 203.141C31.3716 202.669 31.3716 202.196 31.6866 202.275C32.0015 202.354 32.6315 202.669 32.6315 202.275C32.6315 201.881 33.104 201.173 32.2378 201.173C31.4503 201.173 30.8204 201.015 30.7416 200.543C30.6629 199.991 30.6629 198.102 30.0329 197.787C29.4029 197.472 28.6155 196.999 28.6155 196.448C28.6155 195.975 28.9305 195.503 29.3242 195.346C29.7179 195.188 30.7416 194.401 30.8991 194.086C31.0566 193.692 33.2615 190.621 33.5765 190.621C33.9702 190.621 34.9939 190.463 34.9939 189.833C34.9939 189.203 35.4664 188.495 35.7026 188.258C35.9388 188.022 38.7737 185.187 38.8524 184.715C38.9312 184.242 39.5611 182.982 39.9549 182.746C40.3486 182.51 42.2385 181.25 41.766 180.62C41.2148 179.99 40.2698 179.124 40.5848 178.809C40.8998 178.415 44.3646 171.722 44.4434 170.541C44.5221 169.281 44.6796 165.816 45.0733 164.792C45.4671 163.768 47.1995 160.067 47.6719 159.28C48.2232 158.493 50.2706 155.106 50.5068 154.555C50.743 154.004 52.3967 150.539 52.7117 149.673C53.0266 148.807 54.5228 145.578 54.8378 144.712C55.1528 143.925 57.3577 136.05 57.3577 136.05C57.3577 136.05 58.4601 132.113 59.3263 128.805C59.5625 129.042 59.7988 129.199 60.1138 129.357C60.1925 129.435 60.35 129.514 60.5075 129.514C60.665 129.514 60.9012 129.435 60.98 129.514C61.0587 129.593 61.1375 129.672 61.2949 129.75C61.6099 129.908 61.7674 130.223 62.0824 130.538C62.2399 130.695 62.4761 130.931 62.6336 131.089C62.7911 131.246 63.0273 131.404 63.1848 131.561C63.4998 131.876 63.6573 132.191 63.8936 132.506C64.2085 132.821 64.681 132.821 64.996 132.664C65.1535 132.585 65.3897 132.585 65.5472 132.428C65.7047 132.27 65.8622 132.113 65.9409 131.955C66.0984 131.798 66.1772 131.64 66.4134 131.483C66.5709 131.325 66.7284 131.246 66.8859 131.089C67.2796 130.774 67.6734 130.616 68.0671 130.302C68.3821 129.987 68.9333 130.065 69.327 130.065C69.5633 130.065 69.8782 129.987 70.1145 130.065C70.272 130.144 70.5082 130.223 70.7444 130.223H71.1382C71.3744 130.302 71.6894 130.302 72.0044 130.302C72.1619 130.302 72.3981 130.302 72.5556 130.302C72.6343 130.302 72.7131 130.302 72.7918 130.302C72.8706 130.302 72.9493 130.302 73.1068 130.38C73.4218 130.459 73.8155 130.459 74.1305 130.38C74.2093 130.38 74.288 130.302 74.4455 130.302C74.6817 130.223 74.918 130.302 75.1542 130.302C75.3904 130.302 75.6267 130.38 75.8629 130.459C76.0204 130.538 76.2566 130.695 76.4141 130.774C76.5716 130.932 76.8078 131.089 76.9653 131.246C77.2016 131.404 77.3591 131.561 77.5166 131.798C77.6741 132.034 77.8315 132.27 77.9103 132.585C77.989 132.743 78.0678 132.9 78.1465 132.979C78.2253 133.058 78.2253 133.215 78.304 133.294C78.3828 133.373 78.4615 133.53 78.619 133.609C78.6977 133.688 78.7765 133.845 78.8553 133.924C79.0127 134.16 79.249 134.475 79.4065 134.711C79.6427 134.869 79.6427 135.263 79.7214 135.499C79.8002 135.656 79.8789 135.893 79.9577 136.05C80.0364 136.207 80.2727 136.286 80.4302 136.365C80.5877 136.444 80.8239 136.522 81.0601 136.522C81.2964 136.522 81.5326 136.444 81.8476 136.365C82.1626 136.286 82.3988 136.129 82.635 135.892C82.7925 135.656 82.95 135.341 83.0288 135.026C83.1863 134.711 83.3438 134.475 83.58 134.239C83.7375 134.081 84.0525 133.924 84.21 133.688C84.5249 133.294 84.7612 132.743 85.1549 132.428C85.5486 132.191 85.9423 132.113 86.4148 132.113C86.6511 132.113 86.8873 132.034 87.1236 132.034C87.281 132.034 87.5173 132.034 87.596 132.113C87.7535 132.191 87.7535 132.349 87.8323 132.506C87.911 132.743 87.911 132.9 87.911 133.136C88.0685 133.766 88.0685 134.475 88.0685 135.184C88.0685 135.971 87.9897 136.68 88.0685 137.467C88.0685 137.625 88.0685 137.782 88.1472 137.94C88.1472 138.019 88.226 138.097 88.226 138.255C88.3047 138.57 88.3835 138.885 88.3835 139.279C88.3835 139.436 88.3835 139.672 88.4622 139.83C88.541 140.145 88.6197 140.381 88.9347 140.381C89.0922 140.381 89.2497 140.381 89.4072 140.381C89.5647 140.46 89.6434 140.538 89.8009 140.617C89.9584 140.696 90.1159 140.696 90.1946 140.538C90.2734 140.381 90.4309 140.223 90.5096 140.066C90.5884 139.987 90.5884 139.751 90.5884 139.672C90.6671 139.515 90.6671 139.357 90.7458 139.2C90.8246 139.042 90.9033 138.885 90.9033 138.806C90.9821 138.649 91.0608 138.491 91.1396 138.334C91.2183 138.176 91.2971 138.097 91.3758 137.94C91.4546 137.861 91.4546 137.782 91.4546 137.704C91.5333 137.389 91.6908 137.074 91.8483 136.837C91.927 136.68 92.1633 136.522 92.242 136.286C92.3208 136.129 92.3995 135.971 92.557 135.814C92.6357 135.577 92.7932 135.499 92.9507 135.42C93.0295 135.341 93.1082 135.341 93.2657 135.263C93.3445 135.263 93.4232 135.263 93.5807 135.263C93.8957 135.263 94.1319 135.263 94.3681 135.184C94.5256 135.105 94.7619 135.026 94.9981 134.948C95.1556 134.869 95.3919 134.711 95.5494 134.711C95.8643 134.633 96.1793 134.633 96.4943 134.554C96.6518 134.554 96.8093 134.554 96.9668 134.475C97.0455 134.475 97.1242 134.396 97.203 134.396C97.2817 134.396 97.3605 134.396 97.4392 134.318C97.518 134.318 97.518 134.239 97.5967 134.239C97.7542 134.16 97.9117 134.16 98.0692 134.081C98.3842 134.003 98.6992 134.003 99.0141 133.924C99.4866 133.766 99.8803 133.373 100.432 133.294C100.668 133.294 100.904 133.294 100.983 133.451C101.14 133.609 101.219 134.003 101.219 134.239C101.298 134.948 101.377 135.656 101.534 136.365C101.691 136.995 101.928 137.704 102.321 138.255C102.479 138.491 102.636 138.727 102.715 139.042C102.873 139.436 102.873 139.83 102.873 140.302C102.951 140.853 102.873 141.641 103.66 141.72C103.896 141.72 104.211 141.72 104.448 141.641C104.763 141.562 104.999 141.562 105.314 141.562C105.55 141.483 105.786 141.405 105.944 141.247C106.101 141.011 106.18 140.775 106.259 140.46C106.337 140.145 106.416 139.909 106.574 139.594C106.574 139.436 106.652 139.357 106.731 139.279C106.81 139.2 106.889 139.121 106.967 138.964C107.046 138.885 107.125 138.806 107.204 138.649C107.282 138.412 107.361 138.176 107.44 137.94C107.519 137.704 107.597 137.467 107.755 137.389C107.912 137.231 108.227 137.231 108.464 137.231C108.7 137.231 108.936 137.31 109.172 137.389C109.487 137.467 109.802 137.467 110.039 137.625C110.275 137.704 110.432 137.94 110.668 138.019C110.905 138.097 111.062 138.019 111.22 137.861C111.377 137.704 111.535 137.546 111.692 137.467C111.85 137.389 112.007 137.31 112.086 137.074C112.086 136.759 112.007 136.522 112.007 136.207C111.928 135.892 111.928 135.656 111.771 135.341C111.692 135.026 111.535 134.79 111.456 134.475C111.377 134.081 111.377 133.688 111.22 133.294C111.141 133.058 111.062 132.821 110.983 132.506C110.905 132.191 110.905 131.955 110.905 131.64C110.905 131.404 110.905 131.168 110.983 131.01C111.062 130.774 111.22 130.695 111.456 130.617C111.692 130.538 111.928 130.459 112.165 130.38C112.322 130.302 112.558 130.144 112.716 130.065C112.873 129.987 113.031 129.908 113.11 129.829C113.267 129.75 113.425 129.593 113.503 129.514C113.582 129.514 113.582 129.514 113.582 129.435C113.897 129.199 114.212 128.963 114.606 128.727C115.078 128.412 115.551 128.254 115.944 127.939C116.417 127.703 116.811 127.309 117.204 126.994C117.519 126.758 117.834 126.443 118.228 126.522C118.543 126.522 118.937 126.758 119.173 126.915C119.567 127.073 120.039 127.388 120.433 127.545C120.827 127.703 121.22 127.86 121.614 128.018C121.693 128.018 121.929 128.097 121.929 128.254C122.008 128.412 121.929 128.569 121.85 128.648C121.614 129.12 121.22 129.435 121.142 129.987C121.142 130.302 121.22 130.538 121.299 130.853C121.378 131.168 121.535 131.404 121.614 131.719C121.693 131.876 121.772 132.113 121.85 132.27C121.85 132.349 121.929 132.349 121.929 132.428C121.929 132.506 122.008 132.585 122.008 132.743C122.008 132.9 122.087 133.136 122.165 133.294C122.244 133.451 122.323 133.609 122.402 133.845C122.402 133.924 122.402 133.924 122.48 134.003C122.48 134.081 122.559 134.081 122.638 134.16C122.717 134.239 122.717 134.239 122.795 134.318C122.874 134.396 122.953 134.475 122.953 134.633C123.032 134.711 123.11 134.869 123.189 134.948C123.347 135.263 123.504 135.578 123.74 135.892C123.819 136.05 123.977 136.207 124.055 136.365C124.134 136.444 124.213 136.601 124.292 136.68L125.236 137.704L125.158 137.782C124.685 138.412 125 139.2 125.079 139.909C125.158 140.302 125.236 140.696 125.315 141.09C125.394 141.405 125.394 141.72 125.394 142.035C125.709 142.507 125.709 142.901 125.709 143.295Z" fill="#2DBE5A"/>
<path d="M0.0308949 191.408C-0.0478508 191.251 0.0308805 191.093 0.188372 191.093C0.267118 191.093 0.424609 190.936 0.5821 191.014C0.818338 191.093 0.818352 191.487 0.818352 191.644C0.818352 191.723 0.739597 191.802 0.660851 191.881C0.582105 191.881 0.424614 191.881 0.267122 191.881C0.109631 191.723 0.0308949 191.487 0.0308949 191.408Z" fill="#00AAE1"/>
</svg>
