<svg xmlns="http://www.w3.org/2000/svg" viewBox="0 0 39.55 34.6"><defs><style>.cls-1{fill:#d37c3c;}.cls-2{fill:#ba6a35;}.cls-3{fill:#ef8e4d;}.cls-4{opacity:0.3;}.cls-5{opacity:0.5;}.cls-6{fill:#f99c5d;}.cls-7{fill:#fcd5a7;}.cls-8{fill:#fcb575;}.cls-9{opacity:0.2;}.cls-10{opacity:0.1;}.cls-11{fill:#a05125;}</style></defs><g id="Layer_2" data-name="Layer 2"><g id="_ÎÓÈ_1" data-name="—ÎÓÈ_1"><path class="cls-1" d="M34.64,27.73a26.74,26.74,0,0,1-5.48,6,5.39,5.39,0,0,1-.5.33,3.24,3.24,0,0,0,3.55.05A18.72,18.72,0,0,0,37,29.25,18.83,18.83,0,0,0,39.5,23,3.24,3.24,0,0,0,38,19.73a4,4,0,0,1-.1.59A27,27,0,0,1,34.64,27.73Z"/><path class="cls-2" d="M37.3,19.86a60.52,60.52,0,0,1-4.46,9.29c-1.15,2-2.62,4-4.69,4.8l.14,0a4.84,4.84,0,0,0,2.85-1.07,13,13,0,0,0,2.17-2.21c.92-1.1,1.81-2.21,2.68-3.35a7.06,7.06,0,0,0,.94-1.47c.34-.8.4-1.71.79-2.49a.37.37,0,0,1,.17-.18c.2-.09.35.2.37.42a9.64,9.64,0,0,1-2,6.13,9.38,9.38,0,0,0,2.15-3.88,8.39,8.39,0,0,0,.63-3.3A3.07,3.07,0,0,0,37.3,19.86Z"/><path class="cls-3" d="M.32,17.37,25.61,33.91a3.28,3.28,0,0,0,3.84-.18,26,26,0,0,0,5.4-5.86,26,26,0,0,0,3.2-7.29A3.27,3.27,0,0,0,36.67,17L11.38.45Z"/><g class="cls-4"><path class="cls-2" d="M9.86,20.48a2.3,2.3,0,0,0-.26,0,.45.45,0,0,0-.4.57c.39.25.5.85.94,1a.87.87,0,0,0,.8-.22.47.47,0,0,0,.14-.17.55.55,0,0,0,0-.22,4.47,4.47,0,0,0-.2-.65.66.66,0,0,0-.27-.36C10.37,20.3,10.11,20.48,9.86,20.48Z"/></g><g class="cls-4"><path class="cls-2" d="M12.63,19a.41.41,0,0,0,.18-.21,2.92,2.92,0,0,0,.21-.56A.59.59,0,0,0,13,18c0-.19-.23-.29-.41-.36a1.07,1.07,0,0,0-.94,0,1.18,1.18,0,0,0-.39.44l-.38.59.28-.08a3,3,0,0,1,1,.35C12.33,19,12.49,19.1,12.63,19Z"/></g><g class="cls-4"><path class="cls-2" d="M13,22.17s.08,0,.12,0l1.1-.74c.08,0,.16-.12.16-.21A.28.28,0,0,0,14.3,21a2.13,2.13,0,0,0-.57-.59.87.87,0,0,0-1-.12.84.84,0,0,0-.26.49,1.64,1.64,0,0,0,0,.38c.17.3.34.61.52.91A.1.1,0,0,0,13,22.17Z"/></g><g class="cls-4"><path class="cls-2" d="M12.4,21.28a.22.22,0,0,1,0-.08l0,0Z"/></g><g class="cls-4"><path class="cls-2" d="M14.82,25.3a.41.41,0,0,0,.21.22.36.36,0,0,0,.21,0c.35,0,.71-.07,1.06-.13.08,0,.18,0,.2-.12a.23.23,0,0,0,0-.14,2.86,2.86,0,0,0-.4-.62,1,1,0,0,0-.65-.34,1,1,0,0,0-.86.56l-.17-.25C14.53,24.77,14.68,25,14.82,25.3Z"/></g><g class="cls-4"><path class="cls-2" d="M17.47,21.87a.66.66,0,0,0,.12-.33.58.58,0,0,0-.27-.42,1.2,1.2,0,0,0-.84-.35,1,1,0,0,0-.73.51,3,3,0,0,0-.28.88l.1-.07a.39.39,0,0,1,.34.07,5.92,5.92,0,0,1,.93.72Z"/></g><g class="cls-4"><path class="cls-2" d="M16,18.16a.71.71,0,0,0,.44-.39.92.92,0,0,0,0-.52,1.16,1.16,0,0,0-.4-.74.81.81,0,0,0-.74-.07,1.34,1.34,0,0,0-.59.49A9.33,9.33,0,0,1,15.18,18a.22.22,0,0,0,.08.15.27.27,0,0,0,.16,0A2,2,0,0,0,16,18.16Z"/></g><g class="cls-4"><path class="cls-2" d="M14.74,14.2a.46.46,0,0,0,.23-.12.44.44,0,0,0,.07-.19c0-.15,0-.29,0-.44a.73.73,0,0,0-.16-.63.51.51,0,0,0-.53-.07,1,1,0,0,0-.41.36,2,2,0,0,0-.36,1.32l.18-.34a1.69,1.69,0,0,0-.07.74A2.14,2.14,0,0,1,14.74,14.2Z"/></g><g class="cls-4"><path class="cls-2" d="M16.37,11.32h.08a2.65,2.65,0,0,0,.72-.24.56.56,0,0,0,.21-.16.58.58,0,0,0,.06-.29,2.1,2.1,0,0,0-.22-.85.33.33,0,0,0-.16-.19.5.5,0,0,0-.21,0,4,4,0,0,0-.59.16,1.11,1.11,0,0,0-.3.17l.36,1.3S16.34,11.31,16.37,11.32Z"/></g><g class="cls-4"><path class="cls-2" d="M17.84,8.05a.29.29,0,0,0,.16,0,2,2,0,0,0,.79-.17A.46.46,0,0,0,19,7.81.53.53,0,0,0,19,7.64a1.14,1.14,0,0,0-.49-1.19,1.11,1.11,0,0,0-1.19,0c.13.48.27,1,.4,1.42A.28.28,0,0,0,17.84,8.05Z"/></g><g class="cls-4"><path class="cls-2" d="M17.26,6.52l.09,0v0Z"/></g><g class="cls-4"><path class="cls-2" d="M20.55,11a1.23,1.23,0,0,0-.28-1.4.78.78,0,0,0-.66-.21.48.48,0,0,0-.4.51l-.28.92c0,.07,0,.16,0,.19a.19.19,0,0,0,.13,0,1,1,0,0,1,.6.18.7.7,0,0,0,.61.08A.55.55,0,0,0,20.55,11Z"/></g><g class="cls-4"><path class="cls-2" d="M17.41,14.38s.05,0,.08,0A3.23,3.23,0,0,1,19,15a5.24,5.24,0,0,0,.46-1.33.55.55,0,0,0-.05-.47.48.48,0,0,0-.28-.15A3.32,3.32,0,0,0,17.66,13a9.27,9.27,0,0,1-.25,1.32A.09.09,0,0,0,17.41,14.38Z"/></g><g class="cls-4"><path class="cls-2" d="M20,18.63a1.31,1.31,0,0,0-.12-1.06,1.11,1.11,0,0,0-.41-.45,2.14,2.14,0,0,0-1.1-.23c-.08.53-.16,1.06-.2,1.59a.28.28,0,0,0,.05.2.24.24,0,0,0,.15,0l1.3.1c.08,0,.18,0,.24-.05A.26.26,0,0,0,20,18.63Z"/></g><g class="cls-4"><path class="cls-2" d="M23.17,14.29c0-.1-.14-.14-.24-.16l-1.83-.42a.19.19,0,0,0-.13,0,.2.2,0,0,0-.08.15,10.4,10.4,0,0,0-.14,1.38,1.33,1.33,0,0,0,.58.5,1.09,1.09,0,0,0,1.1-.11,1.68,1.68,0,0,0,.42-.56,6.45,6.45,0,0,0,.29-.59A.32.32,0,0,0,23.17,14.29Z"/></g><g class="cls-4"><path class="cls-2" d="M20.74,15.45c0-.07,0-.14,0-.21a1.89,1.89,0,0,1-.17-.35Z"/></g><g class="cls-4"><path class="cls-2" d="M24.2,11.92a.25.25,0,0,0,.22-.07.34.34,0,0,0,0-.14,2.3,2.3,0,0,0-.07-.94,1.26,1.26,0,0,0-.58-.72,1.19,1.19,0,0,0-.89-.06,1.75,1.75,0,0,0-.58.32,5.18,5.18,0,0,1,.12,1.42.2.2,0,0,0,0,.11.19.19,0,0,0,.13,0Z"/></g><g class="cls-4"><path class="cls-2" d="M25.1,16.19a.2.2,0,0,0,.15,0,.23.23,0,0,0,.08-.11,2.13,2.13,0,0,0,.24-.91.87.87,0,0,0-.43-.79.5.5,0,0,0-.46,0,.34.34,0,0,0-.17.4l0-.18c0,.43,0,.85,0,1.28a.33.33,0,0,0,0,.17.27.27,0,0,0,.14.07A2.34,2.34,0,0,0,25.1,16.19Z"/></g><g class="cls-4"><path class="cls-2" d="M23,19.45a.64.64,0,0,0,.07-.33c0-.45,0-.9.05-1.36,0-.13,0-.3-.16-.32a.28.28,0,0,0-.22.12l-.93.93-.49-.16a1.4,1.4,0,0,0,1.13,1.28A.52.52,0,0,0,23,19.45Z"/></g><g class="cls-4"><path class="cls-2" d="M20.64,20.77a.25.25,0,0,0-.14-.06,8.38,8.38,0,0,0-1.42-.21,9.75,9.75,0,0,0,.22,1.87l-.06-.4a1.88,1.88,0,0,0,.52.73c.13.11.32.21.47.12a.42.42,0,0,0,.16-.25,5.15,5.15,0,0,0,.29-1.64A.27.27,0,0,0,20.64,20.77Z"/></g><g class="cls-4"><path class="cls-2" d="M19.48,26.92a.42.42,0,0,0,.11-.17,5.8,5.8,0,0,0,.48-1.53A.31.31,0,0,0,20,25a.28.28,0,0,0-.2-.06l-1.22-.05h-.06a.1.1,0,0,0-.05.1,7.41,7.41,0,0,0,.07,1.49,2,2,0,0,0,.44.42A.43.43,0,0,0,19.48,26.92Z"/></g><g class="cls-4"><path class="cls-2" d="M20.43,29.37A4,4,0,0,0,21.9,30a.7.7,0,0,0,.63-.19.82.82,0,0,0,.1-.3c.08-.38.14-.76.19-1.14a7,7,0,0,1-2.52,1Z"/></g><g class="cls-4"><path class="cls-2" d="M23.26,25.49c-.06-.18-.1-.37-.15-.56h0Z"/></g><g class="cls-4"><path class="cls-2" d="M23.87,25.73a.79.79,0,0,0,.55-.5,2.67,2.67,0,0,0,.23-.59.46.46,0,0,0,0-.4.5.5,0,0,0-.29-.16l-1.2-.32a.14.14,0,0,0-.11,0c-.08,0-.09.13-.08.21a5.31,5.31,0,0,0,.16,1,1.77,1.77,0,0,0,.25.54A.59.59,0,0,0,23.87,25.73Z"/></g><g class="cls-4"><path class="cls-2" d="M25.07,21h0l0,0Z"/></g><g class="cls-4"><path class="cls-2" d="M26.12,20.83a2,2,0,0,0,.43-.68.59.59,0,0,0,.08-.34.61.61,0,0,0-.22-.33,2.44,2.44,0,0,0-.92-.47.22.22,0,0,0-.14,0c-.09,0-.12.13-.14.22A6.83,6.83,0,0,0,25.07,21a.9.9,0,0,0,.32.13A.91.91,0,0,0,26.12,20.83Z"/></g><g class="cls-4"><path class="cls-2" d="M29.43,16.57a3.81,3.81,0,0,0-.49-.94c-.05-.06-.1-.12-.17-.12a.27.27,0,0,0-.14.07c-.43.37-.85.74-1.29,1.1a1.09,1.09,0,0,0,.44.53,1.53,1.53,0,0,0,1.07.19.67.67,0,0,0,.63-.43A.79.79,0,0,0,29.43,16.57Z"/></g><g class="cls-4"><path class="cls-2" d="M26.68,12.26a4.08,4.08,0,0,1,.26,1.16.58.58,0,0,0,.09.26.44.44,0,0,0,.39.07c.38-.06.81-.19.94-.55a.72.72,0,0,0-.1-.59,1.08,1.08,0,0,0-.48-.39A1.11,1.11,0,0,0,26.68,12.26Z"/></g><g class="cls-4"><path class="cls-2" d="M33.45,17a2.19,2.19,0,0,0-1.18-.52,1.22,1.22,0,0,0-.66,0,2.29,2.29,0,0,1,.15.51,7.22,7.22,0,0,1,.07,1.13.44.44,0,0,0,.06.23.36.36,0,0,0,.2.08,2.81,2.81,0,0,0,.81.1,1,1,0,0,0,.72-.35A1,1,0,0,0,33.45,17Z"/></g><g class="cls-4"><path class="cls-2" d="M30.28,21.81c.09-.09.06-.25,0-.37-.19-.68-.37-1.35-.57-2L28.6,20.92l0,.06a1.34,1.34,0,0,0,1.43.91A.33.33,0,0,0,30.28,21.81Z"/></g><g class="cls-4"><path class="cls-2" d="M27,25.42a1.2,1.2,0,0,0,.29-1.85.15.15,0,0,0-.12-.07c-.08,0-.13.09-.15.16a5.25,5.25,0,0,0-.23,1.1A1.35,1.35,0,0,0,27,25.42Z"/></g><g class="cls-4"><path class="cls-2" d="M26.21,28.19l-.54-.85a1.86,1.86,0,0,0-.52,1.24,2.93,2.93,0,0,1,0,.73,1,1,0,0,0,.57.36.75.75,0,0,0,.83-.45A1.26,1.26,0,0,0,26.21,28.19Z"/></g><g class="cls-4"><path class="cls-2" d="M26.47,31.68a3.34,3.34,0,0,0-.75.49,2.92,2.92,0,0,1-.37.24l.86.65a.42.42,0,0,0,.22.11.41.41,0,0,0,.26-.13,4,4,0,0,0,.74-.9A.51.51,0,0,0,27.5,32a.31.31,0,0,0-.17-.28A.9.9,0,0,0,26.47,31.68Z"/></g><g class="cls-4"><path class="cls-2" d="M30.32,29.16c-.07,0-.1.09-.13.16a3.87,3.87,0,0,1-.93,1.47c-.05.05-.17.07-.16,0l-.22.19a1.59,1.59,0,0,0,1.24.39,1.38,1.38,0,0,0,.72-.63,1.13,1.13,0,0,0,.27-1,1.24,1.24,0,0,0-.69-.53Z"/></g><g class="cls-4"><path class="cls-2" d="M28.65,26.05s-.07,0-.08,0,0,.05,0,.07c.11.3.23.6.37.9a1.79,1.79,0,0,1-.15-.14,1.55,1.55,0,0,0,.22.55.56.56,0,0,0,.51.24.75.75,0,0,0,.31-.18,1.74,1.74,0,0,0,.49-.8.62.62,0,0,0,0-.27c-.07-.24-.36-.32-.61-.35S29,26.05,28.65,26.05Z"/></g><g class="cls-4"><path class="cls-2" d="M31.8,23.37a.38.38,0,0,0-.05.19c-.06.6-.11,1.21-.17,1.81a1.23,1.23,0,0,0,.12.26.6.6,0,0,0,.41.28.74.74,0,0,0,.33-.09,1.19,1.19,0,0,0,.57-.94,1.8,1.8,0,0,0-.3-1.07,1.21,1.21,0,0,0-.54-.49A.31.31,0,0,0,31.8,23.37Z"/></g><g class="cls-4"><path class="cls-2" d="M35.67,22.55a8.42,8.42,0,0,1-1.19,1.22,1.47,1.47,0,0,0,0,.95c.09.3.36.6.67.54s.38-.26.49-.46a2.67,2.67,0,0,0,.28-2.21c0-.06-.06-.12-.12-.12S35.7,22.51,35.67,22.55Z"/></g><g class="cls-4"><path class="cls-2" d="M32.28,27.38a.89.89,0,0,0,.71.12l0-.17a1.7,1.7,0,0,0,1-.35A1.72,1.72,0,0,0,32.28,27.38Z"/></g><g class="cls-4"><path class="cls-2" d="M32.14,20.14a1.18,1.18,0,0,1,.55.63,8.15,8.15,0,0,1,.22.85.2.2,0,0,0,.08.15.19.19,0,0,0,.18,0,1.11,1.11,0,0,0,.47-.51.79.79,0,0,0,0-.67,1.35,1.35,0,0,0-1.17-.47A.81.81,0,0,0,32.14,20.14Z"/></g><g class="cls-4"><path class="cls-2" d="M34.87,18.08h0c.11,0,.22,0,.3.13a1.87,1.87,0,0,1,.48,1.24,1.23,1.23,0,0,0,0,.27c0,.08.1.17.19.17a.34.34,0,0,0,.23-.1l.29-.23a.87.87,0,0,0,.33-.43.72.72,0,0,0-.21-.56A1.41,1.41,0,0,0,34.87,18.08Z"/></g><g class="cls-5"><path class="cls-2" d="M6.42,21c.09-.12.19-.24.29-.35-.23.14-.46.29-.71.41Z"/><path class="cls-2" d="M31.48,14.35c-1.11-.65-2.12-1.46-3.17-2.21-.83-.59-1.68-1.15-2.53-1.71l-9.12-6a.63.63,0,0,0-.32-.12c-.18,0-.31.19-.39.36-.39.76-.69,1.56-1,2.35A51.49,51.49,0,0,1,6.71,20.68a14.51,14.51,0,0,0,2.54-2.23,58.41,58.41,0,0,0,5.65-6.9,2.76,2.76,0,0,1,.92-.94,2.17,2.17,0,0,1,1.07-.15,9.2,9.2,0,0,1,4,1.47c1.69,1,3.22,2.28,4.88,3.33S29,17,30.52,18a11.29,11.29,0,0,1,3.85,3.8,5.76,5.76,0,0,1,.34,5.24,28.06,28.06,0,0,0,2.37-5.24,6,6,0,0,0,.37-1.77,4.74,4.74,0,0,0-2.16-3.6C34.11,15.61,32.74,15.08,31.48,14.35Z"/></g><g class="cls-5"><path class="cls-2" d="M16.52,4.58A.78.78,0,0,0,16,4.44a.68.68,0,0,0-.37.3,6.19,6.19,0,0,0-.77,2,23.33,23.33,0,0,1-3.93,7.9l1-1.2,2.58-3a5.12,5.12,0,0,1,2.61-2,3.8,3.8,0,0,1,2.46.41c.76.37,1.45.88,2.18,1.29,1.44.82,3.06,1.29,4.48,2.14a24.59,24.59,0,0,1,2.34,1.71,48.54,48.54,0,0,0,4.25,3,9.69,9.69,0,0,1,3.1,2.53,4.49,4.49,0,0,1,.54,3.79,9.45,9.45,0,0,0,1-2.88,3.32,3.32,0,0,0,.09-1.62,3.15,3.15,0,0,0-1.41-1.5q-4.45-3-8.94-5.93l-2.4-1.59C22.1,7.94,19.38,6.14,16.52,4.58Z"/></g><path class="cls-6" d="M7.19,9.89A39.82,39.82,0,0,1,.12,18.13l4.73,3.09A.93.93,0,0,0,6,21.13a44,44,0,0,0,6.45-7.84A42,42,0,0,0,17,4.17a.94.94,0,0,0-.39-1.08L12,0A39.8,39.8,0,0,1,7.19,9.89Z"/><path class="cls-3" d="M12,0c.65.43-1.47,4.82-4.74,9.82S.77,18.55.12,18.13s1.47-4.82,4.74-9.82S11.3-.39,12,0Z"/><g class="cls-5"><path class="cls-7" d="M10.64,1.08A99.11,99.11,0,0,0,4,10.56a20.42,20.42,0,0,0-3,6c-.05.2-.07.44.07.51s.32-.09.47-.23a35.2,35.2,0,0,0,6-8.48c1.15-2.07,2.28-4.16,3.34-6.27.18-.37.36-.86.14-1S10.64,1.08,10.64,1.08Z"/></g><g class="cls-4"><path class="cls-2" d="M3.73,18.17A.91.91,0,0,0,3.62,18l-.41-.61a1.13,1.13,0,0,0-.49-.48.39.39,0,0,0-.53.27L2.53,17l.15,1.56a.69.69,0,0,0,.14.4.42.42,0,0,0,.48,0,1.1,1.1,0,0,0,.32-.42A.62.62,0,0,0,3.73,18.17Z"/></g><g class="cls-4"><path class="cls-2" d="M5.2,19.19a1.88,1.88,0,0,0,1.7-.55A.32.32,0,0,0,7,18.33a.28.28,0,0,0-.19-.12,1.68,1.68,0,0,0-1.07.18l-1,.37A1,1,0,0,0,5.2,19.19Z"/></g><g class="cls-4"><path class="cls-2" d="M6.49,15.44a1.24,1.24,0,0,0-.14-.9A1.65,1.65,0,0,0,5,13.73l-.13-.21a4.28,4.28,0,0,1,.43,1.72c0,.29,0,.65.28.78a.53.53,0,0,0,.33,0A.85.85,0,0,0,6.49,15.44Z"/></g><g class="cls-4"><path class="cls-2" d="M7.53,15.52a2.24,2.24,0,0,0,.48.7.74.74,0,0,0,.79.14.85.85,0,0,0,.39-.68A1.28,1.28,0,0,0,9,14.74a.83.83,0,0,0-.87-.34.42.42,0,0,0-.26.19.58.58,0,0,0,0,.29A1.27,1.27,0,0,1,7.53,15.52Z"/></g><g class="cls-4"><path class="cls-2" d="M7.52,12.4l1.2-1A1.06,1.06,0,0,0,9,11.16a.93.93,0,0,0,.06-.47c0-.21,0-.42-.05-.64A.27.27,0,0,0,9,9.9a.23.23,0,0,0-.18-.06,1.27,1.27,0,0,0-.95.56c-.24.31-.4.66-.63,1L7,11.4a8.75,8.75,0,0,0,.23.88c0,.09.07.18.16.18A.17.17,0,0,0,7.52,12.4Z"/></g><g class="cls-4"><path class="cls-2" d="M11.61,12.87a.66.66,0,0,0,.36-.19.53.53,0,0,0,.08-.31A3.89,3.89,0,0,0,12,11.24a1.56,1.56,0,0,0-.37-.8.72.72,0,0,0-.81-.18l-.17-.06a12.92,12.92,0,0,1-.19,3Z"/></g><g class="cls-4"><path class="cls-2" d="M9.65,8.77a.36.36,0,0,0,.09-.22l.18-1c.06-.3.06-.71-.23-.8A.44.44,0,0,0,9.2,7a1.3,1.3,0,0,0-.08.59,4.91,4.91,0,0,0,.12,1L9.16,8.2a.87.87,0,0,0,.07.48C9.32,8.81,9.54,8.89,9.65,8.77Z"/></g><g class="cls-4"><path class="cls-2" d="M12.16,8.37l1.41,0A2.69,2.69,0,0,0,13.19,7a1.27,1.27,0,0,0-.56-.54.66.66,0,0,0-.73.13h-.09c0,.5.07,1,.1,1.51a.32.32,0,0,0,.09.24A.29.29,0,0,0,12.16,8.37Z"/></g><g class="cls-4"><path class="cls-2" d="M12,4.85c.41-.27.85-.61.84-1.1A.79.79,0,0,0,12.08,3a.86.86,0,0,0-.78.75l.16-.09A6.73,6.73,0,0,0,11,5.37,3.08,3.08,0,0,0,12,4.85Z"/></g><g class="cls-4"><path class="cls-2" d="M12.41,1.19a.32.32,0,0,0-.19.17c0,.08,0,.2.1.2l.09,0a6.09,6.09,0,0,1,1.9,1.23,1.44,1.44,0,0,0-.43-1.42A1.43,1.43,0,0,0,12.41,1.19Z"/></g><g class="cls-4"><path class="cls-2" d="M15.42,3.64a9,9,0,0,0-1.5.63l.72,0c-.18.33-.34.67-.49,1,0,.07-.06.15,0,.21a.23.23,0,0,0,.11.08L15.39,6a.28.28,0,0,0,.2,0c.11,0,.17-.13.21-.24.18-.43.37-.87.55-1.31a.87.87,0,0,0,.07-.7C16.25,3.47,15.77,3.52,15.42,3.64Z"/></g><g class="cls-5"><g class="cls-5"><path class="cls-8" d="M.48,17.38l0-.51A1,1,0,0,0,.48,17.38Z"/></g><g class="cls-5"><path class="cls-8" d="M.48,17.38l0,.46a2.76,2.76,0,0,1,.08-.27A1.29,1.29,0,0,1,.48,17.38Z"/></g><path class="cls-8" d="M9.49,14.15c-1.3,1.15-3,2-4.73,1.63a2.18,2.18,0,0,1-.94-.46c-.84-.75-.67-2.12-.19-3.13A9.5,9.5,0,0,0,4.94,9.1a5.15,5.15,0,0,0-1.39,1.61,27,27,0,0,0-3,6.86A1.56,1.56,0,0,0,.74,18a3.75,3.75,0,0,0,.93.8c.59.39,1.17.78,1.77,1.15A2.82,2.82,0,0,0,5,20.57a2.77,2.77,0,0,0,1.71-.95,45.67,45.67,0,0,0,5.21-6.37,6,6,0,0,0,1.32-2.71A48.9,48.9,0,0,0,9.49,14.15Z"/></g><g class="cls-5"><path class="cls-2" d="M13.22,1.27A2.43,2.43,0,0,0,11.66.73a2,2,0,0,0-1.26.9,1.53,1.53,0,0,1,.89-.43s0,0,.17,0a1.28,1.28,0,0,1,.67.16,4.74,4.74,0,0,1,3.24,3.88c.18,1.74-.63,3.41-1.42,5a46.31,46.31,0,0,0,2.6-5.35,1.71,1.71,0,0,0,.18-.93,1.7,1.7,0,0,0-.88-1Z"/></g><g class="cls-9"><path class="cls-8" d="M33,27.56a4,4,0,0,1-3.06,1,8.31,8.31,0,0,1-3.16-1,39.24,39.24,0,0,1-5.22-3.26l-6-4.17c-1-.71-2.14-1.57-2.31-2.81-.08-.67,0-1.55-.6-1.82s-1.11.31-1.45.79c-1.11,1.58-2.14,3.39-3.9,4.2-.27.12-.6.34-.51.62a.63.63,0,0,0,.22.24l.77.58s11,6.88,16.89,10.75a4.16,4.16,0,0,0,2.23.91,3.62,3.62,0,0,0,2.12-.54,13.2,13.2,0,0,0,4.63-5c.12-.28.15-.71-.14-.78S33.18,27.41,33,27.56Z"/></g><g class="cls-10"><path class="cls-7" d="M30.65,29.8a19.88,19.88,0,0,1-7.23-2.63,59,59,0,0,1-6.35-4.41,24,24,0,0,1-5.22-4.89c-.2-.29-.44-.61-.78-.61a1,1,0,0,0-.65.31,24.31,24.31,0,0,0-2.15,2.19c-.35.33-.94.5-.94,1s.4.6.74.76A23.76,23.76,0,0,1,11.86,24,80.8,80.8,0,0,0,25,32a7.66,7.66,0,0,0,1.85.7,4.59,4.59,0,0,0,4.46-2,.68.68,0,0,0,.15-.35C31.5,30,31,29.85,30.65,29.8Z"/></g><path class="cls-3" d="M19,19.86a1.28,1.28,0,0,0-.55,0l-.14,0a1.31,1.31,0,0,1-.39,0,.65.65,0,0,1-.38-.16h0a.37.37,0,0,1-.21-.26,1.22,1.22,0,0,1,.08-.6,1,1,0,0,0,.08-.45.74.74,0,0,0-.55-.59,2.49,2.49,0,0,0-.94-.05l-.58.05a.34.34,0,0,0-.14,0l.69,0-1,.32a.85.85,0,0,0,.42.11h.13c.24,0,.53,0,.68.22a.3.3,0,0,1,0,.18.27.27,0,0,1-.1.18.48.48,0,0,1-.34.08,1.44,1.44,0,0,1-.4-.13A1.36,1.36,0,0,0,15,18.7a.67.67,0,0,0-.6.3h0a.21.21,0,0,1,0,.23l-.2.3.1,0-.1.25a5.85,5.85,0,0,1-.28.56,2.94,2.94,0,0,0,1.18-.12.61.61,0,0,1,.33-.05.31.31,0,0,1,.2.17.2.2,0,0,1,0,.21.3.3,0,0,1-.31.15,1.1,1.1,0,0,0-.9.74.18.18,0,0,1,0,.07.24.24,0,0,1,0,.2l-.05.13h.09l-.14.83.08,0,0,.15a3.55,3.55,0,0,1,.05,1.08L15.59,23l-.12.29a2,2,0,0,0,.35-.21l0,0,.74-.35a.6.6,0,0,0,.11-.35,1,1,0,0,0,0-.17.58.58,0,0,1,.06-.51A.24.24,0,0,1,17,21.6a.23.23,0,0,1,.17.14.74.74,0,0,1-.05.6.51.51,0,0,0-.06.39.42.42,0,0,0,.12.15,8.3,8.3,0,0,0,.64.54.72.72,0,0,0,.47.21.45.45,0,0,0,.34-.25,1,1,0,0,0,.09-.5v-.06a1.11,1.11,0,0,1,.05-.44.59.59,0,0,1,0-.08.18.18,0,0,0,0-.09.29.29,0,0,0,0-.16,1.76,1.76,0,0,0-.17-.55c-.05-.11-.17-.39,0-.55a.3.3,0,0,1,.33,0l.06,0V21c0,.11,0,.21,0,.32l.21.31a.63.63,0,0,0,.31.19l.21.1A3.32,3.32,0,0,1,20,21.2a.46.46,0,0,1,.1-.18l0,0s0,0,0,0a1.52,1.52,0,0,0-1-1.05Z"/><path class="cls-3" d="M28.12,22.55l-.15,0-.14.08a.64.64,0,0,0-.15.13,1.08,1.08,0,0,0-.08.19l-.06.2,0,.22a1.17,1.17,0,0,0,.18.46,1.44,1.44,0,0,0,.55.41,1.27,1.27,0,0,0,1,.05.55.55,0,0,0,.24-.24c.07-.18,0-.4-.19-.7a2.28,2.28,0,0,0-.52-.61,1,1,0,0,0-.7-.23Z"/><path class="cls-3" d="M24.66,13.68l.14-.12h-.05l-.38,0s-.08.06-.09.09l0,.07a.34.34,0,0,1-.19.24.17.17,0,0,1-.17,0,.23.23,0,0,1-.06-.16.39.39,0,0,1,.14-.24l-.33,0,.44-.06s0,0,0-.06a.19.19,0,0,0,0-.07,2.46,2.46,0,0,0-.14-.38c0-.08-.06-.15-.11-.17a.17.17,0,0,0-.15,0,.51.51,0,0,0-.14.17.73.73,0,0,1-.16.22l0,0h0a.11.11,0,0,0,0,.05,1.1,1.1,0,0,0-.06.26c0,.17-.08.26-.19.28a.2.2,0,0,1-.19-.06.36.36,0,0,1-.05-.27.93.93,0,0,1,.05-.1.41.41,0,0,0,0-.08s0-.08-.07-.12,0,0,0,0a2.39,2.39,0,0,1-.22.23.24.24,0,0,1-.1.06h0a.69.69,0,0,0,.4.78l.07,0a.55.55,0,0,1,.19.09.35.35,0,0,1,.11.1l.06.1h.05v.07h0l0,.13a.69.69,0,0,1-.21.28.87.87,0,0,0-.13.15.33.33,0,0,0,.08.31.66.66,0,0,0,.24.17l.43.09h0c-.1,0-.27-.14-.27-.31a.28.28,0,0,1,0-.13.22.22,0,0,1,.13-.08.3.3,0,0,1,.21.07.75.75,0,0,1,.15.16.77.77,0,0,0,.12.13.29.29,0,0,0,.24,0,.19.19,0,0,1,.1-.1h0l.21-.17.18-.12a1.33,1.33,0,0,0-.43-.17.4.4,0,0,1-.18-.08.23.23,0,0,1-.07-.17.22.22,0,0,1,.08-.14.25.25,0,0,1,.24,0,.45.45,0,0,0,.46-.06,0,0,0,0,1,0,0,.14.14,0,0,1,0-.1h0l.23-.29h0l.05-.15a1.76,1.76,0,0,1,.17-.37Z"/><path class="cls-3" d="M22.47,26.09l.15,0a.79.79,0,0,0,.54-.31h0a.64.64,0,0,0,.06-.48c0-.18-.12-.27-.23-.27s-.49.3-.54.55a1.13,1.13,0,0,0,0,.45v.08h0Z"/><path class="cls-3" d="M20.45,14.33a1.17,1.17,0,0,0-1,.72,3,3,0,0,0,.5.66.88.88,0,0,1,.17.16l0-.16.31.47a1.3,1.3,0,0,1,.16.31,1.87,1.87,0,0,1,.11.51,1.67,1.67,0,0,0,.16.59,2,2,0,0,0,.2.24l0,0h0l0,.05.14.13a2.37,2.37,0,0,1,.7.87,2,2,0,0,0-.13-.29,1.58,1.58,0,0,0-.28-.35l-.3-.27.19,0h0l0,0-.15-.23h0l-.06-.1h0v0a3.05,3.05,0,0,1-.36-1.18c0-.11,0-.23-.05-.34l0-.15h0l0-.05a1.46,1.46,0,0,0-.16-.21A1.07,1.07,0,0,1,20.45,14.33Z"/><path class="cls-3" d="M22.62,17.71l-.16.14-.07.08-.07.15,0,.1h0v.11a.72.72,0,0,0,.05.44,1,1,0,0,0,.22.32l.36.36-.48-.15a.91.91,0,0,0-.26-.05h-.09l0,0a.93.93,0,0,0-.32.49,1.5,1.5,0,0,0,.56,1.13,1,1,0,0,0,.76.26.61.61,0,0,0,.48-.34l.1-.23.12.23.06.1a1.75,1.75,0,0,0,.43.5l-.14.2a1.07,1.07,0,0,0-.84-.14l-.22.11a.56.56,0,0,0-.16.18l-.11.2-.11-.19a2.16,2.16,0,0,0-.19-.31,1.62,1.62,0,0,0-.58-.52.62.62,0,0,0-.23-.07h-.12v-.2a2.38,2.38,0,0,0-.18-.84,1,1,0,0,0-.41-.51l-.1,0-.18,0a.86.86,0,0,0-.56.88,1.44,1.44,0,0,0,.27.6,1.17,1.17,0,0,0,.49.47l.1,0,.1,0v.11a1.31,1.31,0,0,0,.06.72,1.5,1.5,0,0,0,.85.75.73.73,0,0,0,.74-.1l0,0,.1-.17.12.15a2,2,0,0,0,.71.62,1.1,1.1,0,0,0,.87.22.71.71,0,0,0,.46-.69v-.19l-.09-.2a1.63,1.63,0,0,0-.53-.63l.13-.21.13.06a1.31,1.31,0,0,0,.68.06l.06.24a.37.37,0,0,0-.16.1h0a.36.36,0,0,0-.06.28l.08.46a1.29,1.29,0,0,0,.26.42,1.71,1.71,0,0,0,.84.5,1.09,1.09,0,0,0,.56,0,.61.61,0,0,0,.42-.28s0,0,0,0l.08-.19L27.36,23a1.22,1.22,0,0,0-.17-.37L27,22.34l.31.07a1.27,1.27,0,0,0,.43,0l.15,0,.13-.08a.48.48,0,0,0,.2-.22c.08-.18,0-.4-.18-.71a2.46,2.46,0,0,0-.53-.6l-.15-.11-.27-.15.3-.08a.46.46,0,0,0,.31-.21.7.7,0,0,0-.22-.78,2.4,2.4,0,0,0-1.08-.59l-.28-.07.25-.15.21-.14a.84.84,0,0,0,.28-.4.72.72,0,0,0-.31-.71,1.68,1.68,0,0,0-.85-.26,1.92,1.92,0,0,0-.83.08.9.9,0,0,0-.55.51l0,.1,0,.18-.15-.09a2.2,2.2,0,0,0-.49-.24l-.26-.09.24-.13a1,1,0,0,0,.31-.29.51.51,0,0,0,0-.64.81.81,0,0,0-.34-.15,3.72,3.72,0,0,0-.81-.09,1,1,0,0,0-.54.13.46.46,0,0,0-.2.25h0v0a.46.46,0,0,0-.06.47l0,.11a.8.8,0,0,0,.46.35Zm3.6,3.52a1,1,0,0,0,.11.52l.12.24-.27-.06a1.59,1.59,0,0,0-.61-.06h-.09l-.06-.24a1,1,0,0,0,.26-.12.63.63,0,0,0,.3-.42l.25,0S26.22,21.2,26.22,21.23ZM24.79,19l0-.15v-.18l.16.07a1.44,1.44,0,0,0,.25.08l.17,0-.09.15a.35.35,0,0,0-.05.26,1,1,0,0,0,.21.51,2.51,2.51,0,0,0,1.09.61l.28.08-.28.16a.48.48,0,0,0-.23.17.53.53,0,0,0-.1.28l-.25,0c0-.34-.32-.63-.53-.77a2.29,2.29,0,0,0-1.57-.44.51.51,0,0,0-.31.16l-.11.26L23.36,20a1.1,1.1,0,0,0-.21-.36l-.25-.3.37.1.12,0a1.86,1.86,0,0,0,.85,0A.84.84,0,0,0,24.79,19Z"/><path class="cls-2" d="M27.77,22.55a1.11,1.11,0,0,1-.48,0,1.33,1.33,0,0,1,.19.42.67.67,0,0,1,.1-.23A.63.63,0,0,1,27.77,22.55Z"/><path class="cls-11" d="M23.39,19.47l-.12,0-.37-.1.25.3a1.1,1.1,0,0,1,.21.36l.11.27.11-.26a.51.51,0,0,1,.31-.16,2.29,2.29,0,0,1,1.57.44c.21.14.56.43.53.77l.25,0a.53.53,0,0,1,.1-.28.48.48,0,0,1,.23-.17l.28-.16-.28-.08a2.51,2.51,0,0,1-1.09-.61,1,1,0,0,1-.21-.51.35.35,0,0,1,.05-.26l.09-.15-.17,0a1.44,1.44,0,0,1-.25-.08l-.16-.07v.18l0,.15a.84.84,0,0,1-.55.43A1.86,1.86,0,0,1,23.39,19.47ZM25,19.1s0,0,0-.06h0a.58.58,0,0,0,0,.29,1.33,1.33,0,0,0,.18.54,2.51,2.51,0,0,0-.73-.24A1,1,0,0,0,25,19.1Z"/><path class="cls-11" d="M25.68,21.52a1,1,0,0,1-.26.12l.06.24h.09a1.59,1.59,0,0,1,.61.06l.27.06-.12-.24a1,1,0,0,1-.11-.52s0-.06,0-.1l-.25,0A.63.63,0,0,1,25.68,21.52Z"/><path class="cls-11" d="M26,13.27l-.71.09-.11,0a1,1,0,0,0-.3,0s-.08,0-.1-.05a1.11,1.11,0,0,0-.36,0h0s0,0,0-.06-.09-.27-.14-.4a.56.56,0,0,0-.25-.3.42.42,0,0,0-.39,0,.63.63,0,0,0-.21.26l0,0a.28.28,0,0,1-.1.12s-.05,0-.07.06,0,.06-.06.09A.52.52,0,0,0,23,13c0-.05-.07-.09-.07-.12l.13-.73-.36.65a1.47,1.47,0,0,1-.3.38.12.12,0,0,0-.09,0,.19.19,0,0,0-.08.11.92.92,0,0,0,.5,1.08,2.19,2.19,0,0,0-.81.25,1.53,1.53,0,0,0-.48.58c-.18.32-.32.53-.55.51l-.14-.19c-.24-.29-.46-.57,0-1.3v0L21,14l-.31.07-.19,0a1.44,1.44,0,0,0-1.27.93c-.05.16.45.8.6.91a.45.45,0,0,1,.23.38c.05.23-.25.57-.49.84l-.26.31c0,.06-.21.24-.4.45-.38.4-.93,1-1.34,1.52a1.21,1.21,0,0,1,.08-.48,1.39,1.39,0,0,0,.09-.54,1,1,0,0,0-.72-.81,2.63,2.63,0,0,0-1,0l-.58,0a.51.51,0,0,0-.32.12.27.27,0,0,0-.06.21l-.56.19.16.14a1.15,1.15,0,0,0,.35.22.92.92,0,0,0-.82.56l-.13.33h0l-.45.66.26-.08a3.75,3.75,0,0,1-.24.44l-.1.16.19,0a3.15,3.15,0,0,0,1.49-.11c.07,0,.13-.05.18,0a.07.07,0,0,1,0,0l-.12,0a1.33,1.33,0,0,0-1.15,1L14,22h0v0h0l.15.05-.15.92.22-.1a3.12,3.12,0,0,1,0,1.14l-.06.31.93-.69.23-.07a1.87,1.87,0,0,0,.57-.27h0a.2.2,0,0,0,.19,0,1.81,1.81,0,0,0,.6-.34,1.07,1.07,0,0,0,.14-.16.67.67,0,0,0,.17.2,7,7,0,0,0,.66.56.93.93,0,0,0,.64.26.65.65,0,0,0,.54-.39,1.15,1.15,0,0,0,.12-.62v-.06a.76.76,0,0,1,0-.34l0-.06,0-.05a2,2,0,0,0,.12.31,3.53,3.53,0,0,0,1.68,1.85,1.59,1.59,0,0,0,0,.81,1.52,1.52,0,0,0,1.51,1,2.34,2.34,0,0,0,2.05.85.24.24,0,0,0,.19-.13.28.28,0,0,0,0-.26.16.16,0,0,0-.14-.08,2.64,2.64,0,0,1-1.22-.19,1.22,1.22,0,0,1-.37-.27.91.91,0,0,0,.5-.36h0a.83.83,0,0,0,.1-.68c-.1-.41-.34-.46-.48-.46a1,1,0,0,0-.78.76,1.82,1.82,0,0,0,0,.4,1.21,1.21,0,0,1-.79-.42.83.83,0,0,1-.07-.8l.21,0a1.27,1.27,0,0,0,.93-.2.67.67,0,0,0,.23-.49.53.53,0,0,0-.27-.55,1.09,1.09,0,0,0-1.05.19,1.59,1.59,0,0,0-.34.39,2.82,2.82,0,0,1-.9-.69,3.6,3.6,0,0,1-.74-1.33l.1,0c.15.06.27.11.31.22l.26.68,0-.73a3,3,0,0,1,.16-1,.18.18,0,0,1,.06-.1.29.29,0,0,0,.08-.1,0,0,0,0,0,0,0,1.27,1.27,0,0,0,.41.31h0a1.45,1.45,0,0,0,.1.76,1.77,1.77,0,0,0,1,.87,1,1,0,0,0,.95-.11,2.39,2.39,0,0,0,.69.56,1.37,1.37,0,0,0,1.08.25.89.89,0,0,0,.56-.56,1.33,1.33,0,0,0,.14.19,2,2,0,0,0,1,.57,1.29,1.29,0,0,0,.67,0,.84.84,0,0,0,.45-.23.9.9,0,0,0,.16.29,1.53,1.53,0,0,0,.65.49,1.48,1.48,0,0,0,1.25.05.77.77,0,0,0,.3-.26l.06-.11a1,1,0,0,0-.21-.93,2.93,2.93,0,0,0-.58-.67,1.38,1.38,0,0,0-.61-.27.31.31,0,0,0,.05-.1,1,1,0,0,0-.2-.93,2.67,2.67,0,0,0-.57-.66.76.76,0,0,0,.24-.23,1,1,0,0,0-.26-1.09,2.6,2.6,0,0,0-.94-.57h0a1.05,1.05,0,0,0,.36-.53,1,1,0,0,0-.4-1,2,2,0,0,0-1-.31,2,2,0,0,0-.93.1,1.13,1.13,0,0,0-.7.63l-.17-.09a1,1,0,0,0,.19-.22.76.76,0,0,0-.07-1,1.12,1.12,0,0,0-.46-.2,3.54,3.54,0,0,0-.86-.09,1.26,1.26,0,0,0-.68.16.72.72,0,0,0-.29.35.79.79,0,0,0-.1.61l-.29.22h0a2.92,2.92,0,0,1-.26-1,1.55,1.55,0,0,0,0-.21,1,1,0,0,0,.72-.58.56.56,0,0,0,.06-.33c0-.08,0-.14.34-.31a1.24,1.24,0,0,1,.41-.09l.27,0a.67.67,0,0,0-.09.14.55.55,0,0,0,.12.59,1.38,1.38,0,0,0,.45.29l.26.13a.32.32,0,0,0,.21,0A.31.31,0,0,0,23.9,16l.34.07-.06-.2,0,0a.51.51,0,0,0,.39-.1l.15-.12.48-.23-.16,0,.08,0,.16-.09-.15-.12a1.65,1.65,0,0,0-.31-.2.65.65,0,0,0,.36-.22l.18-.2h0l.21-.25-.18.09.3-.36h-.15a1.58,1.58,0,0,1,.24-.39ZM22.46,26.06V26a1.13,1.13,0,0,1,0-.45c.05-.25.33-.55.54-.55s.18.09.23.27a.64.64,0,0,1-.06.48h0a.79.79,0,0,1-.54.31l-.15,0h0Zm-.34-2.23s.09,0,.13.14,0,.18,0,.23-.27.1-.66,0C21.78,24,22,23.82,22.12,23.83ZM21,19v-.27a1.77,1.77,0,0,1,.06-.6l.08.07a2.09,2.09,0,0,1,.66.87,1.8,1.8,0,0,0-.2.24c0,.06-.07.12-.1.19a1.06,1.06,0,0,0-.45-.48Zm-.33-.66a2.78,2.78,0,0,0-.06.58,1.13,1.13,0,0,0-.59.44,1,1,0,0,0-.17.64,1.91,1.91,0,0,0-.51-.32,11.18,11.18,0,0,1,.74-2l.24-.57a1.89,1.89,0,0,0,.1-.31,1.23,1.23,0,0,1,0,.19,1.94,1.94,0,0,0,.2.69,1.42,1.42,0,0,0,.17.21A1.62,1.62,0,0,0,20.67,18.37Zm-.92-.91a.83.83,0,0,1-.07.13c-.11.23-.2.44-.29.64A8.92,8.92,0,0,0,19,19.59a1.58,1.58,0,0,0-.53,0l-.15,0a1,1,0,0,1-.33,0,.27.27,0,0,1-.12,0c.31-.37.72-.81,1.11-1.25s.6-.66.83-.93Zm-4.37,1.07h.14c.23,0,.39,0,.45.1s0,0,0,0a.23.23,0,0,1-.15,0,1.57,1.57,0,0,1-.35-.11l-.12,0ZM20.11,21s0,0,0,0l0,0a.46.46,0,0,0-.1.18,3.32,3.32,0,0,0-.16.76l-.21-.1a.63.63,0,0,1-.31-.19l-.21-.31c0-.11,0-.21,0-.32V21l-.06,0a.3.3,0,0,0-.33,0c-.19.16-.07.44,0,.55a1.76,1.76,0,0,1,.17.55.29.29,0,0,1,0,.16.18.18,0,0,1,0,.09.59.59,0,0,0,0,.08,1.11,1.11,0,0,0-.05.44v.06a1,1,0,0,1-.09.5.45.45,0,0,1-.34.25.72.72,0,0,1-.47-.21,8.3,8.3,0,0,1-.64-.54.42.42,0,0,1-.12-.15.51.51,0,0,1,.06-.39.74.74,0,0,0,.05-.6A.23.23,0,0,0,17,21.6a.24.24,0,0,0-.21.09.58.58,0,0,0-.06.51,1,1,0,0,1,0,.17.6.6,0,0,1-.11.35l-.74.35,0,0a2,2,0,0,1-.35.21l.12-.29-1.11.81a3.55,3.55,0,0,0-.05-1.08l0-.15-.08,0,.14-.83h-.09l.05-.13a.24.24,0,0,0,0-.2.18.18,0,0,0,0-.07,1.1,1.1,0,0,1,.9-.74.3.3,0,0,0,.31-.15.2.2,0,0,0,0-.21.31.31,0,0,0-.2-.17.61.61,0,0,0-.33.05,2.94,2.94,0,0,1-1.18.12,5.85,5.85,0,0,0,.28-.56l.1-.25-.1,0,.2-.3a.21.21,0,0,0,0-.23h0a.67.67,0,0,1,.6-.3,1.36,1.36,0,0,1,.38.11,1.44,1.44,0,0,0,.4.13.48.48,0,0,0,.34-.08.27.27,0,0,0,.1-.18.3.3,0,0,0,0-.18c-.15-.24-.44-.23-.68-.22h-.13a.85.85,0,0,1-.42-.11l1-.32-.69,0a.34.34,0,0,1,.14,0l.58-.05a2.49,2.49,0,0,1,.94.05.74.74,0,0,1,.55.59,1,1,0,0,1-.08.45,1.22,1.22,0,0,0-.08.6.37.37,0,0,0,.21.26h0a.65.65,0,0,0,.38.16,1.31,1.31,0,0,0,.39,0l.14,0a1.28,1.28,0,0,1,.55,0l.14,0A1.52,1.52,0,0,1,20.11,21Zm9.28,2.43c.2.3.26.52.19.7a.55.55,0,0,1-.24.24,1.27,1.27,0,0,1-1-.05,1.44,1.44,0,0,1-.55-.41,1.17,1.17,0,0,1-.18-.46l0-.22.06-.2a1.08,1.08,0,0,1,.08-.19.64.64,0,0,1,.15-.13l.14-.08.15,0h.05a1,1,0,0,1,.7.23A2.28,2.28,0,0,1,29.39,23.38ZM27.48,23a1.33,1.33,0,0,0-.19-.42,1.11,1.11,0,0,0,.48,0,.63.63,0,0,0-.19.17A.67.67,0,0,0,27.48,23Zm-5.06-5.31a.8.8,0,0,1-.46-.35l0-.11a.46.46,0,0,1,.06-.47v0h0a.46.46,0,0,1,.2-.25,1,1,0,0,1,.54-.13,3.72,3.72,0,0,1,.81.09.81.81,0,0,1,.34.15.51.51,0,0,1,0,.64,1,1,0,0,1-.31.29l-.24.13.26.09a2.2,2.2,0,0,1,.49.24l.15.09,0-.18,0-.1a.9.9,0,0,1,.55-.51,1.92,1.92,0,0,1,.83-.08,1.68,1.68,0,0,1,.85.26.72.72,0,0,1,.31.71.84.84,0,0,1-.28.4l-.21.14-.25.15.28.07a2.4,2.4,0,0,1,1.08.59.7.7,0,0,1,.22.78.46.46,0,0,1-.31.21l-.3.08.27.15.15.11a2.46,2.46,0,0,1,.53.6c.2.31.26.53.18.71a.48.48,0,0,1-.2.22l-.13.08-.15,0a1.27,1.27,0,0,1-.43,0L27,22.34l.18.26a1.22,1.22,0,0,1,.17.37l.05.22-.08.19s0,0,0,0a.61.61,0,0,1-.42.28,1.09,1.09,0,0,1-.56,0,1.71,1.71,0,0,1-.84-.5,1.29,1.29,0,0,1-.26-.42l-.08-.46a.36.36,0,0,1,.06-.28h0a.37.37,0,0,1,.16-.1l-.06-.24a1.31,1.31,0,0,1-.68-.06l-.13-.06-.13.21a1.63,1.63,0,0,1,.53.63l.09.2v.19a.71.71,0,0,1-.46.69,1.1,1.1,0,0,1-.87-.22,2,2,0,0,1-.71-.62l-.12-.15-.1.17,0,0a.73.73,0,0,1-.74.1,1.5,1.5,0,0,1-.85-.75,1.31,1.31,0,0,1-.06-.72V21.2l-.1,0-.1,0a1.17,1.17,0,0,1-.49-.47,1.44,1.44,0,0,1-.27-.6.86.86,0,0,1,.56-.88l.18,0,.1,0a1,1,0,0,1,.41.51,2.38,2.38,0,0,1,.18.84v.2h.12a.62.62,0,0,1,.23.07,1.62,1.62,0,0,1,.58.52,2.16,2.16,0,0,1,.19.31l.11.19.11-.2a.56.56,0,0,1,.16-.18l.22-.11a1.07,1.07,0,0,1,.84.14l.14-.2a1.75,1.75,0,0,1-.43-.5l-.06-.1-.12-.23-.1.23a.61.61,0,0,1-.48.34,1,1,0,0,1-.76-.26,1.5,1.5,0,0,1-.56-1.13.93.93,0,0,1,.32-.49l0,0h.09a.91.91,0,0,1,.26.05l.48.15L22.54,19a1,1,0,0,1-.22-.32.72.72,0,0,1-.05-.44v-.11h0l0-.1.07-.15.07-.08.16-.14Zm-.65-.09,0,0a1.12,1.12,0,0,0,.36.29l0,.08-.17,0-.36-.07-.06-.07Zm-1-1.63,0,.05h0l0,.15c0,.11,0,.23.05.34a3.05,3.05,0,0,0,.36,1.18v0h0l.06.1h0l.15.23,0,0h0l-.19,0,.3.27a1.58,1.58,0,0,1,.28.35,2,2,0,0,1,.13.29,2.37,2.37,0,0,0-.7-.87l-.14-.13,0-.05h0l0,0a2,2,0,0,1-.2-.24,1.67,1.67,0,0,1-.16-.59,1.87,1.87,0,0,0-.11-.51,1.3,1.3,0,0,0-.16-.31l-.31-.47,0,.16a.88.88,0,0,0-.17-.16,3,3,0,0,1-.5-.66,1.17,1.17,0,0,1,1-.72,1.07,1.07,0,0,0,.12,1.38A1.46,1.46,0,0,1,20.73,15.92Zm4.5-2-.05.15h0L25,14.4h0a.14.14,0,0,0,0,.1,0,0,0,0,0,0,0,.47.47,0,0,1-.47.06.23.23,0,0,0-.23,0,.22.22,0,0,0-.08.14.23.23,0,0,0,.07.17.4.4,0,0,0,.18.08,1.33,1.33,0,0,1,.43.17l-.18.12-.21.17h0a.19.19,0,0,0-.1.1.29.29,0,0,1-.24,0,.77.77,0,0,1-.12-.13.75.75,0,0,0-.15-.16.3.3,0,0,0-.21-.07.22.22,0,0,0-.13.08.28.28,0,0,0,0,.13c0,.17.17.26.27.31h0l-.43-.09a.66.66,0,0,1-.24-.17.33.33,0,0,1-.08-.31.87.87,0,0,1,.13-.15.69.69,0,0,0,.21-.28l0-.13h0v-.07h-.05l-.06-.1a.35.35,0,0,0-.11-.1.55.55,0,0,0-.19-.09l-.07,0a.69.69,0,0,1-.4-.78h0a.24.24,0,0,0,.1-.06,2.39,2.39,0,0,0,.22-.23s0,0,0,0,.07.09.07.12a.41.41,0,0,1,0,.08.54.54,0,0,0-.05.11.31.31,0,0,0,.06.26.17.17,0,0,0,.18.06c.11,0,.18-.11.19-.28a1.1,1.1,0,0,1,.06-.26.11.11,0,0,1,0-.05h0l0,0a.73.73,0,0,0,.16-.22.51.51,0,0,1,.14-.17.17.17,0,0,1,.15,0s.08.09.11.17a2.46,2.46,0,0,1,.14.38.19.19,0,0,1,0,.07s0,0,0,.06l-.44.06.33,0a.39.39,0,0,0-.14.24.23.23,0,0,0,.06.16.17.17,0,0,0,.17,0,.34.34,0,0,0,.19-.24l0-.07s0-.06.09-.09l.38,0h.05l-.14.12.74-.09A1.76,1.76,0,0,0,25.23,14Z"/></g></g></svg>