<svg width="25" height="25" viewBox="0 0 25 25" fill="none" xmlns="http://www.w3.org/2000/svg">
<g clip-path="url(#clip0_406_18)">
<path d="M20.8963 5.48756C20.3856 4.97656 19.7791 4.5712 19.1117 4.29464C18.4442 4.01808 17.7288 3.87573 17.0063 3.87573C16.2838 3.87573 15.5684 4.01808 14.901 4.29464C14.2335 4.5712 13.6271 4.97656 13.1163 5.48756L12.0563 6.54756L10.9963 5.48756C9.96464 4.45587 8.56537 3.87627 7.10633 3.87627C5.6473 3.87627 4.24802 4.45587 3.21633 5.48756C2.18464 6.51925 1.60504 7.91852 1.60504 9.37756C1.60504 10.8366 2.18464 12.2359 3.21633 13.2676L4.27633 14.3276L12.0563 22.1076L19.8363 14.3276L20.8963 13.2676C21.4073 12.7568 21.8127 12.1504 22.0892 11.4829C22.3658 10.8155 22.5082 10.1 22.5082 9.37756C22.5082 8.65507 22.3658 7.93966 22.0892 7.2722C21.8127 6.60474 21.4073 5.99831 20.8963 5.48756V5.48756Z" stroke="#2E70B2" stroke-width="2" stroke-linecap="round" stroke-linejoin="round"/>
</g>
<defs>
<clipPath id="clip0_406_18">
<rect width="24" height="24" fill="white" transform="translate(0.0563354 0.877441)"/>
</clipPath>
</defs>
</svg>
