<svg width="25" height="25" viewBox="0 0 25 25" fill="none" xmlns="http://www.w3.org/2000/svg">
<path d="M17.4005 2.5686H7.40051C4.63909 2.5686 2.40051 4.80718 2.40051 7.5686V17.5686C2.40051 20.33 4.63909 22.5686 7.40051 22.5686H17.4005C20.1619 22.5686 22.4005 20.33 22.4005 17.5686V7.5686C22.4005 4.80718 20.1619 2.5686 17.4005 2.5686Z" stroke="url(#paint0_linear_711_12)" stroke-width="2" stroke-linecap="round" stroke-linejoin="round"/>
<path d="M16.4005 11.9387C16.5239 12.7709 16.3817 13.6209 15.9942 14.3677C15.6067 15.1145 14.9936 15.7201 14.2421 16.0983C13.4906 16.4766 12.6389 16.6083 11.8083 16.4746C10.9776 16.3409 10.2102 15.9487 9.6153 15.3538C9.02038 14.7589 8.6282 13.9915 8.49453 13.1609C8.36087 12.3302 8.49253 11.4786 8.87079 10.727C9.24905 9.97551 9.85465 9.3624 10.6014 8.9749C11.3482 8.5874 12.1982 8.44525 13.0305 8.56866C13.8794 8.69455 14.6653 9.09012 15.2722 9.69697C15.879 10.3038 16.2746 11.0897 16.4005 11.9387Z" stroke="url(#paint1_linear_711_12)" stroke-width="2" stroke-linecap="round" stroke-linejoin="round"/>
<path d="M17.9005 7.0686H17.9105" stroke="#2E70B2" stroke-width="2" stroke-linecap="round" stroke-linejoin="round"/>
<defs>
<linearGradient id="paint0_linear_711_12" x1="12.4005" y1="2.5686" x2="12.4005" y2="22.5686" gradientUnits="userSpaceOnUse">
<stop stop-color="#FECF81"/>
<stop offset="0.276042" stop-color="#FCB743"/>
<stop offset="0.557292" stop-color="#248CF9"/>
<stop offset="0.755208" stop-color="#2E70B2"/>
<stop offset="0.979167" stop-color="#B07420"/>
</linearGradient>
<linearGradient id="paint1_linear_711_12" x1="12.4437" y1="8.52539" x2="12.4437" y2="16.5254" gradientUnits="userSpaceOnUse">
<stop stop-color="#FECF81"/>
<stop offset="0.229167" stop-color="#FCB743"/>
<stop offset="0.541667" stop-color="#248CF9"/>
<stop offset="0.770833" stop-color="#2E70B2"/>
<stop offset="0.984375" stop-color="#B07420"/>
</linearGradient>
</defs>
</svg>
