<svg width="64" height="73" viewBox="0 0 64 73" fill="none" xmlns="http://www.w3.org/2000/svg">
<path d="M63.0198 29.6557C61.9174 30.6794 57.7439 33.6717 57.7439 33.6717C57.7439 33.6717 54.279 32.5693 51.7592 35.4041C51.2867 35.1679 50.8142 34.9316 50.4205 35.7191C49.8693 36.6641 47.4282 41.2313 46.6407 42.0188C45.7745 42.8062 43.5696 46.4285 43.0184 47.8459C42.4672 49.2633 41.3647 50.7595 41.2073 52.0194C41.0498 53.2794 40.8135 54.3031 40.4198 54.6968C39.9473 55.0905 38.6086 56.508 38.2937 56.8229C37.9787 57.1379 36.7187 56.6655 36.7187 57.7679C36.7187 58.8703 37.1125 60.1302 36.955 60.839C36.8762 61.5477 35.9313 64.6188 35.2226 65.0912C34.5139 65.6425 32.1515 67.2961 31.7578 68.0836C31.364 68.871 30.3403 70.9184 28.5292 70.8397C26.718 70.7609 19.8672 70.4459 18.8435 70.9184C17.8985 71.3121 14.9062 72.7296 14.1975 72.6508C13.5675 72.5721 13.0163 72.4146 12.2288 71.6271C11.4414 70.9184 9.9452 69.501 9.15774 69.5798C8.37029 69.6585 6.55914 71.1547 5.69294 70.9972C4.82674 70.8397 1.91313 68.871 1.99188 68.0048C2.07063 67.1386 3.33057 65.5637 3.01559 64.6975C2.70061 63.8313 0.0232521 61.3902 0.259489 60.1303C0.495726 58.9491 4.27551 56.9804 4.433 55.0905C4.59049 53.2794 4.433 51.3895 4.82673 50.8382C5.22046 50.287 5.77168 49.8933 5.69294 49.0271C5.61419 48.1609 5.53543 46.7435 5.85042 46.271C6.24414 45.7198 6.87412 44.7748 6.87412 43.3574C6.87412 41.94 6.63789 38.239 6.95287 37.294C7.26786 36.3491 7.66158 35.0891 7.58283 33.9079C7.50408 32.7267 7.03161 28.7895 7.58283 27.8445C8.13405 26.8996 8.84275 25.6396 9.00024 24.6159C9.15774 23.671 9.63021 21.5449 10.1814 21.1511C10.7326 20.7574 12.9375 19.4187 13.1738 18.395C13.41 17.3714 14.355 14.694 14.5124 14.1428C14.6699 13.5128 15.0637 12.3316 15.0637 11.2292C14.9849 10.1267 14.7487 9.10302 15.0637 8.07933C15.3787 7.13438 16.0874 4.22082 15.5362 3.82709C16.2449 3.11838 17.426 2.09467 17.8198 2.3309C18.4497 2.72463 20.1821 3.51207 20.6546 2.80336C21.1271 2.09465 22.4658 0.677242 23.5682 0.755988C24.6706 0.755988 27.8992 0.834734 27.8992 1.93717C27.8205 2.96087 27.663 6.9769 28.6867 7.05564C29.7104 7.13439 29.8679 7.76435 29.7104 8.47306C29.6316 9.18177 29.2379 10.9929 30.0254 11.0717C30.8128 11.0717 32.0727 11.4654 32.309 10.4417C32.4665 9.41801 33.0177 6.89815 34.0414 5.87446C35.0651 4.85076 37.5062 2.0159 38.3724 1.62217C39.2386 1.22844 40.4985 0.126003 42.7034 0.440986C42.7822 0.440986 42.9397 0.441015 43.0184 0.51976C43.0971 0.598506 43.1759 0.755998 43.2546 0.913489C43.6484 1.70095 44.4358 2.80339 45.0658 2.88213C46.0107 3.03962 47.6644 3.27585 47.3494 4.69327C47.0344 6.18944 46.4832 7.84308 47.5069 7.92183C48.5306 8.00057 49.633 8.00058 50.4992 8.07933C51.3654 8.15808 55.6177 8.31556 56.4839 8.31556C57.3501 8.31556 57.9801 8.47306 58.2951 8.86679C58.61 9.26052 60.8149 11.2292 60.5 12.0166C60.185 12.8041 59.7125 14.5365 58.7675 14.4578C57.8226 14.4578 52.2317 14.6152 52.5466 15.0089C52.8616 15.4814 56.5627 19.97 57.5864 21.3874C58.6101 22.8048 59.9487 24.3797 60.4212 24.8522C60.9724 25.3246 64.1222 28.7107 63.0198 29.6557Z" fill="#2E70B2"/>
<path d="M45.4595 48.3184C45.5383 48.0822 45.617 47.7672 45.6957 47.531C45.8532 47.216 45.932 46.8222 46.0107 46.5072C46.0895 46.271 46.1682 46.1135 46.247 45.8773C46.247 45.7198 46.3257 45.5623 46.247 45.4835C46.0895 45.1686 45.7745 45.4836 45.617 45.5623C45.3808 45.8773 45.302 46.1923 45.0658 46.5072C44.987 46.586 44.9083 46.6648 44.8295 46.7435C44.7508 46.8223 44.7508 46.9797 44.7508 47.1372C44.7508 47.2947 44.7508 47.3735 44.6721 47.531C44.5933 47.6097 44.5146 47.6884 44.4358 47.7672C44.1996 48.0034 44.0421 48.2396 44.1208 48.6334C44.1208 48.8696 44.1996 49.0271 44.2783 49.2633C44.2783 49.3421 44.2783 49.3421 44.3571 49.4208C44.4358 49.4996 44.5146 49.4996 44.5933 49.5783H44.6721C44.7508 49.5783 44.7508 49.5783 44.8295 49.5783C44.9083 49.5783 44.987 49.4996 44.987 49.4208C44.987 49.3421 45.0658 49.2634 45.1445 49.1846C45.302 48.7909 45.3808 48.5547 45.4595 48.3184Z" fill="#2E70B2"/>
<path d="M42.3097 54.1456C42.231 54.0669 42.231 54.0669 42.1522 54.0669C42.0735 54.0669 41.9947 54.0669 41.916 53.9881C41.7585 53.9094 41.7585 53.7519 41.7585 53.5944C41.7585 53.3582 41.916 53.2007 42.0735 53.0432C42.231 52.807 42.3097 52.5707 42.4672 52.3345C42.6247 52.0983 42.7822 51.862 42.9397 51.7045C43.0972 51.4683 43.3334 51.3108 43.5696 51.1533C43.8059 50.9958 43.9634 50.8383 44.1996 50.6809C44.5146 50.4446 44.8296 50.8383 45.0658 50.9958C45.3808 51.3108 45.7745 51.5471 46.0107 51.862C46.0895 52.0195 46.1682 52.0983 46.1682 52.2558C46.1682 52.492 45.932 52.7282 45.8533 52.8857C45.6958 53.2795 45.8533 53.7519 45.3808 53.9881C45.1446 54.1456 44.8296 54.1456 44.5933 54.1456C44.2784 54.2244 43.8846 54.1456 43.5696 53.9881C43.4909 53.9094 43.3334 53.9094 43.2546 53.9094C43.0972 53.9094 42.9397 54.0669 42.8609 54.0669C42.5459 54.2244 42.4672 54.2244 42.3097 54.1456Z" fill="#2E70B2"/>
<path d="M25.8518 58.9492L27.663 62.5715L31.5215 63.1227L28.6867 65.8788L29.3954 69.7373L25.8518 67.9262L22.387 69.7373L23.0957 65.8788L20.2609 63.1227L24.1194 62.5715L25.8518 58.9492Z" fill="white"/>
</svg>
