<svg width="25" height="25" viewBox="0 0 25 25" fill="none" xmlns="http://www.w3.org/2000/svg">
<g clip-path="url(#clip0_406_7)">
<path d="M21.5609 10.0466C21.5609 17.0466 12.5609 23.0466 12.5609 23.0466C12.5609 23.0466 3.56085 17.0466 3.56085 10.0466C3.56085 7.65968 4.50906 5.3705 6.19689 3.68267C7.88472 1.99484 10.1739 1.04663 12.5609 1.04663C14.9478 1.04663 17.237 1.99484 18.9248 3.68267C20.6126 5.3705 21.5609 7.65968 21.5609 10.0466Z" stroke="#2E70B2" stroke-width="2" stroke-linecap="round" stroke-linejoin="round"/>
<path d="M12.5609 13.0466C14.2177 13.0466 15.5609 11.7035 15.5609 10.0466C15.5609 8.38978 14.2177 7.04663 12.5609 7.04663C10.904 7.04663 9.56085 8.38978 9.56085 10.0466C9.56085 11.7035 10.904 13.0466 12.5609 13.0466Z" stroke="#2E70B2" stroke-width="2" stroke-linecap="round" stroke-linejoin="round"/>
</g>
<defs>
<clipPath id="clip0_406_7">
<rect width="24" height="24" fill="white" transform="translate(0.560852 0.0466309)"/>
</clipPath>
</defs>
</svg>
