<svg xmlns="http://www.w3.org/2000/svg" viewBox="0 0 920.38 411.79"><defs><style>.cls-1{fill:#897158;}.cls-2{fill:#705741;}.cls-3{fill:#a88f71;}.cls-4{fill:#d3af90;}</style></defs><g id="Layer_2" data-name="Layer 2"><g id="Слой_6" data-name="Слой 6"><path class="cls-1" d="M919,410.26c-8-8.58-48-51.41-64.74-62.55-18.6-12.4-22.73-41.34-22.73-41.34S808.76,269.16,790.16,265,734.35,232,734.35,232L722,219.56C709.54,207.15,662,141,647.54,134.81s-45.48-62-45.48-62-18.6-70.28-31-72.34-16.54,59.94-37.21,62-18.6,55.81-35.14,62-37.2,41.34-43.4,66.15S395.37,265,389.17,263s-43.41,22.74-47.55,49.61c-3.78,24.6-69.86,87.25-81,97.69Z"/><path class="cls-2" d="M688.78,410.26l-21-28.94-51.67-27.9L641,300.71l-14.47-45.47L641,233.53l-21.7,10.34-16.54,52.71L583.07,248l-4.13-54.77,19.64-34.11-25.84,18.61-20.67,61-22.74-38.24,6.21-27.9,22.73-37.21L551,99.18l-2.07,31-33.07,32-14.47,21.71,3.1-30,24.8-23.77V89.88l8.27-28.94s-10.33,1-15.5,10.34-9.3,27.9-12.4,38.24-11.37,10.33-23.77,17.57S458,175.66,450.79,195.3,389.17,263,389.17,263l-96.86,147.3Z"/><path class="cls-3" d="M571.11,410.26c-10.1-8.83-36.46-31.56-49.66-39.82-16.53-10.33-51.67-16.53-68.21-35.13S416,267.1,416,267.1L389.17,263l-12.41-33.07-8.27-24.8s-19-36.67-37.59-49.07S294.08,60.4,294.08,60.4L277.55,43.86s-26.87,35.14-31,64.08-33.07,72.34-33.07,72.34l-35,25.35s-41.48,96.6-60.08,109-55.81,28.94-68.21,49.61C39.52,382,9.06,404.32.68,410.26Z"/><polygon class="cls-1" points="258.56 160.16 293.18 183.93 251.33 174.63 238.93 211.83 299.38 239.74 243.58 231.98 264.76 251.1 276.13 262.99 251.33 269.19 248.23 284.18 215.67 320.35 195.52 218.03 258.56 160.16"/><polygon class="cls-1" points="291.63 321.38 348.99 354.45 286.98 334.3 291.63 321.38"/><polygon class="cls-1" points="265.28 100.21 282.33 154.47 254.43 107.97 265.28 100.21"/><polygon class="cls-1" points="277.55 43.86 294.73 123.47 269.93 56.81 277.55 43.86"/><polygon class="cls-4" points="251.33 174.63 293.18 183.93 335.04 228.88 285.43 194.78 245.13 190.13 251.33 174.63"/><polygon class="cls-4" points="255.98 236.63 299.38 239.74 352.09 298.65 299.38 278.49 302.49 309.5 348.99 354.45 302.49 328.1 248.23 284.18 251.33 269.19 268.38 262.99 255.98 236.63"/><polygon class="cls-4" points="317.99 301.75 327.29 318.8 381.55 376.16 341.62 312.57 317.99 301.75"/><path class="cls-3" d="M575.32,98.66l46.51,37.21-41.86-14,38.76,46.5L660.59,201l-45-7.75-9.3,43.4,21.7-24.8,55.81,21.7L654.38,263l14,32.55,48,17.06-44.95,20.15,54.26-3.1,27.9,34.1s51.16,12.41,55.81,15.51-46.51,6.2-46.51,6.2l148.37,24.8h7.39c-11.07-9.87-72.88-65.51-81.35-85.26-9.3-21.7-10.85-52.71-44.95-68.21s-52.71-26.36-52.71-26.36l-31-40.3-32.55-21.71-14-29.45-21.71-6.2L611,67.66,592.38,46S586.94,6.11,571.06.46s4.26,42.4,4.26,42.4l-12.4,21.7Z"/><polygon class="cls-4" points="265.28 100.21 273.03 66.11 294.73 123.47 300.94 163.77 274.58 97.11 265.28 100.21"/><polygon class="cls-4" points="277.55 43.86 294.08 60.4 311.79 125.02 313.34 163.77 297.83 100.21 277.55 43.86"/><polygon class="cls-4" points="380 320.35 414.1 340.5 420.3 400.96 380 320.35"/><polygon class="cls-4" points="562.92 64.56 575.32 98.66 621.83 135.87 575.32 78.51 575.32 42.85 562.92 64.56"/><polygon class="cls-4" points="579.97 121.92 618.73 168.42 660.59 200.98 632.68 156.02 579.97 121.92"/><polygon class="cls-4" points="671.44 182.38 685.39 216.48 738.1 255.24 671.44 182.38"/><polygon class="cls-4" points="628.03 211.83 615.63 193.23 683.84 233.53 628.03 211.83"/><polygon class="cls-4" points="654.38 262.99 668.34 295.55 716.39 312.6 759.8 326.55 783.05 354.45 829.56 365.31 787.71 338.95 764.45 306.4 703.99 290.89 753.6 280.04 787.71 315.7 758.25 267.64 694.69 275.39 654.38 262.99"/><polygon class="cls-4" points="845.06 360.65 859.02 383.91 920.38 411.79 845.06 360.65"/><path class="cls-4" d="M417.2,290.89,438.9,339l35.66,37.21,14.21,34.1h1.29v-27.9l-31-38.76-21.71-43.4L416,267.1s-25.18-1-26.86-4.14L345.89,218l31,62Z"/><polygon class="cls-4" points="395.44 410.26 297.83 371.51 356.69 410.26 395.44 410.26"/><path class="cls-1" d="M356.69,410.26l-58.86-38.75-6.2-50.13-43.4-37.21,16.53-33.07-25.83-39.27,19.63-51.67,6.72-59.95,10.85-48,1.42-8.3-16.92,14.5L237.89,98.15,223.42,156l-34.57,32.17c-9.62,7-14,25.31-19.17,36l-24.4,25.87L109.74,309S52.51,346.21,45.15,359.1C38.63,370.5,7.21,402.89,0,410.26Z"/><polygon class="cls-2" points="165.55 343.08 103.93 410.26 191.33 410.26 265.28 382.36 273.03 337.4 229.63 293.99 240.48 264.54 226.52 252.14 226.52 214.93 242.03 168.42 258.56 160.16 245.13 132.77 260.63 58.36 237.89 98.15 223.42 156.02 200.17 194.78 193.97 253.69 184.67 235.08 189.32 197.88 172.27 239.74 175.37 267.64 141.78 316.21 165.55 343.08"/><polygon class="cls-2" points="80.11 410.26 95.27 363.75 128.34 338.95 84.94 354.45 30.12 410.26 80.11 410.26"/></g></g></svg>