<svg xmlns="http://www.w3.org/2000/svg" viewBox="0 0 168.31 67.58"><defs><style>.cls-1{fill:#878b8c;}.cls-2{fill:#887857;}.cls-3{fill:#a59981;}.cls-4{fill:#cab99d;}</style></defs><g id="Layer_2" data-name="Layer 2"><g id="Layer_1-2" data-name="Layer 1"><path class="cls-1" d="M155.89,47.63l-3.44,5.24v.41l.18.39L156,48.43v-.7Z"/><polygon class="cls-1" points="152.71 43.51 152.47 44 155.88 57.42 155.96 57.49 155.96 56.09 152.71 43.51"/><polygon class="cls-1" points="96.47 11.69 88.57 21.82 88.57 23 96.64 12.56 96.64 11.71 96.47 11.69"/><polygon class="cls-1" points="96.64 23.79 96.64 22.93 88.57 10.89 88.57 12.06 96.46 23.77 96.64 23.79"/><polygon class="cls-1" points="104.43 13.23 96.87 22.77 96.87 23.95 104.61 14.16 104.61 13.26 104.43 13.23"/><polygon class="cls-1" points="104.61 25.69 104.61 24.83 96.87 11.9 96.87 13.03 104.43 25.64 104.61 25.69"/><polygon class="cls-1" points="112.31 15.44 104.75 24.51 104.75 25.73 112.48 16.44 112.48 15.5 112.31 15.44"/><polygon class="cls-1" points="112.48 28.43 112.48 27.55 104.75 13.15 104.75 14.38 112.31 28.37 112.48 28.43"/><polygon class="cls-1" points="120.16 18.44 112.58 27.44 112.58 28.74 120.32 19.41 120.32 18.52 120.16 18.44"/><polygon class="cls-1" points="120.32 31.57 120.32 30.69 112.58 15.16 112.58 16.5 120.16 31.52 120.32 31.57"/><polygon class="cls-1" points="128.12 22.63 120.55 30.82 120.55 32.13 128.29 23.66 128.29 22.72 128.12 22.63"/><polygon class="cls-1" points="128.29 35.46 128.29 34.61 120.55 18.26 120.55 19.57 128.13 35.38 128.29 35.46"/><polygon class="cls-1" points="136.07 27.76 128.51 34.65 128.51 35.91 136.25 28.86 136.25 27.88 136.07 27.76"/><polygon class="cls-1" points="136.25 40.28 136.25 39.53 128.51 22.34 128.51 23.65 136.11 40.2 136.25 40.28"/><polygon class="cls-1" points="144.05 34.55 136.52 39.49 136.52 40.71 144.26 35.83 144.26 34.73 144.05 34.55"/><polygon class="cls-1" points="144.26 46.08 144.26 45.45 136.52 27.73 136.52 28.98 144.14 45.99 144.26 46.08"/><polygon class="cls-1" points="152.09 43.3 144.45 45.15 144.45 46.28 152.19 43.88 152.19 43.41 152.09 43.3"/><polygon class="cls-1" points="152.19 53.16 152.19 51.97 144.45 34.65 144.45 35.78 152.11 53.09 152.19 53.16"/><rect class="cls-1" x="96.3" y="11.96" width="0.69" height="12.06"/><rect class="cls-1" x="104.26" y="13.34" width="0.69" height="12.25"/><rect class="cls-1" x="112.23" y="15.37" width="0.69" height="13.08"/><rect class="cls-1" x="120.2" y="18.44" width="0.69" height="13.34"/><rect class="cls-1" x="128.17" y="22.59" width="0.69" height="13.33"/><rect class="cls-1" x="136.14" y="27.86" width="0.69" height="12.84"/><rect class="cls-1" x="144.11" y="34.59" width="0.69" height="11.72"/><rect class="cls-1" x="152.07" y="43.31" width="0.69" height="10.25"/><path class="cls-1" d="M12.42,47.63l3.44,5.24v.41c-.06.13-.13.26-.18.39l-3.33-5.24v-.7Z"/><polygon class="cls-1" points="15.59 43.51 15.84 44 12.42 57.42 12.35 57.49 12.35 56.09 15.59 43.51"/><polygon class="cls-1" points="71.84 11.69 79.84 21.79 79.84 22.98 71.67 12.56 71.67 11.71 71.84 11.69"/><polygon class="cls-1" points="71.67 23.79 71.67 22.93 79.84 10.82 79.84 12 71.85 23.77 71.67 23.79"/><polygon class="cls-1" points="63.88 13.23 71.44 22.77 71.44 23.95 63.7 14.16 63.7 13.26 63.88 13.23"/><polygon class="cls-1" points="63.7 25.69 63.7 24.83 71.44 11.9 71.44 13.03 63.88 25.64 63.7 25.69"/><polygon class="cls-1" points="56 15.44 63.56 24.51 63.56 25.73 55.82 16.44 55.82 15.5 56 15.44"/><polygon class="cls-1" points="55.82 28.43 55.82 27.55 63.56 13.15 63.56 14.38 56 28.37 55.82 28.43"/><polygon class="cls-1" points="48.15 18.44 55.73 27.44 55.73 28.74 47.99 19.41 47.99 18.52 48.15 18.44"/><polygon class="cls-1" points="47.99 31.57 47.99 30.69 55.73 15.16 55.73 16.5 48.15 31.52 47.99 31.57"/><polygon class="cls-1" points="40.19 22.63 47.76 30.82 47.76 32.13 40.02 23.66 40.02 22.72 40.19 22.63"/><polygon class="cls-1" points="40.02 35.46 40.02 34.61 47.76 18.26 47.76 19.57 40.18 35.38 40.02 35.46"/><polygon class="cls-1" points="32.23 27.76 39.79 34.65 39.79 35.91 32.05 28.86 32.05 27.88 32.23 27.76"/><polygon class="cls-1" points="32.05 40.28 32.05 39.53 39.79 22.34 39.79 23.65 32.19 40.2 32.05 40.28"/><polygon class="cls-1" points="24.25 34.55 31.79 39.49 31.79 40.71 24.05 35.83 24.05 34.73 24.25 34.55"/><polygon class="cls-1" points="24.05 46.08 24.05 45.45 31.79 27.73 31.79 28.98 24.17 45.99 24.05 46.08"/><polygon class="cls-1" points="16.22 43.3 23.86 45.15 23.86 46.28 16.12 43.88 16.12 43.41 16.22 43.3"/><polygon class="cls-1" points="16.12 53.16 16.12 51.97 23.86 34.65 23.86 35.78 16.2 53.09 16.12 53.16"/><rect class="cls-1" x="71.32" y="11.96" width="0.69" height="12.06"/><rect class="cls-1" x="63.35" y="13.34" width="0.69" height="12.25"/><rect class="cls-1" x="55.38" y="15.37" width="0.69" height="13.08"/><rect class="cls-1" x="47.42" y="18.44" width="0.69" height="13.34"/><rect class="cls-1" x="39.45" y="22.59" width="0.69" height="13.33"/><rect class="cls-1" x="31.48" y="27.86" width="0.69" height="12.84"/><rect class="cls-1" x="23.51" y="34.59" width="0.69" height="11.72"/><rect class="cls-1" x="15.54" y="43.31" width="0.69" height="10.25"/><path class="cls-1" d="M158.8,61.57l-.89-1.11c-14-17.53-34.08-27.4-48.41-32.6a74.24,74.24,0,0,0-50.69,0c-14.34,5.2-34.37,15.07-48.41,32.6l-.89,1.11V51.88l.06-.11c.22-.42,22.78-41.34,74.58-41.34s74.37,40.92,74.59,41.34l.06.11ZM10.51,52.13v6.61c14.13-17,33.8-26.69,48-31.82a75.24,75.24,0,0,1,51.37,0c14.16,5.13,33.83,14.79,48,31.82V52.13c-1.31-2.32-23.75-40.7-73.65-40.7S11.82,49.81,10.51,52.13Z"/><polygon class="cls-1" points="27.3 57.1 26.83 57.1 28.06 10.48 28.26 10.48 27.3 57.1"/><polygon class="cls-1" points="31.05 57.1 30.58 57.1 29.63 10.48 29.82 10.48 31.05 57.1"/><polygon class="cls-1" points="29.97 22.39 27.91 22.39 27.94 21.31 29.94 21.31 29.97 22.39"/><polygon class="cls-1" points="29.74 11.14 28.14 11.14 28.16 10.48 29.72 10.48 29.74 11.14"/><polygon class="cls-1" points="29.9 21.69 28.14 11.49 28.15 10.93 29.98 21.31 29.9 21.69"/><polygon class="cls-1" points="28.03 21.69 29.78 11.49 29.77 10.93 27.94 21.31 28.03 21.69"/><polygon class="cls-1" points="30.23 35.48 28.21 21.96 28.03 21.96 30.01 35.48 30.23 35.48"/><polygon class="cls-1" points="27.93 35.48 29.89 21.96 29.71 21.96 27.71 35.48 27.93 35.48"/><polygon class="cls-1" points="30.78 56.54 28 36.08 27.76 36.08 30.46 56.54 30.78 56.54"/><polygon class="cls-1" points="27.5 56.54 30.18 36.08 29.94 36.08 27.18 56.54 27.5 56.54"/><polygon class="cls-1" points="30.28 36.61 27.6 36.61 27.65 34.79 30.23 34.79 30.28 36.61"/><polygon class="cls-1" points="31.05 57.1 26.91 57.1 26.97 54.86 30.99 54.86 31.05 57.1"/><polygon class="cls-1" points="64.11 57.1 63.64 57.1 64.87 10.48 65.07 10.48 64.11 57.1"/><polygon class="cls-1" points="67.86 57.1 67.39 57.1 66.43 10.48 66.63 10.48 67.86 57.1"/><polygon class="cls-1" points="66.78 22.39 64.72 22.39 64.75 21.31 66.75 21.31 66.78 22.39"/><polygon class="cls-1" points="66.55 11.14 64.95 11.14 64.97 10.48 66.53 10.48 66.55 11.14"/><polygon class="cls-1" points="66.71 21.69 64.94 11.49 64.96 10.93 66.79 21.31 66.71 21.69"/><polygon class="cls-1" points="64.83 21.69 66.59 11.49 66.58 10.93 64.75 21.31 64.83 21.69"/><polygon class="cls-1" points="67.04 35.48 65.02 21.96 64.84 21.96 66.81 35.48 67.04 35.48"/><polygon class="cls-1" points="64.74 35.48 66.7 21.96 66.52 21.96 64.51 35.48 64.74 35.48"/><polygon class="cls-1" points="67.58 56.54 64.8 36.08 64.57 36.08 67.26 56.54 67.58 56.54"/><polygon class="cls-1" points="64.31 56.54 66.98 36.08 66.75 36.08 63.99 56.54 64.31 56.54"/><polygon class="cls-1" points="67.09 36.61 64.41 36.61 64.46 34.79 67.04 34.79 67.09 36.61"/><polygon class="cls-1" points="67.86 57.1 63.72 57.1 63.78 54.86 67.8 54.86 67.86 57.1"/><polygon class="cls-1" points="100.92 57.1 100.45 57.1 101.68 10.48 101.87 10.48 100.92 57.1"/><polygon class="cls-1" points="104.67 57.1 104.2 57.1 103.24 10.48 103.44 10.48 104.67 57.1"/><polygon class="cls-1" points="103.59 22.39 101.53 22.39 101.56 21.31 103.56 21.31 103.59 22.39"/><polygon class="cls-1" points="103.36 11.14 101.76 11.14 101.78 10.48 103.34 10.48 103.36 11.14"/><polygon class="cls-1" points="103.51 21.69 101.75 11.49 101.76 10.93 103.6 21.31 103.51 21.69"/><polygon class="cls-1" points="101.64 21.69 103.4 11.49 103.38 10.93 101.56 21.31 101.64 21.69"/><polygon class="cls-1" points="103.85 35.48 101.83 21.96 101.65 21.96 103.62 35.48 103.85 35.48"/><polygon class="cls-1" points="101.55 35.48 103.51 21.96 103.33 21.96 101.32 35.48 101.55 35.48"/><polygon class="cls-1" points="104.39 56.54 101.61 36.08 101.38 36.08 104.07 56.54 104.39 56.54"/><polygon class="cls-1" points="101.12 56.54 103.79 36.08 103.56 36.08 100.8 56.54 101.12 56.54"/><polygon class="cls-1" points="103.9 36.61 101.22 36.61 101.27 34.79 103.85 34.79 103.9 36.61"/><polygon class="cls-1" points="104.67 57.1 100.53 57.1 100.59 54.86 104.6 54.86 104.67 57.1"/><polygon class="cls-1" points="137.72 57.1 137.25 57.1 138.49 10.48 138.68 10.48 137.72 57.1"/><polygon class="cls-1" points="141.48 57.1 141.01 57.1 140.05 10.48 140.25 10.48 141.48 57.1"/><polygon class="cls-1" points="140.4 22.39 138.34 22.39 138.36 21.31 140.37 21.31 140.4 22.39"/><polygon class="cls-1" points="140.16 11.14 138.57 11.14 138.58 10.48 140.15 10.48 140.16 11.14"/><polygon class="cls-1" points="140.32 21.69 138.56 11.49 138.57 10.93 140.41 21.31 140.32 21.69"/><polygon class="cls-1" points="138.45 21.69 140.21 11.49 140.19 10.93 138.36 21.31 138.45 21.69"/><polygon class="cls-1" points="140.65 35.48 138.64 21.96 138.46 21.96 140.43 35.48 140.65 35.48"/><polygon class="cls-1" points="138.35 35.48 140.31 21.96 140.13 21.96 138.13 35.48 138.35 35.48"/><polygon class="cls-1" points="141.2 56.54 138.42 36.08 138.18 36.08 140.88 56.54 141.2 56.54"/><polygon class="cls-1" points="137.93 56.54 140.6 36.08 140.37 36.08 137.61 56.54 137.93 56.54"/><polygon class="cls-1" points="140.7 36.61 138.03 36.61 138.07 34.79 140.66 34.79 140.7 36.61"/><polygon class="cls-1" points="141.48 57.1 137.33 57.1 137.4 54.86 141.41 54.86 141.48 57.1"/><path class="cls-1" d="M5.14,4.8H4.31V.28c0-.16.18-.28.41-.28h0c.23,0,.41.12.41.28Z"/><path class="cls-1" d="M19.58,4.8h-.83V.28c0-.16.19-.28.41-.28h0c.23,0,.41.12.41.28Z"/><path class="cls-1" d="M34,4.8h-.83V.28c0-.16.19-.28.41-.28h0c.23,0,.41.12.41.28Z"/><path class="cls-1" d="M48.47,4.8h-.83V.28c0-.16.18-.28.41-.28h0c.23,0,.42.12.42.28Z"/><path class="cls-1" d="M62.91,4.8h-.83V.28c0-.16.18-.28.41-.28h0c.22,0,.41.12.41.28Z"/><path class="cls-1" d="M77.35,4.8h-.83V.28c0-.16.18-.28.41-.28h0c.22,0,.41.12.41.28Z"/><path class="cls-1" d="M91.79,4.8H91V.28c0-.16.18-.28.41-.28h0c.23,0,.41.12.41.28Z"/><path class="cls-1" d="M106.23,4.8h-.83V.28c0-.16.19-.28.41-.28h0c.23,0,.41.12.41.28Z"/><path class="cls-1" d="M120.67,4.8h-.83V.28c0-.16.19-.28.41-.28h0c.23,0,.41.12.41.28Z"/><path class="cls-1" d="M135.11,4.8h-.83V.28c0-.16.19-.28.42-.28h0c.23,0,.41.12.41.28Z"/><path class="cls-1" d="M149.56,4.8h-.83V.28c0-.16.18-.28.41-.28h0c.22,0,.41.12.41.28Z"/><path class="cls-1" d="M164,4.8h-.83V.28c0-.16.18-.28.41-.28h0c.22,0,.41.12.41.28Z"/><rect class="cls-1" x="163.9" y="10.13" width="4.41" height="0.71"/><rect class="cls-1" x="163.9" y="4.44" width="4.41" height="0.71"/><polygon class="cls-1" points="168.23 4.84 164.21 9.67 164.21 10.18 168.23 5.33 168.23 4.84"/><polygon class="cls-1" points="168.23 9.84 164.21 4.99 164.21 5.5 168.23 10.33 168.23 9.84"/><rect class="cls-1" x="163.9" y="4.8" width="0.46" height="5.68"/><rect class="cls-1" x="167.99" y="4.44" width="0.32" height="6.28"/><rect class="cls-1" x="159.8" y="10.13" width="4.41" height="0.71"/><rect class="cls-1" x="159.8" y="4.44" width="4.41" height="0.71"/><polygon class="cls-1" points="164.13 4.84 160.11 9.67 160.11 10.18 164.13 5.33 164.13 4.84"/><polygon class="cls-1" points="164.13 9.84 160.11 4.99 160.11 5.5 164.13 10.33 164.13 9.84"/><rect class="cls-1" x="159.8" y="4.8" width="0.46" height="5.68"/><rect class="cls-1" x="163.89" y="4.44" width="0.32" height="6.28"/><rect class="cls-1" x="155.7" y="10.13" width="4.41" height="0.71"/><rect class="cls-1" x="155.7" y="4.44" width="4.41" height="0.71"/><polygon class="cls-1" points="160.03 4.84 156.02 9.67 156.02 10.18 160.03 5.33 160.03 4.84"/><polygon class="cls-1" points="160.03 9.84 156.02 4.99 156.02 5.5 160.03 10.33 160.03 9.84"/><rect class="cls-1" x="155.7" y="4.8" width="0.46" height="5.68"/><rect class="cls-1" x="159.79" y="4.44" width="0.32" height="6.28"/><rect class="cls-1" x="151.6" y="10.13" width="4.41" height="0.71"/><rect class="cls-1" x="151.6" y="4.44" width="4.41" height="0.71"/><polygon class="cls-1" points="155.94 4.84 151.92 9.67 151.92 10.18 155.94 5.33 155.94 4.84"/><polygon class="cls-1" points="155.94 9.84 151.92 4.99 151.92 5.5 155.94 10.33 155.94 9.84"/><rect class="cls-1" x="151.6" y="4.8" width="0.46" height="5.68"/><rect class="cls-1" x="155.7" y="4.44" width="0.32" height="6.28"/><rect class="cls-1" x="147.51" y="10.13" width="4.41" height="0.71"/><rect class="cls-1" x="147.51" y="4.44" width="4.41" height="0.71"/><polygon class="cls-1" points="151.84 4.84 147.82 9.67 147.82 10.18 151.84 5.33 151.84 4.84"/><polygon class="cls-1" points="151.84 9.84 147.82 4.99 147.82 5.5 151.84 10.33 151.84 9.84"/><rect class="cls-1" x="147.51" y="4.8" width="0.46" height="5.68"/><rect class="cls-1" x="151.6" y="4.44" width="0.32" height="6.28"/><rect class="cls-1" x="143.41" y="10.13" width="4.41" height="0.71"/><rect class="cls-1" x="143.41" y="4.44" width="4.41" height="0.71"/><polygon class="cls-1" points="147.74 4.84 143.72 9.67 143.72 10.18 147.74 5.33 147.74 4.84"/><polygon class="cls-1" points="147.74 9.84 143.72 4.99 143.72 5.5 147.74 10.33 147.74 9.84"/><rect class="cls-1" x="143.41" y="4.8" width="0.46" height="5.68"/><rect class="cls-1" x="147.5" y="4.44" width="0.32" height="6.28"/><rect class="cls-1" x="139.31" y="10.13" width="4.41" height="0.71"/><rect class="cls-1" x="139.31" y="4.44" width="4.41" height="0.71"/><polygon class="cls-1" points="143.65 4.84 139.63 9.67 139.63 10.18 143.65 5.33 143.65 4.84"/><polygon class="cls-1" points="143.65 9.84 139.63 4.99 139.63 5.5 143.65 10.33 143.65 9.84"/><rect class="cls-1" x="139.31" y="4.8" width="0.46" height="5.68"/><rect class="cls-1" x="143.41" y="4.44" width="0.32" height="6.28"/><rect class="cls-1" x="135.21" y="10.13" width="4.41" height="0.71"/><rect class="cls-1" x="135.21" y="4.44" width="4.41" height="0.71"/><polygon class="cls-1" points="139.55 4.84 135.53 9.67 135.53 10.18 139.55 5.33 139.55 4.84"/><polygon class="cls-1" points="139.55 9.84 135.53 4.99 135.53 5.5 139.55 10.33 139.55 9.84"/><rect class="cls-1" x="135.21" y="4.8" width="0.46" height="5.68"/><rect class="cls-1" x="139.31" y="4.44" width="0.32" height="6.28"/><rect class="cls-1" x="131.12" y="10.13" width="4.41" height="0.71"/><rect class="cls-1" x="131.12" y="4.44" width="4.41" height="0.71"/><polygon class="cls-1" points="135.45 4.84 131.43 9.67 131.43 10.18 135.45 5.33 135.45 4.84"/><polygon class="cls-1" points="135.45 9.84 131.43 4.99 131.43 5.5 135.45 10.33 135.45 9.84"/><rect class="cls-1" x="131.12" y="4.8" width="0.46" height="5.68"/><rect class="cls-1" x="135.21" y="4.44" width="0.32" height="6.28"/><rect class="cls-1" x="127.02" y="10.13" width="4.41" height="0.71"/><rect class="cls-1" x="127.02" y="4.44" width="4.41" height="0.71"/><polygon class="cls-1" points="131.35 4.84 127.33 9.67 127.33 10.18 131.35 5.33 131.35 4.84"/><polygon class="cls-1" points="131.35 9.84 127.33 4.99 127.33 5.5 131.35 10.33 131.35 9.84"/><rect class="cls-1" x="127.02" y="4.8" width="0.46" height="5.68"/><rect class="cls-1" x="131.11" y="4.44" width="0.32" height="6.28"/><rect class="cls-1" x="122.92" y="10.13" width="4.41" height="0.71"/><rect class="cls-1" x="122.92" y="4.44" width="4.41" height="0.71"/><polygon class="cls-1" points="127.26 4.84 123.24 9.67 123.24 10.18 127.26 5.33 127.26 4.84"/><polygon class="cls-1" points="127.26 9.84 123.24 4.99 123.24 5.5 127.26 10.33 127.26 9.84"/><rect class="cls-1" x="122.92" y="4.8" width="0.46" height="5.68"/><rect class="cls-1" x="127.02" y="4.44" width="0.32" height="6.28"/><rect class="cls-1" x="118.83" y="10.13" width="4.41" height="0.71"/><rect class="cls-1" x="118.83" y="4.44" width="4.41" height="0.71"/><polygon class="cls-1" points="123.16 4.84 119.14 9.67 119.14 10.18 123.16 5.33 123.16 4.84"/><polygon class="cls-1" points="123.16 9.84 119.14 4.99 119.14 5.5 123.16 10.33 123.16 9.84"/><rect class="cls-1" x="118.83" y="4.8" width="0.46" height="5.68"/><rect class="cls-1" x="122.92" y="4.44" width="0.32" height="6.28"/><rect class="cls-1" x="114.73" y="10.13" width="4.41" height="0.71"/><rect class="cls-1" x="114.73" y="4.44" width="4.41" height="0.71"/><polygon class="cls-1" points="119.06 4.84 115.04 9.67 115.04 10.18 119.06 5.33 119.06 4.84"/><polygon class="cls-1" points="119.06 9.84 115.04 4.99 115.04 5.5 119.06 10.33 119.06 9.84"/><rect class="cls-1" x="114.73" y="4.8" width="0.46" height="5.68"/><rect class="cls-1" x="118.82" y="4.44" width="0.32" height="6.28"/><rect class="cls-1" x="110.63" y="10.13" width="4.41" height="0.71"/><rect class="cls-1" x="110.63" y="4.44" width="4.41" height="0.71"/><polygon class="cls-1" points="114.96 4.84 110.94 9.67 110.94 10.18 114.96 5.33 114.96 4.84"/><polygon class="cls-1" points="114.96 9.84 110.94 4.99 110.94 5.5 114.96 10.33 114.96 9.84"/><rect class="cls-1" x="110.63" y="4.8" width="0.46" height="5.68"/><rect class="cls-1" x="114.72" y="4.44" width="0.32" height="6.28"/><rect class="cls-1" x="106.53" y="10.13" width="4.41" height="0.71"/><rect class="cls-1" x="106.53" y="4.44" width="4.41" height="0.71"/><polygon class="cls-1" points="110.87 4.84 106.85 9.67 106.85 10.18 110.87 5.33 110.87 4.84"/><polygon class="cls-1" points="110.87 9.84 106.85 4.99 106.85 5.5 110.87 10.33 110.87 9.84"/><rect class="cls-1" x="106.53" y="4.8" width="0.46" height="5.68"/><rect class="cls-1" x="110.63" y="4.44" width="0.32" height="6.28"/><rect class="cls-1" x="102.44" y="10.13" width="4.41" height="0.71"/><rect class="cls-1" x="102.44" y="4.44" width="4.41" height="0.71"/><polygon class="cls-1" points="106.77 4.84 102.75 9.67 102.75 10.18 106.77 5.33 106.77 4.84"/><polygon class="cls-1" points="106.77 9.84 102.75 4.99 102.75 5.5 106.77 10.33 106.77 9.84"/><rect class="cls-1" x="102.44" y="4.8" width="0.46" height="5.68"/><rect class="cls-1" x="106.53" y="4.44" width="0.32" height="6.28"/><rect class="cls-1" x="98.34" y="10.13" width="4.41" height="0.71"/><rect class="cls-1" x="98.34" y="4.44" width="4.41" height="0.71"/><polygon class="cls-1" points="102.67 4.84 98.65 9.67 98.65 10.18 102.67 5.33 102.67 4.84"/><polygon class="cls-1" points="102.67 9.84 98.65 4.99 98.65 5.5 102.67 10.33 102.67 9.84"/><rect class="cls-1" x="98.34" y="4.8" width="0.46" height="5.68"/><rect class="cls-1" x="102.43" y="4.44" width="0.32" height="6.28"/><rect class="cls-1" x="94.24" y="10.13" width="4.41" height="0.71"/><rect class="cls-1" x="94.24" y="4.44" width="4.41" height="0.71"/><polygon class="cls-1" points="98.57 4.84 94.55 9.67 94.55 10.18 98.57 5.33 98.57 4.84"/><polygon class="cls-1" points="98.57 9.84 94.55 4.99 94.55 5.5 98.57 10.33 98.57 9.84"/><rect class="cls-1" x="94.24" y="4.8" width="0.46" height="5.68"/><rect class="cls-1" x="98.33" y="4.44" width="0.32" height="6.28"/><rect class="cls-1" x="90.14" y="10.13" width="4.41" height="0.71"/><rect class="cls-1" x="90.14" y="4.44" width="4.41" height="0.71"/><polygon class="cls-1" points="94.48 4.84 90.46 9.67 90.46 10.18 94.48 5.33 94.48 4.84"/><polygon class="cls-1" points="94.48 9.84 90.46 4.99 90.46 5.5 94.48 10.33 94.48 9.84"/><rect class="cls-1" x="90.14" y="4.8" width="0.46" height="5.68"/><rect class="cls-1" x="94.24" y="4.44" width="0.32" height="6.28"/><rect class="cls-1" x="86.05" y="10.13" width="4.41" height="0.71"/><rect class="cls-1" x="86.05" y="4.44" width="4.41" height="0.71"/><polygon class="cls-1" points="90.38 4.84 86.36 9.67 86.36 10.18 90.38 5.33 90.38 4.84"/><polygon class="cls-1" points="90.38 9.84 86.36 4.99 86.36 5.5 90.38 10.33 90.38 9.84"/><rect class="cls-1" x="86.05" y="4.8" width="0.46" height="5.68"/><rect class="cls-1" x="90.14" y="4.44" width="0.32" height="6.28"/><rect class="cls-1" x="81.95" y="10.13" width="4.41" height="0.71"/><rect class="cls-1" x="81.95" y="4.44" width="4.41" height="0.71"/><polygon class="cls-1" points="86.28 4.84 82.26 9.67 82.26 10.18 86.28 5.33 86.28 4.84"/><polygon class="cls-1" points="86.28 9.84 82.26 4.99 82.26 5.5 86.28 10.33 86.28 9.84"/><rect class="cls-1" x="81.95" y="4.8" width="0.46" height="5.68"/><rect class="cls-1" x="86.04" y="4.44" width="0.32" height="6.28"/><rect class="cls-1" x="77.85" y="10.13" width="4.41" height="0.71"/><rect class="cls-1" x="77.85" y="4.44" width="4.41" height="0.71"/><polygon class="cls-1" points="82.18 4.84 78.17 9.67 78.17 10.18 82.18 5.33 82.18 4.84"/><polygon class="cls-1" points="82.18 9.84 78.17 4.99 78.17 5.5 82.18 10.33 82.18 9.84"/><rect class="cls-1" x="77.85" y="4.8" width="0.46" height="5.68"/><rect class="cls-1" x="81.94" y="4.44" width="0.32" height="6.28"/><rect class="cls-1" x="73.75" y="10.13" width="4.41" height="0.71"/><rect class="cls-1" x="73.75" y="4.44" width="4.41" height="0.71"/><polygon class="cls-1" points="78.09 4.84 74.07 9.67 74.07 10.18 78.09 5.33 78.09 4.84"/><polygon class="cls-1" points="78.09 9.84 74.07 4.99 74.07 5.5 78.09 10.33 78.09 9.84"/><rect class="cls-1" x="73.75" y="4.8" width="0.46" height="5.68"/><rect class="cls-1" x="77.85" y="4.44" width="0.32" height="6.28"/><rect class="cls-1" x="69.66" y="10.13" width="4.41" height="0.71"/><rect class="cls-1" x="69.66" y="4.44" width="4.41" height="0.71"/><polygon class="cls-1" points="73.99 4.84 69.97 9.67 69.97 10.18 73.99 5.33 73.99 4.84"/><polygon class="cls-1" points="73.99 9.84 69.97 4.99 69.97 5.5 73.99 10.33 73.99 9.84"/><rect class="cls-1" x="69.66" y="4.8" width="0.46" height="5.68"/><rect class="cls-1" x="73.75" y="4.44" width="0.32" height="6.28"/><rect class="cls-1" x="65.56" y="10.13" width="4.41" height="0.71"/><rect class="cls-1" x="65.56" y="4.44" width="4.41" height="0.71"/><polygon class="cls-1" points="69.89 4.84 65.87 9.67 65.87 10.18 69.89 5.33 69.89 4.84"/><polygon class="cls-1" points="69.89 9.84 65.87 4.99 65.87 5.5 69.89 10.33 69.89 9.84"/><rect class="cls-1" x="65.56" y="4.8" width="0.46" height="5.68"/><rect class="cls-1" x="69.65" y="4.44" width="0.32" height="6.28"/><rect class="cls-1" x="61.46" y="10.13" width="4.41" height="0.71"/><rect class="cls-1" x="61.46" y="4.44" width="4.41" height="0.71"/><polygon class="cls-1" points="65.8 4.84 61.77 9.67 61.77 10.18 65.8 5.33 65.8 4.84"/><polygon class="cls-1" points="65.8 9.84 61.77 4.99 61.77 5.5 65.8 10.33 65.8 9.84"/><rect class="cls-1" x="61.46" y="4.8" width="0.46" height="5.68"/><rect class="cls-1" x="65.55" y="4.44" width="0.32" height="6.28"/><rect class="cls-1" x="57.36" y="10.13" width="4.41" height="0.71"/><rect class="cls-1" x="57.36" y="4.44" width="4.41" height="0.71"/><polygon class="cls-1" points="61.7 4.84 57.68 9.67 57.68 10.18 61.7 5.33 61.7 4.84"/><polygon class="cls-1" points="61.7 9.84 57.68 4.99 57.68 5.5 61.7 10.33 61.7 9.84"/><rect class="cls-1" x="57.36" y="4.8" width="0.46" height="5.68"/><rect class="cls-1" x="61.46" y="4.44" width="0.32" height="6.28"/><rect class="cls-1" x="53.27" y="10.13" width="4.41" height="0.71"/><rect class="cls-1" x="53.27" y="4.44" width="4.41" height="0.71"/><polygon class="cls-1" points="57.6 4.84 53.58 9.67 53.58 10.18 57.6 5.33 57.6 4.84"/><polygon class="cls-1" points="57.6 9.84 53.58 4.99 53.58 5.5 57.6 10.33 57.6 9.84"/><rect class="cls-1" x="53.27" y="4.8" width="0.46" height="5.68"/><rect class="cls-1" x="57.36" y="4.44" width="0.32" height="6.28"/><rect class="cls-1" x="49.17" y="10.13" width="4.41" height="0.71"/><rect class="cls-1" x="49.17" y="4.44" width="4.41" height="0.71"/><polygon class="cls-1" points="53.5 4.84 49.48 9.67 49.48 10.18 53.5 5.33 53.5 4.84"/><polygon class="cls-1" points="53.5 9.84 49.48 4.99 49.48 5.5 53.5 10.33 53.5 9.84"/><rect class="cls-1" x="49.17" y="4.8" width="0.46" height="5.68"/><rect class="cls-1" x="53.26" y="4.44" width="0.32" height="6.28"/><rect class="cls-1" x="45.07" y="10.13" width="4.41" height="0.71"/><rect class="cls-1" x="45.07" y="4.44" width="4.41" height="0.71"/><polygon class="cls-1" points="49.41 4.84 45.38 9.67 45.38 10.18 49.41 5.33 49.41 4.84"/><polygon class="cls-1" points="49.41 9.84 45.38 4.99 45.38 5.5 49.41 10.33 49.41 9.84"/><rect class="cls-1" x="45.07" y="4.8" width="0.46" height="5.68"/><rect class="cls-1" x="49.16" y="4.44" width="0.32" height="6.28"/><rect class="cls-1" x="40.97" y="10.13" width="4.41" height="0.71"/><rect class="cls-1" x="40.97" y="4.44" width="4.41" height="0.71"/><polygon class="cls-1" points="45.31 4.84 41.29 9.67 41.29 10.18 45.31 5.33 45.31 4.84"/><polygon class="cls-1" points="45.31 9.84 41.29 4.99 41.29 5.5 45.31 10.33 45.31 9.84"/><rect class="cls-1" x="40.97" y="4.8" width="0.46" height="5.68"/><rect class="cls-1" x="45.07" y="4.44" width="0.32" height="6.28"/><rect class="cls-1" x="36.88" y="10.13" width="4.41" height="0.71"/><rect class="cls-1" x="36.88" y="4.44" width="4.41" height="0.71"/><polygon class="cls-1" points="41.21 4.84 37.19 9.67 37.19 10.18 41.21 5.33 41.21 4.84"/><polygon class="cls-1" points="41.21 9.84 37.19 4.99 37.19 5.5 41.21 10.33 41.21 9.84"/><rect class="cls-1" x="36.88" y="4.8" width="0.46" height="5.68"/><rect class="cls-1" x="40.97" y="4.44" width="0.32" height="6.28"/><rect class="cls-1" x="32.78" y="10.13" width="4.41" height="0.71"/><rect class="cls-1" x="32.78" y="4.44" width="4.41" height="0.71"/><polygon class="cls-1" points="37.11 4.84 33.09 9.67 33.09 10.18 37.11 5.33 37.11 4.84"/><polygon class="cls-1" points="37.11 9.84 33.09 4.99 33.09 5.5 37.11 10.33 37.11 9.84"/><rect class="cls-1" x="32.78" y="4.8" width="0.46" height="5.68"/><rect class="cls-1" x="36.87" y="4.44" width="0.32" height="6.28"/><rect class="cls-1" x="28.68" y="10.13" width="4.41" height="0.71"/><rect class="cls-1" x="28.68" y="4.44" width="4.41" height="0.71"/><polygon class="cls-1" points="33.02 4.84 29 9.67 29 10.18 33.02 5.33 33.02 4.84"/><polygon class="cls-1" points="33.02 9.84 29 4.99 29 5.5 33.02 10.33 33.02 9.84"/><rect class="cls-1" x="28.68" y="4.8" width="0.46" height="5.68"/><rect class="cls-1" x="32.78" y="4.44" width="0.32" height="6.28"/><rect class="cls-1" x="24.58" y="10.13" width="4.41" height="0.71"/><rect class="cls-1" x="24.58" y="4.44" width="4.41" height="0.71"/><polygon class="cls-1" points="28.92 4.84 24.9 9.67 24.9 10.18 28.92 5.33 28.92 4.84"/><polygon class="cls-1" points="28.92 9.84 24.9 4.99 24.9 5.5 28.92 10.33 28.92 9.84"/><rect class="cls-1" x="24.58" y="4.8" width="0.46" height="5.68"/><rect class="cls-1" x="28.68" y="4.44" width="0.32" height="6.28"/><rect class="cls-1" x="20.49" y="10.13" width="4.41" height="0.71"/><rect class="cls-1" x="20.49" y="4.44" width="4.41" height="0.71"/><polygon class="cls-1" points="24.82 4.84 20.8 9.67 20.8 10.18 24.82 5.33 24.82 4.84"/><polygon class="cls-1" points="24.82 9.84 20.8 4.99 20.8 5.5 24.82 10.33 24.82 9.84"/><rect class="cls-1" x="20.49" y="4.8" width="0.46" height="5.68"/><rect class="cls-1" x="24.58" y="4.44" width="0.32" height="6.28"/><rect class="cls-1" x="16.39" y="10.13" width="4.41" height="0.71"/><rect class="cls-1" x="16.39" y="4.44" width="4.41" height="0.71"/><polygon class="cls-1" points="20.72 4.84 16.7 9.67 16.7 10.18 20.72 5.33 20.72 4.84"/><polygon class="cls-1" points="20.72 9.84 16.7 4.99 16.7 5.5 20.72 10.33 20.72 9.84"/><rect class="cls-1" x="16.39" y="4.8" width="0.46" height="5.68"/><rect class="cls-1" x="20.48" y="4.44" width="0.32" height="6.28"/><rect class="cls-1" x="12.29" y="10.13" width="4.41" height="0.71"/><rect class="cls-1" x="12.29" y="4.44" width="4.41" height="0.71"/><polygon class="cls-1" points="16.63 4.84 12.61 9.67 12.61 10.18 16.63 5.33 16.63 4.84"/><polygon class="cls-1" points="16.63 9.84 12.61 4.99 12.61 5.5 16.63 10.33 16.63 9.84"/><rect class="cls-1" x="12.29" y="4.8" width="0.46" height="5.68"/><rect class="cls-1" x="16.39" y="4.44" width="0.32" height="6.28"/><rect class="cls-1" x="8.19" y="10.13" width="4.41" height="0.71"/><rect class="cls-1" x="8.19" y="4.44" width="4.41" height="0.71"/><polygon class="cls-1" points="12.53 4.84 8.51 9.67 8.51 10.18 12.53 5.33 12.53 4.84"/><polygon class="cls-1" points="12.53 9.84 8.51 4.99 8.51 5.5 12.53 10.33 12.53 9.84"/><rect class="cls-1" x="8.19" y="4.8" width="0.46" height="5.68"/><rect class="cls-1" x="12.29" y="4.44" width="0.32" height="6.28"/><rect class="cls-1" x="4.1" y="10.13" width="4.41" height="0.71"/><rect class="cls-1" x="4.1" y="4.44" width="4.41" height="0.71"/><polygon class="cls-1" points="8.43 4.84 4.41 9.67 4.41 10.18 8.43 5.33 8.43 4.84"/><polygon class="cls-1" points="8.43 9.84 4.41 4.99 4.41 5.5 8.43 10.33 8.43 9.84"/><rect class="cls-1" x="4.1" y="4.8" width="0.46" height="5.68"/><rect class="cls-1" x="8.19" y="4.44" width="0.32" height="6.28"/><rect class="cls-1" y="10.13" width="4.41" height="0.71"/><rect class="cls-1" y="4.44" width="4.41" height="0.71"/><polygon class="cls-1" points="4.33 4.84 0.31 9.67 0.31 10.18 4.33 5.33 4.33 4.84"/><polygon class="cls-1" points="4.33 9.84 0.31 4.99 0.31 5.5 4.33 10.33 4.33 9.84"/><rect class="cls-1" y="4.8" width="0.46" height="5.68"/><rect class="cls-1" x="4.09" y="4.44" width="0.32" height="6.28"/><rect class="cls-1" x="150.79" y="57.08" width="3.69" height="0.28"/><rect class="cls-1" x="150.79" y="54.81" width="3.69" height="0.28"/><polygon class="cls-1" points="154.42 54.97 151.05 56.9 151.05 57.1 154.42 55.16 154.42 54.97"/><polygon class="cls-1" points="154.42 56.97 151.05 55.03 151.05 55.23 154.42 57.16 154.42 56.97"/><rect class="cls-1" x="150.79" y="54.95" width="0.38" height="2.27"/><rect class="cls-1" x="154.22" y="54.81" width="0.27" height="2.51"/><rect class="cls-1" x="147.36" y="57.08" width="3.69" height="0.28"/><rect class="cls-1" x="147.36" y="54.81" width="3.69" height="0.28"/><polygon class="cls-1" points="150.99 54.97 147.62 56.9 147.62 57.1 150.99 55.16 150.99 54.97"/><polygon class="cls-1" points="150.99 56.97 147.62 55.03 147.62 55.23 150.99 57.16 150.99 56.97"/><rect class="cls-1" x="147.36" y="54.95" width="0.38" height="2.27"/><rect class="cls-1" x="150.79" y="54.81" width="0.27" height="2.51"/><rect class="cls-1" x="143.93" y="57.08" width="3.69" height="0.28"/><rect class="cls-1" x="143.93" y="54.81" width="3.69" height="0.28"/><polygon class="cls-1" points="147.56 54.97 144.19 56.9 144.19 57.1 147.56 55.16 147.56 54.97"/><polygon class="cls-1" points="147.56 56.97 144.19 55.03 144.19 55.23 147.56 57.16 147.56 56.97"/><rect class="cls-1" x="143.93" y="54.95" width="0.38" height="2.27"/><rect class="cls-1" x="147.35" y="54.81" width="0.27" height="2.51"/><rect class="cls-1" x="140.49" y="57.08" width="3.69" height="0.28"/><rect class="cls-1" x="140.49" y="54.81" width="3.69" height="0.28"/><polygon class="cls-1" points="144.12 54.97 140.76 56.9 140.76 57.1 144.12 55.16 144.12 54.97"/><polygon class="cls-1" points="144.12 56.97 140.76 55.03 140.76 55.23 144.12 57.16 144.12 56.97"/><rect class="cls-1" x="140.49" y="54.95" width="0.38" height="2.27"/><rect class="cls-1" x="143.92" y="54.81" width="0.27" height="2.51"/><rect class="cls-1" x="137.06" y="57.08" width="3.69" height="0.28"/><rect class="cls-1" x="137.06" y="54.81" width="3.69" height="0.28"/><polygon class="cls-1" points="140.69 54.97 137.32 56.9 137.32 57.1 140.69 55.16 140.69 54.97"/><polygon class="cls-1" points="140.69 56.97 137.32 55.03 137.32 55.23 140.69 57.16 140.69 56.97"/><rect class="cls-1" x="137.06" y="54.95" width="0.38" height="2.27"/><rect class="cls-1" x="140.49" y="54.81" width="0.27" height="2.51"/><rect class="cls-1" x="133.63" y="57.08" width="3.69" height="0.28"/><rect class="cls-1" x="133.63" y="54.81" width="3.69" height="0.28"/><polygon class="cls-1" points="137.26 54.97 133.89 56.9 133.89 57.1 137.26 55.16 137.26 54.97"/><polygon class="cls-1" points="137.26 56.97 133.89 55.03 133.89 55.23 137.26 57.16 137.26 56.97"/><rect class="cls-1" x="133.63" y="54.95" width="0.38" height="2.27"/><rect class="cls-1" x="137.06" y="54.81" width="0.27" height="2.51"/><rect class="cls-1" x="130.2" y="57.08" width="3.69" height="0.28"/><rect class="cls-1" x="130.2" y="54.81" width="3.69" height="0.28"/><polygon class="cls-1" points="133.83 54.97 130.46 56.9 130.46 57.1 133.83 55.16 133.83 54.97"/><polygon class="cls-1" points="133.83 56.97 130.46 55.03 130.46 55.23 133.83 57.16 133.83 56.97"/><rect class="cls-1" x="130.2" y="54.95" width="0.38" height="2.27"/><rect class="cls-1" x="133.63" y="54.81" width="0.27" height="2.51"/><rect class="cls-1" x="126.76" y="57.08" width="3.69" height="0.28"/><rect class="cls-1" x="126.76" y="54.81" width="3.69" height="0.28"/><polygon class="cls-1" points="130.39 54.97 127.03 56.9 127.03 57.1 130.39 55.16 130.39 54.97"/><polygon class="cls-1" points="130.39 56.97 127.03 55.03 127.03 55.23 130.39 57.16 130.39 56.97"/><rect class="cls-1" x="126.76" y="54.95" width="0.38" height="2.27"/><rect class="cls-1" x="130.19" y="54.81" width="0.27" height="2.51"/><rect class="cls-1" x="123.33" y="57.08" width="3.69" height="0.28"/><rect class="cls-1" x="123.33" y="54.81" width="3.69" height="0.28"/><polygon class="cls-1" points="126.96 54.97 123.59 56.9 123.59 57.1 126.96 55.16 126.96 54.97"/><polygon class="cls-1" points="126.96 56.97 123.59 55.03 123.59 55.23 126.96 57.16 126.96 56.97"/><rect class="cls-1" x="123.33" y="54.95" width="0.38" height="2.27"/><rect class="cls-1" x="126.76" y="54.81" width="0.27" height="2.51"/><rect class="cls-1" x="119.9" y="57.08" width="3.69" height="0.28"/><rect class="cls-1" x="119.9" y="54.81" width="3.69" height="0.28"/><polygon class="cls-1" points="123.53 54.97 120.16 56.9 120.16 57.1 123.53 55.16 123.53 54.97"/><polygon class="cls-1" points="123.53 56.97 120.16 55.03 120.16 55.23 123.53 57.16 123.53 56.97"/><rect class="cls-1" x="119.9" y="54.95" width="0.38" height="2.27"/><rect class="cls-1" x="123.33" y="54.81" width="0.27" height="2.51"/><rect class="cls-1" x="116.47" y="57.08" width="3.69" height="0.28"/><rect class="cls-1" x="116.47" y="54.81" width="3.69" height="0.28"/><polygon class="cls-1" points="120.1 54.97 116.73 56.9 116.73 57.1 120.1 55.16 120.1 54.97"/><polygon class="cls-1" points="120.1 56.97 116.73 55.03 116.73 55.23 120.1 57.16 120.1 56.97"/><rect class="cls-1" x="116.47" y="54.95" width="0.38" height="2.27"/><rect class="cls-1" x="119.9" y="54.81" width="0.27" height="2.51"/><rect class="cls-1" x="113.04" y="57.08" width="3.69" height="0.28"/><rect class="cls-1" x="113.04" y="54.81" width="3.69" height="0.28"/><polygon class="cls-1" points="116.67 54.97 113.3 56.9 113.3 57.1 116.67 55.16 116.67 54.97"/><polygon class="cls-1" points="116.67 56.97 113.3 55.03 113.3 55.23 116.67 57.16 116.67 56.97"/><rect class="cls-1" x="113.04" y="54.95" width="0.38" height="2.27"/><rect class="cls-1" x="116.46" y="54.81" width="0.27" height="2.51"/><rect class="cls-1" x="109.6" y="57.08" width="3.69" height="0.28"/><rect class="cls-1" x="109.6" y="54.81" width="3.69" height="0.28"/><polygon class="cls-1" points="113.23 54.97 109.87 56.9 109.87 57.1 113.23 55.16 113.23 54.97"/><polygon class="cls-1" points="113.23 56.97 109.87 55.03 109.87 55.23 113.23 57.16 113.23 56.97"/><rect class="cls-1" x="109.6" y="54.95" width="0.38" height="2.27"/><rect class="cls-1" x="113.03" y="54.81" width="0.27" height="2.51"/><rect class="cls-1" x="106.17" y="57.08" width="3.69" height="0.28"/><rect class="cls-1" x="106.17" y="54.81" width="3.69" height="0.28"/><polygon class="cls-1" points="109.8 54.97 106.44 56.9 106.44 57.1 109.8 55.16 109.8 54.97"/><polygon class="cls-1" points="109.8 56.97 106.44 55.03 106.44 55.23 109.8 57.16 109.8 56.97"/><rect class="cls-1" x="106.17" y="54.95" width="0.38" height="2.27"/><rect class="cls-1" x="109.6" y="54.81" width="0.27" height="2.51"/><rect class="cls-1" x="102.74" y="57.08" width="3.69" height="0.28"/><rect class="cls-1" x="102.74" y="54.81" width="3.69" height="0.28"/><polygon class="cls-1" points="106.37 54.97 103 56.9 103 57.1 106.37 55.16 106.37 54.97"/><polygon class="cls-1" points="106.37 56.97 103 55.03 103 55.23 106.37 57.16 106.37 56.97"/><rect class="cls-1" x="102.74" y="54.95" width="0.38" height="2.27"/><rect class="cls-1" x="106.17" y="54.81" width="0.27" height="2.51"/><rect class="cls-1" x="99.31" y="57.08" width="3.69" height="0.28"/><rect class="cls-1" x="99.31" y="54.81" width="3.69" height="0.28"/><polygon class="cls-1" points="102.94 54.97 99.57 56.9 99.57 57.1 102.94 55.16 102.94 54.97"/><polygon class="cls-1" points="102.94 56.97 99.57 55.03 99.57 55.23 102.94 57.16 102.94 56.97"/><rect class="cls-1" x="99.31" y="54.95" width="0.38" height="2.27"/><rect class="cls-1" x="102.74" y="54.81" width="0.27" height="2.51"/><rect class="cls-1" x="95.88" y="57.08" width="3.69" height="0.28"/><rect class="cls-1" x="95.88" y="54.81" width="3.69" height="0.28"/><polygon class="cls-1" points="99.51 54.97 96.14 56.9 96.14 57.1 99.51 55.16 99.51 54.97"/><polygon class="cls-1" points="99.51 56.97 96.14 55.03 96.14 55.23 99.51 57.16 99.51 56.97"/><rect class="cls-1" x="95.88" y="54.95" width="0.38" height="2.27"/><rect class="cls-1" x="99.3" y="54.81" width="0.27" height="2.51"/><rect class="cls-1" x="92.44" y="57.08" width="3.69" height="0.28"/><rect class="cls-1" x="92.44" y="54.81" width="3.69" height="0.28"/><polygon class="cls-1" points="96.07 54.97 92.71 56.9 92.71 57.1 96.07 55.16 96.07 54.97"/><polygon class="cls-1" points="96.07 56.97 92.71 55.03 92.71 55.23 96.07 57.16 96.07 56.97"/><rect class="cls-1" x="92.44" y="54.95" width="0.38" height="2.27"/><rect class="cls-1" x="95.87" y="54.81" width="0.27" height="2.51"/><rect class="cls-1" x="89.01" y="57.08" width="3.69" height="0.28"/><rect class="cls-1" x="89.01" y="54.81" width="3.69" height="0.28"/><polygon class="cls-1" points="92.64 54.97 89.27 56.9 89.27 57.1 92.64 55.16 92.64 54.97"/><polygon class="cls-1" points="92.64 56.97 89.27 55.03 89.27 55.23 92.64 57.16 92.64 56.97"/><rect class="cls-1" x="89.01" y="54.95" width="0.38" height="2.27"/><rect class="cls-1" x="92.44" y="54.81" width="0.27" height="2.51"/><rect class="cls-1" x="85.58" y="57.08" width="3.69" height="0.28"/><rect class="cls-1" x="85.58" y="54.81" width="3.69" height="0.28"/><polygon class="cls-1" points="89.21 54.97 85.84 56.9 85.84 57.1 89.21 55.16 89.21 54.97"/><polygon class="cls-1" points="89.21 56.97 85.84 55.03 85.84 55.23 89.21 57.16 89.21 56.97"/><rect class="cls-1" x="85.58" y="54.95" width="0.38" height="2.27"/><rect class="cls-1" x="89.01" y="54.81" width="0.27" height="2.51"/><rect class="cls-1" x="82.15" y="57.08" width="3.69" height="0.28"/><rect class="cls-1" x="82.15" y="54.81" width="3.69" height="0.28"/><polygon class="cls-1" points="85.78 54.97 82.41 56.9 82.41 57.1 85.78 55.16 85.78 54.97"/><polygon class="cls-1" points="85.78 56.97 82.41 55.03 82.41 55.23 85.78 57.16 85.78 56.97"/><rect class="cls-1" x="82.15" y="54.95" width="0.38" height="2.27"/><rect class="cls-1" x="85.58" y="54.81" width="0.27" height="2.51"/><rect class="cls-1" x="78.72" y="57.08" width="3.69" height="0.28"/><rect class="cls-1" x="78.72" y="54.81" width="3.69" height="0.28"/><polygon class="cls-1" points="82.34 54.97 78.98 56.9 78.98 57.1 82.34 55.16 82.34 54.97"/><polygon class="cls-1" points="82.34 56.97 78.98 55.03 78.98 55.23 82.34 57.16 82.34 56.97"/><rect class="cls-1" x="78.72" y="54.95" width="0.38" height="2.27"/><rect class="cls-1" x="82.14" y="54.81" width="0.27" height="2.51"/><rect class="cls-1" x="75.28" y="57.08" width="3.69" height="0.28"/><rect class="cls-1" x="75.28" y="54.81" width="3.69" height="0.28"/><polygon class="cls-1" points="78.91 54.97 75.55 56.9 75.55 57.1 78.91 55.16 78.91 54.97"/><polygon class="cls-1" points="78.91 56.97 75.55 55.03 75.55 55.23 78.91 57.16 78.91 56.97"/><rect class="cls-1" x="75.28" y="54.95" width="0.38" height="2.27"/><rect class="cls-1" x="78.71" y="54.81" width="0.27" height="2.51"/><rect class="cls-1" x="71.85" y="57.08" width="3.69" height="0.28"/><rect class="cls-1" x="71.85" y="54.81" width="3.69" height="0.28"/><polygon class="cls-1" points="75.48 54.97 72.11 56.9 72.11 57.1 75.48 55.16 75.48 54.97"/><polygon class="cls-1" points="75.48 56.97 72.11 55.03 72.11 55.23 75.48 57.16 75.48 56.97"/><rect class="cls-1" x="71.85" y="54.95" width="0.38" height="2.27"/><rect class="cls-1" x="75.28" y="54.81" width="0.27" height="2.51"/><rect class="cls-1" x="68.42" y="57.08" width="3.69" height="0.28"/><rect class="cls-1" x="68.42" y="54.81" width="3.69" height="0.28"/><polygon class="cls-1" points="72.05 54.97 68.68 56.9 68.68 57.1 72.05 55.16 72.05 54.97"/><polygon class="cls-1" points="72.05 56.97 68.68 55.03 68.68 55.23 72.05 57.16 72.05 56.97"/><rect class="cls-1" x="68.42" y="54.95" width="0.38" height="2.27"/><rect class="cls-1" x="71.85" y="54.81" width="0.27" height="2.51"/><rect class="cls-1" x="64.99" y="57.08" width="3.69" height="0.28"/><rect class="cls-1" x="64.99" y="54.81" width="3.69" height="0.28"/><polygon class="cls-1" points="68.62 54.97 65.25 56.9 65.25 57.1 68.62 55.16 68.62 54.97"/><polygon class="cls-1" points="68.62 56.97 65.25 55.03 65.25 55.23 68.62 57.16 68.62 56.97"/><rect class="cls-1" x="64.99" y="54.95" width="0.38" height="2.27"/><rect class="cls-1" x="68.42" y="54.81" width="0.27" height="2.51"/><rect class="cls-1" x="61.55" y="57.08" width="3.69" height="0.28"/><rect class="cls-1" x="61.55" y="54.81" width="3.69" height="0.28"/><polygon class="cls-1" points="65.19 54.97 61.82 56.9 61.82 57.1 65.19 55.16 65.19 54.97"/><polygon class="cls-1" points="65.19 56.97 61.82 55.03 61.82 55.23 65.19 57.16 65.19 56.97"/><rect class="cls-1" x="61.55" y="54.95" width="0.38" height="2.27"/><rect class="cls-1" x="64.98" y="54.81" width="0.27" height="2.51"/><rect class="cls-1" x="58.12" y="57.08" width="3.69" height="0.28"/><rect class="cls-1" x="58.12" y="54.81" width="3.69" height="0.28"/><polygon class="cls-1" points="61.75 54.97 58.39 56.9 58.39 57.1 61.75 55.16 61.75 54.97"/><polygon class="cls-1" points="61.75 56.97 58.39 55.03 58.39 55.23 61.75 57.16 61.75 56.97"/><rect class="cls-1" x="58.12" y="54.95" width="0.38" height="2.27"/><rect class="cls-1" x="61.55" y="54.81" width="0.27" height="2.51"/><rect class="cls-1" x="54.69" y="57.08" width="3.69" height="0.28"/><rect class="cls-1" x="54.69" y="54.81" width="3.69" height="0.28"/><polygon class="cls-1" points="58.32 54.97 54.95 56.9 54.95 57.1 58.32 55.16 58.32 54.97"/><polygon class="cls-1" points="58.32 56.97 54.95 55.03 54.95 55.23 58.32 57.16 58.32 56.97"/><rect class="cls-1" x="54.69" y="54.95" width="0.38" height="2.27"/><rect class="cls-1" x="58.12" y="54.81" width="0.27" height="2.51"/><rect class="cls-1" x="51.26" y="57.08" width="3.69" height="0.28"/><rect class="cls-1" x="51.26" y="54.81" width="3.69" height="0.28"/><polygon class="cls-1" points="54.89 54.97 51.52 56.9 51.52 57.1 54.89 55.16 54.89 54.97"/><polygon class="cls-1" points="54.89 56.97 51.52 55.03 51.52 55.23 54.89 57.16 54.89 56.97"/><rect class="cls-1" x="51.26" y="54.95" width="0.38" height="2.27"/><rect class="cls-1" x="54.69" y="54.81" width="0.27" height="2.51"/><rect class="cls-1" x="47.83" y="57.08" width="3.69" height="0.28"/><rect class="cls-1" x="47.83" y="54.81" width="3.69" height="0.28"/><polygon class="cls-1" points="51.46 54.97 48.09 56.9 48.09 57.1 51.46 55.16 51.46 54.97"/><polygon class="cls-1" points="51.46 56.97 48.09 55.03 48.09 55.23 51.46 57.16 51.46 56.97"/><rect class="cls-1" x="47.83" y="54.95" width="0.38" height="2.27"/><rect class="cls-1" x="51.25" y="54.81" width="0.27" height="2.51"/><rect class="cls-1" x="44.39" y="57.08" width="3.69" height="0.28"/><rect class="cls-1" x="44.39" y="54.81" width="3.69" height="0.28"/><polygon class="cls-1" points="48.02 54.97 44.66 56.9 44.66 57.1 48.02 55.16 48.02 54.97"/><polygon class="cls-1" points="48.02 56.97 44.66 55.03 44.66 55.23 48.02 57.16 48.02 56.97"/><rect class="cls-1" x="44.39" y="54.95" width="0.38" height="2.27"/><rect class="cls-1" x="47.82" y="54.81" width="0.27" height="2.51"/><rect class="cls-1" x="40.96" y="57.08" width="3.69" height="0.28"/><rect class="cls-1" x="40.96" y="54.81" width="3.69" height="0.28"/><polygon class="cls-1" points="44.59 54.97 41.23 56.9 41.23 57.1 44.59 55.16 44.59 54.97"/><polygon class="cls-1" points="44.59 56.97 41.23 55.03 41.23 55.23 44.59 57.16 44.59 56.97"/><rect class="cls-1" x="40.96" y="54.95" width="0.38" height="2.27"/><rect class="cls-1" x="44.39" y="54.81" width="0.27" height="2.51"/><rect class="cls-1" x="37.53" y="57.08" width="3.69" height="0.28"/><rect class="cls-1" x="37.53" y="54.81" width="3.69" height="0.28"/><polygon class="cls-1" points="41.16 54.97 37.79 56.9 37.79 57.1 41.16 55.16 41.16 54.97"/><polygon class="cls-1" points="41.16 56.97 37.79 55.03 37.79 55.23 41.16 57.16 41.16 56.97"/><rect class="cls-1" x="37.53" y="54.95" width="0.38" height="2.27"/><rect class="cls-1" x="40.96" y="54.81" width="0.27" height="2.51"/><rect class="cls-1" x="34.1" y="57.08" width="3.69" height="0.28"/><rect class="cls-1" x="34.1" y="54.81" width="3.69" height="0.28"/><polygon class="cls-1" points="37.73 54.97 34.36 56.9 34.36 57.1 37.73 55.16 37.73 54.97"/><polygon class="cls-1" points="37.73 56.97 34.36 55.03 34.36 55.23 37.73 57.16 37.73 56.97"/><rect class="cls-1" x="34.1" y="54.95" width="0.38" height="2.27"/><rect class="cls-1" x="37.53" y="54.81" width="0.27" height="2.51"/><rect class="cls-1" x="30.67" y="57.08" width="3.69" height="0.28"/><rect class="cls-1" x="30.67" y="54.81" width="3.69" height="0.28"/><polygon class="cls-1" points="34.3 54.97 30.93 56.9 30.93 57.1 34.3 55.16 34.3 54.97"/><polygon class="cls-1" points="34.3 56.97 30.93 55.03 30.93 55.23 34.3 57.16 34.3 56.97"/><rect class="cls-1" x="30.67" y="54.95" width="0.38" height="2.27"/><rect class="cls-1" x="34.09" y="54.81" width="0.27" height="2.51"/><rect class="cls-1" x="27.23" y="57.08" width="3.69" height="0.28"/><rect class="cls-1" x="27.23" y="54.81" width="3.69" height="0.28"/><polygon class="cls-1" points="30.86 54.97 27.5 56.9 27.5 57.1 30.86 55.16 30.86 54.97"/><polygon class="cls-1" points="30.86 56.97 27.5 55.03 27.5 55.23 30.86 57.16 30.86 56.97"/><rect class="cls-1" x="27.23" y="54.95" width="0.38" height="2.27"/><rect class="cls-1" x="30.66" y="54.81" width="0.27" height="2.51"/><rect class="cls-1" x="23.8" y="57.08" width="3.69" height="0.28"/><rect class="cls-1" x="23.8" y="54.81" width="3.69" height="0.28"/><polygon class="cls-1" points="27.43 54.97 24.07 56.9 24.07 57.1 27.43 55.16 27.43 54.97"/><polygon class="cls-1" points="27.43 56.97 24.07 55.03 24.07 55.23 27.43 57.16 27.43 56.97"/><rect class="cls-1" x="23.8" y="54.95" width="0.38" height="2.27"/><rect class="cls-1" x="27.23" y="54.81" width="0.27" height="2.51"/><rect class="cls-1" x="20.37" y="57.08" width="3.69" height="0.28"/><rect class="cls-1" x="20.37" y="54.81" width="3.69" height="0.28"/><polygon class="cls-1" points="24 54.97 20.63 56.9 20.63 57.1 24 55.16 24 54.97"/><polygon class="cls-1" points="24 56.97 20.63 55.03 20.63 55.23 24 57.16 24 56.97"/><rect class="cls-1" x="20.37" y="54.95" width="0.38" height="2.27"/><rect class="cls-1" x="23.8" y="54.81" width="0.27" height="2.51"/><rect class="cls-1" x="16.94" y="57.08" width="3.69" height="0.28"/><rect class="cls-1" x="16.94" y="54.81" width="3.69" height="0.28"/><polygon class="cls-1" points="20.57 54.97 17.2 56.9 17.2 57.1 20.57 55.16 20.57 54.97"/><polygon class="cls-1" points="20.57 56.97 17.2 55.03 17.2 55.23 20.57 57.16 20.57 56.97"/><rect class="cls-1" x="16.94" y="54.95" width="0.38" height="2.27"/><rect class="cls-1" x="20.37" y="54.81" width="0.27" height="2.51"/><rect class="cls-1" x="13.51" y="57.08" width="3.69" height="0.28"/><rect class="cls-1" x="13.51" y="54.81" width="3.69" height="0.28"/><polygon class="cls-1" points="17.14 54.97 13.77 56.9 13.77 57.1 17.14 55.16 17.14 54.97"/><polygon class="cls-1" points="17.14 56.97 13.77 55.03 13.77 55.23 17.14 57.16 17.14 56.97"/><rect class="cls-1" x="13.51" y="54.95" width="0.38" height="2.27"/><rect class="cls-1" x="16.93" y="54.81" width="0.27" height="2.51"/><rect class="cls-2" x="155.99" y="37.49" width="6.81" height="0.67"/><polygon class="cls-2" points="155.64 40.46 155 54.61 163.8 54.61 163.16 40.46 155.64 40.46"/><polygon class="cls-2" points="165.94 67.58 152.86 67.58 154.05 54.61 164.75 54.61 165.94 67.58"/><polygon class="cls-3" points="164.98 57.1 164.75 54.61 154.05 54.61 153.82 57.1 164.98 57.1"/><rect class="cls-4" x="155" y="39.81" width="8.8" height="0.89"/><rect class="cls-4" x="154.68" y="49.51" width="9.43" height="0.89"/><polygon class="cls-3" points="162.86 39.81 155.93 39.81 155.42 38.16 163.38 38.16 162.86 39.81"/><polygon class="cls-1" points="156.9 37.49 156.19 37.49 158.06 10.43 158.36 10.43 156.9 37.49"/><polygon class="cls-1" points="162.61 37.49 161.9 37.49 160.44 10.43 160.74 10.43 162.61 37.49"/><polygon class="cls-1" points="160.97 17.34 157.83 17.34 157.88 16.71 160.92 16.71 160.97 17.34"/><polygon class="cls-1" points="160.61 10.81 158.18 10.81 158.21 10.43 160.59 10.43 160.61 10.81"/><polygon class="cls-1" points="160.85 16.93 158.17 11.01 158.19 10.69 160.98 16.71 160.85 16.93"/><polygon class="cls-1" points="158.01 16.93 160.68 11.01 160.65 10.69 157.88 16.71 158.01 16.93"/><polygon class="cls-1" points="161.36 24.94 158.29 17.09 158.02 17.09 161.02 24.94 161.36 24.94"/><polygon class="cls-1" points="157.86 24.94 160.84 17.09 160.57 17.09 157.52 24.94 157.86 24.94"/><polygon class="cls-1" points="162.19 37.17 157.96 25.29 157.6 25.29 161.7 37.17 162.19 37.17"/><polygon class="cls-1" points="157.21 37.17 161.28 25.29 160.92 25.29 156.72 37.17 157.21 37.17"/><polygon class="cls-1" points="161.44 25.59 157.36 25.59 157.44 24.54 161.36 24.54 161.44 25.59"/><polygon class="cls-1" points="162.61 37.49 156.31 37.49 156.4 36.19 162.51 36.19 162.61 37.49"/><rect class="cls-2" x="5.5" y="37.49" width="6.81" height="0.67"/><polygon class="cls-2" points="5.15 40.46 4.51 54.61 13.31 54.61 12.67 40.46 5.15 40.46"/><polygon class="cls-2" points="15.45 67.58 2.37 67.58 3.56 54.61 14.26 54.61 15.45 67.58"/><polygon class="cls-3" points="14.49 57.1 14.26 54.61 3.56 54.61 3.33 57.1 14.49 57.1"/><rect class="cls-4" x="4.51" y="39.81" width="8.8" height="0.89"/><rect class="cls-4" x="4.2" y="49.51" width="9.43" height="0.89"/><polygon class="cls-3" points="12.37 39.81 5.45 39.81 4.93 38.16 12.89 38.16 12.37 39.81"/><polygon class="cls-1" points="6.41 37.49 5.7 37.49 7.57 10.43 7.87 10.43 6.41 37.49"/><polygon class="cls-1" points="12.12 37.49 11.41 37.49 9.95 10.43 10.25 10.43 12.12 37.49"/><polygon class="cls-1" points="10.48 17.34 7.34 17.34 7.39 16.71 10.43 16.71 10.48 17.34"/><polygon class="cls-1" points="10.13 10.81 7.69 10.81 7.72 10.43 10.1 10.43 10.13 10.81"/><polygon class="cls-1" points="10.36 16.93 7.68 11.01 7.7 10.69 10.49 16.71 10.36 16.93"/><polygon class="cls-1" points="7.52 16.93 10.19 11.01 10.16 10.69 7.39 16.71 7.52 16.93"/><polygon class="cls-1" points="10.87 24.94 7.8 17.09 7.53 17.09 10.53 24.94 10.87 24.94"/><polygon class="cls-1" points="7.37 24.94 10.35 17.09 10.08 17.09 7.03 24.94 7.37 24.94"/><polygon class="cls-1" points="11.7 37.17 7.47 25.29 7.11 25.29 11.21 37.17 11.7 37.17"/><polygon class="cls-1" points="6.72 37.17 10.79 25.29 10.43 25.29 6.23 37.17 6.72 37.17"/><polygon class="cls-1" points="10.95 25.59 6.87 25.59 6.95 24.54 10.87 24.54 10.95 25.59"/><polygon class="cls-1" points="12.12 37.49 5.82 37.49 5.91 36.19 12.02 36.19 12.12 37.49"/><polygon class="cls-1" points="87.85 11.09 80.28 21.68 80.28 22.81 88.02 11.94 88.02 11.09 87.85 11.09"/><polygon class="cls-1" points="88.02 22.9 88.02 22.06 80.28 11.18 80.28 12.31 87.84 22.9 88.02 22.9"/><rect class="cls-1" x="79.59" y="10.93" width="0.69" height="12.06"/><rect class="cls-1" x="88.02" y="10.93" width="0.69" height="12.06"/></g></g></svg>