<svg width="223" height="126" viewBox="0 0 223 126" fill="none" xmlns="http://www.w3.org/2000/svg">
<path d="M64.5203 13.9947L59.1656 16.357L59.2444 19.3494L54.2834 24.3103L56.4095 28.1689L58.8506 28.4839L59.6381 35.8072L58.3782 36.6734C58.2994 36.6734 58.0632 36.8309 57.9845 36.9097C57.827 36.9884 57.7482 37.0672 57.5907 37.2246C57.197 37.4609 56.6458 37.5396 56.252 37.6184C56.0158 37.6971 55.7796 37.7759 55.4646 37.8546C55.3071 37.9333 55.0709 38.0121 54.9134 38.1696C54.7559 38.3271 54.5196 38.3271 54.3621 38.4846C54.1259 38.6421 53.9684 38.7208 53.8109 38.8783C53.496 39.0358 53.181 39.1933 52.866 39.272C52.6298 39.3508 52.3935 39.4295 52.1573 39.587C51.7635 39.8233 51.2911 40.1382 50.8973 40.4532C50.5824 40.7682 50.3461 41.0832 50.0311 41.3194C49.7161 41.4769 49.5586 41.7131 49.2437 41.8706C49.0074 42.0281 48.6925 42.2644 48.3775 42.2644C48.22 42.2644 48.0625 42.2644 47.9837 42.1856C47.905 42.1856 47.8263 42.1069 47.7475 42.1069H47.6687C47.5113 42.0281 47.4325 41.9494 47.275 41.8706H46.8026C46.5663 41.8706 46.3301 41.7919 46.1726 41.7131C45.8576 41.6344 45.5426 41.6344 45.2276 41.6344C44.9914 41.6344 44.7552 41.6344 44.5977 41.6344C44.204 41.6344 43.8102 41.4769 43.4165 41.3982C43.1015 41.3194 42.8653 41.2407 42.5503 41.3194C42.1565 41.3194 41.8416 41.3194 41.5266 41.4769C41.1329 41.6344 40.8179 41.8706 40.5029 42.1069C40.1879 42.2644 39.873 42.1856 39.6367 42.4219C39.3217 42.6581 39.0855 42.8943 38.7705 43.1306C38.4555 43.3668 37.983 43.4456 37.5893 43.6031C37.1956 43.7605 36.8018 43.7605 36.4081 43.918C36.2506 43.918 36.0144 43.918 35.9357 43.918C35.6994 43.918 35.5419 43.9968 35.3057 43.9968C34.7545 44.0755 34.1245 43.9968 33.5733 44.0755C33.0221 44.1543 32.6284 44.3905 32.1559 44.6267C31.6047 44.9417 31.0534 45.178 30.5022 45.4929C30.0297 45.8079 29.7148 46.1229 29.636 46.6741C29.5573 47.1466 29.636 47.6191 29.7147 48.0915C29.7147 48.4853 29.636 48.879 29.3998 49.194C29.2423 49.5877 29.0848 49.9027 29.006 50.2964C28.9273 50.6114 28.9273 50.8476 28.691 51.1626C28.4548 51.4776 28.2186 51.7926 28.1398 52.1863C28.0611 52.5801 28.1398 52.895 28.2973 53.21C28.4548 53.525 28.6123 53.84 28.691 54.2337C28.7698 54.6275 28.6123 54.8637 28.2973 55.0999C27.9823 55.4149 27.6673 55.5724 27.3524 55.8086C27.0374 55.9661 26.8011 56.2811 26.5649 56.5961C26.4074 56.9111 26.1712 57.1473 25.6987 57.1473C25.2262 57.1473 24.675 56.9898 24.2025 56.8323C23.6513 56.5961 23.1788 56.2024 22.7064 55.8086C22.1551 55.4149 21.6039 55.0212 20.974 54.8637C20.8165 54.7849 20.5802 54.7062 20.4227 54.6275C20.2653 54.5487 20.1078 54.3912 19.9503 54.3125C19.5565 54.155 19.1628 54.155 18.7691 54.155C18.6116 54.155 18.3754 54.2337 18.1391 54.2337C17.9816 54.2337 17.7454 54.2337 17.5879 54.3125C17.2729 54.3912 17.0367 54.3912 16.8004 54.5487C16.5642 54.6275 16.328 54.7062 16.0917 54.7062C15.9342 54.7062 15.8555 54.7062 15.7768 54.7849C15.6193 54.8637 15.5405 54.9424 15.383 55.0212C15.2255 55.0999 14.9893 55.0999 14.8318 55.1787C14.6743 55.2574 14.5168 55.3362 14.3593 55.4149C14.2018 55.4937 13.9656 55.5724 13.8081 55.7299C13.6506 55.8874 13.4931 56.0449 13.3356 56.2024C13.0207 56.5961 12.7844 57.0686 12.3907 57.3836C12.2332 57.541 12.0757 57.6985 11.9182 57.856C11.8395 57.9348 11.7607 58.0135 11.6032 58.0135C11.5245 58.0135 11.4457 58.0135 11.367 58.0135C11.1308 58.0135 10.8158 58.0923 10.6583 58.0135C10.5795 58.0135 10.5008 57.9348 10.422 57.856C10.3433 57.7773 10.3433 57.7773 10.2646 57.6985C10.1071 57.6198 9.94957 57.3836 9.79208 57.3048C9.63458 57.2261 9.47709 57.1473 9.3196 56.9898C9.00461 56.6748 8.76839 56.9898 8.68964 57.3836C8.68964 57.541 8.68963 57.7773 8.53214 57.9348C8.53214 58.0135 8.37466 58.0923 8.37466 58.171C8.21717 58.3285 7.98092 58.3285 7.74468 58.3285C7.4297 58.3285 7.19346 58.3285 6.87848 58.3285C6.64224 58.3285 6.32726 58.2497 6.09102 58.2497C5.93353 58.2497 5.6973 58.171 5.53981 58.0923C5.46107 58.0923 5.30356 58.0923 5.30356 58.0135C5.14607 57.2261 4.98858 56.6748 4.98858 56.6748C4.90984 56.2024 4.75236 55.6511 4.83111 55.0999C4.83111 54.9424 4.90984 54.7062 4.98858 54.5487C5.06733 54.3912 5.14609 54.3125 5.22483 54.155C5.38233 53.6825 5.14607 53.21 4.90983 52.7375C4.83109 52.58 4.75235 52.2651 4.59485 52.1076C4.51611 51.9501 4.27987 51.7926 4.12238 51.6351C3.96488 51.5564 3.8074 51.3201 3.8074 51.0839C3.8074 50.8477 3.96488 50.6902 4.12238 50.6114C4.59485 50.3752 5.06734 50.0602 5.61856 50.0602C6.32727 50.0602 6.95724 50.2964 7.58721 50.2177C8.21717 50.2177 8.68965 49.7452 9.16212 49.4302C9.71334 49.1153 10.2645 49.0365 10.8158 48.8003C11.1307 48.6428 11.367 48.4065 11.7607 48.249C11.052 48.249 10.3433 48.2491 9.63458 48.3278C8.68963 48.4065 7.74468 48.564 6.87848 48.8003C6.24851 49.0365 5.6973 49.3515 5.14608 49.6665C4.75236 49.824 4.43736 49.9027 4.12238 49.6665C3.72865 49.3515 3.49242 49.0365 3.17744 48.7215C2.78371 48.2491 2.38997 47.7766 2.15373 47.2253C1.9175 46.6741 1.83875 46.0442 1.76 45.4142C1.68126 44.863 1.60251 44.3905 1.36628 43.918C1.05129 43.2881 0.578823 42.8156 0.26384 42.1856C0.106349 41.7919 0.185095 41.3982 0.26384 41.0044C0.342586 40.6107 0.657578 40.3745 0.81507 40.0595C0.893816 39.902 0.972552 39.6658 1.0513 39.4295C1.13004 39.1145 1.36629 38.7996 1.28755 38.4846C1.28755 38.1696 1.05131 37.9334 0.89382 37.6184C0.815075 37.3034 0.736315 37.0672 0.657569 36.7522C0.500077 36.2009 0.500092 35.4922 0.500092 34.941C0.500092 34.626 0.500073 34.3111 0.578818 33.9961C0.657564 33.8386 0.736324 33.6811 0.81507 33.5236C0.893816 33.3661 0.893801 33.2086 0.972547 32.9724C1.13004 32.5787 1.44503 32.4212 1.83875 32.1849C2.23248 32.0274 2.54746 31.8699 2.94119 31.6337C3.6499 31.24 4.27987 30.7675 4.5161 29.9013C4.75234 29.1138 5.22483 28.1689 6.01229 27.7752C6.32727 27.6177 6.64224 27.6177 6.95723 27.5389C7.19346 27.4602 7.4297 27.3814 7.66593 27.3814C7.82342 27.3814 7.98092 27.3814 8.13841 27.3027C8.45339 27.2239 8.6109 26.909 8.76839 26.594C8.92588 26.279 9.08336 26.1215 9.24085 25.8065C9.47708 25.5703 9.71332 25.2553 10.0283 25.0191C10.422 24.7828 10.8945 24.7041 11.2095 24.3891C11.367 24.3103 11.4457 24.1529 11.5245 24.0741C11.682 23.9166 11.9182 23.7591 11.9969 23.6016C12.1544 23.4441 12.3119 23.2079 12.3907 22.9717C12.3907 22.9717 12.9419 22.263 13.1781 20.9243C13.4144 19.5069 13.3356 18.2469 14.9893 17.7744C16.643 17.3807 19.8715 17.2232 20.2652 15.0971C20.659 13.0497 20.7377 11.1598 22.1552 11.3173C23.4938 11.396 25.1475 11.7898 26.8012 10.6086C28.5336 9.42741 31.6834 7.22252 32.6283 7.38001C33.5733 7.53751 36.0144 9.11243 38.2193 8.48246C40.4241 7.93124 42.7865 7.38002 43.7315 7.22253C44.6764 7.06503 45.5426 6.90755 46.0938 6.27758C46.5663 5.56887 46.6451 4.62392 48.1412 3.75772C49.6374 2.81277 56.6458 -1.36076 56.6458 0.450389C56.6458 2.26154 55.9371 6.75005 56.6458 7.14378C57.3545 7.5375 57.9844 8.16747 58.8506 7.61625C59.7168 7.06503 60.8193 5.96259 61.4492 6.35632C62.0005 6.75005 64.2841 9.03368 64.2841 9.03368V13.9947H64.5203Z" fill="#248CF9"/>
<path d="M90.5851 64.4707C90.5851 64.8644 90.3489 65.2582 90.1126 65.6519C90.0339 65.8094 89.9551 65.9669 89.7976 66.0456C89.6401 66.1244 89.4826 66.2819 89.4039 66.4394C89.3251 66.4394 89.3252 66.5181 89.2464 66.5181C89.2464 66.5181 89.1677 66.5968 89.1677 66.6756C88.8527 66.9906 88.6952 67.463 88.3015 67.6993C88.144 67.8568 87.9078 67.9355 87.6715 68.0143C87.514 68.093 87.2778 68.3293 87.1203 68.408C86.9628 68.4867 86.7266 68.6442 86.5691 68.8017C86.2541 68.9592 86.0178 69.1954 85.7816 69.3529C85.7029 69.4317 85.6241 69.5104 85.4666 69.6679C85.3879 69.7467 85.3091 69.7467 85.1516 69.8254C84.8367 69.9829 84.5217 70.2192 84.2067 70.3766C83.8917 70.5341 83.6555 70.7704 83.3405 70.9279C83.2618 71.0066 83.1043 71.0854 83.0255 71.1641C82.4743 71.4791 82.238 71.9515 81.8443 72.424C81.6081 72.6603 81.4506 72.9752 81.2931 73.2115C81.1356 73.4477 80.9781 73.6839 80.8994 73.9989C80.8206 74.3139 80.8206 74.5501 80.7419 74.7864C80.7419 74.8651 80.6631 75.0226 80.6631 75.1801C80.6631 75.2589 80.5844 75.3376 80.5844 75.4951C80.5057 75.7314 80.4269 75.9676 80.3481 76.2038C80.3481 76.2826 80.2694 76.4401 80.1907 76.5188C80.0332 76.755 79.7969 76.9913 79.5607 77.2275C79.4032 77.385 79.2457 77.4637 79.1669 77.6212C79.0882 77.8575 79.0095 78.0937 78.7732 78.2512C78.6157 78.4087 78.6158 78.6449 78.4583 78.7237C78.3795 78.8024 78.222 78.8812 78.1433 79.0387C78.0645 79.1962 77.9858 79.3537 77.907 79.4324C77.7495 79.6686 77.5921 79.9836 77.4346 80.2986C77.2771 80.5348 77.0408 80.7711 76.8046 80.9286C76.5683 81.0861 76.3321 81.2435 76.1746 81.4798C76.0959 81.6373 75.9384 81.9523 75.9384 82.1885V83.0547C75.9384 83.3697 75.9384 83.6059 75.9384 83.8421C75.9384 84.4721 75.9384 85.1808 75.7809 85.8108C75.6234 85.732 75.3872 85.8108 75.3084 86.047C74.836 86.8345 74.206 87.3857 73.4973 88.0157C73.3398 88.1732 73.1035 88.4094 72.8673 88.4882C72.7098 88.6457 72.4736 88.7244 72.3161 88.8819C71.9224 89.2756 71.5286 89.7481 71.1349 90.2206C71.0562 90.378 70.8987 90.5355 70.6624 90.5355C70.4262 90.6143 70.2687 90.378 70.1112 90.2206C69.7962 89.9843 69.4813 89.8268 69.1663 89.5906C68.4576 89.1181 67.9851 88.5669 67.3551 88.0157C66.8826 87.622 66.4889 86.8345 65.7014 86.7557C64.9927 86.677 64.284 86.7557 63.5753 86.677C63.1816 86.5982 63.0241 86.5983 62.7091 86.362C62.4729 86.1258 62.2366 85.9683 62.0004 85.7321C61.9216 85.5746 61.7642 85.4171 61.6067 85.2596C61.4492 85.1021 61.2917 85.0233 61.1342 84.8659C60.9767 84.7084 60.8192 84.4721 60.6617 84.3934C60.5042 84.2359 60.268 84.0784 60.1105 83.9209C59.7955 83.6059 59.5593 83.2122 59.2443 82.976C58.9293 82.7397 58.6931 82.5035 58.4568 82.346C58.1418 82.1097 57.9056 81.716 57.5119 81.4798C57.1969 81.2435 56.8819 81.0073 56.4882 80.8498C56.3307 80.7711 56.1732 80.8498 56.0157 80.8498C55.8582 80.8498 55.622 80.8498 55.4645 80.8498C55.0708 80.8498 54.7558 80.9286 54.362 81.086C54.1258 81.2435 53.8108 81.401 53.5746 81.5585C53.2596 81.7948 53.0234 82.1097 52.7871 82.4247C52.5509 82.7397 52.3147 83.0547 52.0784 83.2909C51.7635 83.6059 51.4485 83.9209 51.2122 84.2359C51.0547 84.4721 50.976 84.7084 50.7398 84.9446C50.5035 85.1808 50.1885 85.3383 49.7948 85.3383C49.3223 85.4171 48.8498 85.6533 48.4561 85.5746C47.9836 85.4958 47.5899 85.732 47.1962 85.8108C46.8812 85.8895 46.645 85.8895 46.33 85.8895C46.0938 85.8895 45.8575 85.9683 45.5426 85.9683C44.9913 85.9683 44.4401 85.8108 43.8889 85.6533C43.4951 85.5746 43.1014 85.5746 42.7077 85.3383C42.2352 85.1808 41.8415 84.9446 41.5265 84.6296C41.2903 84.4721 41.0541 84.3146 40.8178 84.1571C40.5028 83.9997 40.2666 83.9996 39.8729 83.9996C39.3216 83.9996 38.7704 83.9997 38.2192 84.0784C37.9042 84.1571 37.6679 84.1571 37.4317 84.2359C37.2742 84.3146 37.1167 84.3934 36.9593 84.3934C36.8018 84.3934 36.6443 84.3934 36.5655 84.4721C36.2505 84.5509 36.0143 84.7084 35.6993 84.7871C35.4631 84.8658 35.1481 84.8659 34.8331 84.8659H33.9669C33.6519 84.8659 33.4157 84.9446 33.1007 84.9446C32.5495 84.9446 32.077 84.7871 31.6046 84.7871C30.9746 84.7871 30.4234 85.0233 29.7934 85.2596C29.6359 85.3383 29.4784 85.4171 29.3209 85.4958C29.2422 85.4958 29.0847 85.5746 28.9272 85.5746C28.7697 85.6533 28.6122 85.6533 28.4547 85.7321C28.2185 85.8108 27.9822 85.8108 27.746 85.8895C27.5885 85.9683 27.5098 86.047 27.3523 86.1258C26.9585 86.2833 26.4861 86.2045 26.0136 86.2833C25.6199 86.362 25.1474 86.5983 24.7537 86.362C24.2812 86.2045 24.0449 85.7321 23.8087 85.3383C23.5725 84.9446 23.1787 84.7084 23.0213 84.3146C22.8638 83.9209 22.9425 83.5272 23.1788 83.2909C23.4937 82.976 23.6512 82.7397 23.6512 82.2672C23.6512 81.8735 23.73 81.401 23.5725 81.0073C23.415 80.6136 23.1788 80.2198 22.9425 79.9049C22.7063 79.5899 22.4701 79.2749 22.1551 79.1174C21.6826 78.8812 21.2889 78.7237 20.8164 78.4874C20.3439 78.33 19.8714 78.1725 19.4777 77.9362C19.0052 77.7 18.6115 77.385 18.2178 77.1488C17.7453 76.8338 17.1941 76.6763 16.6429 76.3613C16.0917 76.1251 15.5404 75.8888 15.068 75.5738C14.753 75.3376 14.438 75.1014 14.0442 75.0226C13.8868 74.8651 13.493 74.7864 13.2568 74.6289C13.0206 74.4714 12.7843 74.3927 12.4693 74.2352C12.1543 74.0777 11.8394 73.9989 11.6031 73.684C11.2094 73.2115 10.9732 72.739 10.5794 72.424C9.71324 71.6366 8.53205 71.2428 7.42961 71.0066C7.27212 70.6129 7.11463 70.2979 7.03588 70.0616C6.56341 68.8805 5.30349 66.9118 6.0122 66.3606C6.72091 65.8094 7.27212 65.5731 7.42961 66.2031C7.50836 66.8331 7.50836 67.6205 7.90209 67.6205C8.29582 67.5418 8.45331 66.2031 7.90209 65.7306C7.35087 65.1794 6.16967 64.3132 6.16967 63.762C6.24842 63.2108 6.01219 62.0296 5.8547 61.0059C5.77595 60.3759 5.46096 58.8798 5.30347 57.8561C5.30347 57.9348 5.46097 57.9348 5.53972 57.9348C5.69721 58.0136 5.93343 58.0136 6.09092 58.0923C6.32716 58.1711 6.64214 58.1711 6.87838 58.1711C7.19336 58.1711 7.42961 58.1711 7.74459 58.1711C7.98083 58.1711 8.21708 58.2498 8.37457 58.0136C8.45331 57.9348 8.53205 57.8561 8.53205 57.7773C8.61079 57.6198 8.6108 57.3836 8.68955 57.2261C8.76829 56.8324 9.00452 56.5174 9.3195 56.8324C9.47699 56.9111 9.63449 56.9899 9.79198 57.1474C9.94947 57.2261 10.107 57.4623 10.2645 57.5411C10.3432 57.6198 10.3432 57.6198 10.4219 57.6986C10.5007 57.7773 10.5794 57.7773 10.6582 57.8561C10.8157 57.9348 11.1307 57.8561 11.3669 57.8561C11.4456 57.8561 11.5244 57.8561 11.6031 57.8561C11.6819 57.8561 11.7606 57.7773 11.9181 57.6986C12.1544 57.6198 12.2331 57.4623 12.3906 57.2261C12.7056 56.8324 12.9418 56.3599 13.3355 56.0449C13.493 55.8874 13.6505 55.6512 13.808 55.5724C13.9655 55.4149 14.2017 55.3362 14.3592 55.2575C14.5167 55.1787 14.6742 55.1 14.8317 55.0212C14.9892 55.0212 15.2254 54.9425 15.3829 54.8637C15.5404 54.8637 15.6192 54.7062 15.7767 54.6275C15.8554 54.5488 15.9341 54.5488 16.0916 54.5488C16.3279 54.47 16.5641 54.47 16.8003 54.3913C17.0366 54.3125 17.2728 54.2338 17.5878 54.155C17.7453 54.0763 17.9815 54.155 18.139 54.0763C18.2965 54.0763 18.5328 53.9975 18.769 53.9975C19.1627 53.9975 19.5564 53.9975 19.9502 54.155C20.1077 54.2338 20.2652 54.3913 20.4227 54.47C20.5801 54.5487 20.8164 54.6275 20.9739 54.7062C21.6039 54.9425 22.2338 55.2575 22.7063 55.6512C23.1788 56.0449 23.6512 56.4386 24.2024 56.6749C24.6749 56.8324 25.2262 57.0686 25.6986 56.9899C26.1711 56.9899 26.3286 56.7536 26.5648 56.4386C26.7223 56.1237 26.9585 55.8874 27.3523 55.6512C27.6673 55.4937 27.9822 55.2575 28.2972 54.9425C28.5335 54.7062 28.691 54.3913 28.691 54.0763C28.6122 53.6825 28.4547 53.3676 28.2972 53.0526C28.1397 52.7376 28.061 52.3439 28.1397 52.0289C28.2185 51.6352 28.4547 51.3202 28.691 51.0052C28.8484 50.6902 28.9272 50.454 29.0059 50.139C29.0847 49.7453 29.1634 49.4303 29.3997 49.0366C29.5572 48.6428 29.7146 48.3278 29.7146 47.9341C29.7146 47.4616 29.6359 46.9892 29.6359 46.5167C29.7147 45.9655 30.0296 45.6505 30.5021 45.3355C31.0533 45.0205 31.6046 44.7843 32.1558 44.4693C32.6283 44.1543 33.022 43.9181 33.5732 43.9181C34.1244 43.8393 34.7544 43.9968 35.3056 43.8393C35.4631 43.8393 35.6993 43.7606 35.9356 43.7606C36.0931 43.7606 36.2505 43.7606 36.408 43.7606C36.8018 43.6818 37.1955 43.6031 37.5892 43.4456C37.9829 43.2881 38.4554 43.2094 38.7704 42.9731C39.0854 42.7369 39.3216 42.5007 39.6366 42.2644C39.9516 42.0282 40.2666 42.1069 40.5028 41.9494C40.8178 41.7132 41.1328 41.4769 41.5265 41.3195C41.9202 41.162 42.2352 41.162 42.5502 41.162C42.8652 41.162 43.1802 41.162 43.4164 41.2407C43.8101 41.3195 44.2039 41.477 44.5976 41.477C44.7551 41.477 44.9913 41.477 45.2276 41.477C45.5425 41.477 45.8575 41.477 46.1725 41.5557C46.4088 41.6345 46.5662 41.7132 46.8025 41.7132H47.2749C47.4324 41.7132 47.5899 41.8707 47.6687 41.9494H47.7474C47.8262 41.9494 47.9049 41.9494 47.9837 42.0282C48.0624 42.0282 48.2199 42.0282 48.3774 42.1069C48.6924 42.1069 48.9286 41.9494 49.2436 41.7132C49.5586 41.5557 49.716 41.3195 50.031 41.162C50.346 40.9257 50.5823 40.532 50.8973 40.2958C51.291 39.9808 51.6847 39.6658 52.1572 39.4296C52.3934 39.2721 52.5509 39.1933 52.8659 39.1146C53.1809 38.9571 53.4959 38.8783 53.8109 38.7209C53.9684 38.5634 54.2046 38.4846 54.362 38.3271C54.5195 38.2484 54.7558 38.1696 54.9133 38.0122C55.0708 37.9334 55.2283 37.7759 55.4645 37.6972C55.7007 37.6184 55.937 37.5397 56.252 37.4609C56.7244 37.3822 57.1969 37.3034 57.5906 37.0672C57.7481 36.9884 57.8269 36.9097 57.9844 36.7522C58.0631 36.6735 58.2994 36.516 58.3781 36.516L59.638 35.6498L62.9453 37.2247L68.0638 36.4372C68.0638 36.4372 68.0638 36.4372 68.1425 36.3585C68.1425 36.3585 68.6938 36.9097 69.7175 37.5397C70.6624 38.1696 70.19 39.902 70.19 39.902C70.19 40.2958 70.19 40.6895 70.19 41.0832C70.19 41.2407 70.1899 41.477 70.1112 41.6345C70.0324 41.792 69.9537 41.9494 69.875 42.0282C69.7175 42.1857 69.6387 42.2644 69.4812 42.4219C69.3237 42.5007 69.245 42.6582 69.0875 42.8156C68.93 42.8944 68.7725 43.0519 68.6938 43.2094C68.5363 43.5244 68.3001 43.8393 68.0638 44.1543C67.5913 44.7843 67.1189 45.493 66.6464 46.123C66.3314 46.5954 65.9377 46.9892 65.5439 47.3829C65.229 47.6979 64.9927 48.0128 64.7565 48.4853C64.6777 48.7216 64.5203 49.194 64.6778 49.4303C64.7565 49.6665 64.914 49.9028 65.0715 50.139C65.229 50.454 65.544 50.5327 65.8589 50.6902C66.3314 50.769 66.8039 50.6902 67.2764 50.6115C67.5126 50.6115 67.8276 50.5327 68.0638 50.3752C68.3001 50.2177 68.5363 50.0603 68.8513 49.9028C69.0875 49.7453 69.3237 49.6665 69.6387 49.5878C69.875 49.509 70.0325 49.4303 70.2687 49.509C70.3474 49.509 70.5049 49.509 70.6624 49.509C70.8199 49.509 70.9774 49.509 71.0561 49.5878C71.2136 49.5878 71.3711 49.6665 71.4499 49.7453C71.6074 49.7453 71.6861 49.824 71.8436 49.824C72.1586 49.9028 72.3948 50.0602 72.6311 50.2177C72.7098 50.2177 72.7098 50.2965 72.7886 50.3752C72.8673 50.3752 72.8673 50.454 72.9461 50.454C73.1036 50.6115 73.261 50.9264 73.1823 51.2414C73.1035 51.6352 73.1823 52.0289 73.261 52.3439C73.261 52.7376 73.3398 53.1313 73.4185 53.4463C73.4185 53.6038 73.4185 53.84 73.4185 54.0763C73.4185 54.3125 73.4185 54.5487 73.4185 54.785C73.4185 55.2575 73.4973 55.6512 73.4973 56.1237C73.4973 56.2812 73.576 56.5174 73.6547 56.6749C73.8122 57.0686 73.891 57.4623 73.9697 57.8561C74.0485 58.171 74.0485 58.4073 74.4422 58.5648C74.7572 58.6435 74.9934 58.6435 75.2297 58.7223C75.5446 58.801 75.8597 58.8798 76.2534 58.9585C76.4109 58.9585 76.5684 59.0372 76.6471 59.0372C76.8046 59.0372 76.9621 59.116 77.1196 59.1947C77.2771 59.2735 77.3558 59.3522 77.5133 59.431C77.592 59.5097 77.8283 59.6672 77.907 59.6672C77.907 59.6672 77.907 59.6672 77.907 59.5885C78.0645 59.6672 78.1433 59.8247 78.3008 59.9035C78.537 59.9822 78.7733 59.9822 79.0095 60.061C79.2457 60.1397 79.4032 60.1397 79.6394 60.2184C79.7969 60.2972 79.9544 60.3759 80.1907 60.4547C80.3482 60.5334 80.5056 60.6122 80.6631 60.6909C81.0569 60.9271 81.5293 61.1634 82.0018 61.1634C82.1593 61.1634 82.3168 61.2421 82.4743 61.1634C82.6318 61.0846 82.7893 60.9272 82.868 60.7697C82.9467 60.6122 83.0255 60.4547 83.2617 60.3759C83.5767 60.1397 83.9704 59.9035 84.2854 59.5885C84.6791 59.1947 84.9942 58.801 85.3091 58.4073C85.6241 58.0923 85.9391 57.6198 86.4903 57.6986C86.8841 57.6986 87.2778 58.0923 87.5927 58.3285C87.9865 58.7223 88.459 59.0372 88.8527 59.5097C89.2464 59.9822 89.4039 60.5334 89.5614 61.0846C89.7189 61.6359 89.9551 62.2658 90.1913 62.8171C90.3488 63.3683 90.5851 63.9195 90.5851 64.4707Z" fill="#248CF9"/>
<path d="M222.72 63.9983C222.248 64.9433 220.358 68.8806 219.492 70.1405C218.625 71.4004 216.814 73.999 216.499 75.0227C216.184 76.0464 213.901 80.2987 212.562 81.2436C211.223 82.1098 209.806 83.0548 209.018 83.3698C208.231 83.6848 208.152 83.921 208.073 84.4722C207.995 85.0234 207.68 87.5433 206.577 88.4095C205.475 89.2757 202.955 89.7482 202.955 91.3231C202.955 92.8193 202.955 93.6855 202.089 93.6855C201.223 93.7642 200.12 93.6067 199.175 94.2367C198.23 94.7879 196.97 95.7328 196.183 95.7328C195.395 95.6541 194.687 95.7329 194.214 96.3628C193.742 96.9928 192.009 98.7252 190.198 98.8039C188.308 98.8827 185.946 98.7252 185.08 100.379C184.213 102.033 181.457 106.6 180.197 107.545C178.938 108.411 177.599 110.301 177.599 111.797C177.52 113.214 176.811 116.6 175.945 117.624C175.079 118.727 174.292 119.514 173.977 120.223C173.662 121.01 172.323 123.058 170.275 123.688C168.307 124.239 167.283 125.42 163.346 125.184C163.346 125.184 162.558 125.026 162.086 125.262C162.007 124.948 161.456 124.711 161.456 124.711C161.298 124.711 161.062 124.633 160.905 124.554C160.747 124.475 160.511 124.396 160.354 124.318C159.96 124.16 159.645 123.845 159.251 123.766C159.094 123.688 159.015 123.688 158.857 123.688H158.542C158.306 123.688 158.07 123.688 157.834 123.688C157.597 123.688 157.44 123.609 157.204 123.609C156.967 123.609 156.731 123.609 156.574 123.609C156.338 123.609 156.18 123.53 156.023 123.451C155.865 123.373 155.786 123.136 155.708 122.979C155.55 122.585 155.708 122.113 155.393 121.876C155.156 121.561 154.763 121.561 154.684 121.168C154.605 120.695 154.369 120.302 154.133 119.829C154.054 119.593 153.896 119.357 153.739 119.199C153.581 118.963 153.345 118.727 153.109 118.569C152.951 118.412 152.715 118.254 152.558 118.254C152.006 118.175 151.377 118.333 150.904 118.648C150.668 118.884 150.432 119.12 150.038 119.12C149.723 119.12 149.408 119.042 149.172 118.805C148.935 118.648 148.935 118.333 148.857 118.097C148.778 117.624 148.699 117.152 148.699 116.679C148.699 116.207 148.699 115.734 148.778 115.341C148.935 114.238 148.935 113.136 148.778 112.033C148.699 111.403 148.384 110.616 147.675 110.458C147.203 110.38 146.731 110.616 146.337 110.773C145.943 110.852 145.707 110.852 145.471 110.458C145.392 110.222 145.313 109.828 145.077 109.671C144.841 109.513 144.447 109.671 144.211 109.75C143.502 109.907 143.029 110.458 142.636 111.088C142.4 111.403 142.242 111.718 141.927 112.033C141.612 112.269 141.297 112.348 140.982 112.348C140.588 112.348 140.195 112.348 139.88 112.348C139.565 112.348 139.328 112.269 139.013 112.191C138.856 112.112 138.698 112.033 138.541 112.033C138.462 112.033 138.383 112.033 138.226 111.954C137.596 111.639 136.966 111.324 136.336 111.088C135.785 110.931 135.234 110.616 134.604 110.458C134.367 110.38 134.052 110.38 133.816 110.38C133.58 110.38 133.344 110.38 133.107 110.38C132.95 110.38 132.714 110.301 132.556 110.301C132.241 110.301 132.005 110.301 131.769 110.301C131.69 110.301 131.611 110.301 131.611 110.301C131.139 110.301 130.745 110.301 130.351 110.301C130.036 110.301 129.721 110.301 129.406 110.222C129.17 110.222 128.934 110.222 128.698 110.143C128.462 110.143 128.225 110.065 127.989 109.986C127.91 109.986 127.753 109.907 127.674 109.907C127.595 109.828 127.517 109.75 127.359 109.592C127.202 109.435 127.123 109.12 126.965 108.962C126.808 108.568 126.572 108.175 126.414 107.781C126.335 107.702 126.335 107.545 126.257 107.466C126.178 107.387 126.02 107.308 125.863 107.151C125.784 107.072 125.705 106.915 125.627 106.836C125.548 106.757 125.469 106.679 125.39 106.6C124.997 106.206 124.445 105.891 123.973 105.655C123.737 105.576 123.501 105.576 123.343 105.497C123.028 105.419 122.713 105.419 122.477 105.261C122.398 105.182 122.319 105.182 122.241 105.104C122.241 105.025 122.241 104.946 122.319 104.789C122.398 104.552 122.398 104.316 122.477 104.08C122.556 103.765 122.634 103.45 122.713 103.135C122.792 102.82 122.871 102.505 122.949 102.19C123.028 101.875 123.107 101.481 123.186 101.166C123.186 101.088 123.186 101.088 123.264 101.009C123.343 100.694 123.501 100.379 123.579 100.064C123.658 99.8276 123.816 99.5914 123.894 99.3552C123.973 99.0402 124.052 98.7252 124.131 98.4102C124.288 97.7015 124.446 96.914 124.682 96.2053C124.76 96.0478 124.76 95.8903 124.839 95.8116C124.918 95.6541 124.918 95.4179 124.997 95.2604C125.075 95.0241 125.075 94.7879 125.075 94.5517C125.154 94.3942 125.154 94.1579 125.233 93.9217C125.312 93.7642 125.39 93.7642 125.548 93.6067C125.705 93.528 125.705 93.2917 125.863 93.1342C125.942 93.0555 126.099 92.898 126.257 92.8193C126.414 92.7405 126.65 92.7405 126.729 92.583C126.808 92.5043 126.887 92.4255 127.044 92.4255C127.202 92.3468 127.359 92.3468 127.517 92.1893C127.674 92.1105 127.832 92.0318 127.91 91.8743C128.225 91.7168 128.54 91.5593 128.855 91.2444C129.249 90.8506 129.643 90.3781 129.8 89.8269C129.958 89.1182 129.643 88.567 129.249 88.0158C129.091 87.7008 128.934 87.4646 128.619 87.2283C128.383 87.0708 128.068 86.9133 127.753 86.6771C127.438 86.4409 127.123 86.2834 126.887 85.8896C126.808 85.7321 126.808 85.6534 126.808 85.4959C126.808 84.551 126.729 83.6848 126.729 82.7398C126.729 82.5036 126.729 82.1886 126.65 81.9523C126.572 81.0074 126.572 80.0624 126.65 79.1175C126.65 78.645 126.572 78.2513 126.65 77.7788C126.65 77.5426 126.729 77.3063 126.729 77.1489C126.808 76.9914 126.887 76.8339 127.123 76.7551C127.359 76.5976 127.595 76.5976 127.91 76.4401C128.068 76.3614 128.304 76.2827 128.462 76.2039C128.619 76.1252 128.855 76.0464 129.013 76.0464C129.17 76.0464 129.328 75.9677 129.485 75.9677C129.8 75.8102 130.115 75.5739 130.351 75.259C130.509 75.0227 130.509 74.7865 130.509 74.4715C130.509 74.1565 130.588 73.8415 130.588 73.6053C130.588 73.4478 130.588 73.2903 130.666 73.2116C130.745 72.8966 130.824 72.5816 130.981 72.3454C131.296 71.7942 131.533 71.1642 131.611 70.5342C131.69 69.983 132.163 69.8255 132.635 69.7468C132.793 69.668 133.029 69.668 133.186 69.5893C133.423 69.5105 133.58 69.4318 133.816 69.4318C134.367 69.4318 134.997 69.4318 135.549 69.4318C136.021 69.4318 136.494 69.5105 136.887 69.2743C137.045 69.1955 137.202 69.0381 137.281 68.8018C137.36 68.4868 137.281 68.0931 137.36 67.7781C137.36 67.6994 137.439 67.6206 137.517 67.4631C137.596 67.3056 137.596 67.1482 137.596 66.9907C137.517 66.6757 137.281 66.4394 137.124 66.2032C136.966 65.8882 136.809 65.5733 136.73 65.2583C136.572 64.7858 136.572 64.3133 136.336 63.8408C136.257 63.5258 136.021 63.2896 135.942 62.9746C135.864 62.7384 135.942 62.5022 135.942 62.2659C135.942 62.1084 135.864 61.9509 135.942 61.7934C136.021 61.3997 136.257 61.006 136.336 60.5335C136.415 60.0611 136.651 59.6673 136.809 59.1948C136.887 59.0373 137.045 58.8011 137.124 58.6436C137.202 58.4074 137.439 58.2499 137.517 58.0137C137.596 57.6987 137.675 57.305 137.832 56.99C137.911 56.7537 137.911 56.5962 138.069 56.4387C138.147 56.2812 138.226 56.1238 138.305 55.9663C138.462 55.4938 138.698 55.0213 138.777 54.5488C138.856 54.3126 138.856 53.9976 138.935 53.7614C139.013 53.6039 139.092 53.4464 139.171 53.3677C139.25 53.2102 139.328 53.0527 139.407 52.8952C139.486 52.6589 139.565 52.344 139.722 52.1077C139.801 51.9502 139.88 51.7927 139.958 51.6352C140.037 51.5565 140.037 51.399 140.037 51.2415C140.116 50.9265 140.195 50.6116 140.273 50.2966C140.273 50.1391 140.273 49.9028 140.273 49.7454C140.273 49.4304 140.352 49.1941 140.51 48.9579C140.667 48.5642 140.667 48.0917 140.746 47.6192C140.746 47.4617 140.825 47.2255 140.982 47.068C141.14 46.753 141.218 46.5168 141.376 46.2018C141.455 45.8081 141.612 45.4931 141.77 45.1781C141.848 45.0994 141.927 44.9419 142.006 44.8631C142.085 44.7844 142.163 44.7056 142.163 44.5481C142.242 44.4694 142.321 44.3906 142.478 44.2332C142.557 44.1544 142.557 43.9969 142.636 43.8394C142.793 43.6819 142.793 43.367 142.793 43.1307C142.793 42.8157 142.951 42.5007 142.872 42.2645C142.793 42.107 142.793 42.0283 142.793 41.8708C142.793 41.7133 142.714 41.5558 142.714 41.3983C142.636 41.0833 142.557 40.7684 142.478 40.4534C142.4 40.2171 142.321 39.9021 142.163 39.6659C142.006 39.4297 141.848 39.2722 141.691 39.0359C141.612 38.9572 141.533 38.7997 141.376 38.721C141.297 38.6422 141.218 38.5635 141.14 38.406C141.061 38.3272 140.982 38.1697 140.825 38.0122C140.667 37.8548 140.51 37.6185 140.431 37.461C140.195 37.146 140.037 36.8311 139.88 36.5161C139.722 36.3586 139.565 36.2011 139.565 35.9649C139.565 35.8861 139.643 35.5711 139.565 35.5711C139.565 35.4136 139.565 35.1774 139.486 34.9412C139.486 34.7049 139.486 34.5474 139.407 34.3112C139.407 33.9175 139.407 33.5237 139.328 33.13C139.328 32.7363 139.328 32.3425 139.25 31.9488C139.25 31.7913 139.25 31.6338 139.25 31.4763C139.25 31.2401 139.171 31.0039 139.171 30.7676C139.171 30.7676 139.171 29.5077 138.698 29.1927C138.935 28.799 139.25 27.854 138.777 26.5154C138.068 24.5467 136.887 21.1607 137.832 20.137C138.698 19.0345 140.116 18.4046 140.116 18.4046C140.116 18.4046 146.022 18.0108 146.416 19.4283C146.809 20.7669 147.36 22.4206 147.36 22.4206L152.164 22.4993L155.235 19.6645C155.235 19.6645 156.259 18.9558 156.889 19.9007C157.597 20.8457 159.251 23.7593 159.251 23.7593L160.59 23.6805L161.85 22.6568C161.85 22.6568 163.425 23.9168 163.503 23.9168C163.503 23.838 167.598 23.4443 167.598 23.4443L169.252 22.2631L169.016 18.9558C169.016 18.9558 170.276 17.3809 170.354 17.3809C170.433 17.3809 173.347 18.4046 173.347 18.4046L176.103 23.1293L184.292 23.6018L188.702 20.5307C188.702 20.5307 192.876 23.2868 192.088 24.2317C191.301 25.1767 190.513 25.8854 190.513 27.2241C190.513 28.484 190.671 30.5314 191.694 30.5314C192.718 30.5314 193.348 30.1377 193.82 30.6101C194.293 31.0826 195.002 31.3189 194.529 32.0276C193.978 32.7363 193.348 33.2088 193.427 34.075C193.505 34.9412 193.742 39.7446 193.112 40.5321C192.482 41.3196 190.513 44.5481 191.537 46.0443C192.561 47.5405 196.419 52.1865 196.813 52.659C197.285 53.0527 198.703 55.2576 199.254 54.2339C199.805 53.2102 200.278 52.5802 201.065 52.659C201.853 52.7377 207.916 52.5015 207.995 52.5015C208.073 52.5015 216.814 56.1238 216.814 56.1238C216.814 56.1238 217.444 57.7774 217.917 58.3286C218.389 58.8799 221.618 62.1084 222.484 62.5809C223.035 62.5809 223.193 62.9746 222.72 63.9983Z" fill="#248CF9"/>
<path d="M142.636 41.8707C142.557 41.7132 142.557 41.6344 142.557 41.4769C142.557 41.3195 142.479 41.162 142.479 41.0045C142.4 40.6895 142.321 40.3745 142.242 40.0595C142.164 39.8233 142.085 39.5083 141.927 39.2721C141.77 39.0358 141.612 38.8783 141.455 38.6421C141.376 38.5633 141.297 38.4059 141.14 38.3271C141.061 38.2484 140.982 38.1696 140.904 38.0121C140.825 37.9334 140.746 37.7759 140.589 37.6184C140.431 37.4609 140.274 37.2247 140.195 37.0672C139.959 36.7522 139.801 36.4372 139.644 36.1222C139.486 35.9648 139.329 35.8072 139.329 35.571C139.329 35.4923 139.407 35.1773 139.329 35.1773C139.329 35.0198 139.329 34.7836 139.25 34.5473C139.25 34.3111 139.25 34.1536 139.171 33.9173C139.171 33.5236 139.171 33.1299 139.092 32.7362C139.092 32.3424 139.092 31.9487 139.014 31.555C139.014 31.3975 139.014 31.24 139.014 31.0825C139.014 30.8463 138.935 30.61 138.935 30.3738C138.935 30.3738 138.935 29.1139 138.463 28.7989C138.305 29.0351 138.148 29.1139 138.148 29.1139C138.148 29.1139 129.328 34.2323 129.249 34.2323C129.171 34.2323 125.548 35.0198 125.548 35.0198L124.288 33.6811C124.288 33.6811 124.052 33.8386 123.265 34.3111C122.477 34.7836 122.398 35.4923 121.926 36.5947C121.453 37.7759 120.666 38.1696 120.508 38.1696C120.351 38.1696 118.461 36.1222 117.516 35.4135C116.65 34.7835 115.941 33.5236 116.099 32.6574C116.256 31.7912 112.791 30.8463 111.925 31.4762C111.059 32.1062 112.476 33.0511 112.398 33.8386C112.398 34.7048 108.933 34.8623 107.515 35.0198C106.098 35.0985 105.389 36.3585 103.893 36.1222C102.318 35.886 104.129 32.4212 105.626 31.555C107.122 30.7675 103.421 29.8226 103.421 29.8226L99.6408 30.3738L97.121 27.9327C97.121 27.9327 86.3328 29.9013 86.3328 29.9801C86.2541 29.9801 83.183 33.1299 83.183 33.1299L82.0806 32.9724L80.8206 23.7592L77.907 24.2316V28.2477L74.8359 28.8776L72.6311 31.0038C72.6311 31.0038 72.5523 33.9174 72.5523 33.9961C72.5523 34.0748 68.6938 35.9647 67.9851 36.3585C67.9851 36.3585 68.5363 36.9097 69.56 37.5397C70.505 38.1696 70.0325 39.902 70.0325 39.902C70.0325 40.2958 70.0325 40.6895 70.0325 41.0832C70.0325 41.2407 70.0325 41.477 69.9537 41.6344C69.875 41.7919 69.7962 41.9494 69.7175 42.0282L69.3237 42.4219C69.1663 42.5006 69.0875 42.6581 68.93 42.8156C68.7725 42.8944 68.615 43.0519 68.5363 43.2094C68.3788 43.5243 68.1426 43.9181 67.9063 44.1543C67.4339 44.7843 66.9614 45.493 66.4889 46.1229C66.1739 46.5954 65.7802 46.9891 65.3865 47.3829C65.0715 47.6979 64.8352 48.0128 64.599 48.4853C64.5203 48.7215 64.3628 49.1153 64.5203 49.4303C64.599 49.6665 64.7565 49.9027 64.914 50.139C65.0715 50.454 65.3865 50.5327 65.7015 50.6902C66.1739 50.7689 66.6464 50.6902 67.1189 50.6114C67.3551 50.6114 67.6701 50.5327 67.9063 50.3752C68.1426 50.2177 68.3788 50.0602 68.6938 49.9027C68.93 49.7453 69.1663 49.6665 69.4812 49.5877C69.7175 49.509 69.875 49.4303 70.1112 49.509C70.1899 49.509 70.3474 49.509 70.5049 49.509C70.6624 49.509 70.8199 49.509 70.8987 49.5877C71.0561 49.5877 71.2136 49.6665 71.2924 49.7452C71.4499 49.7452 71.5286 49.824 71.6861 49.824C72.0011 49.9027 72.2373 50.0602 72.4736 50.2177C72.5523 50.2177 72.5523 50.2965 72.6311 50.3752C72.7098 50.3752 72.7098 50.4539 72.7886 50.4539C72.9461 50.6114 73.1035 50.9264 73.0248 51.2414C72.9461 51.6351 73.0248 52.0289 73.1036 52.3438C73.1036 52.7376 73.1823 53.1313 73.261 53.525C73.261 53.6825 73.261 53.9188 73.261 54.155C73.261 54.3912 73.261 54.6275 73.261 54.8637C73.261 55.3362 73.3398 55.7299 73.3398 56.2024C73.3398 56.3599 73.4186 56.5961 73.4973 56.7536C73.6548 57.1473 73.7335 57.5411 73.8123 57.9348C73.891 58.2498 73.891 58.486 74.2848 58.6435C74.5997 58.7222 74.836 58.7223 75.0722 58.801C75.3872 58.8797 75.7022 58.9585 76.0959 59.0372C76.2534 59.0372 76.4109 59.116 76.4896 59.116C76.6471 59.116 76.8046 59.1947 76.9621 59.2735C77.1196 59.3522 77.1983 59.431 77.3558 59.5097C77.4346 59.5885 77.6708 59.746 77.7495 59.746C77.7495 59.746 77.7495 59.746 77.7495 59.6672C77.907 59.746 77.9858 59.9034 78.1433 59.9822C78.3795 60.0609 78.6158 60.0609 78.852 60.1397C79.0882 60.2184 79.2457 60.2184 79.482 60.2972C79.6395 60.3759 79.797 60.4547 80.0332 60.5334C80.1907 60.6122 80.3482 60.6909 80.5056 60.7696C80.8994 61.0059 81.3719 61.2421 81.8443 61.2421C82.0018 61.2421 82.1593 61.3209 82.3168 61.2421C82.4743 61.1634 82.6318 61.0059 82.7105 60.8484C82.7893 60.6909 82.868 60.5334 83.1042 60.4547C83.4192 60.2184 83.813 59.9822 84.128 59.6672C84.5217 59.2735 84.8367 58.8797 85.1517 58.486C85.4666 58.171 85.7816 57.6986 86.3328 57.7773C86.7266 57.7773 87.1203 58.171 87.4353 58.4073C87.829 58.801 88.3015 59.116 88.6952 59.5885C89.0889 60.0609 89.2464 60.6122 89.4039 61.1634C89.5614 61.7146 89.7977 62.3446 90.0339 62.8958C90.2701 63.3683 90.5851 63.9195 90.5851 64.4707C90.5851 64.8644 90.3489 65.2582 90.1126 65.6519C90.0339 65.8094 89.9551 65.9669 89.7976 66.0456C89.6401 66.1244 89.4826 66.2819 89.4039 66.4393C89.3252 66.4393 89.3252 66.5181 89.2464 66.5181C89.2464 66.5181 89.1677 66.5968 89.1677 66.6756C88.8527 66.9906 88.6952 67.463 88.3015 67.6993C88.144 67.8567 87.9078 67.9355 87.6715 68.0143C87.514 68.093 87.2778 68.3292 87.1203 68.408C86.9628 68.4867 86.7266 68.6442 86.5691 68.8017C86.2541 68.9592 86.0179 69.1954 85.7816 69.3529C85.7029 69.4317 85.6241 69.5104 85.4666 69.6679C85.3879 69.7466 85.3092 69.7467 85.1517 69.8254C84.8367 69.9829 84.5217 70.2191 84.2067 70.3766C83.8917 70.5341 83.6555 70.7703 83.3405 70.9278C83.2618 71.0066 83.1043 71.0853 83.0255 71.1641C82.4743 71.4791 82.2381 71.9515 81.8443 72.424C81.6081 72.6602 81.4506 72.9752 81.2931 73.2115C81.1356 73.4477 80.9781 73.6839 80.8994 73.9989C80.8206 74.3139 80.8206 74.5501 80.7419 74.7864C80.7419 74.8651 80.6631 75.0226 80.6631 75.1801C80.6631 75.2588 80.5844 75.3376 80.5844 75.4951C80.5057 75.7313 80.4269 75.9676 80.3481 76.2038C80.3481 76.2826 80.2694 76.44 80.1907 76.5188C80.0332 76.755 79.7969 76.9913 79.5607 77.2275C79.4032 77.385 79.2457 77.4637 79.167 77.6212C79.0882 77.8575 79.0095 78.0937 78.7732 78.2512C78.6157 78.4087 78.6158 78.6449 78.4583 78.7237C78.3795 78.8024 78.222 78.8812 78.1433 79.0387C78.0645 79.1961 77.9858 79.3536 77.907 79.4324C77.7496 79.6686 77.5921 79.9836 77.4346 80.2986C77.2771 80.5348 77.0408 80.7711 76.8046 80.9286C76.5683 81.086 76.3321 81.2435 76.1746 81.4798C76.0959 81.6372 75.9384 81.9522 75.9384 82.1885V83.0547C75.9384 83.3697 75.9384 83.6059 75.9384 83.8421C75.9384 84.5508 75.9384 85.1808 75.7809 85.8108C75.8596 85.8108 76.0172 85.8895 76.0959 85.9683C76.1746 86.1258 76.2534 86.2833 76.4109 86.4408C76.4896 86.5982 76.5684 86.677 76.7259 86.8345C76.8046 86.9132 76.8834 87.0707 77.0409 87.1495C77.1984 87.2282 77.3558 87.3069 77.3558 87.4644C77.3558 87.6219 77.2771 87.7794 77.1983 87.9369C77.1196 88.0944 77.0408 88.2519 76.9621 88.4094C76.8833 88.7244 76.8046 89.4331 77.0409 89.6693C77.1984 89.8268 77.3558 89.8268 77.592 89.8268C77.907 89.9056 78.222 90.1418 78.4583 90.2993C78.7733 90.4568 79.167 90.693 79.482 90.9292C79.6395 91.008 79.7969 91.1655 79.9544 91.323C80.0332 91.4017 80.0332 91.5592 80.1119 91.7167C80.2694 92.1104 80.2694 92.3467 80.2694 92.6617C80.2694 93.0554 80.0332 93.2916 80.0332 93.6066C80.0332 93.9216 79.9544 94.3153 80.0332 94.6303C80.1119 94.9453 80.1907 95.2603 80.3481 95.5753C80.5844 96.0477 80.8994 96.3627 81.2931 96.5989C81.6868 96.9139 82.1593 97.0714 82.4743 97.4652C82.4743 97.6226 82.4743 97.7801 82.4743 97.9376C82.4743 98.0164 82.3168 98.1739 82.3168 98.2526C82.3168 98.3314 82.3168 98.4101 82.3168 98.5676C82.3168 98.8038 82.3168 99.0401 82.2381 99.355C82.1593 99.8275 82.0806 100.3 82.0806 100.851C82.0806 101.087 82.0806 101.324 82.0806 101.56C82.0806 101.796 82.0018 102.032 81.8443 102.269C81.6868 102.662 81.7656 103.056 81.7656 103.371C81.6869 104.316 81.6081 105.261 81.1356 106.127C80.9781 106.521 80.9781 106.915 80.8994 107.308C80.8206 107.623 80.8206 108.017 80.7419 108.332C80.6631 108.726 80.6631 109.12 80.5056 109.513C80.3482 109.907 80.2694 110.301 80.2694 110.694C80.2694 110.852 80.2694 111.088 80.2694 111.246C80.2694 111.246 80.5844 112.506 80.6631 112.663C80.8206 112.506 80.8994 112.191 81.0569 112.033C81.1356 111.876 81.2144 111.797 81.2931 111.639C81.3718 111.482 81.5294 111.324 81.6081 111.167C81.6868 111.009 81.8443 110.931 82.0018 110.773C82.0806 110.694 82.0806 110.616 82.1593 110.616C82.2381 110.458 82.3955 110.379 82.4743 110.222C82.6318 110.143 82.7105 109.986 82.868 109.907C83.0255 109.749 83.2618 109.592 83.4192 109.434C83.5767 109.356 83.813 109.12 83.9705 109.12C84.128 109.041 84.3642 109.12 84.5217 109.12C84.9942 109.198 85.3879 109.434 85.8603 109.671C86.0178 109.749 86.1753 109.828 86.4116 109.907C86.5691 109.907 86.7266 109.907 86.8841 109.907C87.0416 109.907 87.2778 109.907 87.4353 109.828C87.7502 109.749 87.9865 109.749 88.2227 109.513C88.5377 109.356 88.774 109.12 89.0889 108.962C89.2464 108.883 89.4039 108.883 89.5614 108.805C89.7189 108.805 89.9551 108.726 90.1126 108.726C90.4276 108.647 90.7426 108.647 91.0576 108.647C91.4513 108.647 91.7663 108.568 92.16 108.568C92.475 108.568 92.8688 108.647 93.1837 108.883C93.2625 108.962 93.42 109.041 93.5775 109.198C93.735 109.277 93.8924 109.434 94.0499 109.513C94.2862 109.671 94.6011 109.907 94.8374 110.064C95.3886 110.458 96.0973 110.458 96.6485 110.852C97.0422 111.167 97.5935 111.167 98.0659 111.167C98.5384 111.246 99.0897 110.852 99.4834 110.616C99.7196 110.458 99.8771 110.222 99.9558 110.064C100.113 109.749 100.35 109.592 100.507 109.434C100.665 109.277 100.901 109.12 101.216 109.041C101.531 108.962 101.846 109.041 102.161 109.041C102.318 109.041 102.476 109.041 102.554 109.041C102.712 109.041 102.791 109.12 102.948 109.198C103.184 109.277 103.421 109.513 103.657 109.671C103.893 109.907 104.051 109.986 104.366 109.986C104.681 109.986 104.917 109.986 105.232 109.986C105.547 109.986 105.783 109.986 106.098 109.907C106.334 109.828 106.57 109.749 106.807 109.513C106.964 109.434 107.122 109.434 107.279 109.434C107.437 109.434 107.594 109.277 107.752 109.198C108.224 109.041 108.697 108.805 109.09 108.49C109.563 108.096 109.957 107.702 110.429 107.466C110.98 107.151 111.453 106.836 111.925 106.442C112.319 106.127 112.634 105.733 112.949 105.418C113.658 104.631 114.681 104.001 115.705 103.922C116.414 103.922 117.122 103.844 117.831 103.844C118.146 103.844 118.54 103.844 118.855 103.922C119.17 103.922 119.327 103.922 119.642 103.922H120.823C120.981 103.922 121.138 104.001 121.296 104.08C121.453 104.159 121.611 104.237 121.768 104.316C121.926 104.316 122.083 104.395 122.241 104.474C122.241 104.395 122.241 104.316 122.32 104.159C122.398 103.922 122.398 103.686 122.477 103.45C122.556 103.135 122.635 102.82 122.713 102.505C122.792 102.19 122.871 101.875 122.95 101.56C123.028 101.245 123.107 100.851 123.186 100.536C123.186 100.457 123.186 100.457 123.265 100.379C123.343 100.064 123.501 99.7488 123.58 99.4338C123.658 99.1976 123.816 98.9613 123.895 98.7251C123.973 98.4101 124.052 98.0951 124.131 97.7801C124.288 97.0714 124.446 96.284 124.682 95.5753C124.761 95.4178 124.761 95.2603 124.839 95.1815C124.918 95.024 124.918 94.7878 124.997 94.6303C125.076 94.3941 125.076 94.1578 125.076 93.9216C125.154 93.7641 125.154 93.5279 125.233 93.2916C125.312 93.1341 125.391 93.1341 125.548 92.9766C125.706 92.8979 125.706 92.6616 125.863 92.5042C125.942 92.4254 126.099 92.2679 126.257 92.1892C126.414 92.1104 126.651 92.1104 126.729 91.953C126.808 91.8742 126.887 91.7954 127.044 91.7954C127.202 91.7167 127.359 91.7167 127.517 91.5592C127.674 91.4805 127.832 91.4017 127.911 91.2442C128.226 91.0868 128.541 90.9292 128.856 90.6143C129.249 90.2205 129.643 89.7481 129.8 89.1969C129.958 88.4881 129.643 87.9369 129.249 87.3857C129.092 87.0707 128.934 86.8345 128.619 86.5982C128.383 86.4407 128.068 86.2833 127.753 86.047C127.438 85.8108 127.123 85.6533 126.887 85.2596C126.808 85.1021 126.808 85.0233 126.808 84.8658C126.808 83.9209 126.729 83.0547 126.729 82.1097C126.729 81.8735 126.729 81.5585 126.651 81.3223C126.572 80.3773 126.572 79.4324 126.651 78.4874C126.651 78.015 126.572 77.6212 126.651 77.1487C126.651 76.9125 126.729 76.6763 126.729 76.5188C126.808 76.3613 126.887 76.2038 127.123 76.1251C127.359 75.9676 127.596 75.9676 127.911 75.8101C128.068 75.7313 128.304 75.6526 128.462 75.5738C128.619 75.4951 128.856 75.4164 129.013 75.4164C129.171 75.4164 129.328 75.3376 129.485 75.3376C129.8 75.1801 130.115 74.9439 130.352 74.6289C130.509 74.3927 130.509 74.1564 130.509 73.8414C130.509 73.5265 130.588 73.2115 130.588 72.9752C130.588 72.8177 130.588 72.6602 130.667 72.5815C130.745 72.2665 130.824 71.9515 130.982 71.7153C131.297 71.1641 131.533 70.5341 131.612 69.9042C131.69 69.3529 132.163 69.1954 132.635 69.1167C132.793 69.0379 133.029 69.0379 133.187 68.9592C133.423 68.8804 133.58 68.8017 133.817 68.8017C134.368 68.8017 134.998 68.8017 135.549 68.8017C136.021 68.8017 136.494 68.8805 136.888 68.6442C137.045 68.5655 137.203 68.408 137.281 68.1717C137.36 67.8568 137.281 67.463 137.36 67.1481C137.36 67.0693 137.439 66.9906 137.518 66.8331C137.596 66.6756 137.596 66.5181 137.596 66.3606C137.518 66.0456 137.281 65.8094 137.124 65.5731C136.966 65.2582 136.809 64.9432 136.73 64.6282C136.573 64.1557 136.573 63.6832 136.336 63.2108C136.258 62.8958 136.021 62.6595 135.943 62.3446C135.864 62.1083 135.943 61.8721 135.943 61.6358C135.943 61.4784 135.864 61.3209 135.943 61.1634C136.021 60.7696 136.258 60.3759 136.336 59.9034C136.415 59.431 136.651 59.0372 136.809 58.5648C136.888 58.4073 137.045 58.171 137.124 58.0135C137.203 57.7773 137.439 57.6198 137.518 57.3836C137.596 57.0686 137.675 56.6749 137.833 56.3599C137.911 56.1236 137.911 55.9662 138.069 55.8087C138.148 55.6512 138.226 55.4937 138.305 55.3362C138.463 54.8637 138.699 54.3912 138.777 53.9188C138.856 53.6825 138.856 53.3675 138.935 53.1313C139.014 52.9738 139.092 52.8163 139.171 52.7376C139.25 52.5801 139.329 52.4226 139.407 52.2651C139.486 52.0289 139.565 51.7139 139.722 51.4777C139.801 51.3202 139.88 51.1627 139.959 51.0052C140.037 50.9264 140.037 50.7689 140.037 50.6114C140.116 50.2965 140.195 49.9815 140.274 49.6665C140.274 49.509 140.274 49.2728 140.274 49.1153C140.274 48.8003 140.352 48.5641 140.51 48.3278C140.667 47.9341 140.667 47.4616 140.746 46.9891C140.746 46.8317 140.825 46.5954 140.982 46.4379C141.14 46.1229 141.219 45.8867 141.376 45.5717C141.455 45.178 141.612 44.863 141.77 44.548C141.849 44.4693 141.927 44.3118 142.006 44.233C142.085 44.1543 142.164 44.0756 142.164 43.9181C142.242 43.8393 142.321 43.7606 142.479 43.6031C142.557 43.5243 142.557 43.3668 142.636 43.2094C142.794 43.0519 142.794 42.7369 142.794 42.5006C142.636 42.5006 142.715 42.1857 142.636 41.8707ZM93.2625 43.5243C93.105 43.6818 92.8687 43.8393 92.7112 43.9968C92.3175 44.3118 91.8451 44.548 91.6088 45.0205C91.3726 45.3355 91.2151 45.7292 90.9788 45.9655C90.6638 46.2804 90.2701 46.3592 89.8764 46.4379C89.5614 46.5167 89.2464 46.4379 89.0102 46.4379C88.6952 46.4379 88.3802 46.5167 88.0653 46.5954C87.5928 46.6742 87.1203 46.9104 86.7266 46.7529C86.6478 46.7529 86.4903 46.6742 86.4116 46.6742C86.1753 46.5954 85.9391 46.5167 85.7816 46.5167C85.7029 46.5167 85.6241 46.5167 85.5454 46.5167C85.4666 46.4379 85.3879 46.3592 85.3092 46.3592C85.2304 46.3592 85.2304 46.2804 85.1517 46.2804C84.9942 46.2804 84.7579 46.2804 84.7579 46.1229C84.7579 46.0442 84.6792 46.0442 84.7579 45.9655C84.7579 45.8867 84.7579 45.808 84.6792 45.7292C84.6792 45.5717 84.6792 45.4142 84.6792 45.2567C84.6792 45.178 84.7579 45.0992 84.7579 44.9417C84.7579 44.7843 84.9942 44.7055 85.1517 44.6268C85.8604 44.3905 86.5691 44.233 87.2778 44.0755C88.144 43.9968 89.0102 43.8393 89.8764 43.7606C90.5851 43.7606 91.3726 43.7606 92.0026 43.3668C92.3175 43.2093 92.5538 43.0519 92.8687 42.9731C93.0262 42.8944 93.5774 42.8156 93.6562 43.0519C93.42 43.3668 93.3412 43.5243 93.2625 43.5243Z" fill="#248CF9"/>
<path d="M82.3166 97.7015C82.3166 97.859 82.3166 98.0165 82.3166 98.1739C82.3166 98.2527 82.1592 98.4102 82.1592 98.4889C82.1592 98.5677 82.1592 98.6464 82.1592 98.8039C82.1592 99.0401 82.1591 99.2764 82.0804 99.5914C82.0017 100.064 81.9229 100.536 81.9229 101.088C81.9229 101.324 81.9229 101.56 81.9229 101.796C81.9229 102.032 81.8442 102.269 81.6867 102.505C81.5292 102.899 81.6079 103.292 81.6079 103.607C81.5292 104.552 81.4505 105.497 80.978 106.363C80.8205 106.757 80.8205 107.151 80.7417 107.545C80.663 107.86 80.663 108.253 80.5843 108.568C80.5055 108.962 80.5055 109.356 80.348 109.75C80.1905 110.143 80.1118 110.537 80.1118 110.931C80.1118 111.088 80.1118 111.324 80.1118 111.482C80.1118 111.482 80.4267 112.742 80.5055 112.899C80.4267 112.978 80.348 113.057 80.1118 113.057C79.9543 113.057 79.718 113.057 79.5605 113.057C79.4818 113.057 79.3243 112.978 79.2456 112.978C79.1668 112.978 79.0093 112.978 78.9306 112.978C78.7731 112.978 78.5369 112.899 78.3006 112.899C77.9856 112.899 77.7494 112.899 77.5132 112.978C77.1982 112.978 76.8832 113.057 76.5682 113.057C76.332 113.057 76.0958 113.057 75.8595 113.057C75.5445 113.057 75.3083 112.899 74.9933 112.978C74.6783 112.978 74.3633 112.978 74.1271 113.057C74.0484 113.136 74.0483 113.136 73.9696 113.214C73.8121 113.293 73.7334 113.451 73.5759 113.529C73.4971 113.608 73.4184 113.687 73.2609 113.844C73.1821 113.923 73.0246 114.081 72.8671 114.238C72.6309 114.396 72.3947 114.553 72.0797 114.711C71.7647 114.868 71.6072 115.104 71.2922 115.341C71.1347 115.419 70.9772 115.498 70.8985 115.577C70.8198 115.656 70.741 115.656 70.6623 115.656C70.5835 115.656 70.5835 115.656 70.5048 115.656C70.3473 115.734 70.1111 115.734 69.9536 115.734C69.7173 115.813 69.4811 115.813 69.2449 115.813C69.0086 115.813 68.7724 115.734 68.4574 115.734C68.2212 115.734 67.9849 115.734 67.7487 115.656C67.5124 115.577 67.2762 115.419 67.1187 115.341C67.04 115.262 66.9612 115.262 66.8825 115.183C66.725 115.104 66.6462 114.947 66.4888 114.868C66.1738 114.711 65.7801 114.711 65.4651 114.632C65.2288 114.632 64.9926 114.553 64.8351 114.632C64.6776 114.632 64.5201 114.711 64.4414 114.789C64.2839 114.868 64.1264 114.947 64.0477 115.104C63.8902 115.262 63.7326 115.419 63.5752 115.656C63.4964 115.734 63.4177 115.734 63.3389 115.813L63.0239 116.128C62.8664 116.207 62.709 116.364 62.5515 116.443C62.4727 116.522 62.394 116.522 62.2365 116.6C62.1577 116.6 62.079 116.679 62.0002 116.758C61.8427 116.837 61.6853 116.837 61.5278 116.837C61.3703 116.837 61.134 116.837 60.9766 116.758C60.8191 116.758 60.7403 116.679 60.5828 116.6C60.4253 116.522 60.2678 116.522 60.1891 116.443C60.1104 116.364 60.0316 116.364 59.9529 116.285C59.7166 116.207 59.4804 116.285 59.3229 116.207C59.0867 116.128 58.8504 116.049 58.6929 115.97C58.2992 115.892 57.9055 115.813 57.433 115.813C57.2755 115.813 57.118 115.892 56.9605 115.97C56.8031 115.97 56.7243 116.128 56.5668 116.207C56.2518 116.443 55.9368 116.679 55.7006 116.994C55.5431 117.152 55.3856 117.23 55.2281 117.388C55.0706 117.467 54.9919 117.624 54.9131 117.782C54.7556 118.018 54.4407 118.175 54.2832 118.49C54.2832 118.569 54.2044 118.569 54.1257 118.648L53.8894 118.884C53.7319 119.042 53.4957 119.12 53.3382 119.199C53.0232 119.357 52.6295 119.514 52.3145 119.514C52.157 119.514 51.9996 119.514 51.8421 119.435C51.7633 119.357 51.6846 119.357 51.5271 119.278C51.4483 119.278 51.2908 119.199 51.2121 119.199C51.1333 119.199 51.1333 119.12 51.1333 119.12H51.0546C50.8971 119.042 50.8184 118.884 50.6609 118.805C50.5034 118.727 50.2671 118.648 50.1097 118.569C49.9522 118.569 49.7946 118.49 49.6372 118.412C49.4797 118.412 49.2435 118.412 49.086 118.412C48.9285 118.412 48.6922 118.412 48.5347 118.49C48.3773 118.569 48.2197 118.569 48.0622 118.648C47.6685 118.805 47.511 119.042 47.1961 119.278C46.9598 119.514 46.6449 119.672 46.3299 119.829C46.1724 119.908 46.0149 119.987 45.8574 120.144C45.6999 120.223 45.5424 120.223 45.4636 120.302C45.1487 120.459 44.7549 120.538 44.44 120.616C44.0462 120.695 43.6525 120.774 43.2588 120.853C43.1013 120.853 42.865 120.853 42.7075 120.853C42.55 120.853 42.3926 120.853 42.3138 120.853C42.1563 120.853 42.0776 120.853 41.9201 120.853C41.8413 120.853 41.7626 120.931 41.6839 120.931C41.6051 120.931 41.5263 120.931 41.3689 120.931C41.2901 120.931 41.2114 120.931 41.1326 120.931C40.9751 120.931 40.7389 120.931 40.6602 121.089C40.5814 121.246 40.5027 121.404 40.3452 121.64C40.2664 121.798 40.2664 121.955 40.3452 122.113C40.4239 122.27 40.5027 122.506 40.6602 122.664C40.8964 123.136 41.0539 123.609 41.2901 124.16C41.3689 124.396 41.7626 125.184 41.3689 125.341C41.2114 125.42 40.9751 125.341 40.8964 125.341C40.7389 125.341 40.5027 125.499 40.3452 125.499C39.8727 125.656 39.3215 125.262 39.0065 124.947C38.6128 124.633 38.219 124.396 37.7466 124.16C37.3528 124.003 36.9591 123.924 36.7229 123.53C36.6441 123.373 36.6441 123.215 36.8016 123.136C36.9591 123.058 37.1166 122.979 37.0378 122.821C36.9591 122.664 36.8804 122.506 36.7229 122.349C36.5654 122.191 36.4866 122.034 36.3292 121.876C36.0142 121.561 35.5417 121.64 35.3055 121.325C35.0692 121.089 34.9117 120.538 34.4392 120.774C34.2817 120.853 34.2818 121.01 34.1243 121.089C33.9668 121.168 33.8093 121.168 33.6518 121.168C33.4943 121.168 33.3368 121.325 33.3368 121.561C33.3368 121.719 33.4155 121.876 33.4943 122.034C33.573 122.191 33.5731 122.349 33.5731 122.506C33.5731 122.664 33.5731 122.9 33.5731 123.058C33.5731 123.215 33.573 123.451 33.4943 123.53C33.4155 123.688 33.1793 123.688 33.0218 123.688C32.8643 123.688 32.7068 123.766 32.6281 123.924C32.5494 124.003 32.4706 124.003 32.3131 123.924C32.1556 123.845 32.0769 123.845 31.9194 123.924C31.7619 124.003 31.6832 124.081 31.5257 124.003C31.3682 123.924 31.2107 123.688 31.1319 123.609C30.9744 123.451 30.8169 123.294 30.6595 123.136C30.502 123.058 30.4232 123.058 30.2657 123.136C30.1082 123.215 29.7933 123.136 29.557 123.058C29.3995 122.979 29.3208 122.664 29.3208 122.506C29.3208 122.349 29.3995 122.191 29.3995 122.034C29.4783 121.798 29.3995 121.561 29.3208 121.404C29.242 121.089 28.8483 121.089 28.6908 121.246C28.6121 121.325 28.5333 121.404 28.4546 121.561C28.3758 121.64 28.2971 121.64 28.1396 121.719C27.9033 121.719 27.6671 121.719 27.4309 121.64C27.2734 121.561 27.0372 121.64 26.8797 121.719C26.6434 121.876 26.6434 122.034 26.5647 122.27C26.4859 122.349 26.4859 122.428 26.4072 122.585C26.4072 122.664 26.3284 122.743 26.3284 122.9C26.2497 123.136 26.1709 123.215 25.9347 123.294C25.7772 123.294 25.4622 123.373 25.3835 123.53C25.3835 123.609 25.3835 123.688 25.3048 123.766C25.226 123.845 25.226 123.924 25.1473 123.924C24.9898 124.003 24.7535 124.081 24.5173 124.16C24.3598 124.239 24.1236 124.239 23.9661 124.16C23.7298 124.081 23.5723 124.003 23.3361 124.081C22.8636 124.239 22.3124 124.16 21.9187 124.003C21.6824 123.924 21.525 123.845 21.3675 123.688C21.21 123.53 20.9737 123.53 20.8162 123.373C20.6587 123.294 20.5013 123.215 20.3438 123.136C20.265 123.136 20.265 123.136 20.1863 123.136C20.0288 123.215 20.0288 123.53 19.8713 123.609C19.635 123.688 19.3201 123.609 19.0051 123.609C18.8476 123.53 18.6901 123.53 18.4539 123.451C18.5326 121.798 18.5326 118.097 18.2964 116.915C17.9814 115.577 16.9577 111.954 17.5089 111.167C17.9814 110.458 18.9263 110.301 17.5089 109.986C16.1702 109.671 16.0915 109.75 15.7765 108.49C15.4615 107.151 14.3591 102.977 14.2016 102.19C14.0441 101.403 13.5716 97.859 13.2566 96.914C12.8629 95.9691 12.0755 90.5356 11.9967 89.5119C11.918 88.567 10.7368 85.5746 10.0281 84.6297C9.3981 83.6847 8.61066 81.8736 8.76815 80.7711C8.92565 79.6687 11.0518 77.7001 9.94934 76.2826C9.08314 75.1015 8.29567 72.8178 7.74445 71.3217C8.84689 71.5579 10.0281 71.9516 10.8943 72.7391C11.288 73.1328 11.603 73.6053 11.918 73.999C12.0755 74.314 12.4692 74.3927 12.7842 74.5502C13.0204 74.7077 13.2566 74.7865 13.5716 74.944C13.8079 75.1015 14.1228 75.1015 14.3591 75.3377C14.7528 75.4164 15.0678 75.6527 15.3828 75.8889C15.8553 76.2826 16.4065 76.4401 16.9577 76.6764C17.5089 76.9914 17.9814 77.1489 18.5326 77.4638C19.0051 77.7001 19.3988 78.0151 19.7926 78.2513C20.1863 78.4875 20.6587 78.5663 21.1312 78.8025C21.6037 78.96 22.0762 79.1962 22.4699 79.4325C22.8636 79.59 23.0211 79.905 23.2574 80.2199C23.4936 80.5349 23.7298 80.9286 23.8873 81.3224C24.0448 81.7161 23.9661 82.1886 23.9661 82.5823C23.9661 83.0548 23.8086 83.291 23.4936 83.606C23.2574 83.921 23.1786 84.2359 23.3361 84.6297C23.4936 85.0234 23.8873 85.3384 24.1236 85.6534C24.3598 86.0471 24.596 86.5196 25.0685 86.6771C25.4622 86.8346 25.9347 86.6771 26.3284 86.5983C26.8009 86.5196 27.2734 86.5983 27.6671 86.4408C27.8246 86.3621 27.9821 86.2833 28.0609 86.2046C28.2971 86.1258 28.5333 86.1259 28.7696 86.0471C28.9271 85.9684 29.0845 85.9684 29.242 85.8896C29.3995 85.8109 29.4783 85.8109 29.6358 85.8109C29.7933 85.7321 29.9507 85.6534 30.1082 85.5746C30.6594 85.3384 31.2894 85.1022 31.9194 85.1022C32.3918 85.1022 32.8643 85.2597 33.4156 85.2597C33.7305 85.2597 33.9668 85.1809 34.2817 85.1809H35.148C35.463 85.1809 35.6992 85.1809 36.0142 85.1022C36.3291 85.0234 36.5654 84.8659 36.8804 84.7872C37.0379 84.7084 37.1954 84.7084 37.2741 84.7084C37.4316 84.7084 37.5891 84.551 37.7466 84.551C37.9828 84.4722 38.2978 84.4722 38.534 84.3934C39.0852 84.3147 39.6364 84.3147 40.1877 84.3147C40.5026 84.3147 40.8176 84.3147 41.1326 84.4722C41.4476 84.5509 41.6051 84.7084 41.8414 84.9447C42.1563 85.2597 42.6288 85.4959 43.0225 85.6534C43.4163 85.8109 43.7313 85.8109 44.2037 85.9684C44.7549 86.0471 45.2274 86.2833 45.8574 86.2833C46.1724 86.2833 46.4086 86.2833 46.6448 86.2046C46.9598 86.2046 47.1961 86.2046 47.5111 86.1259C47.9835 86.0471 48.2985 85.8109 48.771 85.8896C49.2434 85.9684 49.7159 85.7321 50.1097 85.6534C50.4246 85.5746 50.7396 85.4959 51.0546 85.2597C51.2121 85.0234 51.3696 84.7872 51.5271 84.551C51.7633 84.236 52.0783 83.921 52.3933 83.606C52.7082 83.3698 52.8657 83.0548 53.102 82.7398C53.3382 82.4248 53.5745 82.1098 53.8894 81.8736C54.1257 81.7161 54.3619 81.5586 54.6769 81.4011C55.0706 81.2436 55.3856 81.1649 55.7794 81.1649C55.9368 81.1649 56.173 81.1649 56.3305 81.1649C56.488 81.1649 56.6456 81.1649 56.803 81.1649C57.1968 81.3224 57.5117 81.6374 57.8267 81.7949C58.1417 82.0311 58.378 82.4248 58.7717 82.661C59.0867 82.8185 59.3229 83.0548 59.5591 83.291C59.8741 83.606 60.1103 83.921 60.4253 84.2359C60.5828 84.3934 60.8191 84.5509 60.9766 84.7084C61.134 84.8659 61.2915 85.0234 61.449 85.1809C61.6065 85.3384 61.764 85.4959 61.9215 85.5746C62.079 85.7321 62.1578 85.8896 62.3152 86.0471C62.4727 86.3621 62.7877 86.4408 63.0239 86.6771C63.3389 86.9133 63.4964 86.992 63.8902 86.992C64.5989 87.0708 65.3076 86.9921 66.0163 87.0708C66.725 87.1495 67.1187 87.937 67.6699 88.3307C68.2999 88.8032 68.7724 89.4332 69.4811 89.9056C69.7961 90.1419 70.1111 90.2994 70.426 90.5356C70.5835 90.6931 70.741 90.8506 70.9773 90.8506C71.1348 90.7719 71.2922 90.6931 71.4497 90.5356C71.8435 90.0631 72.2372 89.6694 72.6309 89.1969C72.7884 89.0395 73.0246 88.882 73.1821 88.8032C73.4184 88.6457 73.5759 88.4882 73.8121 88.3307C74.5208 87.7795 75.1508 87.1495 75.6232 86.3621C75.7807 86.1259 75.9383 86.0471 76.0957 86.1259C76.1745 86.1259 76.332 86.2046 76.4107 86.2833C76.4894 86.4408 76.5682 86.5983 76.7257 86.7558C76.8044 86.9133 76.8832 86.9921 77.0407 87.1495C77.1194 87.2283 77.1982 87.3858 77.3557 87.4645C77.5131 87.5433 77.6707 87.622 77.6707 87.7795C77.6707 87.937 77.5919 88.0945 77.5132 88.252C77.4344 88.4095 77.3557 88.567 77.2769 88.7245C77.1982 89.0394 77.1194 89.7482 77.3557 89.9844C77.5131 90.1419 77.6706 90.1419 77.9069 90.1419C78.2219 90.2206 78.5368 90.4569 78.7731 90.6144C79.0881 90.7718 79.4818 91.0081 79.7968 91.2443C79.9543 91.3231 80.1118 91.4806 80.2693 91.6381C80.348 91.7168 80.348 91.8743 80.4268 92.0318C80.5842 92.4255 80.5843 92.6617 80.5843 92.9767C80.5843 93.3705 80.348 93.6067 80.348 93.9217C80.348 94.2367 80.2692 94.6304 80.348 94.9454C80.4267 95.2604 80.5055 95.5753 80.663 95.8903C80.8992 96.3628 81.2142 96.6778 81.6079 96.914C81.6079 97.0715 82.0804 97.3077 82.3166 97.7015Z" fill="#248CF9"/>
</svg>
