<svg xmlns="http://www.w3.org/2000/svg" xmlns:xlink="http://www.w3.org/1999/xlink" viewBox="0 0 116.07 49.34"><defs><style>.cls-1{isolation:isolate;}.cls-2{fill:#7c4011;}.cls-3{fill:url(#radial-gradient);}.cls-4{fill:url(#radial-gradient-2);}.cls-5{fill:#d9b691;}.cls-6{fill:#e2cbac;}.cls-7{fill:#fe9100;}.cls-8{fill:#d17a00;opacity:0.5;mix-blend-mode:multiply;}.cls-9{fill:#ffba1a;}.cls-10{fill:#f27a02;}.cls-11{fill:#af561d;}.cls-12{fill:#c86c31;}.cls-13{fill:#ffd745;}.cls-14{fill:url(#radial-gradient-3);}</style><radialGradient id="radial-gradient" cx="35.54" cy="-5.64" r="42.11" gradientTransform="translate(8.65) scale(1.41 1)" gradientUnits="userSpaceOnUse"><stop offset="0" stop-color="#c96"/><stop offset="0.22" stop-color="#c6915c"/><stop offset="0.58" stop-color="#b77b43"/><stop offset="1" stop-color="#a05c1d"/></radialGradient><radialGradient id="radial-gradient-2" cx="36.68" cy="5.57" r="31.39" gradientTransform="translate(8.33) scale(1.41 1)" gradientUnits="userSpaceOnUse"><stop offset="0" stop-color="#a05c1d"/><stop offset="1" stop-color="#b2743a"/></radialGradient><radialGradient id="radial-gradient-3" cx="59.93" cy="5.57" r="39.1" gradientTransform="matrix(1, 0, 0, 1, 0, 0)" xlink:href="#radial-gradient-2"/></defs><g class="cls-1"><g id="Layer_2" data-name="Layer 2"><g id="Layer_1-2" data-name="Layer 1"><path class="cls-2" d="M58,10.39c-25.64,0-58,3.12-58,13.87,0,6.61,14.76,9.67,27.8,19.12,5.7,4.13,20.31,5.95,30.2,6s24.51-1.83,30.21-6c13-9.45,27.8-12.51,27.8-19.12C116,13.51,83.68,10.4,58,10.39Z"/><ellipse class="cls-3" cx="58.03" cy="24.26" rx="58.03" ry="16.3"/><ellipse class="cls-4" cx="58.03" cy="24.26" rx="58.03" ry="16.3"/><ellipse class="cls-5" cx="58.03" cy="23.75" rx="55.8" ry="15.16"/><path class="cls-6" d="M30.35,36.9A182.73,182.73,0,0,0,58,38.9a182.77,182.77,0,0,0,27.69-2C82.41,33.59,71.28,31.15,58,31.15S33.66,33.59,30.35,36.9Z"/><path class="cls-7" d="M82.35,10.91c2,1.06.87,5.64.05,7.18a19.51,19.51,0,0,1-5.67,6.77C73.41,27.1,70,29.28,66,30.4a16.35,16.35,0,0,1-12.72-1.1c-6.58-3.14-13.33-8-14.79-15.87-.21-1.12-1-3.65-.32-4.65.87-1.33,4.6-1.54,6-1.77,8.06-1.33,16.07-1.28,24-1,3.4.1,7.12.75,10,2.69A37.64,37.64,0,0,0,82.35,10.91Z"/><path class="cls-8" d="M40.36,14.47c-.12,4.83,7.33,9.93,10.87,12A23.14,23.14,0,0,0,58.87,29a9.68,9.68,0,0,0,4.28.2c1.45-.35,2.33-1.39.72-2.42-1.41-.9-4-.94-5.65-1.51-1.21-.41-4-1-4.77-2.14-1.33-2.08,2.43-.52,3.26-.35,1.4.3,5,.86,6.19-.09C65,21,61.17,20.27,60,20.21a49.63,49.63,0,0,1-7.31-.42c-3.62-.72-6.81-1.43-10.11-3.39C41.84,16,40.66,15.26,40.36,14.47Z"/><path class="cls-8" d="M81.19,16.4a23.11,23.11,0,0,1-10.48,3.5c-1.09.09-3.45,0-3.74,1.34-.39,1.85,2.69.51,3.49,1.57-.87,1.48-3.76.83-5.25.9C65,25,67.27,27.55,68.4,27.84c1.72.44,4-1.65,5.19-2.86a29.49,29.49,0,0,1,5-4.05,5.66,5.66,0,0,0,2-2.14C80.94,18.06,80.75,17,81.19,16.4Z"/><path class="cls-9" d="M37.45,10c-.43-2.64,3.08-4.8,5.13-5.58,3.66-1.4,7.78-2.05,11.54-3,7.15-1.72,16.11-2.84,22.44,1.8,3,2.2,6.09,2.62,7.65,6.45,1.06,2.61.57,5.33-2.19,6.1a73.62,73.62,0,0,1-8.44,1.6c-3.6.55-7,1.35-10.85,1.09a52.09,52.09,0,0,0-7.93-.4c-2.55.21-4.94.26-7.42-.92-2.15-1-4.23-2.05-6.47-3.05C39.07,13.35,36.12,12,37.45,10Z"/><path class="cls-10" d="M43,6c2.42-1.8,7.42-2,10.38-2.43,3.72-.51,7.27-2,11-2,2.92,0,6,1.26,8.71,2.5,2.36,1.09,5.8,2.36,7.43,4.49,2.47,3.23-1.57,5.5-4.09,6,1-1.15,2.1-2.25,2.07-3.9,0-2.23-2-2.61-3.89-3.18a31,31,0,0,1-6-2.27c-1.83-1-3.48-1.6-5.5-1-1.86.57-3.32,1.93-5.31,2.25a20,20,0,0,1-6.44-.37A17.82,17.82,0,0,0,47,5.6C45.79,5.7,44.28,6.59,43,6Z"/><path class="cls-10" d="M52.82,7.46c-2.88-.09-7-1-9.63.26-4.66,2.19-.14,5.91,2.65,7.29,4.48,2.22,9.91,1.2,14.48,1.08,2.61-.07,5.17.23,7.76.19,1.87,0,4.42.22,6.14-.57,2.91-1.35,3.18-4.61.11-6.09-3.66-1.77-10-2.73-13.81-1.23,1.18,1.11,3.8.85,5.33,1A12.72,12.72,0,0,1,71.52,11c2,1.37,1,3.06-1.06,3.45-2.89.53-5.82-.51-8.74-.57-4-.08-8.24.13-12.36-.28-2.54-.25-8-3.37-3.15-4.61C48.05,8.48,51.55,8.88,52.82,7.46Z"/><path class="cls-10" d="M69.05,12.51c-5.62-2.32-12.08-2.4-17.81-1.19-1.31.27-3.14,1.32-.9,2.18,1.23.47,3.25,0,4.41-.26a21.87,21.87,0,0,1,8-.56c2.29.28,4.69.11,7,.16C69.63,12.84,69.18,12.51,69.05,12.51Z"/><path class="cls-11" d="M55.9,4.29A18.16,18.16,0,0,1,63.5,2.8C66.29,2.91,68.47,4,71,5c1,.37,3,.51,2.29,2.11C72.67,8.51,69.21,8.19,68,8c-2.87-.4-5.14-2.19-8.18-2-1,.07-2.79.69-3.71,0S54.82,4.74,55.9,4.29Z"/><path class="cls-11" d="M53.58,6.14c-2.38,0-10.35,1.94-8.59,5.7,2.16,4.63,9.78,3.06,13.1,1.87.31-2.85-7.16-1.9-8.68-2.88C47.61,9.67,49.94,9.63,51,9,51.68,8.52,54.66,7.11,53.58,6.14Z"/><path class="cls-11" d="M69.11,10.55c2.25-.22,11.46-3.76,11.48.93s-12.32,4.84-12.31,3.45c1.28-.6,5.68-1.1,6.29-2.49C75.1,11.23,70.28,11.12,69.11,10.55Z"/><path class="cls-11" d="M56,8.45c2.45-1.08,6.37,1.15,8.86,1.68,2.84.62,5.71,3,1.78,4.55-1.1.43-3.71,1.73-4.66.25s1.33-2.35.92-3.45-3.41-1-4.25-1.16a38.39,38.39,0,0,1-4.18-1.14C54.58,8.37,55.27,8.76,56,8.45Z"/><path class="cls-12" d="M58.25,4.37c1.32-1.58,4.26-1.05,6-.62A12.94,12.94,0,0,1,67.37,5c.57.3,2.91.73,3.17,1.24,1.06,2.08-4.7.15-5.41-.24A11.88,11.88,0,0,0,58.25,4.37Z"/><path class="cls-12" d="M51.71,7.52c-1.46.37-4.45,2-3.12,3.81A6.23,6.23,0,0,0,51.68,13c.92.24,2.66-.14,3.3.67-1.89,1.19-7.3.37-8.46-1.88C44.91,8.66,50.08,8.14,51.71,7.52Z"/><path class="cls-12" d="M64.08,10.58c1.5.35,4.28,1.41,2,3-.65.45-2.35,1-2.56-.17S64.8,12,64.08,10.58Z"/><path class="cls-12" d="M74.06,9.91c1.21,0,5.09-1.05,5.5.61.46,1.85-3.35,3.66-4.7,3.42.17-.92,1.75-1.32,1.43-2.42C76.09,10.85,74.6,10.16,74.06,9.91Z"/><path class="cls-13" d="M69.32,2.38c2.21-.16,5,1.29,6.92,2.33,1,.51,5.81,3,3.46,3.82-1.6.57-3.9-2-5.06-2.85a20.59,20.59,0,0,0-2.42-1.81A13.71,13.71,0,0,1,69.32,2.38Z"/><path class="cls-13" d="M47.32,4.16C48.9,3,51.8,3.1,53.8,3.28c.09,1.94-4.5,2.11-5.79,2.39-2.55.57-2.81,2-4.46,3.68-.62.64-1.15,1.32-1.77,0-.53-1.11.45-1.47,1.11-2.11C44.74,5.49,45.27,5.61,47.32,4.16Z"/><path class="cls-13" d="M44.66,12.48a15,15,0,0,0,6.12,2.7c.75.16,5.86.69,3.35,1.8-1.42.64-4.77-.82-6.22-1.23C47,15.5,42.15,12.13,44.66,12.48Z"/><path class="cls-13" d="M64.62,15.92c1.41-.51,3.59-.09,5.11-.06,1.06,0,3.73-.66,4.4.08-.91,1.74-4.68.83-6.31,1-.66.06-1.86.7-2.58.28C64.22,16.6,63.73,16.24,64.62,15.92Z"/><path class="cls-13" d="M67.26,8.78c1.17-.48,6.14.38,5.9,2.48-1.66.11-4.74-.68-5.9-2C67.36,9.11,67.11,8.84,67.26,8.78Z"/><path class="cls-13" d="M56.57,6.23c.94-.62,6.77-1,5.3.77-.6.72-2.58.19-3.41.25-1.06.08-2.17.66-3.25.52C55.09,6.88,55.94,6.65,56.57,6.23Z"/><path class="cls-13" d="M53.82,10a41.07,41.07,0,0,0,6,1.12c.8.06,6.06-.2,5.07,1.35-.65,1-5.92.6-7.08.49a7.09,7.09,0,0,1-2.78-.7C54.34,11.89,52.06,9.59,53.82,10Z"/><path class="cls-13" d="M78,13.1c.84-.63,1.76-2,2.6-2.44,1.3-.66,2.1.56,1.63,1.93a4.29,4.29,0,0,1-2.78,2.2C78.23,15.07,76.6,14.12,78,13.1Z"/><path class="cls-7" d="M10.67,18.57c-2.08,1-.89,5.52,0,7.05a20,20,0,0,0,5.85,6.76c3.38,2.23,6.84,4.4,10.83,5.51a16.08,16.08,0,0,0,12.46-1C46,33.85,52.17,29.26,53.29,22c.15-1,.77-3.35.14-4.29-.83-1.25-4.27-1.54-5.55-1.79-7.59-1.48-15.25-1.67-23-1.69-3.36,0-7.07.5-9.94,2.29A37,37,0,0,1,10.67,18.57Z"/><path class="cls-8" d="M51.63,22.92c.26,4.51-6.59,9.25-9.91,11.22a21.85,21.85,0,0,1-7.34,2.4,9.65,9.65,0,0,1-4.21.19c-1.44-.35-2.32-1.37-.74-2.37,1.37-.87,3.93-.89,5.52-1.43,1.16-.39,3.89-.92,4.57-2,1.22-2-2.36-.52-3.16-.36-1.35.27-4.85.78-6-.16C28.21,28.74,32,28.06,33.14,28a48.62,48.62,0,0,0,7-.31c3.43-.63,6.43-1.25,9.46-3C50.3,24.3,51.37,23.65,51.63,22.92Z"/><path class="cls-8" d="M11.88,24a24.25,24.25,0,0,0,10.65,3.6c1.1.11,3.44.05,3.74,1.36.41,1.8-2.67.46-3.46,1.49.88,1.46,3.77.85,5.25.93.2,1.24-2,3.74-3.13,4-1.72.42-4.06-1.65-5.25-2.84a30.94,30.94,0,0,0-5.1-4.06,5.79,5.79,0,0,1-2.07-2.13C12.14,25.62,12.33,24.53,11.88,24Z"/><path class="cls-9" d="M54.18,18.87c.3-2.41-3-4.51-4.89-5.28-3.44-1.4-7.3-2.15-10.88-3.12-6.87-1.86-15.62-3.26-21.89.91-3,2-6.16,2.32-7.76,6-1.1,2.53-.59,5.22,2.26,6a80.78,80.78,0,0,0,8.6,1.73c3.62.59,7.06,1.42,10.8,1.23a51.8,51.8,0,0,1,7.69-.26c2.45.24,4.72.33,7-.75,2-.93,3.91-1.85,6-2.74C52.79,21.9,55.45,20.76,54.18,18.87Z"/><path class="cls-10" d="M48.93,15c-2.29-1.74-7-2.11-9.78-2.58-3.56-.6-7-2.11-10.62-2.22-2.86-.08-5.91,1-8.55,2.07-2.36,1-5.82,2.08-7.47,4.09-2.52,3.08,1.62,5.39,4.19,5.94-1-1.15-2.15-2.24-2.12-3.85,0-2.16,2-2.47,3.9-3a30.3,30.3,0,0,0,6-2c1.79-.89,3.39-1.4,5.37-.75,1.81.6,3.25,1.93,5.17,2.29a19.32,19.32,0,0,0,6.12-.15,16.16,16.16,0,0,1,4-.34C46.34,14.65,47.77,15.52,48.93,15Z"/><path class="cls-10" d="M39.78,16.08c2.71,0,6.52-.72,9,.51,4.36,2.14.29,5.49-2.27,6.73-4.18,2-9.39.95-13.81.75-2.55-.12-5.07.13-7.63,0-1.86-.06-4.41.14-6.15-.66-2.95-1.37-3.24-4.56-.15-5.91,3.64-1.59,9.88-2.31,13.6-.79-1.13,1-3.69.7-5.18.79a12.46,12.46,0,0,0-5.6,1.38c-2,1.28-1,2.93,1.1,3.35,2.87.58,5.75-.37,8.61-.36,3.91,0,8,.3,11.85,0,2.39-.18,7.4-3,2.85-4.24C44.3,17.17,41,17.45,39.78,16.08Z"/><path class="cls-10" d="M24.11,20.46a30.14,30.14,0,0,1,17.25-.72c1.24.29,3,1.31.9,2.07-1.15.42-3.09-.07-4.2-.34a21.67,21.67,0,0,0-7.8-.71c-2.23.22-4.61,0-6.86,0C23.54,20.76,24,20.46,24.11,20.46Z"/><path class="cls-11" d="M36.78,13a18.49,18.49,0,0,0-7.35-1.65c-2.72,0-4.84,1-7.35,1.81-1,.32-3,.39-2.26,1.94s4.08,1.18,5.29,1.06c2.82-.3,5-1.93,8-1.62.93.09,2.7.72,3.57.15S37.82,13.47,36.78,13Z"/><path class="cls-11" d="M39,14.82c2.25.07,9.76,2.11,8.23,5.55-1.91,4.3-9.19,2.67-12.41,1.48-.35-2.72,6.82-1.64,8.23-2.53,1.66-1-.53-1.13-1.5-1.76C40.88,17.1,38,15.71,39,14.82Z"/><path class="cls-11" d="M24,18.57c-2.25-.27-11.55-3.94-11.55.6,0,4.74,12.44,5,12.42,3.63-1.28-.6-5.69-1.18-6.31-2.54C18,19.08,22.87,19.08,24,18.57Z"/><path class="cls-11" d="M36.78,16.92c-2.37-1.08-6.13.92-8.55,1.36-2.79.51-5.61,2.73-1.69,4.31,1.09.44,3.67,1.74,4.58.34s-1.34-2.28-.95-3.31,3.3-.82,4.1-1a34.14,34.14,0,0,0,4-1C38.12,16.89,37.47,17.24,36.78,16.92Z"/><path class="cls-12" d="M34.53,13c-1.3-1.52-4.13-1.12-5.85-.78a12.13,12.13,0,0,0-3,1.09c-.56.26-2.87.6-3.12,1.08-1,1.95,4.64.28,5.33-.07A11.43,11.43,0,0,1,34.53,13Z"/><path class="cls-12" d="M40.83,16.17c1.39.38,4.24,2,3,3.64A5.67,5.67,0,0,1,41,21.28c-.87.2-2.54-.2-3.14.56,1.84,1.16,6.95.49,8-1.58C47.24,17.41,42.38,16.8,40.83,16.17Z"/><path class="cls-12" d="M29,18.72c-1.47.31-4.2,1.25-1.92,2.81.65.45,2.33,1,2.52-.11S28.29,20,29,18.72Z"/><path class="cls-12" d="M19.08,17.82c-1.21-.06-5.14-1.15-5.55.45-.46,1.79,3.41,3.64,4.78,3.43-.18-.89-1.78-1.32-1.46-2.38C17,18.68,18.54,18.05,19.08,17.82Z"/><path class="cls-13" d="M23.73,10.77c-2.19-.23-4.92,1.05-6.87,2-1,.46-5.88,2.68-3.48,3.57,1.62.6,3.93-1.78,5.09-2.59a19.7,19.7,0,0,1,2.4-1.65A13.27,13.27,0,0,0,23.73,10.77Z"/><path class="cls-13" d="M44.88,13.17c-1.5-1.08-4.23-1.12-6.13-1,0,1.81,4.31,2.1,5.52,2.41,2.4.59,2.68,1.91,4.26,3.53.59.61,1.1,1.25,1.64.07.46-1-.46-1.38-1.09-2C47.32,14.48,46.83,14.58,44.88,13.17Z"/><path class="cls-13" d="M47.58,21a13.41,13.41,0,0,1-5.69,2.41c-.72.14-5.59.55-3.16,1.65,1.38.63,4.52-.69,5.89-1.05C45.47,23.75,49.91,20.71,47.58,21Z"/><path class="cls-13" d="M28.53,23.82c-1.4-.51-3.55-.15-5.07-.15-1.05,0-3.73-.71-4.4,0,.92,1.71,4.69.89,6.32,1,.65.06,1.85.7,2.56.31C28.93,24.49,29.4,24.15,28.53,23.82Z"/><path class="cls-13" d="M25.83,16.92c-1.16-.49-6.09.2-5.83,2.23,1.66.15,4.71-.53,5.84-1.78C25.74,17.24,26,17,25.83,16.92Z"/><path class="cls-13" d="M36.18,14.82c-.92-.62-6.56-1.16-5.1.56.59.71,2.5.27,3.29.34,1,.1,2.11.69,3.14.58C37.61,15.47,36.79,15.23,36.18,14.82Z"/><path class="cls-13" d="M38.88,18.42a41,41,0,0,1-5.7.91c-.77,0-5.91-.34-4.92,1.16.65,1,5.78.71,6.9.63a6.73,6.73,0,0,0,2.66-.6C38.43,20.21,40.54,18.1,38.88,18.42Z"/><path class="cls-13" d="M15.18,20.82c-.87-.63-1.81-2-2.67-2.44-1.33-.68-2.14.49-1.65,1.84a4.46,4.46,0,0,0,2.85,2.22C14.9,22.73,16.54,21.84,15.18,20.82Z"/><path class="cls-7" d="M75.26,13.06c1.82-1.19,5.31-1.68,7.45-2A27.09,27.09,0,0,1,90,11a28.28,28.28,0,0,1,12.79,4.94c1.56,1.14,3.75,2.8,4.41,4.71s-.82,4.11-2,5.67c-1.4,1.92-3,3.72-4.53,5.6a18.34,18.34,0,0,1-5.15,5c-2.87,1.56-6.35,1.82-9.6,2a24.35,24.35,0,0,1-9.12-1c-3.22-1.1-6.33-3.48-9-5.66-2.35-1.92-5-4.59-6-7.46C59.68,17.93,70.84,15.94,75.26,13.06Z"/><path class="cls-9" d="M65.61,16.41a48.29,48.29,0,0,1,6.68-3.18c2.27-.93,4.23-2.27,6.59-2.78a34.87,34.87,0,0,1,13.69.17c5.46,1.2,11.19,3.2,14.2,8,.92,1.46,2.46,3.59.94,5.12-1.72,1.72-4.91.93-6.7,2.51a27.93,27.93,0,0,0-2.24,2.9A10.22,10.22,0,0,1,95.2,31.9C92,33.43,87.54,33.17,84,32.45c-2.08-.42-3.83-1.69-6-2.33-2.46-.73-4.84,0-7.34-.94-3.2-1.26-6.9-1.35-8.94-4.39C60,22.07,61,15.73,65.61,16.41Z"/><path class="cls-10" d="M70,16.16c.7-.81,2.67-1.12,3.67-1.51a37.5,37.5,0,0,1,5.22-1.45,25.27,25.27,0,0,1,8.08-.54,49.35,49.35,0,0,1,8.92,1.13,13.48,13.48,0,0,1,6.82,4.35c1.35,1.47,2.41,3.32.74,5s-4.29,1.66-6,3.38a9.1,9.1,0,0,1-5.14,3c-2.73.5-5.34-.15-8.07-.92a20.09,20.09,0,0,0-6.31-.75c-2.74.05-6,.07-8.67-.89a10,10,0,0,1-4.41-3c-.52-.69-1.49-2.56-.78-3.22,1.06,2.05,1.47,3.81,4.15,4.4a26,26,0,0,0,9.14.06,15.84,15.84,0,0,1,4.6-.35c1.55.21,3,.94,4.5,1.24,3.61.74,6.44-.4,9.76-1.08,2.2-.46,6.21-2.76,3.92-5.38-2.5-2.85-6.05-2.72-9.48-2.74-3,0-5.78-1.15-8.85-1.34a43.93,43.93,0,0,0-8.19.28C72.79,16,70.46,16.87,70,16.16Z"/><path class="cls-10" d="M94.76,18.59c-2-.26-3.86-.09-5.86-.59a34.15,34.15,0,0,0-6.41-.91c-3.49-.21-7.51-.78-10.83.75-2.43,1.12-6.35,3.93-1.86,5.74,4,1.62,7.38-.49,11.22-.65,1.46-.05,2.93.11,4.37.17s2.6.72,4,1c2.33.4,5.21.45,6.35-2-2.54,1.79-6.21.83-9.1.33-3.17-.55-6.66-.27-10-.14-1.34,0-2.66.2-4,.17s-2.33-.67-1.15-1.91c1-1.09,3.51-1.46,4.88-1.58a20.56,20.56,0,0,1,6.68.65A17.78,17.78,0,0,0,94.76,18.59Z"/><path class="cls-10" d="M77.93,20.15c4.55.23,9,1.31,13.4.71,1.92-.27,4.6-1.55,6.49-.93.73.25,1.16,1,.41,1.54s-1.55,0-2.22-.21c-1.4-.35-2.74.38-4.15.54a23.66,23.66,0,0,1-7.18-.42Z"/><path class="cls-10" d="M79.35,21c-1.06,0-4.68-1.74-5.41-.39C73.1,22.19,78.74,21.07,79.35,21Z"/><path class="cls-11" d="M80,13.86c2.5.09,5-.27,7.44.48.8.25,1.7.55,1.12,1.48s-2.42.83-3.37.77a29.62,29.62,0,0,0-4-.22c-1,.05-2.62.36-3.49-.32s-.45-1.31.24-1.82c1.36-1,2.61-.27,4.2-.23Z"/><path class="cls-11" d="M70.39,17.92c.81,0,3.5,0,3.93.83S72.48,20.2,72.14,21c-.61,1.36,2.65,3.31.08,3.64-1.49.19-3.11-.77-4.46-1.29-1.09-.43-2.51-.62-2.72-1.87C64.53,18.49,68.56,17.81,70.39,17.92Z"/><path class="cls-11" d="M93.91,16.26A10.43,10.43,0,0,1,99,16.8a16.17,16.17,0,0,1,1.7,1.13,23.71,23.71,0,0,0,3,1.12c1.11.47,2.73,1.45,1.69,2.8a2.14,2.14,0,0,1-2.09.71,8.27,8.27,0,0,0-3,.33c-.92.25-2.63.8-2.25-.77.16-.66,1.38-1.51.92-2.09s-2.78-.48-3.57-.92c-.38-.21-1.75-1.22-1.67-1.79C93.81,17.05,93.67,16.29,93.91,16.26Z"/><path class="cls-11" d="M92.2,25.85c.86,0,3.56-.31,4.13.62.86,1.39-2.7,2.1-3.41,2.27a4,4,0,0,1-3.71-.51,6.81,6.81,0,0,0-3.87-.77c-.7.06-2.92.76-2.67-.69.2-1.13,2.55-1.28,3.37-1.24a7.84,7.84,0,0,0,1.51.13c.58-.1.88-.51,1.54-.5A12.85,12.85,0,0,0,92.2,25.85Z"/><path class="cls-11" d="M77.53,19c1.7.09,3.8-.64,5.38-.21,1.86.52.39,1.78-.65,2.24a10,10,0,0,1-5.59.35c-.56-.16-1-.19-.71-1.08S76.6,19,77.53,19Z"/><path class="cls-11" d="M89.08,21.69c.65,0,1.29.08,1.94.09a12.16,12.16,0,0,1,2.74-.15c1.92.54.64,2-.72,2.14-.65.05-1.32-.06-2,0s-1.25.37-1.87,0C88.12,23.18,87.65,21.62,89.08,21.69Z"/><path class="cls-11" d="M76.13,23.46c1.61.5,3.09-.21,4.63.1,2,.4.86,1.57-.37,1.93a7.2,7.2,0,0,1-3.88.08C75,25.06,74.81,23.88,76.13,23.46Z"/><path class="cls-11" d="M87,18.37a14.15,14.15,0,0,1,3.68-.08c1.12.06,1.68.9.36,1.28a13,13,0,0,1-3.58,0C86.06,19.46,85.51,18.74,87,18.37Z"/><path class="cls-8" d="M64.2,27.55c3.82,1.3,7.48,2.78,11.16,3.63a45.42,45.42,0,0,1,5.1,1.43c2.16.75,4.22,1,6.32,1.52-1.9.66-4.73.19-6.69-.21-1.47-.3-3.46-1-5-.74,1.59,1.79,6.07,2.57,8.37,2.8,1.55.16,5.34-.35,6.29,1-1.51,1.56-5.8,1-7.75.58-2.65-.6-5.32-1-7.73-2.49-2-1.19-3.54-3-5.57-4.15C67.37,30.1,64.86,28.94,64.2,27.55Z"/><path class="cls-8" d="M98.84,30.75c1.63-1.84,3.15-4.4,5.78-4.42-.88,1.17-2.14,2-3.06,3.17S99.93,32,99.05,33.25a8.85,8.85,0,0,1-3.49,2.93c-.84.33-3.88.92-4.58.22.65-.62,2.15-.53,3-.83a24.46,24.46,0,0,0,2.77-1.35,32.17,32.17,0,0,0-3.65.14c-.88,0-4,.75-4.9.41C88.23,34.73,96.9,33,98.84,30.75Z"/><path class="cls-12" d="M95,17c1.12,0,2-.27,3.09.34,1.26.73,2.34,1.63,3.63,2.29.81.42,2.89.55,3.36,1.4.65,1.17-3.07.53-3.7.56-.37,0-2.52.8-2-.22.17-.34.78-.29.94-.7s-.29-.92-.64-1.17a7.78,7.78,0,0,0-3-1.06C96.38,18.35,94.12,17.79,95,17Z"/><path class="cls-12" d="M79.19,14.37a27.5,27.5,0,0,1,4.06-.06c1,.07,3,.09,3.85.71,1,.76-.47.64-1,.61-.88-.06-1.73-.18-2.61-.24l-2.4-.16c-.37,0-1.7.2-2-.05A.51.51,0,0,1,79.19,14.37Z"/><path class="cls-12" d="M77.52,19.76c.86-.15,1.82-.09,2.69-.19a3.64,3.64,0,0,1,2.12.12c.13,1-2.61,1.14-3.25,1.13a4.49,4.49,0,0,1-1.64-.13C76.73,20.36,76.81,19.88,77.52,19.76Z"/><path class="cls-12" d="M66.33,19.87a5.75,5.75,0,0,1,3.41-1.06,4.27,4.27,0,0,1,1.78.15c1,.41.42.71-.23,1.09-1.45.84.72,2.64-.93,2.8-1.25.12-4.1-.48-4.5-1.84C65.73,20.54,65.69,19.91,66.33,19.87Z"/><path class="cls-12" d="M89.06,22.17a23,23,0,0,0,2.5-.06c.37,0,2.48-.17,1.82.63-.37.44-2,.27-2.55.35C90.44,23.14,88.5,23.16,89.06,22.17Z"/><path class="cls-12" d="M84.41,26.18a8.26,8.26,0,0,1,2.49-.11,18,18,0,0,1,2.45.08,19.29,19.29,0,0,0,2.74.43,10.78,10.78,0,0,1,2.79.17c0,.66-1.58,1-2.1,1.05a7.63,7.63,0,0,1-3.14-.66c-1.63-.54-3.36-.11-5-.45C84.51,26.55,84.34,26.32,84.41,26.18Z"/><path class="cls-12" d="M76.36,24c.88,0,1.72.15,2.6.1.48,0,2.05,0,1.14.69a5,5,0,0,1-2.79.29,1.85,1.85,0,0,1-.94-.43C76.14,24.42,75.76,24,76.36,24Z"/><path class="cls-12" d="M87.39,18.78c.43-.29,3.86-.5,3.74.15s-3.61.43-4,0C87.18,18.87,87.29,18.85,87.39,18.78Z"/><path class="cls-13" d="M84.24,12.13c5.31.39,10.74.93,15.52,2.78.55.22,1.93,1.11.65,1.2s-2.9-.75-4.16-1.17a34.85,34.85,0,0,0-6.91-1.58c-1.24-.15-2.52-.08-3.78-.29C85.22,13,83.62,12.7,84.24,12.13Z"/><path class="cls-13" d="M95.64,24.5c1-.81,2.23-.59,3.45-.48s2.12-.12,3.18-.11c.34,0,1.73-.17,1.44.43s-2.26.52-2.8.75a3.21,3.21,0,0,1-2.36.23c-.6-.17-.82-.59-1.45-.57C96.71,24.76,95.45,25.34,95.64,24.5Z"/><path class="cls-13" d="M81.46,27.9a12.73,12.73,0,0,1,2.49.54,20.08,20.08,0,0,0,3.28.21,5,5,0,0,1,2.29.5c.46.24,1.15.82.48,1.18-.86.47-2.59-.26-3.58-.23a10.38,10.38,0,0,1-2.66-.19,3.78,3.78,0,0,1-2-.63C81.23,28.74,80.51,27.92,81.46,27.9Z"/><path class="cls-13" d="M69.39,25.78c1,.15,2,.43,3,.51a16.09,16.09,0,0,1,2.94.28c.4.1,1.37.31,1.37.86s-1.26.6-1.72.6c-1.79,0-3.31-.81-5-1-.47,0-1.2.15-1.42-.38S69.09,25.91,69.39,25.78Z"/><path class="cls-13" d="M68.53,16.41c1.7-.19,3.16-1.37,4.8-1.53.54-.05,2.62.07,2,1-.41.57-2.13.54-2.78.73s-1.41.67-2.18.83C69,17.69,67.87,17.59,68.53,16.41Z"/><path class="cls-13" d="M81.85,17.28a32,32,0,0,1,4.6-.37,5.64,5.64,0,0,1,2.34-.13c.69.28.36.72-.2.88a24.34,24.34,0,0,1-4.54.33,7.12,7.12,0,0,1-2,0C81.53,17.91,81.09,17.48,81.85,17.28Z"/><path class="cls-13" d="M81.22,22.59a21.63,21.63,0,0,1,4.45.87c.52.16,2.51.36,2.49,1.11-1.46,0-3.23.12-4.5-.63-.57-.34-2.7-.6-2.77-1.35C81,22.59,81.14,22.58,81.22,22.59Z"/><path class="cls-13" d="M92.62,20.55a6.16,6.16,0,0,1,3.07-.41c.41,0,2.5.22,1.72.89-.49.43-2.4.07-3.09.1a11.23,11.23,0,0,1-2.09,0C92.18,20.74,92.32,20.47,92.62,20.55Z"/><path class="cls-13" d="M83.12,21c.56-.15,4.64-.89,4.68.1s-2.85.46-3.37.48c-.22,0-.68.25-.92.1S82.82,21.12,83.12,21Z"/><path class="cls-13" d="M74.71,17.53a6,6,0,0,1,3-.23c.59,0,2.42.36,1.16.88a8.55,8.55,0,0,1-3,0c-.18,0-.91.05-1-.06C74.44,17.86,74.44,17.67,74.71,17.53Z"/><path class="cls-13" d="M73.47,21.37a19.63,19.63,0,0,1,3.26.8c.59.13,2.21.7.76,1a8.8,8.8,0,0,1-3.67-.74C73,22.05,72.45,21.35,73.47,21.37Z"/><path class="cls-7" d="M68.23,15.81c-1.78-1.33-5.24-2.09-7.41-2.6a28.87,28.87,0,0,0-7.57-.69A30.44,30.44,0,0,0,39,16.81c-1.84,1.13-4.46,2.81-5.32,4.9-.94,2.26.78,4.64,2.06,6.45,1.55,2.21,3.37,4.27,5,6.42s3.32,4.31,5.65,5.61c3.14,1.76,6.93,2.05,10.42,2.23a24.33,24.33,0,0,0,9.46-1.1c3.24-1.14,6.32-3.6,8.89-5.79,2.25-1.91,4.73-4.54,5.62-7.37C82.87,21.62,72.48,19,68.23,15.81Z"/><path class="cls-9" d="M77.42,19.79a50.19,50.19,0,0,0-6.31-3.6C68.92,15.1,67,13.6,64.69,12.9A36.29,36.29,0,0,0,50.54,12c-6,.8-12.52,2.5-16.22,7.54-1.15,1.56-3.08,3.86-1.34,5.66,1.94,2,5.69,1.29,7.69,3.12a29.74,29.74,0,0,1,2.43,3.29A11.32,11.32,0,0,0,47,34.74c3.51,1.74,8.31,1.53,12,.82,2.17-.41,4-1.71,6.16-2.33,2.48-.71,4.82.16,7.27-.79,3.08-1.19,6.58-1.18,8.47-4.15C82.62,25.67,81.7,19.39,77.42,19.79Z"/><path class="cls-10" d="M73.3,19.28c-.65-.86-2.55-1.29-3.52-1.75a39,39,0,0,0-5.12-1.83,26,26,0,0,0-8.23-1.15,52.62,52.62,0,0,0-9.56.51,14.67,14.67,0,0,0-7.8,4.22c-1.6,1.52-2.91,3.51-1,5.45s4.84,2,6.68,4a10,10,0,0,0,5.59,3.5c2.94.62,5.74,0,8.62-.75a20.08,20.08,0,0,1,6.47-.59c2.75.14,5.93.26,8.54-.64a9,9,0,0,0,4.19-2.88c.49-.67,1.4-2.49.75-3.18-1,2-1.4,3.74-3.94,4.23A23.91,23.91,0,0,1,66,28.15a15.91,15.91,0,0,0-4.66-.55c-1.59.16-3.12.87-4.7,1.14-3.86.65-6.88-.68-10.52-1.57-2.44-.59-6.9-3.32-4.19-6.06,2.9-2.95,6.79-2.57,10.49-2.35,3.17.18,6.1-.82,9.25-.82a42.24,42.24,0,0,1,8.14.82C70.6,18.91,72.83,20,73.3,19.28Z"/><path class="cls-10" d="M47.93,20.28c2.12-.17,4.17.14,6.32-.27a35.58,35.58,0,0,1,6.68-.56c3.53,0,7.52-.33,10.74,1.42,2.31,1.26,6,4.27,1.73,5.89-3.93,1.5-7.22-.82-11.08-1.15-1.49-.13-3,0-4.51,0s-2.74.64-4.23.84c-2.52.32-5.66.26-6.84-2.45,2.74,2.07,6.72,1.21,9.8.81,3.31-.42,6.86,0,10.17.33,1.32.12,2.62.33,4,.36s2.25-.57,1.12-1.89c-1-1.15-3.4-1.66-4.74-1.86a20.41,20.41,0,0,0-6.75.3C55.58,22.89,52.2,22.17,47.93,20.28Z"/><path class="cls-10" d="M65.48,22.88c-4.6,0-9.29.9-13.9,0-2.07-.39-5-1.92-7.08-1.36-.83.22-1.33,1-.51,1.65s1.72,0,2.47-.11c1.56-.3,3,.55,4.52.8a24.6,24.6,0,0,0,7.61-.08Z"/><path class="cls-10" d="M64,23.7c1.07,0,4.69-1.54,5.38-.13C70.23,25.21,64.66,23.78,64,23.7Z"/><path class="cls-11" d="M63.53,16.29c-2.52-.07-5.08-.63-7.64,0-.84.2-1.8.45-1.21,1.46s2.52,1,3.5,1a33.14,33.14,0,0,1,4.11,0c1,.12,2.63.55,3.5-.1s.47-1.3-.2-1.88c-1.34-1.13-2.61-.45-4.22-.52Z"/><path class="cls-11" d="M72.89,21c-.78,0-3.38-.2-3.81.61s1.77,1.57,2.1,2.37c.57,1.41-2.64,3.27-.12,3.7,1.44.25,3-.66,4.3-1.13,1-.38,2.36-.51,2.57-1.75C78.42,21.91,74.63,21,72.89,21Z"/><path class="cls-11" d="M48.92,17.84a11.74,11.74,0,0,0-5.65.22,19.63,19.63,0,0,0-2,1.11,26.27,26.27,0,0,1-3.48,1c-1.31.44-3.24,1.44-2.09,3a2.6,2.6,0,0,0,2.4.9,9.73,9.73,0,0,1,3.4.52c1,.32,2.94,1,2.57-.73-.16-.73-1.5-1.72-1-2.33s3.11-.35,4-.78c.42-.2,2-1.2,1.88-1.82C49,18.68,49.18,17.88,48.92,17.84Z"/><path class="cls-11" d="M50.49,28.23c-.94,0-3.9-.49-4.56.5-1,1.5,2.92,2.39,3.69,2.61a4.31,4.31,0,0,0,4-.44,7.24,7.24,0,0,1,4.12-.7c.73.09,3,.91,2.79-.64-.18-1.19-2.62-1.44-3.49-1.44a7.76,7.76,0,0,1-1.59.09c-.61-.14-.92-.59-1.62-.6A13.64,13.64,0,0,1,50.49,28.23Z"/><path class="cls-11" d="M65.9,21.75c-1.7,0-3.82-.88-5.43-.52-1.93.43-.44,1.83.62,2.36a9.84,9.84,0,0,0,5.63.65c.56-.14,1-.15.72-1.08S66.82,21.75,65.9,21.75Z"/><path class="cls-11" d="M54,23.91c-.69,0-1.38,0-2.08,0-.87,0-2.13-.51-3-.31-2.12.48-.76,2.16.73,2.34.69.08,1.43,0,2.1.1s1.33.46,2,.11C54.94,25.54,55.47,23.91,54,23.91Z"/><path class="cls-11" d="M67.23,26.37c-1.62.45-3.09-.35-4.65-.1-2.08.33-.91,1.61.33,2a7.13,7.13,0,0,0,3.91.23C68.3,28.07,68.53,26.87,67.23,26.37Z"/><path class="cls-11" d="M56.23,20.51a15.78,15.78,0,0,0-3.89-.31c-1.21,0-1.84.87-.43,1.34a13.49,13.49,0,0,0,3.81.21C57.2,21.72,57.79,21,56.23,20.51Z"/><path class="cls-8" d="M78.68,31a106.86,106.86,0,0,1-10.79,3.42,46.61,46.61,0,0,0-5.17,1.4c-2.24.77-4.4,1-6.63,1.53,2,.74,5,.26,7-.13,1.51-.29,3.53-.95,5.05-.7-1.62,1.85-6.19,2.63-8.58,2.86-1.63.15-5.66-.43-6.72,1C54.41,42.06,59,41.49,61,41c2.74-.64,5.46-1.08,7.88-2.59,1.94-1.21,3.51-3,5.49-4.2C75.68,33.46,78.06,32.35,78.68,31Z"/><path class="cls-8" d="M43,33.37c-1.78-2.09-3.41-5-6.46-5.13,1,1.35,2.4,2.28,3.41,3.66s1.76,2.87,2.73,4.25a9.67,9.67,0,0,0,3.83,3.32c.93.37,4.27,1,5,.28-.69-.7-2.34-.61-3.31-1a27,27,0,0,1-3-1.53,34.56,34.56,0,0,1,4.05.21c1,.06,4.34.87,5.32.52C54.52,38,45.07,35.86,43,33.37Z"/><path class="cls-12" d="M47.72,18.52c-1.23,0-2.23-.43-3.42.16-1.43.7-2.69,1.61-4.17,2.26-1,.41-3.34.43-3.93,1.34-.81,1.27,3.52.76,4.24.84.42,0,2.82,1,2.28-.14-.17-.37-.87-.36-1-.82s.36-1,.76-1.24a8.85,8.85,0,0,1,3.36-1C46.15,19.91,48.65,19.46,47.72,18.52Z"/><path class="cls-12" d="M64.32,16.88a28.14,28.14,0,0,0-4.11-.35c-1,0-3.15-.12-4,.47-1.05.72.48.7,1,.7.9,0,1.78-.07,2.69-.07H62.4c.37,0,1.71.31,2,.07A.52.52,0,0,0,64.32,16.88Z"/><path class="cls-12" d="M65.9,22.5c-.86-.2-1.82-.19-2.69-.34a3.57,3.57,0,0,0-2.17,0c-.15,1.06,2.64,1.31,3.28,1.34A4.28,4.28,0,0,0,66,23.46C66.68,23.16,66.6,22.66,65.9,22.5Z"/><path class="cls-12" d="M76.73,23.19A5.48,5.48,0,0,0,73.5,22a3.8,3.8,0,0,0-1.71.06c-1,.36-.41.69.21,1.11,1.39.92-.72,2.64.87,2.88,1.2.18,3.91-.3,4.29-1.65C77.29,23.89,77.33,23.26,76.73,23.19Z"/><path class="cls-12" d="M54,24.42a23.63,23.63,0,0,1-2.67-.19c-.39,0-2.69-.32-2,.58.39.49,2.16.39,2.75.5C52.47,25.39,54.53,25.5,54,24.42Z"/><path class="cls-12" d="M58.76,28.88a8.3,8.3,0,0,0-2.6-.21,17.38,17.38,0,0,0-2.6,0,20.94,20.94,0,0,1-3,.35,12,12,0,0,0-3.06.08c-.05.73,1.7,1.17,2.27,1.23a8.25,8.25,0,0,0,3.41-.61c1.76-.51,3.58,0,5.34-.3C58.65,29.27,58.83,29,58.76,28.88Z"/><path class="cls-12" d="M67,27c-.87,0-1.72.09-2.6,0-.49-.05-2.08-.13-1.17.67A4.9,4.9,0,0,0,66,28a1.74,1.74,0,0,0,1-.41C67.2,27.36,67.59,27,67,27Z"/><path class="cls-12" d="M55.82,20.92c-.45-.33-4.09-.76-4-.07.14.85,3.82.67,4.25.28C56,21,55.93,21,55.82,20.92Z"/><path class="cls-13" d="M59.24,14.2c-5.54,0-11.39.15-16.73,1.77-.62.19-2.21,1-.77,1.25s3.27-.61,4.67-1a37.09,37.09,0,0,1,7.49-1.17c1.31-.06,2.65.12,4,0C58.21,15,59.86,14.84,59.24,14.2Z"/><path class="cls-13" d="M46.76,26.61c-1.14-.92-2.46-.74-3.83-.68s-2.41-.23-3.62-.28c-.39,0-2-.26-1.67.42s2.57.68,3.18.95a3.75,3.75,0,0,0,2.67.37c.68-.16.94-.62,1.64-.57C45.57,26.85,46.94,27.54,46.76,26.61Z"/><path class="cls-13" d="M61.78,30.8a13,13,0,0,0-2.59.49,20.76,20.76,0,0,1-3.44.12,5.35,5.35,0,0,0-2.46.47c-.5.25-1.26.85-.55,1.27.91.53,2.78-.22,3.83-.16a10.56,10.56,0,0,0,2.8-.14c.66-.12,1.56-.1,2.07-.61S62.75,30.85,61.78,30.8Z"/><path class="cls-13" d="M73.78,29c-1,.11-1.89.37-2.86.42a15.59,15.59,0,0,0-2.9.18c-.4.1-1.36.28-1.37.84,0,.72,1.24.67,1.7.69,1.76.07,3.26-.73,4.94-.82.45,0,1.15.19,1.37-.35C74.82,29.58,74.07,29.15,73.78,29Z"/><path class="cls-13" d="M74.67,19.62c-1.61-.3-3-1.57-4.59-1.84-.52-.08-2.56-.1-1.93.88.39.6,2.07.68,2.7.91s1.35.76,2.09,1C74.19,20.87,75.29,20.83,74.67,19.62Z"/><path class="cls-13" d="M61.58,19.69A33.25,33.25,0,0,0,56.85,19a6,6,0,0,0-2.46-.29c-.73.25-.39.74.19.94a25,25,0,0,0,4.73.62,7.17,7.17,0,0,0,2.06.15C61.89,20.36,62.35,20,61.58,19.69Z"/><path class="cls-13" d="M62.12,25.24a21.26,21.26,0,0,0-4.61.71c-.54.14-2.65.27-2.65,1.07,1.54.08,3.39.26,4.73-.48.6-.33,2.79-.5,2.87-1.29Z"/><path class="cls-13" d="M50.19,22.5a6.92,6.92,0,0,0-3.34-.62c-.45,0-2.78.1-1.94.88.54.49,2.66.2,3.41.27a12.38,12.38,0,0,0,2.27.08C50.66,22.73,50.52,22.43,50.19,22.5Z"/><path class="cls-13" d="M60.2,23.53c-.56-.18-4.81-1.19-4.87-.14s3,.63,3.51.69c.23,0,.7.29.95.14S60.52,23.63,60.2,23.53Z"/><path class="cls-13" d="M68.71,20.37A6,6,0,0,0,65.78,20c-.59,0-2.43.24-1.17.84a7.91,7.91,0,0,0,3,.19c.19,0,.9.11,1,0C69,20.73,69,20.54,68.71,20.37Z"/><path class="cls-13" d="M69.87,24.35a19.42,19.42,0,0,0-3.22.67c-.59.1-2.22.62-.77,1a8.36,8.36,0,0,0,3.64-.6C70.3,25.07,70.87,24.38,69.87,24.35Z"/><path class="cls-14" d="M113.44,25.51C110.22,33.05,86.65,38.9,58,38.9S5.85,33.05,2.63,25.51H.19C2.46,33.93,27.48,40.57,58,40.57s55.58-6.64,57.85-15.06Z"/><path class="cls-2" d="M58,40.57C39,40.57,22.05,38,11.47,34a115.64,115.64,0,0,1,16.36,9.39c5.7,4.13,20.31,5.95,30.2,6s24.51-1.83,30.21-6A115.64,115.64,0,0,1,104.6,34C94,38,77.11,40.57,58,40.57Z"/></g></g></g></svg>