<svg xmlns="http://www.w3.org/2000/svg" xmlns:xlink="http://www.w3.org/1999/xlink" viewBox="0 0 218.79 139.65"><defs><style>.cls-1{isolation:isolate;}.cls-2{fill:#338e11;}.cls-3{fill:#65af1c;}.cls-4,.cls-5{fill:#c50003;}.cls-14,.cls-15,.cls-33,.cls-5,.cls-7{mix-blend-mode:multiply;}.cls-6{fill:#e77e23;}.cls-7{fill:#e0b7c4;}.cls-14,.cls-15,.cls-35,.cls-7{opacity:0.55;}.cls-8{fill:#ffd968;}.cls-22,.cls-9{fill:#ffc310;}.cls-10{fill:#e8e4d8;}.cls-11{fill:#545051;}.cls-12{fill:#acaeab;}.cls-13{fill:#dddedd;}.cls-14{fill:#8a8d89;}.cls-15{fill:#c5c6c4;}.cls-16{fill:#5f5b55;}.cls-17{fill:#747772;}.cls-18{fill:url(#radial-gradient);}.cls-19{fill:url(#radial-gradient-2);}.cls-20{fill:url(#radial-gradient-3);}.cls-21{fill:url(#radial-gradient-4);}.cls-22{mix-blend-mode:overlay;}.cls-23{fill:#d69b10;}.cls-24{fill:url(#radial-gradient-5);}.cls-25{fill:#d9c495;}.cls-26{fill:url(#linear-gradient);}.cls-27{fill:#cfd0ce;}.cls-28{fill:#8c8f8b;}.cls-29{fill:#e5e5e5;}.cls-30{fill:#c7c7c7;}.cls-31{fill:#a7a7a7;}.cls-32{fill:#dedede;}.cls-33{fill:#d3d8cf;}.cls-34{fill:#fefad5;}.cls-35{fill:#d6c08e;}.cls-36{fill:#f0e5e3;}</style><radialGradient id="radial-gradient" cx="-393.77" cy="261.41" r="3.42" gradientTransform="translate(205.82 -556.03) scale(0.37 2.13)" gradientUnits="userSpaceOnUse"><stop offset="0" stop-color="#959d9c"/><stop offset="1" stop-color="#57605f"/></radialGradient><radialGradient id="radial-gradient-2" cx="18.93" cy="-38.04" r="3.42" gradientTransform="translate(44.52 41.5) scale(0.86 0.92)" xlink:href="#radial-gradient"/><radialGradient id="radial-gradient-3" cx="20.71" cy="-38.04" r="3.42" gradientTransform="translate(44.52 41.5) scale(0.86 0.92)" xlink:href="#radial-gradient"/><radialGradient id="radial-gradient-4" cx="19.82" cy="-38.04" r="3.42" gradientTransform="translate(44.52 41.5) scale(0.86 0.92)" xlink:href="#radial-gradient"/><radialGradient id="radial-gradient-5" cx="62.49" cy="13.1" r="23.43" gradientTransform="matrix(1, 0, 0, 1, 0, 0)" xlink:href="#radial-gradient"/><linearGradient id="linear-gradient" x1="61.61" y1="6.78" x2="61.61" y2="7.41" gradientTransform="matrix(1, 0, 0, 1, 0, 0)" xlink:href="#radial-gradient"/></defs><g class="cls-1"><g id="Layer_2" data-name="Layer 2"><g id="Layer_1-2" data-name="Layer 1"><path class="cls-2" d="M195.93,110.74c-5.91,0-18.42-3.15-13.77-11.72,1.68-3.11,5.45-3.64,6.37-7.41a10,10,0,0,0-.28-5c-.42-1.36-1.06-2.63-.75-4.12a8.23,8.23,0,0,1,2.07-3.72c2.12-1.78,4,1,6.25-.19,1.85-.94,3.89-2.79,6-1a6.21,6.21,0,0,1,1.69,2.42A6.7,6.7,0,0,0,207,83.86c1.63.92,3.79,1.42,5.09,2.81,1.07,1.16,1.33,2.88,1.56,4.38a12.48,12.48,0,0,0,1.06,4.1c.8,1.46,2.39,2.2,3.25,3.56,2.41,3.82-.66,11.57-5,13C207.88,113.35,201.17,110.74,195.93,110.74Z"/><path class="cls-3" d="M217.22,104.41a1.71,1.71,0,0,0-1.06-.92c-1.4-.4-2.56.63-4,.17a6.87,6.87,0,0,1-3.88-3.23c-.77-1.4-1.07-3.13-2.54-3.82s-2.72.32-4.22.18a7.28,7.28,0,0,1-4.66-2.56c-1.21-1.39-1.58-2.51-3.35-3-2.06-.55-3.22.56-5.08.9-3.53.63-6-1.69-7.86,2.38-5.31,11.42-.18,21.14,6.31,21.23,5.22.07,23-2.38,27.21-4.06a6.31,6.31,0,0,0,3.37-4.15A5,5,0,0,0,217.22,104.41Z"/><rect class="cls-4" x="90.37" y="29.95" width="21.7" height="42.43"/><rect class="cls-4" x="94.08" y="14.73" width="14.27" height="13.96"/><rect class="cls-5" x="94.08" y="14.73" width="4.98" height="13.96"/><rect class="cls-5" x="90.37" y="29.95" width="7.57" height="42.43"/><rect class="cls-4" x="145.87" y="51.9" width="30.93" height="36"/><rect class="cls-4" x="171.74" y="43.08" width="17.2" height="39.07"/><rect class="cls-5" x="171.74" y="43.08" width="5.64" height="39.07"/><rect class="cls-6" x="26.7" y="57.25" width="25.37" height="62.15"/><rect class="cls-7" x="35.07" y="57.25" width="17" height="62.15"/><polygon class="cls-8" points="51.84 54.8 51.84 56.21 50.14 56.21 50.14 54.8 49.51 54.8 49.51 56.21 47.8 56.21 47.8 54.8 47.18 54.8 47.18 56.21 45.47 56.21 45.47 54.8 44.85 54.8 44.85 56.21 43.14 56.21 43.14 54.8 42.52 54.8 42.52 56.21 40.81 56.21 40.81 54.8 40.19 54.8 40.19 56.21 38.48 56.21 38.48 54.8 37.86 54.8 37.86 56.21 36.15 56.21 36.15 54.8 35.52 54.8 35.52 56.21 33.82 56.21 33.82 54.8 33.19 54.8 33.19 56.21 31.49 56.21 31.49 54.8 30.86 54.8 30.86 56.21 29.16 56.21 29.16 54.8 28.53 54.8 28.53 56.21 26.83 56.21 26.83 54.8 26.04 54.8 26.04 59.07 52.72 59.07 52.72 54.8 51.84 54.8"/><rect class="cls-9" x="146.41" y="61.53" width="46.32" height="59.23"/><rect class="cls-10" x="149.68" y="67.22" width="4.86" height="6.34"/><rect class="cls-11" x="150.22" y="67.75" width="3.77" height="5.29"/><rect class="cls-10" x="151.93" y="67.5" width="0.36" height="5.78"/><rect class="cls-10" x="150" y="69.17" width="4.2" height="0.38"/><rect class="cls-10" x="150" y="71.31" width="4.2" height="0.38"/><rect class="cls-10" x="158.73" y="67.22" width="4.86" height="6.34"/><rect class="cls-11" x="159.27" y="67.75" width="3.77" height="5.29"/><rect class="cls-10" x="160.98" y="67.5" width="0.36" height="5.78"/><rect class="cls-10" x="159.05" y="69.17" width="4.2" height="0.38"/><rect class="cls-10" x="159.05" y="71.31" width="4.2" height="0.38"/><rect class="cls-10" x="167.78" y="67.22" width="4.86" height="6.34"/><rect class="cls-11" x="168.32" y="67.75" width="3.77" height="5.29"/><rect class="cls-10" x="170.03" y="67.5" width="0.36" height="5.78"/><rect class="cls-10" x="168.1" y="69.17" width="4.2" height="0.38"/><rect class="cls-10" x="168.1" y="71.31" width="4.2" height="0.38"/><rect class="cls-10" x="149.68" y="80.06" width="4.86" height="6.34"/><rect class="cls-11" x="150.22" y="80.58" width="3.77" height="5.29"/><rect class="cls-10" x="151.93" y="80.34" width="0.36" height="5.78"/><rect class="cls-10" x="150" y="82" width="4.2" height="0.38"/><rect class="cls-10" x="150" y="84.14" width="4.2" height="0.38"/><rect class="cls-10" x="158.73" y="80.06" width="4.86" height="6.34"/><rect class="cls-11" x="159.27" y="80.58" width="3.77" height="5.29"/><rect class="cls-10" x="160.98" y="80.34" width="0.36" height="5.78"/><rect class="cls-10" x="159.05" y="82" width="4.2" height="0.38"/><rect class="cls-10" x="159.05" y="84.14" width="4.2" height="0.38"/><rect class="cls-10" x="167.78" y="80.06" width="4.86" height="6.34"/><rect class="cls-11" x="168.32" y="80.58" width="3.77" height="5.29"/><rect class="cls-10" x="170.03" y="80.34" width="0.36" height="5.78"/><rect class="cls-10" x="168.1" y="82" width="4.2" height="0.38"/><rect class="cls-10" x="168.1" y="84.14" width="4.2" height="0.38"/><rect class="cls-10" x="176.83" y="67.22" width="4.86" height="6.34"/><rect class="cls-11" x="177.38" y="67.75" width="3.77" height="5.29"/><rect class="cls-10" x="179.08" y="67.5" width="0.36" height="5.78"/><rect class="cls-10" x="177.15" y="69.17" width="4.2" height="0.38"/><rect class="cls-10" x="177.15" y="71.31" width="4.2" height="0.38"/><rect class="cls-10" x="185.88" y="67.22" width="4.86" height="6.34"/><rect class="cls-11" x="186.43" y="67.75" width="3.77" height="5.29"/><rect class="cls-10" x="188.13" y="67.5" width="0.36" height="5.78"/><rect class="cls-10" x="186.2" y="69.17" width="4.2" height="0.38"/><rect class="cls-10" x="186.2" y="71.31" width="4.2" height="0.38"/><rect class="cls-10" x="176.83" y="80.06" width="4.86" height="6.34"/><rect class="cls-11" x="177.38" y="80.58" width="3.77" height="5.29"/><rect class="cls-10" x="179.08" y="80.34" width="0.36" height="5.78"/><rect class="cls-10" x="177.15" y="82" width="4.2" height="0.38"/><rect class="cls-10" x="177.15" y="84.14" width="4.2" height="0.38"/><rect class="cls-10" x="185.88" y="80.06" width="4.86" height="6.34"/><rect class="cls-11" x="186.43" y="80.58" width="3.77" height="5.29"/><rect class="cls-10" x="188.13" y="80.34" width="0.36" height="5.78"/><rect class="cls-10" x="186.2" y="82" width="4.2" height="0.38"/><rect class="cls-10" x="186.2" y="84.14" width="4.2" height="0.38"/><rect class="cls-12" x="83.08" y="43.1" width="63.92" height="59.67"/><rect class="cls-13" x="83.08" y="57.33" width="35.23" height="1.37"/><rect class="cls-13" x="83.08" y="73.62" width="35.23" height="1.37"/><rect class="cls-14" x="83.08" y="43.1" width="5.47" height="59.67"/><rect class="cls-15" x="115.06" y="43.1" width="3.25" height="59.67"/><rect class="cls-16" x="83.08" y="40.73" width="43.92" height="3.82"/><rect class="cls-17" x="125.15" y="43.1" width="21.86" height="59.67"/><polygon class="cls-18" points="61.7 5.68 61.66 0 61.56 0 61.53 5.68 61.7 5.68"/><rect class="cls-19" x="60.56" y="6.11" width="0.58" height="4.61"/><rect class="cls-20" x="62.09" y="6.11" width="0.58" height="4.61"/><rect class="cls-21" x="61.32" y="6.11" width="0.58" height="4.61"/><rect class="cls-9" x="40.11" y="35.79" width="42.94" height="86.95"/><rect class="cls-22" x="52.87" y="35.79" width="17.43" height="86.95"/><rect class="cls-23" x="40.11" y="38.17" width="42.94" height="1.79"/><rect class="cls-23" x="40.11" y="57.48" width="42.94" height="1.79"/><rect class="cls-8" x="40.11" y="56.59" width="42.94" height="1.79"/><rect class="cls-23" x="40.11" y="81.68" width="42.94" height="1.79"/><rect class="cls-8" x="40.11" y="80.79" width="42.94" height="1.79"/><rect class="cls-23" x="40.11" y="99.52" width="42.94" height="1.79"/><rect class="cls-8" x="40.11" y="98.62" width="42.94" height="1.79"/><path class="cls-10" d="M51.16,50.28H45.72v-7A2.51,2.51,0,0,1,48.41,41h.06a2.51,2.51,0,0,1,2.69,2.29Z"/><path class="cls-11" d="M50.56,49.64H46.32V43.79a2,2,0,0,1,2.1-1.93h0a2,2,0,0,1,2.1,1.93Z"/><rect class="cls-10" x="46.1" y="43.26" width="4.67" height="0.58"/><rect class="cls-10" x="48.28" y="41.51" width="0.31" height="8.58"/><rect class="cls-10" x="46.1" y="45.17" width="4.8" height="0.25"/><rect class="cls-10" x="46.1" y="46.63" width="4.8" height="0.25"/><rect class="cls-10" x="46.1" y="48.09" width="4.8" height="0.25"/><path class="cls-10" d="M64.34,50.28H58.89v-7A2.52,2.52,0,0,1,61.59,41h0a2.52,2.52,0,0,1,2.7,2.29Z"/><path class="cls-11" d="M63.73,49.64H59.49V43.79a2,2,0,0,1,2.1-1.93h0a2,2,0,0,1,2.09,1.93Z"/><rect class="cls-10" x="59.28" y="43.26" width="4.67" height="0.58"/><rect class="cls-10" x="61.46" y="41.51" width="0.31" height="8.58"/><rect class="cls-10" x="59.28" y="45.17" width="4.8" height="0.25"/><rect class="cls-10" x="59.28" y="46.63" width="4.8" height="0.25"/><rect class="cls-10" x="59.28" y="48.09" width="4.8" height="0.25"/><path class="cls-10" d="M77.51,50.28H72.07v-7A2.51,2.51,0,0,1,74.76,41h.06a2.51,2.51,0,0,1,2.69,2.29Z"/><path class="cls-11" d="M76.91,49.64H72.67V43.79a2,2,0,0,1,2.1-1.93h0a2,2,0,0,1,2.1,1.93Z"/><rect class="cls-10" x="72.45" y="43.26" width="4.67" height="0.58"/><rect class="cls-10" x="74.63" y="41.51" width="0.31" height="8.58"/><rect class="cls-10" x="72.45" y="45.17" width="4.8" height="0.25"/><rect class="cls-10" x="72.45" y="46.63" width="4.8" height="0.25"/><rect class="cls-10" x="72.45" y="48.09" width="4.8" height="0.25"/><path class="cls-10" d="M51.16,74.58H45.72v-7a2.51,2.51,0,0,1,2.69-2.29h.06a2.52,2.52,0,0,1,2.69,2.29Z"/><path class="cls-11" d="M50.56,73.94H46.32V68.09a2,2,0,0,1,2.1-1.93h0a2,2,0,0,1,2.1,1.93Z"/><rect class="cls-10" x="46.1" y="67.56" width="4.67" height="0.58"/><rect class="cls-10" x="48.28" y="65.81" width="0.31" height="8.58"/><rect class="cls-10" x="46.1" y="69.47" width="4.8" height="0.25"/><rect class="cls-10" x="46.1" y="70.93" width="4.8" height="0.25"/><rect class="cls-10" x="46.1" y="72.39" width="4.8" height="0.25"/><path class="cls-10" d="M64.34,74.58H58.89v-7a2.52,2.52,0,0,1,2.7-2.29h0a2.52,2.52,0,0,1,2.7,2.29Z"/><path class="cls-11" d="M63.73,73.94H59.49V68.09a2,2,0,0,1,2.1-1.93h0a2,2,0,0,1,2.09,1.93Z"/><rect class="cls-10" x="59.28" y="67.56" width="4.67" height="0.58"/><rect class="cls-10" x="61.46" y="65.81" width="0.31" height="8.58"/><rect class="cls-10" x="59.28" y="69.47" width="4.8" height="0.25"/><rect class="cls-10" x="59.28" y="70.93" width="4.8" height="0.25"/><rect class="cls-10" x="59.28" y="72.39" width="4.8" height="0.25"/><path class="cls-10" d="M77.51,74.58H72.07v-7a2.51,2.51,0,0,1,2.69-2.29h.06a2.52,2.52,0,0,1,2.69,2.29Z"/><path class="cls-11" d="M76.91,73.94H72.67V68.09a2,2,0,0,1,2.1-1.93h0a2,2,0,0,1,2.1,1.93Z"/><rect class="cls-10" x="72.45" y="67.56" width="4.67" height="0.58"/><rect class="cls-10" x="74.63" y="65.81" width="0.31" height="8.58"/><rect class="cls-10" x="72.45" y="69.47" width="4.8" height="0.25"/><rect class="cls-10" x="72.45" y="70.93" width="4.8" height="0.25"/><rect class="cls-10" x="72.45" y="72.39" width="4.8" height="0.25"/><path class="cls-10" d="M51.16,95.74H45.72v-7a2.51,2.51,0,0,1,2.69-2.29h.06a2.52,2.52,0,0,1,2.69,2.29Z"/><path class="cls-11" d="M50.56,95.11H46.32V89.25a2,2,0,0,1,2.1-1.93h0a2,2,0,0,1,2.1,1.93Z"/><rect class="cls-10" x="46.1" y="88.72" width="4.67" height="0.58"/><rect class="cls-10" x="48.28" y="86.97" width="0.31" height="8.58"/><rect class="cls-10" x="46.1" y="90.63" width="4.8" height="0.25"/><rect class="cls-10" x="46.1" y="92.09" width="4.8" height="0.25"/><rect class="cls-10" x="46.1" y="93.55" width="4.8" height="0.25"/><path class="cls-10" d="M64.34,95.74H58.89v-7a2.52,2.52,0,0,1,2.7-2.29h0a2.52,2.52,0,0,1,2.7,2.29Z"/><path class="cls-11" d="M63.73,95.11H59.49V89.25a2,2,0,0,1,2.1-1.93h0a2,2,0,0,1,2.09,1.93Z"/><rect class="cls-10" x="59.28" y="88.72" width="4.67" height="0.58"/><rect class="cls-10" x="61.46" y="86.97" width="0.31" height="8.58"/><rect class="cls-10" x="59.28" y="90.63" width="4.8" height="0.25"/><rect class="cls-10" x="59.28" y="92.09" width="4.8" height="0.25"/><rect class="cls-10" x="59.28" y="93.55" width="4.8" height="0.25"/><path class="cls-10" d="M77.51,95.74H72.07v-7a2.51,2.51,0,0,1,2.69-2.29h.06a2.52,2.52,0,0,1,2.69,2.29Z"/><path class="cls-11" d="M76.91,95.11H72.67V89.25a2,2,0,0,1,2.1-1.93h0a2,2,0,0,1,2.1,1.93Z"/><rect class="cls-10" x="72.45" y="88.72" width="4.67" height="0.58"/><rect class="cls-10" x="74.63" y="86.97" width="0.31" height="8.58"/><rect class="cls-10" x="72.45" y="90.63" width="4.8" height="0.25"/><rect class="cls-10" x="72.45" y="92.09" width="4.8" height="0.25"/><rect class="cls-10" x="72.45" y="93.55" width="4.8" height="0.25"/><path class="cls-24" d="M77.56,18.89c-7.32-9.43-16-8.62-16-8.62S53,9.46,45.67,18.89a27.31,27.31,0,0,0-5.54,16.9h43A27.31,27.31,0,0,0,77.56,18.89Z"/><path class="cls-25" d="M62.1,4.68a.72.72,0,0,1-.4-.36h-.17a.72.72,0,0,1-.4.36c-.4.14-1.23.47-1.07,1.34a1.29,1.29,0,0,0,.71.89h1.69A1.29,1.29,0,0,0,63.17,6C63.33,5.15,62.5,4.82,62.1,4.68Z"/><rect class="cls-26" x="60.56" y="6.72" width="2.12" height="0.71"/><polygon class="cls-8" points="81.8 37.36 81.8 36.56 81.19 36.56 81.19 37.36 79.52 37.36 79.52 36.56 78.91 36.56 78.91 37.36 77.24 37.36 77.24 36.56 76.63 36.56 76.63 37.36 74.96 37.36 74.96 36.56 74.35 36.56 74.35 37.36 72.69 37.36 72.69 36.56 72.07 36.56 72.07 37.36 70.41 37.36 70.41 36.56 69.8 36.56 69.8 37.36 68.13 37.36 68.13 36.56 67.52 36.56 67.52 37.36 65.85 37.36 65.85 36.56 65.24 36.56 65.24 37.36 63.57 37.36 63.57 36.56 62.96 36.56 62.96 37.36 61.3 37.36 61.3 36.56 60.69 36.56 60.69 37.36 59.02 37.36 59.02 36.56 58.41 36.56 58.41 37.36 56.74 37.36 56.74 36.56 56.13 36.56 56.13 37.36 54.46 37.36 54.46 36.56 53.85 36.56 53.85 37.36 52.18 37.36 52.18 36.56 51.57 36.56 51.57 37.36 49.91 37.36 49.91 36.56 49.3 36.56 49.3 37.36 47.63 37.36 47.63 36.56 47.02 36.56 47.02 37.36 45.35 37.36 45.35 36.56 44.74 36.56 44.74 37.36 43.07 37.36 43.07 36.56 42.46 36.56 42.46 37.36 40.8 37.36 40.8 36.56 40.18 36.56 40.18 37.36 39.38 37.36 39.38 38.99 83.79 38.99 83.79 37.36 81.8 37.36"/><polygon class="cls-9" points="125.32 19.97 124.88 19.97 125.01 14.97 125.2 14.97 125.32 19.97"/><rect class="cls-12" x="118.37" y="27.57" width="13.47" height="75.2"/><rect class="cls-27" x="121.79" y="27.57" width="6.64" height="75.2"/><rect class="cls-28" x="118.37" y="38.8" width="13.47" height="1.1"/><rect class="cls-28" x="118.37" y="50.7" width="13.47" height="1.1"/><rect class="cls-28" x="118.37" y="62.61" width="13.47" height="1.1"/><rect class="cls-28" x="118.37" y="74.52" width="13.47" height="1.1"/><rect class="cls-28" x="118.37" y="86.43" width="13.47" height="1.1"/><path class="cls-10" d="M126.59,36h-3V32.14a1.37,1.37,0,0,1,1.47-1.25h0a1.37,1.37,0,0,1,1.47,1.25Z"/><path class="cls-11" d="M126.26,35.6H124V32.4a1.1,1.1,0,0,1,1.14-1h0a1.1,1.1,0,0,1,1.14,1Z"/><path class="cls-10" d="M126.59,47.69h-3v-3.8a1.37,1.37,0,0,1,1.47-1.25h0a1.37,1.37,0,0,1,1.47,1.25Z"/><path class="cls-11" d="M126.26,47.35H124v-3.2a1.1,1.1,0,0,1,1.14-1h0a1.1,1.1,0,0,1,1.14,1Z"/><path class="cls-10" d="M126.59,59.44h-3V55.63a1.37,1.37,0,0,1,1.47-1.25h0a1.37,1.37,0,0,1,1.47,1.25Z"/><path class="cls-11" d="M126.26,59.09H124V55.9a1.1,1.1,0,0,1,1.14-1h0a1.1,1.1,0,0,1,1.14,1Z"/><path class="cls-10" d="M126.59,71.19h-3V67.38a1.37,1.37,0,0,1,1.47-1.25h0a1.37,1.37,0,0,1,1.47,1.25Z"/><path class="cls-11" d="M126.26,70.84H124V67.65a1.1,1.1,0,0,1,1.14-1.05h0a1.1,1.1,0,0,1,1.14,1.05Z"/><path class="cls-10" d="M126.59,82.94h-3V79.13a1.37,1.37,0,0,1,1.47-1.25h0a1.37,1.37,0,0,1,1.47,1.25Z"/><path class="cls-11" d="M126.26,82.59H124v-3.2a1.1,1.1,0,0,1,1.14-1h0a1.1,1.1,0,0,1,1.14,1Z"/><path class="cls-9" d="M131.82,27.67a7.93,7.93,0,0,0,.07-1,6.81,6.81,0,1,0-13.57,0,7.93,7.93,0,0,0,.06,1Z"/><path class="cls-8" d="M128.54,27.67c0-.32,0-.65,0-1,0-4.06-1.55-7.34-3.47-7.34s-3.47,3.28-3.47,7.34c0,.33,0,.66,0,1Z"/><path class="cls-9" d="M125.8,17.34a.7.7,0,1,1-.7-.7A.69.69,0,0,1,125.8,17.34Z"/><polygon class="cls-9" points="141.52 19.97 141.08 19.97 141.21 14.97 141.4 14.97 141.52 19.97"/><rect class="cls-12" x="134.57" y="27.57" width="13.47" height="75.2"/><rect class="cls-27" x="137.99" y="27.57" width="6.64" height="75.2"/><rect class="cls-28" x="134.57" y="38.8" width="13.47" height="1.1"/><rect class="cls-28" x="134.57" y="50.7" width="13.47" height="1.1"/><rect class="cls-28" x="134.57" y="62.61" width="13.47" height="1.1"/><rect class="cls-28" x="134.57" y="74.52" width="13.47" height="1.1"/><rect class="cls-28" x="134.57" y="86.43" width="13.47" height="1.1"/><path class="cls-10" d="M142.79,36h-3V32.14a1.37,1.37,0,0,1,1.47-1.25h0a1.37,1.37,0,0,1,1.47,1.25Z"/><path class="cls-11" d="M142.46,35.6h-2.31V32.4a1.1,1.1,0,0,1,1.14-1h0a1.1,1.1,0,0,1,1.14,1Z"/><path class="cls-10" d="M142.79,47.69h-3v-3.8a1.37,1.37,0,0,1,1.47-1.25h0a1.37,1.37,0,0,1,1.47,1.25Z"/><path class="cls-11" d="M142.46,47.35h-2.31v-3.2a1.1,1.1,0,0,1,1.14-1h0a1.1,1.1,0,0,1,1.14,1Z"/><path class="cls-10" d="M142.79,59.44h-3V55.63a1.37,1.37,0,0,1,1.47-1.25h0a1.37,1.37,0,0,1,1.47,1.25Z"/><path class="cls-11" d="M142.46,59.09h-2.31V55.9a1.1,1.1,0,0,1,1.14-1h0a1.1,1.1,0,0,1,1.14,1Z"/><path class="cls-10" d="M142.79,71.19h-3V67.38a1.37,1.37,0,0,1,1.47-1.25h0a1.37,1.37,0,0,1,1.47,1.25Z"/><path class="cls-11" d="M142.46,70.84h-2.31V67.65a1.1,1.1,0,0,1,1.14-1.05h0a1.1,1.1,0,0,1,1.14,1.05Z"/><path class="cls-10" d="M142.79,82.94h-3V79.13a1.37,1.37,0,0,1,1.47-1.25h0a1.37,1.37,0,0,1,1.47,1.25Z"/><path class="cls-11" d="M142.46,82.59h-2.31v-3.2a1.1,1.1,0,0,1,1.14-1h0a1.1,1.1,0,0,1,1.14,1Z"/><path class="cls-9" d="M148,27.67a7.93,7.93,0,0,0,.07-1,6.81,6.81,0,1,0-13.57,0,7.93,7.93,0,0,0,.06,1Z"/><path class="cls-8" d="M144.74,27.67c0-.32,0-.65,0-1,0-4.06-1.55-7.34-3.47-7.34s-3.47,3.28-3.47,7.34c0,.33,0,.66,0,1Z"/><path class="cls-9" d="M142,17.34a.7.7,0,1,1-.7-.7A.69.69,0,0,1,142,17.34Z"/><path class="cls-29" d="M94.48,55.1V49.45h0a2.91,2.91,0,0,0-3.56,0h0V55.1Z"/><path class="cls-11" d="M93.94,54.56V50h0a2,2,0,0,0-2.48,0h0v4.53Z"/><path class="cls-29" d="M102.8,55.1V49.45h0a2.9,2.9,0,0,0-3.55,0h0V55.1Z"/><path class="cls-11" d="M102.26,54.56V50h0a2,2,0,0,0-2.49,0h0v4.53Z"/><path class="cls-29" d="M111.12,55.1V49.45h0a2.91,2.91,0,0,0-3.56,0h0V55.1Z"/><path class="cls-11" d="M110.58,54.56V50h0a2,2,0,0,0-2.48,0h0v4.53Z"/><path class="cls-29" d="M94.48,70.44V64.79h0a2.88,2.88,0,0,0-3.56,0h0v5.65Z"/><path class="cls-11" d="M93.94,69.9V65.36h0a2,2,0,0,0-2.48,0h0V69.9Z"/><path class="cls-29" d="M102.8,70.44V64.79h0a2.87,2.87,0,0,0-3.55,0h0v5.65Z"/><path class="cls-11" d="M102.26,69.9V65.36h0a2,2,0,0,0-2.49,0h0V69.9Z"/><path class="cls-29" d="M111.12,70.44V64.79h0a2.88,2.88,0,0,0-3.56,0h0v5.65Z"/><path class="cls-11" d="M110.58,69.9V65.36h0a2,2,0,0,0-2.48,0h0V69.9Z"/><rect class="cls-29" x="93.71" y="78.34" width="18.18" height="24.42"/><rect class="cls-11" x="95.76" y="80.03" width="15.26" height="22.74"/><rect class="cls-30" x="83.04" y="93.5" width="105.74" height="36.72"/><rect class="cls-31" x="93.17" y="93.5" width="2.01" height="36.72"/><rect class="cls-31" x="101.3" y="93.5" width="2.01" height="36.72"/><rect class="cls-31" x="117.31" y="93.5" width="2.01" height="36.72"/><rect class="cls-31" x="129.43" y="93.5" width="2.01" height="36.72"/><rect class="cls-31" x="141.55" y="93.5" width="2.01" height="36.72"/><rect class="cls-31" x="150.07" y="93.5" width="2.01" height="36.72"/><rect class="cls-31" x="165.8" y="93.5" width="2.01" height="36.72"/><rect class="cls-31" x="177.92" y="93.5" width="2.01" height="36.72"/><rect class="cls-32" x="93.76" y="93.5" width="0.81" height="36.72"/><rect class="cls-32" x="101.93" y="93.5" width="0.74" height="36.72"/><rect class="cls-32" x="117.92" y="93.5" width="0.78" height="36.72"/><rect class="cls-32" x="130.08" y="93.5" width="0.72" height="36.72"/><rect class="cls-32" x="142.13" y="93.5" width="0.85" height="36.72"/><rect class="cls-32" x="150.65" y="93.5" width="0.83" height="36.72"/><rect class="cls-32" x="166.36" y="93.5" width="0.88" height="36.72"/><rect class="cls-32" x="178.47" y="93.5" width="0.9" height="36.72"/><path class="cls-11" d="M91.71,108.65v-6.53a1.76,1.76,0,0,0-2.66,0v6.53Z"/><path class="cls-11" d="M99.66,108.65v-6.53a1.76,1.76,0,0,0-2.66,0v6.53Z"/><path class="cls-11" d="M111.61,108.65v-6.51l0,0a1.75,1.75,0,0,0-2.65,0v6.53Z"/><path class="cls-11" d="M124.25,108.65v-6.53a1.76,1.76,0,0,0-2.66,0v6.53Z"/><path class="cls-11" d="M137.16,108.65v-6.51l0,0a1.75,1.75,0,0,0-2.65,0v6.53Z"/><path class="cls-11" d="M148.22,108.65v-6.51l0,0a1.75,1.75,0,0,0-2.65,0v6.53Z"/><path class="cls-11" d="M163.24,108.65v-6.53a1.76,1.76,0,0,0-2.66,0v6.53Z"/><path class="cls-11" d="M174,108.65v-6.53a1.76,1.76,0,0,0-2.66,0v6.53Z"/><path class="cls-11" d="M184.84,108.65v-6.53a1.75,1.75,0,0,0-2.65,0l0,0v6.51Z"/><rect class="cls-31" x="83.04" y="127.47" width="105.74" height="2.74"/><rect class="cls-30" x="83.04" y="128.84" width="105.74" height="1.37"/><rect class="cls-33" x="83.04" y="93.5" width="105.74" height="4.01"/><rect class="cls-32" x="83.04" y="93.5" width="105.74" height="2.34"/><rect class="cls-32" x="84.95" y="92.34" width="1.45" height="1.15"/><rect class="cls-32" x="90.37" y="92.34" width="1.45" height="1.15"/><rect class="cls-32" x="95.79" y="92.34" width="1.45" height="1.15"/><rect class="cls-32" x="101.22" y="92.34" width="1.45" height="1.15"/><rect class="cls-32" x="106.64" y="92.34" width="1.45" height="1.15"/><rect class="cls-32" x="112.07" y="92.34" width="1.45" height="1.15"/><rect class="cls-32" x="117.49" y="92.34" width="1.45" height="1.15"/><rect class="cls-32" x="122.92" y="92.34" width="1.45" height="1.15"/><rect class="cls-32" x="128.34" y="92.34" width="1.45" height="1.15"/><rect class="cls-32" x="133.77" y="92.34" width="1.45" height="1.15"/><rect class="cls-32" x="139.19" y="92.34" width="1.45" height="1.15"/><rect class="cls-32" x="144.62" y="92.34" width="1.45" height="1.15"/><rect class="cls-32" x="150.04" y="92.34" width="1.45" height="1.15"/><rect class="cls-32" x="155.46" y="92.34" width="1.45" height="1.15"/><rect class="cls-32" x="160.89" y="92.34" width="1.45" height="1.15"/><rect class="cls-32" x="166.31" y="92.34" width="1.45" height="1.15"/><rect class="cls-32" x="171.74" y="92.34" width="1.45" height="1.15"/><rect class="cls-32" x="177.16" y="92.34" width="1.45" height="1.15"/><rect class="cls-32" x="182.59" y="92.34" width="1.45" height="1.15"/><polygon class="cls-8" points="193.33 57.31 192.4 57.31 192.4 58.72 190.61 58.72 190.61 57.31 189.96 57.31 189.96 58.72 188.16 58.72 188.16 57.31 187.51 57.31 187.51 58.72 185.72 58.72 185.72 57.31 185.06 57.31 185.06 58.72 183.27 58.72 183.27 57.31 182.61 57.31 182.61 58.72 180.82 58.72 180.82 57.31 180.16 57.31 180.16 58.72 178.37 58.72 178.37 57.31 177.72 57.31 177.72 58.72 175.93 58.72 175.93 57.31 175.27 57.31 175.27 58.72 173.48 58.72 173.48 57.31 172.82 57.31 172.82 58.72 171.03 58.72 171.03 57.31 170.38 57.31 170.38 58.72 168.59 58.72 168.59 57.31 167.93 57.31 167.93 58.72 166.14 58.72 166.14 57.31 165.5 57.31 165.5 58.72 163.54 58.72 163.54 57.31 162.89 57.31 162.89 58.72 161.1 58.72 161.1 57.31 160.44 57.31 160.44 58.72 158.65 58.72 158.65 57.31 157.99 57.31 157.99 58.72 156.2 58.72 156.2 57.31 155.54 57.31 155.54 58.72 153.75 58.72 153.75 57.31 153.1 57.31 153.1 58.72 151.31 58.72 151.31 57.31 150.65 57.31 150.65 58.72 148.86 58.72 148.86 57.31 148.04 57.31 148.04 61.57 166.39 61.57 166.39 61.57 193.33 61.57 193.33 57.31"/><path class="cls-29" d="M162.73,130.21H147.6v-14a6.29,6.29,0,0,1,6.28-6.29h2.56a6.29,6.29,0,0,1,6.29,6.29Z"/><path class="cls-11" d="M161.51,130.21h-12.7V116.07a4.78,4.78,0,0,1,4.79-4.78h3.13a4.78,4.78,0,0,1,4.78,4.78Z"/><path class="cls-2" d="M140.16,137.29c7.42-2.4-4.7.78,3.4.78,7.93,0,40.09-.27,47.51-2.15,3.76-.95,7.31-4.11,7-8.43-.42-5.8-4.22-3.12-7.47-1.39-5.27,2.8-4.22.93-7.35-2.91-2.57-3.16-6.67-5-10.37-2.61-2.25,1.46-2.36,4.73-5.17,5.53s-6.32-2-8.87-2.82c-7-2.17-9.14,1.7-14.47,4.17-4.81,2.23-10.83,2.7-15.41,6.1C120.61,139.74,136.91,138.35,140.16,137.29Z"/><path class="cls-2" d="M169.35,133.54a4,4,0,0,1-.32-.92c-1.25-5.36,5.76-5.14,8.74-6.59,2-1,2.34-2.42,2.74-4.49a8.45,8.45,0,0,1,2.38-4.88,5.31,5.31,0,0,1,4.44-2c1.92,0,3.82.56,5-1.56.87-1.51.29-3.53,1-5.07a7.58,7.58,0,0,1,4.73-3.72c5.31-1.6,4.62,4.45,9.14,4.5,2,0,3.25-1.89,5.32-1.22,1.68.54,2.34,2.33,2.54,4,.37,3.15-2.94,5.43-1.94,8.64.93,3,5,4.6,4.31,8.15-1,5.32-8,6.21-12.32,7.26-7.27,1.78-15.55,2-23,1.87C178.63,137.38,171.24,137.45,169.35,133.54Z"/><path class="cls-3" d="M214.81,110.3c-.05,0-.08-.11-.13-.16l-.36.08c-1,.54-1.83,1.2-2.77,1.75-1.85,1.08-4.16,1.88-6.31,1.17-1.24-.41-3.67-2.54-4.74-1.61a22.06,22.06,0,0,1-3.74,2.93c-1.66.93-4.34.31-5.66,1.59s-3.2,3.07-5.26,2.86a4,4,0,0,1-.87,0l-.74.87-.38.39c1.57.34,3.12,1,4.92,1.57,3.59,1,5.66-3.66,8.67-5,3.83-1.71,6.36-.15,9.62,1.68,1.65.93,5-2.7,6.64-3.29a5.54,5.54,0,0,1,.58-.17,6.34,6.34,0,0,0,.78-3.42A7.79,7.79,0,0,0,214.81,110.3Z"/><path class="cls-3" d="M213.19,123.71c-2.07,1.34-5.18,2.66-7.66,1.69-2.24-.88-4.31-3.62-6.47-1.37-1.75,1.82-3.65,4-6.24,4.59-3.36.78-5.84-.08-8.9-1.38-2.39-1-3.72,1.25-5.42,2.57a13.87,13.87,0,0,1-3.87,2.36,17.47,17.47,0,0,0-3,.83,2.36,2.36,0,0,0-1.11,2c2.82,2.42,8.62,2.38,11.59,2.45,7.45.16,15.73-.09,23-1.87,4.3-1.05,11.34-1.94,12.32-7.26.45-2.45-1.33-4-2.79-5.66C214.16,123,213.69,123.38,213.19,123.71Z"/><path class="cls-2" d="M41.46,112.6c-2-3.39-4.05-5.92-4.92-9.78-.52-2.34-.84-5.58-2.79-7.24-1.31-1.11-1.5-.82-3-.91s-3-1.79-3.71-3.27-2.43-4.08-5.66-2.68c-3.87,1.69-3.58,6.23-6.2,8.08s-6.69.39-8.74,3.66c-1.69,2.69.22,6-1.93,8.67s-4.95,5-4.4,9,3.7,5.93,7.51,6.35a29.51,29.51,0,0,0,5.56,0,28,28,0,0,1,6.93.62c5.31.79,11-1.39,16.4-2C44.36,122.31,45.12,118.85,41.46,112.6Z"/><path class="cls-3" d="M.92,120.71c1.48-1.71,3.39-3.09,5-4.71,2-2.09,4.42-5.21,7.62-5.21A9.37,9.37,0,0,1,17.28,112c.91.41,2-.79,3.46-1.64A21.38,21.38,0,0,1,30,107.28c1.32-.11,4.8,0,5.27-1.71a9.88,9.88,0,0,1-2.11-1.45c-1.07-1-1.85-2.8-3.32-3.37-4.28-1.68-6.41,3.74-10.36,3.57-1.83-.07-3.17-.82-5.1-.34-2.56.64-4,2.23-5.43,4.29a11.32,11.32,0,0,1-4.44,4.2C1.57,114-.43,114.4.08,118.14A6.89,6.89,0,0,0,.92,120.71Z"/><rect class="cls-34" x="105.65" y="100.44" width="18.78" height="30.62"/><rect class="cls-35" x="105.65" y="100.44" width="6.29" height="30.62"/><polygon class="cls-8" points="105.82 98.62 105.82 99.66 107.08 99.66 107.08 98.62 107.55 98.62 107.55 99.66 108.81 99.66 108.81 98.62 109.27 98.62 109.27 99.66 110.54 99.66 110.54 98.62 111 98.62 111 99.66 112.26 99.66 112.26 98.62 112.72 98.62 112.72 99.66 113.99 99.66 113.99 98.62 114.45 98.62 114.45 99.66 115.71 99.66 115.71 98.62 116.17 98.62 116.17 99.66 117.44 99.66 117.44 98.62 117.9 98.62 117.9 99.66 119.16 99.66 119.16 98.62 119.63 98.62 119.63 99.66 120.89 99.66 120.89 98.62 121.35 98.62 121.35 99.66 122.61 99.66 122.61 98.62 123.08 98.62 123.08 99.66 124.34 99.66 124.34 98.62 124.92 98.62 124.92 101.78 105.17 101.78 105.17 98.62 105.82 98.62"/><rect class="cls-34" x="30.72" y="85.11" width="18.78" height="30.62"/><rect class="cls-35" x="30.72" y="85.11" width="6.29" height="30.62"/><polygon class="cls-8" points="30.89 83.3 30.89 84.34 32.16 84.34 32.16 83.3 32.62 83.3 32.62 84.34 33.88 84.34 33.88 83.3 34.34 83.3 34.34 84.34 35.61 84.34 35.61 83.3 36.07 83.3 36.07 84.34 37.33 84.34 37.33 83.3 37.79 83.3 37.79 84.34 39.06 84.34 39.06 83.3 39.52 83.3 39.52 84.34 40.78 84.34 40.78 83.3 41.24 83.3 41.24 84.34 42.51 84.34 42.51 83.3 42.97 83.3 42.97 84.34 44.23 84.34 44.23 83.3 44.7 83.3 44.7 84.34 45.96 84.34 45.96 83.3 46.42 83.3 46.42 84.34 47.69 84.34 47.69 83.3 48.15 83.3 48.15 84.34 49.41 84.34 49.41 83.3 49.99 83.3 49.99 86.46 30.24 86.46 30.24 83.3 30.89 83.3"/><path class="cls-2" d="M142.17,128.51c-2.75-2.73-5.52-.7-8.91-1.16-3.7-.5-4.93-2.61-7.41-5.08-4.93-4.93-10.72-5.08-16.69-2.63-7.18,3-9.89-.26-15-5.07-6.41-6-13.78-5.1-20.9-1.18-3.14,1.74-6.88,3.15-10.62,2.25s-4.7-4.78-8.11-6.54c-3.08-1.58-8.48-2.56-11.82-1.28-4.67,1.79-7,5.35-12.56,6s-9.82-3.57-15.53-2c-2.91.79-8,3.81-9.66,6.6a8.84,8.84,0,0,0-1,4.74c1,2.05-4.63,4.37-.68,7.11,4.86,3.37,8.63,4,14.5,4.36,6.32.33,16.1,2.13,22.39,2.91,6.5.8,21.66.75,43,2,3,.18,33.64.25,36.43,0,6.3-.59,12.57-1.6,18.83-1.58,3,0,7.45,1.22,7.52-2C145.88,135.07,143,129.29,142.17,128.51Z"/><path class="cls-3" d="M140.17,133.49a27.12,27.12,0,0,0-9.88-1.85,21,21,0,0,1-7-.34c-2.1-.58-2.53-1.92-4.06-3.22-4.1-3.49-7.15,1.18-11.21,1.61-2.77.3-4.66-1.34-7-2.34a11.56,11.56,0,0,0-5.71-.54c-2.45.22-5,1.13-7.52.75S84,125,82.23,123.33a11.42,11.42,0,0,0-6-3.09c-2.29-.49-4.21-1.21-6.52-.53s-4.52,2.38-7.09,2a8.45,8.45,0,0,1-5.76-3.91c-1-1.52-1.46-3.7-3.47-4.11-2.17-.44-2.82,1.24-4.25,2.35-2,1.59-3.39.68-5.5,0-4.72-1.6-6,1.06-9.61,3.21-4.29,2.53-7.45-1.46-11.48-.28-1.53.45-2.81,1.47-4.48,1.4s-2.88-1.13-4.42-1.3a12.35,12.35,0,0,0-4.76.37c-2.61.78-3.46,3.45-5,5.38s-3.38,3.58-.69,5.45c4.86,3.36,8.63,4,14.5,4.35,6.32.33,16.1,2.13,22.39,2.91,6.5.8,21.66.75,43,2,3,.18,33.64.25,36.43,0,6.3-.59,12.57-1.6,18.83-1.58,1,0,4.42.88,5.17.31,1.23-.92-.38-3.09-1.46-3.77A11.76,11.76,0,0,0,140.17,133.49Z"/><path class="cls-2" d="M128.54,134.42c-3.37-1.18-6.11-.67-9.58-.41a34.91,34.91,0,0,0-9.49,1.83c-3.44,1.21-6.93,1.84-10.38.3-2.26-1-4.74-4.44-7.28-4.43-3.47,0-6.56,1.66-9.85,2.53a25.58,25.58,0,0,1-10,.5c-3.54-.46-7.4-1.55-10.86-.19a12.67,12.67,0,0,1-7.78,1c-2.43-.62-2.37-1.54-3-3.7a4.2,4.2,0,0,0-1.79-2.43,4,4,0,0,0-3.35-.71c-.74.18-1.36.78-2.1.93-1,.21-1.65-.35-2.58-.66,0-.12,0-.26,0-.38-.45-.29-.85-.69-1.27-1-2.65-.66-4.57,2.38-7.45,1.31-1.11-.42-1.17-1-2.51-1a11.41,11.41,0,0,0-4.42.9c-.86.35-2.1,1.2-3,.54s-.65-1.36-2-1.08-2.46.93-3.81,1.12a11.85,11.85,0,0,1-4.67-.22,8.27,8.27,0,0,0-4.54-.22,7.44,7.44,0,0,0-3.11,1.68c4.61,3.06,8.32,3.72,14,4,6.32.33,16.1,2.13,22.39,2.91,6.5.8,21.66.75,43,2,3,.18,33.64.25,36.43,0,6-.56,11.89-1.48,17.8-1.56A69,69,0,0,0,128.54,134.42Z"/><polygon class="cls-36" points="90.13 25.51 90.13 26.98 91.65 26.98 91.65 25.51 92.2 25.51 92.2 26.98 93.71 26.98 93.71 25.51 94.27 25.51 94.27 26.98 95.78 26.98 95.78 25.51 96.34 25.51 96.34 26.98 97.85 26.98 97.85 25.51 98.4 25.51 98.4 26.98 99.92 26.98 99.92 25.51 100.47 25.51 100.47 26.98 101.98 26.98 101.98 25.51 102.54 25.51 102.54 26.98 104.05 26.98 104.05 25.51 104.61 25.51 104.61 26.98 106.12 26.98 106.12 25.51 106.67 25.51 106.67 26.98 108.19 26.98 108.19 25.51 108.74 25.51 108.74 26.98 110.25 26.98 110.25 25.51 110.81 25.51 110.81 26.98 112.32 26.98 112.32 25.51 113.01 25.51 113.01 29.95 89.35 29.95 89.35 25.51 90.13 25.51"/><rect class="cls-4" x="94.27" y="9" width="1.65" height="4.64"/><rect class="cls-5" x="94.27" y="9" width="1.65" height="4.64"/><polygon class="cls-36" points="95.09 7.01 94.03 9 95.09 9 96.16 9 95.09 7.01"/><rect class="cls-4" x="99.1" y="9" width="1.65" height="4.64"/><polygon class="cls-36" points="99.92 7.01 98.86 9 99.92 9 100.99 9 99.92 7.01"/><rect class="cls-4" x="106.35" y="9" width="1.65" height="4.64"/><polygon class="cls-36" points="107.17 7.01 106.11 9 107.17 9 108.24 9 107.17 7.01"/><polygon class="cls-36" points="94.14 12.22 94.14 13.16 95.1 13.16 95.1 12.22 95.46 12.22 95.46 13.16 96.42 13.16 96.42 12.22 96.77 12.22 96.77 13.16 97.74 13.16 97.74 12.22 98.09 12.22 98.09 13.16 99.06 13.16 99.06 12.22 99.41 12.22 99.41 13.16 100.38 13.16 100.38 12.22 100.73 12.22 100.73 13.16 101.69 13.16 101.69 12.22 102.05 12.22 102.05 13.16 103.01 13.16 103.01 12.22 103.36 12.22 103.36 13.16 104.33 13.16 104.33 12.22 104.68 12.22 104.68 13.16 105.65 13.16 105.65 12.22 106 12.22 106 13.16 106.97 13.16 106.97 12.22 107.32 12.22 107.32 13.16 108.28 13.16 108.28 12.22 108.73 12.22 108.73 15.05 93.64 15.05 93.64 12.22 94.14 12.22"/><rect class="cls-4" x="171.71" y="35.6" width="2.04" height="5.73"/><rect class="cls-5" x="171.71" y="35.6" width="2.04" height="5.73"/><polygon class="cls-36" points="172.73 33.14 171.41 35.6 172.73 35.6 174.05 35.6 172.73 33.14"/><rect class="cls-4" x="177.38" y="35.6" width="2.04" height="5.73"/><polygon class="cls-36" points="178.4 33.14 177.09 35.6 178.4 35.6 179.72 35.6 178.4 33.14"/><rect class="cls-4" x="186.85" y="35.6" width="2.04" height="5.73"/><polygon class="cls-36" points="187.87 33.14 186.55 35.6 187.87 35.6 189.19 35.6 187.87 33.14"/><polygon class="cls-36" points="171.55 39.59 171.55 40.74 172.74 40.74 172.74 39.59 173.18 39.59 173.18 40.74 174.37 40.74 174.37 39.59 174.81 39.59 174.81 40.74 176 40.74 176 39.59 176.44 39.59 176.44 40.74 177.63 40.74 177.63 39.59 178.07 39.59 178.07 40.74 179.26 40.74 179.26 39.59 179.69 39.59 179.69 40.74 180.89 40.74 180.89 39.59 181.32 39.59 181.32 40.74 182.52 40.74 182.52 39.59 182.95 39.59 182.95 40.74 184.15 40.74 184.15 39.59 184.58 39.59 184.58 40.74 185.78 40.74 185.78 39.59 186.21 39.59 186.21 40.74 187.41 40.74 187.41 39.59 187.84 39.59 187.84 40.74 189.03 40.74 189.03 39.59 189.58 39.59 189.58 43.09 170.93 43.09 170.93 39.59 171.55 39.59"/><path class="cls-29" d="M122.91,108.19V104h0a2.15,2.15,0,0,0-2.65,0h0v4.22Z"/><path class="cls-11" d="M122.5,107.78V104.4h0a1.49,1.49,0,0,0-1.85,0h0v3.38Z"/><path class="cls-29" d="M116.69,108.19V104h0a2.15,2.15,0,0,0-2.65,0h0v4.22Z"/><path class="cls-11" d="M116.28,107.78V104.4h0a1.49,1.49,0,0,0-1.85,0h0v3.38Z"/><path class="cls-29" d="M109.72,108.19V104h0a2.16,2.16,0,0,0-2.66,0h0v4.22Z"/><path class="cls-11" d="M109.32,107.78V104.4h0a1.5,1.5,0,0,0-1.86,0h0v3.38Z"/><path class="cls-29" d="M122.91,115.58v-4.22h0a2.15,2.15,0,0,0-2.65,0h0v4.22Z"/><path class="cls-11" d="M122.5,115.18v-3.39h0a1.52,1.52,0,0,0-1.85,0h0v3.39Z"/><path class="cls-29" d="M116.69,115.58v-4.22h0a2.15,2.15,0,0,0-2.65,0h0v4.22Z"/><path class="cls-11" d="M116.28,115.18v-3.39h0a1.52,1.52,0,0,0-1.85,0h0v3.39Z"/><path class="cls-29" d="M109.72,115.58v-4.22h0a2.16,2.16,0,0,0-2.66,0h0v4.22Z"/><path class="cls-11" d="M109.32,115.18v-3.39h0a1.53,1.53,0,0,0-1.86,0h0v3.39Z"/><path class="cls-29" d="M48.05,95.71V91.49h0a2.16,2.16,0,0,0-2.66,0h0v4.22Z"/><path class="cls-11" d="M47.65,95.3V91.92h0a1.5,1.5,0,0,0-1.86,0h0V95.3Z"/><path class="cls-29" d="M41.83,95.71V91.49h0a2.16,2.16,0,0,0-2.66,0h0v4.22Z"/><path class="cls-11" d="M41.42,95.3V91.92h0a1.5,1.5,0,0,0-1.86,0h0V95.3Z"/><path class="cls-29" d="M34.86,95.71V91.49h0a2.16,2.16,0,0,0-2.66,0h0v4.22Z"/><path class="cls-11" d="M34.46,95.3V91.92h0a1.5,1.5,0,0,0-1.86,0h0V95.3Z"/><path class="cls-29" d="M48.05,103.1V98.88h0a2.16,2.16,0,0,0-2.66,0h0v4.22Z"/><path class="cls-11" d="M47.65,102.7V99.31h0a1.53,1.53,0,0,0-1.86,0h0v3.39Z"/><path class="cls-29" d="M41.83,103.1V98.88h0a2.16,2.16,0,0,0-2.66,0h0v4.22Z"/><path class="cls-11" d="M41.42,102.7V99.31h0a1.53,1.53,0,0,0-1.86,0h0v3.39Z"/><path class="cls-29" d="M34.86,103.1V98.88h0a2.16,2.16,0,0,0-2.66,0h0v4.22Z"/><path class="cls-11" d="M34.46,102.7V99.31h0a1.53,1.53,0,0,0-1.86,0h0v3.39Z"/></g></g></g></svg>