<svg xmlns="http://www.w3.org/2000/svg" xmlns:xlink="http://www.w3.org/1999/xlink" viewBox="0 0 168.23 87.03"><defs><style>.cls-1{isolation:isolate;}.cls-10,.cls-11,.cls-12,.cls-13,.cls-14,.cls-2,.cls-3,.cls-4,.cls-5,.cls-6,.cls-7,.cls-8,.cls-9{fill-rule:evenodd;}.cls-2{fill:url(#_ÂÁ_Ï_ÌÌ_È_ËÂÌÚ_71);}.cls-3{fill:#ffcf9d;}.cls-10,.cls-3,.cls-9{mix-blend-mode:soft-light;}.cls-4{fill:#cf7f6c;}.cls-5,.cls-6{fill:#4e223b;}.cls-5,.cls-9{opacity:0.5;}.cls-7{fill:#b26860;}.cls-8{fill:#c8938d;}.cls-9{fill:#c47a5f;}.cls-10{fill:#8b90a1;}.cls-11{fill:#7c4760;}.cls-12{fill:#b89c7e;opacity:0.15;mix-blend-mode:color-dodge;}.cls-13{fill:#de895f;opacity:0.46;mix-blend-mode:multiply;}.cls-14{fill:#d6794f;}</style><linearGradient id="_ÂÁ_Ï_ÌÌ_È_ËÂÌÚ_71" x1="84.11" y1="87.02" x2="84.11" y2="15.87" gradientUnits="userSpaceOnUse"><stop offset="0" stop-color="#4f2c3b"/><stop offset="0.97" stop-color="#723747"/></linearGradient></defs><g class="cls-1"><g id="Layer_2" data-name="Layer 2"><g id="Layer_1-2" data-name="Layer 1"><polygon class="cls-2" points="89.04 29.43 28.01 3.45 22.96 30.72 29.46 68.25 15.93 66.63 0 80.98 1.56 86.67 168.23 86.67 158.19 62.39 117.86 39.22 108.28 43.84 104.82 51.17 89.04 29.43"/><polygon class="cls-3" points="28.01 3.45 53.34 60.35 47.38 31.09 63.1 70.02 85.13 81.07 115.69 80.26 104.82 51.17 89.04 29.43 52.62 0 28.01 3.45"/><polygon class="cls-3" points="15.93 66.63 0 80.98 44.59 83.52 29.46 68.25 15.93 66.63"/><polygon class="cls-3" points="108.28 43.84 129.45 84.65 136.56 85.19 133.12 70.89 143.21 83.52 167.05 83.83 158.19 62.39 117.86 39.22 108.28 43.84"/><polygon class="cls-4" points="108.28 43.84 119.22 62.2 158.19 62.39 117.86 39.22 108.28 43.84"/><polygon class="cls-4" points="15.93 66.63 17.73 82.09 44.59 83.52 29.46 68.25 15.93 66.63"/><polygon class="cls-4" points="28.01 3.45 34.57 18.19 89.04 29.43 52.62 0 28.01 3.45"/><polygon class="cls-5" points="34.57 18.19 23.6 34.43 25.44 45.06 35.97 21.32 34.57 18.19"/><polygon class="cls-5" points="37.56 24.92 26.17 49.27 28.45 62.39 46.53 45.06 37.56 24.92"/><polygon class="cls-6" points="63.1 70.02 44.59 83.52 21.11 87.03 102.05 86.32 85.13 81.07 63.1 70.02"/><polygon class="cls-6" points="53.34 60.35 43.02 81.07 59.3 60.58 47.38 31.09 53.34 60.35"/><polygon class="cls-6" points="115.69 80.26 114.83 86.67 128.71 86.67 129.45 84.65 111.07 49.21 106.66 56.08 115.69 80.26"/><polygon class="cls-7" points="32.37 14.24 43.02 19.8 39.82 29.98 32.37 14.24"/><polygon class="cls-7" points="116.21 58.92 126.95 62.2 122.1 70.89 116.21 58.92"/><polygon class="cls-8" points="39.94 18.19 48.92 21.15 42.6 21.15 39.94 18.19"/><polygon class="cls-8" points="126.95 62.2 133.24 62.27 125.65 64.52 126.95 62.2"/><polygon class="cls-8" points="14.99 81.83 17.55 80.58 28.01 82.64 14.99 81.83"/><polygon class="cls-8" points="61.35 23.72 73.73 24.92 89.04 29.43 61.35 23.72"/><polygon class="cls-9" points="56.72 22.76 75.19 66.63 92.07 68.7 71.85 36.06 76.05 34.82 96.86 66.63 111.38 68.7 104.82 51.17 89.04 29.43 56.72 22.76"/><polygon class="cls-9" points="158.19 62.39 157.95 83.71 167.05 83.83 158.19 62.39"/><polygon class="cls-9" points="143.21 83.52 129.44 63.4 133.24 62.27 139.76 62.39 147.96 83.58 143.21 83.52"/><polygon class="cls-10" points="29.46 68.25 22.96 30.72 32.89 60.35 38.58 63.41 34.57 18.19 53.34 60.35 43.02 81.07 29.46 68.25"/><polygon class="cls-11" points="63.1 70.02 93.63 80.84 85.13 81.07 63.1 70.02"/><polygon class="cls-12" points="99.6 43.98 50.84 39.64 49.6 41.98 44.17 39.76 25.44 45.06 26.17 50.8 46.53 45.06 50.37 45.73 52.17 42.94 100.73 45.53 99.6 43.98"/><polygon class="cls-12" points="103.4 49.21 54.7 49.21 51.38 50.72 48.57 49.63 27.54 57.15 27.35 56.08 48.11 48.6 51.16 49.63 53.94 47.52 102.17 47.52 103.4 49.21"/><polygon class="cls-13" points="26.17 50.8 27.35 56.08 48.11 48.6 51.16 49.63 53.94 47.52 102.17 47.52 100.73 45.53 52.17 42.94 50.37 45.73 46.53 45.06 26.17 50.8"/><polygon class="cls-12" points="111.38 68.7 61.58 64.91 46.53 73.11 37.7 76.56 16.68 73.11 6.56 75.08 4.63 76.81 16.7 73.89 39.02 77.9 47.82 73.89 61.74 66.63 112.2 70.89 111.38 68.7"/><polygon class="cls-12" points="163 75.08 139.89 79.36 143.21 83.52 164.86 78.53 163 75.08"/><polygon class="cls-14" points="90.7 31.72 92.07 40.03 99.6 43.98 90.7 31.72"/><polygon class="cls-14" points="66.43 49.3 73.73 50.8 78.37 49.21 66.43 49.3"/><polygon class="cls-14" points="80.84 47.52 83.06 45.73 91.89 45.06 93.63 47.52 80.84 47.52"/><polygon class="cls-14" points="64.17 62.2 64.17 58.92 65.38 62.39 64.17 64.52 64.17 62.2"/><polygon class="cls-14" points="73.95 58.92 78.37 63.36 80.84 62.39 82.15 61.14 73.95 58.92"/><polygon class="cls-14" points="78.37 57.15 79.42 58.92 82.15 58.03 78.37 57.15"/><polygon class="cls-14" points="65.38 27.45 66.43 29.98 69.32 29.98 68.01 26.58 65.38 27.45"/><polygon class="cls-14" points="127.88 70.02 127.88 73.11 130.73 75.08 127.88 70.02"/><polygon class="cls-14" points="148.79 65.28 152.38 65.28 154.73 70.02 151.76 70.02 148.79 65.28"/><polygon class="cls-14" points="145.82 63.36 148.79 67.94 147.3 67.94 144.15 64.52 145.82 63.36"/></g></g></g></svg>