<svg xmlns="http://www.w3.org/2000/svg" xmlns:xlink="http://www.w3.org/1999/xlink" viewBox="0 0 119.97 81.42"><defs><style>.cls-1{fill:#6d5141;}.cls-2{fill:none;}.cls-3{isolation:isolate;}.cls-4{clip-path:url(#clip-path);}.cls-5{fill:#5e4336;}.cls-6{fill:#7f6152;}.cls-7{fill:#d6c7c0;}.cls-8{fill:#e3e0db;}.cls-15,.cls-9{mix-blend-mode:multiply;}.cls-10{fill:#b2a18d;opacity:0.65;}.cls-11{fill:#ceb29f;}.cls-12,.cls-20{mix-blend-mode:soft-light;}.cls-13{fill:#d3b89d;}.cls-14{clip-path:url(#clip-path-2);}.cls-15{opacity:0.47;}.cls-16{fill:#b0a089;}.cls-17{clip-path:url(#clip-path-3);}.cls-18{fill:#d8bfad;}.cls-19{fill:#ad917f;}.cls-20{opacity:0.39;}.cls-21{fill:#fff;}.cls-22{fill:#e2d6d0;}.cls-23{fill:#efe6e1;}</style><clipPath id="clip-path" transform="translate(12.93 5.79)"><path class="cls-1" d="M98.93.54a8.57,8.57,0,0,1,4.64,5.35,8.56,8.56,0,0,1-1.06,7,17,17,0,0,1-2.45,2.78c-3.16,3.13-6.3,6.54-7.65,10.78-.94,2.94-1,6.08-1.3,9.15S90,41.85,87.88,44.1c-4,4.27-9.4,6.93-13.1,11.47-2.63,3.25-4.85,7.07-8.5,9.1-4.66,2.58-10.48,1.59-15.5-.19C49.36,64,48,63.43,46.52,63c-5.44-1.5-11.21-.72-16.86-.57s-11.75-.54-16-4.3C9.86,54.74,7.75,49,2.79,47.63a6.19,6.19,0,0,1-1.7-.57c-1.32-.86-1.22-3-.2-4.17A8.43,8.43,0,0,1,5,40.7c6.63-2.07,14.31-.8,21.13-2.16,19.64-3.91,36.54-15.84,54.13-25.4,5.16-2.8,10.54-5.5,14.56-9.78C96.19,1.9,97,.09,98.93.54Z"/></clipPath><clipPath id="clip-path-2" transform="translate(12.93 5.79)"><path class="cls-2" d="M71.28,46.46a10.27,10.27,0,0,0,5.65-6.11c.88-2.61.73-5.67,2.42-7.85,1.12-1.46,2.92-2.32,3.9-3.87a13.19,13.19,0,0,0,1.13-2.87,16.56,16.56,0,0,1,6.27-8.28,20.2,20.2,0,0,0,2.8-2,10.18,10.18,0,0,0,2.44-5.3,9.51,9.51,0,0,0,.2-3.36A4,4,0,0,0,94.38,4c-1.4-.88-3.23-.51-4.82,0s-3.32,1-4.86.39a6.94,6.94,0,0,0-2.35-.94,3.56,3.56,0,0,0-1.5.47c-1.54.76-3.45,2.23-5.09,2.74a13.66,13.66,0,0,1-7.27.49c-2.7-.67-5-2.52-7.73-3.12a8.91,8.91,0,0,0-6.1.86c-1.87,1-3.35,2.69-5.32,3.5C45.87,9.74,42,8.09,38.25,7.77A15.71,15.71,0,0,0,24.58,13.9c-1,1.33-1.77,2.81-2.79,4.12a7.06,7.06,0,0,1-4,2.8,10.7,10.7,0,0,0-7.35,5.89,5.41,5.41,0,0,0-.72,3.43c.24,1.24,1.14,2.31,1.23,3.57a4.68,4.68,0,0,1-1.56,3.34,20,20,0,0,0-2.6,2.77,3.22,3.22,0,0,0-.18,3.57A3.39,3.39,0,0,0,9.32,44.5c1,0,2-.19,3-.15,3.48.14,6.09,3,8.86,5.14,3.58,2.71,8.43,4.29,12.62,2.66,1.82-.7,3.43-2,5.34-2.36a9.74,9.74,0,0,1,6.08.61c1.85.9,3.54,2.14,5.47,2.9A12.17,12.17,0,0,0,61,52.54C64.6,50.5,67.5,48.06,71.28,46.46Z"/></clipPath><clipPath id="clip-path-3" transform="translate(12.93 5.79)"><path class="cls-2" d="M48.69,43.78a9.83,9.83,0,0,1,7.8-2,28.11,28.11,0,0,0,4.41.92,9.73,9.73,0,0,0,4.52-1.26c2.6-1.3,5.13-3.17,6.14-5.89.64-1.7.62-3.61,1.36-5.27,1.17-2.63,3.94-4.09,6.42-5.55s5.08-3.49,5.39-6.35A7.76,7.76,0,0,0,84.22,15,6.59,6.59,0,0,0,82,11.67a6.93,6.93,0,0,0-3.05-1,11.64,11.64,0,0,0-7.08.75c-1.71.89-3,2.38-4.49,3.6A12.88,12.88,0,0,1,60.11,18a19.15,19.15,0,0,1-5-.57c-6.16-1.26-12.65-2.83-18.59-.79C34.21,17.44,23.22,22.61,26,34.6c1.09,4.81,3.45,9.74,8.09,11.41a18.21,18.21,0,0,0,7.78.64A12.28,12.28,0,0,0,48.69,43.78Z"/></clipPath></defs><g class="cls-3"><g id="Layer_2" data-name="Layer 2"><g id="Layer_1-2" data-name="Layer 1"><g id="Layer_5" data-name="Layer 5"><path class="cls-1" d="M98.93.54a8.57,8.57,0,0,1,4.64,5.35,8.56,8.56,0,0,1-1.06,7,17,17,0,0,1-2.45,2.78c-3.16,3.13-6.3,6.54-7.65,10.78-.94,2.94-1,6.08-1.3,9.15S90,41.85,87.88,44.1c-4,4.27-9.4,6.93-13.1,11.47-2.63,3.25-4.85,7.07-8.5,9.1-4.66,2.58-10.48,1.59-15.5-.19C49.36,64,48,63.43,46.52,63c-5.44-1.5-11.21-.72-16.86-.57s-11.75-.54-16-4.3C9.86,54.74,7.75,49,2.79,47.63a6.19,6.19,0,0,1-1.7-.57c-1.32-.86-1.22-3-.2-4.17A8.43,8.43,0,0,1,5,40.7c6.63-2.07,14.31-.8,21.13-2.16,19.64-3.91,36.54-15.84,54.13-25.4,5.16-2.8,10.54-5.5,14.56-9.78C96.19,1.9,97,.09,98.93.54Z" transform="translate(12.93 5.79)"/><g class="cls-4"><path class="cls-5" d="M99.52,21.4c3-3.9,7.09-7,7.47-12.34a28.86,28.86,0,0,0-.76-8c-.49-2.29-1.16-4.92-2.91-6.55a1.34,1.34,0,0,0-1.84.24c-1.4,1.42-1.92,3.75-2.31,5.65-.48,2.28-.47,4.6-.83,6.9-.56,3.65-4.58,6.12-6.76,8.9a38.24,38.24,0,0,0-6,11.1c-.17.47-.31.93-.44,1.38a15.75,15.75,0,0,0-2.63,2.79,48.85,48.85,0,0,0-5.71,8.2c-2.21,3.93-4.94,9.35-1,13.15,3.67,3.58,9.27,2,12.1-1.76s4.64-8.24,6.51-12.35a4.2,4.2,0,0,0-.86-4.9q.15-.52.3-1A34.37,34.37,0,0,1,99.52,21.4Z" transform="translate(12.93 5.79)"/><path class="cls-5" d="M44.45,51.31a5,5,0,0,0-5-1.83,4.26,4.26,0,0,0-1.76.28l-.43-.2a4.42,4.42,0,0,0-5.27,1c-.18.06-.35.13-.51.2a4.88,4.88,0,0,0-2.4.61A4.36,4.36,0,0,0,25.7,53h0a3.83,3.83,0,0,0-2.81,1.85,41,41,0,0,0-2.18,4c-1.35,2.92.6,5.54,3.14,6.28a4.69,4.69,0,0,0,1.14.67A4.9,4.9,0,0,0,30,64.9a4.05,4.05,0,0,0,1,.24,3.6,3.6,0,0,0,.56,0,5.24,5.24,0,0,0,6,.14,3.46,3.46,0,0,0,1.86,1.74,3.8,3.8,0,0,0,4.91-2C46.15,61.09,47.46,55,44.45,51.31Z" transform="translate(12.93 5.79)"/><path class="cls-6" d="M-12.9,41.64c.4,2.31,3.68,3.24,5.59,3.85A44.74,44.74,0,0,1,.41,48.58a18.6,18.6,0,0,1,5.07,3.91c1.78,2,2.71,5.32,5.39,6.23a4.4,4.4,0,0,0,5.64-2.34C18,52.75,15,48.77,12.57,46.18a23.11,23.11,0,0,0-8-5.78,27.43,27.43,0,0,0-10-1.89c-1.66,0-8,0-7.43,3.13Z" transform="translate(12.93 5.79)"/><path class="cls-6" d="M67.5,66.31c0,.26,0,.51,0,.77V65.85a4.81,4.81,0,0,0-.7-1.86,37.16,37.16,0,0,0,.5-8.4c-.12-2.33-2.59-4.07-4.74-4a4.45,4.45,0,0,0-3.35,1.49c-.19,0-.37-.08-.55-.11a4.76,4.76,0,0,0-3.54-1h0a1.88,1.88,0,0,0-.54-.59l-.12-.09a2.13,2.13,0,0,0-2.9.39c-.82.94-.59,2.36-.54,3.51.08,1.68.26,3.36.46,5a70.17,70.17,0,0,0,.77,7.35,4.7,4.7,0,0,0,.62,1.65c.16,1,.33,2,.5,2.94.75,4.52,7.5,4.76,8.36.29a4.66,4.66,0,0,0,1.89-1.29,4.85,4.85,0,0,0,2.5-1.2A3.82,3.82,0,0,0,67.5,66.31Z" transform="translate(12.93 5.79)"/></g><path class="cls-7" d="M73.67,48.73a11.61,11.61,0,0,0,6.4-6.91c1-3,.82-6.41,2.73-8.89,1.27-1.65,3.31-2.62,4.42-4.38a14.65,14.65,0,0,0,1.27-3.24,18.83,18.83,0,0,1,7.09-9.37,22,22,0,0,0,3.18-2.3,11.52,11.52,0,0,0,2.76-6,10.59,10.59,0,0,0,.22-3.8A4.5,4.5,0,0,0,99.81.67c-1.59-1-3.65-.58-5.45-.05s-3.76,1.14-5.5.44C88,.7,87.16,0,86.2,0a3.94,3.94,0,0,0-1.69.53c-1.75.86-3.91,2.52-5.77,3.1a15.57,15.57,0,0,1-8.22.56c-3.06-.76-5.67-2.86-8.75-3.54a10.08,10.08,0,0,0-6.9,1c-2.12,1.15-3.79,3.05-6,4-3.93,1.6-8.31-.27-12.54-.63a17.79,17.79,0,0,0-15.47,6.94c-1.12,1.5-2,3.18-3.15,4.66a8,8,0,0,1-4.51,3.17,12.13,12.13,0,0,0-8.32,6.66,6.16,6.16,0,0,0-.81,3.89c.27,1.4,1.29,2.6,1.38,4a5.26,5.26,0,0,1-1.76,3.79A21.19,21.19,0,0,0,.73,41.22a3.62,3.62,0,0,0-.2,4,3.83,3.83,0,0,0,3,1.25c1.13,0,2.26-.21,3.4-.16,3.93.15,6.88,3.43,10,5.81,4.06,3.07,9.54,4.85,14.28,3,2.06-.8,3.88-2.24,6.05-2.67a10.9,10.9,0,0,1,6.86.69c2.11,1,4,2.42,6.19,3.27a13.77,13.77,0,0,0,11.72-.85C66.12,53.3,69.4,50.54,73.67,48.73Z" transform="translate(12.93 5.79)"/><path class="cls-8" d="M20.28,40.68c.42,1.12.42,2.19,1.16,3.18a10.27,10.27,0,0,0,3.13,2.66,17.33,17.33,0,0,0,9.62,2c3.1-.13,6.15-.91,9.27-.93,3.35,0,6.52,1.28,9.85,1.42a23,23,0,0,0,15.91-5.23,21.7,21.7,0,0,0,5.49-7.22c1.2-2.55,1.84-5.08,3.86-7.14C81,27,83.93,25,86,22.13c2.3-3.29,4.33-8.64.37-11.57a3.83,3.83,0,0,0-4.61,0C80,12,79.83,13.63,79,15.47a10.61,10.61,0,0,1-2.07,2.78c-2.42,2.44-5.36,4.35-7.34,7.22-1.8,2.6-2.66,6.14-4.2,8.5a12.55,12.55,0,0,1-5.5,4.57,14.18,14.18,0,0,1-7.32,1.19c-3.7-.34-7.21-1-10.93-.45S34.54,41,31,41.58a17.61,17.61,0,0,1-4.86.31c-1.31-.14-3.87-.68-4.62-1.92-.43-.72-1.48,0-1.21.71Z" transform="translate(12.93 5.79)"/><g class="cls-9"><path class="cls-5" d="M44.12,16.39a14.18,14.18,0,0,0-4.23-1.09,12.89,12.89,0,0,0-5,.9,18.75,18.75,0,0,0-8.14,6.43c-3.95,5.43-5.1,13-1.81,19.05,3.86,7.09,11.54,8,18.76,6.12,3.64-1,7.18-2.22,11-2s7.63.61,11-1.5,4.83-5.49,6.33-8.89a29.15,29.15,0,0,1,2.35-4.71A33.58,33.58,0,0,1,77.83,27a1.9,1.9,0,0,0-1.27-3c-5.71-.46-8.33,6.35-10.63,10.36-1.16,2-2.72,4.19-5.09,4.75-2.82.68-5.93-.1-8.8.09-3.22.22-6.28,1.34-9.35,2.22-2.88.83-6.37,1.68-9.22.33-4.45-2.11-5.06-8.11-3.86-12.31A14.83,14.83,0,0,1,35,21.68a25.88,25.88,0,0,1,4.33-2.42A28.79,28.79,0,0,1,44,17.07c.3-.08.45-.56.08-.68Z" transform="translate(12.93 5.79)"/></g><path class="cls-10" d="M71.28,46.46a10.27,10.27,0,0,0,5.65-6.11c.88-2.61.73-5.67,2.42-7.85,1.12-1.46,2.92-2.32,3.9-3.87a13.19,13.19,0,0,0,1.13-2.87,16.56,16.56,0,0,1,6.27-8.28,20.2,20.2,0,0,0,2.8-2,10.18,10.18,0,0,0,2.44-5.3,9.51,9.51,0,0,0,.2-3.36A4,4,0,0,0,94.38,4c-1.4-.88-3.23-.51-4.82,0s-3.32,1-4.86.39a6.94,6.94,0,0,0-2.35-.94,3.56,3.56,0,0,0-1.5.47c-1.54.76-3.45,2.23-5.09,2.74a13.66,13.66,0,0,1-7.27.49c-2.7-.67-5-2.52-7.73-3.12a8.91,8.91,0,0,0-6.1.86c-1.87,1-3.35,2.69-5.32,3.5C45.87,9.74,42,8.09,38.25,7.77A15.71,15.71,0,0,0,24.58,13.9c-1,1.33-1.77,2.81-2.79,4.12a7.06,7.06,0,0,1-4,2.8,10.7,10.7,0,0,0-7.35,5.89,5.41,5.41,0,0,0-.72,3.43c.24,1.24,1.14,2.31,1.23,3.57a4.68,4.68,0,0,1-1.56,3.34,20,20,0,0,0-2.6,2.77,3.22,3.22,0,0,0-.18,3.57A3.39,3.39,0,0,0,9.32,44.5c1,0,2-.19,3-.15,3.48.14,6.09,3,8.86,5.14,3.58,2.71,8.43,4.29,12.62,2.66,1.82-.7,3.43-2,5.34-2.36a9.74,9.74,0,0,1,6.08.61c1.85.9,3.54,2.14,5.47,2.9A12.17,12.17,0,0,0,61,52.54C64.6,50.5,67.5,48.06,71.28,46.46Z" transform="translate(12.93 5.79)"/><path class="cls-11" d="M48.69,43.78a9.83,9.83,0,0,1,7.8-2,28.11,28.11,0,0,0,4.41.92,9.73,9.73,0,0,0,4.52-1.26c2.6-1.3,5.13-3.17,6.14-5.89.64-1.7.62-3.61,1.36-5.27,1.17-2.63,3.94-4.09,6.42-5.55s5.08-3.49,5.39-6.35A7.76,7.76,0,0,0,84.22,15,6.59,6.59,0,0,0,82,11.67a6.93,6.93,0,0,0-3.05-1,11.64,11.64,0,0,0-7.08.75c-1.71.89-3,2.38-4.49,3.6A12.88,12.88,0,0,1,60.11,18a19.15,19.15,0,0,1-5-.57c-6.16-1.26-12.65-2.83-18.59-.79C34.21,17.44,23.22,22.61,26,34.6c1.09,4.81,3.45,9.74,8.09,11.41a18.21,18.21,0,0,0,7.78.64A12.28,12.28,0,0,0,48.69,43.78Z" transform="translate(12.93 5.79)"/><g class="cls-12"><path class="cls-13" d="M35.62,36.07a2.81,2.81,0,0,0,2.89.22c1.52-.8,1.81-2.49,2.49-3.9,1.41-2.92,4.69-5.26,8-4.37,2,.53,3.67,1.72,5.72,2.14a12.55,12.55,0,0,0,5.42-.1,12.35,12.35,0,0,0,5-2.43,4.89,4.89,0,0,0,2-4.85,1.47,1.47,0,0,0-1.64-1.22l.43.15-.61-.16a3.85,3.85,0,0,0-1.21.17A9.66,9.66,0,0,0,62,23a11.1,11.1,0,0,1-4,1.69c-3.55.69-6.36-1.7-9.83-1.76a11.43,11.43,0,0,0-8.38,3.45,9.68,9.68,0,0,0-2.42,3.95c-.25.91.15,5.61-1.53,5.24a.3.3,0,0,0-.22.53Z" transform="translate(12.93 5.79)"/></g><path class="cls-8" d="M71.87,20.21c.08,0,.17-.06.24-.1-.33.16-.26.07-.07,0a9.46,9.46,0,0,0,.91-.26l-.47.13a3.26,3.26,0,0,0,1-.32,2,2,0,0,0,.87-1A1.77,1.77,0,0,0,74.08,17a2.1,2.1,0,0,0-1.87-.75,2.77,2.77,0,0,0-1.12.44,2.73,2.73,0,0,0-1.22,1.6,1.55,1.55,0,0,0,.34,1.64,1.52,1.52,0,0,0,1.66.33Z" transform="translate(12.93 5.79)"/><g class="cls-14"><g class="cls-15"><path class="cls-16" d="M97.85,4A5.7,5.7,0,0,0,94,1c-2.32-.51-3.91.56-5.91,1.47s-3.9-1-5.85-1.29c-2.51-.34-4.44.94-6.79,1.46-4.55,1-9.12-2.18-13.6-2.58a13,13,0,0,0-6.21.82c-2.1.88-3.56,2.69-5.58,3.64-3.76,1.77-8.51.59-12.5.8-4.26.23-8.54,1.76-11,5.43-1.22,1.82-1.9,4-3.41,5.62a9.62,9.62,0,0,1-5.32,2.75c-4.48,1-8.2,3.8-8.86,8.61a10,10,0,0,0,.15,3.45c.19.89,1.05,2.57.77,3.46,0,0-1.37,1-1.78,1.37a25.7,25.7,0,0,0-2.92,2.89C1.86,42.79-.29,49.14,3.5,53.52c1.14,1.3,3.56.86,3.73-1a15.61,15.61,0,0,1,4.38-10c1.32-1.32,3-2.38,4-3.95,1.4-2.08,1.23-4.47.62-6.78-.39-1.48-1-3-.18-4.42s2.45-1.62,4-2a15.67,15.67,0,0,0,9.7-7.08c.94-1.59,1.57-3.58,3-4.85a8.22,8.22,0,0,1,4.61-1.72c3.8-.49,7.67.22,11.46-.51a14.53,14.53,0,0,0,5.37-2.12C55.76,8,57.05,6.37,59,5.91,62.81,5,67,7.14,70.78,7.79a14.45,14.45,0,0,0,7.38-.53A14.89,14.89,0,0,1,81.09,6.2a9.76,9.76,0,0,1,3,.51c2.26.44,4.17.61,6.21-.6s3.78-1.92,6.26-.82c.75.34,1.75-.54,1.31-1.33Z" transform="translate(12.93 5.79)"/></g></g><g class="cls-17"><path class="cls-18" d="M46.92,14.9c4.19,4.19,10.8,6.28,16.18,4.91,3.29-.84,7.65-5,10.85-6,2.5-.78,6,.3,7.12,2.85,1,2.06-2.3,3-3.66,3.68a16,16,0,0,0-7,6.51,15.81,15.81,0,0,0-1.67,4.81c-.27,1.45-.24,3.06-1.08,4.33-1.7,2.57-5.34,2.2-8,2.26a19.51,19.51,0,0,0-9.75,2.64c-3,1.75-14.55,5-14.44,8.64,0,1.33,10.32,1.31,11.38.9,2.87-1.1,4.74-3.78,7.68-4.91,3.26-1.25,6.69-.49,10.08-.78a11.5,11.5,0,0,0,8.88-5.22c1.92-3.08,1.34-6.91,3.3-9.89,1.78-2.73,5-3.48,7.52-5.23a8.27,8.27,0,0,0,3.59-9,11.85,11.85,0,0,0-7-7.59,12.24,12.24,0,0,0-11.71,1C65.84,11,63,12.73,58.91,13.07c-3.89.33-8-.86-11.7.71a.74.74,0,0,0-.29,1.12Z" transform="translate(12.93 5.79)"/><path class="cls-19" d="M45.26,14.19c-2.21-1.76-4.45-1.62-7-.6a31.5,31.5,0,0,0-7.19,4.17c-4.58,3.48-8,8.69-8.52,14.52a15.54,15.54,0,0,0,6.79,14.4c5.23,3.51,12.18,4.61,17.7,1.13,1.67-1.06.55-3.36-1-3.7-4-.86-8.6-.57-12.23-2.77A9.51,9.51,0,0,1,29,32.44c.31-4,2.5-7.36,5.29-10.13a34,34,0,0,1,4.66-3.79c1.68-1.17,4-2.94,6-3.16a.66.66,0,0,0,.3-1.17Z" transform="translate(12.93 5.79)"/></g><g class="cls-20"><path class="cls-21" d="M71.62,15.33c-2.05.25-3,1.11-4.61,2.37-1.19.93-2.51,2-4.07,2.1a12.62,12.62,0,0,1-4.71-1.06A40.24,40.24,0,0,0,51.87,17a18.44,18.44,0,0,0-12.16,1.91c-3.28,1.86-8.1,6.17-7.07,10.44A4.59,4.59,0,0,0,36,33a4.47,4.47,0,0,0,4.72-1.58c1.63-2.5,2.29-4.31,5.47-5.14,3.74-1,7.22.28,10.83,1.12,3.84.9,7.9.91,11.19-1.57,2.69-2,5.09-6.19,4.7-9.56a1.12,1.12,0,0,0-1.25-.93Z" transform="translate(12.93 5.79)"/></g><path class="cls-21" d="M38.72,25.58c.75-.23,1.09-.81,1.7-1.27a7.68,7.68,0,0,1,2.83-1.22,16.48,16.48,0,0,1,7.6.65c2.57.67,8.71,2.12,9.42-1.9a.74.74,0,0,0-.63-.81,9.83,9.83,0,0,0-2.9.33,9.11,9.11,0,0,1-3.21-.08c-2.75-.48-5.27-1.46-8.11-1.4a10.05,10.05,0,0,0-5.58,1.52c-1.16.81-2.67,2.39-1.88,3.88a.59.59,0,0,0,.76.3Z" transform="translate(12.93 5.79)"/><path class="cls-21" d="M56.5,33.38c2.93,3.87,11.62,1,12.17-3.73a.62.62,0,0,0-.85-.64c-1.66.6-3,1.89-4.62,2.62a11.8,11.8,0,0,1-6.21.88.54.54,0,0,0-.49.87Z" transform="translate(12.93 5.79)"/><path class="cls-22" d="M9.26,34.47a22.83,22.83,0,0,1,2.39-6.11A8.18,8.18,0,0,1,15,25c2.75-1.6,5.86-2.53,8-5,2.4-2.71,3.12-6.55,6.36-8.55s7.29-1.68,10.83-3.1a.82.82,0,0,0,0-1.49,17.16,17.16,0,0,0-12.26.91,12.73,12.73,0,0,0-4.68,3.87C22,13.4,21.17,15.48,19.7,17.09c-2.47,2.71-6.45,3.36-9.13,5.84A10.37,10.37,0,0,0,7.64,28c-.58,2.41.07,4.33.72,6.6.14.47.83.29.9-.13Z" transform="translate(12.93 5.79)"/><path class="cls-23" d="M84.21,24.93a14.15,14.15,0,0,0-1.73,2.34,11.92,11.92,0,0,1-2.77,2.12,10.66,10.66,0,0,0-4.33,4.76c-.9,2.08-.33,4.53-1.23,6.55-.83,1.86-3.58,2.46-5.13,3.66-3.55,2.75-7.83,7-12.74,6.29-3.71-.52-9.47-3.9-12.78-.79a1.67,1.67,0,0,0,.8,2.93c1.31.14,2.58-.12,3.89.1a25.14,25.14,0,0,1,3.49,1A16.8,16.8,0,0,0,59,55c2.61-.34,5-1.71,7.22-3s4.25-3.37,6.63-4.57c2.21-1.11,4.35-2,5.53-4.37s.93-4.8,1.09-7.24c.2-3,3-3.73,4.81-5.66,1.31-1.36,2.67-3.69.92-5.22a.81.81,0,0,0-1,0Z" transform="translate(12.93 5.79)"/></g></g></g></g></svg>