<svg xmlns="http://www.w3.org/2000/svg" viewBox="0 0 138.27 149.47"><defs><style>.cls-1{fill:#f99c5d;}.cls-2{fill:#d37c3c;}.cls-3{fill:#fcb575;}.cls-24,.cls-4{opacity:0.3;}.cls-5{fill:#fcd5a7;}.cls-34,.cls-35,.cls-6{opacity:0.5;}.cls-7{opacity:0.2;}.cls-8{fill:#542c12;}.cls-35,.cls-9{fill:#f79a06;}.cls-10{fill:#dadaef;}.cls-11{fill:#b4b4c1;}.cls-12,.cls-23{opacity:0.1;}.cls-13,.cls-24{fill:#1b0238;}.cls-14,.cls-23{fill:#fff;}.cls-15{fill:#bcbbaf;}.cls-16{fill:#e2e2f7;}.cls-17,.cls-20{fill:#3f0f36;}.cls-18{fill:#fcdeec;}.cls-19{fill:#c2c2d3;}.cls-20{opacity:0.7;}.cls-21{opacity:0.4;}.cls-22{fill:#72166a;}.cls-25{fill:#9e9e8f;}.cls-26{fill:#d3d3be;}.cls-27{fill:#f9dd53;}.cls-28{fill:#b6b7a3;}.cls-29{fill:#f9f9e8;}.cls-30{fill:#fcfcd0;}.cls-31{fill:#fceb88;}.cls-32{fill:#fce15e;}.cls-33{opacity:0.8;}.cls-34,.cls-37{fill:#17022b;}.cls-36{fill:#9292a0;}</style></defs><g id="Layer_2" data-name="Layer 2"><g id="_ÎÓÈ_1" data-name="—ÎÓÈ_1"><path class="cls-1" d="M105.69,72.71a5.91,5.91,0,0,0-5.36-.15,17.38,17.38,0,0,0-4.54,3.2l-6.66,5.85A47.23,47.23,0,0,1,84.94,85a24.09,24.09,0,0,0-2.1,1.49,8.85,8.85,0,0,0-3,5.4,3.24,3.24,0,0,0,.06,1.55,1.5,1.5,0,0,0,1.07,1,1.08,1.08,0,0,0,.86-.27l-.1.18c.08-.12.18-.23.27-.34h0c2.48-3.45,6.7-5.23,10-7.92,1.51-1.23,2.85-2.66,4.27-4a46.61,46.61,0,0,1,9.18-6.73c.5-.28,1-.61,1.16-1.17A1.63,1.63,0,0,0,105.69,72.71Z"/><path class="cls-1" d="M91.13,70.88A1.4,1.4,0,0,0,89.89,70c-1.94-.34-3.84.85-5.14,2.31S82.51,75.52,81.17,77c-.61.65-1.3,1.22-1.92,1.86-1.77,1.83-3,4.22-5.15,5.59a1.12,1.12,0,0,1-1.16.2c-.47-.3-.3-1-.06-1.54a66.63,66.63,0,0,1,5.32-9.33c.5-.74,1-1.77.41-2.43a1.66,1.66,0,0,0-1.18-.43A5.14,5.14,0,0,0,73.94,72,10.09,10.09,0,0,0,72,74.31a50.39,50.39,0,0,0-3.22,5.19c-.49.94-.92,1.92-1.5,2.81a24.51,24.51,0,0,1-4.14,4.38,56.72,56.72,0,0,0-4.58,4.85A2.7,2.7,0,0,0,59,94a4.86,4.86,0,0,0,3.18,1.42c4.77.72,10,0,13.72-3a6,6,0,0,0,1.18-1.23,8.7,8.7,0,0,0,.74-1.46c3-6.65,9-11.46,12.91-17.63A1.66,1.66,0,0,0,91.13,70.88Z"/><path class="cls-2" d="M78.15,86.11A13.77,13.77,0,0,0,66,86.85a39.75,39.75,0,0,1-4.09,2.48h0l-1-.27a.82.82,0,0,0-.35,0c-.32.06-.44.46-.44.79a4.11,4.11,0,0,0,3.17,3.71A8.52,8.52,0,0,0,68.38,93a37.93,37.93,0,0,0,6.69-3.55,13.11,13.11,0,0,0,3.3-2.56.57.57,0,0,0,.18-.41C78.52,86.29,78.33,86.18,78.15,86.11Z"/><path class="cls-2" d="M106.45,73.68l-.26.11a24.43,24.43,0,0,0-3,1.38,2.46,2.46,0,0,0-.76.56.87.87,0,0,0-.18.88.37.37,0,0,0,.23.24.53.53,0,0,0,.36-.09l2.41-1.27a2.63,2.63,0,0,0,1.26-1.06A.7.7,0,0,0,106.45,73.68Z"/><path class="cls-2" d="M90.29,72.56a2.07,2.07,0,0,0,.5-1.82,1.1,1.1,0,0,0-1.54-.52,1.39,1.39,0,0,1,.67,1.1,2.27,2.27,0,0,1-.62,1L85.9,76.3a3,3,0,0,0-3.26-.16l-.07.28a9.67,9.67,0,0,1,2.15-.12,2,2,0,0,1,.94.27l-4.23,4.89a2.38,2.38,0,0,0-1.36-.65,5.5,5.5,0,0,0-1.62.09c.06.13.27.18.44.18a7.85,7.85,0,0,1,2.5.42l-2,2.31A3.39,3.39,0,0,1,77.89,85a12.68,12.68,0,0,0-2-.1,15.82,15.82,0,0,1-2.48,0c-1-.12-1.85-.52-2.79-.7a6.21,6.21,0,0,0-5.26,1.46l.29-.14a6.26,6.26,0,0,1,4.6-.91c.9.17,1.76.55,2.66.74,1.1.23,2.25.18,3.35.42a6.61,6.61,0,0,1,2.9,1.47c.14.13.36.27.51.15a.44.44,0,0,0,.11-.25l.07-.36c.06.1.13.18.18.28C82.32,81.59,87,77.49,90.29,72.56Z"/><path class="cls-2" d="M101.63,72.27a19,19,0,0,0-5.36,3,23.37,23.37,0,0,0-2.61,2.26,53,53,0,0,0-10.17,12.9,6.89,6.89,0,0,0-.93,2.6,25.7,25.7,0,0,1,4.7-4,14.18,14.18,0,0,0,2.86-2.17,14.37,14.37,0,0,0,1.63-2.62c0-.08.09-.15.13-.22a10.13,10.13,0,0,0,.31,1.55c.32-.11.7-.28.76-.62,0-.12,0-.25.1-.32s.54.11.58-.11a.13.13,0,0,0,0-.13c-.26-.53-1-.81-1-1.4h-.08c2.8-4.42,6.29-9,12.51-10.36A5.75,5.75,0,0,0,101.63,72.27ZM92.76,84.14c0,.16,0,.39-.16.41s-.21-.12-.27-.23L92,83.73l.42-.69A6,6,0,0,1,92.76,84.14Z"/><path class="cls-2" d="M73.24,79.44a7.64,7.64,0,0,0-2-.63,2.58,2.58,0,0,0-2,.53l.07.28A5.07,5.07,0,0,1,73.24,79.44Z"/><path class="cls-2" d="M76.07,75a30.14,30.14,0,0,0-2.5,4.08c-.43.94-.73,1.93-1.24,2.82A3.77,3.77,0,0,1,70,83.84l1.77.54a.39.39,0,0,0,.26,0c.22,0,.23-.36.22-.59a6.19,6.19,0,0,1,1.25-3.34l4.29-6.94a3.27,3.27,0,0,0,.53-1.19,1.1,1.1,0,0,0-.46-1.14,1.64,1.64,0,0,0-1.49.19l.22-.09c.42-.1.82.31.88.74a2.16,2.16,0,0,1-.35,1.22c-.28.51-.58,1-.9,1.48a2.1,2.1,0,0,0-.72-.27,7,7,0,0,0-3,.09l.07.23C73.72,74.49,74.91,75,76.07,75Z"/><path class="cls-2" d="M78.21,80.84h.05a.12.12,0,0,1,0-.09Z"/><path class="cls-2" d="M98.07,78a2.22,2.22,0,0,1,.38.79.14.14,0,0,1,0,.11s0,0-.09.05c-.47,0-.66-.84-1.13-.75A4.05,4.05,0,0,0,98,79.31c.13.15.36.28.49.14-.07.16.2.28.32.16a.44.44,0,0,0,0-.48.57.57,0,0,0,.53.1c-.42-.52-.85-1-1.3-1.54Z"/><path class="cls-3" d="M96.08,70c-1.64-.19-2.29,0-3.69,1.27a25.38,25.38,0,0,0-3.07,4c-1.61,2.09-4,3.34-6,5a32.88,32.88,0,0,0-4.62,5.22l-1.38.67a42.3,42.3,0,0,0-7.75,3.6,11.57,11.57,0,0,1-3.65,1.7,3.35,3.35,0,0,1-3.55-1.33,5.13,5.13,0,0,1-.22-3.23,45.47,45.47,0,0,0,.39-7.38c-.1-3.08-.77-6.59-3.41-8.19a5.25,5.25,0,0,0-3.61-.67,2.68,2.68,0,0,0-1.83,1.06c-.57.89-.25,2,0,3.07a22.48,22.48,0,0,1-4,19.3,60.23,60.23,0,0,0-3.79,4.69,7.19,7.19,0,0,0-1.17,5.74s-9.61,7.22-13.87,9.35A123.83,123.83,0,0,1,0,124.73l13,24.74c9.36-7,26.91-22.16,26.91-22.16,7.42-5.84,13.06-10.46,20.39-16.41,0,0,12.52-8.71,15.87-10.85a28.71,28.71,0,0,0,4.46-3c1.29-1.3,1.63-4,2.83-5.42,4.57-5.24,7.26-7.61,11.27-13.62a19.8,19.8,0,0,0,2.76-5.32C97.62,72.26,98.29,70.27,96.08,70Z"/><path class="cls-1" d="M58.78,76.3a23,23,0,0,0-1-2.55,4,4,0,0,0-1-1.46,2.28,2.28,0,0,0-3.53.64l.23-.32a1.08,1.08,0,0,0,0,.75c.42,1.63.85,3.25,1.27,4.88a.31.31,0,0,0,0,.12c.09.12.28,0,.42,0a4,4,0,0,1,3-.29c.25.08.59.14.71-.09a.43.43,0,0,0,0-.25A5.7,5.7,0,0,0,58.78,76.3Z"/><path class="cls-1" d="M54.83,71,55,71a5.47,5.47,0,0,1,1,0A1.88,1.88,0,0,0,54.83,71Z"/><path class="cls-1" d="M61.58,80.8a1,1,0,0,1,.44-.41l-.91-.08c.11-.28.56-.06.82-.22s.19-.36.18-.57a16.32,16.32,0,0,0-.47-3.75,7.1,7.1,0,0,0-1.82-3.28A5.68,5.68,0,0,0,56,70.93l.29.07a6.33,6.33,0,0,1,3.25,2.4,12.38,12.38,0,0,1,1.75,3.71,3.14,3.14,0,0,1,.2,1.38,1.2,1.2,0,0,1-.82,1c-.18,0-.38,0-.49.19a.36.36,0,0,0,.13.48,1.18,1.18,0,0,0,.53.16.52.52,0,0,1,.32.11.19.19,0,0,1,0,.3l-.09,0-.88.09,1,.26a.47.47,0,0,1,.24.1.46.46,0,0,1,.15.29,4.17,4.17,0,0,1,0,1.32,33.68,33.68,0,0,0,.08,6.27c-.16-2.55.44-5.09.42-7.64A1.06,1.06,0,0,0,62,81,.36.36,0,0,0,61.58,80.8Z"/><path class="cls-1" d="M56.93,80.76a1.43,1.43,0,0,1-.89,0c0-.08.09-.13.16-.16a3.91,3.91,0,0,1,2.55-.1c0-.11-.12-.17-.23-.19a6.23,6.23,0,0,0-3.54.39l.31-.15-.15,0c-.13.05-.28.17-.24.31s.24.19.4.17.34-.07.46,0l-.66.37c-.07,0-.15.1-.15.18a.17.17,0,0,0,.18.15.54.54,0,0,0,.24-.09,7.09,7.09,0,0,1,4-.47A3,3,0,0,0,56.93,80.76Z"/><path class="cls-1" d="M55.52,88.5a1.84,1.84,0,0,0-.75-.58,1.29,1.29,0,0,0-1.18.31,3.92,3.92,0,0,0-.74,1L50.79,92.9a18.93,18.93,0,0,1,1.61-2.11,6,6,0,0,1,1.46-1.3,2.07,2.07,0,0,1,1.87-.14c.67.33,1.06,1.15,1.79,1.3C56.86,89.93,56.19,89.21,55.52,88.5Z"/><g class="cls-4"><path class="cls-5" d="M76,94.17a1,1,0,0,0-.92-.28c-3.55.15-6.8,2-10.28,2.68s-7.91-.36-8.94-3.75a3.69,3.69,0,0,0-.55-1.37,1.75,1.75,0,0,0-2.2-.13,5,5,0,0,0-1.5,1.82s-4.19,3.91-5.73,7.48c-.48,1.11-.8,2.27-1.33,3.35-1.3,2.66-3.71,4.6-6.12,6.31C28.42,117.42,17,122.38,5.22,126c-.41.13-.9.34-.93.77a1,1,0,0,0,.16.54,29.34,29.34,0,0,0,5,7.1,4.29,4.29,0,0,0,1.71,1.25,4.1,4.1,0,0,0,2.61-.32c4.37-1.69,7.86-5.06,11.34-8.21a191.1,191.1,0,0,1,15.33-12.49A66.75,66.75,0,0,1,51.09,108c2.53-1.2,5.18-2.14,7.77-3.21a79.64,79.64,0,0,0,16.53-9.28C75.84,95.19,76.33,94.62,76,94.17Z"/></g><g class="cls-6"><path class="cls-5" d="M62.16,90.71h0a2.61,2.61,0,0,0-.17-.28Z"/><path class="cls-5" d="M62.16,90.71a.32.32,0,0,0,.15.26Z"/><path class="cls-5" d="M93,71.4A12.55,12.55,0,0,0,90,75.08c-1,1.8-5.67,4.76-7.14,6.21s-2.93,3-4.35,4.49c-.24.1-.47.22-.7.34A15.23,15.23,0,0,1,75.5,87a35.29,35.29,0,0,0-5.91,2.67,15.12,15.12,0,0,1-3.65,1.75,4,4,0,0,1-3.79-.82s0,.07,0,.1A4.77,4.77,0,0,0,64.42,93c1.39.5,2.9-.18,4.2-.9a67.56,67.56,0,0,0,6.29-4,7.83,7.83,0,0,1,2.43-1.34l.22,0c-.21.24-.43.46-.63.69l.56-.06a3.49,3.49,0,0,1,2.65,1.44.88.88,0,0,0,.32-1.1A6.76,6.76,0,0,1,80,86.55a2.44,2.44,0,0,1,.74-1.78,22.24,22.24,0,0,1,3-3.06,2.89,2.89,0,0,1,2.47-.94c.6.15,1.3.65,1.75.22a1.37,1.37,0,0,1-1-1.69,3.92,3.92,0,0,1,1.25-1.85c1.09-1.1,2.66-2.28,4-1.55a1.18,1.18,0,0,1-.89-1.46,2.87,2.87,0,0,1,1.17-1.52,21.14,21.14,0,0,0,2.91-2.48C95.36,70.12,93.25,71.18,93,71.4Z"/></g><g class="cls-6"><path class="cls-1" d="M78.07,98,56.62,108.88A26.48,26.48,0,0,0,51.49,112a38,38,0,0,0-4.78,5.49c-3.61,4.47-8.07,8.16-12.5,11.82l-7.55,6.24a49.85,49.85,0,0,1-9.57,6.72,10,10,0,0,0-3.16,1.94,2.72,2.72,0,0,0-.43,3.4l26.89-21.73c12.45-10.05,25-20.16,38.94-27.95Z"/></g><g class="cls-6"><path class="cls-2" d="M74,99.71c-5.56,3.54-11.1,7.27-15.48,12.18,2.32-1.65,4.66-3.28,7-4.92l2.46-1.71c3.93-2.74,7.86-5.49,12-7.92l.38-.33C78,97.2,75.91,98.47,74,99.71Z"/></g><path class="cls-1" d="M97.91,71.25a1.61,1.61,0,0,0-1.82-.17,4.29,4.29,0,0,0-1.42,1.33,7.58,7.58,0,0,0-1.24,2.15.39.39,0,0,0,0,.21c0,.25.4.25.66.25.63,0,1.13.51,1.68.82.11.07.32,0,.28-.07l0,.06c.66-1.38,1.31-2.77,2-4.15a.58.58,0,0,0,.06-.26A.41.41,0,0,0,97.91,71.25Z"/><path class="cls-1" d="M93.56,77.06c.09.33.48.48.62.79a.15.15,0,0,1,0,.11.13.13,0,0,1-.15.07.38.38,0,0,1-.15-.09,1.32,1.32,0,0,0-.59-.24c0,.11.07.2.16.26l.63.47.06,0a.12.12,0,0,0,.08,0,1.61,1.61,0,0,0,.36-.33.55.55,0,0,0,.11-.46l-.1.13A5.34,5.34,0,0,0,93.56,77.06Z"/><path class="cls-1" d="M90.48,82a2.86,2.86,0,0,0-.75-.4c.12.46.66.66.91,1.05,0,.06.06.16,0,.18a.08.08,0,0,1-.07,0l-.64-.13c0,.11.09.23.14.34a.53.53,0,0,0,.17.25.43.43,0,0,0,.42,0,1.87,1.87,0,0,0,.89-.91l-.25-.1A1.28,1.28,0,0,1,90.48,82Z"/><g class="cls-7"><path class="cls-8" d="M94.61,76l-6.34.22c-2.65.09-5.63.34-7.3,2.39a2.2,2.2,0,0,0-.5,1,5.41,5.41,0,0,0,0,1.27,4.4,4.4,0,0,1-2.28,3.78A12.72,12.72,0,0,1,73.86,86a1.07,1.07,0,0,1-.75,0c-.32-.21-.32-.68-.24-1.06.51-2.4,2.36-4.27,3.32-6.53a1,1,0,0,0,0-.9,1,1,0,0,0-.77-.31l-3.63-.34a1.16,1.16,0,0,0-1.08.27,1.1,1.1,0,0,0-.16.54,13.52,13.52,0,0,0,.7,3.57c.25,1.2.12,2.65-.9,3.33a6.29,6.29,0,0,1-2.43.58c-2.26.41-7.37,3.12-5.54,5.09-.57-.45-.53-2.18-.43-2.91a29.9,29.9,0,0,0,.26-9.44,2.52,2.52,0,0,0-.54-1.3A2.61,2.61,0,0,0,59.79,76H55.06a1.67,1.67,0,0,0-1.22.33c-.3.3-.19,1,.24,1l-.33-.52c.75.39.56,1.48.58,2.33a5.57,5.57,0,0,0,2.15,3.72A13.88,13.88,0,0,1,59.53,86c.87,1.54.92,3.51,2.1,4.82A5.09,5.09,0,0,0,66.68,92a24.52,24.52,0,0,0,4.93-2.3,25.8,25.8,0,0,1,7.45-2.51,10.71,10.71,0,0,1,6.51-6.41,21.69,21.69,0,0,1,9.31-1,10.77,10.77,0,0,1-1.83,4,1.53,1.53,0,0,0,2-.32,63.45,63.45,0,0,1,9.29-7.5C101,75.08,98.08,75.85,94.61,76Z"/></g><path class="cls-9" d="M137,66.65c0-2-19.79-5.54-59.21-5.54s-59.22,3.56-59.22,5.54a.6.6,0,0,0,.27.42l2.79,4.3c0,3.41,27.67,7.8,56.16,7.26,31-.58,56.15-3.85,56.15-7.26l2.79-4.3A.6.6,0,0,0,137,66.65Z"/><path class="cls-10" d="M77.77,59.82c-24.33,0-60.51,1.82-60.51,6.83h1.29c0-2,19.79-5.54,59.22-5.54S137,64.67,137,66.65h1.29C138.27,61.64,102.09,59.82,77.77,59.82Z"/><path class="cls-9" d="M77.77,61.11c-39.43,0-59.22,3.56-59.22,5.54s19.79,5.54,59.22,5.54S137,68.64,137,66.65,117.19,61.11,77.77,61.11Z"/><path class="cls-11" d="M137,66.65c0-2-19.79-5.54-59.21-5.54s-59.22,3.56-59.22,5.54c0,.76,2.9,1.75,8.68,2.68,7.83-2.11,27.5-3.61,50.54-3.61s42.7,1.5,50.54,3.61C134.08,68.4,137,67.41,137,66.65Z"/><g class="cls-12"><path class="cls-13" d="M43.51,61.93c-7.68.44-15.45,1-22.72,3.49a11,11,0,0,0-2.7,1.24l.25,0c.13,1.08,1.45,1.48,2.5,1.77a22.69,22.69,0,0,0,4.75,1.21,13.08,13.08,0,0,0,3.28-.44A279.71,279.71,0,0,1,78.12,62.9a35,35,0,0,0,9-1.07C72.61,60.57,58,61.1,43.51,61.93Z"/></g><g class="cls-4"><path class="cls-13" d="M50,61.57l-10.49.63c-6.94.42-14.06.89-20.38,3.76a1.77,1.77,0,0,0-1,.78c-.16.4.12,1,.54.89l0,.34a30,30,0,0,0,4.77,1.21,14.63,14.63,0,0,0,3.42.37,17.61,17.61,0,0,0,5.5-1.69c6-2.43,12.66-3.23,18.63-5.82C51,61.64,50.45,61.55,50,61.57Z"/></g><g class="cls-4"><path class="cls-14" d="M133.62,65.39c-27.68-4.31-55.78-3.23-55.78-3.23-3.38.26-30.54,2-32.87,4.49,10.68-.88,38.12-1.43,46.69-1.2,5.2.14,10.79.62,16,.92,3.67.21,10.45.79,13.84,1.29,5.53.82,7.32,1.58,12.56-.35.42-.16.91-.42,1-.88C135,65.8,134.25,65.49,133.62,65.39Z"/></g><path class="cls-15" d="M77.77,65.72c-23,0-42.71,1.5-50.54,3.61,9.33,1.51,26.18,2.86,50.54,2.86s41.21-1.35,50.54-2.86C120.47,67.22,100.81,65.72,77.77,65.72Z"/><path class="cls-11" d="M77.84,65.39c-1.93,0-11.58.12-11.58,2.51s9.65,2.52,11.58,2.52,11.58-.12,11.58-2.52S79.78,65.39,77.84,65.39Zm0,3.77c-5.92,0-9.36-.76-10.19-1.26.83-.49,4.27-1.25,10.19-1.25s9.37.76,10.19,1.25C87.2,68.4,83.76,69.16,77.84,69.16Z"/><path class="cls-16" d="M88.79,67.28c0,1-4.9,1.88-11,1.88s-11-.84-11-1.88,4.9-2.53,11-2.53S88.79,66.23,88.79,67.28Z"/><path class="cls-17" d="M79.5,64.93a8.4,8.4,0,0,0-1.42,0c-.52,0-1.17.16-1.31.67l-.1,0a6.08,6.08,0,0,0,1.86.21c.53,0,1.49-.29,1.53-.49S79.75,65,79.5,64.93Z"/><path class="cls-11" d="M90.17,20.36,88.07,7H67.61l-2.1,13.34a17.19,17.19,0,0,0,7.62,16.37,5.82,5.82,0,0,1,2.61,4.85l.82,24h0c0,.12.57.22,1.28.22s1.27-.1,1.28-.22h0l.82-24a5.82,5.82,0,0,1,2.61-4.85A17.19,17.19,0,0,0,90.17,20.36Z"/><path class="cls-18" d="M89.31,20.36,87.36,7h-19L66.37,20.36a13.43,13.43,0,0,0,4.84,12.43,10.21,10.21,0,0,0,13.26,0A13.43,13.43,0,0,0,89.31,20.36Z"/><path class="cls-18" d="M77.84,5.76c-6.07,0-9.16.86-9.4,1.31.24.36,3.33,1.22,9.4,1.22,5.89,0,9-.81,9.37-1.27C86.81,6.57,83.72,5.76,77.84,5.76Z"/><path class="cls-19" d="M77.84,4.91C76.79,4.91,67.6,5,67.6,7s9.19,2.12,10.24,2.12S88.08,9.08,88.08,7,78.89,4.91,77.84,4.91Zm0,3.38c-6.07,0-9.16-.86-9.4-1.22.24-.45,3.33-1.31,9.4-1.31,5.88,0,9,.81,9.37,1.26C86.81,7.48,83.73,8.29,77.84,8.29Z"/><path class="cls-17" d="M66.37,20.36c-.63,5.67,1.41,9.56,5.32,12.84a10.08,10.08,0,0,0,12.3,0c3.92-3.28,6-7.17,5.32-12.84L88.2,12.82H67.48Z"/><path class="cls-13" d="M78.42,35.92a11,11,0,0,1-7.32-2.17,9.09,9.09,0,0,0,14.6-1.37A10.94,10.94,0,0,1,78.42,35.92Z"/><path class="cls-20" d="M75.52,37A5.17,5.17,0,0,1,74,36.55a28.44,28.44,0,0,1,2.34,1.9,6,6,0,0,1,1.37,3.3c.82,5.78.91,32.67,1.13,19.25,0-4.82,0-11.44.3-16.26.14-2.6-.36-6.32,2.37-8.19A10.08,10.08,0,0,1,75.52,37Z"/><g class="cls-4"><path class="cls-13" d="M87.55,67a1.21,1.21,0,0,0-.72-.52,24,24,0,0,0-6.64-1.43l.09.23,2.46,1.54c.23.14.48.35.43.61s-.25.32-.45.39c-1.53.57-3.3.35-4.75,1.11a68.5,68.5,0,0,0,8.22-.68,2.23,2.23,0,0,0,1-.32A.8.8,0,0,0,87.55,67Z"/></g><path class="cls-17" d="M88.29,68.14a3.48,3.48,0,0,1-1.58.59,56.55,56.55,0,0,1-8.2.93v.06c-.11.09,0,.25.18.3a6,6,0,0,0,2.46.09c1.47-.16,2.93-.38,4.38-.65a7.22,7.22,0,0,0,3.12-1.15.27.27,0,0,0,.13-.2C88.76,67.91,88.45,68,88.29,68.14Z"/><g class="cls-21"><path class="cls-14" d="M76.62,65.79a1.57,1.57,0,0,0-1.19-.47c-.1,0-.2,0-.3,0a18.45,18.45,0,0,0-6.41,1.12,1.36,1.36,0,0,0-.61.36.5.5,0,0,0,0,.65.71.71,0,0,0,.35.16A13.14,13.14,0,0,0,76,67.4a1.37,1.37,0,0,0,.69-.4A.94.94,0,0,0,76.62,65.79Z"/></g><path class="cls-14" d="M74.37,65.94a.66.66,0,0,0-.5-.19,3,3,0,0,0-.89.09,9.59,9.59,0,0,0-2.62.86.78.78,0,0,0-.43.32.51.51,0,0,0,.38.64,1.48,1.48,0,0,0,.83-.07l2.52-.74a1.52,1.52,0,0,0,.61-.3A.49.49,0,0,0,74.37,65.94Z"/><path class="cls-14" d="M77.45,58.24c-.08-4.18-.39-7.89-.58-12.06-.05-1-.1-2.39-.19-3.43-.41-2.56-.38.42-.38.42q-.17,8.91.46,17.79a1.66,1.66,0,0,0,.41,1.2A14.66,14.66,0,0,0,77.45,58.24Z"/><path class="cls-22" d="M67.48,12.86c.27.36,3.68,1.23,10.38,1.23,6.49,0,9.89-.82,10.34-1.27-.45-.45-3.85-1.27-10.34-1.27C71.16,11.55,67.75,12.42,67.48,12.86Z"/><path class="cls-23" d="M77,10.52a1,1,0,0,0-.47-.21C74,9.66,71.26,9.89,69,8.64a1.3,1.3,0,0,0-.7-.23c-.25,0-.48.3-.36.52l.15-.28a80.66,80.66,0,0,0-1.81,11.13,17.54,17.54,0,0,0,0,4.16c1.25,8.46,7.5,10.78,9.08,10.89a6.91,6.91,0,0,1-4.23-4.6,18.35,18.35,0,0,1-.92-5.11,13.8,13.8,0,0,1,.12-3.5,15.35,15.35,0,0,1,2.16-5.93,13.78,13.78,0,0,1,4-3.75C77,11.62,77.45,10.93,77,10.52Z"/><g class="cls-4"><path class="cls-14" d="M70.31,9.52a2,2,0,0,0-1.18-.11c-.39.11-.33.22-.33.22a42.08,42.08,0,0,0-1.55,7.56c-.35,2.54-.4,6.78.5,8.45,0-4.47,1.13-9.93,3.55-13.69a2,2,0,0,0,.45-1.17C71.68,10.11,71,9.72,70.31,9.52Z"/></g><g class="cls-6"><g class="cls-4"><path class="cls-13" d="M89.37,20.9A66.76,66.76,0,0,0,87.54,8.24a43.1,43.1,0,0,1-8.06,1.13c-.24,0-.55.09-.55.33s.21.3.38.38c1.21.62,1.68,2.09,2,3.43a43.64,43.64,0,0,1,1,9.61c0,2.33-.34,4.86-2,6.5a9.29,9.29,0,0,1-4.94,2.13,7.85,7.85,0,0,1-2.16.21,8.47,8.47,0,0,1-3.63-1.49,9.07,9.07,0,0,0,8.38,4.79,11,11,0,0,0,8.27-4.15,13.65,13.65,0,0,0,1.62-2.23A16,16,0,0,0,89.37,20.9Z"/></g></g><path class="cls-24" d="M88.32,17.68c-.26-2.55-.53-5.1-.79-7.66a1.9,1.9,0,0,0-.27-1c-.19-.27-.34-.25-.34-.25l-2.1.47c-.37.08-.8.21-.93.57a1.18,1.18,0,0,0,.17.87,24.67,24.67,0,0,1,2.34,12,15.18,15.18,0,0,1-1.06,5,8.62,8.62,0,0,1-3.21,4,9.81,9.81,0,0,1-2.07,1,19.38,19.38,0,0,1-3.26.88,3.37,3.37,0,0,1-2.92-.46c1.52,1.66,4.14,1.73,6.3,1.1a11.79,11.79,0,0,0,7.68-7C89,24.21,88.65,20.88,88.32,17.68Z"/><path class="cls-25" d="M96.8,69.31c-1.93,0-11.59.12-11.59,2.52s9.66,2.52,11.59,2.52,11.59-.12,11.59-2.52S98.74,69.31,96.8,69.31Zm0,3.78c-5.92,0-9.37-.77-10.2-1.26.83-.49,4.28-1.26,10.2-1.26s9.37.77,10.2,1.26C106.17,72.32,102.73,73.09,96.8,73.09Z"/><path class="cls-26" d="M107.76,71.2c0,1-4.9,1.89-11,1.89s-11-.85-11-1.89,4.91-2.53,11-2.53S107.76,70.16,107.76,71.2Z"/><path class="cls-27" d="M98.46,68.85a9.59,9.59,0,0,0-1.42,0c-.52,0-1.17.16-1.31.67l-.1,0a6.44,6.44,0,0,0,1.86.2c.53,0,1.49-.29,1.53-.48S98.71,68.89,98.46,68.85Z"/><path class="cls-28" d="M108.25,24.26,105.33,2.12H88.27L85.35,24.26a17.69,17.69,0,0,0,7.08,16.38,5.8,5.8,0,0,1,2.27,4.85l.82,24h0c0,.12.57.22,1.28.22s1.27-.1,1.28-.22h0l.82-24a5.78,5.78,0,0,1,2.28-4.85A17.71,17.71,0,0,0,108.25,24.26Z"/><path class="cls-29" d="M107.46,24.26,104.74,2.12H88.86L86.15,24.26a14,14,0,0,0,4.5,12.44,9,9,0,0,0,12.31,0A14,14,0,0,0,107.46,24.26Z"/><path class="cls-30" d="M89,2.16c.19.36,2.77,1.22,7.83,1.22,4.91,0,7.48-.81,7.81-1.26-.33-.46-2.9-1.27-7.81-1.27C91.74.85,89.17,1.71,89,2.16Z"/><path class="cls-26" d="M96.8,0c-.87,0-8.53.06-8.53,2.12s7.66,2.11,8.53,2.11,8.53-.06,8.53-2.11S97.68,0,96.8,0Zm0,3.38c-5.06,0-7.64-.86-7.83-1.22.2-.45,2.77-1.31,7.83-1.31,4.91,0,7.48.81,7.81,1.27C104.28,2.57,101.71,3.38,96.8,3.38Z"/><path class="cls-31" d="M86.08,24.19A14.07,14.07,0,0,0,91,37a8.86,8.86,0,0,0,11.42,0,14.06,14.06,0,0,0,4.94-12.85l-1.52-12.9H87.74Z"/><path class="cls-32" d="M87.7,11.34c.23.36,3.23,1.22,9.13,1.22,5.71,0,8.71-.81,9.1-1.27-.39-.45-3.39-1.26-9.1-1.26C90.93,10,87.93,10.89,87.7,11.34Z"/><g class="cls-33"><path class="cls-9" d="M97.34,39.83a9.68,9.68,0,0,1-6.79-2.17,8.33,8.33,0,0,0,6.68,3.05,8.51,8.51,0,0,0,6.87-4.43A10,10,0,0,1,97.34,39.83Z"/></g><path class="cls-32" d="M94.64,41a4.57,4.57,0,0,1-1.38-.49,25.18,25.18,0,0,1,2.17,1.9,6.34,6.34,0,0,1,1.27,3.3c.82,5.78.91,32.68,1.13,19.26,0-4.83.06-11.45.3-16.27.14-2.6-.42-6.32,2.1-8.19A8.73,8.73,0,0,1,94.64,41Z"/><path class="cls-28" d="M106.52,70.93a1.19,1.19,0,0,0-.73-.51A24,24,0,0,0,99.15,69l.09.22,2.47,1.55c.22.14.48.34.42.6s-.25.32-.44.4c-1.53.57-3.31.35-4.75,1.11a73.07,73.07,0,0,0,8.22-.68,2.59,2.59,0,0,0,1-.32A.83.83,0,0,0,106.52,70.93Z"/><g class="cls-6"><path class="cls-34" d="M107.26,72.06a3.37,3.37,0,0,1-1.58.59,54,54,0,0,1-8.21.93v.06c-.11.09,0,.26.19.3a5.65,5.65,0,0,0,2.46.09c1.46-.16,2.93-.38,4.38-.65a7,7,0,0,0,3.12-1.15.28.28,0,0,0,.13-.2C107.73,71.83,107.42,71.93,107.26,72.06Z"/></g><g class="cls-21"><path class="cls-14" d="M95.58,69.71a1.53,1.53,0,0,0-1.19-.46c-.1,0-.2,0-.3,0a18.69,18.69,0,0,0-6.41,1.12,1.5,1.5,0,0,0-.61.36.5.5,0,0,0,0,.65.61.61,0,0,0,.34.17A13.26,13.26,0,0,0,95,71.33a1.45,1.45,0,0,0,.69-.4A1,1,0,0,0,95.58,69.71Z"/></g><path class="cls-14" d="M93.33,69.86a.68.68,0,0,0-.5-.19,3,3,0,0,0-.89.09,10.13,10.13,0,0,0-2.63.86.77.77,0,0,0-.42.33.52.52,0,0,0,.38.64,1.48,1.48,0,0,0,.83-.08l2.52-.74a1.38,1.38,0,0,0,.61-.29A.51.51,0,0,0,93.33,69.86Z"/><path class="cls-14" d="M96.41,62.16c-.07-4.18-.39-7.89-.58-12.07,0-1-.1-2.39-.19-3.43-.41-2.56-.38.43-.38.43q-.17,8.89.46,17.79a1.66,1.66,0,0,0,.41,1.2A14.66,14.66,0,0,0,96.41,62.16Z"/><g class="cls-6"><path class="cls-14" d="M96.13,5.61a.79.79,0,0,0-.39-.21c-2.1-.65-4.42-.42-6.33-1.67a.94.94,0,0,0-.58-.23.39.39,0,0,0-.3.52l.12-.28c-.72,3.67-2.3,16.19-2.61,19.94a19.29,19.29,0,0,0,0,4.16c1.17,8.46,7,10.79,8.44,10.89a6.78,6.78,0,0,1-3.93-4.6A19.22,19.22,0,0,1,89.68,29a14.77,14.77,0,0,1,.11-3.5c.39-2.06,1-12.31,5.88-18.49C96,6.62,96.48,6,96.13,5.61Z"/></g><path class="cls-14" d="M90.61,4.62a1.47,1.47,0,0,0-1-.12.78.78,0,0,0-.48.9l.2-.68C88.66,7.15,87,18.4,86.6,20.94a15.47,15.47,0,0,0,.63,7.59c0-4.47,2.12-17.73,4.18-21.45a2.27,2.27,0,0,0,.39-1.17A1.65,1.65,0,0,0,90.61,4.62Z"/><g class="cls-4"><path class="cls-9" d="M107.52,24.8c-.2-4.27-1.79-17.32-2.64-21.47a30.19,30.19,0,0,1-6.71,1.13c-.2,0-.46.09-.46.33s.17.3.31.38c1,.62,1.4,2.1,1.64,3.43.56,3.16,1.25,15.19,1.21,18.42,0,2.33-.32,4.86-1.84,6.5a8.35,8.35,0,0,1-4.59,2.13,7.14,7.14,0,0,1-2,.22,7.82,7.82,0,0,1-3.38-1.49,8.34,8.34,0,0,0,7.79,4.79c3.16-.1,5.59-1.6,7.67-4.16A12.14,12.14,0,0,0,106,32.78,17.1,17.1,0,0,0,107.52,24.8Z"/></g><path class="cls-35" d="M106.54,21.57c-.25-2.55-1.44-13.9-1.66-16.45a2.38,2.38,0,0,0-.22-1c-.16-.27-.29-.25-.29-.25l-1.75.47a.94.94,0,0,0-.77.57,1.33,1.33,0,0,0,.14.87c1.47,3.73,3,16.71,2.77,20.82a16.53,16.53,0,0,1-1,5.05,8.65,8.65,0,0,1-3,4,9.47,9.47,0,0,1-1.93,1,17,17,0,0,1-3,.87A2.94,2.94,0,0,1,93.12,37c1.41,1.66,3.85,1.74,5.85,1.1a11.26,11.26,0,0,0,7.14-7C107.14,28.11,106.84,24.78,106.54,21.57Z"/><path class="cls-11" d="M59,69.32c-1.93,0-11.58.12-11.58,2.51S57.05,74.35,59,74.35s11.58-.12,11.58-2.52S60.92,69.32,59,69.32Zm0,3.77c-5.92,0-9.36-.77-10.19-1.26.83-.49,4.27-1.26,10.19-1.26s9.36.77,10.19,1.26C68.34,72.32,64.9,73.09,59,73.09Z"/><path class="cls-16" d="M69.93,71.2c0,1-4.9,1.89-11,1.89s-11-.85-11-1.89,4.91-2.53,11-2.53S69.93,70.16,69.93,71.2Z"/><path class="cls-17" d="M60.64,68.86a7.47,7.47,0,0,0-1.42,0c-.53,0-1.17.15-1.31.66l-.11,0a6.88,6.88,0,0,0,1.87.21c.53,0,1.49-.3,1.53-.49S60.89,68.9,60.64,68.86Z"/><path class="cls-11" d="M71.31,24.29,69.21,11H48.75l-2.1,13.34a17.19,17.19,0,0,0,7.62,16.37,5.79,5.79,0,0,1,2.61,4.84l.82,24h0c0,.12.57.22,1.28.22s1.27-.1,1.27-.22h0l.82-24a5.79,5.79,0,0,1,2.61-4.84A17.19,17.19,0,0,0,71.31,24.29Z"/><path class="cls-18" d="M70.45,24.29,68.5,11h-19l-2,13.34a13.43,13.43,0,0,0,4.84,12.43,10.2,10.2,0,0,0,13.25,0A13.42,13.42,0,0,0,70.45,24.29Z"/><path class="cls-18" d="M59,9.68c-6.07,0-9.16.87-9.4,1.31.24.36,3.33,1.23,9.4,1.23,5.88,0,9-.82,9.37-1.27C68,10.5,64.86,9.68,59,9.68Z"/><path class="cls-19" d="M59,8.84c-1,0-10.24.06-10.24,2.11S57.93,13.06,59,13.06,69.22,13,69.22,11,60,8.84,59,8.84Zm0,3.38c-6.07,0-9.16-.87-9.4-1.23.24-.44,3.33-1.31,9.4-1.31,5.88,0,9,.82,9.37,1.27C68,11.4,64.86,12.22,59,12.22Z"/><path class="cls-17" d="M47.51,24.29c-.63,5.66,1.4,9.56,5.32,12.84a10.11,10.11,0,0,0,12.3,0c3.91-3.28,6-7.18,5.32-12.84l-1.11-7.54H48.62Z"/><path class="cls-13" d="M59.55,39.85a11,11,0,0,1-7.31-2.17,9.08,9.08,0,0,0,14.6-1.38A11,11,0,0,1,59.55,39.85Z"/><path class="cls-20" d="M56.65,41a5.06,5.06,0,0,1-1.48-.49,27.48,27.48,0,0,1,2.34,1.89,6.08,6.08,0,0,1,1.37,3.3c.82,5.78.91,32.67,1.13,19.25,0-4.82.05-11.43.3-16.25.13-2.61-.36-6.32,2.36-8.19A10.15,10.15,0,0,1,56.65,41Z"/><g class="cls-4"><path class="cls-13" d="M68.69,70.93a1.19,1.19,0,0,0-.72-.51A24,24,0,0,0,61.33,69l.09.23,2.46,1.54c.23.14.48.35.43.61s-.26.31-.45.39c-1.53.57-3.3.35-4.75,1.11a70.62,70.62,0,0,0,8.22-.68,2.23,2.23,0,0,0,1-.32A.83.83,0,0,0,68.69,70.93Z"/></g><path class="cls-17" d="M69.43,72.06a3.5,3.5,0,0,1-1.58.6,55.18,55.18,0,0,1-8.2.92v.06c-.12.09,0,.26.18.3a5.67,5.67,0,0,0,2.46.09c1.47-.16,2.93-.38,4.38-.65a7,7,0,0,0,3.12-1.15c.06,0,.13-.11.13-.19S69.59,71.93,69.43,72.06Z"/><g class="cls-21"><path class="cls-14" d="M57.76,69.72a1.58,1.58,0,0,0-1.2-.47,1.55,1.55,0,0,0-.29,0,18.22,18.22,0,0,0-6.41,1.12,1.44,1.44,0,0,0-.61.35.5.5,0,0,0,0,.65.64.64,0,0,0,.35.17,13.22,13.22,0,0,0,7.58-.25,1.5,1.5,0,0,0,.69-.4A1,1,0,0,0,57.76,69.72Z"/></g><path class="cls-14" d="M55.5,69.87a.63.63,0,0,0-.49-.2,3.32,3.32,0,0,0-.89.09,9.94,9.94,0,0,0-2.62.86.76.76,0,0,0-.43.33.52.52,0,0,0,.38.64,1.48,1.48,0,0,0,.83-.08l2.52-.74a1.38,1.38,0,0,0,.61-.29A.48.48,0,0,0,55.5,69.87Z"/><path class="cls-14" d="M58.59,62.17C58.51,58,58.2,54.28,58,50.1c0-1-.09-2.39-.19-3.42-.4-2.57-.37.42-.37.42q-.16,8.9.46,17.79a1.69,1.69,0,0,0,.41,1.2A15.15,15.15,0,0,0,58.59,62.17Z"/><path class="cls-22" d="M48.62,16.79C48.88,17.15,52.3,18,59,18c6.49,0,9.89-.81,10.34-1.26-.45-.46-3.85-1.27-10.34-1.27C52.3,15.48,48.89,16.35,48.62,16.79Z"/><path class="cls-23" d="M58.17,14.45a1,1,0,0,0-.47-.22c-2.52-.65-5.3-.41-7.59-1.66a1.31,1.31,0,0,0-.7-.24c-.25,0-.48.31-.36.52l.15-.27a78.94,78.94,0,0,0-1.81,11.13,17,17,0,0,0,0,4.16c1.25,8.45,7.5,10.78,9.08,10.88a6.87,6.87,0,0,1-4.23-4.6,18.22,18.22,0,0,1-.92-5.1,13.88,13.88,0,0,1,.12-3.51,15,15,0,0,1,2.16-5.92,13.61,13.61,0,0,1,4-3.75C58.11,15.54,58.59,14.85,58.17,14.45Z"/><g class="cls-4"><path class="cls-14" d="M51.45,13.44a2.12,2.12,0,0,0-1.19-.11c-.38.12-.33.23-.33.23a43,43,0,0,0-1.54,7.55c-.35,2.55-.4,6.79.5,8.45,0-4.46,1.13-9.93,3.55-13.68a2,2,0,0,0,.44-1.17C52.82,14,52.09,13.65,51.45,13.44Z"/></g><g class="cls-6"><g class="cls-4"><path class="cls-13" d="M70.51,24.82a66.88,66.88,0,0,0-1.83-12.66,43.12,43.12,0,0,1-8.06,1.14c-.24,0-.55.09-.55.32s.21.3.38.39c1.21.61,1.68,2.09,2,3.42a43.79,43.79,0,0,1,1,9.62c0,2.32-.34,4.85-2,6.5a9.32,9.32,0,0,1-4.93,2.12,7.86,7.86,0,0,1-2.16.22,8.73,8.73,0,0,1-3.63-1.49A9.06,9.06,0,0,0,59,39.19,11,11,0,0,0,67.29,35a13.06,13.06,0,0,0,1.63-2.22A16,16,0,0,0,70.51,24.82Z"/></g></g><path class="cls-24" d="M69.46,21.6c-.26-2.55-.53-5.1-.79-7.65a2.13,2.13,0,0,0-.27-1c-.19-.28-.34-.26-.34-.26L66,13.2c-.37.08-.8.22-.93.58a1.2,1.2,0,0,0,.17.87,24.64,24.64,0,0,1,2.34,12,15.24,15.24,0,0,1-1.06,5,8.73,8.73,0,0,1-3.21,4,10.41,10.41,0,0,1-2.08,1,20,20,0,0,1-3.25.87A3.34,3.34,0,0,1,55,37.05c1.52,1.66,4.14,1.74,6.3,1.1a11.74,11.74,0,0,0,7.68-7C70.11,28.13,69.79,24.8,69.46,21.6Z"/><path class="cls-36" d="M20,68.87l1.62,2.5c0,3.41,27.67,7.8,56.16,7.26,31-.58,56.15-3.85,56.15-7.26l1.62-2.5c-8.86,3.35-37.45,4.62-57.77,4.62S28.85,72.22,20,68.87Z"/><g class="cls-6"><path class="cls-14" d="M21,69.64l.31.15,0-.06Z"/></g><g class="cls-4"><path class="cls-14" d="M71,77.39a251.48,251.48,0,0,1-32.74-2.87c-5.66-.84-12.43-2.27-16.93-4.73a6,6,0,0,0,3,3A17,17,0,0,0,28.54,74a195.76,195.76,0,0,0,44.83,4.09A4.56,4.56,0,0,0,71,77.39Z"/></g><g class="cls-6"><path class="cls-37" d="M86.59,77.89a255.42,255.42,0,0,0,40-3.94c2.83-.51,6-1.32,7.39-3.84l.28-.07Q110.6,75,86.59,77.89Z"/></g><g class="cls-6"><path class="cls-37" d="M61.28,72.68l-1.74.06a212,212,0,0,1-39.39-4.25l-.08.65c12.91,4,26.6,4.75,40.12,5.11,14.23.39,28.48.42,42.7-.33a229.36,229.36,0,0,0,28.06-3c1.77-.32,3.73-.8,4.66-2.33A363.32,363.32,0,0,1,61.28,72.68Z"/></g><path class="cls-10" d="M77.77,72.19c-39.43,0-59.22-3.55-59.22-5.54H17.26c0,5,36.18,6.84,60.51,6.84s60.5-1.82,60.5-6.84H137C137,68.64,117.19,72.19,77.77,72.19Z"/></g></g></svg>