<svg xmlns="http://www.w3.org/2000/svg" xmlns:xlink="http://www.w3.org/1999/xlink" viewBox="0 0 125.27 53.58"><defs><style>.cls-1{isolation:isolate;}.cls-2{fill:#e2cbac;}.cls-3{fill:#ebe2d9;}.cls-4{fill:#d9b691;}.cls-5{fill:#338e11;}.cls-6{fill:#65af1c;}.cls-7{fill:#cf0003;}.cls-8{fill:#cd942b;}.cls-9{fill:#ae6f20;}.cls-10{fill:url(#linear-gradient);}.cls-11{fill:url(#linear-gradient-2);}.cls-12{fill:#a59c8b;}.cls-13{fill:url(#linear-gradient-3);}.cls-14,.cls-20,.cls-21,.cls-25{opacity:0.55;}.cls-14,.cls-25{mix-blend-mode:screen;}.cls-14{fill:url(#linear-gradient-4);}.cls-15{fill:#e3dab9;}.cls-16{fill:#3b3326;}.cls-17{fill:#fff;}.cls-18{fill:#5f5148;}.cls-19{fill:url(#linear-gradient-5);}.cls-20{fill:#989dc5;}.cls-20,.cls-21{mix-blend-mode:multiply;}.cls-21{fill:#afb3d2;}.cls-22{fill:url(#linear-gradient-6);}.cls-23{fill:url(#linear-gradient-7);}.cls-24{fill:url(#linear-gradient-8);}.cls-25{fill:url(#linear-gradient-9);}.cls-26{fill:url(#linear-gradient-10);}</style><linearGradient id="linear-gradient" x1="98.47" y1="23.58" x2="123.93" y2="19.36" gradientUnits="userSpaceOnUse"><stop offset="0" stop-color="#a59cb1"/><stop offset="1" stop-color="#6f6368"/></linearGradient><linearGradient id="linear-gradient-2" x1="50.64" y1="19.55" x2="53.49" y2="6.68" xlink:href="#linear-gradient"/><linearGradient id="linear-gradient-3" x1="57.14" y1="10.33" x2="55.78" y2="37.43" gradientUnits="userSpaceOnUse"><stop offset="0" stop-color="#a59cb1"/><stop offset="0.69" stop-color="#a59c8b"/></linearGradient><linearGradient id="linear-gradient-4" x1="63.3" y1="9.09" x2="62.22" y2="30.58" xlink:href="#linear-gradient-3"/><linearGradient id="linear-gradient-5" x1="26.19" y1="24.83" x2="32.87" y2="28.85" xlink:href="#linear-gradient"/><linearGradient id="linear-gradient-6" x1="297.98" y1="32" x2="321.21" y2="28.15" gradientTransform="matrix(-1, 0, 0, 1, 326.64, 0)" xlink:href="#linear-gradient"/><linearGradient id="linear-gradient-7" x1="254.33" y1="28.32" x2="256.94" y2="16.58" gradientTransform="matrix(-1, 0, 0, 1, 326.64, 0)" xlink:href="#linear-gradient"/><linearGradient id="linear-gradient-8" x1="260.27" y1="19.91" x2="259.02" y2="44.63" gradientTransform="matrix(-1, 0, 0, 1, 326.64, 0)" xlink:href="#linear-gradient-3"/><linearGradient id="linear-gradient-9" x1="265.89" y1="18.78" x2="264.9" y2="38.39" gradientTransform="matrix(-1, 0, 0, 1, 326.64, 0)" xlink:href="#linear-gradient-3"/><linearGradient id="linear-gradient-10" x1="232.03" y1="33.14" x2="238.12" y2="36.81" gradientTransform="matrix(-1, 0, 0, 1, 326.64, 0)" xlink:href="#linear-gradient"/></defs><g class="cls-1"><g id="Layer_2" data-name="Layer 2"><g id="Layer_1-2" data-name="Layer 1"><ellipse class="cls-2" cx="62.64" cy="28.83" rx="62.64" ry="24.75"/><ellipse class="cls-3" cx="62.64" cy="26.64" rx="60.83" ry="21.28"/><ellipse class="cls-4" cx="62.64" cy="25.19" rx="42.27" ry="13.35"/><ellipse class="cls-2" cx="62.64" cy="28.64" rx="40.84" ry="9.9"/><path class="cls-5" d="M79.25,10.17a7.73,7.73,0,0,1,2-1.11c.41,0,3.19,2,3.67,2s-.08-.65-.08-.65,1.47,1,2.31.7-.31-.78-.31-.78,1.73.59,2.13.1-1.3-.92-1.3-.92.65-.25.49-.7-2.39,0-2.39,0,1.2-.61.87-.93a4,4,0,0,0-2.78,0,5.54,5.54,0,0,1-2.28.7s3-1.63,3.84-1.5,2.39.83,2.92.49S87.72,7,87.72,7a4,4,0,0,0,1.89-.49c.8-.52-1.85-.09-1.85-.09s1.16-.5.64-.66-1.77.43-1.77.43.12-.84,1.39-.77,2.29-.08,2.49-.45-1.69-.34-1.69-.34A4.25,4.25,0,0,0,91.39,3a.32.32,0,0,0-.3-.44,11.41,11.41,0,0,0-2.33.7s.83-1.6.53-1.73c-1-.43-1.81,1.34-3,2.48s-1.38.93-1.08.6S86.83,2,86.28,1s-1.91,1.75-1.94,2.19c0,0-.06-1-.56-1.19s-.55,1.22-.54,2.66A5,5,0,0,1,81.3,8a3.64,3.64,0,0,1,0-2.39c.46-1.49.48-1.45.33-2.16s-.81.36-.81.36a2.09,2.09,0,0,0-.28-1.59c-.52-.56-.69,1.66-.69,1.66S79.52,4,79.56,3s-.57-1.08-.67-1-.2,1-.2,1-.81-1.66-1.07-1.22.47,1.51.47,1.51-.68-.29-.6.14,1,1.22,1,1.22.41.49-.45,0-.85-.15-.82,0,1.81,1.74,1.89,2-.16.21-.69-.26-.84,0-.76.13a6,6,0,0,0,1.74,1.49c.65.28,1.41.56,1.31.72A16.85,16.85,0,0,1,79,9.86Z"/><path class="cls-5" d="M20.34,17.62s1.13-1.57,1.53-1.68,3.67,1,4.1.74-.28-.59-.28-.59,1.72.52,2.41-.06-.53-.64-.53-.64,1.82,0,2.05-.58-1.52-.45-1.52-.45.54-.45.24-.83-2.26.75-2.26.75.94-1,.54-1.16A4.07,4.07,0,0,0,24,14,5.38,5.38,0,0,1,22,15.41s2.33-2.48,3.18-2.62,2.53,0,2.92-.45-.75-.4-.75-.4A3.9,3.9,0,0,0,29,10.88c.6-.74-1.78.5-1.78.5s.94-.84.4-.83-1.54,1-1.54,1-.15-.83,1.08-1.17,2.14-.79,2.22-1.2-1.71.21-1.71.21,1.71-1,1.93-2.35a.32.32,0,0,0-.42-.32,10.83,10.83,0,0,0-2,1.4s.29-1.79,0-1.82c-1.07-.09-1.31,1.84-2,3.29s-1,1.31-.84.9.68-3-.15-3.78S22.87,8.93,23,9.36c0,0-.36-.93-.9-1s-.14,1.33.32,2.7a5,5,0,0,1-.78,3.82,3.6,3.6,0,0,1-.76-2.27c0-1.55,0-1.52-.37-2.14s-.65.59-.65.59-.12-1.07-.77-1.43-.13,1.8-.13,1.8-.26.22-.55-.8-.88-.85-1-.78.12,1,.12,1-1.28-1.32-1.39-.82.92,1.28.92,1.28-.74-.06-.52.32,1.35.85,1.35.85.55.33-.41.18-.85.12-.79.25,2.27,1.09,2.41,1.26-.08.25-.74,0-.8.23-.68.36a5.86,5.86,0,0,0,2.12.87c.71.07,1.51.09,1.48.28A19.24,19.24,0,0,1,20,17.39Z"/><path class="cls-6" d="M23.19,17a7.27,7.27,0,0,0-2.12-.09c-.35.19-2.06,3.06-2.51,3.2s-.15-.57-.15-.57-.92,1.48-1.78,1.56,0-.78,0-.78-1.29,1.22-1.83,1,.82-1.32.82-1.32-.67.07-.68-.38,2.09-1,2.09-1-1.27,0-1.1-.42A4.22,4.22,0,0,1,18.38,17a5.6,5.6,0,0,0,2.24-.39s-3.2-.1-3.89.37-1.8,1.7-2.39,1.64.3-.76.3-.76a4,4,0,0,1-1.83.38c-.89-.09,1.59-.85,1.59-.85s-1.2.07-.8-.28a3.77,3.77,0,0,1,1.7-.39s-.4-.65-1.49-.06-2,.9-2.34.68,1.36-1,1.36-1S11,16.84,10,16.09a.3.3,0,0,1,.1-.49,10.63,10.63,0,0,1,2.3-.4s-1.3-1-1.09-1.22c.71-.77,1.71-.28,3.13.19s1.25.23.86.07-1.67-.92-1.55-2,2.3.65,2.48,1c0,0-.31-.86.06-1.23s.92.79,1.43,2a4.24,4.24,0,0,0,2.91,2,3.11,3.11,0,0,0-.85-2c-.93-1-.93-1-1.06-1.66s.84,0,.84,0a1.82,1.82,0,0,1-.32-1.46c.25-.68,1.19,1.11,1.19,1.11s.33,0-.09-.9.11-1.15.22-1.16.54.76.54.76.11-1.72.5-1.46.12,1.45.12,1.45.5-.53.58-.13A4.09,4.09,0,0,1,21.84,12s-.19.59.41-.15.68-.48.71-.36-1,2.23-1,2.44.22.11.51-.51.72-.38.72-.22a5.88,5.88,0,0,1-1,2c-.47.51-1,1.06-.9,1.16a18.42,18.42,0,0,0,1.95.27Z"/><path class="cls-6" d="M98.34,12.79a8.78,8.78,0,0,0,2.55-.16c.38-.28,1.75-3.91,2.25-4.13s.32.66.32.66.75-1.89,1.75-2.08.19.92.19.92,1.26-1.63,1.95-1.41-.67,1.67-.67,1.67.77-.17.9.36-2.26,1.47-2.26,1.47,1.51-.16,1.4.34S104.9,12,104.06,12.1a6.11,6.11,0,0,0-2.58.75s3.82-.3,4.54-.95,1.75-2.26,2.46-2.26-.17.94-.17.94a4.38,4.38,0,0,1,2.08-.7c1.08,0-1.69,1.22-1.69,1.22s1.4-.23,1,.24-1.93.68-1.93.68.62.71,1.79-.13,2.21-1.34,2.62-1.11-1.39,1.36-1.39,1.36,2.09-.81,3.43-.05a.35.35,0,0,1,0,.59,11.53,11.53,0,0,1-2.64.78s1.78,1,1.58,1.3c-.67,1-2.54-.14-4.33-.51s-1.87,0-1.38.1,3.1,1.51,3.21,2.8-2.89-.46-3.19-.87c0,0,.57,1,.21,1.47s-1.27-.81-2.15-2.18a5.62,5.62,0,0,0-3.92-2,4.12,4.12,0,0,0,1.47,2.27c1.34,1.12,1.34,1.07,1.63,1.84s-1,.15-1,.15a2.37,2.37,0,0,1,.72,1.69c-.15.84-1.68-1.15-1.68-1.15s-.38.07.31,1,.13,1.38,0,1.41-.81-.83-.81-.83.26,2.06-.26,1.8-.48-1.71-.48-1.71-.47.7-.65.24a4.58,4.58,0,0,1,.21-1.79s.09-.72-.46.23-.7.66-.76.52.63-2.77.58-3-.28-.1-.49.67-.77.55-.8.35a6.47,6.47,0,0,1,.72-2.48c.44-.67,1-1.4.8-1.5a22.15,22.15,0,0,0-2.37-.07Z"/><path class="cls-6" d="M52.2,6.92a8.49,8.49,0,0,1-2.53-.37c-.35-.3-1.42-4-1.9-4.3s-.37.63-.37.63S46.81.94,45.82.67s-.26.9-.26.9S44.44-.15,43.73,0s.53,1.72.53,1.72-.76-.23-.92.29,2.12,1.64,2.12,1.64S44,3.38,44,3.89s1.69,1.71,2.52,1.87a6.41,6.41,0,0,1,2.51,1s-3.79-.61-4.45-1.31S43.06,3,42.35,3s.1,1,.1,1a4.48,4.48,0,0,0-2-.87C39.36,3,42,4.4,42,4.4s-1.38-.35-1,.15,1.87.83,1.87.83-.68.67-1.78-.27S39,3.6,38.56,3.79s1.28,1.47,1.28,1.47-2-1-3.42-.33a.35.35,0,0,0,0,.59,11.86,11.86,0,0,0,2.57,1s-1.85.85-1.68,1.17c.59,1.07,2.55.07,4.36-.16s1.87.13,1.37.22S39.78,9,39.57,10.26s2.91-.22,3.25-.6c0,0-.64.93-.33,1.45s1.33-.71,2.32-2a5.58,5.58,0,0,1,4.07-1.68,4.06,4.06,0,0,1-1.65,2.14c-1.43,1-1.42.95-1.78,1.69s1,.24,1,.24a2.36,2.36,0,0,0-.85,1.62c.07.85,1.77-1,1.77-1s.37.11-.4,1-.25,1.36-.12,1.4.87-.76.87-.76-.42,2,.11,1.81.62-1.66.62-1.66.41.73.63.29a4.51,4.51,0,0,0-.06-1.8s0-.72.43.27.65.71.72.58-.41-2.81-.33-3,.28-.08.43.71.72.61.77.41A6.59,6.59,0,0,0,50.5,8.8c-.39-.7-.88-1.47-.68-1.56a20.92,20.92,0,0,1,2.37.12Z"/><path class="cls-7" d="M57.86,15.12c-4.32.14-11.9-2.06-9.79-7.65a5.59,5.59,0,0,1,5.52-3.74c2.71.09,3.83,2.48,6.19,3,3.24.71,12.32-4.27,11.65,3C71,14.83,61.54,15,57.86,15.12Z"/><path class="cls-7" d="M22.26,23.14C27,24.77,30.7,26.3,34,20.55s1.29-10-4.76-9.26c-2.63.34-4.33,1.21-7,.29-2.36-.82-4-2.75-6.37-.54-1.64,1.5-2.73,5.63-2.09,7.78.84,2.82,2.91,3.09,5.3,3.65C20.19,22.73,21.43,22.86,22.26,23.14Z"/><path class="cls-7" d="M91.43,16.16c-3.25.11-9-1.57-7.37-5.84a4.21,4.21,0,0,1,4.16-2.85c2,.06,2.89,1.89,4.66,2.28,2.44.55,9.27-3.25,8.77,2.32C101.3,15.94,94.21,16.07,91.43,16.16Z"/><path class="cls-8" d="M50.35,9c-4.26-3-14.08-3.34-18.51-.37-4.82,3.24-3.25,10.05,1,12.94,6,4,27.85,4.4,23-7.85C54.81,10.85,52.68,10.62,50.35,9Z"/><path class="cls-9" d="M53.26,14.61c-2.8,1.23-5.18,2.54-8.21,2.86-3.28.35-6.74-.67-9.77-1.77-2-.73-7-1.94-4.67,2.14,1.81,3.1,5.89,4.38,9.22,4.21a36.6,36.6,0,0,0,10-1.5c1.37-.47,3-.87,3.63-2.3C53.93,17.09,54.91,13.88,53.26,14.61Z"/><path class="cls-9" d="M38,8.62c-3-.33,1.35,3.34,1.06.21A3.43,3.43,0,0,0,38,8.8Z"/><path class="cls-9" d="M43.27,8.62c-1.38.62.23,1.83,1.1,1.28,1.13-.72-.2-1.49-1.1-1.28Z"/><path class="cls-9" d="M47.63,11.16a1.27,1.27,0,0,0-.15,1.06c2.31,1.24,2.23-2.35-.21-1.24Z"/><path class="cls-9" d="M40,12.61c-1.69.36-.55,2.25.56,1.83,1.35-.5.24-2.11-.92-2Z"/><path class="cls-9" d="M31.84,11.16c-.92,1,.52,2,1.41,1.41C34.58,11.65,32.67,11.1,31.84,11.16Z"/><path class="cls-9" d="M45.81,13.52c-1.69.58.13,1.92,1.1,1.23,1.29-.92-.7-1.68-1.64-1.23Z"/><path class="cls-9" d="M51.44,12.07c-.8.76.19,1.64,1,1,.93-.81-.41-1.34-1.14-1Z"/><path class="cls-8" d="M90.25,13.92c4.41-1.28,8.79-2.34,13.47-1.59,3.34.54,8.64,2.13,9.54,6,2.28,9.77-13.65,10.88-19.61,9.62-3.32-.7-7.7-1.54-8.48-5.26C84.5,19.47,86.57,13.51,90.25,13.92Z"/><path class="cls-9" d="M108.22,20.64a22.29,22.29,0,0,1-10.17.73c-2.84-.42-5.77-2.27-8.71-2-4.92.45-.81,5.42,1.8,6.35,3.67,1.31,8.79.55,12.54,0,1.76-.25,4-.58,5.27-2C110.39,22.19,110.74,19.78,108.22,20.64Z"/><path class="cls-9" d="M109.49,17c-1.46-.68-2.87.91-1.09,1.64C109.81,19.23,110.81,17.62,109.49,17Z"/><path class="cls-9" d="M98.6,17.74c-1.16.77,0,1.8.91,1.23s.2-1.61-.73-1.42Z"/><path class="cls-9" d="M103,14.11c-.9-.51-2.38.25-1.28,1.13a1.23,1.23,0,0,0,2-.78,2.21,2.21,0,0,0-1.42-.17Z"/><path class="cls-9" d="M93.69,15c-.86-.2-1.55.14-1.42,1.06,1,.67,2.39.39,2.12-1a1.14,1.14,0,0,0-1.24,0Z"/><path class="cls-9" d="M88.79,16.46a1.42,1.42,0,0,0-1.65.91c.66.66,2.54.64,2.35-.7a5.15,5.15,0,0,0-.88,0Z"/><path class="cls-9" d="M103.13,18.1c-1.64,1.11,1.83,2.17,1.43.21a6.67,6.67,0,0,0-1.61,0Z"/><path class="cls-9" d="M97.69,13.56c-1,0-1.37,1.43-.18,1.45s.71-2.12-.19-1.09Z"/><path class="cls-9" d="M93.88,17.92c0,.77,1.28,1.2,1.64.37.51-1.17-1.2-1-1.64-.55Z"/><path class="cls-8" d="M82.26,7c-5.36-.47-10.4-2.25-16-1.36-4.84.75-9.45,4.17-7.8,9.51,1.54,5,8.54,7.45,13.09,8,4.72.62,10.94,1.33,14.68-2.21a9.81,9.81,0,0,0,2.52-9.22C87.57,7.72,86,7.28,82.26,7Z"/><path class="cls-9" d="M84.14,15.14c-3.29,1.65-7.56,1.93-11.22,1.72a27.25,27.25,0,0,1-5.8-1c-1.22-.37-2.82-1.49-4.14-1.2-1.75.39-1.4,2-.17,3.07a14.72,14.72,0,0,0,4.78,2.09,33.54,33.54,0,0,0,11.74,1.83,10.4,10.4,0,0,0,7-3.24C88.42,16,86.74,13.84,84.14,15.14Z"/><path class="cls-9" d="M65.71,7.63a1.6,1.6,0,0,0-1,.2C64.47,9,65.9,9.53,66.88,9.31,67.4,8.36,66.65,7.77,65.71,7.63Z"/><path class="cls-9" d="M71.51,11.9c-1.55.43-.67,2.22.69,1.71S72.6,11.59,71.51,11.9Z"/><path class="cls-9" d="M79.53,8.83c-.45.06-1.5.68-1.16,1.33.23.43,1.58.21,2,.18a3.69,3.69,0,0,0,0-1.48,1.32,1.32,0,0,0-1.34,0Z"/><path class="cls-9" d="M84.65,11.39c-1.31-.32-1.82.9-.5,1.36s1.51-.82.5-1.36Z"/><path class="cls-9" d="M62.3,10.87c-.88.06-1.85.68-1.68,1.68,1,.54,2.36,0,2-1.31C62.4,11.2,62.52,10.86,62.3,10.87Z"/><path class="cls-9" d="M72.71,7.29a2.56,2.56,0,0,0,0,.83c.7.3,2,.51,1.85-.66C74.43,6.47,72.9,6.28,72.71,7.29Z"/><path class="cls-9" d="M77.83,13.78c-.8,0-1,.58-.83,1.33,1.77,1,2.29-1.63.32-1.16Z"/><path class="cls-9" d="M66.4,12.75c-1,.41-.26,1.74.69,1.37s-.12-1.53-.86-1.2Z"/><path class="cls-9" d="M69.47,8a1,1,0,0,0-.66,1.17c2.38,1.29,2.33-2.51.49-1.34Z"/><path class="cls-10" d="M124.18,14.25c-4.43-.62-10.25.29-13.61.79-3,.44-5.78,1.86-8.53,3.16s-1.89,3.92.38,5.28a21.69,21.69,0,0,0,8.86,2.7,28.42,28.42,0,0,0,6.61.28c1.5-.17,4,0,5.37-.51-1.39-.46-3.32-.14-4.68-.69,1-.18,3.35,0,4-.74-1.73-.1-3.49,0-5.22-.18,1.07-.45,3-.37,3.82-1.22-1.67-.11-3.39,0-5.07,0,1-.19,2.73-.31,3.4-1.12-1.65-.12-3.31-.06-5-.18,1-.4,2.65-.44,3.43-1.36-1-.06-1.93,0-2.89,0,1.8-.51,3.77-.52,5.55-1a13.17,13.17,0,0,0-4-.26c1.68-.33,3.41-.68,5.07-1.05a13.48,13.48,0,0,0-3.36-.36,18.47,18.47,0,0,0,4.86-1.15c-1.11-.36-2.46,0-3.63,0a21,21,0,0,0,3.78-1.32,9,9,0,0,0-4.33.55Z"/><path class="cls-11" d="M26.4,13.11C29,10.34,33.21,8.41,36.5,7.3a10.73,10.73,0,0,0-1.6,2.15,39.25,39.25,0,0,1,6.91-2.24,19.24,19.24,0,0,0-1.64,2.06c2.73-1.33,4.58-1.61,6.5-2.4a13.49,13.49,0,0,0-1.43,1.9C47,8.25,48.55,7.5,50.86,7a10.9,10.9,0,0,0-1.57,1.62c1.71-.28,3.82-1,5.6-.93A17.8,17.8,0,0,0,52.83,9c1.76-.05,4-.72,5.81-.72a19.53,19.53,0,0,0-1.83,1.27,40.4,40.4,0,0,1,6.07-.71A18.49,18.49,0,0,0,61.27,10c1.63.07,3.94-.56,5.6-.41-.23.1-1.2.73-1.5.86,2.11-.05,4.22,0,6.32,0-.31.17-.57.5-.87.66a28.35,28.35,0,0,1,5.51.61,4.7,4.7,0,0,0-1,.47c1.09.41,2.49.45,3.41,1.13-2.57,1-6.55.45-9.38.54-6.36.2-12.77.07-19.13.4-5.26.27-10.48.14-15.75.14-3,0-6.32.59-9.24-.16C25.11,13.6,26,13,26.4,13.11Z"/><path class="cls-12" d="M103.17,17.55a9.46,9.46,0,0,0-3.33-1.09c-5.76-.79-29.15-6.45-49.2-6.21-23,.27-41.66,6.81-43.16,11-.71,2,16.88,16.34,48.06,13.75s45.47-8.84,48.33-11C106.32,22.26,106.57,19.5,103.17,17.55Z"/><path class="cls-13" d="M103.17,17.55a9.46,9.46,0,0,0-3.33-1.09c-5.76-.79-29.15-6.45-49.2-6.21-23,.27-41.66,6.81-43.16,11-.71,2,16.88,16.34,48.06,13.75s45.47-8.84,48.33-11C106.32,22.26,106.57,19.5,103.17,17.55Z"/><path class="cls-14" d="M61.41,13.15c-5.91-.33-12.07-.37-18-.13-4,.15-8.06.42-10.35,1.72a4.35,4.35,0,0,0-1.92,4.46c.9,3.77,29.3,2.54,35.42,2.24,7.08-.34,12.07-.91,18.14-1.34,2.27-.16,6.76-.47,9.5-.8,1.05-.12-.34-1.32-1.38-1.52-4.26-.82-9-2-12.72-2.42C74.06,14.73,67.48,13.5,61.41,13.15Z"/><path class="cls-15" d="M22.14,18.74a2.36,2.36,0,1,1-2.36-2.36A2.36,2.36,0,0,1,22.14,18.74Z"/><circle class="cls-16" cx="19.78" cy="18.74" r="1.59"/><path class="cls-17" d="M20.87,18.17a.37.37,0,0,1-.37.36.36.36,0,0,1,0-.72A.37.37,0,0,1,20.87,18.17Z"/><path class="cls-18" d="M7.82,20.66c0,.05.12.08.26.05,1.19-.22,1.95,2.19,2,2.26a4.53,4.53,0,0,0,0-1.61c-.09-.47-.25-2.17-.25-2.17a.45.45,0,0,0-.16-.25A7.39,7.39,0,0,0,7.82,20.66Z"/><path class="cls-19" d="M25.86,26.59c2.46-.18,4.58.88,6.84,1.47a81.74,81.74,0,0,1,8,2.07c-2.08.67-4.25-.49-6.32-.28a26.2,26.2,0,0,0,4.54,1.78,12.76,12.76,0,0,1-4.4-.7A16.49,16.49,0,0,0,37,32.58c-2.37,0-5-1.69-7.13-2.55C29,29.66,22.37,26.84,25.86,26.59Z"/><path class="cls-18" d="M24.36,28.29S28.72,26,29,19.73a15.35,15.35,0,0,0-2.12-6.89c-.87.19-1.26.27-2.09.47,1.32,2.18,2.47,4.29,2.45,7C27.17,22.69,26.28,25.17,24.36,28.29Z"/><path class="cls-20" d="M92,25c.48-.13,2.75-1.52-.73-1.18-2,.2-4,.33-4.89.43-2.38.3-29.92,1.08-34.13,1.08-1.89,0-4.15-.23-5.84.88-1.2.79-1.4,1.92-.24,2.77,1.41,1,3.74,1.39,5.45,1.62a27.14,27.14,0,0,0,5.77.16c5.41-.43,10.8-.75,16.19-1.48C78.63,28.64,86.17,26.56,92,25Z"/><path class="cls-21" d="M108.91,25.82a58.27,58.27,0,0,0-13.27-4.6h0l-1.9-.43c-2.6-2.65-6.67-4.5-9.86-5.58a11,11,0,0,1,1.6,2.14,40.06,40.06,0,0,0-6.91-2.23,19.5,19.5,0,0,1,1.64,2.06c-2.73-1.34-4.58-1.61-6.51-2.4a12.82,12.82,0,0,1,1.44,1.9c-1.71-.53-3.31-1.27-5.62-1.8a10.9,10.9,0,0,1,1.57,1.62c-1.71-.28-3.82-1-5.61-.93a20.37,20.37,0,0,1,2.07,1.33c-1.76,0-4-.71-5.81-.72.64.5,1.4.84,1.83,1.28a39.14,39.14,0,0,0-6.07-.71c.31.2,1.31.84,1.61,1.11-1.63.06-3.94-.56-5.61-.42.24.11,1.2.74,1.5.86-2.1,0-4.21,0-6.32,0,.31.17.58.49.87.66a29.22,29.22,0,0,0-5.51.6,4.21,4.21,0,0,1,1.05.48,1.8,1.8,0,0,1-.22.06c-11.38,1.65-20.93,3.81-24.33,4.28a9.07,9.07,0,0,0-3.33,1.09l-.1.06A26.6,26.6,0,0,0,9.81,23L8.2,22.71C11.81,26.87,28.6,37.27,55.54,35c30.82-2.56,45.14-8.69,48.22-10.88A21.84,21.84,0,0,0,108.91,25.82Z"/><path class="cls-6" d="M99.26,26.45a8.78,8.78,0,0,0,2.42-.83c.29-.36.66-4.22,1.08-4.58s.48.56.48.56.23-2,1.14-2.47.43.84.43.84.79-1.9,1.51-1.87-.21,1.79-.21,1.79.71-.37,1,.11-1.79,2-1.79,2,1.41-.55,1.44,0-1.35,2-2.13,2.31a6.3,6.3,0,0,0-2.3,1.4s3.61-1.29,4.14-2.11,1.09-2.64,1.78-2.83.08,1,.08,1a4.29,4.29,0,0,1,1.82-1.22c1-.29-1.31,1.62-1.31,1.62s1.29-.6,1,0-1.69,1.16-1.69,1.16.79.53,1.7-.59,1.78-1.87,2.23-1.76-1,1.68-1,1.68,1.81-1.34,3.3-.95a.35.35,0,0,1,.15.57,12.38,12.38,0,0,1-2.35,1.45s2,.49,1.87.84c-.38,1.15-2.49.53-4.32.64s-1.81.46-1.3.46,3.39.64,3.83,1.86-2.91.31-3.3,0c0,0,.8.79.59,1.36s-1.44-.45-2.65-1.53a5.59,5.59,0,0,0-4.31-.91,4,4,0,0,0,2,1.8c1.59.73,1.57.68,2.06,1.34s-.91.41-.91.41,1,.6,1.14,1.43-1.93-.66-1.93-.66-.34.17.58.92.49,1.3.38,1.36-1-.59-1-.59.79,1.92.22,1.81-.91-1.53-.91-1.53-.27.8-.57.41a4.62,4.62,0,0,1-.26-1.79s-.1-.71-.38.35-.51.82-.61.7-.11-2.84-.23-3.06-.29,0-.29.78-.6.73-.68.54a6.57,6.57,0,0,1,0-2.58c.25-.76.59-1.61.38-1.65a19.27,19.27,0,0,0-2.31.55Z"/><path class="cls-22" d="M5.2,23.49c4.05-.57,9.35.26,12.42.72a28.86,28.86,0,0,1,7.79,2.88c2.61,1.23,1.72,3.58-.35,4.82A19.57,19.57,0,0,1,17,34.37a26.27,26.27,0,0,1-6,.26c-1.37-.15-3.63,0-4.9-.47,1.27-.42,3-.13,4.28-.62-1-.17-3.06,0-3.69-.68,1.59-.09,3.18,0,4.77-.16-1-.42-2.69-.34-3.48-1.12,1.52-.1,3.09,0,4.62,0-.91-.18-2.5-.29-3.1-1,1.5-.11,3-.05,4.53-.17-.89-.36-2.43-.4-3.13-1.23.86-.06,1.76,0,2.63,0-1.64-.47-3.44-.47-5.06-.94a12.44,12.44,0,0,1,3.66-.23c-1.53-.3-3.11-.62-4.62-1a12.08,12.08,0,0,1,3.06-.32,16.79,16.79,0,0,1-4.43-1.05,10.5,10.5,0,0,1,3.31,0A20,20,0,0,1,5.94,24.4a8.2,8.2,0,0,1,4,.51Z"/><path class="cls-23" d="M94.42,22.45c-2.35-2.53-6.21-4.29-9.21-5.3a9.46,9.46,0,0,1,1.46,2,36.58,36.58,0,0,0-6.31-2A17.29,17.29,0,0,1,81.86,19c-2.49-1.22-4.17-1.47-5.93-2.2a12.57,12.57,0,0,1,1.31,1.74c-1.56-.48-3-1.16-5.13-1.65a10,10,0,0,1,1.43,1.48,28.24,28.24,0,0,0-5.11-.84,16.82,16.82,0,0,1,1.88,1.21c-1.61,0-3.64-.65-5.3-.65.58.45,1.28.76,1.67,1.16a35.84,35.84,0,0,0-5.54-.65c.28.19,1.2.77,1.47,1-1.49.06-3.59-.51-5.12-.38.22.1,1.1.67,1.37.79-1.92,0-3.84,0-5.76,0,.28.15.52.45.79.6a25.91,25.91,0,0,0-5,.55,4,4,0,0,1,1,.44c-1,.37-2.27.4-3.11,1,2.35.9,6,.42,8.56.5,5.8.18,11.66.06,17.46.36,4.8.25,9.56.13,14.37.13,2.75,0,5.77.54,8.43-.14C95.6,22.9,94.83,22.35,94.42,22.45Z"/><path class="cls-12" d="M24.38,26.5a8.13,8.13,0,0,1,3-1c5.26-.73,26.6-5.89,44.9-5.67,21,.25,38,6.21,39.38,10.06.65,1.83-15.4,14.91-43.85,12.55s-41.5-8.06-44.11-10C21.5,30.8,21.27,28.28,24.38,26.5Z"/><path class="cls-24" d="M24.38,26.5a8.13,8.13,0,0,1,3-1c5.26-.73,26.6-5.89,44.9-5.67,21,.25,38,6.21,39.38,10.06.65,1.83-15.4,14.91-43.85,12.55s-41.5-8.06-44.11-10C21.5,30.8,21.27,28.28,24.38,26.5Z"/><path class="cls-25" d="M62.48,22.49c5.39-.31,11-.34,16.41-.13,3.68.14,7.36.38,9.45,1.58A4,4,0,0,1,90.09,28c-.82,3.45-26.73,2.32-32.32,2.05-6.46-.32-11-.83-16.56-1.22-2.06-.15-6.16-.43-8.66-.73-1-.12.31-1.21,1.26-1.39C37.7,26,42,24.85,45.41,24.5,50.93,23.92,56.94,22.8,62.48,22.49Z"/><path class="cls-15" d="M98.32,27.58a2.15,2.15,0,1,0,2.15-2.15A2.15,2.15,0,0,0,98.32,27.58Z"/><path class="cls-16" d="M99,27.58a1.45,1.45,0,1,0,1.45-1.45A1.45,1.45,0,0,0,99,27.58Z"/><circle class="cls-17" cx="99.81" cy="27.06" r="0.33"/><path class="cls-18" d="M111.38,29.34c0,.05-.11.07-.24,0-1.08-.2-1.77,2-1.86,2.07a4.32,4.32,0,0,1,0-1.48c.09-.42.23-2,.23-2a.4.4,0,0,1,.14-.22A6.63,6.63,0,0,1,111.38,29.34Z"/><path class="cls-26" d="M94.92,34.75c-2.25-.16-4.18.8-6.24,1.34-2.39.62-4.9,1-7.26,1.89,1.9.61,3.87-.45,5.76-.26A24.35,24.35,0,0,1,83,39.35a11.88,11.88,0,0,0,4-.64,14.88,14.88,0,0,1-2.35,1.5c2.17,0,4.55-1.54,6.51-2.33C92.06,37.55,98.1,35,94.92,34.75Z"/><path class="cls-18" d="M96.29,36.3s-4-2.11-4.19-7.82A13.78,13.78,0,0,1,94,22.2c.79.17,1.15.25,1.9.43-1.21,2-2.25,3.92-2.23,6.4C93.73,31.19,94.54,33.45,96.29,36.3Z"/><path class="cls-20" d="M34.56,33.33c-.44-.11-2.51-1.39.67-1.07,1.83.18,3.68.29,4.45.39,2.18.27,27.31,1,31.15,1,1.73,0,3.79-.22,5.33.8,1.09.72,1.28,1.75.22,2.53a11.54,11.54,0,0,1-5,1.47,24.44,24.44,0,0,1-5.27.14c-4.94-.38-9.85-.67-14.78-1.34C46.77,36.62,39.89,34.72,34.56,33.33Z"/><path class="cls-6" d="M57,40.05s1-.23,1.09-.44-.55-2.59-.39-2.84.41.33.41.33-.33-1.35.13-1.75.47.54.47.54.06-1.44.57-1.53.28,1.34.28,1.34.41-.35.72,0-.79,1.57-.79,1.57.85-.47,1-.11-.49,1.42-.93,1.64a2.3,2.3,0,0,0-1.09.87s2-.82,2.18-1.38.2-2,.68-2.15.29.71.29.71a2.88,2.88,0,0,1,1.25-1.13c.89-.37-.74,1.39-.74,1.39s1-.56.87-.1-1.14,1-1.14,1a1,1,0,0,0,1.28-.53c.55-1,1.22-1.67,1.71-1.64s-.59,1.5-.59,1.5a5.07,5.07,0,0,1,3.32-1.12c.3,0,.47.3.31.51a11,11,0,0,1-2.3,1.42s2.28.36,2.22.66c-.19,1-2.54.46-4.2.55-1.43.07-1.4.32-1,.32s3.17.54,3.86,1.5-2.64.06-3-.18c0,0,.84.6.78,1s-1.28-.41-2.43-1.19a4.59,4.59,0,0,0-3-.7,4.34,4.34,0,0,0,1.61,1.16c1.23.54,1.21.51,1.69,1s-.56.18-.56.18a2.93,2.93,0,0,1,1.1,1c.23.53-1.47-.6-1.47-.6s-.2.07.57.61.59.82.53.84a5.44,5.44,0,0,1-.8-.46s.91,1.21.5,1.06-.89-1-.89-1,0,.42-.28.16a3.56,3.56,0,0,1-.52-1s-.2-.41-.16.16-.14.41-.22.33-.62-1.59-.74-1.72-.17,0,0,.42-.19.36-.27.25a4.76,4.76,0,0,1-.5-1.43c0-.42,0-.9-.13-.93a7.47,7.47,0,0,0-1.1.26Z"/><path class="cls-6" d="M59.66,40.83a7.48,7.48,0,0,0-2-.71c-.38.09-2.62,2.41-3.08,2.42s0-.61,0-.61-1.2,1.2-2,1,.16-.77.16-.77-1.49.83-1.95.44,1.06-1.06,1.06-1.06-.65-.12-.57-.57,2.21-.38,2.21-.38-1.21-.38-1-.73a3.82,3.82,0,0,1,2.58-.39,5.19,5.19,0,0,0,2.22.27s-3-1-3.79-.76-2.07,1.15-2.62.92.44-.67.44-.67a3.67,3.67,0,0,1-1.82-.15c-.82-.35,1.7-.37,1.7-.37s-1.15-.29-.7-.52,1.7.12,1.7.12-.24-.76-1.41-.49-2.13.29-2.37,0,1.51-.59,1.51-.59a4,4,0,0,1-2.64-1.09.29.29,0,0,1,.2-.45,10.48,10.48,0,0,1,2.28.27s-1-1.34-.78-1.51c.84-.55,1.9.94,3.14,1.81s1.42.64,1.09.38-1.88-2.17-1.54-3.19,2.06,1.3,2.16,1.71c0,0-.12-.93.32-1.2s.7,1,.93,2.38a4.64,4.64,0,0,0,2.33,2.82A3.37,3.37,0,0,0,57,37c-.66-1.29-.68-1.25-.65-1.94s.8.21.8.21a2,2,0,0,1,0-1.52c.38-.6.9,1.42.9,1.42s.32.07.1-.9.36-1.09.46-1.08.35.9.35.9.48-1.65.79-1.29-.19,1.47-.19,1.47.58-.38.57,0-.75,1.3-.75,1.3-.3.52.43,0,.75-.27.76-.15-1.4,1.91-1.44,2.12.18.17.6-.36.76-.16.72,0a5.59,5.59,0,0,1-1.36,1.66c-.56.37-1.22.74-1.11.88a16,16,0,0,0,1.79.83Z"/><path class="cls-6" d="M31.68,33.75s-1.42.55-1.72.42-2-2.8-2.38-2.9-.11.63-.11.63-1-1.48-1.83-1.47.05.86.05.86-1.43-1.22-2-.88,1,1.37,1,1.37-.7,0-.68.53,2.2.78,2.2.78-1.26.21-1.06.62a3.52,3.52,0,0,0,2.45.77,4.1,4.1,0,0,1,2,0s-2.87.67-3.57.3-1.95-1.52-2.57-1.35.38.79.38.79a4.15,4.15,0,0,0-2-.09c-1,.27,1.83.65,1.83.65s-1.31.16-.84.47,1.84.08,1.84.08-.36.78-1.57.37-2.39-.59-2.73-.26,1.68.83,1.68.83a5.07,5.07,0,0,0-3.34,1,.33.33,0,0,0,.19.55,13.12,13.12,0,0,0,2.77-.15s-1.4,1.46-1.13,1.66c.9.65,2.3-.95,3.76-1.81s1.53-.56,1.16-.31-2.26,2.19-2,3.29,2.28-1.31,2.44-1.72c0,0-.24.95.14,1.23s.82-1,1.22-2.36a4.76,4.76,0,0,1,2.46-2.58A3.85,3.85,0,0,1,29,37.19c-.76,1.22-.77,1.18-.84,1.85s.73-.16.73-.16a2.18,2.18,0,0,0-.21,1.46c.25.58,1-1.34,1-1.34s.27,0,0,.86.14,1,.23,1,.41-.83.41-.83.16,1.53.45,1.2,0-1.35,0-1.35.42.36.46,0a3.25,3.25,0,0,0-.41-1.22s-.18-.5.33,0,.55.29.56.17-.83-1.84-.83-2,.16-.15.42.37.57.2.56,0A5,5,0,0,0,31,35.61c-.4-.4-.89-.83-.78-1a12.32,12.32,0,0,1,1.55-.58Z"/><path class="cls-8" d="M47.84,30.53c-4.09-.36-8-1.72-12.26-1-3.69.57-7.21,3.18-5.95,7.26,1.18,3.8,6.52,5.7,10,6.16s8.35,1,11.21-1.69a7.51,7.51,0,0,0,1.92-7C51.89,31.12,50.67,30.78,47.84,30.53Z"/><path class="cls-9" d="M49.27,36.79A17.7,17.7,0,0,1,40.7,38.1a21,21,0,0,1-4.43-.79c-.93-.28-2.15-1.14-3.16-.92C31.77,36.69,32,38,33,38.74a11.43,11.43,0,0,0,3.66,1.6,25.58,25.58,0,0,0,9,1.4A8,8,0,0,0,51,39.26C52.55,37.46,51.26,35.79,49.27,36.79Z"/><path class="cls-9" d="M35.2,31.05a1.23,1.23,0,0,0-.76.15c-.19.89.9,1.3,1.65,1.13C36.49,31.61,35.91,31.16,35.2,31.05Z"/><path class="cls-9" d="M39.63,34.31c-1.18.33-.52,1.69.52,1.31S40.46,34.08,39.63,34.31Z"/><path class="cls-9" d="M45.75,32c-.34,0-1.14.53-.88,1,.17.33,1.2.16,1.52.14a2.86,2.86,0,0,0,0-1.13,1,1,0,0,0-1,0Z"/><path class="cls-9" d="M49.66,33.92c-1-.24-1.39.68-.38,1s1.16-.62.38-1Z"/><path class="cls-9" d="M32.59,33.53c-.67,0-1.41.52-1.28,1.28.77.41,1.8,0,1.52-1C32.67,33.78,32.76,33.52,32.59,33.53Z"/><path class="cls-9" d="M40.54,30.79a2.22,2.22,0,0,0,0,.63c.54.24,1.57.4,1.42-.5S40.69,30,40.54,30.79Z"/><path class="cls-9" d="M44.45,35.74c-.61,0-.8.45-.63,1,1.35.78,1.75-1.24.24-.89Z"/><path class="cls-9" d="M35.72,35c-.76.31-.19,1.33.53,1s-.09-1.17-.66-.92Z"/><path class="cls-9" d="M38.07,31.31a.78.78,0,0,0-.5.89c1.81,1,1.78-1.92.37-1Z"/><path class="cls-6" d="M69.24,40.53a4.47,4.47,0,0,0,1.41,0c.26-.15,1.75-2.25,2.09-2.38s.06.39.06.39.81-1.11,1.47-1.24-.06.54-.06.54,1.11-1,1.53-.87S75,38,75,38s.54-.11.52.22-1.74.89-1.74.89,1-.09.83.22a4.09,4.09,0,0,1-2,1,4.73,4.73,0,0,0-1.67.38,10,10,0,0,0,2.93-.45c.59-.39,1.59-1.38,2.07-1.38s-.3.59-.3.59A4.33,4.33,0,0,1,77.24,39c.8,0-1.44.76-1.44.76s1-.13.67.17a3.88,3.88,0,0,1-1.47.4s.28.48,1.26,0,1.88-.84,2.16-.68-1.31.88-1.31.88a4.23,4.23,0,0,1,2.68.08c.15.09.09.31-.12.42a13.37,13.37,0,0,1-2.23.43s1.18.79,1,1c-.72.68-1.92-.25-3.12-.59s-1.27-.11-1,0S76.19,43,76,43.91s-2-.54-2.07-.83c0,0,.18.69-.16,1s-.67-.64-1-1.57a2.48,2.48,0,0,0-1.95-1.42,2,2,0,0,0,.39,1.44c.58.79.59.75.62,1.26s-.63,0-.63,0A1.38,1.38,0,0,1,71.33,45c-.26.54-.77-.87-.77-.87s-.23,0,0,.68-.21.9-.29.91-.3-.61-.3-.61-.29,1.35-.53,1.13.09-1.14.09-1.14-.41.4-.42.09a3.78,3.78,0,0,1,.49-1.09s.2-.43-.3.11-.52.35-.53.26.92-1.63.94-1.78-.13-.08-.4.37-.53.28-.51.16a6.08,6.08,0,0,1,.89-1.43c.38-.37.83-.78.74-.84a8.59,8.59,0,0,0-1.26-.12Z"/><path class="cls-6" d="M62.77,39.39a6.21,6.21,0,0,0,1.69.54c.32-.08,2.32-2,2.71-2s0,.5,0,.5,1.06-1,1.77-.87-.17.62-.17.62,1.31-.7,1.69-.38-.95.87-.95.87.55.1.47.46-1.9.35-1.9.35,1,.28.79.57a3.48,3.48,0,0,1-2.21.37,4.7,4.7,0,0,0-1.89-.17s2.55.77,3.21.54,1.81-1,2.27-.79-.4.54-.4.54a3.29,3.29,0,0,1,1.55.09c.69.27-1.46.34-1.46.34s1,.21.58.4a3.16,3.16,0,0,1-1.45-.06s.18.61,1.18.38,1.83-.29,2,0-1.31.5-1.31.5a3.27,3.27,0,0,1,2.21.84.25.25,0,0,1-.18.37,9.47,9.47,0,0,1-1.94-.18s.83,1.08.61,1.22c-.74.47-1.44-.15-2.47-.83s-1-.46-.68-.25,1.15,1.11.82,2-1.71-1-1.78-1.35c0,0,.06.75-.32,1S66.68,44,66.53,43a3.5,3.5,0,0,0-1.9-2.25,2.56,2.56,0,0,0,.25,1.79c.51,1,.53,1,.48,1.57s-.68-.15-.68-.15a1.53,1.53,0,0,1-.05,1.24c-.35.49-.73-1.15-.73-1.15s-.26,0-.12.74-.34.9-.42.89-.27-.73-.27-.73-.46,1.36-.72,1.06.22-1.19.22-1.19-.52.32-.49,0,.68-1.07.68-1.07.28-.42-.36,0-.66.24-.65.14,1.26-1.58,1.3-1.75-.15-.13-.52.3-.67.15-.63,0A5,5,0,0,1,63.15,41c.49-.31,1.06-.63,1-.74a13.43,13.43,0,0,0-1.5-.64Z"/></g></g></g></svg>