<svg xmlns="http://www.w3.org/2000/svg" viewBox="0 0 77.32 112.88"><defs><style>.cls-1{fill:#51872e;}.cls-2{opacity:0.3;}.cls-3{fill:#d9e021;}.cls-4{fill:#542c12;}.cls-5{fill:#4d4487;}.cls-6{fill:#715399;}.cls-7{opacity:0.5;}.cls-8{fill:#191144;}.cls-9{opacity:0.4;}.cls-10{fill:#965ead;}.cls-11{fill:#662d91;}.cls-12{fill:#aa5fa8;}.cls-13{opacity:0.1;}.cls-14{fill:#f9d006;}.cls-15{opacity:0.2;}.cls-16{fill:#fff;}.cls-17{opacity:0.7;}.cls-18{fill:#72166a;}.cls-19{fill:#4f1246;}</style></defs><g id="Layer_2" data-name="Layer 2"><g id="_ÎÓÈ_1" data-name="—ÎÓÈ_1"><path class="cls-1" d="M33.55,18.62a1.09,1.09,0,0,0,0,.18,1.72,1.72,0,0,0,.11.29Z"/><path class="cls-1" d="M40.69,29c-1.1-2.16-3.55-3.23-5.16-5a7.89,7.89,0,0,1-2-5.17A3.19,3.19,0,0,1,34,16a19.94,19.94,0,0,0,1.75-2.75A5,5,0,0,0,35.29,9a8.69,8.69,0,0,0-3.14-3,13.84,13.84,0,0,0-10.5-1.51c-.15,0-.31.09-.36.23a.19.19,0,0,0,.13.24l-.94.25c0,.25.05.5.07.75l-.65.31A1.25,1.25,0,0,1,20,7.8a2.43,2.43,0,0,1,.83,1.51L20,9.05a8.37,8.37,0,0,0-4.26-.58A8.42,8.42,0,0,0,13.36,9.6L7.25,13.3a.74.74,0,0,1-.78.89l1.42.7-.61.49a1.28,1.28,0,0,0,.8.76,1.4,1.4,0,0,0,.52,1.54,3.91,3.91,0,0,0,1.61.65c-.61,1-2.16.8-3.21,1.37s-1.51,2-1.87,3.18A27.05,27.05,0,0,1,0,32.3a1.29,1.29,0,0,1,1.44.22c.41.31.73.74,1.14,1a6.07,6.07,0,0,0,2.53.8,13.49,13.49,0,0,1,5.08,2.13,5.9,5.9,0,0,0,8.19.15,13.33,13.33,0,0,0,.53,7.68c.2.55.36,1.33-.17,1.57a51.1,51.1,0,0,0,6.81-4.36A.68.68,0,0,1,26,42c1.26.27,2.52-1.77,3.5-.94a1.44,1.44,0,0,1,.41.73,8.45,8.45,0,0,1,0,4.88,2.18,2.18,0,0,1,2.22-.47,63,63,0,0,0,6.13-5.76c-.16.12,0,.4.23.38s.33-.21.43-.38a17.39,17.39,0,0,0,1.84-5C41.3,33.31,41.68,31,40.69,29Z"/><g class="cls-2"><path class="cls-3" d="M38.91,29.69A6.06,6.06,0,0,0,38,28.1a19.28,19.28,0,0,0-4.61-4.58.51.51,0,0,0-.34-.14c-.25,0-.36.31-.39.55a10.58,10.58,0,0,0,1,5.21c1.14,2.94,2.42,6,2,9.13a9.8,9.8,0,0,0-1.66-5,20.64,20.64,0,0,1-1.36,8.08c.14-1.89.29-3.78.43-5.67a24,24,0,0,1,.27-2.54,5.6,5.6,0,0,0,.16-1.23,6.78,6.78,0,0,0-.92-2.54,8.71,8.71,0,0,1-.41-6.05c-2.93,1.34-4.58,4.43-6,7.31L21.13,40.8A26.3,26.3,0,0,1,24,33.31L26,29.19a15.25,15.25,0,0,1,2.55-4A16,16,0,0,1,31,23.37a2.22,2.22,0,0,0-1.59-.23l-4.94.5a5.86,5.86,0,0,0-1.5.29,5.75,5.75,0,0,0-1.44,1,5.82,5.82,0,0,0-1.93,2.23,7.59,7.59,0,0,0-.35,1.57A10.77,10.77,0,0,1,17.39,33c.45-1.88.91-3.76,1.36-5.64a3,3,0,0,1,.54-1.29c.45-.51,1.22-.69,1.59-1.26A11.33,11.33,0,0,0,17,27.3a10.74,10.74,0,0,1-2.21,1.95,6.23,6.23,0,0,1-1.5.53,28.36,28.36,0,0,1-9.58.73c1.86-.53,3.84-.42,5.74-.8a21.4,21.4,0,0,0,2.22-.6,9.56,9.56,0,0,0,4.07-2,8.5,8.5,0,0,0-4-.61c-1.36,0-2.89-.34-3.62-1.49,2.18,1.24,5.06.09,7.38,1a2.07,2.07,0,0,0,.9.26,1.83,1.83,0,0,0,.84-.38,16,16,0,0,1,4.9-2.5c2.6-.7,5.44-.3,8-1.29a28.12,28.12,0,0,0-4-1.23l1.69.63c-3.86-1.48-8.24-.27-12.29-1.08a26.09,26.09,0,0,0-2.6-.54,6.83,6.83,0,0,0-6.42,3.14,19.88,19.88,0,0,0-1.61,4.22,6.73,6.73,0,0,1-2.49,3.67c1.71,2.44,5.65,1.87,7.92,3.79.66.56,1.19,1.33,2,1.59a3.55,3.55,0,0,0,2-.16,26,26,0,0,0,3.9-1.52,2.52,2.52,0,0,1,1.12-.37.86.86,0,0,1,.87.65,1.34,1.34,0,0,1-.2.69A9.3,9.3,0,0,0,20,43.7l3.68-2.78a11.18,11.18,0,0,0,2-1.84c.73-.93,1.19-2.13,2.22-2.71a1,1,0,0,1,.95-.11,1.21,1.21,0,0,1,.39.42,12.29,12.29,0,0,1,1.81,7.75l4.69-4.16a11.37,11.37,0,0,0,1.89-2c1.22-1.74,1.38-4,1.46-6.11A7,7,0,0,0,38.91,29.69Z"/></g><g class="cls-2"><path class="cls-3" d="M34.25,14.93a6,6,0,0,0-.09-6.08,8.37,8.37,0,0,0-5-3.65,14.09,14.09,0,0,0-6.33-.07c0,.28,0,.56,0,.84L21.91,6a5.26,5.26,0,0,0,.21,3,1.29,1.29,0,0,1,.13.83.79.79,0,0,1-.89.42,3.29,3.29,0,0,1-1-.43,6.16,6.16,0,0,0-4.66-.31A11,11,0,0,0,11.66,12a8.56,8.56,0,0,1-1.39,1.16,7.38,7.38,0,0,1-1.39.57.94.94,0,0,1,.28,1.83l1.2.79q.56.38,1.14.72a16,16,0,0,0,3.25,1.51,15.48,15.48,0,0,0,4.43.81c1.58.05,3.16-.15,4.74-.1a29,29,0,0,1,4.9.76A22.81,22.81,0,0,0,21.76,17a9.8,9.8,0,0,1-2.71-.89c-.43-.25-.82-.59-1.27-.83-1.53-.82-3.45-.4-5.07-1a12.06,12.06,0,0,1,6.67,1.35c.55.3,1.4.55,1.66,0,.15-.35-.09-.73-.32-1-.79-1.06-1.6-2.1-2.43-3.13a4.27,4.27,0,0,1,3.22,2.69A7.69,7.69,0,0,0,22,15.25a3.22,3.22,0,0,0,1.25,1.09c2.06,1.14,4.68,1.55,6,3.47a9.15,9.15,0,0,1,.25-2.9,6.6,6.6,0,0,0,.31-1.64,4.2,4.2,0,0,0-.33-1.43,9.61,9.61,0,0,0-1.79-3.24c-.64-.7-1.43-1.25-2.06-1.95a3,3,0,0,1-.9-2.57c.68,2.23,3.67,3.11,4.36,5.34a3.57,3.57,0,0,0-.7-4.77,2.22,2.22,0,0,1,2.08,1.4,3.4,3.4,0,0,1-.11,2.6,4.28,4.28,0,0,0-.45,1.22,6.24,6.24,0,0,0,.54,2,5.65,5.65,0,0,1-.19,2.73,5.19,5.19,0,0,0-.13,2.73,1.84,1.84,0,0,0,2.1,1.34l0-.07a5.69,5.69,0,0,1-.1-2.39C32.42,16.91,33.55,16,34.25,14.93Z"/></g><path class="cls-4" d="M71.07,20.48c-1,.47-1.2,1.72-1.79,2.62A3.5,3.5,0,0,1,66,24.62a3.3,3.3,0,0,1-1.18-.4,3.06,3.06,0,0,0,.32-3.39,1.49,1.49,0,0,0-1.22-.77,1.46,1.46,0,0,0-1.16.84A2.89,2.89,0,0,0,63,23.8a3.73,3.73,0,0,0,.32.36,4.81,4.81,0,0,1-4.2.74,4.18,4.18,0,0,1-.79-.34,4.06,4.06,0,0,0-.24-5.09,2.39,2.39,0,0,0-2.84-.53,2.34,2.34,0,0,0-.93,1.41,4.1,4.1,0,0,0,1.36,3.88,5.46,5.46,0,0,0,.48.36,4.75,4.75,0,0,1-1.73.37,5.16,5.16,0,0,1-3.23-1,5.69,5.69,0,0,1-1.49-1.85,16.12,16.12,0,0,1-1.39-5.41c-.2-1.52-.41-3-.61-4.56A3.88,3.88,0,0,1,48,9.59c.3-.5.83-1.13.42-1.56s-1,0-1.37.38A40,40,0,0,0,52.62.81a.66.66,0,0,0,.12-.47C52.67.05,52.29,0,52,0L49.14.05a6.88,6.88,0,0,0-1.36.12A4.41,4.41,0,0,0,45,2.58a8.92,8.92,0,0,0-.69,2.08,10.19,10.19,0,0,0-.78,3.61,21.65,21.65,0,0,1-2.09,7.22,11,11,0,0,1-2.59,3.62,5.67,5.67,0,0,1-4.11,1.48c-.3,0-.64-.06-.85.15a.62.62,0,0,0,.18.88,1.53,1.53,0,0,0,1,.18,9,9,0,0,0,7.71-5.53c-1.43,3.54,1,7.47.81,11.29a1.35,1.35,0,0,1-.31.92c-.41.4-1.07.22-1.61,0-2.56-.84-5.62-.87-7.69.86.85.44,1.84-.08,2.73-.42a6.94,6.94,0,0,1,5.59.3c.56.29,1.14.8,1,1.41a1.48,1.48,0,0,1-.44.67c-2,2-5.39,2.69-6.29,5.34.45.27,1,0,1.44-.31,2.55-1.69,5.24-3.53,6.44-6.34,1.34.46,1.88,2,2.24,3.39.64,2.42,1.27,4.84,1.91,7.26a8.07,8.07,0,0,0-.12-5.86,21.6,21.6,0,0,0-3-5.16,5,5,0,0,1,3.75.93A28.43,28.43,0,0,1,53.8,34a7.15,7.15,0,0,0,3.09,2,22.43,22.43,0,0,0-9.66-7.12,3,3,0,0,1-1.11-.59,2.83,2.83,0,0,1-.61-1.21c-.31-1-.61-1.92-.92-2.88a15.4,15.4,0,0,1-.78-3.32A13.8,13.8,0,0,1,44,17.91a47.73,47.73,0,0,1,1.83-7.64c.29,2,.36,4.05.6,6.07A16.66,16.66,0,0,0,48,22.18a8.2,8.2,0,0,0,4.39,4,5.55,5.55,0,0,0,5.2-.82,9.31,9.31,0,0,0,2,.49,6.21,6.21,0,0,0,4.47-.9l.1-.09a4.88,4.88,0,0,0,1.33.56,5,5,0,0,0,4.36-.81A3.71,3.71,0,0,0,71.07,20.48Zm-15-.16a.59.59,0,0,1,.33-.06c1.3.08,2,1.83,1.39,3a2.65,2.65,0,0,1-.44.56A4.85,4.85,0,0,1,55.86,21C55.83,20.75,55.84,20.45,56.05,20.32Zm7.15,2.06a1.1,1.1,0,0,1,0-.92c.32-.55,1.28-.27,1.47.33a1.87,1.87,0,0,1-.57,1.73L64,23.6A3.3,3.3,0,0,1,63.2,22.38Z"/><path class="cls-5" d="M71.74,57.69c2-.7,3.84-1.79,4.43-3.48,1.75-5,.46-11.17-5.17-12.71.63-6.25-5.85-16.29-15.16-9.63-2.39,1.33-1.62,4.44-1.37,6.63a9.14,9.14,0,0,0-3.85-3.57s-8.23-2.45-9.5,6.43a15.6,15.6,0,0,0-.25,4,6.94,6.94,0,0,0-.88-.62c1.42-3.15-.11-9.12-.11-9.12-1-2.6-3.17-3.39-5.63-3,.75-1.88.74-3.72-.43-5.1C34,24.37,25.57,25,23.38,26.1,19.65,28,16,32.17,17.62,36.37,12,39.79,9.78,51.2,15.83,54.92c-2.62,4.74-1.93,13.59,3.63,14.94-4.47,5.25.23,16.72,9,13,3.68-1.57,4.78-4.89,4.35-8.16a7,7,0,0,0,.95.94,13.35,13.35,0,0,0-1.59,6.51c-.27.07-.53.14-.81.24-6.08,1.21-6.77,21.12,4.9,20.17a6.3,6.3,0,0,0,1.85-.5c-1.64,4.24-.88,9.3,4.27,10.59,7,1.75,11.08-5.88,10.33-11.46a9.78,9.78,0,0,0,4.06-.48c4.07-1.32,5.64-4.8,5.47-8.44C68.05,93,70.39,80.64,67,75.48a7.39,7.39,0,0,0,6.23-.83C80.25,70.72,77.21,61.16,71.74,57.69ZM45.88,95.82a6.48,6.48,0,0,0-3.49.9,12.72,12.72,0,0,0,.39-3.92,11.34,11.34,0,0,0,2-1,13.87,13.87,0,0,0,1.13,4Z"/><path class="cls-6" d="M24,41c4.51-.54,8.71-5.24,9.94-9.32l-.45,2.14c1.48-.79,2-4,1.43-5.43-.84-2.26-3.42-2.88-5.57-3C25,25.21,20,27.84,18.35,32,16.83,35.86,19.22,41.6,24,41Z"/><path class="cls-6" d="M48.55,52.69c5.51.28,7.87-3.93,7.81-8.29a7.9,7.9,0,0,0,8.1,2.93c4.91-1.06,6.55-6.09,5.28-10.44-1.5-5.18-5.22-7.42-10.42-6.72-1.94,1.17-3.82,2.07-4.58,4.45a10.69,10.69,0,0,0-.4,3.41,6.45,6.45,0,0,0-4.88-2.81C41.8,32,35.92,52,48.55,52.69Z"/><path class="cls-6" d="M59.19,30.19l.13,0,.48-.29Z"/><path class="cls-6" d="M76.22,63.85c-2.07-4.42-5.77-8-9.8-6.07l.26-.2c-4.43-1.16-5.63,6.82-5.17,9.63.71,4.29,5.52,8,9.92,7.37S78,67.56,76.22,63.85Z"/><path class="cls-6" d="M43.27,91.1c4.5-1.41,5.59-7.23,4.79-11.33A8.93,8.93,0,0,0,43,73.6c2.58-2.86,2.62-7.69.58-10.82-2.49-3.83-7.09-4-10.21-1.43-3.58.87-3.17,7.82-2.1,10.23A6.8,6.8,0,0,0,35,75a9.31,9.31,0,0,0-1.25,2.5,14.5,14.5,0,0,0-.35,6C34.16,87.92,38.34,92.64,43.27,91.1ZM36.7,75.47Z"/><path class="cls-6" d="M60,72.11c-3.92-.13-5.22,3-6.73,6.13l1.22-2.76c-3,2.82-2.06,9.49,0,12.54,3,4.5,9.51,6.09,12.17.39,1.76-3.76,1.9-9.67-.53-13.12A7.55,7.55,0,0,0,60,72.11Z"/><path class="cls-6" d="M47.8,97.11c-.52-.83-3.52.09-4.38.4a7.88,7.88,0,0,0-4.51,4.06c-1.56,3.42-.56,8.55,3.14,10.16,4,1.74,7.66-2.36,8.88-5.79C52,103.05,51.29,97.6,47.8,97.11Z"/><g class="cls-7"><path class="cls-8" d="M70.51,57.45c-.74-.15-1.35-.28-1.91-.44,0,0,0-.1,0-.15l-.14.11a8.52,8.52,0,0,1-3.18-1.76c-1.6-1.3-3.15-2.93-3.51-5.05,0-.12,0-.24,0-.36a7.56,7.56,0,0,0,.36,2.73c.66,2.07,3,6.68,5.52,5.26A5.55,5.55,0,0,1,65,59.85c-1,.31-6.77-.54-6,1a9.26,9.26,0,0,0,2.86,1.62,12.15,12.15,0,0,0-.48,2.78A11.47,11.47,0,0,0,63,71.08c.5.7,5.35,5.64,4.77,2.46-.36-1.93-2.84-4.45-3.71-6.32-.45-1-.67-3.4-1.06-4.87a6.9,6.9,0,0,0,2.86-1,6,6,0,0,0,2.42-3.08c1,2.06,4.54,4.38,6.45,3.06C74.39,59.78,72,57.76,70.51,57.45Z"/></g><g class="cls-9"><path class="cls-8" d="M61.24,82.29c-.57-4.1,1.79-7.56-1.33-10.74-.4-2.19-1.19-4.52-2.79-5.89,4.64-3,5-8.29,2.08-12.68a7.94,7.94,0,0,0-6.44-3.51,9.14,9.14,0,0,0-2.35.19c3.21.2,5.76,2.32,7.68,5.24,2.38,3.62.15,7.15-1.26,10.54a5.08,5.08,0,0,0-2.7-1c-2.64-.18-6.75.79-7.8,3.52,2-1.61,4.21-2,7.12-1.82A6.1,6.1,0,0,1,58.26,69c-.16,1.58,2.28,4.16,2.5,6,.32,2.71-1,4.22-2.1,6.42-.2.07-.42.17-.7.29a17.87,17.87,0,0,1-6.33,1.76c2.11-1.46.58-2.75-.87-4.3-2.61-2.8-5.12-6.18-4.67-10.27a3.71,3.71,0,0,1,.24-.94,10.62,10.62,0,0,0-1.53,1.54l-2.91-9.95a6.7,6.7,0,0,0,.35,5.81c.41.8,1.65,1.91,1.76,2.73s-.84,1.74-1.21,2.4c-1.46,2.66-1.89,1.65-4.57,1.75a4.94,4.94,0,0,0-4.51,4.25c.79-.49,1.35-1.69,2.37-2.26a6.14,6.14,0,0,1,3.9-.69c2.92.39,4.59,3.25,4.52,6.06-.17,7.18-10.7,3.79-10.82-1.88a5.82,5.82,0,0,0-1.28,4.2c1.09.3,2.23-.19,3.26.28,1.34.63,2.16,2.56,2.88,3.75.29.48.61.94.91,1.4,0,2,.63,4,.61,6.09,0,2.24-.87,4.25-1,6.38,1.95-1.36,3-4.13,3.18-6.45,0-.14,0-.28,0-.44,1-.8,2.21-1.87,3-.64.56.86.41,2.13.72,3.18a4.44,4.44,0,0,0-1.9,1.06c-2.44,1-5.12,3.83-4.47,5.69,1.84-1.28,3.13-4.14,5.19-5.06,2.44-1.08,3.85,1.92,4.44,3.86a14.05,14.05,0,0,1,.59,6c-.47,2.79-2.56,3.41-4.4,4.91,5.28,1.33,6.2-7.6,6.58-10.8.41-3.4-.19-3.43-2.92-5a6,6,0,0,0-1.58-.64c.4-2.68-.78-5.83-.18-8.46.5-2.2,2.35-2.37,4-3.35a31.5,31.5,0,0,0,3.82,1.13,13.73,13.73,0,0,1,3.21.08,5.36,5.36,0,0,1,2.18,1.84,3,3,0,0,1,.17.37,14.09,14.09,0,0,1,1,5.12C63.92,88.34,61.79,86.17,61.24,82.29Zm-2.05-11.4-.84-1.8a23.37,23.37,0,0,1,1.45,2.35C59.61,71.26,59.41,71.07,59.19,70.89ZM39.53,87.49l.07.12a4.17,4.17,0,0,0,.08.59Z"/></g><path class="cls-10" d="M26.75,42.43a6.56,6.56,0,0,0-8.64-5.49c-3.37-.84-5.5,8.53-5.19,10.62.71,4.8,4,8.36,8.77,5.59C25.49,50.93,27.14,46.78,26.75,42.43Z"/><path class="cls-10" d="M41.28,47.17c-8-8.39-19.37,4-13.45,12.63,3.22,4.7,9.09,4.86,12.38.23A14.16,14.16,0,0,0,42.7,53.6c.34-2.69-.61-4.16-1.88-6.43Z"/><path class="cls-10" d="M31.15,72.39c-1.69-4.13-5.29-5.57-9-4.3a1.75,1.75,0,0,0-1.18.5,7.08,7.08,0,0,0-.84.47l.51-.14c-1.58,1.94-2,6.69-1.7,8.09.84,4,4.38,6.88,8.38,5.17A7.56,7.56,0,0,0,31.15,72.39Z"/><path class="cls-10" d="M67.65,48.56c-1.89-3.85-7-5.47-10.26-2.87-3.54,1.18-3.71,7.8-2.38,10.51,1.83,3.74,6.86,6,10.77,3.73S69.38,52.1,67.65,48.56Z"/><path class="cls-10" d="M57.35,82.82c-2.06-1.19-3.6-1.2-5.18-.47-2.09-.4-4.81,2.15-5.54,3.84a12.11,12.11,0,0,0-.8,6.43,8.78,8.78,0,0,0,9.91,7.65c4.86-.74,6.56-7.22,5.75-11.32A9.56,9.56,0,0,0,57.35,82.82Z"/><path class="cls-10" d="M33.53,82.43c-1.34-.39-3.41.9-4.07,1.77a11,11,0,0,0-2.11,6.43c-.23,4.47,1.36,11,6.66,11.72s8.11-5.87,8.35-10.26c.14-2.69-1.13-4.81-2.88-6.69C38.15,84,35.76,81.44,33.53,82.43Z"/><path class="cls-8" d="M68.67,56.51c0,.12,0,.23,0,.35l0,0Z"/><g class="cls-9"><path class="cls-8" d="M44.9,52.65c-.16-1.08.29-1.78.23-2.87A8,8,0,0,0,44,47a14.27,14.27,0,0,1-1.23-2.88c-.24-.91-.1-2.58-1.32-2.72a.55.55,0,0,0-.26,0,2.44,2.44,0,0,1,0,.27c-.08,1-.15,2-.17,2.95.19,1,.45,1.87.51,2.07a2.38,2.38,0,0,1-.05,1.84,10,10,0,0,0,.68,1.75c1.74,3.48-.82,7.34-2.31,10.6,1.84,1,4.31-.89,5.13-2.47C46.19,56.08,45.26,55,44.9,52.65Z"/><path class="cls-8" d="M41,44.65c-.28-1.38-.44-3,.18-3.22.12-2.15-.25-4.92-1.89-6.4a15.91,15.91,0,0,0-3-1.71,14.35,14.35,0,0,0-2.51-1.59c-4.21-1.29-8.11,3.37-8.6,7.08h0c-1.35,2.39-.86,4.22-1.31,6.83a6,6,0,0,1-1.72,3.53c-.75.75-2.1,1.41-2,2.6,3.95-2.54,7,4.91,7.46,7.65.72,4.55-.73,6.91-4.39,9.49,1.57,1,3.39,1,4.78,2.52.91,1,2.4,3.86,3.85,3.84.19-2.45,4.27-12.71-1.55-11.89,2.14-2,2.16-4.39,1.68-7.1a7.43,7.43,0,0,0-1.56-3.88c-.79-.8-2-1.17-2.82-1.88.44-2,3.92-.35,5.21-.1a10.28,10.28,0,0,0,6-.15,4.45,4.45,0,0,0,2.64-1.71A12.4,12.4,0,0,1,41,44.65Z"/></g><g class="cls-7"><path class="cls-11" d="M40.36,47.32c1.26,3.18,1.1,7.58-.9,10.41-3.1,4.39-7,3.62-10.29.24-.55,2.33,1.68,4.09,3.69,4.55,2.4.54,4.32-.44,6-2.2,3.61-3.82,4.53-8,1.84-12.53Z"/><path class="cls-11" d="M65.73,57.06l0-.09c-1.61,1.85-3.59,3-6.08,2.62a5.55,5.55,0,0,0,6.14,0C68.49,57.58,66.52,56.1,65.73,57.06Z"/><path class="cls-11" d="M26.59,68.44h.46c-.85.88,1.46,3.48,1.9,4.52a6.73,6.73,0,0,1,.37,4.36c-.8,3-4.8,5.42-7.73,3.71,3.34,2.82,8.6.73,9.91-3.25A7.53,7.53,0,0,0,31,72C30.48,71.07,27.64,68,26.59,68.44Z"/></g><path class="cls-12" d="M27.15,51.26l1.28.2c-4.82-2-8.83-.53-11.63,3.67-2.51,3.75-2.86,10.58,1.45,13.33C23,71.51,28.11,67.55,29.89,63,31.14,59.8,31.13,52.66,27.15,51.26Z"/><path class="cls-12" d="M35,32.59a8.91,8.91,0,0,0-6.6,1.87,9.61,9.61,0,0,0-2.56,12.25c5.77,9.63,20.51-3.53,13.59-11.3C38.71,34,36.22,32.82,35,32.59Z"/><path class="cls-12" d="M63,44.72S59.8,49,64.22,54.64c2.58,3.28,8.28,3.87,10.88.11C80.36,47.14,67.94,35.31,63,44.72Z"/><path class="cls-12" d="M55.43,66.67c3.1-2.24,4.68-7.06,3.3-10.54a10.36,10.36,0,0,0-5.35-5.41c-1.9-.85-4.75,0-4.75,0-2.28-.89-5.08,2.78-5.68,4.6a10.62,10.62,0,0,0-.3,6A9.14,9.14,0,0,0,47.06,67a9.82,9.82,0,0,0-2.61,7.35c.59,4.61,3.43,9.27,8.54,9.57,4.81.28,8.24-4.9,7.55-9.42C60.18,72.09,58.06,68.71,55.43,66.67Z"/><g class="cls-13"><path class="cls-14" d="M20.69,34.94c2.38.43,5.4-2.44,6.69-4.06.72-.91,1.76-2.21,1.49-3.45a1.91,1.91,0,0,0-1.06-1.37h0a2.06,2.06,0,0,0-1.67,0h.74a9.76,9.76,0,0,0-5.48,2.59C20,30,17,34.27,20.69,34.94Z"/><path class="cls-14" d="M22.71,40.59c-.32-3-2.86-3.3-5-2.43l.73-.48c-5.37.33-6.54,13.43-.53,10.1C19.91,46.69,23,43.05,22.71,40.59Z"/><path class="cls-14" d="M29.19,43.83c2.49,0,5-3.65,5.67-5.69s.58-6-2.61-4.89C27.91,33.42,23.25,43.79,29.19,43.83Z"/><path class="cls-14" d="M22.58,62.3C24.35,60.59,26,57,25.81,54.48c-.32-3.63-3.35-3.3-5.53-1.76l.19-.19C14,54.23,16.7,68,22.58,62.3Z"/><path class="cls-14" d="M33.24,64.7c-1.18-.11-1.71.26-1.45,1.4-.22,2.25.28,4.77,2.37,5.94,2.63,1.47,5.48-1.89,6.37-4.21.3-.8.89-3,0-3.64s-2.52.52-3.39.74C35.55,65.34,34.7,64.84,33.24,64.7Z"/><path class="cls-14" d="M41.74,74.11l-.12,0h.12Z"/><path class="cls-14" d="M36.11,75.19c-.78.64-3.66,5-1.86,5.73,1.1.46,4.89-2.25,5.74-2.83,1.3-.89,3.89-3.33,1.7-4C39.72,74.1,37.74,73.85,36.11,75.19Z"/><path class="cls-14" d="M41.62,74.09a4.67,4.67,0,0,0-.8-.14Z"/><path class="cls-14" d="M24.17,75.6c-1.2-1-3.85-5.51-4.52-2.53,0,0-.6,3,.5,5s3.8,3.58,6,2.28C29.27,78.49,25.59,76.85,24.17,75.6Z"/><path class="cls-14" d="M46.87,62.1c2.34.19,4.74-4.11,5.29-6,.68-2.4.1-6.54-3.38-5.67C43.64,52.44,40.24,61.57,46.87,62.1Z"/><path class="cls-14" d="M32.87,54.82c.47,1.85.66,5.2,3.21,4.12,2-.85,3.63-4,3.42-6.1-.29-2.88-1.64-3.49-3.69-2.38C33.44,50.85,32.27,52.53,32.87,54.82Z"/><path class="cls-14" d="M46.71,44.72c4.46,2.3,6.77-8,2-9.25-1.59-1.93-4.31,1.61-4.68,3A5.38,5.38,0,0,0,46.71,44.72Z"/><path class="cls-14" d="M59.49,44.42l.24.1c-2.36,0-7.29,4.91-2,7.08,2.47,1,2.69-1.17,3.18-3.2C61.26,46.91,62.33,43.46,59.49,44.42Z"/><path class="cls-14" d="M66.7,51.65c1.31-.72.75-4.33.75-5.55s-.76-4.89-2.25-3.22c-1,.2-2.28,3.45-2.32,4.6C62.83,48.91,64.7,52.75,66.7,51.65Z"/><path class="cls-14" d="M64.25,36.61c-.29-4-7.81-7-7.36-1.22L57.35,34C56.1,37.28,64.61,41.45,64.25,36.61Z"/><path class="cls-14" d="M53.22,66.44c-2.66-1.27-4.86,0-6.1,2.09A7.74,7.74,0,0,0,46,75c.42,1.1,1.88,3.54,3.38,2.92,1.18-.48,1.51-3.55,2.37-4.51,1.09-1.23,3.28-1.26,4-2.77C56.56,68.89,54.68,67.15,53.22,66.44Z"/><path class="cls-14" d="M52.36,84.44a3.24,3.24,0,0,0-3.65.47c-1.88,1.18-2.16,4.58-1.89,6.49.31,2.2,3.59,7.58,6.23,4.6,1-1.1.21-2.66,0-3.91A9.46,9.46,0,0,1,53.45,88C53.84,86.36,54.1,85.25,52.36,84.44Z"/><path class="cls-14" d="M33.11,83.19l.37,0c-3.34-.72-5.23,3.78-5.37,6.42-.1,1.93,1.24,8.39,4.11,7.81s3.2-5.78,3.55-7.88c.27-1.62.55-2.89-.26-4.36A4,4,0,0,0,33.11,83.19Z"/><path class="cls-14" d="M46.17,98.44h0c-3.88-2.43-9.37,6.65-5.58,8.49,1.91.93,4.77-2.33,5.67-3.75S47.62,99,46.17,98.44Z"/><path class="cls-14" d="M62.86,75.33l-.46.15c0,1.54-.5,3.41-.17,4.87.22,1,1.72,4.6,2.54,5.07,1.34-.75,1.35-3.55,1.12-4.89A9.32,9.32,0,0,0,62.86,75.33Z"/><path class="cls-14" d="M69.41,62.17c-1.62-2.81-5.18,0-5.18,0a6.8,6.8,0,0,0,1.07,6.58c1.4,1.78,4.73,3.14,5.64.31C71.66,66.79,70.52,64.11,69.41,62.17Z"/></g><g class="cls-15"><path class="cls-16" d="M24,26.67h1.53a5.18,5.18,0,0,0-3.84,1.63c-.77.86-2.1,3.5-.21,3.72,1.19.14,3.54-2.46,4.2-3.28C26.92,27.18,25.94,25.52,24,26.67Z"/><path class="cls-16" d="M30.17,34.31c-.17.09-.35.2-.52.31Z"/><path class="cls-16" d="M30.17,34.31l.14-.07.08-.06Z"/><path class="cls-16" d="M29.8,40.46c1.42-.74,3.24-3.11,3.27-4.76,0-2-1.38-2.13-2.76-1.46A7,7,0,0,0,28,37.84C27.48,39.57,27.65,41.57,29.8,40.46Z"/><path class="cls-16" d="M16.69,38.7c-2.37,1.89-2.3,7.87.48,6.26a7,7,0,0,0,2.76-4.9C19.94,38.16,17.79,37.07,16.69,38.7Z"/><path class="cls-16" d="M20.65,59.09a7.8,7.8,0,0,0,2.48-5C23.07,51.63,21.3,52,20,53,17,54.65,17.65,61.42,20.65,59.09Z"/><path class="cls-16" d="M36.09,55.34c3-2.24-.81-5.9-1.85-3.27h0C33.39,53.38,33.8,57,36.09,55.34Z"/><path class="cls-16" d="M48.28,55.59A23.41,23.41,0,0,1,50,53.07c.46-.76,1.42-1.5.22-2.22-.59-.35-1.54.15-1.54.15-1.83.13-3.26,2-3.65,3.67-.29,1.27.22,4.58,2.13,3.36C47.73,57.63,48,56.24,48.28,55.59Z"/><path class="cls-16" d="M48.3,41.34c1.78-1.56-.48-5.23-1.56-4.32l0-.1C45,38,46.45,43,48.3,41.34Z"/><path class="cls-16" d="M57.94,45.77l.33-.28c-1.38.78-2.58,2.7-1.54,4.15.51-.4.67-1,1.09-1.55s1.92-1.2,2.13-2C60.46,44.23,59,45,57.94,45.77Z"/><path class="cls-16" d="M48.86,67.46a4.58,4.58,0,0,0-2.36,3.59c-.06.79.11,2.39,1.06,2.72s1-.29,1.45-1.13a11.66,11.66,0,0,1,1.32-2.36c.54-.6,2-1.35,1.89-2.37C52,66.09,50,66.56,48.86,67.46Z"/><path class="cls-16" d="M38.81,68c1.53-3.6-3.42-.27-5.33-.76v-.31C33.15,70.54,37.45,71.2,38.81,68Z"/><path class="cls-16" d="M23.23,77.33a6.09,6.09,0,0,1-2-2.15c-.34-.7-.13-1.58-.85-2a1.75,1.75,0,0,0-.84,1c.07,2.21,1.19,7.59,4.58,5.81C26.14,78.94,24.16,78,23.23,77.33Z"/><path class="cls-16" d="M19.53,74.26l0-.08c0-.08,0-.16,0-.23Z"/><path class="cls-16" d="M33.48,83.47c-5.64-1.38-6.45,9.25-4.14,9.2,1.37,0,.87-1.66,1.16-2.58a8.49,8.49,0,0,1,1.93-2.94c.44-.49,2.86-2.16,2.88-2.8C35.34,83.52,34.33,83.35,33.48,83.47Z"/><path class="cls-16" d="M49.73,85l.12-.17c-4.73,1.52-1.61,10.1.69,8.42.86-.63,1.14-4.26,1.23-5.28C51.91,86.46,50.72,84.85,49.73,85Z"/><path class="cls-16" d="M43,100.12a7.55,7.55,0,0,1,.61-.5l.12-.15Z"/><path class="cls-16" d="M43.69,99.47l.65-.57A3,3,0,0,0,43.69,99.47Z"/><path class="cls-16" d="M43.57,99.62c-1.4,1.7-2.55,5.17.35,3.7C46.58,102,46.37,97.61,43.57,99.62Z"/><path class="cls-16" d="M39.58,75s-5.57,2-5,4.74a20.28,20.28,0,0,0,2.91-2c.86-.51,2.84-.76,3.46-1.43C41.92,75.21,40.89,74.88,39.58,75Z"/><path class="cls-16" d="M65.42,49.81a18,18,0,0,0-.11-3.94c-.14-1.49-1.23-1.6-1.23-1.6C63.35,45.51,62.45,50.84,65.42,49.81Z"/><path class="cls-16" d="M58.27,35.54v-.92c.56.85,4.17,4,4,1.35C62.15,33.88,57.14,32.55,58.27,35.54Z"/><path class="cls-16" d="M65.61,62.48c-2,2.15,1.77,7.46,2.92,3.75C69.37,63.48,66.57,60.38,65.61,62.48Z"/><path class="cls-16" d="M63,77.63a2,2,0,0,1,.05-.24,1.87,1.87,0,0,0-.2-.38Z"/><path class="cls-16" d="M63.48,76.58a2.22,2.22,0,0,0-.42.81c.6,1.47,1.1,5.75,2.43,5C67.23,81.43,64.69,76.89,63.48,76.58Z"/></g><g class="cls-17"><path class="cls-16" d="M23.68,26.51l.14,0c-1.4.56-2.82,2.8-2.61,3.9.79-.17,2.49-1.76,3.32-2.33C26.06,27.06,25.6,26,23.68,26.51Z"/><path class="cls-16" d="M16,38.76l.21-.11a4.73,4.73,0,0,0-1,1.87c-.26.93-.37,2.84.88,2a15.83,15.83,0,0,0,2-3.47C18.67,37,17,37.75,16,38.76Z"/><path class="cls-16" d="M32.15,34.71c-.23-2-1.43-.39-1.43-.39-1.4.78-3.36,5.38-.82,3.6C30.37,37.59,32.21,35.25,32.15,34.71Z"/><path class="cls-16" d="M20.28,52.49c-.59.08-1,.65-1.24,1.31l.05-.2c-.63,1.34-1.23,3.74,0,4.88,1-.63,2-3.38,2.12-4.5C21.28,53.11,21.45,52.32,20.28,52.49Z"/><path class="cls-16" d="M20.1,73.92s0,0-.08.13a1.26,1.26,0,0,0-.17.69c-.21,1.4.22,3,1.53,3.56.31-1.18-.32-3.25-.34-4.53A.89.89,0,0,0,20.1,73.92Z"/><path class="cls-16" d="M48.53,51.05l.1,0h-.16c-.33-.18-1.13.15-1.78,1-1,1-1.75,2.62-1.29,3.59a21.73,21.73,0,0,0,2.54-3.06C48.64,51.74,48.74,51.24,48.53,51.05Z"/><path class="cls-16" d="M48.17,67.68l.25-.13c-1.41,1.23-2.59,3.56-1,4.4a4.87,4.87,0,0,0,1.18-1.66c.48-.77,1.3-1.36,1.75-2.08C51.44,66.42,49.11,66.22,48.17,67.68Z"/><path class="cls-16" d="M63.5,45.52a1.89,1.89,0,0,0-.31.48s0-.17,0,0,0,0,0,0a2.58,2.58,0,0,0,1.19,2.75A3.23,3.23,0,0,0,63.5,45.52Z"/><path class="cls-16" d="M32.58,83.47l.13,0c-1.93-.43-4,2.62-3.28,4.3.9-.12,3.54-3,3.88-3.79A1.38,1.38,0,0,0,32.58,83.47Z"/><path class="cls-16" d="M48.94,86.64c-1-.16-1,1.94-1.08,2.46l.2-.81c0,1.21.67,2.48,1.29.63C49.52,88.42,49.82,86.78,48.94,86.64Z"/><path class="cls-16" d="M42.81,100.89l.26-.2a2,2,0,0,0-.38,1.44c1.08-.22,2.66-1.74,2.1-2.89A2.09,2.09,0,0,0,42.81,100.89Z"/><path class="cls-16" d="M36.84,74.72a4.13,4.13,0,0,0-1,2.42C37.73,77,40.12,74.9,36.84,74.72Z"/><path class="cls-16" d="M35.57,51.64c-.54,0-.72,1.38-.8,2.44a2.06,2.06,0,0,0-.24,1.07c.46,1.8,1.89-.31,2-1.17C36.63,53.37,36.46,51.56,35.57,51.64Z"/><path class="cls-16" d="M65.93,63.13c.09.89.82,3.09,1.67,1.65C68.07,64,66.69,62.14,65.93,63.13Z"/><path class="cls-16" d="M58.42,45S56.73,46.16,57,47.15a4.67,4.67,0,0,0,2.43-1.79C59.21,45,58.88,45,58.42,45Z"/></g><g class="cls-2"><path class="cls-18" d="M30.26,49.94c2.43.74,5-.47,6.89-1.95,4.25-3.33,4.85-9.8.76-13.37l0,.16C40.3,37.42,39.09,43,36.69,45.5a8.63,8.63,0,0,1-5.82,2.8c-2.36,0-3.53-2.14-4.76-3.8C25.54,46.85,28.2,49.31,30.26,49.94Z"/><path class="cls-18" d="M50.46,65.88c2.56-.4,4.65,1.43,6.44-.94a8.45,8.45,0,0,0-2.92-13l-.52.08c2.6,2.88,4.53,6.71,2.29,10.56s-7.19,2.83-10.55,1.78c.5.71,1.44,2.09,2.27,2.26S49.74,66,50.46,65.88Z"/><path class="cls-18" d="M70.51,43h0c2,1.47,3.43,6.21,3.24,8-.42,3.92-4.41,5.49-7.65,4,.66,1.52,3.27,2,4.8,1.84a6.5,6.5,0,0,0,4.84-4C77.61,48.34,74.06,45.19,70.51,43Z"/><path class="cls-18" d="M60,77.24c.82-2.84-.49-5.64-2-8a6.16,6.16,0,0,0-7-2.91h.77c2,.19,4.31,3.29,5.06,5a9.68,9.68,0,0,1,.3,6c-.54,1.92-2.15,4.44-4.29,4.69A7.07,7.07,0,0,1,47,79.36C50.66,85.53,58.11,83.83,60,77.24Z"/><path class="cls-18" d="M15.69,64.61a6.2,6.2,0,0,1-.14-.65A2,2,0,0,0,15.69,64.61Z"/><path class="cls-18" d="M26.13,51.46l.13,0c-.09-.24-.18-.5-.28-.73Z"/><path class="cls-18" d="M29.62,57.73c-.13-1.4-1.21-7.08-3.36-6.31C27.64,55,27.82,59.64,26.13,63c-1.12,2.25-3,4.45-5.66,4.37-1.58-.06-4.17-1.06-4.78-2.77,1.35,6.23,9.58,6,12.58.85A14.16,14.16,0,0,0,29.62,57.73Z"/><path class="cls-18" d="M21.08,50.71c2-1,5,.17,5.2-3.08.06-1.11-.92-2.15-1.23-3.21a11.22,11.22,0,0,1-.3-3.22,3.91,3.91,0,0,0-4.59-4h.31c4.17.78,4.32,5.43,3,8.64a12,12,0,0,1-3.78,4.82c-1.49,1.26-2.71,1.13-4.31,2C17.85,55.25,18.78,51.85,21.08,50.71Z"/><path class="cls-18" d="M50.58,83.05c1.89,2.19,4.37,1.26,6.62,2.38C61.45,90.26,57,99,54.29,98.87A13.16,13.16,0,0,1,49,97.39C53.3,102.7,61,99,61.33,92.77a11.68,11.68,0,0,0-3-8.12C56.49,82.53,53.06,84.47,50.58,83.05Z"/><path class="cls-18" d="M34.55,82.68l.3.15c3.12,2.92,4.83,8.4,3.3,12.47-2,5.3-6.58,4.77-10,1.28,1.5,2.53,3.38,5.23,6.7,5.2,3,0,5.74-2.89,6.51-5.57A11,11,0,0,0,34.55,82.68Z"/></g><g class="cls-9"><path class="cls-19" d="M67,36a9.4,9.4,0,0,1,.53,5.24c2.91,1,2.69-1.74,2-3.78C68.63,35,66.76,32,63.82,31.8l-.76-.3C64.49,33.11,66.12,33.9,67,36Z"/><path class="cls-19" d="M70.56,58.89l.3.31c2.66,3,4.76,6.46,3.29,10.63A5.51,5.51,0,0,1,70,73.55c-2.38.55-3.3-.45-5.19-1.56.86,1.88,4.13,3.41,6.1,3.39A5.91,5.91,0,0,0,76.23,71C77.69,66.54,75,60.57,70.56,58.89Z"/><path class="cls-19" d="M35.1,31.78c.39-.92-.19-2.42-.47-3.3.06,2.93-4.69,4.09-7.12,5.05-3.09,1.23-6.36,3.74-9,1.33l.15.16c-.81.13-.24,1.57.44,1.83s2.23-.53,3.08-.32,2.47,2.31,3,2.28c0,0,.88-1.75,1.32-2.45a9.78,9.78,0,0,1,6.56-3.83C34.33,32.41,34.6,33,35.1,31.78Z"/><path class="cls-19" d="M45.54,90.72c.4-.68,0-1.9.23-2.68.44-1.7,3-3.05,2.49-5-.46-1.77-2.59-2.71-3.08-4.73S44.07,73,44,73.16c-.33-1.74,1.42-3.51,1.18-5.47A7.16,7.16,0,0,0,43,63.58a7.53,7.53,0,0,1-.57,7.26,9.71,9.71,0,0,1-4.75,2.9c-2.11.59-3.11-.81-5-1,1.4,2.35,2.57,2.69,4.92,1.73,1.45-.59,4.12-1.81,5.57-.62s.25,3.54.32,5.13c.08,1.91,2.62,3.6,2.71,5.41.08,1.6-2.65,3.73-4.17,3.33-1.1-.29-1-1-1.62-1.9a12.4,12.4,0,0,0-2.55-2.12A18.09,18.09,0,0,1,42.94,92C43.55,91.78,45.2,91.31,45.54,90.72Z"/><path class="cls-19" d="M63.33,73.7a16.3,16.3,0,0,1,3.22,5.69c.45,2.13.4,7.69-1.89,8.81-3,1.49-3.67-5-3.58-6.74.13-2.67,1.81-6.54-.47-8.76a14.16,14.16,0,0,1,.73,5.16,5.75,5.75,0,0,1-1,2.76c-.42.66-2,1.78-2,2.53a22.84,22.84,0,0,1,3,4.44c.48,1.34-.43,4.72,1.29,4.64s4.22-2.71,4.71-4.11a18.22,18.22,0,0,0,.6-5.51,10.81,10.81,0,0,0-1.08-5.28A10.87,10.87,0,0,0,63.33,73.7Z"/><path class="cls-19" d="M47.91,98.37c.16.18.33.34.49.5l-.19-.35Z"/><path class="cls-19" d="M48.4,98.87c1.48,2.84.78,5.84-.81,8.61a6.47,6.47,0,0,1-4,3.45c-2.22.44-2.7-1-4.18-2.07,0,2,2.61,3.5,4.41,3.64,2.37.19,4.51-1.55,5.79-3.42a10,10,0,0,0,1.56-6C51,100.72,49.82,100.23,48.4,98.87Z"/><path class="cls-19" d="M64.75,42.46c-2.65-.38-3.23.56-5.06-1.93-1.42-2-3-3.86-4.6-5.65a5.47,5.47,0,0,0-.45,3l.31-2.6c.45,1.35-.31,3.11-.14,4.52a15.46,15.46,0,0,0,.62,2.23,15.47,15.47,0,0,0-4-5.37h-.31c2.74,1,3.31,7.86,2.06,10-1,1.73-3.11,2.67-5,3.15-2.21.57-4.45-1-6.29-1.57.1.8,2.1,3.25,3,3.46s1-1.43,3.87-1.23c1.16.08,2.12-.36,3.26-.19,1.42.22,2.06,1.6,2.9-2.48.43-2.1,2.4-.81.83-4.87a7.19,7.19,0,0,0,.84,1.65c1,1.21,2.77-.1,4.18-.26A7.19,7.19,0,0,0,64.75,42.46Z"/></g></g></g></svg>