<svg xmlns="http://www.w3.org/2000/svg" viewBox="0 0 87.27 140.43"><defs><style>.cls-1{fill:#cdcebb;}.cls-2,.cls-28,.cls-32,.cls-33,.cls-36,.cls-40,.cls-41{fill:#42210b;}.cls-2{opacity:0.14;}.cls-29,.cls-3,.cls-34,.cls-35,.cls-42,.cls-8,.cls-9{fill:#fff;}.cls-3,.cls-36{opacity:0.36;}.cls-4{fill:#9f7200;}.cls-5{fill:#8c8e6d;}.cls-6{fill:#a3a38e;}.cls-7{fill:#77765c;}.cls-8{opacity:0.43;}.cls-25,.cls-9{opacity:0.58;}.cls-10{fill:#bcb9ac;opacity:0.48;}.cls-11{fill:#b6b7a4;}.cls-12{fill:#a9aa8a;}.cls-13,.cls-27{fill:#e2e3d2;}.cls-13,.cls-26{opacity:0.51;}.cls-14{fill:#adab89;}.cls-14,.cls-16{opacity:0.62;}.cls-15{fill:#9b9978;opacity:0.66;}.cls-16{fill:#ededeb;}.cls-17{fill:#fafafa;}.cls-18,.cls-38{fill:#c09805;}.cls-19{fill:#b78d04;}.cls-20{fill:#d3ad04;}.cls-21{fill:#efce05;}.cls-22{fill:#f3da04;}.cls-23{fill:#fdf407;}.cls-24{fill:#d6bf72;}.cls-25{fill:#dfdfc7;}.cls-26{fill:#d4d4c3;}.cls-27,.cls-32{opacity:0.1;}.cls-28{opacity:0.15;}.cls-29,.cls-41{opacity:0.31;}.cls-30{fill:#fffd1a;}.cls-31{fill:#e2cf98;}.cls-33{opacity:0.13;}.cls-35{opacity:0.18;}.cls-37{fill:#d3d3bc;opacity:0.69;}.cls-38{opacity:0.61;}.cls-39{fill:#a08204;opacity:0.52;}.cls-40{opacity:0.26;}.cls-42{opacity:0.54;}</style></defs><g id="Layer_2" data-name="Layer 2"><g id="PEOPLE"><path class="cls-1" d="M54.54,129.87c-.45-12.56-11.81-26.38-19.1-26.38-6.8,0-18.61,13.81-19.09,26.38a1.89,1.89,0,0,0-.08.53c0,4.15,8.59,8.21,19.17,8.21s19.18-4.33,19.18-8.21A2,2,0,0,0,54.54,129.87Z"/><path class="cls-1" d="M54.54,131.69c-.45-12.57-11.81-26.39-19.1-26.39-6.8,0-18.61,13.82-19.09,26.38a2,2,0,0,0-.08.54c0,4.15,8.59,8.21,19.17,8.21s19.18-4.33,19.18-8.21A1.89,1.89,0,0,0,54.54,131.69Z"/><path class="cls-2" d="M54.26,130.75c-1-2.82-11.6-4.83-18.75-4.83-6.68,0-17.43.47-18.74,4.83-.08.52-.08.35-.08.52,0,4.08,8.43,8.06,18.82,8.06s18.83-4.25,18.83-8.06A1.88,1.88,0,0,0,54.26,130.75Z"/><path class="cls-3" d="M52.36,130.66c-1-2.62-10.75-4.48-17.37-4.48-6.19,0-16.15.44-17.36,4.48-.08.48-.08.32-.08.48,0,3.78,7.81,7.47,17.44,7.47s17.44-3.94,17.44-7.47A2,2,0,0,0,52.36,130.66Z"/><path class="cls-4" d="M52.81,128.85c-1-2.62-10.74-4.48-17.37-4.48-6.19,0-16.15.44-17.36,4.47a2.57,2.57,0,0,0-.07.49c0,3.77,7.8,7.47,17.43,7.47s17.44-3.94,17.44-7.47A1.59,1.59,0,0,0,52.81,128.85Z"/><path class="cls-5" d="M35.44,124.37c-5.79,0-14.89.38-17,3.74,1.72,3.19,8.69,6,17,6s15.07-2.85,16.94-5.87C50.21,125.93,41.51,124.37,35.44,124.37Z"/><path class="cls-6" d="M19.14,127.29c2.49,2.75,8.85,5,16.3,5,7.18,0,13.35-2.19,16-4.77-3.1-1.88-10.61-3.12-16-3.12S22.13,124.69,19.14,127.29Z"/><path class="cls-7" d="M20,129c2.9,2.38,8.73,4.2,15.47,4.2,6.39,0,12-1.74,15-3.94-3.51-1.58-10.11-2.59-15-2.59S23.42,126.91,20,129Z"/><path class="cls-2" d="M39.18,127.43s2.41,3.35,3.39,10.51a25.64,25.64,0,0,0,8.72-3.21c-.69-4.44-1.2-9.3-.49-11.08Z"/><path class="cls-2" d="M53.92,120.2c-1.45,3.54-9.37,7.07-18.93,7.07s-17.47-3.31-18.93-7c-.08.63-.14,1.26-.16,1.89a2,2,0,0,0-.08.53c0,4.15,8.58,8.22,19.17,8.22s19.17-4.34,19.17-8.22a1.88,1.88,0,0,0-.08-.52C54.06,121.51,54,120.85,53.92,120.2Z"/><path class="cls-8" d="M17.52,126.77s-.85,3.4-.55,4.13,8.05,9.2,22.53,5.4l-.32-4S21.79,132.36,17.52,126.77Z"/><path class="cls-9" d="M52.38,126.64s1.25,4.74.95,5.38,1.05-.94,1-1.44-.25-4.63-.7-4.83A1.33,1.33,0,0,1,52.38,126.64Z"/><path class="cls-8" d="M30.76,136.82c0-1.6,0-3.56,0-5-3.93-.39-8.75-1.25-11.72-3.09a17.69,17.69,0,0,0-.55,4A19.64,19.64,0,0,0,30.76,136.82Z"/><path class="cls-8" d="M18.5,132.58a16.51,16.51,0,0,0,5,2.64c0-1.44,0-3,0-4.45A15.93,15.93,0,0,1,19,129,15.39,15.39,0,0,0,18.5,132.58Z"/><path class="cls-10" d="M47.27,52.71c2.54-2.51,4.08-6.18,4.08-11.14s-2-9.69-4.83-14.17h0A22.29,22.29,0,0,1,51.3,4.92c1.27-.45,2-1.09,2-1.63,0-1.82-8-3.29-17.82-3.29S17.65,1.47,17.65,3.29a.78.78,0,0,0,0,.14,34.82,34.82,0,0,0-4.16-.31c-.07.18.06,1.88,3.76,2.63A8.18,8.18,0,0,1,22.61,9.1c2.3,4.06,4.1,10.2,1.61,18.17-2.87,4.19-5,9.37-5,14.27,0,5.08,1.62,8.8,4.26,11.32C12,61.74,0,80.57,0,97.8c0,23.55,15.8,33.86,35.28,33.86S70.56,121.35,70.56,97.8C70.56,80.47,58.9,61.52,47.27,52.71Z"/><path class="cls-11" d="M23.48,28.4c-2.49,4-4.27,8.67-4.27,13.14,0,5.08,1.62,8.8,4.26,11.32C12,61.74,0,80.57,0,97.8a37.23,37.23,0,0,0,4.08,17.94c14.67-13.78,24.08-35.07,24.08-59A87.07,87.07,0,0,0,23.48,28.4Z"/><path class="cls-12" d="M2.58,83.12c.25,3,.73,6.75,1.46,11.33L27.79,51.92a14.07,14.07,0,0,0-5,.25q.32.36.66.69C15.24,59.24,6.72,70.75,2.58,83.12Z"/><path class="cls-13" d="M35.28,131.16C13.5,131.16.5,118.69.5,97.8c0-17.22,12-35.8,23.28-44.54l.46-.36-.42-.4c-2.73-2.59-4.11-6.28-4.11-11,0-4.34,1.79-9.43,4.92-14l0-.06,0-.07c3.8-12.15-2.22-20.19-5-23.08l-.08-.07-.1,0c-1.37-.53-1.39-.92-1.39-.93,0-1,5.95-2.79,17.33-2.79S52.79,2.31,52.79,3.29c0,.18-.4.71-1.65,1.16l-.12,0-.08.09a22.82,22.82,0,0,0-5,22.32h-.23l.43.76c3.2,5.12,4.75,9.67,4.75,13.91,0,4.58-1.32,8.2-3.93,10.78l-.41.41.46.34c11.2,8.49,23.1,27,23.1,44.7C70.07,118.69,57.06,131.16,35.28,131.16Z"/><path class="cls-14" d="M21.29,4.64a21.38,21.38,0,0,1,5.18,18.92c-2.24,10,1.69.72,1.69.72s3.06-5.93-1.68-19.6C25.9,3,32.77,3.42,32.87,3.29Z"/><path class="cls-15" d="M23.66,5.58s4.19,5.68,4.19,10.52c0,0,0-6.42-2.09-10.06Z"/><path class="cls-16" d="M42.11,30.15s-1.73-19.88,7.8-26L38.11,1A35.83,35.83,0,0,0,34,24.86C36.43,38.23,42.11,30.15,42.11,30.15Z"/><path class="cls-17" d="M46.06,3.11,41.66,2h0s-6.19,4.61-6.27,22.4c0,2.95-.16,4.58,0,5.34.09.19.17.37.26.54.6-.14,5.06-3.86,5.06-3.86S39.56,9.14,46.06,3.11Z"/><path class="cls-18" d="M35.28,131.16C13.5,131.16.5,118.69.5,97.8c0-17.22,12-35.8,23.28-44.54l.46-.36-.42-.4c-2.73-2.59-4.11-6.28-4.11-11,0-4.34,1.79-9.43,4.92-14l0-.06,0-.07a27.92,27.92,0,0,0,.8-3.18l19.78,0a25.42,25.42,0,0,0,.63,2.62l.2.76c3.2,5.12,4.75,9.67,4.75,13.91,0,4.58-1.32,8.2-3.93,10.78l-.41.41.46.34c11.2,8.49,23.1,27,23.1,44.7C70.07,118.69,57.06,131.16,35.28,131.16Z"/><path class="cls-19" d="M47,53.1l-.46-.34.41-.41c2.61-2.58,3.93-6.2,3.93-10.78,0-4.24-1.55-8.79-4.75-13.91l-.2-.76a25.42,25.42,0,0,1-.63-2.62H42.11c2.45,5,5.09,12.51,3.09,18.87-3.35,10.62-10.07,11.3-10.07,11.3v.83s24.26,1.14,24.33,30.87c.07,26.85-24.31,44.61-54.72,29.68,5.49,9.82,16.07,15.33,30.54,15.33,21.78,0,34.79-12.47,34.79-33.36C70.07,80.14,58.17,61.59,47,53.1Z"/><path class="cls-20" d="M41.16,42.06c1.62-3.43,1.26-7.44.58-11.18-.39-2.19-.88-4.4-1.1-6.61l-13.88-.61c-.44,3.08-2.72,5.45-4,8-1.74,3.57-2.74,6.63-2.58,10.6a10.85,10.85,0,0,0,2.09,6.11,6.79,6.79,0,0,0,6.56,2.74,14.87,14.87,0,0,0,6.76-3A16.47,16.47,0,0,0,41.16,42.06Z"/><path class="cls-21" d="M38.73,40.87c1.31-2.75,1-6,.47-9-.32-1.76-.71-3.53-.88-5.3l-9.5-1.68c-.48,2.16-2.84,5.91-3.84,8a21.64,21.64,0,0,0-2.19,9.21A7.06,7.06,0,0,0,23.6,46a5.44,5.44,0,0,0,5.26,2.19,11.94,11.94,0,0,0,5.43-2.44A13.09,13.09,0,0,0,38.73,40.87Z"/><path class="cls-22" d="M36,40.37c.93-2,.72-4.27.33-6.41-.23-1.25-1-8.33-1.16-9.6H29.9a104.35,104.35,0,0,1-3.74,10.31,15.49,15.49,0,0,0-1.57,6.58A5.07,5.07,0,0,0,25.17,44a3.89,3.89,0,0,0,3.76,1.57,8.55,8.55,0,0,0,3.88-1.75A9.47,9.47,0,0,0,36,40.37Z"/><path class="cls-23" d="M34.51,38.75c.69-1.46-1.08-11.49-1.37-13.07-.17-.93-3.28-.07-5.9,8.85a18.47,18.47,0,0,0-1.15,4.87,3.72,3.72,0,0,0,.42,2,2.89,2.89,0,0,0,2.78,1.16,6.23,6.23,0,0,0,2.87-1.29A7,7,0,0,0,34.51,38.75Z"/><path class="cls-24" d="M45.29,24.36c0,1.32-4.43,2.38-9.9,2.38s-9.9-1.06-9.9-2.38S29.92,22,35.39,22,45.29,23.05,45.29,24.36Z"/><path class="cls-25" d="M35.47,0A65.4,65.4,0,0,0,21.33,1.29c-3.62.38-7.83,1-7.82,1.83,0,.59,2.77,1.12,5.71,1.52,2.79,1.14,9,1.93,16.25,1.93,9.84,0,17.82-1.47,17.82-3.28S45.31,0,35.47,0Z"/><path class="cls-26" d="M35.47,6.07c-6.93,0-13.24-.74-16.06-1.89l-.06,0h-.06a22.05,22.05,0,0,1-5.11-1c.5-.26,2.09-.77,7.2-1.32h.07A65.27,65.27,0,0,1,35.47.5C46.84.5,52.79,2.31,52.79,3.29S46.84,6.07,35.47,6.07Z"/><path class="cls-27" d="M35.47,5.58c-6.87,0-13.1-.73-15.87-1.87l-.12,0-.13,0c-1.57-.21-2.66-.41-3.42-.57a52.59,52.59,0,0,1,5.51-.8l.09,0A64.74,64.74,0,0,1,35.47,1C46,1,51.41,2.54,52.23,3.29,51.41,4,46,5.58,35.47,5.58Z"/><path class="cls-28" d="M30.17,1.15a51,51,0,0,0-8.64,1.11l-.09,0a52.59,52.59,0,0,0-5.51.8c.76.16,1.85.36,3.42.57l.13,0,.12,0c2.11.87,5.47,1.41,10.36,1.66C29.78,4.1,30.32,2.43,30.17,1.15Z"/><path class="cls-29" d="M36.76,5.57a66.68,66.68,0,0,0,11.15-.94c.39-.83.8-1.66,1.2-2.45A60.81,60.81,0,0,0,37.87,1C37.54,2.36,37.12,4.06,36.76,5.57Z"/><path class="cls-20" d="M15,63.5C5.41,74.68,0,92.43,5.06,106.24c.78,2.13,2.42,5.21,4.39,6.31,13.73,7.67,33.82-1.82,39.85-26.9,2.9-12.05-2.81-21.31-4.71-23.06C38,56.47,26.87,50.12,15,63.5Z"/><path class="cls-21" d="M16.57,65.89C8.92,74.83,3.13,84.72,7.88,100.15a10.85,10.85,0,0,0,4.27,5c11,6.13,26.24-1.86,31.07-21.91,2.32-9.64-2.25-17-3.76-18.44-5.31-4.9-13.38-9.57-22.89,1.12Z"/><path class="cls-22" d="M15.8,67.67c-5.94,7-9.3,18-6.16,26.57.48,1.32,1.5,3.24,2.73,3.92,8.53,4.77,20.4-1.44,24.15-17,1.81-7.49-1.74-13.25-2.92-14.34-4.13-3.8-10.4-7.44-17.8.88Z"/><path class="cls-23" d="M15.19,71.57c-4.24,5-6.64,12.83-4.4,19a5.64,5.64,0,0,0,2,2.79c6.08,3.4,14.55-1,17.23-12.15,1.28-5.34-1.25-9.45-2.09-10.22-2.95-2.72-7.42-5.31-12.69.62Z"/><path class="cls-30" d="M15.94,73.45C13.1,76.77,11.5,82,13,86.15A3.88,3.88,0,0,0,14.3,88c4.08,2.27,9.76-.7,11.55-8.15A7.85,7.85,0,0,0,24.45,73c-2-1.82-5-3.56-8.51.42Z"/><path class="cls-4" d="M61.69,74.7s7.17,25.44-4.69,37.52c-19.1,19.44-45.44,10-45.44,10S40.16,138.78,60,118.2C74.77,102.94,63.69,83.09,61.69,74.7Z"/><path class="cls-4" d="M45.29,27.34s9.3,18.78-5.73,27c0,0,3.93-1.81,6.63-3.21S52,40.47,46.1,27.66Z"/><path class="cls-31" d="M30.43,26.42C30,24.7,32,23.14,34.24,22c-4.93.14-8.75,1.14-8.75,2.36C25.49,25.24,27.48,26,30.43,26.42Z"/><path class="cls-31" d="M39.48,26.53c3.43-.38,5.81-1.21,5.81-2.17,0-.65-1.08-1.23-2.82-1.66A8.66,8.66,0,0,1,39.48,26.53Z"/><path class="cls-32" d="M35.28,131.66c19.49,0,35.28-10.31,35.28-33.86,0-17.33-11.66-36.28-23.29-45.09,2.54-2.51,4.08-6.18,4.08-11.14s-2-9.69-4.83-14.17h0A22.29,22.29,0,0,1,51.3,4.92c1.27-.45,2-1.09,2-1.63a1,1,0,0,0-.47-.75c1.9,2.79-12,4.27-13.34,4-1.85-.44-1.84,17.37,2.18,23s1.39,22.73-7.42,24.87,2.86-1.23,12.41,7.12c24.95,21.77-7,80-45,48.36C6.18,124.91,19.52,131.66,35.28,131.66Z"/><path class="cls-33" d="M41.66,7.23s4.65.19,6.61-.66-9,9-1.73,24.91C46.54,31.48,38.75,25.59,41.66,7.23Z"/><path class="cls-8" d="M20.13,64S1.22,78.18,6,112c0,0-.83-30.4,33.54-48.26C39.56,63.69,26.35,66.07,20.13,64Z"/><path class="cls-8" d="M19.57,65.25S7.1,74.7,5.86,101.54c0,0,2.4-23,28.42-36.53C34.28,65,24.28,66.81,19.57,65.25Z"/><path class="cls-34" d="M17.11,69.23s-8,11.65-9.23,21.67c0,0,9.43-20.22,17.6-22.92Z"/><path class="cls-8" d="M28.16,19s1.09,7.21-5,15c-1.28,1.64-3.87,10.18.46,13.67,0,0,.27-9,4.5-14.33C30.32,30.61,28.79,20,28.16,19Z"/><path class="cls-8" d="M27.79,23.48s-1.65,7.1-5.35,11.86c-.78,1-2.36,6.22.29,8.35,0,0,.16-5.5,2.74-8.76C26.8,33.27,28.17,24.07,27.79,23.48Z"/><path class="cls-34" d="M24.79,32.57S20.38,36,21.55,39.84C21.55,39.84,22,38.56,24.79,32.57Z"/><path class="cls-35" d="M61.71,71s20.47,38.5-21.19,58.22c0,0,20.54-1.77,26.5-20.69S61.71,71,61.71,71Z"/><path class="cls-35" d="M48.51,34l.06.33c.41,2.23,2.37,14.92-4.7,18C43.4,52.54,53.29,51.17,48.51,34Z"/><path class="cls-28" d="M21.75,2.21l-.22,0-.09,0a52.59,52.59,0,0,0-5.51.8c.76.16,1.85.36,3.42.57l.13,0,.12,0a15.22,15.22,0,0,0,2.49.73A9.63,9.63,0,0,0,21.75,2.21Z"/><path class="cls-34" d="M36.11,1s11.36.13,15.22,2.23C51.33,3.26,48.72-.24,36.11,1Z"/><path class="cls-34" d="M14.18,3.1s-.66.11.64.74a16.85,16.85,0,0,0,4.4.8Z"/><path class="cls-34" d="M19.8,4.44s2.72,2,13.07,2.13C32.87,6.57,21.46,5.6,19.8,4.44Z"/><path class="cls-18" d="M42.31,55.88s3-.56,4-.78c3.56-.72,13.81,12.2,15,18C61.32,73.13,52.88,56.39,42.31,55.88Z"/><path class="cls-2" d="M35.39,56c-5.78,0-10.55-1.39-11.18-3.17a1.75,1.75,0,0,0-.08.51c0,2.48,5,4.48,11.26,4.48s11.26-2,11.26-4.48a1.75,1.75,0,0,0-.08-.51C45.94,54.59,41.18,56,35.39,56Z"/><path class="cls-36" d="M48.27,6.57S37,16.74,46.54,31.48C46.54,31.48,38.73,19.74,48.27,6.57Z"/><path class="cls-37" d="M83.49,33C70.22,9,51.36,22.2,46,26.2c-1,.74-.76,2-.1,3.05,0,0,4.81,7.51,3.78,4.33s3.09-5.73,3.09-5.73h0c5.09-2.81,12.95-5.52,18.6-1.65,14.59,10,12.44,35.16,3.49,44.94-7,7.6-12.25-.25-12.25-.25s-1.53,7.34,5.72,18.33C70.67,92.73,96.75,57,83.49,33Z"/><path class="cls-33" d="M83.49,33A38,38,0,0,0,79,26.46c5.46,8.52,7,18.14,5.47,25.89C81.5,67.1,76,79.21,62.77,75.89a48.64,48.64,0,0,0,5.58,13.33C70.67,92.73,96.75,57,83.49,33Z"/><path class="cls-33" d="M52.79,27.85h0C57.88,25,65.91,22.1,71.39,26.2c7,5.28,7.62,9.14,8.12,10.24C74.78,26.46,70,22.35,63.15,22.7c-10.21.51-14.43,5-16.1,8.26,1.35,2,3.35,4.78,2.65,2.62C48.67,30.41,52.79,27.85,52.79,27.85Z"/><path class="cls-38" d="M63.31,72.5c-.2-.44-1.08,7.56,5,14.82,2.17,2.59,6.48-4.58,7.68-8.41C76,78.91,68.76,84.84,63.31,72.5Z"/><path class="cls-39" d="M65.88,78.94c-.23-.27-1.44,1.55,3.1,7,1.62,1.93,3-1.21,3.93-4.06C72.91,81.85,69.5,83.27,65.88,78.94Z"/><path class="cls-38" d="M47.84,25.55s-4,1.79.43,6.59c1.81,2,1-.66,1-.66S45.69,28.41,47.84,25.55Z"/><path class="cls-40" d="M69.32,89h0A36.25,36.25,0,0,1,65,80.41a12,12,0,0,0,2.13.19c13.24,0,17.59-23.47,18.33-28.17A38.33,38.33,0,0,0,83.26,32.7c.09.18.19.35.29.53C93.08,50.47,81.71,72.31,78,78.59,74,85.36,70.39,89,69.32,89Z"/><path class="cls-41" d="M69.67,87.73A22.94,22.94,0,0,1,67,83.08h.65c6.41,0,12.91-9.24,17.54-24.25-1.22,7-7.11,17.66-8,19.25C73.64,84,70.81,86.91,69.67,87.73Z"/><path class="cls-42" d="M64.3,74.87s-.09,3.17,1.89,4.42,19.46-6,17.88-32.31C84.07,47,81.29,80.17,64.3,74.87Z"/><path class="cls-42" d="M46.83,26.34s.27,1.77,1,2.06,13.71-12,23.93-4.19,12.85,21.49,11.76,27c0,0,4.11-5.86-2.65-19.28C72.91,16.1,60.55,19.24,56.07,21A46.19,46.19,0,0,0,46.83,26.34Z"/><path class="cls-34" d="M79.51,30.93a30.83,30.83,0,0,0-7.05-7.61,13.94,13.94,0,0,0-8.65-2.92c-6.7,0-12.92,4.24-15.91,6.28l-.81.55a3.44,3.44,0,0,1-.14-.42,44.89,44.89,0,0,1,8.86-5.07,21.36,21.36,0,0,1,7.54-1.47C70,20.27,75.45,23.85,79.51,30.93Z"/><path class="cls-41" d="M48.08,31.38s1.83-7.72,15.85-7.9c0,0-17.91,2.72-14.45,10.52,3.07,6.92-1.9-.81-1.65-2.37Z"/></g></g></svg>