<svg xmlns="http://www.w3.org/2000/svg" xmlns:xlink="http://www.w3.org/1999/xlink" viewBox="0 0 93.17 109.18"><defs><style>.cls-1{isolation:isolate;}.cls-2{fill:url(#linear-gradient);}.cls-3,.cls-6{opacity:0.32;}.cls-12,.cls-15,.cls-3,.cls-5,.cls-6,.cls-7{mix-blend-mode:screen;}.cls-3{fill:url(#linear-gradient-2);}.cls-4{fill:url(#linear-gradient-3);}.cls-5{fill:url(#linear-gradient-4);}.cls-6,.cls-7{fill:#fff;}.cls-12,.cls-15,.cls-7{opacity:0.55;}.cls-8{fill:url(#linear-gradient-5);}.cls-9{fill:#020202;}.cls-10{fill:#737373;}.cls-11{fill:#bf8f57;}.cls-12{fill:#eaeced;}.cls-13{fill:#eedcce;}.cls-14{fill:#d0bdb9;}.cls-16{fill:#cdd2d4;}</style><linearGradient id="linear-gradient" x1="12.95" y1="91.34" x2="12.95" y2="108.39" gradientUnits="userSpaceOnUse"><stop offset="0" stop-color="#cbd7d3"/><stop offset="0.13" stop-color="#d9e2df"/><stop offset="0.28" stop-color="#e2e9e7"/><stop offset="0.51" stop-color="#e5ebe9"/><stop offset="0.82" stop-color="#e5ebe9"/><stop offset="0.86" stop-color="#e5ebe9"/><stop offset="0.92" stop-color="#dde5e2"/><stop offset="1" stop-color="#cdd9d5"/></linearGradient><linearGradient id="linear-gradient-2" x1="1.58" y1="68.72" x2="24.44" y2="68.72" gradientUnits="userSpaceOnUse"><stop offset="0" stop-color="#e5ebe9"/><stop offset="0.51" stop-color="#e5ebe9"/><stop offset="1" stop-color="#e5ebe9"/></linearGradient><linearGradient id="linear-gradient-3" x1="1.58" y1="77.7" x2="24.43" y2="77.7" gradientUnits="userSpaceOnUse"><stop offset="0" stop-color="#4a080c"/><stop offset="0.51" stop-color="#9a0508"/><stop offset="1" stop-color="#300205"/></linearGradient><linearGradient id="linear-gradient-4" x1="1.58" y1="72.1" x2="24.43" y2="72.1" xlink:href="#linear-gradient-3"/><linearGradient id="linear-gradient-5" x1="13.01" y1="53.59" x2="13.01" y2="88.52" gradientUnits="userSpaceOnUse"><stop offset="0.51" stop-color="#e5ebe9"/><stop offset="0.72" stop-color="#dfe6e4"/><stop offset="0.99" stop-color="#cedad6"/><stop offset="1" stop-color="#cdd9d5"/></linearGradient></defs><g class="cls-1"><g id="Layer_2" data-name="Layer 2"><g id="Layer_1-2" data-name="Layer 1"><path class="cls-2" d="M23,107.22a36.81,36.81,0,0,0-4-.91,8.73,8.73,0,0,1-3.33-1.94,3.58,3.58,0,0,1-1.28-2.85L15,83.14H11l.63,18.29a3.55,3.55,0,0,1-1.28,2.85,9.18,9.18,0,0,1-3.44,2,36.81,36.81,0,0,0-4,.91,1.13,1.13,0,0,0,.76,2H22.24A1.13,1.13,0,0,0,23,107.22Z"/><path class="cls-3" d="M20.16,53.59H5.86S.92,70.72,1.66,75.77,9.54,83.86,13,83.86s10.61-3,11.35-8.09S20.16,53.59,20.16,53.59Z"/><path class="cls-4" d="M1.81,71.54a17.12,17.12,0,0,0-.15,4.23c.73,5,7.88,8.09,11.35,8.09s10.61-3,11.35-8.09a17.12,17.12,0,0,0-.15-4.23Z"/><path class="cls-5" d="M24.33,72.66c0-.36-.07-.73-.12-1.12H1.81c-.05.39-.09.76-.12,1.12Z"/><path class="cls-6" d="M5.93,83.26H9.75C9,75.43,10.22,59.47,11,53.59H7.51S3.7,73.14,4.27,78.9A11.46,11.46,0,0,0,5.93,83.26Z"/><path class="cls-7" d="M16,83.26h3.82a11.46,11.46,0,0,0,1.66-4.36c.56-5.76-3.24-25.31-3.24-25.31H14.72C15.54,59.47,16.76,75.43,16,83.26Z"/><path class="cls-8" d="M21.14,53.59h-1s4.94,17.13,4.2,22.18S16.48,82,13,82,2.39,80.81,1.66,75.77s4.2-22.18,4.2-22.18h-1S-.75,73.09.09,78.83s9,9.22,12.92,9.22,12.08-3.47,12.92-9.22S21.14,53.59,21.14,53.59Z"/><path class="cls-9" d="M92.64,54.41c-2.38-9.62-13.39-15.93-16.38-16.72s-5.52-25.39-5.68-27.6a3.13,3.13,0,0,1,1.1-3C72.63.79,70.58,0,70.58,0H57.33s-2,.79-1.1,7.1a3.13,3.13,0,0,1,1.1,3c-.16,2.21-2.68,26.81-5.67,27.6s-14,7.1-16.39,16.72S39.36,91.15,39,93.51s-3.63,7.93-1.89,11.14.73,4.53,26.81,4.53,25.07-1.32,26.8-4.53-1.57-8.77-1.89-11.14S95,64,92.64,54.41Z"/><path class="cls-9" d="M92.64,54.41c-2.38-9.62-13.39-15.93-16.38-16.72s-5.52-25.39-5.68-27.6a3.13,3.13,0,0,1,1.1-3C72.63.79,70.58,0,70.58,0H57.33s-2,.79-1.1,7.1a3.13,3.13,0,0,1,1.1,3c-.16,2.21-2.68,26.81-5.67,27.6s-14,7.1-16.39,16.72S39.36,91.15,39,93.51s-3.63,7.93-1.89,11.14.73,4.53,26.81,4.53,25.07-1.32,26.8-4.53-1.57-8.77-1.89-11.14S95,64,92.64,54.41Z"/><path class="cls-10" d="M71.7,6.94a20.12,20.12,0,0,0,.23-2.84H56a20.12,20.12,0,0,0,.23,2.84Z"/><path class="cls-11" d="M72.24,23.65c-.3-1.95-.57-3.89-.79-5.67h-15c-.23,1.78-.5,3.72-.79,5.67Z"/><ellipse class="cls-12" cx="71.93" cy="46.9" rx="8.36" ry="3.75"/><path class="cls-11" d="M47.91,57.86H50s0,0,0,0v7h.35s0,0,0,0v.2s0,0,0,0h-2.5s0,0,0,0v-.2a0,0,0,0,1,0,0h.31V58.09h-.31s0,0,0,0v-.19S47.89,57.86,47.91,57.86Zm2.48,0H51.8a2.38,2.38,0,0,1,1.72.53,1,1,0,0,1,.27.74v2.6c0,.61-.37,1-1.09,1.17a5.88,5.88,0,0,1-1.3.11h-1s0,0,0,0v-.86s0,0,0,0h.89a.73.73,0,0,0,.62-.23.5.5,0,0,0,0-.16V59.14c0-.18-.14-.3-.42-.37l-.32,0h-.8s0,0,0,0v-.84S50.37,57.86,50.39,57.86Z"/><path class="cls-11" d="M56.19,57.86h1s0,0,0,0v.84s0,0,0,0h-.31a.8.8,0,0,0-.69.25.74.74,0,0,0,0,.33v4.34c0,.33.1.5.3.53a1,1,0,0,0,.44.07h.31s0,0,0,0v.86s0,0,0,0h-.54c-1.13,0-1.84-.2-2.14-.59a1,1,0,0,1-.21-.62V59.07c0-.58.39-1,1.17-1.13A3.85,3.85,0,0,1,56.19,57.86Zm1.34,0h.94a2.46,2.46,0,0,1,1.63.48.92.92,0,0,1,.3.69V64c0,.58-.4.95-1.22,1.12a6.58,6.58,0,0,1-1.13.08h-.52s0,0,0,0v-.86s0,0,0,0h.35c.37,0,.59-.09.67-.28s0-.16,0-.21V59.21c0-.31-.25-.47-.74-.47h-.3s0,0,0,0v-.84S57.5,57.86,57.53,57.86Z"/><path class="cls-11" d="M60.92,57.86h2.2c0,1,0,1.68,0,2.19v.06c0,.74,0,1.29,0,1.66s0,.91,0,1.68v1.45h.3s0,0,0,0v.2s0,0,0,0H60.92s0,0,0,0v-.2s0,0,0,0h.32v-6.8s0,0,0,0h-.29s0,0,0,0v-.19S60.9,57.86,60.92,57.86Zm2.52,0h1.62a2,2,0,0,1,1.76.69,1,1,0,0,1,.13.54v2.16c0,.61-.36,1-1.08,1.18,0,0,.4.84,1.16,2.48h.54s0,0,0,0v.2s0,0,0,0H65.06s0,0,0,0v-.23h.24L64.2,62.52h-.76l0,0v-.81l0,0h.92a.76.76,0,0,0,.7-.28.45.45,0,0,0,0-.16v-2c0-.21-.15-.34-.46-.42a1.26,1.26,0,0,0-.3,0h-.9s0,0,0,0v-.84S63.42,57.86,63.44,57.86Z"/><path class="cls-11" d="M68.12,57.86h1.4s0,0,0,0v.84s0,0,0,0h-1V59s0,0,0,0h-.38s0,0,0,0V57.88S68.09,57.86,68.12,57.86Zm1.77,0h3.49s0,0,0,0V59s0,0,0,0H73s0,0,0,0v-.23h-1.3v6.15s0,0,0,0H72s0,0,0,0v.2s0,0,0,0H69.51s0,0,0,0v-.2s0,0,0,0h.36l0-.1V57.88S69.87,57.86,69.89,57.86Z"/><path class="cls-11" d="M75.82,57.86h1s0,0,0,0v.84s0,0,0,0h-.31a.76.76,0,0,0-.68.25.59.59,0,0,0-.06.33v4.34c0,.33.1.5.3.53a1,1,0,0,0,.44.07h.31s0,0,0,0v.86s0,0,0,0h-.54c-1.13,0-1.84-.2-2.13-.59A1,1,0,0,1,73.9,64V59.07c0-.58.38-1,1.16-1.13A3.85,3.85,0,0,1,75.82,57.86Zm1.34,0h1a2.45,2.45,0,0,1,1.62.48A.93.93,0,0,1,80,59V64c0,.58-.41.95-1.23,1.12a6.54,6.54,0,0,1-1.12.08h-.53s0,0,0,0v-.86s0,0,0,0h.36c.36,0,.58-.09.66-.28a.9.9,0,0,0,0-.21V59.21c0-.31-.25-.47-.74-.47h-.3s0,0,0,0v-.84S77.14,57.86,77.16,57.86Z"/><path class="cls-11" d="M54.54,68.76h1.84v.14s0,0,0,0h-.21L57,72.65h0l.79-3.37h0c0,.16.22.85.53,2.08C58,73,57.73,73.84,57.67,74H56.25a1.39,1.39,0,0,1-.14-.45c0-.09-.46-1.64-1.29-4.65h-.31v-.16Zm3.44,0h1s.06.09.09.29c.54,2.24.83,3.45.85,3.6,0,0,.08-.17.14-.53.2-.8.46-1.86.76-3.19h-.29v-.16h1.86v.14s0,0,0,0h-.22L60.72,74H59.3a2,2,0,0,1-.16-.58c-.11-.37-.51-1.93-1.19-4.69Z"/><path class="cls-11" d="M62.77,68.76h1.82v.14s0,0,0,0h-.24v4.92h.24s0,0,0,0V74s0,0,0,0H62.77s0,0,0,0v-.15s0,0,0,0H63V68.93h-.22s0,0,0,0v-.14Z"/><path class="cls-11" d="M65.22,68.76h1.3s.07.08.15.25c.65,1.15,1,1.8,1.07,1.94v1.66h0l-1.16-2h0v3.25h.22s0,0,0,0V74s0,0,0,0H65s0,0,0,0v-.15h.24a0,0,0,0,0,0,0V68.77Zm2.42,0h1.84v.16h-.21v4.93h.18s0,0,0,0V74s0,0,0,0H67.64s0,0,0,0v-.15s0,0,0,0h.29s0,0,0,0V68.93h-.32s0,0,0,0v-.14Z"/><path class="cls-11" d="M69.85,68.76h1.53V74s0,0,0,0h-1.5s0,0,0,0v-.15h.28V68.93h-.25s0,0,0,0v-.14Zm1.77,0H73.4v.8s0,0,0,0h-.29s0,0,0,0V69.4H71.62s0,0,0,0v-.61Zm0,2.75h1.56v.62s0,0,0,0H71.62s0,0,0,0v-.62Zm1.46,1.63h.29s0,0,0,0V74s0,0,0,0H71.62s0,0,0,0V73.4s0,0,0,0h1.43v-.22Z"/><path class="cls-11" d="M59.91,79.33H60s.22.11.55.29v5.54h.11s0,0,0,0v.17s0,0,0,0h-1.1s0,0,0,0v-.17a0,0,0,0,1,0,0h.19V80.52h0l-.49.15h0L59,80.11a1.62,1.62,0,0,0,.86-.75S59.9,79.34,59.91,79.33Z"/><path class="cls-11" d="M61.83,79.33h.54s0,0,0,0v.92s0,0,0,0h-.18a0,0,0,0,1,0,0v-.2H62q-.33,0-.33.39v1.48c0,.27.08.43.24.47h.47s0,0,0,0v.46a2,2,0,0,1-.4.26h0c-.45,0-.75-.09-.87-.28a1.06,1.06,0,0,1-.24-.75V80.35C60.85,79.67,61.18,79.33,61.83,79.33Zm-.92,4.57h.91a0,0,0,0,1,0,0v.17l0,0h-.11v0c0,.27.08.43.24.46a.39.39,0,0,0,.15,0h0a.59.59,0,0,0,.23,0v.76s0,0,0,0h-.56a.81.81,0,0,1-.84-.58,2.75,2.75,0,0,1-.08-.88Zm1.62-4.56a.87.87,0,0,1,.48.19,1,1,0,0,1,.31.82v4a1,1,0,0,1-.58,1l-.21,0v-6Z"/><path class="cls-11" d="M64.56,79.33h.16s0,0,0,0v.71l-.15,0c-.12.06-.19.21-.19.47v.89c0,.27.08.43.24.47s.1,0,.1,0v.67s-.07,0-.19.06-.21.21-.21.45v1c0,.26.06.41.17.47a.89.89,0,0,0,.23,0v.71s0,0,0,0h-.29a.81.81,0,0,1-.82-.5,1.27,1.27,0,0,1-.09-.47V83a.68.68,0,0,1,.56-.66.08.08,0,0,1,.07,0h0a.82.82,0,0,1-.4-.21.73.73,0,0,1-.17-.47V80.33A.88.88,0,0,1,64.56,79.33Zm.32,0H65c.65,0,1,.34,1,1v1.24a.67.67,0,0,1-.43.68l-.09,0h0a.8.8,0,0,1,.45.28.75.75,0,0,1,.12.41v1.36a.92.92,0,0,1-.51.94,1.46,1.46,0,0,1-.4.07h-.28a0,0,0,0,1,0,0v-.7a.69.69,0,0,1,.2,0,.42.42,0,0,0,.2-.42v-1c0-.26-.05-.41-.15-.47a.59.59,0,0,0-.25-.08V82s0,0,.15-.06.2-.22.2-.46v-.79c0-.29,0-.46-.15-.5a.37.37,0,0,0-.2-.07v-.72Z"/><path class="cls-11" d="M66.3,83.9h.9s0,0,0,0v.17s0,0,0,0h-.13v1.23s0,0,0,0a1.13,1.13,0,0,1-.45-.17,1,1,0,0,1-.32-.79v-.48A0,0,0,0,1,66.3,83.9Zm0-4.57h.75c0,.86,0,1.4,0,1.61s0,.67,0,1.56h-.75s0,0,0,0V79.35S66.31,79.33,66.32,79.33Zm.89,0h1.36a0,0,0,0,1,0,0v.9a0,0,0,0,1,0,0H68.4a0,0,0,0,1,0,0v-.16H67.21s0,0,0,0v-.72S67.2,79.33,67.21,79.33Zm0,2.45h.51a.85.85,0,0,1,.85.48,1.52,1.52,0,0,1,.1.56v1.52a.93.93,0,0,1-.55,1,1.23,1.23,0,0,1-.36.06h-.55s0,0,0,0V84.6s0,0,0,0a.55.55,0,0,0,.25,0h0a.37.37,0,0,0,.34-.13.78.78,0,0,0,0-.3V83q0-.39-.15-.45a.24.24,0,0,0-.15,0h-.35s0,0,0,0v-.71S67.2,81.78,67.21,81.78Z"/><rect class="cls-13" x="62.46" y="14.19" width="3.57" height="18.1"/><rect class="cls-14" x="63.28" y="15.45" width="1.91" height="15.58"/><path class="cls-13" d="M68.62,23.25a4.38,4.38,0,1,1-8.75,0,4.38,4.38,0,1,1,8.75,0Z"/><path class="cls-14" d="M64.24,19.91a3.34,3.34,0,1,0,3.14,3.34A3.24,3.24,0,0,0,64.24,19.91Zm0,5.37a2,2,0,1,1,1.92-2A2,2,0,0,1,64.24,25.28Z"/><path class="cls-14" d="M65.46,23.25A1.22,1.22,0,1,1,64.24,22,1.21,1.21,0,0,1,65.46,23.25Z"/><g class="cls-15"><path class="cls-16" d="M68.41,7.15h1C70,.8,68.59,0,68.59,0h-.82S69,.8,68.41,7.15Z"/><path class="cls-16" d="M84.05,55.05c-1.67-9.74-9.38-16.12-11.48-16.92-1.81-.69-3.38-19.4-3.84-25.88H65.36c.38,6.48,1,25.19,2.53,25.88,1.73.8,8.08,7.18,9.45,16.92S75,92.22,75.17,94.62s2.09,8,1.09,11.26A5.54,5.54,0,0,1,74,109c1.2,0,6.07-.1,7-.17,1.07-.71,1.26-1.67,1.72-2.92,1.22-3.25-1.1-8.87-1.32-11.26S85.72,64.78,84.05,55.05Z"/><path class="cls-16" d="M59.5,7.15C59,.8,60.14,0,60.14,0h-.82s-1.43.8-.78,7.15Z"/><path class="cls-16" d="M59.18,12.25c-.46,6.48-2,25.19-3.84,25.88-2.1.8-9.81,7.18-11.48,16.92s2.86,37.17,2.64,39.57-2.54,8-1.32,11.26c.46,1.25.65,2.21,1.72,2.92,1,.07,2,.12,3.25.17-1.09-.73-1.24-1.74-1.65-3.09-1-3.25.91-8.87,1.09-11.26S46,64.78,47.42,55.05s7.72-16.12,9.44-16.92c1.5-.69,2.79-19.4,3.17-25.88Z"/></g></g></g></g></svg>