<svg xmlns="http://www.w3.org/2000/svg" viewBox="0 0 167.27 135.51"><defs><style>.cls-1{fill:#ca0000;}.cls-2{fill:#010103;}.cls-3{fill:#ffc310;}.cls-4{fill:#593127;}.cls-5{fill:#a08677;}.cls-6{fill:#7e5b46;}.cls-7{fill:#f3eee8;}.cls-8{fill:#c7beb0;}.cls-9{fill:#a1532d;}.cls-10{fill:#5d6b78;}.cls-11{fill:#403834;}</style></defs><g id="Layer_2" data-name="Layer 2"><g id="Layer_1-2" data-name="Layer 1"><polygon class="cls-1" points="4.4 108.25 0 106.47 0 95.98 4.4 94.21 4.4 108.25"/><polygon class="cls-1" points="162.87 94.21 167.27 95.98 167.27 106.47 162.87 108.25 162.87 94.21"/><circle class="cls-2" cx="55.43" cy="124.66" r="10.86" transform="translate(-42.23 29.4) rotate(-21.74)"/><circle class="cls-2" cx="111.83" cy="124.66" r="10.86" transform="translate(-35.09 205.02) rotate(-76.78)"/><polygon class="cls-2" points="140.43 123.82 26.84 123.82 19.67 112.13 147.6 112.13 140.43 123.82"/><rect class="cls-3" x="2.2" y="48.51" width="162.87" height="65.29"/><rect class="cls-4" x="2.2" y="113.8" width="34.94" height="5.22"/><rect class="cls-4" x="130.13" y="113.8" width="34.94" height="5.22"/><rect class="cls-2" x="41.46" y="125.35" width="84.36" height="3.34"/><path class="cls-5" d="M166.32,48.51H1L1.4,45C2.08,39.8,6.17,36.4,12,36.4H155.27c5.83,0,9.91,3.4,10.6,8.63Z"/><path class="cls-6" d="M165.84,44.9H1.42a.59.59,0,0,1,0,.13L1,48.51H166.32L165.87,45Z"/><polygon class="cls-7" points="2.2 48.51 2.2 78.09 37.45 78.09 37.45 87.49 130.13 87.49 130.13 78.09 165.07 78.09 165.07 48.51 2.2 48.51"/><rect class="cls-8" x="2.2" y="50.32" width="162.87" height="2.64"/><path class="cls-9" d="M57.44,82.75H42.57V62.3a3.17,3.17,0,0,1,2.84-3.4H54.6a3.16,3.16,0,0,1,2.84,3.4Z"/><path class="cls-10" d="M56.26,81.06H43.76V62.91a2.15,2.15,0,0,1,1.93-2.31h8.63a2.15,2.15,0,0,1,1.94,2.31Z"/><rect class="cls-9" x="43.39" y="65.78" width="13.66" height="1.67"/><path class="cls-9" d="M5,54H2.2V76.87H7.69V57.27A3,3,0,0,0,5,54Z"/><path class="cls-10" d="M4.69,55.63H2.2V75.25H6.55V57.85A2.07,2.07,0,0,0,4.69,55.63Z"/><rect class="cls-9" x="2.2" y="60.61" width="5.11" height="1.6"/><path class="cls-9" d="M162.31,54h2.76V76.87h-5.49V57.27A3,3,0,0,1,162.31,54Z"/><path class="cls-10" d="M162.57,55.63h2.5V75.25h-4.35V57.85A2.07,2.07,0,0,1,162.57,55.63Z"/><rect class="cls-9" x="159.96" y="60.61" width="5.11" height="1.6"/><path class="cls-9" d="M74.22,82.75H59.35V62.3a3.16,3.16,0,0,1,2.84-3.4h9.19a3.16,3.16,0,0,1,2.84,3.4Z"/><path class="cls-10" d="M73,81.06H60.54V62.91a2.14,2.14,0,0,1,1.93-2.31H71.1A2.15,2.15,0,0,1,73,62.91Z"/><rect class="cls-9" x="60.17" y="65.78" width="13.66" height="1.67"/><path class="cls-9" d="M91,82.75H76.12V62.3A3.16,3.16,0,0,1,79,58.9h9.19A3.16,3.16,0,0,1,91,62.3Z"/><path class="cls-10" d="M89.8,81.06H77.31V62.91a2.14,2.14,0,0,1,1.93-2.31h8.63a2.14,2.14,0,0,1,1.93,2.31Z"/><rect class="cls-9" x="76.94" y="65.78" width="13.66" height="1.67"/><path class="cls-9" d="M107.76,82.75H92.89V62.3a3.17,3.17,0,0,1,2.84-3.4h9.19a3.16,3.16,0,0,1,2.84,3.4Z"/><path class="cls-10" d="M106.58,81.06H94.08V62.91A2.15,2.15,0,0,1,96,60.6h8.63a2.15,2.15,0,0,1,1.94,2.31Z"/><rect class="cls-9" x="93.71" y="65.78" width="13.66" height="1.67"/><path class="cls-9" d="M124.54,82.75H109.67V62.3a3.16,3.16,0,0,1,2.84-3.4h9.19a3.16,3.16,0,0,1,2.84,3.4Z"/><path class="cls-10" d="M123.35,81.06H110.86V62.91a2.14,2.14,0,0,1,1.93-2.31h8.63a2.15,2.15,0,0,1,1.93,2.31Z"/><rect class="cls-9" x="110.49" y="65.78" width="13.66" height="1.67"/><rect class="cls-11" x="10.02" y="57.42" width="27.42" height="56.38"/><rect class="cls-7" x="10.74" y="58.46" width="25.98" height="54.31"/><rect class="cls-3" x="10.74" y="78.09" width="25.98" height="34.67"/><rect class="cls-11" x="23.12" y="57.91" width="1.24" height="55.4"/><rect class="cls-9" x="11.83" y="59.94" width="10.23" height="16.91"/><rect class="cls-10" x="12.65" y="61.15" width="8.6" height="14.51"/><rect class="cls-9" x="25.4" y="59.94" width="10.23" height="16.91"/><rect class="cls-10" x="26.22" y="61.15" width="8.6" height="14.51"/><rect class="cls-11" x="11.83" y="79.99" width="10.23" height="27.68"/><rect class="cls-10" x="12.65" y="81.19" width="8.6" height="25.28"/><rect class="cls-11" x="25.4" y="79.99" width="10.23" height="27.68"/><rect class="cls-10" x="26.22" y="81.19" width="8.6" height="25.28"/><rect class="cls-11" x="130.13" y="57.42" width="27.42" height="56.38"/><rect class="cls-7" x="130.85" y="58.46" width="25.98" height="54.31"/><rect class="cls-3" x="130.85" y="78.09" width="25.98" height="34.67"/><rect class="cls-11" x="143.22" y="57.91" width="1.24" height="55.4"/><rect class="cls-9" x="131.94" y="59.94" width="10.23" height="16.91"/><rect class="cls-10" x="132.76" y="61.15" width="8.6" height="14.51"/><rect class="cls-9" x="145.51" y="59.94" width="10.23" height="16.91"/><rect class="cls-10" x="146.33" y="61.15" width="8.6" height="14.51"/><rect class="cls-11" x="131.94" y="79.99" width="10.23" height="27.68"/><rect class="cls-10" x="132.76" y="81.19" width="8.6" height="25.28"/><rect class="cls-11" x="145.51" y="79.99" width="10.23" height="27.68"/><rect class="cls-10" x="146.33" y="81.19" width="8.6" height="25.28"/><polygon class="cls-9" points="105.29 1.36 82.32 16.05 97.8 33.9 101.03 33.9 87.05 17.09 107.37 1.36 105.29 1.36"/><rect class="cls-9" x="93.24" width="23.66" height="2.58"/><polygon class="cls-2" points="118.22 36.4 66.02 36.4 70.92 29.72 113.31 29.72 118.22 36.4"/><rect class="cls-4" x="66.78" y="87.49" width="0.3" height="26.31"/><rect class="cls-4" x="100.18" y="87.49" width="0.3" height="26.31"/></g></g></svg>